<?xml version="1.0" encoding="UTF-8"?>
<svg width="20px" height="20px" viewBox="0 0 20 20" version="1.1" xmlns="http://www.w3.org/2000/svg" xmlns:xlink="http://www.w3.org/1999/xlink">
    <title>65F9BA37-5AFF-465A-B084-A07FF6826025</title>
    <defs>
        <linearGradient x1="26.1022482%" y1="0%" x2="26.1022482%" y2="77.6488069%" id="linearGradient-1">
            <stop stop-color="#EAF9FF" stop-opacity="0.995001093" offset="0%"></stop>
            <stop stop-color="#FFFFFF" offset="99.9836101%"></stop>
        </linearGradient>
        <linearGradient x1="50%" y1="0%" x2="50%" y2="100%" id="linearGradient-2">
            <stop stop-color="#002F57" offset="0%"></stop>
            <stop stop-color="#0075D7" offset="99.9918051%"></stop>
        </linearGradient>
        <linearGradient x1="50%" y1="0%" x2="50%" y2="100%" id="linearGradient-3">
            <stop stop-color="#B03478" offset="0%"></stop>
            <stop stop-color="#9E79BB" offset="99.9918051%"></stop>
        </linearGradient>
    </defs>
    <g id="High-fidelity" stroke="none" stroke-width="1" fill="none" fill-rule="evenodd">
        <g id="Digital-River---Compliance---Detail" transform="translate(-655.000000, -900.000000)" fill-rule="nonzero">
            <g id="icons-/-padlock" transform="translate(655.000000, 900.000000)">
                <g id="Group" transform="translate(2.916667, 0.833333)">
                    <path d="M12.4341698,8.97086875 L2.0838491,8.97086875 C1.83162233,8.97086875 1.62722842,8.76644046 1.62722842,8.51424804 L1.62722842,5.63226296 C1.62722842,2.54555737 4.14949604,0.0343756873 7.249711,0.0343756873 L7.27444383,0.0343756873 C10.3713416,0.0343756873 12.8907905,2.54555737 12.8907905,5.63226296 L12.8907905,8.51423087 C12.8907905,8.76642325 12.6863966,8.97086875 12.4341698,8.97086875 L12.4341698,8.97086875 Z M2.5404354,8.05762737 L11.9775492,8.05762737 L11.9775492,5.63226296 C11.9775492,3.04915152 9.86773029,0.94759985 7.27442667,0.94759985 L7.24969383,0.94759985 C4.65298708,0.94759985 2.5404354,3.04915152 2.5404354,5.63226296 L2.5404354,8.05762737 L2.5404354,8.05762737 Z" id="Shape" fill="#0075D7"></path>
                    <path d="M14.3367932,8.47012738 L0.137105033,8.51424804 L0.137105033,16.8727766 C0.137105033,17.3277126 0.3293323,17.7395001 0.637449896,18.0380396 C0.950362925,18.3412254 1.38261888,18.5281407 1.85881298,18.5281407 L12.65307,18.5281407 C13.1311086,18.5281407 13.5650709,18.3411283 13.8791999,18.0376369 C14.1880953,17.7392018 14.3809139,17.3275887 14.3809139,16.8727766 L14.3367932,8.47012738 Z" id="Shape" stroke="url(#linearGradient-2)" stroke-width="0.824999996" fill="url(#linearGradient-1)"></path>
                    <path d="M7.25593292,10.1942587 C8.47885888,10.1942587 9.47379246,11.1891924 9.47379246,12.4121183 C9.47379246,13.4774293 8.71880617,14.3697297 7.71577942,14.5820395 L7.71563013,16.3531121 C7.71563013,16.6053045 7.51123621,16.8097328 7.25900946,16.8097328 C7.00678271,16.8097328 6.80238879,16.6053045 6.80238879,16.3531121 L6.80238275,14.5833623 C5.79623146,14.3734621 5.03807333,13.4796705 5.03807333,12.4121183 C5.03807333,11.1891752 6.03300692,10.1942587 7.25593292,10.1942587 Z M7.25593292,11.1075001 C6.53660108,11.1075001 5.95131467,11.6927521 5.95131467,12.4121183 C5.95131467,13.0872756 6.46684892,13.6442716 7.12488875,13.7102057 C7.16726471,13.6964317 7.2123175,13.6894256 7.25900946,13.6894256 C7.30521317,13.6894256 7.34981179,13.6962854 7.39184296,13.709042 C8.04739538,13.6416962 8.56055112,13.0857003 8.56055112,12.4121183 C8.56055112,11.6927521 7.97526471,11.1075001 7.25593292,11.1075001 Z" id="Combined-Shape" fill="url(#linearGradient-3)"></path>
                </g>
            </g>
        </g>
    </g>
</svg>