<?xml version="1.0" encoding="UTF-8" standalone="no"?><svg xmlns="http://www.w3.org/2000/svg" width="20" height="18" viewBox="0 0 20 18">
  <path fill="#002F57" d="M15,9 C14.3097656,9 13.75,9.57575893 13.75,10.2857143 C13.75,10.9956696 14.3097656,11.5714286 15,11.5714286 C15.6902344,11.5714286 16.25,10.9956696 16.25,10.2857143 C16.25,9.57575893 15.6902344,9 15,9 Z M18.125,2.57142857 L17.5,2.57142857 L17.5,1.92857143 C17.5,0.8634375 16.6605469,0 15.625,0 L3.75,0 C1.67890625,0 0,1.726875 0,3.85714286 L0,14.1428571 C0,16.273125 1.67890625,18 3.75,18 L17.5,18 C18.8808594,18 20,16.8488839 20,15.4285714 L20,4.5 C20,3.43486607 19.1605469,2.57142857 18.125,2.57142857 Z M18.75,15.4285714 C18.75,16.1373214 18.1890625,16.7142857 17.5,16.7142857 L3.75,16.7142857 C2.37148437,16.7142857 1.25,15.5607589 1.25,14.1428571 L1.25,3.85714286 C1.25,2.43924107 2.37148437,1.28571429 3.75,1.28571429 L15.625,1.28571429 C15.9695312,1.28571429 16.25,1.57419643 16.25,1.92857143 L16.25,2.57142857 L4.375,2.57142857 C4.0296875,2.57142857 3.75,2.85910714 3.75,3.21428571 C3.75,3.56946429 4.0296875,3.85714286 4.375,3.85714286 L18.125,3.85714286 C18.4695312,3.85714286 18.75,4.145625 18.75,4.5 L18.75,15.4285714 Z"/>
</svg>
