<?xml version="1.0" encoding="UTF-8"?>
<svg width="32px" height="32px" viewBox="0 0 32 32" version="1.1" xmlns="http://www.w3.org/2000/svg" xmlns:xlink="http://www.w3.org/1999/xlink">
    <title>icons/utilty/arrow/dark-blue</title>
    <g id="icons/utilty/arrow/dark-blue" stroke="none" stroke-width="1" fill="none" fill-rule="evenodd">
        <g id="icons-/-arrow-/dark-bllue" transform="translate(9.000000, 10.000000)" fill="#003058">
            <path d="M7.56764876,0.0651353811 C7.48222444,-0.0217117937 7.34352001,-0.0217117937 7.25787552,0.0651353811 C7.17223104,0.152205241 7.17223104,0.292942201 7.25787552,0.379566691 L12.575099,5.77901142 L7.25787552,11.1780108 C7.17223104,11.2650806 7.17223104,11.4060403 7.25787552,11.4928875 C7.30058768,11.5363111 7.35672995,11.5581342 7.41287223,11.5581342 C7.4690145,11.5581342 7.5249366,11.5363111 7.56764876,11.4928875 L13.0330438,5.943353 C13.0777375,5.89792525 13.0977725,5.83846834 13.0960112,5.77901142 C13.0977725,5.7197772 13.0777375,5.6600976 13.0330438,5.61489253 L7.56764876,0.0651353811 Z" id="Fill-1" stroke="#003058" stroke-width="1.0546875"></path>
            <rect id="Rectangle" x="0" y="5.00111576" width="12.173856" height="1.66703859"></rect>
        </g>
    </g>
</svg>