<svg width="355" height="635" viewBox="0 0 355 635" fill="none" xmlns="http://www.w3.org/2000/svg">
<path d="M0 0H354V634H2.17846C0.97533 634 0 632.552 0 630.765V0Z" fill="white" fill-opacity="0.9"/>
<path d="M0 0H354V634H2.17846C0.97533 634 0 632.552 0 630.765V0Z" fill="url(#paint0_linear)"/>
<path d="M0 0H354V634H2.17846C0.97533 634 0 632.552 0 630.765V0Z" fill="url(#paint1_linear)"/>
<path d="M0 0H354V634H2.17846C0.97533 634 0 632.552 0 630.765V0Z" fill="url(#paint2_linear)"/>
<mask id="mask0" mask-type="alpha" maskUnits="userSpaceOnUse" x="0" y="0" width="354" height="634">
<path d="M0 0H354V634H2.17846C0.97533 634 0 632.552 0 630.765V0Z" fill="white"/>
</mask>
<g mask="url(#mask0)">
<path d="M0 0H354V634H2.17846C0.97533 634 0 632.552 0 630.765V0Z" fill="white" fill-opacity="0.9"/>
<path d="M0 0H354V634H2.17846C0.97533 634 0 632.552 0 630.765V0Z" fill="url(#paint3_linear)"/>
<path d="M0 0H354V634H2.17846C0.97533 634 0 632.552 0 630.765V0Z" fill="url(#paint4_linear)"/>
<path d="M0 0H354V634H2.17846C0.97533 634 0 632.552 0 630.765V0Z" fill="url(#paint5_linear)"/>
</g>
<path opacity="0.06" fill-rule="evenodd" clip-rule="evenodd" d="M354.061 535.036L353.783 535.027C353.322 534.998 352.879 534.896 352.464 534.738L327.361 578.548L327.55 578.716C328.284 579.408 328.796 580.342 328.976 581.396H354.061V583.041H328.976L328.924 583.304C328.706 584.258 328.21 585.1 327.531 585.736L352.674 629.622L352.941 629.544C353.301 629.451 353.676 629.402 354.061 629.402V634.148H0V629.402H0.00157034L0.289451 629.411C0.670109 629.436 1.0377 629.508 1.38821 629.622L26.5362 585.736L26.3541 585.558C25.7041 584.885 25.2524 584.014 25.0883 583.041H0.00157034V581.396H25.0883L25.1398 581.135C25.3732 580.102 25.9329 579.199 26.7026 578.548L1.60021 534.738L1.34744 534.826C0.921111 534.961 0.470065 535.036 0.00157034 535.036H0V525.757H0.00157034L0.289451 525.766C0.670109 525.79 1.0377 525.862 1.38821 525.977L26.5362 482.091L26.3541 481.912C25.7041 481.239 25.2524 480.369 25.0883 479.396H0.00157034V477.75H25.0883L25.1398 477.489C25.3732 476.456 25.9329 475.554 26.7026 474.903L1.60021 431.093L1.34744 431.181C0.921111 431.316 0.470065 431.391 0.00157034 431.391H0V422.112H0.00157034L0.289451 422.121C0.670109 422.145 1.0377 422.217 1.38821 422.331L26.5362 378.446L26.3541 378.267C25.7041 377.594 25.2524 376.724 25.0883 375.751H0.00157034V374.105H25.0883L25.1398 373.844C25.3732 372.811 25.9329 371.909 26.7026 371.258L1.60021 327.447L1.34744 327.535C0.921111 327.67 0.470065 327.746 0.00157034 327.746H0V323H354.061V327.746L353.783 327.737C353.322 327.707 352.879 327.606 352.464 327.447L327.361 371.258L327.55 371.426C328.284 372.118 328.796 373.051 328.976 374.105H354.061V375.751H328.976L328.924 376.014C328.706 376.967 328.21 377.809 327.531 378.446L352.674 422.331L352.941 422.254C353.301 422.161 353.676 422.112 354.061 422.112V431.391L353.783 431.382C353.322 431.353 352.879 431.251 352.464 431.093L327.361 474.903L327.55 475.071C328.284 475.763 328.796 476.696 328.976 477.75H354.061V479.396H328.976L328.924 479.659C328.706 480.612 328.21 481.455 327.531 482.091L352.674 525.977L352.941 525.899C353.301 525.806 353.676 525.757 354.061 525.757V535.036ZM266.888 586.628C266.36 586.843 265.786 586.967 265.184 586.967L264.927 586.96C264.418 586.93 263.931 586.812 263.48 586.628L238.392 630.41L238.577 630.567C239.359 631.266 239.908 632.228 240.099 633.323H290.271L290.32 633.073C290.562 631.999 291.156 631.068 291.973 630.41L266.888 586.628ZM326.141 586.628C325.612 586.843 325.039 586.967 324.436 586.967L324.18 586.96C323.671 586.93 323.185 586.812 322.73 586.628L297.645 630.41L297.83 630.567C298.614 631.266 299.162 632.228 299.349 633.323H349.523L349.572 633.073C349.814 631.999 350.408 631.068 351.226 630.41L326.141 586.628ZM208.363 586.628C207.834 586.843 207.261 586.967 206.658 586.967L206.402 586.96C205.894 586.93 205.407 586.812 204.952 586.628L179.867 630.41L180.052 630.567C180.836 631.266 181.385 632.228 181.571 633.323H231.745L231.794 633.073C232.036 631.999 232.63 631.068 233.448 630.41L208.363 586.628ZM31.3321 586.628C30.8044 586.843 30.2297 586.967 29.6282 586.967L29.3716 586.96C28.862 586.93 28.3753 586.812 27.9244 586.628L2.83609 630.41L3.02083 630.567C3.80357 631.266 4.35206 632.228 4.54309 633.323H54.7149L54.7644 633.073C55.0061 631.999 55.6006 631.068 56.4172 630.41L31.3321 586.628ZM90.5854 586.628C90.0561 586.843 89.483 586.967 88.8799 586.967L88.6239 586.96C88.1156 586.93 87.6295 586.812 87.1745 586.628L62.0894 630.41L62.2744 630.567C63.0584 631.266 63.6066 632.228 63.7932 633.323H113.967L114.016 633.073C114.258 631.999 114.852 631.068 115.67 630.41L90.5854 586.628ZM149.11 586.628C148.582 586.843 148.008 586.967 147.406 586.967L147.15 586.96C146.64 586.93 146.153 586.812 145.702 586.628L120.614 630.41L120.799 630.567C121.582 631.266 122.13 632.228 122.321 633.323H172.493L172.542 633.073C172.784 631.999 173.379 631.068 174.195 630.41L149.11 586.628ZM84.34 583.041H34.1682L34.1156 583.304C33.8973 584.258 33.4012 585.1 32.7203 585.736L57.8682 629.622L58.1336 629.544C58.492 629.451 58.8679 629.402 59.2549 629.402L59.5421 629.411C59.9224 629.436 60.291 629.508 60.6415 629.622L85.7863 585.736L85.6053 585.558C84.959 584.885 84.507 584.014 84.34 583.041ZM319.896 583.041H269.724L269.671 583.304C269.453 584.258 268.957 585.1 268.276 585.736L293.424 629.622L293.69 629.544C294.048 629.451 294.424 629.402 294.811 629.402L295.098 629.411C295.478 629.436 295.847 629.508 296.197 629.622L321.342 585.736L321.161 585.558C320.515 584.885 320.063 584.014 319.896 583.041ZM202.118 583.041H151.946L151.894 583.304C151.675 584.258 151.179 585.1 150.498 585.736L175.646 629.622L175.912 629.544C176.27 629.451 176.646 629.402 177.033 629.402L177.32 629.411C177.7 629.436 178.069 629.508 178.419 629.622L203.564 585.736L203.383 585.558C202.737 584.885 202.285 584.014 202.118 583.041ZM211.198 583.041L211.146 583.304C210.929 584.258 210.433 585.1 209.753 585.736L234.896 629.622L235.163 629.544C235.292 629.511 235.423 629.483 235.555 629.462L235.556 629.402H235.557L235.845 629.411C235.871 629.413 235.896 629.415 235.922 629.417L235.996 629.411L236.283 629.402L236.283 629.461C236.509 629.498 236.73 629.552 236.944 629.622L262.092 585.736L261.91 585.558C261.26 584.885 260.808 584.014 260.644 583.041H211.198ZM142.866 583.041H93.4199L93.3677 583.304C93.1506 584.258 92.6546 585.1 91.9751 585.736L117.118 629.622L117.385 629.544C117.514 629.511 117.645 629.483 117.777 629.462L117.778 629.402H117.78L118.067 629.411C118.093 629.413 118.118 629.415 118.144 629.417L118.218 629.411L118.505 629.402L118.506 629.461C118.732 629.498 118.952 629.552 119.166 629.622L144.314 585.736L144.132 585.558C143.482 584.885 143.03 584.014 142.866 583.041ZM260.644 581.396L260.696 581.135C260.929 580.102 261.489 579.199 262.258 578.548L237.156 534.738L236.903 534.826C236.702 534.89 236.495 534.94 236.283 534.976L236.283 535.036L236.005 535.027C235.976 535.026 235.948 535.023 235.92 535.021L235.836 535.027L235.557 535.036H235.556L235.555 534.975C235.255 534.925 234.964 534.844 234.686 534.738L209.583 578.548L209.772 578.716C210.506 579.408 211.018 580.342 211.198 581.396H260.644ZM296.408 534.738C295.912 534.928 295.373 535.036 294.811 535.036L294.531 535.027C294.069 534.998 293.627 534.896 293.211 534.738L268.108 578.548L268.296 578.716C269.03 579.408 269.543 580.342 269.724 581.396H319.897L319.949 581.135C320.182 580.102 320.741 579.199 321.512 578.548L296.408 534.738ZM178.63 534.738C178.134 534.928 177.595 535.036 177.033 535.036L176.753 535.027C176.291 534.998 175.849 534.896 175.433 534.738L150.33 578.548L150.518 578.716C151.252 579.408 151.765 580.342 151.946 581.396H202.12L202.171 581.135C202.404 580.102 202.963 579.199 203.734 578.548L178.63 534.738ZM60.8519 534.738C60.3557 534.928 59.8171 535.036 59.2549 535.036L58.9753 535.027C58.5131 534.998 58.0708 534.896 57.6547 534.738L32.5523 578.548L32.7402 578.716C33.4739 579.408 33.987 580.342 34.1682 581.396H84.3416L84.393 581.135C84.6263 580.102 85.1847 579.199 85.9559 578.548L60.8519 534.738ZM119.378 534.738L119.125 534.826C118.924 534.89 118.718 534.94 118.506 534.976L118.505 535.036L118.227 535.027C118.198 535.026 118.17 535.023 118.142 535.021L118.058 535.027L117.78 535.036H117.778L117.777 534.975C117.477 534.925 117.186 534.844 116.908 534.738L91.8055 578.548L91.9938 578.716C92.7285 579.408 93.2401 580.342 93.4199 581.396H142.866L142.918 581.135C143.151 580.102 143.711 579.199 144.481 578.548L119.378 534.738ZM290.271 531.113H240.099L240.049 531.365C239.822 532.36 239.293 533.237 238.566 533.882L263.691 577.732L263.927 577.656C264.326 577.538 264.747 577.47 265.184 577.47L265.444 577.478C265.873 577.504 266.286 577.596 266.676 577.732L291.802 533.882L291.624 533.716C290.929 533.033 290.443 532.128 290.271 531.113ZM349.523 531.113H299.349L299.3 531.365C299.076 532.36 298.547 533.237 297.821 533.882L322.944 577.732L323.181 577.656C323.58 577.538 324.001 577.47 324.436 577.47L324.695 577.478C325.125 577.504 325.538 577.596 325.929 577.732L351.052 533.882L350.875 533.716C350.182 533.033 349.696 532.128 349.523 531.113ZM172.493 531.113H122.321L122.271 531.365C122.044 532.36 121.515 533.237 120.788 533.882L145.913 577.732L146.149 577.656C146.548 577.538 146.969 577.47 147.406 577.47L147.666 577.478C148.095 577.504 148.508 577.596 148.898 577.732L174.024 533.882L173.846 533.716C173.151 533.033 172.665 532.128 172.493 531.113ZM54.7149 531.113H4.54309L4.4928 531.365C4.26618 532.36 3.73664 533.237 3.0104 533.882L28.1348 577.732L28.3715 577.656C28.7704 577.538 29.1911 577.47 29.6282 577.47L29.8878 577.478C30.3172 577.504 30.7301 577.596 31.1201 577.732L56.246 533.882L56.068 533.716C55.373 533.033 54.8874 532.128 54.7149 531.113ZM113.967 531.113H63.7932L63.7437 531.365C63.5197 532.36 62.9915 533.237 62.2653 533.882L87.3881 577.732L87.6249 577.656C88.0241 577.538 88.4455 577.47 88.8799 577.47L89.1395 577.478C89.569 577.504 89.9821 577.596 90.3734 577.732L115.496 533.882L115.319 533.716C114.626 533.033 114.141 532.128 113.967 531.113ZM231.745 531.113H181.571L181.522 531.365C181.298 532.36 180.769 533.237 180.043 533.882L205.166 577.732L205.403 577.656C205.802 577.538 206.223 577.47 206.658 577.47L206.917 577.478C207.347 577.504 207.76 577.596 208.151 577.732L233.274 533.882L233.097 533.716C232.404 533.033 231.919 532.128 231.745 531.113ZM266.888 482.983C266.36 483.198 265.786 483.322 265.184 483.322L264.927 483.314C264.418 483.285 263.931 483.167 263.48 482.983L238.392 526.765L238.577 526.922C239.359 527.621 239.908 528.583 240.099 529.678H290.271L290.32 529.428C290.562 528.354 291.156 527.423 291.973 526.765L266.888 482.983ZM326.141 482.983C325.612 483.198 325.039 483.322 324.436 483.322L324.18 483.314C323.671 483.285 323.185 483.167 322.73 482.983L297.645 526.765L297.83 526.922C298.614 527.621 299.162 528.583 299.349 529.678H349.523L349.572 529.428C349.814 528.354 350.408 527.423 351.226 526.765L326.141 482.983ZM208.363 482.983C207.834 483.198 207.261 483.322 206.658 483.322L206.402 483.314C205.894 483.285 205.407 483.167 204.952 482.983L179.867 526.765L180.052 526.922C180.836 527.621 181.385 528.583 181.571 529.678H231.745L231.794 529.428C232.036 528.354 232.63 527.423 233.448 526.765L208.363 482.983ZM31.3321 482.983C30.8044 483.198 30.2297 483.322 29.6282 483.322L29.3716 483.314C28.862 483.285 28.3753 483.167 27.9244 482.983L2.83609 526.765L3.02083 526.922C3.80357 527.621 4.35206 528.583 4.54309 529.678H54.7149L54.7644 529.428C55.0061 528.354 55.6006 527.423 56.4172 526.765L31.3321 482.983ZM90.5854 482.983C90.0561 483.198 89.483 483.322 88.8799 483.322L88.6239 483.314C88.1156 483.285 87.6295 483.167 87.1745 482.983L62.0894 526.765L62.2744 526.922C63.0584 527.621 63.6066 528.583 63.7932 529.678H113.967L114.016 529.428C114.258 528.354 114.852 527.423 115.67 526.765L90.5854 482.983ZM149.11 482.983C148.582 483.198 148.008 483.322 147.406 483.322L147.15 483.314C146.64 483.285 146.153 483.167 145.702 482.983L120.614 526.765L120.799 526.922C121.582 527.621 122.13 528.583 122.321 529.678H172.493L172.542 529.428C172.784 528.354 173.379 527.423 174.195 526.765L149.11 482.983ZM84.34 479.396H34.1682L34.1156 479.659C33.8973 480.612 33.4012 481.455 32.7203 482.091L57.8682 525.977L58.1336 525.899C58.492 525.806 58.8679 525.757 59.2549 525.757L59.5421 525.766C59.9224 525.79 60.291 525.862 60.6415 525.977L85.7863 482.091L85.6053 481.912C84.959 481.239 84.507 480.369 84.34 479.396ZM142.866 479.396H93.4199L93.3677 479.659C93.1506 480.612 92.6546 481.455 91.9751 482.091L117.118 525.977L117.385 525.899C117.514 525.866 117.645 525.838 117.777 525.816L117.778 525.757H117.78L118.067 525.766C118.093 525.768 118.118 525.769 118.144 525.772L118.218 525.766L118.505 525.757L118.506 525.816C118.732 525.853 118.952 525.907 119.166 525.977L144.314 482.091L144.132 481.912C143.482 481.239 143.03 480.369 142.866 479.396ZM319.896 479.396H269.724L269.671 479.659C269.453 480.612 268.957 481.455 268.276 482.091L293.424 525.977L293.69 525.899C294.048 525.806 294.424 525.757 294.811 525.757L295.098 525.766C295.478 525.79 295.847 525.862 296.197 525.977L321.342 482.091L321.161 481.912C320.515 481.239 320.063 480.369 319.896 479.396ZM260.644 479.396H211.198L211.146 479.659C210.929 480.612 210.433 481.455 209.753 482.091L234.896 525.977L235.163 525.899C235.292 525.866 235.423 525.838 235.555 525.816L235.556 525.757H235.557L235.845 525.766C235.871 525.768 235.896 525.769 235.922 525.772L235.996 525.766L236.283 525.757L236.283 525.816C236.509 525.853 236.73 525.907 236.944 525.977L262.092 482.091L261.91 481.912C261.26 481.239 260.808 480.369 260.644 479.396ZM202.118 479.396H151.946L151.894 479.659C151.675 480.612 151.179 481.455 150.498 482.091L175.646 525.977L175.912 525.899C176.27 525.806 176.646 525.757 177.033 525.757L177.32 525.766C177.7 525.79 178.069 525.862 178.419 525.977L203.564 482.091L203.383 481.912C202.737 481.239 202.285 480.369 202.118 479.396ZM237.156 431.093L236.903 431.181C236.702 431.245 236.495 431.295 236.283 431.33L236.283 431.391L236.005 431.382C235.976 431.38 235.948 431.378 235.92 431.376L235.836 431.382L235.557 431.391H235.556L235.555 431.33C235.255 431.279 234.964 431.199 234.686 431.093L209.583 474.903L209.772 475.071C210.506 475.763 211.018 476.696 211.198 477.75H260.644L260.696 477.489C260.929 476.456 261.489 475.554 262.258 474.903L237.156 431.093ZM119.378 431.093L119.125 431.181C118.924 431.244 118.718 431.295 118.506 431.33L118.505 431.391L118.227 431.382C118.198 431.38 118.17 431.378 118.142 431.376L118.058 431.382L117.78 431.391H117.778L117.777 431.33C117.477 431.279 117.186 431.199 116.908 431.093L91.8055 474.903L91.9938 475.071C92.7285 475.763 93.2401 476.696 93.4199 477.75H142.866L142.918 477.489C143.151 476.456 143.711 475.554 144.481 474.903L119.378 431.093ZM60.8519 431.093C60.3557 431.283 59.8171 431.391 59.2549 431.391L58.9753 431.382C58.5131 431.353 58.0708 431.251 57.6547 431.093L32.5523 474.903L32.7402 475.071C33.4739 475.763 33.987 476.696 34.1682 477.75H84.3416L84.393 477.489C84.6263 476.456 85.1847 475.554 85.9559 474.903L60.8519 431.093ZM296.408 431.093C295.912 431.283 295.373 431.391 294.811 431.391L294.531 431.382C294.069 431.353 293.627 431.251 293.211 431.093L268.108 474.903L268.296 475.071C269.03 475.763 269.543 476.696 269.724 477.75H319.897L319.949 477.489C320.182 476.456 320.741 475.554 321.512 474.903L296.408 431.093ZM178.63 431.093C178.134 431.283 177.595 431.391 177.033 431.391L176.753 431.382C176.291 431.353 175.849 431.251 175.433 431.093L150.33 474.903L150.518 475.071C151.252 475.763 151.765 476.696 151.946 477.75H202.12L202.171 477.489C202.404 476.456 202.963 475.554 203.734 474.903L178.63 431.093ZM172.493 427.468H122.321L122.271 427.719C122.044 428.715 121.515 429.592 120.788 430.237L145.913 474.087L146.149 474.01C146.548 473.893 146.969 473.824 147.406 473.824L147.666 473.832C148.095 473.859 148.508 473.95 148.898 474.087L174.024 430.237L173.846 430.071C173.151 429.388 172.665 428.483 172.493 427.468ZM290.271 427.468H240.099L240.049 427.719C239.822 428.715 239.293 429.592 238.566 430.237L263.691 474.087L263.927 474.01C264.326 473.893 264.747 473.824 265.184 473.824L265.444 473.832C265.873 473.859 266.286 473.95 266.676 474.087L291.802 430.237L291.624 430.071C290.929 429.388 290.443 428.483 290.271 427.468ZM54.7149 427.468H4.54309L4.4928 427.719C4.26618 428.715 3.73664 429.592 3.0104 430.237L28.1348 474.087L28.3715 474.01C28.7704 473.893 29.1911 473.824 29.6282 473.824L29.8878 473.832C30.3172 473.859 30.7301 473.95 31.1201 474.087L56.246 430.237L56.068 430.071C55.373 429.388 54.8874 428.483 54.7149 427.468ZM349.523 427.468H299.349L299.3 427.719C299.076 428.715 298.547 429.592 297.821 430.237L322.944 474.087L323.181 474.01C323.58 473.893 324.001 473.824 324.436 473.824L324.695 473.832C325.125 473.859 325.538 473.95 325.929 474.087L351.052 430.237L350.875 430.071C350.182 429.388 349.696 428.483 349.523 427.468ZM113.967 427.468H63.7932L63.7437 427.719C63.5197 428.715 62.9915 429.592 62.2653 430.237L87.3881 474.087L87.6249 474.01C88.0241 473.893 88.4455 473.824 88.8799 473.824L89.1395 473.832C89.569 473.859 89.9821 473.95 90.3734 474.087L115.496 430.237L115.319 430.071C114.626 429.388 114.141 428.483 113.967 427.468ZM231.745 427.468H181.571L181.522 427.719C181.298 428.715 180.769 429.592 180.043 430.237L205.166 474.087L205.403 474.01C205.802 473.893 206.223 473.824 206.658 473.824L206.917 473.832C207.347 473.859 207.76 473.95 208.151 474.087L233.274 430.237L233.097 430.071C232.404 429.388 231.919 428.483 231.745 427.468ZM31.3321 379.337C30.8044 379.553 30.2297 379.677 29.6282 379.677L29.3716 379.669C28.862 379.639 28.3753 379.522 27.9244 379.337L2.83609 423.12L3.02083 423.276C3.80357 423.975 4.35206 424.938 4.54309 426.033H54.7149L54.7644 425.783C55.0061 424.709 55.6006 423.777 56.4172 423.12L31.3321 379.337ZM90.5854 379.337C90.0561 379.553 89.483 379.677 88.8799 379.677L88.6239 379.669C88.1156 379.639 87.6295 379.522 87.1745 379.337L62.0894 423.12L62.2744 423.276C63.0584 423.975 63.6066 424.938 63.7932 426.033H113.967L114.016 425.783C114.258 424.709 114.852 423.777 115.67 423.12L90.5854 379.337ZM208.363 379.337C207.834 379.553 207.261 379.677 206.658 379.677L206.402 379.669C205.894 379.639 205.407 379.522 204.952 379.337L179.867 423.12L180.052 423.276C180.836 423.975 181.385 424.938 181.571 426.033H231.745L231.794 425.783C232.036 424.709 232.63 423.777 233.448 423.12L208.363 379.337ZM149.11 379.337C148.582 379.553 148.008 379.677 147.406 379.677L147.15 379.669C146.64 379.639 146.153 379.522 145.702 379.337L120.614 423.12L120.799 423.276C121.582 423.975 122.13 424.938 122.321 426.033H172.493L172.542 425.783C172.784 424.709 173.379 423.777 174.195 423.12L149.11 379.337ZM266.888 379.337C266.36 379.553 265.786 379.677 265.184 379.677L264.927 379.669C264.418 379.639 263.931 379.522 263.48 379.337L238.392 423.12L238.577 423.276C239.359 423.975 239.908 424.938 240.099 426.033H290.271L290.32 425.783C290.562 424.709 291.156 423.777 291.973 423.12L266.888 379.337ZM326.141 379.337C325.612 379.553 325.039 379.677 324.436 379.677L324.18 379.669C323.671 379.639 323.185 379.522 322.73 379.337L297.645 423.12L297.83 423.276C298.614 423.975 299.162 424.938 299.349 426.033H349.523L349.572 425.783C349.814 424.709 350.408 423.777 351.226 423.12L326.141 379.337ZM142.866 375.751H93.4199L93.3677 376.014C93.1506 376.967 92.6546 377.809 91.9751 378.446L117.118 422.331L117.385 422.254C117.514 422.221 117.645 422.193 117.777 422.171L117.778 422.112H117.78L118.067 422.121C118.093 422.122 118.118 422.124 118.144 422.126L118.218 422.121L118.505 422.112L118.506 422.171C118.732 422.208 118.952 422.262 119.166 422.331L144.314 378.446L144.132 378.267C143.482 377.594 143.03 376.724 142.866 375.751ZM84.34 375.751H34.1682L34.1156 376.014C33.8973 376.967 33.4012 377.809 32.7203 378.446L57.8682 422.331L58.1336 422.254C58.492 422.161 58.8679 422.112 59.2549 422.112L59.5421 422.121C59.9224 422.145 60.291 422.217 60.6415 422.331L85.7863 378.446L85.6053 378.267C84.959 377.594 84.507 376.724 84.34 375.751ZM202.118 375.751H151.946L151.894 376.014C151.675 376.967 151.179 377.809 150.498 378.446L175.646 422.331L175.912 422.254C176.27 422.161 176.646 422.112 177.033 422.112L177.32 422.121C177.7 422.145 178.069 422.217 178.419 422.331L203.564 378.446L203.383 378.267C202.737 377.594 202.285 376.724 202.118 375.751ZM260.644 375.751H211.198L211.146 376.014C210.929 376.967 210.433 377.809 209.753 378.446L234.896 422.331L235.163 422.254C235.292 422.22 235.423 422.193 235.555 422.171L235.556 422.112H235.557L235.845 422.121C235.871 422.122 235.896 422.124 235.922 422.126L235.996 422.121L236.283 422.112L236.283 422.17C236.509 422.207 236.73 422.262 236.944 422.331L262.092 378.446L261.91 378.267C261.26 377.594 260.808 376.724 260.644 375.751ZM319.896 375.751H269.724L269.671 376.014C269.453 376.967 268.957 377.809 268.276 378.446L293.424 422.331L293.69 422.254C294.048 422.161 294.424 422.112 294.811 422.112L295.098 422.121C295.478 422.145 295.847 422.217 296.197 422.331L321.342 378.446L321.161 378.267C320.515 377.594 320.063 376.724 319.896 375.751ZM178.63 327.447C178.134 327.637 177.595 327.746 177.033 327.746L176.753 327.737C176.291 327.707 175.849 327.606 175.433 327.447L150.33 371.258L150.518 371.426C151.252 372.118 151.765 373.051 151.946 374.105H202.12L202.171 373.844C202.404 372.811 202.963 371.909 203.734 371.258L178.63 327.447ZM237.156 327.447L236.903 327.535C236.702 327.599 236.495 327.65 236.283 327.685L236.283 327.746L236.005 327.737C235.976 327.735 235.948 327.733 235.92 327.731L235.836 327.737L235.557 327.746H235.556L235.555 327.685C235.255 327.634 234.964 327.553 234.686 327.447L209.583 371.258L209.772 371.426C210.506 372.118 211.018 373.051 211.198 374.105H260.644L260.696 373.844C260.929 372.811 261.489 371.909 262.258 371.258L237.156 327.447ZM60.8519 327.447C60.3557 327.637 59.8171 327.746 59.2549 327.746L58.9753 327.737C58.5131 327.707 58.0708 327.606 57.6547 327.447L32.5523 371.258L32.7402 371.426C33.4739 372.118 33.987 373.051 34.1682 374.105H84.3416L84.393 373.844C84.6263 372.811 85.1847 371.909 85.9559 371.258L60.8519 327.447ZM296.408 327.447C295.912 327.637 295.373 327.746 294.811 327.746L294.531 327.737C294.069 327.707 293.627 327.606 293.211 327.447L268.108 371.258L268.296 371.426C269.03 372.118 269.543 373.051 269.724 374.105H319.897L319.949 373.844C320.182 372.811 320.741 371.909 321.512 371.258L296.408 327.447ZM119.378 327.447L119.125 327.535C118.924 327.599 118.718 327.65 118.506 327.685L118.505 327.746L118.227 327.737C118.198 327.735 118.17 327.733 118.142 327.731L118.058 327.737L117.78 327.746H117.778L117.777 327.685C117.477 327.634 117.186 327.553 116.908 327.447L91.8055 371.258L91.9938 371.426C92.7285 372.118 93.2401 373.051 93.4199 374.105H142.866L142.918 373.844C143.151 372.811 143.711 371.909 144.481 371.258L119.378 327.447ZM231.745 323.823H181.571L181.522 324.074C181.298 325.07 180.769 325.946 180.043 326.591L205.166 370.441L205.403 370.365C205.802 370.248 206.223 370.179 206.658 370.179L206.917 370.187C207.347 370.214 207.76 370.305 208.151 370.441L233.274 326.591L233.097 326.425C232.404 325.743 231.919 324.838 231.745 323.823ZM290.271 323.823H240.099L240.049 324.074C239.822 325.07 239.293 325.946 238.566 326.591L263.691 370.441L263.927 370.365C264.326 370.248 264.747 370.179 265.184 370.179L265.444 370.187C265.873 370.214 266.286 370.305 266.676 370.441L291.802 326.591L291.624 326.425C290.929 325.743 290.443 324.838 290.271 323.823ZM113.967 323.823H63.7932L63.7437 324.074C63.5197 325.07 62.9915 325.946 62.2653 326.591L87.3881 370.441L87.6249 370.365C88.0241 370.248 88.4455 370.179 88.8799 370.179L89.1395 370.187C89.569 370.214 89.9821 370.305 90.3734 370.441L115.496 326.591L115.319 326.425C114.626 325.743 114.141 324.838 113.967 323.823ZM172.493 323.823H122.321L122.271 324.074C122.044 325.07 121.515 325.946 120.788 326.591L145.913 370.441L146.149 370.365C146.548 370.248 146.969 370.179 147.406 370.179L147.666 370.187C148.095 370.214 148.508 370.305 148.898 370.441L174.024 326.591L173.846 326.425C173.151 325.743 172.665 324.838 172.493 323.823ZM54.7149 323.823H4.54309L4.4928 324.074C4.26618 325.07 3.73664 325.946 3.0104 326.591L28.1348 370.441L28.3715 370.365C28.7704 370.248 29.1911 370.179 29.6282 370.179L29.8878 370.187C30.3172 370.214 30.7301 370.305 31.1201 370.441L56.246 326.591L56.068 326.425C55.373 325.743 54.8874 324.838 54.7149 323.823ZM349.523 323.823H299.349L299.3 324.074C299.076 325.07 298.547 325.946 297.821 326.591L322.944 370.441L323.181 370.365C323.58 370.248 324.001 370.179 324.436 370.179L324.695 370.187C325.125 370.214 325.538 370.305 325.929 370.441L351.052 326.591L350.875 326.425C350.182 325.743 349.696 324.838 349.523 323.823Z" fill="url(#paint6_linear)"/>
<defs>
<linearGradient id="paint0_linear" x1="66.1869" y1="28.7966" x2="487.966" y2="351.238" gradientUnits="userSpaceOnUse">
<stop stop-color="#F1F4F9"/>
<stop offset="0.537014" stop-color="#EBF0F7"/>
<stop offset="1" stop-color="white"/>
</linearGradient>
<linearGradient id="paint1_linear" x1="354" y1="329.149" x2="159.772" y2="329.149" gradientUnits="userSpaceOnUse">
<stop stop-color="white"/>
<stop offset="1" stop-color="white" stop-opacity="0"/>
</linearGradient>
<linearGradient id="paint2_linear" x1="231.912" y1="641.353" x2="223.488" y2="376.401" gradientUnits="userSpaceOnUse">
<stop stop-color="white"/>
<stop offset="1" stop-color="white" stop-opacity="0"/>
</linearGradient>
<linearGradient id="paint3_linear" x1="66.1869" y1="28.7966" x2="487.966" y2="351.238" gradientUnits="userSpaceOnUse">
<stop stop-color="#F1F4F9"/>
<stop offset="0.537014" stop-color="#EBF0F7"/>
<stop offset="1" stop-color="white"/>
</linearGradient>
<linearGradient id="paint4_linear" x1="354" y1="329.149" x2="159.772" y2="329.149" gradientUnits="userSpaceOnUse">
<stop stop-color="white"/>
<stop offset="1" stop-color="white" stop-opacity="0"/>
</linearGradient>
<linearGradient id="paint5_linear" x1="231.912" y1="641.353" x2="223.488" y2="376.401" gradientUnits="userSpaceOnUse">
<stop stop-color="white"/>
<stop offset="1" stop-color="white" stop-opacity="0"/>
</linearGradient>
<linearGradient id="paint6_linear" x1="260.385" y1="363.751" x2="34.2259" y2="628.012" gradientUnits="userSpaceOnUse">
<stop stop-color="#003058" stop-opacity="0"/>
<stop offset="0.791106" stop-color="#00274C" stop-opacity="0.986574"/>
<stop offset="1" stop-color="#00274C"/>
</linearGradient>
</defs>
</svg>
