<svg version="1.2" xmlns="http://www.w3.org/2000/svg" xmlns:xlink="http://www.w3.org/1999/xlink" overflow="visible" preserveAspectRatio="none" viewBox="0 0 875.0000099999999 828.00001" width="875.0000099999999" height="828.00001"><g transform="translate(0, 0)"><g transform="translate(-1.7763568394002505e-15, -15.999989999999997) rotate(0)"><path d="M800.11196,151.72848c-1.48371,-7.04504 -5.27326,-13.39398 -10.76907,-18.04233l67.6419,-117.68616c3.32954,1.13138 6.82025,1.71584 10.33658,1.73068c2.59155,-0.01094 5.16918,-0.33128 7.67864,-0.95193v134.94974zM679.53292,300.52359c-3.10715,-0.97554 -6.34477,-1.47159 -9.60134,-1.47108c-3.27046,0.00311 -6.5218,0.49903 -9.64459,1.47108l-67.5554,-117.98903c5.15636,-4.53549 8.73197,-10.59833 10.20683,-17.30679h134.07281c1.47486,6.70846 5.05048,12.7713 10.20683,17.30679zM758.63588,189.06788c6.44988,2.10494 13.40155,2.10494 19.85143,0l67.4689,117.81596c-5.3325,4.62827 -9.00769,10.87256 -10.46633,17.78272h-134.07281c-1.45864,-6.91016 -5.13383,-13.15446 -10.46633,-17.78272zM462.20522,362.13576c6.69802,2.30761 13.97514,2.30761 20.67316,0l67.42565,117.72942c-5.50301,4.62409 -9.29524,10.96229 -10.76907,17.99906h-134.07281c-1.47384,-7.03677 -5.26606,-13.37497 -10.76907,-17.99906zM494.33944,355.38611c5.03076,-4.58963 8.49489,-10.64297 9.90409,-17.30679h134.07281c1.4092,6.66381 4.87333,12.71716 9.90409,17.30679l-67.6419,118.11883c-6.03244,-1.8449 -12.47826,-1.8449 -18.5107,0zM659.595,362.13576c6.69802,2.30761 13.97514,2.30761 20.67316,0l67.42565,117.72942c-5.50301,4.62409 -9.29524,10.96229 -10.76907,17.99906h-134.07281c-1.47384,-7.03677 -5.26606,-13.37497 -10.76907,-17.99906zM691.72923,355.38611c5.03076,-4.58963 8.49489,-10.64297 9.90409,-17.30679h134.07281c1.4092,6.66381 4.87333,12.71716 9.90409,17.30679l-67.6419,118.11883c-6.03244,-1.8449 -12.47826,-1.8449 -18.5107,0zM856.98478,362.13576c5.8211,2.00549 12.07959,2.26806 18.01522,0.78769v134.94079h-74.75829c-1.48371,-7.04504 -5.27326,-13.39398 -10.76907,-18.04233zM857.72002,300.52359l-67.59865,-117.98903c5.15636,-4.53549 8.73197,-10.59833 10.20683,-17.30679h74.67179v134.74807c-5.68967,-1.39261 -11.66529,-1.21003 -17.27998,0.54775zM176.45712,536.93432c3.38012,0.00326 6.73877,-0.53727 9.94734,-1.60088l67.51215,117.81596c-5.3325,4.62827 -9.00769,10.87256 -10.46633,17.78272h-134.07281c-1.4618,-6.8988 -5.11881,-13.13798 -10.42308,-17.78272l67.51215,-117.94576c3.21619,1.10792 6.58928,1.69224 9.99059,1.73068zM197.95202,528.67032c5.14274,-4.53973 8.7033,-10.60273 10.16358,-17.30679h134.07281c1.45766,6.71521 5.03625,12.7831 10.20683,17.30679l-67.6419,117.98903c-6.2655,-1.96153 -12.98044,-1.96153 -19.24594,0zM363.85632,535.20364c6.48971,2.13327 13.49146,2.13327 19.98117,0l67.4689,117.81596c-5.3325,4.62827 -9.00769,10.87256 -10.46633,17.78272h-133.77007c-1.47642,-6.90325 -5.1485,-13.14226 -10.46633,-17.78272zM395.34181,528.67032c5.15636,-4.53549 8.73197,-10.59833 10.20683,-17.30679h134.07281c1.47486,6.70846 5.05048,12.7713 10.20683,17.30679l-67.59865,117.98903c-6.2655,-1.96153 -12.98044,-1.96153 -19.24594,0zM561.2461,535.20364c6.48971,2.13327 13.49146,2.13327 19.98117,0l67.51215,117.94576c-5.3325,4.62827 -9.00769,10.87256 -10.46633,17.78272h-134.07281c-1.45864,-6.91016 -5.13383,-13.15446 -10.46633,-17.78272zM592.73159,528.67032c5.15636,-4.53549 8.73197,-10.59833 10.20683,-17.30679h134.07281c1.47486,6.70846 5.05048,12.7713 10.20683,17.30679l-67.5554,117.98903c-6.28013,-1.96228 -13.00905,-1.96228 -19.28919,0zM758.63588,535.20364c6.48971,2.13327 13.49146,2.13327 19.98117,0l67.4689,117.81596c-5.3325,4.62827 -9.00769,10.87256 -10.46633,17.78272h-134.07281c-1.45864,-6.91016 -5.13383,-13.15446 -10.46633,-17.78272zM790.12137,528.67032c5.15636,-4.53549 8.73197,-10.59833 10.20683,-17.30679h74.67179v134.72702c-5.66371,-1.36968 -11.60724,-1.18008 -17.19348,0.56879zM144.75539,844h-134.07281c-1.45747,-7.03472 -5.21626,-13.38312 -10.68258,-18.04233l67.42565,-117.68616c3.32954,1.13138 6.82025,1.71584 10.33658,1.73068c3.51568,-0.02235 7.00521,-0.60661 10.33658,-1.73068l67.59865,117.72942c-5.5569,4.60657 -9.40956,10.94396 -10.94207,17.99906zM176.45712,818.25615c-3.13722,-0.00754 -6.25756,0.45925 -9.25535,1.38454l-67.7284,-118.11883c5.03344,-4.58076 8.48575,-10.63992 9.86084,-17.30679h134.07281c1.4092,6.66381 4.87333,12.71716 9.90409,17.30679l-67.6419,118.11883c-2.98466,-0.91781 -6.08962,-1.38447 -9.2121,-1.38454zM342.14517,844h-134.07281c-1.46904,-7.04048 -5.24349,-13.38963 -10.72583,-18.04233l67.4689,-117.68616c6.68486,2.29769 13.94505,2.29769 20.62991,0l67.4689,117.68616c-5.49581,4.64834 -9.28536,10.99729 -10.76907,18.04233zM373.84691,818.25615c-3.13722,-0.00754 -6.25756,0.45925 -9.25535,1.38454l-67.6419,-118.11883c5.03076,-4.58963 8.49489,-10.64297 9.90409,-17.30679h134.07281c1.4092,6.66381 4.87333,12.71716 9.90409,17.30679l-67.6419,118.11883c-3.02622,-0.93068 -6.17589,-1.39749 -9.34185,-1.38454zM539.53496,844h-134.07281c-1.48371,-7.04504 -5.27326,-13.39398 -10.76907,-18.04233l67.51215,-117.68616c6.69802,2.30761 13.97514,2.30761 20.67316,0l67.42565,117.68616c-5.49581,4.64834 -9.28536,10.99729 -10.76907,18.04233zM571.23669,818.25615c-3.13698,-0.00425 -6.25683,0.46246 -9.25535,1.38454l-67.6419,-118.11883c5.03076,-4.58963 8.49489,-10.64297 9.90409,-17.30679h134.07281c1.3897,6.67123 4.85706,12.73023 9.90409,17.30679l-67.6419,118.16209c-3.02396,-0.94534 -6.17368,-1.42675 -9.34185,-1.42781z" style="stroke: rgb(140, 140, 140); stroke-width: 0; stroke-linecap: butt; stroke-linejoin: miter; fill: rgb(182, 232, 251);" vector-effect="non-scaling-stroke"/></g><defs><path id="path-160502718843943741" d="M800.11196,151.72848c-1.48371,-7.04504 -5.27326,-13.39398 -10.76907,-18.04233l67.6419,-117.68616c3.32954,1.13138 6.82025,1.71584 10.33658,1.73068c2.59155,-0.01094 5.16918,-0.33128 7.67864,-0.95193v134.94974zM679.53292,300.52359c-3.10715,-0.97554 -6.34477,-1.47159 -9.60134,-1.47108c-3.27046,0.00311 -6.5218,0.49903 -9.64459,1.47108l-67.5554,-117.98903c5.15636,-4.53549 8.73197,-10.59833 10.20683,-17.30679h134.07281c1.47486,6.70846 5.05048,12.7713 10.20683,17.30679zM758.63588,189.06788c6.44988,2.10494 13.40155,2.10494 19.85143,0l67.4689,117.81596c-5.3325,4.62827 -9.00769,10.87256 -10.46633,17.78272h-134.07281c-1.45864,-6.91016 -5.13383,-13.15446 -10.46633,-17.78272zM462.20522,362.13576c6.69802,2.30761 13.97514,2.30761 20.67316,0l67.42565,117.72942c-5.50301,4.62409 -9.29524,10.96229 -10.76907,17.99906h-134.07281c-1.47384,-7.03677 -5.26606,-13.37497 -10.76907,-17.99906zM494.33944,355.38611c5.03076,-4.58963 8.49489,-10.64297 9.90409,-17.30679h134.07281c1.4092,6.66381 4.87333,12.71716 9.90409,17.30679l-67.6419,118.11883c-6.03244,-1.8449 -12.47826,-1.8449 -18.5107,0zM659.595,362.13576c6.69802,2.30761 13.97514,2.30761 20.67316,0l67.42565,117.72942c-5.50301,4.62409 -9.29524,10.96229 -10.76907,17.99906h-134.07281c-1.47384,-7.03677 -5.26606,-13.37497 -10.76907,-17.99906zM691.72923,355.38611c5.03076,-4.58963 8.49489,-10.64297 9.90409,-17.30679h134.07281c1.4092,6.66381 4.87333,12.71716 9.90409,17.30679l-67.6419,118.11883c-6.03244,-1.8449 -12.47826,-1.8449 -18.5107,0zM856.98478,362.13576c5.8211,2.00549 12.07959,2.26806 18.01522,0.78769v134.94079h-74.75829c-1.48371,-7.04504 -5.27326,-13.39398 -10.76907,-18.04233zM857.72002,300.52359l-67.59865,-117.98903c5.15636,-4.53549 8.73197,-10.59833 10.20683,-17.30679h74.67179v134.74807c-5.68967,-1.39261 -11.66529,-1.21003 -17.27998,0.54775zM176.45712,536.93432c3.38012,0.00326 6.73877,-0.53727 9.94734,-1.60088l67.51215,117.81596c-5.3325,4.62827 -9.00769,10.87256 -10.46633,17.78272h-134.07281c-1.4618,-6.8988 -5.11881,-13.13798 -10.42308,-17.78272l67.51215,-117.94576c3.21619,1.10792 6.58928,1.69224 9.99059,1.73068zM197.95202,528.67032c5.14274,-4.53973 8.7033,-10.60273 10.16358,-17.30679h134.07281c1.45766,6.71521 5.03625,12.7831 10.20683,17.30679l-67.6419,117.98903c-6.2655,-1.96153 -12.98044,-1.96153 -19.24594,0zM363.85632,535.20364c6.48971,2.13327 13.49146,2.13327 19.98117,0l67.4689,117.81596c-5.3325,4.62827 -9.00769,10.87256 -10.46633,17.78272h-133.77007c-1.47642,-6.90325 -5.1485,-13.14226 -10.46633,-17.78272zM395.34181,528.67032c5.15636,-4.53549 8.73197,-10.59833 10.20683,-17.30679h134.07281c1.47486,6.70846 5.05048,12.7713 10.20683,17.30679l-67.59865,117.98903c-6.2655,-1.96153 -12.98044,-1.96153 -19.24594,0zM561.2461,535.20364c6.48971,2.13327 13.49146,2.13327 19.98117,0l67.51215,117.94576c-5.3325,4.62827 -9.00769,10.87256 -10.46633,17.78272h-134.07281c-1.45864,-6.91016 -5.13383,-13.15446 -10.46633,-17.78272zM592.73159,528.67032c5.15636,-4.53549 8.73197,-10.59833 10.20683,-17.30679h134.07281c1.47486,6.70846 5.05048,12.7713 10.20683,17.30679l-67.5554,117.98903c-6.28013,-1.96228 -13.00905,-1.96228 -19.28919,0zM758.63588,535.20364c6.48971,2.13327 13.49146,2.13327 19.98117,0l67.4689,117.81596c-5.3325,4.62827 -9.00769,10.87256 -10.46633,17.78272h-134.07281c-1.45864,-6.91016 -5.13383,-13.15446 -10.46633,-17.78272zM790.12137,528.67032c5.15636,-4.53549 8.73197,-10.59833 10.20683,-17.30679h74.67179v134.72702c-5.66371,-1.36968 -11.60724,-1.18008 -17.19348,0.56879zM144.75539,844h-134.07281c-1.45747,-7.03472 -5.21626,-13.38312 -10.68258,-18.04233l67.42565,-117.68616c3.32954,1.13138 6.82025,1.71584 10.33658,1.73068c3.51568,-0.02235 7.00521,-0.60661 10.33658,-1.73068l67.59865,117.72942c-5.5569,4.60657 -9.40956,10.94396 -10.94207,17.99906zM176.45712,818.25615c-3.13722,-0.00754 -6.25756,0.45925 -9.25535,1.38454l-67.7284,-118.11883c5.03344,-4.58076 8.48575,-10.63992 9.86084,-17.30679h134.07281c1.4092,6.66381 4.87333,12.71716 9.90409,17.30679l-67.6419,118.11883c-2.98466,-0.91781 -6.08962,-1.38447 -9.2121,-1.38454zM342.14517,844h-134.07281c-1.46904,-7.04048 -5.24349,-13.38963 -10.72583,-18.04233l67.4689,-117.68616c6.68486,2.29769 13.94505,2.29769 20.62991,0l67.4689,117.68616c-5.49581,4.64834 -9.28536,10.99729 -10.76907,18.04233zM373.84691,818.25615c-3.13722,-0.00754 -6.25756,0.45925 -9.25535,1.38454l-67.6419,-118.11883c5.03076,-4.58963 8.49489,-10.64297 9.90409,-17.30679h134.07281c1.4092,6.66381 4.87333,12.71716 9.90409,17.30679l-67.6419,118.11883c-3.02622,-0.93068 -6.17589,-1.39749 -9.34185,-1.38454zM539.53496,844h-134.07281c-1.48371,-7.04504 -5.27326,-13.39398 -10.76907,-18.04233l67.51215,-117.68616c6.69802,2.30761 13.97514,2.30761 20.67316,0l67.42565,117.68616c-5.49581,4.64834 -9.28536,10.99729 -10.76907,18.04233zM571.23669,818.25615c-3.13698,-0.00425 -6.25683,0.46246 -9.25535,1.38454l-67.6419,-118.11883c5.03076,-4.58963 8.49489,-10.64297 9.90409,-17.30679h134.07281c1.3897,6.67123 4.85706,12.73023 9.90409,17.30679l-67.6419,118.16209c-3.02396,-0.94534 -6.17368,-1.42675 -9.34185,-1.42781z" vector-effect="non-scaling-stroke"/></defs></g></svg>