<svg version="1.2" xmlns="http://www.w3.org/2000/svg" xmlns:xlink="http://www.w3.org/1999/xlink" overflow="visible" preserveAspectRatio="none" viewBox="0 0 668.04561 851.50071" width="668.04561" height="851.50071"><g transform="translate(0, 0)"><g transform="translate(-302, -245.22777999999997) rotate(0)"><path d="M321.78193,262.53457c5.15636,-4.53549 8.73197,-10.59833 10.20683,-17.30679h134.07281c1.47486,6.70846 5.05048,12.7713 10.20683,17.30679l-67.5554,117.98903c-3.12279,-0.97205 -6.37413,-1.46797 -9.64459,-1.47108c-3.25657,-0.00051 -6.4942,0.49554 -9.60134,1.47108zM378.04926,386.88384c-5.3325,4.62827 -9.00769,10.87256 -10.46633,17.78272h-65.58293v-134.05811c2.82714,-0.13815 5.64037,-0.65167 8.36412,-1.54058zM674.30693,559.86518c-5.50301,4.62409 -9.29524,10.96229 -10.76907,17.99906h-134.07281c-1.47384,-7.03677 -5.26606,-13.37497 -10.76907,-17.99906l67.42565,-117.72942c6.69802,2.30761 13.97514,2.30761 20.67316,0zM506.93216,553.50494c-6.03244,-1.8449 -12.47826,-1.8449 -18.5107,0l-67.6419,-118.11883c5.03076,-4.58963 8.49489,-10.64297 9.90409,-17.30679h134.07281c1.4092,6.66381 4.87333,12.71716 9.90409,17.30679zM476.91715,559.86518c-5.50301,4.62409 -9.29524,10.96229 -10.76907,17.99906h-134.07281c-1.47384,-7.03677 -5.26606,-13.37497 -10.76907,-17.99906l67.42565,-117.72942c6.69802,2.30761 13.97514,2.30761 20.67316,0zM309.54238,553.50494c-2.46394,-0.75355 -4.99685,-1.19931 -7.54238,-1.33729v-134.08833h65.36669c1.4092,6.66381 4.87333,12.71716 9.90409,17.30679zM902.53346,615.20364l67.51215,117.94576c-5.30427,4.64475 -8.96128,10.88393 -10.42308,17.78272h-134.07281c-1.45864,-6.91016 -5.13383,-13.15446 -10.46633,-17.78272l67.51215,-117.81596c3.20856,1.06361 6.56722,1.60414 9.94734,1.60088c3.40131,-0.03843 6.7744,-0.62276 9.99059,-1.73068zM803.49258,726.65935c-6.2655,-1.96153 -12.98044,-1.96153 -19.24594,0l-67.6419,-117.98903c5.17059,-4.52369 8.74918,-10.59157 10.20683,-17.30679h134.07281c1.46028,6.70406 5.02084,12.76706 10.16358,17.30679zM772.39633,733.0196c-5.31783,4.64047 -8.98991,10.87948 -10.46633,17.78272h-133.77007c-1.45864,-6.91016 -5.13383,-13.15446 -10.46633,-17.78272l67.4689,-117.81596c6.48971,2.13327 13.49146,2.13327 19.98117,0zM606.0163,726.65935c-6.2655,-1.96153 -12.98044,-1.96153 -19.24594,0l-67.59865,-117.98903c5.15636,-4.53549 8.73197,-10.59833 10.20683,-17.30679h134.07281c1.47486,6.70846 5.05048,12.7713 10.20683,17.30679zM575.26605,733.1494c-5.3325,4.62827 -9.00769,10.87256 -10.46633,17.78272h-134.07281c-1.45864,-6.91016 -5.13383,-13.15446 -10.46633,-17.78272l67.51215,-117.94576c6.48971,2.13327 13.49146,2.13327 19.98117,0zM408.62651,726.65935c-6.28013,-1.96228 -13.00905,-1.96228 -19.28919,0l-67.5554,-117.98903c5.15636,-4.53549 8.73197,-10.59833 10.20683,-17.30679h134.07281c1.47486,6.70846 5.05048,12.7713 10.20683,17.30679zM377.91951,733.0196c-5.3325,4.62827 -9.00769,10.87256 -10.46633,17.78272h-65.45318v-134.04009c2.82775,-0.14393 5.64101,-0.66346 8.36412,-1.55859zM618,1078.72942l67.59865,-117.72942c3.33137,1.12407 6.8209,1.70833 10.33658,1.73068c3.51633,-0.01484 7.00705,-0.5993 10.33658,-1.73068l67.42565,117.68616c-5.46631,4.65921 -9.2251,11.00761 -10.68258,18.04233h-134.07281c-1.53251,-7.0551 -5.38517,-13.39249 -10.94207,-17.99906zM883.33078,899.6407l-67.6419,-118.11883c5.03076,-4.58963 8.49489,-10.64297 9.90409,-17.30679h134.07281c1.37509,6.66687 4.8274,12.72603 9.86084,17.30679l-67.7284,118.11883c-2.99779,-0.9253 -6.11813,-1.39208 -9.25535,-1.38454c-3.12248,0.00007 -6.22744,0.46673 -9.2121,1.38454zM716.08575,905.95767l67.4689,-117.68616c6.68486,2.29769 13.94505,2.29769 20.62991,0l67.4689,117.68616c-5.48234,4.6527 -9.25679,11.00185 -10.72583,18.04233h-134.07281c-1.48371,-7.04504 -5.27326,-13.39398 -10.76907,-18.04233zM685.81125,899.6407l-67.6419,-118.11883c5.03076,-4.58963 8.49489,-10.64297 9.90409,-17.30679h134.07281c1.4092,6.66381 4.87333,12.71716 9.90409,17.30679l-67.6419,118.11883c-2.99779,-0.9253 -6.11813,-1.39208 -9.25535,-1.38454c-3.16596,-0.01295 -6.31563,0.45386 -9.34185,1.38454zM518.69597,905.95767l67.42565,-117.68616c6.69802,2.30761 13.97514,2.30761 20.67316,0l67.51215,117.68616c-5.49581,4.64834 -9.28536,10.99729 -10.76907,18.04233h-134.07281c-1.48371,-7.04504 -5.27326,-13.39398 -10.76907,-18.04233zM528.0808,936.84308l135.63203,-0.45075c1.35056,6.95447 4.98912,13.25663 10.33658,17.90348l-68.16313,117.31032c-6.77349,-2.43534 -14.16661,-2.54271 -21.00965,-0.30513l-67.03641,-116.11046c5.35932,-4.80745 8.9629,-11.26377 10.24058,-18.34746zM488.42146,899.68396l-67.6419,-118.16209c5.04703,-4.57656 8.51439,-10.63555 9.90409,-17.30679h134.07281c1.4092,6.66381 4.87333,12.71716 9.90409,17.30679l-67.6419,118.11883c-2.99852,-0.92208 -6.11837,-1.38879 -9.25535,-1.38454c-3.16817,0.00106 -6.31788,0.48247 -9.34185,1.42781z" style="stroke: rgb(140, 140, 140); stroke-width: 0; stroke-linecap: butt; stroke-linejoin: miter; fill: rgb(182, 232, 251);" vector-effect="non-scaling-stroke"/></g><defs><path id="path-160502718843843739" d="M321.78193,262.53457c5.15636,-4.53549 8.73197,-10.59833 10.20683,-17.30679h134.07281c1.47486,6.70846 5.05048,12.7713 10.20683,17.30679l-67.5554,117.98903c-3.12279,-0.97205 -6.37413,-1.46797 -9.64459,-1.47108c-3.25657,-0.00051 -6.4942,0.49554 -9.60134,1.47108zM378.04926,386.88384c-5.3325,4.62827 -9.00769,10.87256 -10.46633,17.78272h-65.58293v-134.05811c2.82714,-0.13815 5.64037,-0.65167 8.36412,-1.54058zM674.30693,559.86518c-5.50301,4.62409 -9.29524,10.96229 -10.76907,17.99906h-134.07281c-1.47384,-7.03677 -5.26606,-13.37497 -10.76907,-17.99906l67.42565,-117.72942c6.69802,2.30761 13.97514,2.30761 20.67316,0zM506.93216,553.50494c-6.03244,-1.8449 -12.47826,-1.8449 -18.5107,0l-67.6419,-118.11883c5.03076,-4.58963 8.49489,-10.64297 9.90409,-17.30679h134.07281c1.4092,6.66381 4.87333,12.71716 9.90409,17.30679zM476.91715,559.86518c-5.50301,4.62409 -9.29524,10.96229 -10.76907,17.99906h-134.07281c-1.47384,-7.03677 -5.26606,-13.37497 -10.76907,-17.99906l67.42565,-117.72942c6.69802,2.30761 13.97514,2.30761 20.67316,0zM309.54238,553.50494c-2.46394,-0.75355 -4.99685,-1.19931 -7.54238,-1.33729v-134.08833h65.36669c1.4092,6.66381 4.87333,12.71716 9.90409,17.30679zM902.53346,615.20364l67.51215,117.94576c-5.30427,4.64475 -8.96128,10.88393 -10.42308,17.78272h-134.07281c-1.45864,-6.91016 -5.13383,-13.15446 -10.46633,-17.78272l67.51215,-117.81596c3.20856,1.06361 6.56722,1.60414 9.94734,1.60088c3.40131,-0.03843 6.7744,-0.62276 9.99059,-1.73068zM803.49258,726.65935c-6.2655,-1.96153 -12.98044,-1.96153 -19.24594,0l-67.6419,-117.98903c5.17059,-4.52369 8.74918,-10.59157 10.20683,-17.30679h134.07281c1.46028,6.70406 5.02084,12.76706 10.16358,17.30679zM772.39633,733.0196c-5.31783,4.64047 -8.98991,10.87948 -10.46633,17.78272h-133.77007c-1.45864,-6.91016 -5.13383,-13.15446 -10.46633,-17.78272l67.4689,-117.81596c6.48971,2.13327 13.49146,2.13327 19.98117,0zM606.0163,726.65935c-6.2655,-1.96153 -12.98044,-1.96153 -19.24594,0l-67.59865,-117.98903c5.15636,-4.53549 8.73197,-10.59833 10.20683,-17.30679h134.07281c1.47486,6.70846 5.05048,12.7713 10.20683,17.30679zM575.26605,733.1494c-5.3325,4.62827 -9.00769,10.87256 -10.46633,17.78272h-134.07281c-1.45864,-6.91016 -5.13383,-13.15446 -10.46633,-17.78272l67.51215,-117.94576c6.48971,2.13327 13.49146,2.13327 19.98117,0zM408.62651,726.65935c-6.28013,-1.96228 -13.00905,-1.96228 -19.28919,0l-67.5554,-117.98903c5.15636,-4.53549 8.73197,-10.59833 10.20683,-17.30679h134.07281c1.47486,6.70846 5.05048,12.7713 10.20683,17.30679zM377.91951,733.0196c-5.3325,4.62827 -9.00769,10.87256 -10.46633,17.78272h-65.45318v-134.04009c2.82775,-0.14393 5.64101,-0.66346 8.36412,-1.55859zM618,1078.72942l67.59865,-117.72942c3.33137,1.12407 6.8209,1.70833 10.33658,1.73068c3.51633,-0.01484 7.00705,-0.5993 10.33658,-1.73068l67.42565,117.68616c-5.46631,4.65921 -9.2251,11.00761 -10.68258,18.04233h-134.07281c-1.53251,-7.0551 -5.38517,-13.39249 -10.94207,-17.99906zM883.33078,899.6407l-67.6419,-118.11883c5.03076,-4.58963 8.49489,-10.64297 9.90409,-17.30679h134.07281c1.37509,6.66687 4.8274,12.72603 9.86084,17.30679l-67.7284,118.11883c-2.99779,-0.9253 -6.11813,-1.39208 -9.25535,-1.38454c-3.12248,0.00007 -6.22744,0.46673 -9.2121,1.38454zM716.08575,905.95767l67.4689,-117.68616c6.68486,2.29769 13.94505,2.29769 20.62991,0l67.4689,117.68616c-5.48234,4.6527 -9.25679,11.00185 -10.72583,18.04233h-134.07281c-1.48371,-7.04504 -5.27326,-13.39398 -10.76907,-18.04233zM685.81125,899.6407l-67.6419,-118.11883c5.03076,-4.58963 8.49489,-10.64297 9.90409,-17.30679h134.07281c1.4092,6.66381 4.87333,12.71716 9.90409,17.30679l-67.6419,118.11883c-2.99779,-0.9253 -6.11813,-1.39208 -9.25535,-1.38454c-3.16596,-0.01295 -6.31563,0.45386 -9.34185,1.38454zM518.69597,905.95767l67.42565,-117.68616c6.69802,2.30761 13.97514,2.30761 20.67316,0l67.51215,117.68616c-5.49581,4.64834 -9.28536,10.99729 -10.76907,18.04233h-134.07281c-1.48371,-7.04504 -5.27326,-13.39398 -10.76907,-18.04233zM528.0808,936.84308l135.63203,-0.45075c1.35056,6.95447 4.98912,13.25663 10.33658,17.90348l-68.16313,117.31032c-6.77349,-2.43534 -14.16661,-2.54271 -21.00965,-0.30513l-67.03641,-116.11046c5.35932,-4.80745 8.9629,-11.26377 10.24058,-18.34746zM488.42146,899.68396l-67.6419,-118.16209c5.04703,-4.57656 8.51439,-10.63555 9.90409,-17.30679h134.07281c1.4092,6.66381 4.87333,12.71716 9.90409,17.30679l-67.6419,118.11883c-2.99852,-0.92208 -6.11837,-1.38879 -9.25535,-1.38454c-3.16817,0.00106 -6.31788,0.48247 -9.34185,1.42781z" vector-effect="non-scaling-stroke"/></defs></g></svg>