<?xml version="1.0" encoding="UTF-8" standalone="no"?>
<svg width="22px" height="22px" viewBox="0 0 22 22" version="1.1" xmlns="http://www.w3.org/2000/svg" xmlns:xlink="http://www.w3.org/1999/xlink">
    <title>icons / icon-marker-filter</title>
    <g id="icons-/-icon-marker-filter" stroke="none" stroke-width="1" fill="#002f57" fill-rule="evenodd">
        <g id="Map-Marker-Alt" transform="translate(3.000000, 0.000000)" fill="#002f57" fill-rule="nonzero">
            <path d="M8.2486272,4.1243136 C5.9744549,4.1243136 4.1243136,5.9744549 4.1243136,8.2486272 C4.1243136,10.5227995 5.9744549,12.3729408 8.2486272,12.3729408 C10.5227995,12.3729408 12.3729408,10.5227995 12.3729408,8.2486272 C12.3729408,5.9744549 10.5227995,4.1243136 8.2486272,4.1243136 Z M8.2486272,10.9981696 C6.73251234,10.9981696 5.4990848,9.76474206 5.4990848,8.2486272 C5.4990848,6.73251234 6.73251234,5.4990848 8.2486272,5.4990848 C9.76474206,5.4990848 10.9981696,6.73251234 10.9981696,8.2486272 C10.9981696,9.76474206 9.76474206,10.9981696 8.2486272,10.9981696 Z M8.2486272,0 C3.69297914,0 0,3.69297914 0,8.2486272 C0,11.5742847 1.15867435,12.5031574 7.40090891,21.5525459 C7.81033296,22.1441271 8.68631998,22.1441271 9.09638845,21.5525459 C15.3382793,12.5031144 16.4972544,11.5742847 16.4972544,8.2486272 C16.4972544,3.69297914 12.8038456,0 8.2486272,0 Z M8.2486272,20.3607911 C2.26407632,11.7061768 1.3747712,11.0192208 1.3747712,8.24819758 C1.3747712,6.41210472 2.08978111,4.68582171 3.38808066,3.38765104 C4.68638021,2.08922261 6.41253434,1.37434158 8.2486272,1.37434158 C10.0847201,1.37434158 11.8105735,2.08935149 13.1091737,3.38765104 C14.4071726,4.68582171 15.1224832,6.41210472 15.1224832,8.24819758 C15.1224832,11.0187912 14.2331781,11.7053175 8.2486272,20.3603615 L8.2486272,20.3607911 Z" id="Shape"></path>
        </g>
    </g>
</svg>