<?xml version="1.0" encoding="UTF-8"?>
<svg width="22px" height="22px" viewBox="0 0 22 22" version="1.1" xmlns="http://www.w3.org/2000/svg" xmlns:xlink="http://www.w3.org/1999/xlink">
    <title>icons / icon-globe-filter</title>
    <g id="icons-/-icon-globe-filter" stroke="none" stroke-width="1" fill="#003058" fill-rule="evenodd">
        <g id="Group" fill="#003058" fill-rule="nonzero">
            <g id="Planet-Moon">
                <path d="M10.69376,0 C4.7873672,0 0,4.7873672 0,10.69376 C0,16.5996754 4.7873672,21.38752 10.69376,21.38752 C16.5996754,21.38752 21.38752,16.5996754 21.38752,10.69376 C21.38752,4.7873672 16.5996754,0 10.69376,0 Z M2.6271322,6.6291764 L2.6271322,6.628699 C3.926615,3.7609572 6.7809896,1.9162836 9.9294426,1.9086452 C10.7133334,1.9196254 11.0752026,2.3664718 11.0752026,2.893044 L11.0752026,2.893044 C11.0771122,3.4048168 10.9310278,3.9065642 10.6550906,4.3376564 L8.36758076,6.9757688 C7.69731116,7.748202 7.68107956,9.0328854 8.42916536,9.7303668 L8.42868796,9.7298894 C8.82779436,10.1036936 9.35484396,10.3108852 9.90194436,10.309453 L12.983084,10.309453 L12.983084,10.309453 C13.6151616,10.3099304 14.1278892,10.822658 14.128844,11.455213 L14.128844,12.2615416 L14.128844,12.2610642 C14.1278892,12.6759248 14.0314544,13.0850566 13.8462232,13.4564738 L11.920869,16.5423874 L11.920869,16.54191 C11.7790812,16.8230986 11.5122146,17.0207422 11.2014272,17.0737336 C11.0443626,17.0999906 10.8858658,17.121951 10.6863126,17.141047 L10.6858352,17.1405696 C10.4757792,17.1353182 10.3082118,16.964409 10.3077344,16.7548304 C10.307257,13.3652904 10.3067796,14.625149 10.309644,14.1257886 L9.92533696,14.1257886 L9.92533696,14.1257886 C9.29278196,14.1248338 8.78005436,13.6121062 8.77957696,12.9800286 L8.77957696,11.2938518 L6.05982916,8.574104 L6.05935176,8.5736266 C5.70082436,8.2150992 5.21530856,8.0141138 4.70878716,8.0141138 L3.51385496,8.0136364 C2.77293016,8.0136364 2.33897356,7.246932 2.62159436,6.6224928 L2.6271322,6.6291764 Z M10.6932826,19.8593626 C5.6390488,19.8593626 1.5272026,15.747039 1.5272026,10.6932826 L1.5267252,10.6932826 C1.5272026,10.04927 1.5959482,9.4076444 1.7310524,8.7784312 L1.730575,8.7779538 C2.1965174,9.266334 2.8419622,9.5441808 3.5174832,9.5460904 L4.711938,9.5460904 L4.7114606,9.5460904 C4.8126694,9.545613 4.910059,9.5857146 4.9811916,9.657802 L7.2531382,11.9297486 L7.2531382,12.9824156 L7.2526608,12.9819382 C7.2531382,14.014077 7.8475012,14.9536002 8.7798634,15.3971048 C8.779386,15.4782628 8.779386,15.4166782 8.7798634,16.7562626 L8.779386,16.7562626 C8.7784312,17.8098844 9.6310676,18.6658626 10.6851668,18.6692044 C10.9186154,18.6692044 11.3759646,18.5932978 11.452826,18.580408 L11.452826,18.5799306 C12.2443552,18.4453038 12.9246502,17.9421242 13.2850872,17.224592 L15.209964,14.138201 L15.209964,14.1377236 C15.5007006,13.5538634 15.6525138,12.9108056 15.6534686,12.2581998 L15.6534686,11.4513938 L15.6534686,11.4513938 C15.651559,9.975273 14.455672,8.779386 12.9800286,8.7774764 L9.8984116,8.7774764 L9.8979342,8.7774764 C9.7289346,8.7774764 9.567096,8.7106404 9.4482234,8.590813 L9.4482234,8.590813 C9.306913,8.4485478 9.2987972,8.2217828 9.4296048,8.070447 L11.8032376,5.3320806 L11.8505002,5.2771796 L11.8906018,5.2165498 L11.8906018,5.2160724 C12.3512928,4.5262294 12.5966764,3.7146494 12.596199,2.8854056 L12.596199,2.8854056 C12.5942894,2.4581326 12.4835326,2.038498 12.273954,1.666126 C16.5724636,2.4208954 19.8522016,6.1732594 19.8522016,10.6846894 C19.8522016,15.7384458 15.739878,19.8507694 10.6861216,19.8507694 L10.6932826,19.8593626 Z" id="Shape"></path>
            </g>
        </g>
    </g>
</svg>