<svg xmlns="http://www.w3.org/2000/svg" width="22" height="17" viewBox="0 0 22 17">
  <path fill="#003058" d="M20.1666667,0 L1.83333333,0 C0.821180556,0 0,0.815848214 0,1.82142857 L0,15.1785714 C0,16.1841518 0.821180556,17 1.83333333,17 L20.1666667,17 C21.1788194,17 22,16.1841518 22,15.1785714 L22,1.82142857 C22,0.815848214 21.1788194,0 20.1666667,0 Z M1.83333333,1.21428571 L20.1666667,1.21428571 C20.5027778,1.21428571 20.7777778,1.4875 20.7777778,1.82142857 L20.7777778,3.64285714 L1.22222222,3.64285714 L1.22222222,1.82142857 C1.22222222,1.4875 1.49722222,1.21428571 1.83333333,1.21428571 Z M20.1666667,15.7857143 L1.83333333,15.7857143 C1.49722222,15.7857143 1.22222222,15.5125 1.22222222,15.1785714 L1.22222222,7.28571429 L20.7777778,7.28571429 L20.7777778,15.1785714 C20.7777778,15.5125 20.5027778,15.7857143 20.1666667,15.7857143 Z M7.33333333,12.5982143 L7.33333333,12.9017857 C7.33333333,13.1522321 7.12708333,13.3571429 6.875,13.3571429 L4.125,13.3571429 C3.87291667,13.3571429 3.66666667,13.1522321 3.66666667,12.9017857 L3.66666667,12.5982143 C3.66666667,12.3477679 3.87291667,12.1428571 4.125,12.1428571 L6.875,12.1428571 C7.12708333,12.1428571 7.33333333,12.3477679 7.33333333,12.5982143 Z M14.6666667,12.5982143 L14.6666667,12.9017857 C14.6666667,13.1522321 14.4604167,13.3571429 14.2083333,13.3571429 L9.01388889,13.3571429 C8.76180556,13.3571429 8.55555556,13.1522321 8.55555556,12.9017857 L8.55555556,12.5982143 C8.55555556,12.3477679 8.76180556,12.1428571 9.01388889,12.1428571 L14.2083333,12.1428571 C14.4604167,12.1428571 14.6666667,12.3477679 14.6666667,12.5982143 Z"/>
</svg>
