<svg version="1.2" xmlns="http://www.w3.org/2000/svg" xmlns:xlink="http://www.w3.org/1999/xlink" overflow="visible" preserveAspectRatio="none" viewBox="0 0 454.99522 505.55239000000006" width="454.99522" height="505.55239000000006"><g transform="translate(0, 0)"><g transform="translate(-0.004780000000010887, -35.60275) rotate(0)"><path d="M295.72439,399.47249c5.50274,-4.62073 9.29479,-10.95431 10.76855,-17.98596h134.06634c1.47377,7.03165 5.26581,13.36523 10.76855,17.98596l-67.42239,117.64372c-6.6977,-2.30593 -13.97446,-2.30593 -20.67216,0zM405.26956,541.15514c-1.40914,-6.65896 -4.87309,-12.7079 -9.90361,-17.29419l59.63405,-103.93154v121.22573zM67.51367,344.17432l-67.50889,-117.8599c5.30402,-4.64136 8.96085,-10.87601 10.42258,-17.76978h134.06634c1.45857,6.90513 5.13358,13.14488 10.46582,17.76978l-67.50889,117.73019c-3.20841,-1.06284 -6.5669,-1.60297 -9.94686,-1.59971c-3.40114,0.03841 -6.77407,0.6223 -9.9901,1.72942zM166.54079,232.79974c6.2655,1.9601 12.98044,1.9601 19.24594,0l67.6419,117.90314c-5.17059,4.5204 -8.74918,10.58386 -10.20683,17.29419h-134.07281c-1.46028,-6.69918 -5.02084,-12.75776 -10.16358,-17.29419zM197.63225,226.44413c5.31783,-4.63709 8.98991,-10.87156 10.46633,-17.76978h133.77007c1.45864,6.90513 5.13383,13.14488 10.46633,17.76978l-67.4689,117.73019c-6.48971,-2.13172 -13.49146,-2.13172 -19.98117,0zM364.01173,232.79974c6.26519,1.9601 12.97981,1.9601 19.24501,0l67.59538,117.90314c-5.15611,4.53219 -8.73155,10.59061 -10.20634,17.29419h-134.06634c-1.47479,-6.70358 -5.05023,-12.762 -10.20634,-17.29419zM394.76049,226.31442c5.33225,-4.6249 9.00726,-10.86465 10.46582,-17.76978h49.77369v122.93849zM86.71545,59.94432l67.63863,118.03284c-5.03052,4.58628 -8.49447,10.63523 -9.90361,17.29419h-134.06634c-1.37502,-6.66202 -4.82716,-12.71677 -9.86036,-17.29419l67.72512,-118.03284c2.99764,0.92462 6.11784,1.39107 9.2549,1.38354c3.12233,-0.00007 6.22714,-0.46639 9.21165,-1.38354zM253.94759,53.63194l-67.46564,117.60049c-6.68454,-2.29602 -13.94438,-2.29602 -20.62892,0l-67.46564,-117.60049c5.48207,-4.64931 9.25634,-10.99384 10.72531,-18.02919h134.06634c1.48364,7.03991 5.27301,13.38423 10.76855,18.02919zM284.22063,59.94432l67.63863,118.03284c-5.03052,4.58628 -8.49447,10.63523 -9.90361,17.29419h-134.06634c-1.40914,-6.65896 -4.87309,-12.7079 -9.90361,-17.29419l67.63863,-118.03284c2.99764,0.92462 6.11784,1.39107 9.2549,1.38354c3.16581,0.01294 6.31532,-0.45353 9.3414,-1.38354zM451.32784,53.63194l-67.42239,117.60049c-6.6977,-2.30593 -13.97446,-2.30593 -20.67216,0l-67.50889,-117.60049c5.49555,-4.64496 9.28491,-10.98929 10.76855,-18.02919h134.06634c1.48364,7.03991 5.27301,13.38423 10.76855,18.02919zM405.26956,195.27135c-1.40914,-6.65896 -4.87309,-12.7079 -9.90361,-17.29419l59.63405,-104.06444v121.35863z" style="stroke-width: 0; stroke-linecap: butt; stroke-linejoin: miter; fill: #00446F;" vector-effect="non-scaling-stroke"/></g><defs><path id="path-160502356255117910" d="M295.72439,399.47249c5.50274,-4.62073 9.29479,-10.95431 10.76855,-17.98596h134.06634c1.47377,7.03165 5.26581,13.36523 10.76855,17.98596l-67.42239,117.64372c-6.6977,-2.30593 -13.97446,-2.30593 -20.67216,0zM405.26956,541.15514c-1.40914,-6.65896 -4.87309,-12.7079 -9.90361,-17.29419l59.63405,-103.93154v121.22573zM67.51367,344.17432l-67.50889,-117.8599c5.30402,-4.64136 8.96085,-10.87601 10.42258,-17.76978h134.06634c1.45857,6.90513 5.13358,13.14488 10.46582,17.76978l-67.50889,117.73019c-3.20841,-1.06284 -6.5669,-1.60297 -9.94686,-1.59971c-3.40114,0.03841 -6.77407,0.6223 -9.9901,1.72942zM166.54079,232.79974c6.2655,1.9601 12.98044,1.9601 19.24594,0l67.6419,117.90314c-5.17059,4.5204 -8.74918,10.58386 -10.20683,17.29419h-134.07281c-1.46028,-6.69918 -5.02084,-12.75776 -10.16358,-17.29419zM197.63225,226.44413c5.31783,-4.63709 8.98991,-10.87156 10.46633,-17.76978h133.77007c1.45864,6.90513 5.13383,13.14488 10.46633,17.76978l-67.4689,117.73019c-6.48971,-2.13172 -13.49146,-2.13172 -19.98117,0zM364.01173,232.79974c6.26519,1.9601 12.97981,1.9601 19.24501,0l67.59538,117.90314c-5.15611,4.53219 -8.73155,10.59061 -10.20634,17.29419h-134.06634c-1.47479,-6.70358 -5.05023,-12.762 -10.20634,-17.29419zM394.76049,226.31442c5.33225,-4.6249 9.00726,-10.86465 10.46582,-17.76978h49.77369v122.93849zM86.71545,59.94432l67.63863,118.03284c-5.03052,4.58628 -8.49447,10.63523 -9.90361,17.29419h-134.06634c-1.37502,-6.66202 -4.82716,-12.71677 -9.86036,-17.29419l67.72512,-118.03284c2.99764,0.92462 6.11784,1.39107 9.2549,1.38354c3.12233,-0.00007 6.22714,-0.46639 9.21165,-1.38354zM253.94759,53.63194l-67.46564,117.60049c-6.68454,-2.29602 -13.94438,-2.29602 -20.62892,0l-67.46564,-117.60049c5.48207,-4.64931 9.25634,-10.99384 10.72531,-18.02919h134.06634c1.48364,7.03991 5.27301,13.38423 10.76855,18.02919zM284.22063,59.94432l67.63863,118.03284c-5.03052,4.58628 -8.49447,10.63523 -9.90361,17.29419h-134.06634c-1.40914,-6.65896 -4.87309,-12.7079 -9.90361,-17.29419l67.63863,-118.03284c2.99764,0.92462 6.11784,1.39107 9.2549,1.38354c3.16581,0.01294 6.31532,-0.45353 9.3414,-1.38354zM451.32784,53.63194l-67.42239,117.60049c-6.6977,-2.30593 -13.97446,-2.30593 -20.67216,0l-67.50889,-117.60049c5.49555,-4.64496 9.28491,-10.98929 10.76855,-18.02919h134.06634c1.48364,7.03991 5.27301,13.38423 10.76855,18.02919zM405.26956,195.27135c-1.40914,-6.65896 -4.87309,-12.7079 -9.90361,-17.29419l59.63405,-104.06444v121.35863z" vector-effect="non-scaling-stroke"/></defs></g></svg>