<svg version="1.2" xmlns="http://www.w3.org/2000/svg" xmlns:xlink="http://www.w3.org/1999/xlink" overflow="visible" preserveAspectRatio="none" viewBox="0 0 66 66.00000638313284" width="66" height="66.00000638313284"><g transform="translate(0, 0)"><g transform="translate(0, 0) rotate(0)"><path d="M23.5,47c-12.97869,0 -23.5,-10.52131 -23.5,-23.5c0,-12.97869 10.52131,-23.5 23.5,-23.5c12.97869,0 23.5,10.52131 23.5,23.5c-0.00704,5.99046 -2.25255,11.45633 -5.94508,15.60617l24.52843,24.55624c0.26585,0.24952 0.41665,0.59789 0.41665,0.9625c0,0.36461 -0.1508,0.71298 -0.41665,0.9625c-0.24826,0.26713 -0.5978,0.41694 -0.96244,0.4125c-0.36464,0.00445 -0.71418,-0.14537 -0.96244,-0.4125l-24.55492,-24.53015c-4.14952,3.69115 -9.61435,5.93571 -15.60355,5.94275zM23.5,2.76471c-11.45179,0 -20.73529,9.28351 -20.73529,20.73529c0,11.45179 9.28351,20.73529 20.73529,20.73529c5.44135,0 10.39317,-2.09594 14.09216,-5.52453c0.04776,-0.2686 0.17541,-0.52578 0.38293,-0.73332c0.2076,-0.20761 0.46487,-0.33528 0.73356,-0.38301c3.42984,-3.69924 5.52664,-8.65197 5.52664,-14.09444c0,-11.45179 -9.28351,-20.73529 -20.73529,-20.73529z" style="stroke-width: 0; stroke-linecap: butt; stroke-linejoin: miter; fill: rgb(255, 255, 255);" vector-effect="non-scaling-stroke"/></g><defs><path id="path-160502718823243474" d="M23.5,47c-12.97869,0 -23.5,-10.52131 -23.5,-23.5c0,-12.97869 10.52131,-23.5 23.5,-23.5c12.97869,0 23.5,10.52131 23.5,23.5c-0.00704,5.99046 -2.25255,11.45633 -5.94508,15.60617l24.52843,24.55624c0.26585,0.24952 0.41665,0.59789 0.41665,0.9625c0,0.36461 -0.1508,0.71298 -0.41665,0.9625c-0.24826,0.26713 -0.5978,0.41694 -0.96244,0.4125c-0.36464,0.00445 -0.71418,-0.14537 -0.96244,-0.4125l-24.55492,-24.53015c-4.14952,3.69115 -9.61435,5.93571 -15.60355,5.94275zM23.5,2.76471c-11.45179,0 -20.73529,9.28351 -20.73529,20.73529c0,11.45179 9.28351,20.73529 20.73529,20.73529c5.44135,0 10.39317,-2.09594 14.09216,-5.52453c0.04776,-0.2686 0.17541,-0.52578 0.38293,-0.73332c0.2076,-0.20761 0.46487,-0.33528 0.73356,-0.38301c3.42984,-3.69924 5.52664,-8.65197 5.52664,-14.09444c0,-11.45179 -9.28351,-20.73529 -20.73529,-20.73529z" vector-effect="non-scaling-stroke"/></defs></g></svg>