<svg version="1.2" xmlns="http://www.w3.org/2000/svg" xmlns:xlink="http://www.w3.org/1999/xlink" overflow="visible" preserveAspectRatio="none" viewBox="0 0 76.99999499388323 76.99999467922534" width="76.99999499388323" height="76.99999467922534"><g transform="translate(0, 0)"><g transform="translate(-0.000007506116778188687, -0.00000783420760371023) rotate(0)"><path d="M47.9028,76.99319c-0.42567,0.01296 -0.83644,-0.15725 -1.12804,-0.46742l-40.30679,-40.28066c-0.30191,-0.29718 -0.47063,-0.70382 -0.46772,-1.12731v-26.8327l-5.63812,-5.6468c-0.52243,-0.64333 -0.47452,-1.57813 0.11094,-2.1645c0.58546,-0.58636 1.51883,-0.63435 2.16117,-0.11111l5.62889,5.63756h26.87356c0.42376,-0.0029 0.83067,0.1657 1.12804,0.46742l40.27928,40.44563c0.60799,0.62873 0.60799,1.62588 0,2.25462l-27.51317,27.49533c-0.32031,0.2494 -0.72372,0.3674 -1.12804,0.32994zM9.21928,34.45791l38.68352,38.65844l25.09201,-25.04825l-38.68352,-38.71343h-22.6989l7.96539,7.97766c1.26677,-0.84185 2.78722,-1.33233 4.42222,-1.33233c4.41828,0 8,3.58172 8,8c0,4.41828 -3.58172,8 -8,8c-4.41828,0 -8,-3.58172 -8,-8c0,-1.62031 0.48171,-3.12811 1.30972,-4.38801l-8.11562,-8.12812zM24,19.08532c-0.77678,0.0002 -1.51072,0.18477 -2.16026,0.51244l1.65412,1.65667c0.62278,0.63031 0.62278,1.6453 0,2.27561c-0.31227,0.29279 -0.72204,0.45891 -1.14974,0.46609c-0.42103,-0.00018 -0.82475,-0.16783 -1.12237,-0.46609l-1.60548,-1.60795c-0.26549,0.59049 -0.41526,1.24444 -0.42036,1.93311c-0.01954,2.63954 2.09361,4.80073 4.73293,4.8405c2.63931,0.03977 4.81663,-2.05677 4.87662,-4.6957c0.0294,-1.2933 -0.46388,-2.54384 -1.36828,-3.4688c-0.90441,-0.92496 -2.14354,-1.44621 -3.43718,-1.44588z" style="stroke-width: 0; stroke-linecap: butt; stroke-linejoin: miter; fill: rgb(255, 255, 255);" vector-effect="non-scaling-stroke"/></g><defs><path id="path-160502692677522302" d="M47.9028,76.99319c-0.42567,0.01296 -0.83644,-0.15725 -1.12804,-0.46742l-40.30679,-40.28066c-0.30191,-0.29718 -0.47063,-0.70382 -0.46772,-1.12731v-26.8327l-5.63812,-5.6468c-0.52243,-0.64333 -0.47452,-1.57813 0.11094,-2.1645c0.58546,-0.58636 1.51883,-0.63435 2.16117,-0.11111l5.62889,5.63756h26.87356c0.42376,-0.0029 0.83067,0.1657 1.12804,0.46742l40.27928,40.44563c0.60799,0.62873 0.60799,1.62588 0,2.25462l-27.51317,27.49533c-0.32031,0.2494 -0.72372,0.3674 -1.12804,0.32994zM9.21928,34.45791l38.68352,38.65844l25.09201,-25.04825l-38.68352,-38.71343h-22.6989l7.96539,7.97766c1.26677,-0.84185 2.78722,-1.33233 4.42222,-1.33233c4.41828,0 8,3.58172 8,8c0,4.41828 -3.58172,8 -8,8c-4.41828,0 -8,-3.58172 -8,-8c0,-1.62031 0.48171,-3.12811 1.30972,-4.38801l-8.11562,-8.12812zM24,19.08532c-0.77678,0.0002 -1.51072,0.18477 -2.16026,0.51244l1.65412,1.65667c0.62278,0.63031 0.62278,1.6453 0,2.27561c-0.31227,0.29279 -0.72204,0.45891 -1.14974,0.46609c-0.42103,-0.00018 -0.82475,-0.16783 -1.12237,-0.46609l-1.60548,-1.60795c-0.26549,0.59049 -0.41526,1.24444 -0.42036,1.93311c-0.01954,2.63954 2.09361,4.80073 4.73293,4.8405c2.63931,0.03977 4.81663,-2.05677 4.87662,-4.6957c0.0294,-1.2933 -0.46388,-2.54384 -1.36828,-3.4688c-0.90441,-0.92496 -2.14354,-1.44621 -3.43718,-1.44588z" vector-effect="non-scaling-stroke"/></defs></g></svg>