<svg version="1.2" xmlns="http://www.w3.org/2000/svg" xmlns:xlink="http://www.w3.org/1999/xlink" overflow="visible" preserveAspectRatio="none" viewBox="0 0 66 66" width="66" height="66"><g transform="translate(0, 0)"><g transform="translate(0, 0) rotate(0)"><path d="M64.625,66h-49.5c-0.75939,0 -1.375,-0.61561 -1.375,-1.375c0,-0.75939 0.61561,-1.375 1.375,-1.375h48.125v-48.125c0,-0.75939 0.61561,-1.375 1.375,-1.375c0.75939,0 1.375,0.61561 1.375,1.375v49.5c0,0.75939 -0.61561,1.375 -1.375,1.375zM59.125,60.5h-52.25c-0.75939,0 -1.375,-0.61561 -1.375,-1.375c0,-0.75939 0.61561,-1.375 1.375,-1.375h50.875v-50.875c0,-0.75939 0.61561,-1.375 1.375,-1.375c0.75939,0 1.375,0.61561 1.375,1.375v52.25c0,0.75939 -0.61561,1.375 -1.375,1.375zM53.625,55h-52.25c-0.75939,0 -1.375,-0.61561 -1.375,-1.375v-52.25c0,-0.75939 0.61561,-1.375 1.375,-1.375h52.25c0.75939,0 1.375,0.61561 1.375,1.375v52.25c0,0.75939 -0.61561,1.375 -1.375,1.375zM2.75,52.25h49.5v-8.25h-39.65678c-0.10735,0.01265 -0.21533,0.01254 -0.32175,0h-9.52147zM52.25,2.75h-49.5v38.5h8.8935l7.854,-13.09c0.2154,-0.36883 0.5929,-0.61369 1.0175,-0.66c0.44151,-0.02635 0.86959,0.15711 1.155,0.495l5.83,6.8475l9.955,-14.9875c0.28564,-0.38086 0.73393,-0.605 1.21,-0.605c0.50607,0.07081 0.93589,0.40628 1.1275,0.88l7.92,21.12h4.5375zM38.17,23.6225l-9.515,14.2725c-0.26531,0.37566 -0.69511,0.6008 -1.155,0.605c-0.43366,0.02641 -0.85344,-0.15788 -1.1275,-0.495l-5.5,-6.765l-6.006,10.01h29.89206zM16.5,19c-3.03757,0 -5.5,-2.46243 -5.5,-5.5c0,-3.03757 2.46243,-5.5 5.5,-5.5c3.03757,0 5.5,2.46243 5.5,5.5c0,3.03757 -2.46243,5.5 -5.5,5.5zM16.5,10.75c-1.51878,0 -2.75,1.23122 -2.75,2.75c0,1.51878 1.23122,2.75 2.75,2.75c1.51878,0 2.75,-1.23122 2.75,-2.75c0,-1.51878 -1.23122,-2.75 -2.75,-2.75z" style="stroke-width: 0; stroke-linecap: butt; stroke-linejoin: miter; fill: rgb(255, 255, 255);" vector-effect="non-scaling-stroke"/></g><defs><path id="path-160502692677822310" d="M64.625,66h-49.5c-0.75939,0 -1.375,-0.61561 -1.375,-1.375c0,-0.75939 0.61561,-1.375 1.375,-1.375h48.125v-48.125c0,-0.75939 0.61561,-1.375 1.375,-1.375c0.75939,0 1.375,0.61561 1.375,1.375v49.5c0,0.75939 -0.61561,1.375 -1.375,1.375zM59.125,60.5h-52.25c-0.75939,0 -1.375,-0.61561 -1.375,-1.375c0,-0.75939 0.61561,-1.375 1.375,-1.375h50.875v-50.875c0,-0.75939 0.61561,-1.375 1.375,-1.375c0.75939,0 1.375,0.61561 1.375,1.375v52.25c0,0.75939 -0.61561,1.375 -1.375,1.375zM53.625,55h-52.25c-0.75939,0 -1.375,-0.61561 -1.375,-1.375v-52.25c0,-0.75939 0.61561,-1.375 1.375,-1.375h52.25c0.75939,0 1.375,0.61561 1.375,1.375v52.25c0,0.75939 -0.61561,1.375 -1.375,1.375zM2.75,52.25h49.5v-8.25h-39.65678c-0.10735,0.01265 -0.21533,0.01254 -0.32175,0h-9.52147zM52.25,2.75h-49.5v38.5h8.8935l7.854,-13.09c0.2154,-0.36883 0.5929,-0.61369 1.0175,-0.66c0.44151,-0.02635 0.86959,0.15711 1.155,0.495l5.83,6.8475l9.955,-14.9875c0.28564,-0.38086 0.73393,-0.605 1.21,-0.605c0.50607,0.07081 0.93589,0.40628 1.1275,0.88l7.92,21.12h4.5375zM38.17,23.6225l-9.515,14.2725c-0.26531,0.37566 -0.69511,0.6008 -1.155,0.605c-0.43366,0.02641 -0.85344,-0.15788 -1.1275,-0.495l-5.5,-6.765l-6.006,10.01h29.89206zM16.5,19c-3.03757,0 -5.5,-2.46243 -5.5,-5.5c0,-3.03757 2.46243,-5.5 5.5,-5.5c3.03757,0 5.5,2.46243 5.5,5.5c0,3.03757 -2.46243,5.5 -5.5,5.5zM16.5,10.75c-1.51878,0 -2.75,1.23122 -2.75,2.75c0,1.51878 1.23122,2.75 2.75,2.75c1.51878,0 2.75,-1.23122 2.75,-2.75c0,-1.51878 -1.23122,-2.75 -2.75,-2.75z" vector-effect="non-scaling-stroke"/></defs></g></svg>