<svg version="1.2" xmlns="http://www.w3.org/2000/svg" xmlns:xlink="http://www.w3.org/1999/xlink" overflow="visible" preserveAspectRatio="none" viewBox="0 0 66 58" width="66" height="58"><g transform="translate(0, 0)"><g transform="translate(0, 1.7763568394002505e-15) rotate(0)"><path d="M56.375,58h-46.75c-5.31574,0 -9.625,-4.3323 -9.625,-9.67647v-27.64706c0,-5.34417 4.30926,-9.67647 9.625,-9.67647h12.375v-4.09524c0,-3.81339 3.07804,-6.90476 6.875,-6.90476h8.25c3.79696,0 6.875,3.09137 6.875,6.90476v4.09524h12.375c5.31574,0 9.625,4.3323 9.625,9.67647v27.64706c0,5.34417 -4.30926,9.67647 -9.625,9.67647zM9.625,13.76471c-3.79696,0 -6.875,3.0945 -6.875,6.91176v27.64706c0,3.81726 3.07804,6.91176 6.875,6.91176h46.75c3.79696,0 6.875,-3.0945 6.875,-6.91176v-27.64706c0,-3.81726 -3.07804,-6.91176 -6.875,-6.91176h-13.40121c-0.11138,0.02925 -0.22827,0.04482 -0.34879,0.04482c-0.12051,0 -0.2374,-0.01557 -0.34879,-0.04482h-18.55243c-0.11138,0.02925 -0.22827,0.04482 -0.34879,0.04482c-0.12051,0 -0.2374,-0.01557 -0.34879,-0.04482zM41.25,6.90476c0,-2.28804 -1.84683,-4.14286 -4.125,-4.14286h-8.25c-2.27817,0 -4.125,1.85482 -4.125,4.14286v4.09524h16.5zM25.025,40.32381c0,-0.76268 0.61561,-1.38095 1.375,-1.38095c0.75939,0 1.375,0.61827 1.375,1.38095c0,1.64897 1.02775,3.05685 2.475,3.61278v-7.61811c-2.11436,-0.44071 -3.9174,-1.90185 -4.77019,-3.95752c-1.03286,-2.48974 -0.46759,-5.35937 1.4314,-7.26658c0.93409,-0.93814 2.10005,-1.55217 3.33879,-1.81051v-2.56958c0,-0.76268 0.61561,-1.38095 1.375,-1.38095c0.75939,0 1.375,0.61827 1.375,1.38095v2.58098c0.38773,0.08438 0.77142,0.20458 1.14646,0.36151c2.47901,1.03733 4.08966,3.47462 4.07854,6.17179c0,0.76268 -0.61561,1.38095 -1.375,1.38095c-0.75939,0 -1.375,-0.61827 -1.375,-1.38095c0,-1.64897 -1.02775,-3.05685 -2.475,-3.61278v7.6235c2.98511,0.63533 5.225,3.29722 5.225,6.48452c0,3.1873 -2.23989,5.84919 -5.225,6.48452v2.90596c0,0.76268 -0.61561,1.38095 -1.375,1.38095c-0.75939,0 -1.375,-0.61827 -1.375,-1.38095v-2.91123c-2.97822,-0.64444 -5.21189,-3.29831 -5.225,-6.47925zM35.475,40.32381c0,-1.64897 -1.02775,-3.05685 -2.475,-3.61278v7.22555c1.44725,-0.55593 2.475,-1.96381 2.475,-3.61278zM27.775,29.82857c0,1.64897 1.02775,3.05685 2.475,3.61278v-7.22555c-1.44725,0.55593 -2.475,1.96381 -2.475,3.61278z" style="stroke-width: 0; stroke-linecap: butt; stroke-linejoin: miter; fill: rgb(255, 255, 255);" vector-effect="non-scaling-stroke"/></g><defs><path id="path-160502718823043468" d="M56.375,58h-46.75c-5.31574,0 -9.625,-4.3323 -9.625,-9.67647v-27.64706c0,-5.34417 4.30926,-9.67647 9.625,-9.67647h12.375v-4.09524c0,-3.81339 3.07804,-6.90476 6.875,-6.90476h8.25c3.79696,0 6.875,3.09137 6.875,6.90476v4.09524h12.375c5.31574,0 9.625,4.3323 9.625,9.67647v27.64706c0,5.34417 -4.30926,9.67647 -9.625,9.67647zM9.625,13.76471c-3.79696,0 -6.875,3.0945 -6.875,6.91176v27.64706c0,3.81726 3.07804,6.91176 6.875,6.91176h46.75c3.79696,0 6.875,-3.0945 6.875,-6.91176v-27.64706c0,-3.81726 -3.07804,-6.91176 -6.875,-6.91176h-13.40121c-0.11138,0.02925 -0.22827,0.04482 -0.34879,0.04482c-0.12051,0 -0.2374,-0.01557 -0.34879,-0.04482h-18.55243c-0.11138,0.02925 -0.22827,0.04482 -0.34879,0.04482c-0.12051,0 -0.2374,-0.01557 -0.34879,-0.04482zM41.25,6.90476c0,-2.28804 -1.84683,-4.14286 -4.125,-4.14286h-8.25c-2.27817,0 -4.125,1.85482 -4.125,4.14286v4.09524h16.5zM25.025,40.32381c0,-0.76268 0.61561,-1.38095 1.375,-1.38095c0.75939,0 1.375,0.61827 1.375,1.38095c0,1.64897 1.02775,3.05685 2.475,3.61278v-7.61811c-2.11436,-0.44071 -3.9174,-1.90185 -4.77019,-3.95752c-1.03286,-2.48974 -0.46759,-5.35937 1.4314,-7.26658c0.93409,-0.93814 2.10005,-1.55217 3.33879,-1.81051v-2.56958c0,-0.76268 0.61561,-1.38095 1.375,-1.38095c0.75939,0 1.375,0.61827 1.375,1.38095v2.58098c0.38773,0.08438 0.77142,0.20458 1.14646,0.36151c2.47901,1.03733 4.08966,3.47462 4.07854,6.17179c0,0.76268 -0.61561,1.38095 -1.375,1.38095c-0.75939,0 -1.375,-0.61827 -1.375,-1.38095c0,-1.64897 -1.02775,-3.05685 -2.475,-3.61278v7.6235c2.98511,0.63533 5.225,3.29722 5.225,6.48452c0,3.1873 -2.23989,5.84919 -5.225,6.48452v2.90596c0,0.76268 -0.61561,1.38095 -1.375,1.38095c-0.75939,0 -1.375,-0.61827 -1.375,-1.38095v-2.91123c-2.97822,-0.64444 -5.21189,-3.29831 -5.225,-6.47925zM35.475,40.32381c0,-1.64897 -1.02775,-3.05685 -2.475,-3.61278v7.22555c1.44725,-0.55593 2.475,-1.96381 2.475,-3.61278zM27.775,29.82857c0,1.64897 1.02775,3.05685 2.475,3.61278v-7.22555c-1.44725,0.55593 -2.475,1.96381 -2.475,3.61278z" vector-effect="non-scaling-stroke"/></defs></g></svg>