<svg version="1.2" xmlns="http://www.w3.org/2000/svg" xmlns:xlink="http://www.w3.org/1999/xlink" overflow="visible" preserveAspectRatio="none" viewBox="0 0 66.0024312434186 65.99999738252268" width="66.0024312434186" height="65.99999738252268"><g transform="translate(0, 0)"><g transform="translate(0.002429728468637808, -0.000005000000001087468) rotate(0)"><path d="M34.087,65.96953l-0.02202,-0.00905c-0.1488,-0.03529 -0.2917,-0.09381 -0.42321,-0.17394l-32.78202,-13.4731c-0.55607,-0.22344 -0.90274,-0.77497 -0.85837,-1.36561v-35.50583c-0.00004,-0.03775 0.00148,-0.07531 0.0045,-0.11258c-0.05686,-0.6335 0.3022,-1.25564 0.92208,-1.50399l31.511,-13.72209c0.3524,-0.13778 0.74364,-0.13778 1.09603,0l31.511,13.72209c0.378,0.12668 0.684,0.40901 0.84102,0.77597c0.08723,0.20386 0.12387,0.42306 0.11021,0.63962c0.0035,0.0547 0.00372,0.10995 0.00052,0.1655v35.552c-0.00012,0.53705 -0.31027,1.02633 -0.79744,1.25799l-30.2477,13.67385c-0.18279,0.07584 -0.37943,0.1131 -0.57746,0.10939c-0.00018,0 -0.00036,-0.00001 -0.00054,-0.00001c-0.09646,0.00206 -0.19311,-0.00801 -0.2876,-0.03021zM34.57236,27.49951l12.63146,-5.71021l-27.36899,-13.03389l-14.93065,6.55075zM61.31096,15.412l-28.32399,-12.42702l-9.8309,4.31326l27.32134,13.0112zM2.77275,50.04653l30.22749,12.41418v-32.55611l-30.22749,-12.41418zM63.24794,50.08339v-32.54376l-27.25038,12.30409v32.54376zM26.57143,50.9997c-0.21725,-0.00275 -0.43144,-0.05014 -0.62857,-0.13904l-17.14286,-8.3425c-0.4859,-0.23893 -0.79444,-0.72155 -0.8,-1.25138v-13.90417c0.00788,-0.48534 0.26543,-0.93445 0.68571,-1.19576c0.42857,-0.22247 0.94286,-0.22247 1.37143,0l17.14286,8.3425c0.46827,0.22949 0.77377,0.68612 0.8,1.19576v13.90417c-0.00788,0.48534 -0.26543,0.93445 -0.68571,1.19576c-0.22347,0.13254 -0.48123,0.20008 -0.74286,0.19466zM10.85714,40.40472l14.28571,6.95208v-10.78964l-14.28571,-6.95208z" style="stroke-width: 0; stroke-linecap: butt; stroke-linejoin: miter; fill: rgb(255, 255, 255);" vector-effect="non-scaling-stroke"/></g><defs><path id="path-160502692677722308" d="M34.087,65.96953l-0.02202,-0.00905c-0.1488,-0.03529 -0.2917,-0.09381 -0.42321,-0.17394l-32.78202,-13.4731c-0.55607,-0.22344 -0.90274,-0.77497 -0.85837,-1.36561v-35.50583c-0.00004,-0.03775 0.00148,-0.07531 0.0045,-0.11258c-0.05686,-0.6335 0.3022,-1.25564 0.92208,-1.50399l31.511,-13.72209c0.3524,-0.13778 0.74364,-0.13778 1.09603,0l31.511,13.72209c0.378,0.12668 0.684,0.40901 0.84102,0.77597c0.08723,0.20386 0.12387,0.42306 0.11021,0.63962c0.0035,0.0547 0.00372,0.10995 0.00052,0.1655v35.552c-0.00012,0.53705 -0.31027,1.02633 -0.79744,1.25799l-30.2477,13.67385c-0.18279,0.07584 -0.37943,0.1131 -0.57746,0.10939c-0.00018,0 -0.00036,-0.00001 -0.00054,-0.00001c-0.09646,0.00206 -0.19311,-0.00801 -0.2876,-0.03021zM34.57236,27.49951l12.63146,-5.71021l-27.36899,-13.03389l-14.93065,6.55075zM61.31096,15.412l-28.32399,-12.42702l-9.8309,4.31326l27.32134,13.0112zM2.77275,50.04653l30.22749,12.41418v-32.55611l-30.22749,-12.41418zM63.24794,50.08339v-32.54376l-27.25038,12.30409v32.54376zM26.57143,50.9997c-0.21725,-0.00275 -0.43144,-0.05014 -0.62857,-0.13904l-17.14286,-8.3425c-0.4859,-0.23893 -0.79444,-0.72155 -0.8,-1.25138v-13.90417c0.00788,-0.48534 0.26543,-0.93445 0.68571,-1.19576c0.42857,-0.22247 0.94286,-0.22247 1.37143,0l17.14286,8.3425c0.46827,0.22949 0.77377,0.68612 0.8,1.19576v13.90417c-0.00788,0.48534 -0.26543,0.93445 -0.68571,1.19576c-0.22347,0.13254 -0.48123,0.20008 -0.74286,0.19466zM10.85714,40.40472l14.28571,6.95208v-10.78964l-14.28571,-6.95208z" vector-effect="non-scaling-stroke"/></defs></g></svg>