<svg version="1.2" xmlns="http://www.w3.org/2000/svg" xmlns:xlink="http://www.w3.org/1999/xlink" overflow="visible" preserveAspectRatio="none" viewBox="0 0 63.000013809443246 51.99999" width="63.000013809443246" height="51.99999"><g transform="translate(0, 0)"><g transform="translate(0.0000038094432507571876, -2.220446049250313e-15) rotate(0)"><path d="M31.56256,8.1761c0.25334,0 0.49058,0.06873 0.69399,0.18852c1.1509,-0.32862 1.99345,-1.38823 1.99345,-2.64462c0,-0.30022 -0.04811,-0.58919 -0.13703,-0.85965c-0.02512,-0.05618 -0.04653,-0.11436 -0.06394,-0.17425c-0.40861,-1.00641 -1.39594,-1.7161 -2.54903,-1.7161c-1.00945,0 -1.89186,0.54389 -2.37018,1.3546c-0.00443,0.33179 -0.12779,0.63495 -0.3295,0.86905c-0.03302,0.17036 -0.05032,0.34633 -0.05032,0.52635c0,1.28785 0.88526,2.36893 2.08045,2.66792c0.21163,-0.13413 0.46277,-0.21182 0.73211,-0.21182zM32.9292,49.27463h6.53254c0.75477,0 1.36664,0.61009 1.36664,1.36268c0,0.75259 -0.61187,1.36268 -1.36664,1.36268h-15.88036c-0.75477,0 -1.36664,-0.61009 -1.36664,-1.36268c0,-0.75259 0.61187,-1.36268 1.36664,-1.36268h6.61454v-38.43016c-2.35556,-0.57277 -4.11763,-2.66228 -4.19338,-5.17571h-12.83352l8.82706,19.84067c0.14782,0.35473 0.13742,0.7366 0.00008,1.06642c-0.15846,5.78675 -5.02361,10.42422 -10.99616,10.42415c-6.07513,0 -11,-4.79695 -11,-10.71429c0.00101,-0.02446 0.00268,-0.04874 0.005,-0.07282c-0.02032,-0.23855 0.02124,-0.48119 0.12483,-0.70346l8.7055,-19.84067h-1.8723c-0.75477,0 -1.36664,-0.61009 -1.36664,-1.36268c0,-0.75259 0.61187,-1.36268 1.36664,-1.36268h19.66603c0.92042,-1.75002 2.75632,-2.9434 4.87094,-2.9434c2.11462,0 3.95051,1.19338 4.87094,2.9434h19.79115c0.75477,0 1.36664,0.61009 1.36664,1.36268c0,0.75259 -0.61187,1.36268 -1.36664,1.36268h-2.00554l8.72941,19.89518c0.09355,0.21454 0.12756,0.43992 0.1093,0.65779c0.00314,0.0368 0.00475,0.07402 0.00475,0.1116c0,5.89104 -4.92487,10.66667 -11,10.66667c-6.07513,0 -11,-4.77563 -11,-10.66667c0,-0.3563 0.14412,-0.67996 0.37892,-0.91915l8.63895,-19.74542h-13.02041c-0.0744,2.46873 -1.77567,4.52848 -4.06826,5.14372zM52.06216,7.65828l-7.45375,17.34172h15.03939zM11.06296,7.65828l-7.45375,17.34172h14.96112zM2.75,27.67857c0,4.438 3.69365,8.03571 8.25,8.03571c4.55635,0 8.25,-3.59771 8.25,-8.03571zM43.75,27.72c0,4.41828 3.69365,8 8.25,8c4.55635,0 8.25,-3.58172 8.25,-8z" style="stroke-width: 0; stroke-linecap: butt; stroke-linejoin: miter; fill: rgb(255, 255, 255);" vector-effect="non-scaling-stroke"/></g><defs><path id="path-160502718823143472" d="M31.56256,8.1761c0.25334,0 0.49058,0.06873 0.69399,0.18852c1.1509,-0.32862 1.99345,-1.38823 1.99345,-2.64462c0,-0.30022 -0.04811,-0.58919 -0.13703,-0.85965c-0.02512,-0.05618 -0.04653,-0.11436 -0.06394,-0.17425c-0.40861,-1.00641 -1.39594,-1.7161 -2.54903,-1.7161c-1.00945,0 -1.89186,0.54389 -2.37018,1.3546c-0.00443,0.33179 -0.12779,0.63495 -0.3295,0.86905c-0.03302,0.17036 -0.05032,0.34633 -0.05032,0.52635c0,1.28785 0.88526,2.36893 2.08045,2.66792c0.21163,-0.13413 0.46277,-0.21182 0.73211,-0.21182zM32.9292,49.27463h6.53254c0.75477,0 1.36664,0.61009 1.36664,1.36268c0,0.75259 -0.61187,1.36268 -1.36664,1.36268h-15.88036c-0.75477,0 -1.36664,-0.61009 -1.36664,-1.36268c0,-0.75259 0.61187,-1.36268 1.36664,-1.36268h6.61454v-38.43016c-2.35556,-0.57277 -4.11763,-2.66228 -4.19338,-5.17571h-12.83352l8.82706,19.84067c0.14782,0.35473 0.13742,0.7366 0.00008,1.06642c-0.15846,5.78675 -5.02361,10.42422 -10.99616,10.42415c-6.07513,0 -11,-4.79695 -11,-10.71429c0.00101,-0.02446 0.00268,-0.04874 0.005,-0.07282c-0.02032,-0.23855 0.02124,-0.48119 0.12483,-0.70346l8.7055,-19.84067h-1.8723c-0.75477,0 -1.36664,-0.61009 -1.36664,-1.36268c0,-0.75259 0.61187,-1.36268 1.36664,-1.36268h19.66603c0.92042,-1.75002 2.75632,-2.9434 4.87094,-2.9434c2.11462,0 3.95051,1.19338 4.87094,2.9434h19.79115c0.75477,0 1.36664,0.61009 1.36664,1.36268c0,0.75259 -0.61187,1.36268 -1.36664,1.36268h-2.00554l8.72941,19.89518c0.09355,0.21454 0.12756,0.43992 0.1093,0.65779c0.00314,0.0368 0.00475,0.07402 0.00475,0.1116c0,5.89104 -4.92487,10.66667 -11,10.66667c-6.07513,0 -11,-4.77563 -11,-10.66667c0,-0.3563 0.14412,-0.67996 0.37892,-0.91915l8.63895,-19.74542h-13.02041c-0.0744,2.46873 -1.77567,4.52848 -4.06826,5.14372zM52.06216,7.65828l-7.45375,17.34172h15.03939zM11.06296,7.65828l-7.45375,17.34172h14.96112zM2.75,27.67857c0,4.438 3.69365,8.03571 8.25,8.03571c4.55635,0 8.25,-3.59771 8.25,-8.03571zM43.75,27.72c0,4.41828 3.69365,8 8.25,8c4.55635,0 8.25,-3.58172 8.25,-8z" vector-effect="non-scaling-stroke"/></defs></g></svg>