<svg version="1.2" xmlns="http://www.w3.org/2000/svg" xmlns:xlink="http://www.w3.org/1999/xlink" overflow="visible" preserveAspectRatio="none" viewBox="0 0 66 40.999990000000004" width="66" height="40.999990000000004"><g transform="translate(0, 0)"><g transform="translate(0, -0.000009999999996068709) rotate(0)"><path d="M59.125,41h-52.25c-3.79696,0 -6.875,-3.05939 -6.875,-6.83333v-27.33333c0,-3.77395 3.07804,-6.83333 6.875,-6.83333h52.25c3.79696,0 6.875,3.05939 6.875,6.83333v27.33333c0,3.77395 -3.07804,6.83333 -6.875,6.83333zM6.875,2.73333c-2.27817,0 -4.125,1.83563 -4.125,4.1v4.1h60.5v-4.1c0,-2.26437 -1.84683,-4.1 -4.125,-4.1zM2.75,34.16667c0,2.26437 1.84683,4.1 4.125,4.1h52.25c2.27817,0 4.125,-1.83563 4.125,-4.1v-20.5h-60.5zM56.375,21.86667h-8.25c-0.75939,0 -1.375,-0.61188 -1.375,-1.36667c0,-0.75479 0.61561,-1.36667 1.375,-1.36667h8.25c0.75939,0 1.375,0.61188 1.375,1.36667c0,0.75479 -0.61561,1.36667 -1.375,1.36667zM31.625,21.86667h-22c-0.75939,0 -1.375,-0.61188 -1.375,-1.36667c0,-0.75479 0.61561,-1.36667 1.375,-1.36667h22c0.75939,0 1.375,0.61188 1.375,1.36667c0,0.75479 -0.61561,1.36667 -1.375,1.36667zM17.875,27.33333h-8.25c-0.75939,0 -1.375,-0.61188 -1.375,-1.36667c0,-0.75479 0.61561,-1.36667 1.375,-1.36667h8.25c0.75939,0 1.375,0.61188 1.375,1.36667c0,0.75479 -0.61561,1.36667 -1.375,1.36667z" style="stroke-width: 0; stroke-linecap: butt; stroke-linejoin: miter; fill: rgb(255, 255, 255);" vector-effect="non-scaling-stroke"/></g><defs><path id="path-160502718823143470" d="M59.125,41h-52.25c-3.79696,0 -6.875,-3.05939 -6.875,-6.83333v-27.33333c0,-3.77395 3.07804,-6.83333 6.875,-6.83333h52.25c3.79696,0 6.875,3.05939 6.875,6.83333v27.33333c0,3.77395 -3.07804,6.83333 -6.875,6.83333zM6.875,2.73333c-2.27817,0 -4.125,1.83563 -4.125,4.1v4.1h60.5v-4.1c0,-2.26437 -1.84683,-4.1 -4.125,-4.1zM2.75,34.16667c0,2.26437 1.84683,4.1 4.125,4.1h52.25c2.27817,0 4.125,-1.83563 4.125,-4.1v-20.5h-60.5zM56.375,21.86667h-8.25c-0.75939,0 -1.375,-0.61188 -1.375,-1.36667c0,-0.75479 0.61561,-1.36667 1.375,-1.36667h8.25c0.75939,0 1.375,0.61188 1.375,1.36667c0,0.75479 -0.61561,1.36667 -1.375,1.36667zM31.625,21.86667h-22c-0.75939,0 -1.375,-0.61188 -1.375,-1.36667c0,-0.75479 0.61561,-1.36667 1.375,-1.36667h22c0.75939,0 1.375,0.61188 1.375,1.36667c0,0.75479 -0.61561,1.36667 -1.375,1.36667zM17.875,27.33333h-8.25c-0.75939,0 -1.375,-0.61188 -1.375,-1.36667c0,-0.75479 0.61561,-1.36667 1.375,-1.36667h8.25c0.75939,0 1.375,0.61188 1.375,1.36667c0,0.75479 -0.61561,1.36667 -1.375,1.36667z" vector-effect="non-scaling-stroke"/></defs></g></svg>