<svg version="1.2" xmlns="http://www.w3.org/2000/svg" xmlns:xlink="http://www.w3.org/1999/xlink" overflow="visible" preserveAspectRatio="none" viewBox="0 0 66 66" width="66" height="66"><g transform="translate(0, 0)"><g transform="translate(0, -5.329070518200751e-15) rotate(0)"><path d="M64.625,66h-63.25c-0.75939,0 -1.375,-0.61561 -1.375,-1.375c0.12321,-4.08286 1.10717,-8.09368 2.8875,-11.77c2.035,-4.0425 8.91,-6.5725 18.4525,-10.0925l3.41,-1.2375v-6.6275c-2.39532,-2.03605 -3.8718,-4.94938 -4.0975,-8.085c-0.75187,-0.7414 -1.24385,-1.70606 -1.4025,-2.75c-0.54148,-1.92033 -0.08742,-3.98423 1.21,-5.5l-0.165,-0.4675c-0.9075,-3.08 -2.75,-8.8 -0.275,-12.0175c0.92063,-1.18409 2.29928,-1.92336 3.795,-2.035c1.6775,-3.135 7.1775,-4.0425 11.715,-4.0425c5.225,0.1375 11.66,1.8975 12.5675,6.4625c0.26354,3.95093 -0.50404,7.90254 -2.2275,11.4675l-0.275,0.6325c1.25183,1.53865 1.68215,3.58776 1.155,5.5c-0.15865,1.04394 -0.65063,2.0086 -1.4025,2.75c-0.2257,3.13562 -1.70218,6.04895 -4.0975,8.085v6.6275l3.41,1.2375c9.5425,3.52 16.5,6.05 18.4525,10.0925c1.78033,3.67632 2.76429,7.68714 2.8875,11.77c0,0.75939 -0.61561,1.375 -1.375,1.375zM2.75,63.25h60.5c-0.27716,-3.18136 -1.13464,-6.28507 -2.53,-9.1575c-1.5125,-3.08 -8.6625,-5.6925 -16.94,-8.745l-4.3175,-1.595c-0.5336,-0.20588 -0.88403,-0.72058 -0.88,-1.2925v-8.25c-0.00102,-0.45372 0.22637,-0.87749 0.605,-1.1275c2.19445,-1.70771 3.46583,-4.34201 3.4375,-7.1225c0.05021,-0.57749 0.45719,-1.06146 1.0175,-1.21c0.4817,-0.89069 0.66485,-1.91245 0.5225,-2.915c-0.01706,-0.56389 -0.30339,-1.08543 -0.77,-1.4025c-0.47216,-0.23135 -0.77105,-0.71171 -0.77,-1.2375c0.09925,-0.75905 0.332,-1.49455 0.6875,-2.1725c1.49397,-3.08985 2.21139,-6.49758 2.09,-9.9275c-0.4675,-2.475 -4.565,-4.2075 -9.9275,-4.345c-5.3625,-0.1375 -9.02,1.43 -9.405,2.9425c-0.14319,0.60918 -0.69444,1.0341 -1.32,1.0175c-0.94969,-0.12859 -1.89782,0.24649 -2.5025,0.99c-1.5675,2.09 0,7.3425 0.6875,9.57c0.22789,0.58238 0.3759,1.19292 0.44,1.815c0.00105,0.52579 -0.29784,1.00615 -0.77,1.2375c-0.46661,0.31707 -0.75294,0.83861 -0.77,1.4025c-0.16698,1.03838 0.01687,2.1028 0.5225,3.025c0.59757,0.16089 1.01403,0.70116 1.0175,1.32c0.04262,2.72904 1.34136,5.28593 3.52,6.93c0.37863,0.25001 0.60602,0.67378 0.605,1.1275v8.25c0.00403,0.57192 -0.3464,1.08662 -0.88,1.2925l-4.3175,1.595c-8.2775,3.135 -15.4275,5.7475 -16.8025,8.8275c-1.47162,2.85757 -2.40387,5.96194 -2.75,9.1575z" style="stroke-width: 0; stroke-linecap: butt; stroke-linejoin: miter; fill: rgb(255, 255, 255);" vector-effect="non-scaling-stroke"/></g><defs><path id="path-160502692692822530" d="M64.625,66h-63.25c-0.75939,0 -1.375,-0.61561 -1.375,-1.375c0.12321,-4.08286 1.10717,-8.09368 2.8875,-11.77c2.035,-4.0425 8.91,-6.5725 18.4525,-10.0925l3.41,-1.2375v-6.6275c-2.39532,-2.03605 -3.8718,-4.94938 -4.0975,-8.085c-0.75187,-0.7414 -1.24385,-1.70606 -1.4025,-2.75c-0.54148,-1.92033 -0.08742,-3.98423 1.21,-5.5l-0.165,-0.4675c-0.9075,-3.08 -2.75,-8.8 -0.275,-12.0175c0.92063,-1.18409 2.29928,-1.92336 3.795,-2.035c1.6775,-3.135 7.1775,-4.0425 11.715,-4.0425c5.225,0.1375 11.66,1.8975 12.5675,6.4625c0.26354,3.95093 -0.50404,7.90254 -2.2275,11.4675l-0.275,0.6325c1.25183,1.53865 1.68215,3.58776 1.155,5.5c-0.15865,1.04394 -0.65063,2.0086 -1.4025,2.75c-0.2257,3.13562 -1.70218,6.04895 -4.0975,8.085v6.6275l3.41,1.2375c9.5425,3.52 16.5,6.05 18.4525,10.0925c1.78033,3.67632 2.76429,7.68714 2.8875,11.77c0,0.75939 -0.61561,1.375 -1.375,1.375zM2.75,63.25h60.5c-0.27716,-3.18136 -1.13464,-6.28507 -2.53,-9.1575c-1.5125,-3.08 -8.6625,-5.6925 -16.94,-8.745l-4.3175,-1.595c-0.5336,-0.20588 -0.88403,-0.72058 -0.88,-1.2925v-8.25c-0.00102,-0.45372 0.22637,-0.87749 0.605,-1.1275c2.19445,-1.70771 3.46583,-4.34201 3.4375,-7.1225c0.05021,-0.57749 0.45719,-1.06146 1.0175,-1.21c0.4817,-0.89069 0.66485,-1.91245 0.5225,-2.915c-0.01706,-0.56389 -0.30339,-1.08543 -0.77,-1.4025c-0.47216,-0.23135 -0.77105,-0.71171 -0.77,-1.2375c0.09925,-0.75905 0.332,-1.49455 0.6875,-2.1725c1.49397,-3.08985 2.21139,-6.49758 2.09,-9.9275c-0.4675,-2.475 -4.565,-4.2075 -9.9275,-4.345c-5.3625,-0.1375 -9.02,1.43 -9.405,2.9425c-0.14319,0.60918 -0.69444,1.0341 -1.32,1.0175c-0.94969,-0.12859 -1.89782,0.24649 -2.5025,0.99c-1.5675,2.09 0,7.3425 0.6875,9.57c0.22789,0.58238 0.3759,1.19292 0.44,1.815c0.00105,0.52579 -0.29784,1.00615 -0.77,1.2375c-0.46661,0.31707 -0.75294,0.83861 -0.77,1.4025c-0.16698,1.03838 0.01687,2.1028 0.5225,3.025c0.59757,0.16089 1.01403,0.70116 1.0175,1.32c0.04262,2.72904 1.34136,5.28593 3.52,6.93c0.37863,0.25001 0.60602,0.67378 0.605,1.1275v8.25c0.00403,0.57192 -0.3464,1.08662 -0.88,1.2925l-4.3175,1.595c-8.2775,3.135 -15.4275,5.7475 -16.8025,8.8275c-1.47162,2.85757 -2.40387,5.96194 -2.75,9.1575z" vector-effect="non-scaling-stroke"/></defs></g></svg>