<?xml version="1.0" encoding="UTF-8"?>
<svg width="44px" height="46px" viewBox="0 0 44 46" version="1.1" xmlns="http://www.w3.org/2000/svg" xmlns:xlink="http://www.w3.org/1999/xlink">
    <title>account-screening</title>
    <defs>
        <linearGradient x1="50%" y1="0%" x2="50%" y2="100%" id="linearGradient-1">
            <stop stop-color="#005E91" offset="0%"></stop>
            <stop stop-color="#003058" offset="100%"></stop>
        </linearGradient>
        <linearGradient x1="50%" y1="0%" x2="50%" y2="100%" id="linearGradient-2">
            <stop stop-color="#005E91" offset="0%"></stop>
            <stop stop-color="#003058" offset="100%"></stop>
        </linearGradient>
    </defs>
    <g id="⏹️-Product-Wireframe" stroke="none" stroke-width="1" fill="none" fill-rule="evenodd">
        <g id="sections-/-Fraud-Copy" transform="translate(-573.000000, -364.000000)" fill-rule="nonzero">
            <g id="account-screening" transform="translate(573.000000, 364.000000)">
                <path d="M16.589143,20.6427064 C22.2894094,20.6427064 26.9104962,16.0219249 26.9104962,10.3213532 C26.9104962,4.62108679 22.2894094,0 16.589143,0 C10.8888766,0 6.26778976,4.62108679 6.26778976,10.3213532 C6.27328484,16.019788 10.8910136,20.6372114 16.589143,20.6427064 Z M16.589143,1.95290296 C21.2111456,1.95290296 24.9575933,5.69996117 24.9575933,10.3213532 C24.9575933,14.9433559 21.2111456,18.6898035 16.589143,18.6898035 C11.9674456,18.6898035 8.22099798,14.9433559 8.22099798,10.3213532 C8.22618779,5.70179283 11.9695826,1.95839811 16.589143,1.95290296 Z" id="Shape" fill="url(#linearGradient-1)"></path>
                <path d="M43.4132438,26.4137988 L34.995948,21.9319216 C34.7059281,21.7737844 34.3548513,21.7774478 34.0681894,21.9413854 L26.3637323,26.1598024 C23.5416851,24.060363 20.1627998,22.9668351 16.5699101,22.9668351 C12.0974967,22.9766041 7.94746335,24.7148923 4.87141983,27.8785524 C1.75629994,31.0715198 0.0473190693,35.4364731 0.0573491403,40.1723468 C0.0589198295,40.7111734 0.495170998,41.1474245 1.03369223,41.1489509 L28.1994061,41.1001054 C29.4764098,42.6857516 31.1182282,43.9386379 32.9841252,44.7522202 L34.1170349,45.2501388 C34.2400644,45.3050899 34.3734736,45.3316496 34.5077986,45.3282915 C34.6415131,45.3258493 34.7740065,45.2995948 34.8982571,45.2501388 L36.1773979,44.6936057 C40.877248,42.7217751 43.9340586,38.1214476 43.9307032,33.0244227 L43.9307032,27.2826377 C43.9307032,26.91996 43.7322658,26.5862844 43.4132438,26.4137988 L43.4132438,26.4137988 Z M2.03960367,39.1862789 C2.24444938,35.3485513 3.73851025,31.8432782 6.27755886,29.235846 C8.98207153,26.4528752 12.6439554,24.919738 16.5793739,24.919738 L16.6086812,24.919738 C19.8410302,24.919738 22.8682282,25.9354185 25.3776643,27.8590142 L25.3776643,33.1416519 C25.3791907,35.2389543 25.9024478,37.3026754 26.9007271,39.1468972 L2.03960367,39.1862789 Z M41.9777985,33.0244227 C41.9796293,37.3399201 39.3877664,41.2335146 35.4059447,42.8970082 L35.3961756,42.8970082 L34.5077986,43.2776976 L33.7653475,42.9553175 C29.8601521,41.2490841 27.3348413,37.3939554 27.3305673,33.132188 L27.3305673,27.8492451 L34.5465697,23.8945937 L41.9777985,27.8590142 L41.9777985,33.0244227 Z" id="Shape" fill="url(#linearGradient-2)"></path>
                <path d="M31.8710591,32.506966 C31.5205928,32.0972747 30.904224,32.0493451 30.4942274,32.3998112 C30.0845359,32.7502776 30.0366063,33.3666463 30.3870726,33.7763377 L32.6034358,36.3639265 C32.7896592,36.580373 33.0604463,36.704929 33.3455817,36.7058773 C33.569355,36.7076765 33.7867173,36.631966 33.9607294,36.4909248 L39.1166741,32.3021203 C39.5346081,31.9595915 39.5956649,31.3432227 39.2531361,30.9249834 C38.9109125,30.5070493 38.2945438,30.4459924 37.8766097,30.7885213 L33.4628108,34.3820216 L31.8710591,32.506966 Z" id="Path" fill="#B03478"></path>
            </g>
        </g>
    </g>
</svg>