<?xml version="1.0" encoding="UTF-8"?>
<svg width="1920px" height="478px" viewBox="0 0 1920 478" version="1.1" xmlns="http://www.w3.org/2000/svg" xmlns:xlink="http://www.w3.org/1999/xlink">
    <!-- Generator: Sketch 61 (89581) - https://sketch.com -->
    <title>Adobe_Innovate</title>
    <desc>Created with Sketch.</desc>
    <g id="Page-1" stroke="none" stroke-width="1" fill="none" fill-rule="evenodd">
        <g id="Adobe" transform="translate(0.000000, -301.000000)" fill-rule="nonzero">
            <g id="Adobe_Innovate" transform="translate(0.000000, 301.000000)">
                <rect id="Rectangle" fill="#F68D2E" x="0" y="0" width="1920" height="477.798857"></rect>
                <polygon id="Path" fill="#FFFFFF" points="252.891429 101.835429 326.482286 101.835429 326.482286 278.029714"></polygon>
                <polygon id="Path" fill="#FFFFFF" points="201.044571 101.835429 127.398857 101.835429 127.398857 278.029714"></polygon>
                <polygon id="Path" fill="#FFFFFF" points="226.971429 166.765714 273.860571 278.022857 243.133714 278.022857 229.104 242.585143 194.790857 242.585143"></polygon>
                <path d="M141.318857,359.184 L138.075429,374.502857 C137.979429,375.092571 137.780571,375.188571 137.293714,375.188571 L127.968,375.188571 C127.378286,375.188571 127.179429,374.989714 127.282286,374.208 L140.146286,318.726857 C140.537143,317.060571 140.537143,316.176 140.537143,313.330286 C140.513899,313.167862 140.568505,313.003976 140.684526,312.887955 C140.800547,312.771934 140.964433,312.717327 141.126857,312.740571 L154.484571,312.740571 C154.971429,312.740571 155.170286,312.932571 155.266286,313.426286 L170.283429,374.4 C170.386286,374.989714 170.187429,375.188571 169.693714,375.188571 L159.291429,375.188571 C159.092522,375.218762 158.890392,375.160079 158.738576,375.028066 C158.586761,374.896053 158.500579,374.704029 158.502857,374.502857 L155.074286,359.184 L141.318857,359.184 Z M152.976,348.678857 C151.604571,341.506286 149.046857,330.706286 148.066286,323.739429 L147.970286,323.739429 C146.989714,330.507429 145.117714,340.032 143.451429,348.678857 L152.976,348.678857 Z" id="Shape" fill="#FFFFFF"></path>
                <path d="M171.922286,351.325714 C171.922286,337.165714 180.267429,326.208 193.556571,326.208 L195.106286,326.208 L195.106286,309.524571 C195.106286,309.236571 195.298286,309.037714 195.689143,309.037714 L206.064,309.037714 C206.454857,309.037714 206.550857,309.236571 206.550857,309.524571 L206.550857,365.389714 C206.485686,367.560714 206.581951,369.733555 206.838857,371.890286 C206.900771,372.182788 206.736602,372.475947 206.454857,372.576 C202.087259,374.76572 197.276438,375.926791 192.390857,375.970286 C180.171429,375.963429 171.922286,368.009143 171.922286,351.325714 Z M195.106286,336.589714 C194.424192,336.342077 193.697413,336.241589 192.973714,336.294857 C187.542857,336.294857 183.469714,341.238857 183.469714,350.941714 C183.469714,361.227429 187.542857,365.492631 192.877714,365.492631 C193.630481,365.495416 194.38016,365.396228 195.106286,365.197714 L195.106286,336.589714 Z" id="Shape" fill="#FFFFFF"></path>
                <path d="M248.064,350.941714 C248.064,366.267429 241.659429,375.963429 230.406857,375.963429 C217.803429,375.963429 212.756571,364.909714 212.756571,350.845714 C212.756571,336.486857 219.161143,326.208 230.585143,326.208 C241.563429,326.208 248.064,335.314286 248.064,350.941714 Z M224.105143,350.941714 C224.105143,359.958857 226.045714,365.876571 230.406857,365.876571 C234.576,365.876571 236.612571,360.836571 236.612571,351.037714 C236.612571,341.924571 235.062857,336.294857 230.502857,336.294857 C226.525714,336.294857 224.105143,340.854857 224.105143,350.941714 Z" id="Shape" fill="#FFFFFF"></path>
                <path d="M265.131429,309.037714 C265.515429,309.037714 265.611429,309.236571 265.611429,309.620571 L265.611429,326.763429 C267.330367,326.373511 269.08768,326.177999 270.850286,326.180571 C280.937143,326.180571 288.603429,333.942857 288.603429,348.973714 C288.603429,366.528 278.612571,375.936063 266.098286,375.936063 C262.279759,375.943047 258.483423,375.355436 254.845714,374.194286 C254.510403,374.078078 254.281377,373.767257 254.269714,373.412571 L254.269714,309.620571 C254.246896,309.461318 254.299916,309.300562 254.413001,309.186132 C254.526085,309.071701 254.686202,309.016782 254.845714,309.037714 L265.131429,309.037714 Z M269.108571,336.465995 C267.925415,336.458116 266.747364,336.622119 265.611429,336.953143 L265.611429,365.568 C266.286133,365.719568 266.977472,365.784093 267.668571,365.76 C272.036571,365.76 277.179429,361.296 277.268571,349.302857 C277.350857,339.881143 273.6,336.486857 269.108571,336.486857 L269.108571,336.465995 Z" id="Shape" fill="#FFFFFF"></path>
                <path d="M304.313143,353.753143 C304.313143,361.220571 307.124571,365.780571 314.982857,365.780571 C317.504733,365.794989 320.006335,365.329574 322.354286,364.409143 C322.834286,364.217143 323.129143,364.217143 323.129143,364.896 L323.129143,372.96 C323.129143,373.645714 322.930286,374.022857 322.443429,374.221714 C319.700571,375.675429 316.038857,375.963429 312.843429,375.963429 C298.587429,375.963429 293.060571,365.492571 293.060571,351.812571 C293.060571,337.261714 299.465143,326.208 310.806857,326.208 C322.738286,326.208 326.228738,336.781714 326.228738,345.408 C326.234643,347.838972 326.074268,350.267508 325.748571,352.676571 C325.652571,353.163429 325.357714,353.362286 324.870857,353.458286 C323.904,353.554286 320.893714,353.746286 315.661714,353.746286 L304.313143,353.753143 Z M312.541714,344.633143 C313.51177,344.688826 314.484873,344.656696 315.449143,344.537143 C315.524533,344.188123 315.556774,343.831166 315.545143,343.474286 C315.545143,339.785143 314.386286,335.931429 310.409143,335.931429 C306.432,335.931429 304.978286,339.908571 304.491429,344.660571 L312.541714,344.633143 Z" id="Shape" fill="#FFFFFF"></path>
                <path d="M518.043429,164.989714 C518.043429,165.476571 517.878857,165.723429 517.309714,165.723429 L507.428571,165.723429 C506.941714,165.723429 506.777143,165.476571 506.777143,164.989714 L506.777143,113.478857 C506.777143,112.834286 507.024,112.752 507.428571,112.752 L517.289143,112.752 C517.776,112.752 518.022857,112.909714 518.022857,113.478857 L518.043429,164.989714 Z" id="Path" fill="#FFFFFF"></path>
                <path d="M534.576,165.723429 C534.089143,165.723429 533.849143,165.641143 533.849143,164.989714 L533.849143,113.396571 C533.849143,112.998857 534.006857,112.752 534.411429,112.752 L547.515429,112.752 C548.16,112.752 548.242286,112.909714 548.564571,113.396571 C553.981714,123.346286 564.905143,144.534857 567.490286,150.514286 L567.572571,150.514286 C567.490286,148.176 567.325714,145.748571 567.325714,137.821714 L567.325714,113.478857 C567.298034,113.278869 567.365657,113.077465 567.508418,112.934704 C567.651179,112.791943 567.852583,112.72432 568.052571,112.752 L577.110857,112.752 C577.68,112.752 577.844571,112.998857 577.844571,113.561143 L577.844571,164.914286 C577.844571,165.558857 577.68,165.723429 576.953143,165.723429 L565.296,165.723429 C564.610286,165.723429 564.404571,165.558857 564.164571,165.078857 C559.638857,156.164571 547.426286,133.536 544.032,124.8 L543.949714,124.8 C544.272,129.490286 544.354286,132.726857 544.354286,140.324571 L544.354286,165.010286 C544.354286,165.497143 544.189714,165.744 543.668571,165.744 L534.576,165.723429 Z" id="Path" fill="#FFFFFF"></path>
                <path d="M594.514286,165.723429 C594.034286,165.723429 593.794286,165.641143 593.794286,164.989714 L593.794286,113.396571 C593.794286,112.998857 593.952,112.752 594.356571,112.752 L607.453714,112.752 C608.105143,112.752 608.187429,112.909714 608.509714,113.396571 C613.926857,123.346286 624.843429,144.534857 627.435429,150.514286 L627.510857,150.514286 C627.435429,148.176 627.270857,145.748571 627.270857,137.821714 L627.270857,113.478857 C627.243177,113.278869 627.3108,113.077465 627.453561,112.934704 C627.596322,112.791943 627.797726,112.72432 627.997714,112.752 L637.028571,112.752 C637.597714,112.752 637.755429,112.998857 637.755429,113.561143 L637.755429,164.914286 C637.755429,165.558857 637.597714,165.723429 636.864,165.723429 L625.206857,165.723429 C624.48,165.723429 624.315429,165.558857 624.075429,165.078857 C619.542857,156.164571 607.337143,133.536 603.942857,124.8 L603.860571,124.8 C604.182857,129.490286 604.265143,132.726857 604.265143,140.324571 L604.265143,165.010286 C604.265143,165.497143 604.100571,165.744 603.579429,165.744 L594.514286,165.723429 Z" id="Path" fill="#FFFFFF"></path>
                <path d="M701.486201,138.953143 C701.568,155.451429 691.2,166.532571 676.114286,166.532571 C660.260571,166.532571 650.88,154.875429 650.88,139.2 C650.88,124.073143 660.987429,111.942857 676.251429,111.942857 C692.358857,111.942857 701.417143,124.155429 701.486201,138.953143 Z M676.498286,156.582857 C684.912,156.582857 689.924571,149.725714 689.924571,139.275429 C689.842286,128.523429 684.829714,121.892571 676.100571,121.892571 C668.009143,121.892571 662.427429,128.201143 662.427429,139.275429 C662.434286,149.060571 667.453714,156.582857 676.505143,156.582857 L676.498286,156.582857 Z" id="Shape" fill="#FFFFFF"></path>
                <path d="M732.377143,154.477714 C734.16,147.929143 738.116571,133.776 744.72,113.396571 C744.877714,112.909714 745.042286,112.752 745.446857,112.752 L755.657143,112.752 C756.144,112.752 756.384,112.998857 756.219429,113.561143 L738.027429,165.154286 C737.999147,165.33883 737.89684,165.503863 737.744134,165.611275 C737.591428,165.718687 737.401527,165.759189 737.218286,165.723429 L726.377143,165.723429 C725.984338,165.768725 725.614146,165.530539 725.492571,165.154286 L706.889143,113.561143 C706.649143,113.074286 706.813714,112.752 707.376,112.752 L718.134857,112.752 C718.614857,112.752 718.779429,112.909714 718.861714,113.321143 C725.718857,132.884571 730.669714,148.176 732.205714,154.464 L732.377143,154.477714 Z" id="Path" fill="#FFFFFF"></path>
                <path d="M772.416,153.106286 L768.534857,165.078857 C768.424274,165.472238 768.058629,165.738676 767.650286,165.723429 L758.262857,165.723429 C757.700571,165.723429 757.536,165.401143 757.618286,164.914286 L773.794286,118.251429 C774.116571,117.36 774.438857,116.393143 774.603429,113.321143 C774.587307,113.031727 774.801866,112.780905 775.090286,112.752 L788.029714,112.752 C788.427429,112.752 788.592,112.834286 788.674286,113.238857 L807.030857,164.989714 C807.188571,165.401143 807.113143,165.723429 806.626286,165.723429 L796.114286,165.723429 C795.718422,165.775076 795.342595,165.535125 795.222857,165.154286 L791.108571,153.106286 L772.416,153.106286 Z M788.105143,142.998857 C786.486857,137.664 783.257143,127.872 781.721143,122.132571 L781.638857,122.132571 C780.342857,127.549714 777.435429,136.450286 775.330286,142.998857 L788.105143,142.998857 Z" id="Shape" fill="#FFFFFF"></path>
                <path d="M823.638857,122.859429 L807.709714,122.859429 C807.229714,122.859429 807.147429,122.619429 807.229714,122.132571 L808.354286,113.478857 C808.443429,112.909714 808.601143,112.752 809.163429,112.752 L849.620571,112.752 C849.837256,112.718741 850.057888,112.778825 850.227788,112.917359 C850.397689,113.055894 850.500957,113.259914 850.512,113.478857 L851.321143,122.050286 C851.403429,122.619429 851.156571,122.859429 850.676571,122.859429 L834.905143,122.859429 L834.905143,164.914286 C834.944128,165.123768 834.883514,165.33947 834.74112,165.497985 C834.598726,165.656499 834.390734,165.73981 834.178286,165.723429 L824.475429,165.723429 C823.906286,165.805714 823.659429,165.476571 823.659429,164.989714 L823.638857,122.859429 Z" id="Path" fill="#FFFFFF"></path>
                <path d="M895.858286,164.989714 C895.782857,165.641143 895.618286,165.723429 895.049143,165.723429 L862.134857,165.723429 C861.641143,165.723429 861.449143,165.476571 861.449143,164.989714 L861.449143,113.478857 C861.449143,112.998857 861.606857,112.752 862.134857,112.752 L894.075429,112.752 C894.72,112.752 894.884571,112.834286 894.96,113.396571 L895.851429,122.132571 C895.933714,122.537143 895.851429,122.859429 895.289143,122.859429 L872.722286,122.859429 L872.722286,133.714286 L893.348571,133.714286 C893.746286,133.714286 893.993143,133.872 893.993143,134.358857 L893.993143,143.273143 C893.993143,143.76 893.670857,143.842286 893.348571,143.842286 L872.722286,143.842286 L872.722286,155.650286 L896.578286,155.650286 C897.264,155.650286 897.312,155.890286 897.264,156.370286 L895.858286,164.989714 Z" id="Path" fill="#FFFFFF"></path>
                <path d="M934.182857,112.752 L949.062857,112.752 C949.625143,112.752 949.789714,112.909714 949.947429,113.321143 C952.217143,121.481143 957.956571,142.916571 959.492571,150.761143 L959.574857,150.761143 C961.193143,143.808 967.906286,121.728 970.326857,113.396571 C970.409143,112.998857 970.573714,112.752 971.012571,112.752 L985.570286,112.752 C986.057143,112.752 986.214857,112.834286 986.214857,113.321143 L988.272,164.989714 C988.317844,165.178646 988.268751,165.378066 988.140438,165.524123 C988.012126,165.670181 987.820692,165.744554 987.627429,165.723429 L977.142857,165.723429 C976.738286,165.723429 976.457143,165.641143 976.457143,165.154286 C976.217143,148.498286 976.299429,126.013714 976.457143,120.836571 L976.381714,120.836571 C974.598857,128.845714 967.467429,154.08 964.333714,165.078857 C964.169143,165.558857 963.929143,165.723429 963.524571,165.723429 L954.219429,165.723429 C953.657143,165.723429 953.533714,165.641143 953.334857,165.078857 C950.338286,153.346286 944.845714,131.348571 942.493714,120.678857 L942.418286,120.678857 C942.336,129.408 942.013714,148.176 941.28,165.078857 C941.28,165.641143 941.122286,165.723429 940.635429,165.723429 L931.268571,165.723429 C930.781714,165.723429 930.541714,165.641143 930.624,165.078857 L933.456,113.238857 C933.531429,112.752 933.778286,112.752 934.182857,112.752 Z" id="Path" fill="#FFFFFF"></path>
                <path d="M1012.73143,153.106286 L1008.85714,165.078857 C1008.7438,165.473299 1008.37581,165.739389 1007.96571,165.723429 L998.585143,165.723429 C998.016,165.723429 997.851429,165.401143 997.940571,164.914286 L1014.10971,118.251429 C1014.432,117.36 1014.75429,116.393143 1014.912,113.321143 C1014.89966,113.030541 1015.11628,112.780825 1015.40571,112.752 L1028.34514,112.752 C1028.74971,112.752 1028.90743,112.834286 1028.98971,113.238857 L1047.34629,164.989714 C1047.504,165.401143 1047.42857,165.723429 1046.94857,165.723429 L1036.42971,165.723429 C1036.03385,165.775076 1035.65802,165.535125 1035.53829,165.154286 L1031.424,153.106286 L1012.73143,153.106286 Z M1028.42743,142.998857 C1026.80229,137.664 1023.57257,127.872 1022.03657,122.132571 L1021.95429,122.132571 C1020.65829,127.549714 1017.75086,136.450286 1015.64571,142.998857 L1028.42743,142.998857 Z" id="Shape" fill="#FFFFFF"></path>
                <path d="M1079.06057,145.104 C1078.50514,145.104 1078.33371,144.857143 1078.33371,144.370286 L1078.33371,136.038857 C1078.33371,135.634286 1078.58057,135.558857 1079.01943,135.558857 L1097.616,135.558857 C1098.26057,135.558857 1098.34971,135.716571 1098.34971,136.203429 L1098.34971,162.946286 C1098.42514,163.426286 1098.26057,163.590857 1097.78057,163.755429 C1092.53228,165.594584 1087.00801,166.522253 1081.44686,166.498738 C1062.24686,166.498738 1052.98286,154.368 1052.98286,139.563429 C1052.98286,122.825143 1064.94857,111.908571 1083.15429,111.908571 C1088.48229,111.908571 1093.33714,112.470857 1096.25143,113.849143 C1096.656,113.931429 1096.82057,114.253714 1096.82057,114.898286 L1096.82057,123.716571 C1096.82057,124.278857 1096.49143,124.443429 1096.08686,124.196571 C1092.528,122.420571 1088.32457,121.940571 1083.47657,121.858286 C1070.85257,121.693714 1064.55086,128.324571 1064.55086,139.241143 C1064.55086,149.108571 1070.53029,156.713143 1082.016,156.713143 C1083.73331,156.782716 1085.45123,156.590809 1087.11086,156.144 L1087.11086,145.501714 L1079.06057,145.104 Z" id="Path" fill="#FFFFFF"></path>
                <path d="M1147.62514,164.989714 C1147.54286,165.641143 1147.37829,165.723429 1146.82286,165.723429 L1113.90857,165.723429 C1113.42171,165.723429 1113.22286,165.476571 1113.22286,164.989714 L1113.22286,113.478857 C1113.22286,112.998857 1113.38743,112.752 1113.90857,112.752 L1145.82857,112.752 C1146.47314,112.752 1146.63771,112.834286 1146.72,113.396571 L1147.61143,122.132571 C1147.68686,122.537143 1147.61143,122.859429 1147.04229,122.859429 L1124.48229,122.859429 L1124.48229,133.714286 L1145.14286,133.714286 C1145.54743,133.714286 1145.82857,133.872 1145.82857,134.358857 L1145.82857,143.273143 C1145.82857,143.76 1145.50629,143.842286 1145.14286,143.842286 L1124.52343,143.842286 L1124.52343,155.650286 L1148.38629,155.650286 C1149.03086,155.650286 1149.072,155.890286 1149.03086,156.370286 L1147.62514,164.989714 Z" id="Path" fill="#FFFFFF"></path>
                <path d="M1162.47771,165.723429 C1161.99086,165.723429 1161.744,165.641143 1161.744,164.989714 L1161.744,113.396571 C1161.744,112.998857 1161.90857,112.752 1162.31314,112.752 L1175.41029,112.752 C1176.05486,112.752 1176.144,112.909714 1176.46629,113.396571 C1181.87657,123.346286 1192.8,144.534857 1195.392,150.514286 L1195.46743,150.514286 C1195.392,148.176 1195.22743,145.748571 1195.22743,137.821714 L1195.22743,113.478857 C1195.19975,113.278869 1195.26737,113.077465 1195.41013,112.934704 C1195.55289,112.791943 1195.7543,112.72432 1195.95429,112.752 L1205.00571,112.752 C1205.57486,112.752 1205.73943,112.998857 1205.73943,113.561143 L1205.73943,164.914286 C1205.73943,165.558857 1205.57486,165.723429 1204.848,165.723429 L1193.19086,165.723429 C1192.464,165.723429 1192.30629,165.558857 1192.05943,165.078857 C1187.52686,156.164571 1175.32114,133.536 1171.92686,124.8 L1171.88571,124.8 C1172.21486,129.490286 1172.29714,132.726857 1172.29714,140.324571 L1172.29714,165.010286 C1172.29714,165.497143 1172.13257,165.744 1171.61143,165.744 L1162.47771,165.723429 Z" id="Path" fill="#FFFFFF"></path>
                <path d="M1232.38629,122.859429 L1216.45714,122.859429 C1215.97714,122.859429 1215.888,122.619429 1215.97714,122.132571 L1217.10171,113.478857 C1217.19086,112.909714 1217.34857,112.752 1217.91771,112.752 L1258.37486,112.752 C1258.59085,112.718636 1258.81082,112.778873 1258.97968,112.917625 C1259.14854,113.056376 1259.25028,113.260497 1259.25943,113.478857 L1260.06857,122.050286 C1260.15086,122.619429 1259.91086,122.859429 1259.38286,122.859429 L1243.61143,122.859429 L1243.61143,164.914286 C1243.61143,165.476571 1243.28914,165.723429 1242.92571,165.723429 L1233.18857,165.723429 C1232.62629,165.805714 1232.38629,165.476571 1232.38629,164.989714 L1232.38629,122.859429 Z" id="Path" fill="#FFFFFF"></path>
                <path d="M1317.34677,138.953143 C1317.42857,155.451429 1307.06057,166.532571 1291.97486,166.532571 C1276.128,166.532571 1266.74057,154.875429 1266.74057,139.2 C1266.74057,124.073143 1276.848,111.942857 1292.112,111.942857 C1308.20571,111.942857 1317.25714,124.155429 1317.34677,138.953143 Z M1292.35886,156.582857 C1300.77257,156.582857 1305.77829,149.725714 1305.77829,139.275429 C1305.70286,128.523429 1300.69029,121.892571 1291.95429,121.892571 C1283.86286,121.892571 1278.288,128.201143 1278.288,139.275429 C1278.288,149.060571 1283.30743,156.582857 1292.35886,156.582857 Z" id="Shape" fill="#FFFFFF"></path>
                <path d="M1389.312,163.940571 C1389.312,164.509714 1389.14057,164.914286 1388.66057,165.078857 C1385.99314,166.045714 1381.95429,166.532571 1377.42171,166.532571 C1361.73257,166.532571 1349.52,157.227429 1349.52,139.522286 C1349.52,123.106286 1360.84114,111.942857 1378.71086,111.942857 C1383.81257,111.942857 1387.12457,112.347429 1389.22971,113.314286 C1389.61766,113.468361 1389.84994,113.867758 1389.792,114.281143 L1389.792,123.099429 C1389.792,123.826286 1389.38743,123.826286 1389.06514,123.661714 C1386.39771,122.365714 1382.59886,121.885714 1378.55314,121.885714 C1367.71886,121.885714 1361.08114,128.592 1361.08114,139.110857 C1361.08114,151.721143 1370.29714,156.493714 1378.79314,156.493714 C1382.75657,156.493714 1385.74629,156.171429 1388.66057,155.204571 C1389.06514,155.04 1389.312,155.122286 1389.312,155.609143 L1389.312,163.940571 Z" id="Path" fill="#FFFFFF"></path>
                <path d="M1449.06555,138.953143 C1449.14057,155.451429 1438.77943,166.532571 1423.69371,166.532571 C1407.84,166.532571 1398.45943,154.875429 1398.45943,139.2 C1398.45943,124.073143 1408.56686,111.942857 1423.83086,111.942857 C1439.92457,111.942857 1448.98286,124.155429 1449.06555,138.953143 Z M1424.07771,156.582857 C1432.48457,156.582857 1437.49714,149.725714 1437.49714,139.275429 C1437.42171,128.523429 1432.40229,121.892571 1423.67314,121.892571 C1415.58171,121.892571 1410.00686,128.201143 1410.00686,139.275429 C1410.00686,149.060571 1415.01257,156.582857 1424.07771,156.582857 L1424.07771,156.582857 Z" id="Shape" fill="#FFFFFF"></path>
                <path d="M1464.36343,112.752 L1479.24343,112.752 C1479.80571,112.752 1479.97029,112.909714 1480.128,113.321143 C1482.39771,121.481143 1488.13714,142.916571 1489.67314,150.761143 L1489.75543,150.761143 C1491.37371,143.808 1498.08686,121.728 1500.51429,113.396571 C1500.58971,112.998857 1500.75429,112.752 1501.15886,112.752 L1515.71657,112.752 C1516.20343,112.752 1516.36114,112.834286 1516.36114,113.321143 L1518.384,164.989714 C1518.43332,165.179072 1518.38551,165.380565 1518.25636,165.527571 C1518.12722,165.674577 1517.93356,165.74795 1517.73943,165.723429 L1507.30286,165.723429 C1506.89829,165.723429 1506.65829,165.641143 1506.65829,165.154286 C1506.41143,148.498286 1506.50057,126.013714 1506.65829,120.836571 L1506.576,120.836571 C1504.79314,128.845714 1497.66171,154.08 1494.52114,165.078857 C1494.36343,165.558857 1494.12343,165.723429 1493.71886,165.723429 L1484.41371,165.723429 C1483.85143,165.723429 1483.69371,165.641143 1483.52914,165.078857 C1480.53257,153.346286 1475.03314,131.348571 1472.69486,120.678857 L1472.60571,120.678857 C1472.53029,129.408 1472.208,148.176 1471.48114,165.078857 C1471.48114,165.641143 1471.31657,165.723429 1470.83657,165.723429 L1461.456,165.723429 C1460.96229,165.723429 1460.72229,165.641143 1460.80457,165.078857 L1463.63657,113.238857 C1463.712,112.752 1463.95886,112.752 1464.36343,112.752 Z" id="Path" fill="#FFFFFF"></path>
                <path d="M1536,112.752 L1550.88,112.752 C1551.44914,112.752 1551.60686,112.909714 1551.77143,113.321143 C1554.03429,121.481143 1559.77371,142.916571 1561.30971,150.761143 L1561.392,150.761143 C1563.01029,143.808 1569.72343,121.728 1572.15086,113.396571 C1572.23314,112.998857 1572.39086,112.752 1572.79543,112.752 L1587.35314,112.752 C1587.84,112.752 1588.03886,112.834286 1588.03886,113.321143 L1590.05486,164.989714 C1590.1007,165.178646 1590.05161,165.378066 1589.9233,165.524123 C1589.79498,165.670181 1589.60355,165.744554 1589.41029,165.723429 L1578.92571,165.723429 C1578.528,165.723429 1578.28114,165.641143 1578.28114,165.154286 C1578.04114,148.498286 1578.11657,126.013714 1578.28114,120.836571 L1578.19886,120.836571 C1576.42286,128.845714 1569.28457,154.08 1566.15086,165.078857 C1565.98629,165.558857 1565.74629,165.723429 1565.34171,165.723429 L1556.04343,165.723429 C1555.47429,165.723429 1555.30971,165.641143 1555.152,165.078857 C1552.16229,153.346286 1546.66286,131.348571 1544.31086,120.678857 L1544.22857,120.678857 C1544.14629,129.408 1543.824,148.176 1543.09714,165.078857 C1543.09714,165.641143 1542.93943,165.723429 1542.41143,165.723429 L1533.03086,165.723429 C1532.55086,165.723429 1532.304,165.641143 1532.38629,165.078857 L1535.21143,113.238857 C1535.31429,112.752 1535.58171,112.752 1536,112.752 Z" id="Path" fill="#FFFFFF"></path>
                <path d="M1639.392,164.989714 C1639.30971,165.641143 1639.152,165.723429 1638.58286,165.723429 L1605.66857,165.723429 C1605.18171,165.723429 1605.024,165.476571 1605.024,164.989714 L1605.024,113.478857 C1605.024,112.998857 1605.18171,112.752 1605.66857,112.752 L1637.616,112.752 C1638.26057,112.752 1638.42514,112.834286 1638.50057,113.396571 L1639.392,122.132571 C1639.47429,122.537143 1639.392,122.859429 1638.82286,122.859429 L1616.26286,122.859429 L1616.26286,133.714286 L1636.88229,133.714286 C1637.28686,133.714286 1637.568,133.872 1637.568,134.358857 L1637.568,143.273143 C1637.568,143.76 1637.24571,143.842286 1636.88229,143.842286 L1616.26286,143.842286 L1616.26286,155.650286 L1640.11886,155.650286 C1640.76343,155.650286 1640.84571,155.890286 1640.76343,156.370286 L1639.392,164.989714 Z" id="Path" fill="#FFFFFF"></path>
                <path d="M1654.16229,165.723429 C1653.66857,165.723429 1653.47657,165.558857 1653.47657,164.989714 L1653.47657,113.643429 C1653.47657,113.238857 1653.55886,112.834286 1654.04571,112.834286 C1661.328,112.669714 1664.4,112.587429 1670.94171,112.587429 C1684.368,112.587429 1691.89029,118.333714 1691.89029,128.763429 C1691.89029,135.476571 1687.68686,140.653714 1681.78286,142.998857 C1684.45029,146.64 1693.59086,160.381714 1696.10057,164.749714 C1696.34057,165.236571 1696.42286,165.723429 1695.85371,165.723429 L1684.12114,165.723429 C1683.43543,165.723429 1683.15429,165.558857 1682.99657,165.236571 C1680.65143,161.677714 1675.54971,153.024 1672.23771,147.524571 C1671.67543,146.557714 1671.264,146.153143 1670.37943,146.153143 L1664.47543,146.153143 L1664.47543,165.085714 C1664.49018,165.260774 1664.42703,165.433437 1664.3028,165.557662 C1664.17858,165.681887 1664.00592,165.745042 1663.83086,165.730286 L1654.16229,165.723429 Z M1670.736,136.608 C1676.79771,136.608 1680.68571,134.180571 1680.68571,129.408 C1680.68571,124.477714 1676.64,122.372571 1670.65371,122.372571 C1667.98629,122.372571 1665.72343,122.454857 1664.48229,122.537143 L1664.48229,136.608 L1670.736,136.608 Z" id="Shape" fill="#FFFFFF"></path>
                <path d="M1742.32457,163.940571 C1742.32457,164.509714 1742.16,164.914286 1741.68,165.078857 C1739.00571,166.045714 1734.96,166.532571 1730.44114,166.532571 C1714.74514,166.532571 1702.53257,157.227429 1702.53257,139.522286 C1702.53257,123.106286 1713.85371,111.942857 1731.73029,111.942857 C1736.82514,111.942857 1740.13714,112.347429 1742.24229,113.314286 C1742.63023,113.468361 1742.86251,113.867758 1742.80457,114.281143 L1742.80457,123.099429 C1742.80457,123.826286 1742.40686,123.826286 1742.08457,123.661714 C1739.41029,122.365714 1735.61143,121.885714 1731.56571,121.885714 C1720.73143,121.885714 1714.10057,128.592 1714.10057,139.110857 C1714.10057,151.721143 1723.31657,156.493714 1731.80571,156.493714 C1735.76914,156.493714 1738.76571,156.171429 1741.68,155.204571 C1742.08457,155.04 1742.32457,155.122286 1742.32457,155.609143 L1742.32457,163.940571 Z" id="Path" fill="#FFFFFF"></path>
                <path d="M1789.88571,164.989714 C1789.80343,165.641143 1789.63886,165.723429 1789.06971,165.723429 L1756.15543,165.723429 C1755.67543,165.723429 1755.51086,165.476571 1755.51086,164.989714 L1755.51086,113.478857 C1755.51086,112.998857 1755.67543,112.752 1756.15543,112.752 L1788.10286,112.752 C1788.74743,112.752 1788.912,112.834286 1788.99429,113.396571 L1789.88571,122.132571 C1789.96114,122.537143 1789.88571,122.859429 1789.31657,122.859429 L1766.75657,122.859429 L1766.75657,133.714286 L1787.376,133.714286 C1787.78057,133.714286 1788.02057,133.872 1788.02057,134.358857 L1788.02057,143.273143 C1788.02057,143.76 1787.69829,143.842286 1787.376,143.842286 L1766.75657,143.842286 L1766.75657,155.650286 L1790.60571,155.650286 C1791.25714,155.650286 1791.33943,155.890286 1791.25714,156.370286 L1789.88571,164.989714 Z" id="Path" fill="#FFFFFF"></path>
                <path d="M581.712,364.148571 C581.52,364.909714 581.328,365.101714 580.566857,365.101714 L511.186286,365.101714 C510.034286,365.101714 509.814857,364.724571 509.814857,363.771429 L509.814857,239.348571 C509.814857,238.395429 510.198857,237.977143 510.96,237.977143 L577.090286,237.977143 C577.666286,237.977143 578.050286,238.169143 578.235429,238.937143 L579.195429,245.437714 C579.380571,246.198857 579.195429,246.576 578.235429,246.576 L518.989714,246.576 L518.989714,295.693714 L572.310857,295.693714 C573.078857,295.693714 573.264,295.892571 573.264,296.653714 L573.264,303.154286 C573.264,304.107429 572.886857,304.299429 572.310857,304.299429 L519.024,304.299429 L519.024,356.502857 L582.288,356.502857 C583.049143,356.502857 583.241143,356.886857 583.049143,357.456 L581.712,364.148571 Z" id="Path" fill="#FFFFFF"></path>
                <path d="M593.142857,274.697143 C592.957088,274.487577 592.917425,274.186104 593.042667,273.935619 C593.167909,273.685135 593.432886,273.535982 593.712,273.558857 L602.310857,273.558857 C603.270857,273.558857 603.456,273.744 603.84,274.32 L630.027429,313.309714 L630.219429,313.309714 L657.6,274.512 C657.984,273.936 658.169143,273.558857 658.937143,273.558857 L666.966857,273.558857 C667.728,273.558857 667.92,274.121143 667.536,274.697143 C659.129143,286.169143 644.982857,306.24 635.616,318.658286 C642.473143,328.786286 661.419429,355.165714 668.112,363.956571 C668.496,364.340571 668.496,365.101714 667.536,365.101714 L658.710857,365.101714 C658.095343,365.173467 657.495541,364.874912 657.181714,364.340571 L629.465143,324.569143 L629.273143,324.569143 L601.940571,364.340571 C601.717842,364.863753 601.174186,365.174814 600.610286,365.101714 L592.580571,365.101714 C591.812571,365.101714 591.627429,364.724571 592.011429,363.956571 C601.563429,350.770286 614.557714,331.844571 623.732571,319.042286 L593.142857,274.697143 Z" id="Path" fill="#FFFFFF"></path>
                <path d="M738.102857,362.619429 C738.102857,363.380571 738.102857,363.771429 737.533714,363.956571 C731.026286,366.438857 723.771429,367.014857 717.078857,367.014857 C685.734857,367.014857 671.588571,344.077714 671.588571,319.611429 C671.588571,292.470857 690.699429,271.830857 719.184,271.830857 C728.928,271.830857 734.475429,272.982857 737.334857,274.32 C737.976069,274.53873 738.376519,275.176591 738.294857,275.849143 L738.102857,282.918857 C738.102857,283.494857 737.718857,283.494857 737.142857,283.296 C731.602286,281.005714 726.857143,280.052571 718.416,280.052571 C696.438857,280.052571 680.955429,296.105143 680.955429,319.234286 C680.955429,344.461714 697.412571,358.416 718.230857,358.416 C725.485714,358.416 731.602286,357.654857 737.142857,355.549714 C737.910857,355.357714 738.102857,355.549714 738.102857,356.125714 L738.102857,362.619429 Z" id="Path" fill="#FFFFFF"></path>
                <path d="M763.042286,364.148571 C763.042286,364.909714 762.850286,365.101714 762.082286,365.101714 L755.012571,365.101714 C754.251429,365.101714 754.052571,364.724571 754.052571,363.956571 L754.052571,228.068571 C754.052571,227.499429 754.052571,227.115429 754.820571,227.115429 L762.274286,227.115429 C762.850286,227.115429 763.042286,227.300571 763.042286,227.876571 L763.227429,284.832 C771.833143,275.849143 782.153143,271.803429 793.625143,271.803429 C806.235429,271.803429 824.009143,277.542857 824.009143,307.549714 L824.009143,363.929143 C824.009143,364.882286 823.632,365.074286 822.864,365.074286 L815.787429,365.074286 C815.033143,365.074286 814.834286,364.697143 814.834286,363.929143 L814.834286,308.530286 C814.834286,292.073143 807.572571,280.237714 791.904,280.237714 C780.646743,280.170913 769.991605,285.314947 763.042286,294.171429 L763.042286,364.148571 Z" id="Path" fill="#FFFFFF"></path>
                <path d="M906.788571,351.915429 C906.788571,354.205714 906.788571,356.310857 906.980571,358.416 C906.980571,358.793143 906.980571,358.985143 906.589714,359.184 C894.932571,365.485714 884.228571,367.014857 874.676571,367.014857 C855.181714,367.014857 841.419429,357.078857 841.419429,338.345143 C841.419429,317.897143 860.914286,310.059429 883.248,310.059429 C888.098199,309.994883 892.948415,310.187152 897.778286,310.635429 L897.778286,303.942857 C897.778286,296.489143 894.72,280.237714 874.265143,280.237714 C865.282286,280.237714 857.067429,282.342857 850.566857,285.977143 C850.182857,286.354286 849.606857,286.169143 849.606857,285.401143 L849.606857,278.544 C849.597678,278.090522 849.813304,277.661836 850.182857,277.398857 C857.04,273.970286 865.474286,271.851429 875.602286,271.851429 C897.963429,271.851429 906.761143,287.142857 906.761143,305.876571 L906.788571,351.915429 Z M897.805714,318.658286 C893.056946,317.981497 888.263996,317.662883 883.467429,317.705143 C861.490286,317.705143 850.402286,325.158857 850.402286,338.345143 C850.402286,348.288 856.902857,358.985143 876.966857,358.985143 C884.150255,359.06141 891.263191,357.563457 897.805714,354.596571 L897.805714,318.658286 Z" id="Shape" fill="#FFFFFF"></path>
                <path d="M931.734857,294.768 C931.734857,288.274286 931.165714,276.994286 930.973714,274.512 C930.973714,273.936 931.165714,273.558857 931.933714,273.558857 L938.427429,273.558857 C939.188571,273.558857 939.380571,273.744 939.579429,274.512 C940.133738,278.310349 940.452063,282.139405 940.532571,285.977143 C949.131429,276.617143 959.643429,271.830857 971.307429,271.830857 C983.917714,271.830857 1001.69143,277.570286 1001.69143,307.762286 L1001.69143,363.956571 C1001.69143,364.909714 1001.31429,365.101714 1000.54629,365.101714 L993.469714,365.101714 C992.708571,365.101714 992.516571,364.724571 992.516571,363.956571 L992.516571,308.530286 C992.516571,292.285714 985.254857,280.237714 969.579429,280.237714 C957.730286,280.237714 947.979429,285.792 940.724571,295.529143 L940.724571,363.956571 C940.724571,364.909714 940.532571,365.101714 939.764571,365.101714 L932.502857,365.101714 C931.933714,365.101714 931.734857,364.724571 931.734857,363.956571 L931.734857,294.768 Z" id="Path" fill="#FFFFFF"></path>
                <path d="M1064.03657,353.444571 C1085.44457,354.596571 1100.92114,361.474286 1100.92114,379.632 C1100.92114,398.146286 1083.53143,412.882286 1057.344,412.882286 C1031.35543,412.882286 1017.40114,398.166857 1017.40114,383.835429 C1017.40114,376.758857 1023.32571,367.782857 1036.896,356.502857 C1033.65902,352.429126 1031.90565,347.374598 1031.92457,342.171429 C1031.89661,338.083812 1032.95182,334.061718 1034.98286,330.514286 C1026.96,325.158857 1022.18057,316.176 1022.18057,304.134857 C1022.18057,286.553143 1034.60571,271.830857 1055.43771,271.830857 C1059.55517,271.766009 1063.66463,272.215193 1067.67086,273.168 C1068.78761,273.469687 1069.94343,273.601451 1071.09943,273.558857 L1098.816,273.558857 C1099.57714,273.558857 1099.76914,273.936 1099.76914,274.512 L1099.76914,281.005714 C1099.76914,281.581714 1099.57714,281.965714 1098.816,281.965714 C1092.31543,281.965714 1083.14057,281.773714 1078.16914,281.389714 C1082.75657,285.593143 1087.344,293.046857 1087.344,303.942857 C1087.344,325.350857 1072.25829,336.054857 1054.85486,336.054857 C1050.51866,336.022784 1046.20871,335.378714 1042.05257,334.141714 C1040.70615,336.794525 1040.17414,339.78621 1040.52343,342.740571 C1040.82524,346.361901 1042.30117,349.785665 1044.72686,352.491429 L1064.03657,353.444571 Z M1043.01257,360.898286 C1032.88457,367.968 1026.384,377.910857 1026.384,383.451429 C1026.384,393.963429 1038.42514,404.859429 1057.728,404.859429 C1081.23429,404.859429 1092.13714,392.249143 1092.13714,380.585143 C1092.13714,366.630857 1077.79886,363.003429 1062.50743,362.070857 L1043.01257,360.898286 Z M1031.15657,303.942857 C1031.15657,318.281143 1039.76229,328.409143 1054.86171,328.409143 C1069.2,328.409143 1078.37486,319.611429 1078.37486,304.134857 C1078.37486,291.106286 1071.30514,279.284571 1055.24571,279.284571 C1040.91429,279.284571 1031.15657,289.412571 1031.15657,303.942857 L1031.15657,303.942857 Z" id="Shape" fill="#FFFFFF"></path>
                <path d="M1113.71657,317.897143 C1112.76343,341.019429 1124.99657,358.416 1148.688,358.416 C1156.91657,358.416 1165.14514,357.044571 1172.57829,353.067429 C1173.15429,352.676571 1173.53143,352.868571 1173.53143,353.629714 L1173.53143,359.945143 C1173.53143,360.713143 1173.33943,361.090286 1172.76343,361.316571 C1167.03771,364.566857 1158.624,367.049143 1147.344,367.049143 C1116.192,367.049143 1104.53486,343.158857 1104.53486,320.029714 C1104.53486,293.081143 1120.01829,271.865143 1144.30629,271.865143 C1170.67886,271.865143 1179.66857,293.657143 1179.66857,308.208 C1179.66857,312.411429 1179.47657,314.701714 1179.09257,316.230857 C1179.02381,316.922485 1178.41394,317.431724 1177.72114,317.376 C1174.86171,317.76 1165.49486,317.952 1158.04114,317.952 L1113.71657,317.897143 Z M1156.34057,310.436571 C1167.99771,310.436571 1169.91086,310.251429 1170.48686,310.059429 C1170.64046,309.24143 1170.70256,308.408878 1170.672,307.577143 C1170.672,299.163429 1165.70743,279.860571 1144.10743,279.860571 C1125.75771,279.860571 1116.20571,294.576 1114.10057,310.436571 L1156.34057,310.436571 Z" id="Shape" fill="#FFFFFF"></path>
                <path d="M1246.73829,239.348571 C1246.73829,238.772571 1246.73829,238.196571 1247.69143,238.196571 C1252.49143,238.004571 1263.55886,237.627429 1275.216,237.627429 C1305.99086,237.627429 1322.03657,255.017143 1322.03657,276.994286 C1322.03657,305.108571 1299.67543,318.658286 1272.92571,318.658286 C1263.17486,318.658286 1259.54057,318.281143 1255.91314,318.281143 L1255.91314,364.148571 C1255.91314,364.724571 1255.71429,365.101714 1254.95314,365.101714 L1247.69143,365.101714 C1247.11543,365.101714 1246.73829,364.909714 1246.73829,364.148571 L1246.73829,239.348571 Z M1255.91314,309.682286 C1259.16343,309.867429 1262.98286,310.059429 1272.92571,310.059429 C1294.13486,310.059429 1312.86857,301.268571 1312.86857,277.378286 C1312.86857,256.546286 1296.24,245.835429 1275.216,245.835429 C1266.23314,245.835429 1259.73943,246.219429 1255.91314,246.411429 L1255.91314,309.682286 Z" id="Shape" fill="#FFFFFF"></path>
                <path d="M1396.848,351.915429 C1396.848,354.205714 1396.848,356.310857 1397.04,358.416 C1397.04,358.793143 1397.04,358.985143 1396.656,359.184 C1384.99886,365.485714 1374.29486,367.014857 1364.736,367.014857 C1345.24114,367.014857 1331.47886,357.078857 1331.47886,338.345143 C1331.47886,317.897143 1350.97371,310.059429 1373.30743,310.059429 C1378.17351,309.990906 1383.03979,310.180888 1387.88571,310.628571 L1387.88571,303.936 C1387.88571,296.482286 1384.82743,280.230857 1364.37943,280.230857 C1355.38971,280.230857 1347.17486,282.336 1340.67429,285.970286 C1340.29029,286.347429 1339.72114,286.162286 1339.72114,285.394286 L1339.72114,278.537143 C1339.71039,278.084926 1339.92333,277.656494 1340.29029,277.392 C1347.14743,273.963429 1355.58171,271.844571 1365.70971,271.844571 C1388.07086,271.844571 1396.86857,287.136 1396.86857,305.869714 L1396.848,351.915429 Z M1387.86514,318.658286 C1383.11865,317.981711 1378.328,317.663098 1373.53371,317.705143 C1351.54971,317.705143 1340.46857,325.158857 1340.46857,338.345143 C1340.46857,348.288 1346.96229,358.985143 1367.02629,358.985143 C1374.20975,359.062077 1381.32283,357.564094 1387.86514,354.596571 L1387.86514,318.658286 Z" id="Shape" fill="#FFFFFF"></path>
                <path d="M1428.29486,273.558857 C1429.248,273.558857 1429.248,273.936 1429.66629,274.512 C1430.24229,276.802286 1430.61943,285.401143 1430.81143,289.227429 C1437.66857,279.284571 1450.30629,271.830857 1461.96343,271.830857 C1462.73143,271.830857 1462.91657,271.830857 1462.91657,272.598857 L1462.91657,280.457143 C1462.91657,281.225143 1462.73143,281.410286 1461.96343,281.410286 C1449.16114,281.410286 1436.544,289.433143 1431.19543,298.998857 L1431.00343,364.141714 C1431.00343,364.902857 1430.81143,365.094857 1430.24229,365.094857 L1422.78171,365.094857 C1422.02057,365.094857 1421.82857,364.717714 1421.82857,364.141714 L1421.82857,298.018286 C1421.82857,290.180571 1421.44457,279.099429 1420.86857,274.704 C1420.67657,273.750857 1420.86857,273.565714 1421.63657,273.565714 L1428.29486,273.558857 Z" id="Path" fill="#FFFFFF"></path>
                <path d="M1518.26057,362.804571 C1518.39088,363.390545 1518.06027,363.980911 1517.49257,364.176 C1513.67314,366.281143 1508.70171,367.042286 1504.69029,367.042286 C1492.45714,367.042286 1485.00343,361.309714 1485.00343,343.728 L1485.00343,282.013714 L1470.85714,282.013714 C1469.904,281.821714 1469.70514,281.437714 1469.70514,280.676571 L1469.70514,274.697143 C1469.70514,273.936 1469.904,273.558857 1470.85714,273.558857 L1484.99657,273.558857 C1484.99657,266.098286 1485.76457,251.958857 1486.52571,248.139429 C1486.72457,247.570286 1486.90971,247.179429 1487.28686,246.994286 L1494.36343,245.622857 C1494.93943,245.437714 1495.50857,245.622857 1495.50857,246.013714 C1494.55543,253.076571 1494.17143,264.164571 1494.17143,273.531429 L1515.77143,273.531429 C1516.08584,273.485061 1516.40371,273.589689 1516.62911,273.813742 C1516.85451,274.037795 1516.96105,274.355028 1516.91657,274.669714 L1516.91657,280.786286 C1516.91657,281.554286 1516.53257,281.746286 1515.77143,281.938286 L1493.97943,281.938286 L1493.97943,343.865143 C1493.97943,352.841143 1497.80571,358.580571 1506.78857,358.580571 C1510.40177,358.62747 1513.98407,357.910075 1517.30057,356.475429 C1517.86971,356.283429 1518.25371,356.283429 1518.25371,357.051429 L1518.26057,362.804571 Z" id="Path" fill="#FFFFFF"></path>
                <path d="M1532.62629,294.768 C1532.62629,288.274286 1532.05029,276.994286 1531.86514,274.512 C1531.86514,273.936 1532.05029,273.558857 1532.81829,273.558857 L1539.31886,273.558857 C1540.08686,273.558857 1540.272,273.744 1540.464,274.512 C1541.02157,278.310094 1541.34219,282.139212 1541.424,285.977143 C1550.02286,276.617143 1560.528,271.830857 1572.18514,271.830857 C1584.80914,271.830857 1602.58286,277.570286 1602.58286,307.762286 L1602.58286,363.956571 C1602.58286,364.909714 1602.19886,365.101714 1601.43086,365.101714 L1594.36114,365.101714 C1593.59314,365.101714 1593.408,364.724571 1593.408,363.956571 L1593.408,308.530286 C1593.408,292.285714 1586.14629,280.237714 1570.47086,280.237714 C1558.62171,280.237714 1548.87086,285.792 1541.60914,295.529143 L1541.60914,363.956571 C1541.60914,364.909714 1541.424,365.101714 1540.656,365.101714 L1533.39429,365.101714 C1532.81829,365.101714 1532.62629,364.724571 1532.62629,363.956571 L1532.62629,294.768 Z" id="Path" fill="#FFFFFF"></path>
                <path d="M1631.16343,317.897143 C1630.21029,341.019429 1642.44343,358.416 1666.13486,358.416 C1674.36343,358.416 1682.592,357.044571 1690.032,353.067429 C1690.59429,352.676571 1690.98514,352.868571 1690.98514,353.629714 L1690.98514,359.945143 C1690.98514,360.713143 1690.79314,361.090286 1690.21714,361.316571 C1684.48457,364.566857 1676.07771,367.049143 1664.79771,367.049143 C1633.64571,367.049143 1621.98857,343.158857 1621.98857,320.029714 C1621.98857,293.081143 1637.472,271.865143 1661.76,271.865143 C1688.13257,271.865143 1697.12229,293.657143 1697.12229,308.208 C1697.12229,312.411429 1696.93029,314.701714 1696.54629,316.230857 C1696.47752,316.922485 1695.86766,317.431724 1695.17486,317.376 C1692.30857,317.76 1682.94857,317.952 1675.488,317.952 L1631.16343,317.897143 Z M1673.82857,310.436571 C1685.48571,310.436571 1687.392,310.251429 1687.968,310.059429 C1688.1216,309.24143 1688.1837,308.408878 1688.15314,307.577143 C1688.15314,299.163429 1683.18857,279.860571 1661.59543,279.860571 C1643.24571,279.860571 1633.68686,294.576 1631.58171,310.436571 L1673.82857,310.436571 Z" id="Shape" fill="#FFFFFF"></path>
                <path d="M1721.71886,273.558857 C1722.67886,273.558857 1722.67886,273.936 1723.056,274.512 C1723.632,276.802286 1724.016,285.401143 1724.20114,289.227429 C1731.05829,279.284571 1743.696,271.830857 1755.35314,271.830857 C1756.12114,271.830857 1756.31314,271.830857 1756.31314,272.598857 L1756.31314,280.457143 C1756.31314,281.225143 1756.12114,281.410286 1755.35314,281.410286 C1742.55086,281.410286 1729.93371,289.433143 1724.58514,298.998857 L1724.39314,364.141714 C1724.39314,364.902857 1724.20114,365.094857 1723.632,365.094857 L1716.17143,365.094857 C1715.41029,365.094857 1715.21829,364.717714 1715.21829,364.141714 L1715.21829,298.018286 C1715.21829,290.180571 1714.84114,279.099429 1714.26514,274.704 C1714.07314,273.750857 1714.26514,273.565714 1715.02629,273.565714 L1721.71886,273.558857 Z" id="Path" fill="#FFFFFF"></path>
            </g>
        </g>
    </g>
</svg>