<?xml version="1.0" encoding="UTF-8" standalone="no"?><svg width="274" height="307" viewBox="0 0 274 307" fill="none" xmlns="http://www.w3.org/2000/svg">
<path fill-rule="evenodd" clip-rule="evenodd" d="M136.05 277.923C136.05 277.083 137.47 275.543 138.31 276.723C139.15 277.903 138.77 279.583 140.45 279.583C142.13 279.583 145.09 280.183 145.55 279.463C146.01 278.743 148.17 278.163 148.17 276.843V250.323C148.17 249.363 152.17 250.323 152.17 248.763V234.983C153.444 234.892 154.713 234.732 155.97 234.503C156.81 234.263 159.79 232.723 160.49 233.203C161.19 233.683 162.15 235.343 162.63 234.743C163.314 233.799 164.341 233.16 165.49 232.963C166.404 232.875 167.308 232.701 168.19 232.443C168.013 232.166 167.903 231.851 167.87 231.523C167.87 230.503 160.63 231.723 159.43 232.123C157.412 232.753 155.272 232.89 153.19 232.523C151.99 231.923 144.35 232.523 144.35 232.523L142.93 231.103H129.07C127.786 231.179 126.513 230.827 125.45 230.103C124.331 229.382 122.913 229.313 121.73 229.923C120.31 230.523 120.93 229.123 119.91 229.123C119.29 229.161 118.746 229.549 118.51 230.123L117.25 230.463C117.478 232.392 118.264 234.213 119.51 235.703C121.24 238.231 122.588 241.001 123.51 243.923C124.39 246.823 126.95 250.103 127.61 252.303C128.27 254.503 127.13 257.643 127.79 259.083C128.507 261.121 128.984 263.235 129.21 265.383C129.57 267.823 129.75 272.983 131.95 275.123C132.899 276.101 133.737 277.181 134.45 278.343C135.29 278.403 136.05 278.523 136.05 277.923Z" fill="#294F6E" stroke="#002F57" stroke-width="0.75"/>
<path fill-rule="evenodd" clip-rule="evenodd" d="M189.55 224.742L188.95 223.442L185.51 223.562C183.25 224.162 183.25 224.862 183.25 225.562C183.25 226.262 181.11 227.942 179.55 228.422C177.99 228.902 176.35 232.422 175.39 232.942C174.43 233.462 171.23 232.222 170.29 232.102C169.612 232.115 168.938 232.223 168.29 232.422C168.89 233.462 170.13 234.702 170.59 234.702C171.05 234.702 171.39 238.922 172.79 239.542C174.19 240.162 176.79 241.542 176.79 242.342C176.79 243.142 178.41 244.162 178.41 245.362C178.628 246.813 179.761 247.954 181.21 248.182C183.79 248.182 184.05 249.162 184.05 249.882C184.05 250.602 187.45 249.882 187.89 250.582C188.33 251.282 191.65 251.002 192.47 251.442C193.85 250.082 195.85 248.302 196.47 247.442C197.53 246.022 196.63 244.062 197.53 243.442C198.43 242.822 200.39 240.582 199.67 240.402C198.95 240.222 199.49 238.402 198.43 237.382C197.37 236.362 199.67 235.762 199.49 233.802C199.31 231.842 199.85 227.922 199.31 227.562C197.716 227.179 196.162 226.643 194.67 225.962C193.062 225.218 191.321 224.803 189.55 224.742Z" fill="#294F6E" stroke="#002F57" stroke-width="0.75"/>
<path fill-rule="evenodd" clip-rule="evenodd" d="M181.169 248.202C179.721 247.974 178.587 246.833 178.369 245.382C178.369 244.182 176.749 243.182 176.749 242.362C176.749 241.542 174.149 240.162 172.749 239.562C171.349 238.962 171.149 234.722 170.549 234.722C169.949 234.722 168.849 233.482 168.249 232.442C167.368 232.7 166.464 232.875 165.549 232.962C164.4 233.159 163.373 233.798 162.689 234.742C162.209 235.342 161.269 233.662 160.549 233.202C159.829 232.742 156.869 234.262 156.029 234.502C154.772 234.731 153.504 234.891 152.229 234.982V248.762C152.229 250.322 148.229 249.362 148.229 250.322V262.142C149.109 262.462 149.929 262.882 150.129 263.402C150.826 264.815 151.273 266.337 151.449 267.902C151.209 268.622 150.609 268.142 150.609 268.862C150.609 269.582 150.129 270.642 151.329 270.642C152.529 270.642 154.529 271.362 155.329 270.402C156.129 269.442 158.889 267.322 159.009 266.242C159.129 265.162 159.729 262.802 161.749 264.102C163.033 265.291 164.771 265.861 166.509 265.662C169.109 265.662 169.829 265.542 170.309 263.862C170.789 262.182 170.309 260.902 171.849 260.902C173.389 260.902 175.289 259.462 175.289 258.402C175.289 257.342 176.009 255.662 176.969 255.662C178.384 255.495 179.603 254.589 180.169 253.282C180.409 252.102 182.169 252.582 182.669 251.862C182.969 251.502 183.529 250.682 184.049 249.862C184.009 249.182 183.729 248.122 181.169 248.202Z" fill="#294F6E" stroke="#002F57" stroke-width="0.75"/>
<path fill-rule="evenodd" clip-rule="evenodd" d="M193.15 265.923C192.17 265.923 190.43 268.323 190.43 268.823C190.43 269.323 191.67 272.483 192.91 272.563C194.15 272.643 195.07 272.563 195.15 271.643C195.227 271.208 195.471 270.821 195.83 270.563C195.73 269.783 195.53 268.123 195.45 267.103C194.785 266.536 193.998 266.132 193.15 265.923Z" fill="#294F6E" stroke="#002F57" stroke-width="0.75"/>
<path fill-rule="evenodd" clip-rule="evenodd" d="M182.29 278.383C181.81 277.423 178.73 279.083 178.29 280.043C177.85 281.003 175.91 283.603 175.91 283.603L178.29 286.943L179.95 287.163C179.95 287.163 180.43 285.983 180.91 285.023C181.39 284.063 183.53 285.283 183.53 284.323C183.53 283.363 184.95 282.423 184.95 281.463C184.95 280.503 182.77 279.323 182.29 278.383Z" fill="#294F6E" stroke="#002F57" stroke-width="0.75"/>
<path fill-rule="evenodd" clip-rule="evenodd" d="M195.87 271.023C195.87 271.023 195.87 270.863 195.87 270.603C195.511 270.861 195.267 271.248 195.19 271.683C195.19 272.603 194.19 272.683 192.95 272.603C191.71 272.523 190.47 269.363 190.47 268.863C190.47 268.363 192.21 265.963 193.19 265.963C194.038 266.172 194.825 266.576 195.49 267.143C195.472 266.897 195.472 266.649 195.49 266.403C195.49 265.863 196.21 259.703 195.13 259.083C194.05 258.463 192.99 252.223 192.63 251.583C192.27 250.943 188.35 251.323 187.91 250.603C187.47 249.883 184.17 250.603 184.09 249.923C183.57 250.683 183.01 251.503 182.71 251.923C182.11 252.643 180.45 252.163 180.21 253.343C179.643 254.649 178.424 255.556 177.01 255.723C176.05 255.723 175.33 257.383 175.33 258.463C175.33 259.543 173.43 260.963 171.89 260.963C170.35 260.963 170.83 262.263 170.35 263.923C169.87 265.583 169.15 265.723 166.55 265.723C164.811 265.922 163.073 265.352 161.79 264.163C159.79 262.863 159.17 265.243 159.05 266.303C158.93 267.363 156.19 269.523 155.37 270.463C154.55 271.403 152.51 270.703 151.37 270.703C150.23 270.703 150.65 269.643 150.65 268.923C150.65 268.203 151.25 268.683 151.49 267.963C151.313 266.398 150.867 264.875 150.17 263.463C149.97 262.943 149.15 262.523 148.27 262.203V276.883C148.27 278.203 146.13 278.783 145.65 279.503C145.17 280.223 142.21 279.623 140.55 279.623C138.89 279.623 139.23 277.963 138.41 276.763C137.59 275.563 136.15 277.123 136.15 277.963C136.15 278.803 135.39 278.463 134.43 278.383C135.708 280.384 136.723 282.542 137.45 284.803C138.41 287.943 140.73 290.923 141.31 292.803C141.89 294.683 142.57 296.363 141.31 296.543C140.05 296.723 140.07 297.803 141.31 299.823C142.55 301.843 141.49 303.023 142.63 303.263C143.77 303.503 143.39 304.223 144.29 304.283C145.19 304.343 145.83 305.223 146.43 306.003C146.771 306.387 147.271 306.591 147.784 306.556C148.296 306.521 148.764 306.25 149.05 305.823C149.69 304.863 151.71 304.563 153.79 304.563C155.87 304.563 155.47 303.683 157.49 303.083C159.508 302.493 161.652 302.493 163.67 303.083C164.956 303.553 166.39 303.382 167.53 302.623C168.37 302.083 169.97 303.443 170.09 302.083C170.21 300.723 171.87 300.943 173.41 300.943C174.95 300.943 178.71 298.503 181.69 295.723C185.259 292.145 188.462 288.219 191.25 284.003C192.85 281.597 194.79 279.434 197.01 277.583C198.05 276.643 198.63 273.363 198.91 270.963C197.896 270.912 196.88 270.932 195.87 271.023ZM183.49 284.323C183.49 285.283 181.35 284.083 180.87 285.023C180.39 285.963 179.91 287.163 179.91 287.163L178.25 286.943L175.87 283.603C175.87 283.603 177.77 280.983 178.25 280.043C178.73 279.103 181.81 277.423 182.25 278.383C182.69 279.343 184.87 280.523 184.87 281.463C184.87 282.403 183.49 283.363 183.49 284.323Z" fill="#294F6E" stroke="#002F57" stroke-width="0.75"/>
<path fill-rule="evenodd" clip-rule="evenodd" d="M119.849 229.103C120.869 229.103 120.249 230.503 121.669 229.903C122.882 229.259 124.351 229.336 125.49 230.103C126.553 230.827 127.825 231.179 129.109 231.103H142.969L144.389 232.523C144.389 232.523 152.029 231.923 153.229 232.523C155.312 232.89 157.451 232.752 159.469 232.123C159.829 232.002 160.196 231.908 160.569 231.843L155.99 225.583L156.389 212.203L162.389 212.403L163.43 211.383L164.269 203.383C163.925 203.231 163.534 203.231 163.189 203.383C162.045 203.77 160.828 203.893 159.629 203.743C158.369 203.743 158.19 205.003 157.49 204.823C156.79 204.643 157.31 202.503 157.49 201.603C157.67 200.703 156.41 199.103 155.49 198.403C154.57 197.703 156.549 193.223 156.009 192.683C155.453 191.713 155.208 190.596 155.309 189.483C155.309 188.223 154.409 188.943 152.629 188.943C150.849 188.943 150.629 188.043 150.629 188.043C149.574 187.766 148.465 187.766 147.409 188.043C146.349 188.583 146.529 191.803 145.809 191.623C144.232 191.58 142.66 191.824 141.169 192.343C139.389 192.863 138.669 191.983 137.789 189.843C136.909 187.703 135.789 188.403 136.189 186.803C136.319 185.628 136.066 184.443 135.469 183.423C135.469 183.423 123.689 183.243 122.449 183.423C121.616 183.684 120.841 184.105 120.169 184.663C121.14 187.537 122.316 190.338 123.689 193.043C124.229 194.183 123.049 195.183 123.049 197.263C123.049 199.343 125.309 203.163 125.549 205.703C125.789 208.243 124.109 209.863 122.689 211.543C120.997 213.783 119.983 216.463 119.769 219.263C119.769 221.583 117.629 223.843 117.769 224.903C117.733 226.721 117.553 228.533 117.229 230.323V230.483L118.49 230.143C118.708 229.565 119.235 229.162 119.849 229.103Z" fill="#294F6E" stroke="#002F57" stroke-width="0.75"/>
<path fill-rule="evenodd" clip-rule="evenodd" d="M191.589 194.303C190.518 193.944 189.526 193.38 188.669 192.643C187.909 193.503 185.169 193.363 183.829 193.363C182.489 193.363 183.669 195.363 182.769 196.043C181.869 196.723 181.529 197.823 182.229 198.183C182.929 198.543 182.049 201.563 182.049 202.643C182.049 203.723 180.629 206.023 181.169 206.383C181.709 206.743 182.589 209.243 183.829 209.583C185.069 209.923 185.989 208.703 186.509 208.703C187.029 208.703 187.049 210.303 187.049 211.563C187.089 212.234 186.824 212.887 186.329 213.343C186.329 213.343 184.329 214.043 183.489 213.343C182.598 212.412 182.03 211.22 181.869 209.943C181.869 209.243 179.729 209.243 178.849 209.243C177.969 209.243 177.069 207.623 176.709 206.923C176.349 206.223 175.269 207.103 175.269 207.623C175.269 208.143 174.389 208.163 173.489 208.163C172.589 208.163 170.829 206.743 170.109 207.103C169.389 207.463 168.669 205.843 168.849 205.103C169.029 204.363 167.069 204.943 166.369 205.283C165.669 205.623 165.289 204.403 165.289 204.403C165.035 203.967 164.669 203.608 164.229 203.363L163.389 211.363L162.349 212.383L156.349 212.183L155.949 225.563L160.529 231.823C162.909 231.343 167.869 230.663 167.869 231.503C167.902 231.83 168.012 232.145 168.189 232.423C168.838 232.223 169.511 232.115 170.189 232.103C171.129 232.223 174.349 233.403 175.289 232.943C176.229 232.483 177.909 228.943 179.449 228.423C180.989 227.903 183.149 226.283 183.149 225.563C183.149 224.843 183.149 224.143 185.409 223.563L188.849 223.443H189.089L188.249 220.463C188.249 220.463 198.789 216.463 199.389 216.463C198.929 215.503 198.449 214.803 198.689 214.683C199.14 213.433 199.35 212.11 199.309 210.783C199.309 209.963 201.769 210.583 200.949 209.743C200.129 208.903 200.329 204.203 200.749 203.163C201.169 202.123 202.189 203.163 202.189 202.343C201.836 200.802 201.206 199.338 200.329 198.023C198.748 196.999 197.012 196.236 195.189 195.763C194.249 195.543 192.609 194.303 191.589 194.303Z" fill="#294F6E" stroke="#002F57" stroke-width="0.75"/>
<path fill-rule="evenodd" clip-rule="evenodd" d="M189.89 163.723C189.135 163.923 188.394 164.17 187.67 164.463C187.069 164.822 186.355 164.943 185.67 164.803C185.541 164.973 185.368 165.104 185.17 165.183C184.19 165.543 184.37 167.763 184.37 167.763C183.815 167.855 183.429 168.364 183.49 168.923C183.475 169.447 183.797 169.922 184.29 170.103C184.732 170.116 185.172 170.156 185.61 170.223C187.87 170.623 187.61 168.983 187.61 168.983C187.61 168.983 190.91 169.183 191.11 168.163C191.131 167.231 190.918 166.31 190.49 165.483L189.89 163.723Z" fill="#294F6E" stroke="#002F57" stroke-width="0.75"/>
<path fill-rule="evenodd" clip-rule="evenodd" d="M241.729 120.323C242.429 120.683 243.589 122.563 244.389 122.743C245.189 122.923 249.649 124.423 252.509 125.583C254.253 126.368 256.137 126.797 258.049 126.843C258.929 126.843 260.269 127.103 259.469 127.723C258.669 128.343 249.929 137.183 248.769 138.423C247.609 139.663 246.889 139.243 244.309 139.243C241.729 139.243 239.769 142.083 239.049 142.003C237.948 142.056 236.855 142.223 235.789 142.503L233.789 145.323L231.949 148.203L232.149 162.603L234.149 165.763C235.709 163.763 239.949 159.623 243.069 156.323C245.001 154.063 247.395 152.242 250.089 150.983C253.885 148.217 257.254 144.908 260.089 141.163C262.089 138.543 264.429 135.643 264.729 133.743C265.489 131.434 266.722 129.309 268.349 127.503C270.131 125.118 271.41 122.397 272.109 119.503C272.109 118.083 273.289 115.043 273.469 112.503C273.649 109.963 271.469 109.703 270.849 111.123C270.229 112.543 265.089 113.503 261.809 113.563C258.529 113.623 256.589 113.923 255.389 115.043C254.189 116.163 251.229 114.763 250.169 116.003C249.109 117.243 244.869 118.323 243.509 115.463C243.09 114.517 242.392 113.722 241.509 113.183C240.349 114.343 238.969 116.083 239.229 116.663C239.828 118.028 240.676 119.269 241.729 120.323Z" fill="#294F6E" stroke="#002F57" stroke-width="0.75"/>
<path fill-rule="evenodd" clip-rule="evenodd" d="M34.9298 45.9224C34.9298 43.2824 34.7698 40.7025 34.8298 40.4425C36.8487 38.8655 38.9962 37.4606 41.2498 36.2424C42.1698 35.7224 43.8698 36.5024 43.8698 35.4624C43.8698 34.4224 46.1098 34.9425 47.4298 34.6625C48.5865 34.4754 49.435 33.4742 49.4298 32.3024C49.4298 31.1224 51.2698 31.4024 52.4498 31.2624C53.6298 31.1224 53.4898 30.0824 54.2898 30.0824C55.0898 30.0824 54.6698 28.9025 54.8098 27.6025C54.9498 26.3025 54.9498 26.5424 56.1298 26.5424C57.3098 26.5424 58.4898 25.8825 58.4898 25.1025C58.4898 24.3225 63.5898 24.8425 64.3898 24.8425C65.1898 24.8425 65.4298 23.9224 65.2898 23.2624C65.1498 22.6024 64.5098 20.6424 63.7298 20.5224C62.9498 20.4024 63.4698 18.4225 63.4698 16.8425C63.5545 15.3502 63.1393 13.8723 62.2898 12.6424C62.0264 12.2608 61.8051 11.8517 61.6298 11.4224C60.1898 11.4224 58.4498 10.3625 56.9498 10.3225C54.9498 10.3225 51.6698 11.3425 50.1298 9.60246C48.5898 7.86246 47.5098 7.34246 46.3698 7.88246C45.2298 8.42246 43.1698 14.3624 41.9698 16.0824C40.3784 17.8028 38.1882 18.8478 35.8498 19.0025C34.2498 19.0025 34.0698 21.4425 32.8298 22.4425C31.5898 23.4425 32.0498 25.0624 30.5698 26.2424C29.0898 27.4224 29.7898 31.0625 30.5698 32.3825C31.3498 33.7025 27.8298 37.7824 25.8098 38.9824C23.7898 40.1824 23.1298 42.4224 19.9298 42.9824C18.8331 43.1425 17.8129 43.6386 17.0098 44.4025H31.9698C35.1498 44.3825 34.4298 45.0824 34.9298 45.9224Z" fill="#294F6E" stroke="#002F57" stroke-width="0.75"/>
<path fill-rule="evenodd" clip-rule="evenodd" d="M104.289 8.7223C104.959 10.2484 104.466 12.0348 103.109 13.0023C102.149 13.4623 101.449 15.6223 100.489 15.6223C99.5292 15.6223 100.489 19.1823 102.149 19.9023C103.258 20.2573 103.961 21.3459 103.829 22.5023C103.829 23.2223 106.209 23.9423 106.909 24.8823C107.996 27.1241 108.673 29.5421 108.909 32.0223C108.915 32.4047 109.041 32.7755 109.269 33.0823C109.926 32.7193 110.493 32.2135 110.929 31.6023C111.487 30.6256 111.738 29.5036 111.649 28.3823C111.382 27.7724 111.526 27.0605 112.009 26.6023C112.549 26.1423 114.689 23.8823 115.089 23.7023C115.489 23.5223 116.889 23.7023 116.829 22.4423C116.82 21.7736 116.86 21.1051 116.949 20.4423C115.989 19.8023 115.389 19.0823 115.389 18.7223C115.389 17.9623 114.329 16.7223 113.729 17.3623C113.129 18.0023 110.889 17.4823 110.589 15.9823C110.289 14.4823 112.069 14.5623 113.729 13.2023C114.558 12.5557 115.052 11.5713 115.075 10.5208C115.098 9.47025 114.648 8.46487 113.849 7.7823C112.069 6.3623 113.309 5.5823 114.569 4.2823C115.829 2.9823 114.689 2.28229 114.029 2.84229C113.369 3.40229 112.309 3.62228 112.029 2.20228C111.749 0.782279 108.029 0.542291 106.509 1.90229C105.882 2.36632 105.107 2.58664 104.329 2.52229C103.989 4.80229 103.729 7.7623 104.289 8.7223Z" fill="#294F6E" stroke="#002F57" stroke-width="0.75"/>
<path fill-rule="evenodd" clip-rule="evenodd" d="M63.5502 16.843C63.5502 18.423 63.0101 20.383 63.8101 20.523C64.6101 20.663 65.2501 22.523 65.3701 23.263C65.4901 24.003 65.2502 24.843 64.4702 24.843C63.6902 24.843 58.5701 24.323 58.5701 25.103C58.5701 25.883 57.3701 26.543 56.2101 26.543C55.0501 26.543 55.0301 26.283 54.8901 27.603C54.7501 28.923 55.1501 30.083 54.3701 30.083C53.5901 30.083 53.7102 31.123 52.5302 31.263C51.3502 31.403 49.5101 31.123 49.5101 32.303C49.5153 33.4748 48.6669 34.4759 47.5101 34.663C46.1901 34.943 43.9501 34.403 43.9501 35.463C43.9501 36.523 42.2501 35.723 41.3301 36.243C39.0765 37.4612 36.929 38.8661 34.9102 40.443C34.9102 40.703 34.9101 43.283 35.0101 45.923C35.2005 46.2289 35.4701 46.4776 35.7902 46.643C37.7902 47.783 73.6701 71.523 74.8101 72.643C75.7859 73.7682 76.6375 74.9953 77.3502 76.303C78.9266 76.5161 80.4551 76.9963 81.8701 77.723C83.8701 78.863 83.8701 81.963 83.8701 81.963C83.8701 81.963 86.4101 81.403 87.8701 81.123C89.3301 80.843 94.0901 79.123 94.0901 79.123L101.45 73.123L118.69 62.383C118.17 60.483 117.59 58.943 116.69 58.943C115.79 58.943 114.91 58.063 113.73 58.063C112.55 58.063 111.05 57.463 110.91 56.423C110.77 55.383 111.35 54.643 110.45 53.323C109.55 52.003 108.67 51.323 108.67 50.783C108.67 50.243 110.19 49.043 110.43 48.783C110.67 48.523 109.83 47.603 109.83 46.943C109.83 46.283 109.23 45.163 109.83 44.443C110.583 43.7243 110.71 42.5677 110.13 41.703C109.47 40.403 111.01 39.203 110.25 37.483C109.49 35.763 108.25 34.403 108.41 33.803C108.41 33.543 108.83 33.263 109.29 32.963C109.062 32.6563 108.936 32.2854 108.93 31.903C108.694 29.4228 108.017 27.0048 106.93 24.763C106.23 23.823 103.85 23.103 103.85 22.383C103.982 21.2266 103.279 20.1381 102.17 19.783C100.51 19.063 99.5701 15.503 100.51 15.503C101.45 15.503 102.17 13.343 103.13 12.883C104.487 11.9156 104.98 10.1291 104.31 8.60303C103.69 7.64303 104.01 4.60303 104.31 2.32303C103.021 2.25613 101.749 2.00697 100.53 1.58301C99.1539 1.60317 97.782 1.74372 96.4302 2.00302C95.1302 2.00302 91.9102 4.14302 90.8502 3.12302C89.7902 2.10302 78.8501 3.90301 75.7501 4.02301C72.6501 4.14301 71.3501 7.34302 69.5101 7.34302C67.0842 7.66196 64.8473 8.82286 63.1901 10.623C62.811 11.0546 62.2646 11.3023 61.6901 11.303C61.8654 11.7323 62.0867 12.1414 62.3502 12.523C63.2329 13.7832 63.6565 15.3081 63.5502 16.843Z" fill="#294F6E" stroke="#002F57" stroke-width="0.75"/>
<path fill-rule="evenodd" clip-rule="evenodd" d="M114.99 23.7027C114.59 23.8827 112.45 26.1427 111.91 26.6027C111.427 27.0609 111.283 27.7728 111.55 28.3827C111.639 29.504 111.388 30.6261 110.83 31.6027C110.31 32.6227 108.41 33.3227 108.29 33.9227C108.17 34.5227 109.35 35.9227 110.13 37.6027C110.91 39.2827 109.35 40.5227 110.01 41.8227C110.59 42.6874 110.463 43.844 109.71 44.5627C109.11 45.2827 109.71 46.4027 109.71 47.0627C109.71 47.7227 110.55 48.6627 110.31 48.9027C110.07 49.1427 108.55 50.3027 108.55 50.9027C108.55 51.5027 109.45 52.1027 110.33 53.4427C111.21 54.7827 110.63 55.4427 110.79 56.5427C110.95 57.6427 112.41 58.1827 113.61 58.1827C114.81 58.1827 115.61 59.0627 116.57 59.0627C117.53 59.0627 118.07 60.6027 118.57 62.5027C120.593 62.4548 122.604 62.8366 124.47 63.6227C125.477 64.2914 126.341 65.155 127.01 66.1627L133.79 62.5027L164.49 79.0027V76.8827H168.21V37.4227C168.21 34.7027 166.97 32.9627 168.21 31.4227C169.45 29.8827 167.71 29.1827 168.71 26.4627L169.07 25.4627C169.07 25.4627 168.97 25.3627 168.95 25.3027C168.65 24.4627 167.05 24.4027 163.55 23.8827C160.05 23.3627 161.35 20.9627 157.43 20.7227C153.51 20.4827 148.51 23.6427 148.45 25.3027C148.39 26.9627 150.29 28.8027 148.99 30.5427C148.191 31.4076 147.067 31.8994 145.89 31.8994C144.712 31.8994 143.589 31.4076 142.79 30.5427C140.711 28.802 138.081 27.8589 135.37 27.8827C132.93 27.8827 131.21 26.3227 131.37 25.0227C131.53 23.7227 130.77 23.1227 128.75 22.7027C126.73 22.2827 125.01 20.7027 121.45 21.2227C119.837 21.49 118.183 21.1478 116.81 20.2627C116.72 20.9255 116.68 21.594 116.69 22.2627C116.79 23.7627 115.41 23.5227 114.99 23.7027Z" fill="#294F6E" stroke="#002F57" stroke-width="0.75"/>
<path fill-rule="evenodd" clip-rule="evenodd" d="M8.46899 104.783C9.30899 104.023 10.669 105.523 11.869 105.683C12.7445 105.705 13.607 105.468 14.349 105.003C13.6382 104.81 12.9055 104.709 12.169 104.703C10.169 104.543 10.049 102.223 8.32898 103.043C6.76538 103.87 4.97512 104.165 3.229 103.883C3.229 104.543 2.82898 105.423 2.70898 106.303C3.09467 106.189 3.48946 106.109 3.88898 106.063C5.49436 105.998 7.06251 105.56 8.46899 104.783Z" fill="#294F6E" stroke="#002F57" stroke-width="0.75"/>
<path fill-rule="evenodd" clip-rule="evenodd" d="M5.72951 109.223C6.53398 109.082 7.29825 108.768 7.9695 108.303L13.7295 107.923C14.0784 107.931 14.4207 108.02 14.7295 108.183C14.7295 107.983 14.7295 107.823 14.7295 107.823C14.7295 107.823 17.4095 108.343 17.5895 108.983C17.7695 109.623 21.4095 110.043 23.4695 109.343L23.9095 109.183C23.9619 108.33 23.9619 107.475 23.9095 106.623C23.3434 105.604 22.6059 104.691 21.7295 103.923C21.2598 103.178 21.0489 102.299 21.1295 101.423L20.3895 100.323C20.3895 100.323 19.8295 98.0627 18.1295 97.5027C16.4295 96.9427 15.2895 93.8228 15.2895 93.8228H13.8895C13.2584 93.0295 12.4936 92.3527 11.6295 91.8228C10.5877 91.5614 9.4881 91.6601 8.50947 92.1028C7.29424 92.2552 6.06474 92.2552 4.8495 92.1028C3.4295 91.8228 3.70947 93.8028 2.56947 94.1028H2.36946C2.32385 95.2278 2.00833 96.3253 1.44948 97.3027C0.149476 99.3027 1.98952 102.123 2.92952 103.023C3.12623 103.223 3.21539 103.506 3.16951 103.783C4.91562 104.064 6.70589 103.769 8.26948 102.943C9.98948 102.123 10.1495 104.443 12.1095 104.603C12.846 104.609 13.5787 104.71 14.2895 104.903C13.5475 105.368 12.685 105.604 11.8095 105.583C10.6095 105.423 9.2495 103.923 8.4095 104.683C7.00301 105.459 5.43486 105.898 3.82948 105.963C3.42997 106.009 3.03517 106.089 2.64949 106.203C2.51885 106.867 2.68714 107.554 3.10951 108.083C3.26951 108.243 3.38949 108.403 3.52949 108.563C5.60949 108.143 4.98951 109.143 5.72951 109.223Z" fill="#294F6E" stroke="#002F57" stroke-width="0.75"/>
<path fill-rule="evenodd" clip-rule="evenodd" d="M9.40991 114.082C10.3099 113.462 12.0899 111.862 12.7099 112.082C13.3299 112.302 14.1499 111.822 14.1499 111.462C14.1499 111.102 12.8899 109.942 13.8699 109.582C14.4295 109.295 14.7725 108.711 14.7499 108.082C14.4411 107.92 14.0988 107.831 13.7499 107.822L7.86987 108.262C7.19862 108.727 6.43435 109.041 5.62988 109.182C4.98988 109.182 5.62988 108.102 3.62988 108.622C4.64988 109.882 4.76991 110.522 6.84991 111.102C8.92991 111.682 6.66989 112.942 8.56989 114.142C8.73466 114.239 8.88886 114.353 9.02991 114.482C9.14877 114.342 9.27565 114.208 9.40991 114.082Z" fill="#294F6E" stroke="#002F57" stroke-width="0.75"/>
<path fill-rule="evenodd" clip-rule="evenodd" d="M173.73 133.642C173.73 132.902 173.73 132.162 172.23 130.922C170.73 129.682 169.75 129.422 169.75 128.682C169.75 127.942 169.27 127.682 168.03 126.202C167.192 125.294 166.025 124.761 164.79 124.722L164.29 123.482L162.57 123.222C162.57 123.222 161.57 122.482 163.07 121.742C164.57 121.002 163.07 119.002 162.81 118.262C161.967 116.921 161.018 115.65 159.97 114.462C159.728 114.457 159.49 114.402 159.27 114.302C158.43 113.822 156.77 114.782 155.95 115.602C155.13 116.422 155.71 116.922 155.11 117.502C153.691 118.748 152.355 120.084 151.11 121.502C149.79 123.182 146.47 122.102 145.39 122.702C144.31 123.302 145.87 124.242 145.15 124.842C144.016 125.599 142.826 126.268 141.59 126.842C140.89 127.202 138.03 127.082 137.19 128.142C136.35 129.202 135.41 126.962 134.57 128.142C133.73 129.322 132.79 129.462 132.31 129.102C132.178 128.978 132.064 128.837 131.97 128.682C131.097 129.328 130.408 130.189 129.97 131.182C129.43 132.882 127.97 134.382 127.97 135.182C127.97 135.982 128.51 137.062 128.51 138.482C128.47 139.665 128.885 140.817 129.67 141.702C130.154 142.404 130.374 143.254 130.29 144.102C130.553 144.573 130.854 145.021 131.19 145.442C131.81 146.242 133.59 147.442 133.77 148.042C133.913 148.341 134.163 148.577 134.47 148.702L134.71 148.322C135.317 147.463 135.581 146.407 135.45 145.362L137.69 144.862L139.43 144.362L142.89 144.862V142.142C142.89 142.142 145.37 138.902 147.11 138.902C148.85 138.902 150.33 141.142 150.33 141.142L158.03 142.622C158.03 142.622 158.51 140.402 159.27 139.902C160.03 139.402 161.49 140.402 162.49 139.902C163.778 139.159 165.224 138.734 166.71 138.662C168.43 138.662 169.19 139.662 169.93 138.162C170.67 136.662 174.39 138.662 174.39 138.662L177.37 138.162L176.37 135.682C176.37 135.682 173.73 134.382 173.73 133.642Z" fill="#294F6E" stroke="#002F57" stroke-width="0.75"/>
<path fill-rule="evenodd" clip-rule="evenodd" d="M110.49 131.422C110.95 131.302 112.03 131.662 112.85 131.062C113.67 130.462 115.47 131.902 115.71 133.062C115.95 134.222 116.67 132.582 117.37 131.282C118.579 129.334 119.578 127.262 120.35 125.102C120.35 124.142 122.25 123.322 122.25 122.722C122.25 122.122 122.13 120.822 122.73 120.582C123.33 120.342 123.79 118.582 123.67 117.962C124.256 116.393 125.057 114.912 126.05 113.562C126.41 113.082 128.31 113.322 128.43 112.262C128.55 111.202 128.91 110.002 128.19 109.762C127.47 109.522 126.53 108.682 126.53 108.102C126.536 107.368 126.624 106.637 126.79 105.922C125.83 105.782 125.77 104.842 125.23 104.282C124.69 103.722 124.63 103.222 123.79 103.462C122.95 103.702 122.01 105.722 120.95 106.062C119.776 106.179 118.597 105.89 117.61 105.242C115.915 105.078 114.211 105.038 112.51 105.122C111.43 105.002 110.37 106.542 109.53 107.022C108.223 107.398 106.837 107.398 105.53 107.022C104.81 106.782 103.15 105.362 102.43 105.362C101.264 105.405 100.125 105.728 99.11 106.302C97.91 107.022 97.57 105.002 96.85 104.162C96.13 103.322 94.59 104.042 93.63 103.222C92.67 102.402 92.09 104.162 91.27 104.042C90.45 103.922 88.29 103.462 87.57 104.042C86.85 104.622 86.97 106.902 86.63 107.262C86.29 107.622 84.85 109.262 84.85 110.122C84.868 110.441 84.7157 110.746 84.45 110.922C84.61 111.902 84.8099 113.162 84.8699 113.622C84.8699 114.422 85.31 118.442 84.43 119.322C83.8042 120.011 83.2911 120.794 82.91 121.642C81.9778 122.36 81.3667 123.417 81.21 124.582C81.108 126.162 81.1414 127.748 81.3099 129.322C81.3099 130.382 82.09 131.162 82.53 132.482C83.23 133.442 86.53 133.622 88.53 134.042C90.3824 134.662 91.8063 136.161 92.33 138.042C92.5511 139.43 93.3226 140.671 94.47 141.482C95.37 141.962 97.55 140.582 98.57 140.582C99.59 140.582 103.21 140.582 103.93 140.002C104.108 139.83 104.392 139.83 104.57 140.002C105.094 138.603 105.483 137.156 105.73 135.682C107.233 134.172 108.823 132.75 110.49 131.422Z" fill="#294F6E" stroke="#002F57" stroke-width="0.75"/>
<path fill-rule="evenodd" clip-rule="evenodd" d="M81.2895 124.603C81.4463 123.437 82.0573 122.38 82.9895 121.663C83.3706 120.814 83.8836 120.031 84.5095 119.343C85.3895 118.463 85.0295 114.443 84.9495 113.643C84.9495 113.183 84.6895 111.923 84.5295 110.943C84.127 111.146 83.6519 111.146 83.2495 110.943C82.1895 110.483 83.1295 109.403 81.9495 108.943C80.7695 108.483 80.2895 109.903 80.5295 110.943C80.7695 111.983 79.9295 111.903 79.4495 112.503C78.9695 113.103 76.8295 113.203 76.1295 113.203C75.4295 113.203 74.5694 114.523 73.8694 114.763C73.6574 114.795 73.4416 114.795 73.2295 114.763C73.3895 117.883 73.9095 117.643 75.4095 118.523C76.9095 119.403 75.4095 120.843 76.2095 121.543C77.0095 122.243 76.6495 124.043 76.8295 126.283C76.9495 127.623 77.0895 131.123 77.1695 133.683C78.0609 133.525 78.9642 133.445 79.8694 133.443C81.1494 133.443 81.8695 131.743 82.6095 132.563C82.1695 131.243 81.3895 130.563 81.3895 129.403C81.2175 127.808 81.184 126.202 81.2895 124.603Z" fill="#294F6E" stroke="#002F57" stroke-width="0.75"/>
<path fill-rule="evenodd" clip-rule="evenodd" d="M76.2095 121.483C75.4895 120.783 77.1095 119.483 75.4095 118.463C73.7095 117.443 73.4095 117.823 73.2295 114.703C72.3695 114.703 71.0895 114.263 70.1695 114.183C70.0122 114.141 69.8468 114.141 69.6895 114.183C69.8895 115.323 70.1695 116.583 70.5095 116.763C71.2932 117.299 71.6794 118.252 71.4895 119.183C71.1697 121.042 71.1697 122.943 71.4895 124.803C72.1726 126.564 72.5382 128.433 72.5695 130.323C72.7392 131.952 73.2358 133.53 74.0295 134.963C74.3218 134.813 74.5968 134.632 74.8495 134.423C75.5164 133.957 76.2839 133.655 77.0895 133.543C77.0895 130.983 76.8695 127.543 76.7495 126.143C76.6495 123.923 76.9295 122.203 76.2095 121.483Z" fill="#294F6E" stroke="#002F57" stroke-width="0.75"/>
<path fill-rule="evenodd" clip-rule="evenodd" d="M117.15 149.923C117.15 149.923 126.57 150.423 127.81 150.183C129.05 149.943 133.51 152.183 133.51 152.183C133.632 150.934 133.971 149.716 134.51 148.583C134.173 148.475 133.892 148.237 133.73 147.923C133.55 147.283 131.73 146.123 131.15 145.323C130.813 144.902 130.512 144.453 130.25 143.983C130.333 143.135 130.114 142.284 129.63 141.583C128.845 140.698 128.43 139.545 128.47 138.363C128.47 136.943 127.93 135.883 127.93 135.063C127.93 134.243 129.37 132.763 129.93 131.063C130.367 130.07 131.057 129.208 131.93 128.563C131.414 127.641 131.011 126.661 130.73 125.643C130.25 124.103 128.95 123.643 127.41 122.203C126.491 121.568 126.101 120.404 126.45 119.343C126.45 118.763 128.45 118.763 129.91 118.883C131.37 119.003 132.15 118.643 131.57 118.283C130.468 116.851 129.882 115.089 129.91 113.283C130.01 111.283 129.31 110.783 129.43 109.723C129.55 108.663 128.11 105.923 126.93 105.923H126.71C126.543 106.638 126.456 107.369 126.45 108.103C126.45 108.683 127.41 109.523 128.11 109.763C128.81 110.003 128.47 111.183 128.35 112.263C128.23 113.343 126.35 113.083 125.97 113.563C125.029 114.908 124.276 116.375 123.73 117.923C123.85 118.523 123.39 120.303 122.79 120.543C122.19 120.783 122.31 122.083 122.31 122.683C122.31 123.283 120.41 124.103 120.41 125.063C119.638 127.223 118.639 129.294 117.43 131.243C116.73 132.543 116.01 134.223 115.77 133.023C115.53 131.823 113.77 130.403 112.91 131.023C112.05 131.643 111.01 131.263 110.55 131.383C108.927 132.753 107.384 134.216 105.93 135.763C105.682 137.237 105.294 138.683 104.77 140.083C105.423 140.755 105.988 141.507 106.45 142.323C107.27 143.503 108.87 142.623 109.53 142.963C110.377 144.116 110.775 145.538 110.65 146.963C110.43 147.703 109.45 149.583 109.91 150.523H115.47L117.15 149.923Z" fill="#294F6E" stroke="#002F57" stroke-width="0.75"/>
<path fill-rule="evenodd" clip-rule="evenodd" d="M58.7297 137.103C57.8999 135.73 57.324 134.219 57.0297 132.643C57.1297 131.923 58.6497 129.783 58.5497 128.643C58.4497 127.503 60.0697 126.843 60.0697 125.963C59.9243 123.824 59.4522 121.719 58.6697 119.723C58.3784 119.697 58.1106 119.552 57.9297 119.323C56.3591 118.595 54.5105 118.828 53.1697 119.923C52.1097 121.123 49.9697 118.863 49.6097 118.263C49.2497 117.663 47.7097 116.263 46.5097 117.183C45.3097 118.103 44.9697 117.783 45.0897 116.723C45.2097 115.663 43.3097 116.003 43.0897 116.943C42.8697 117.883 41.3097 118.743 40.8297 118.023C40.3497 117.303 39.2897 116.363 38.8297 117.423C38.7552 117.705 38.5332 117.924 38.2502 117.995C37.9672 118.066 37.6681 117.977 37.4697 117.763C37.1697 119.083 36.7897 120.603 37.4697 120.963C38.136 121.33 38.4402 122.124 38.1897 122.843C38.0097 123.363 39.5297 124.703 38.9097 125.343C38.2897 125.983 37.4697 124.703 37.0297 125.603C36.5897 126.503 37.9297 127.303 37.3897 128.003C36.8497 128.703 36.0497 128.803 36.2297 130.243C36.4097 131.683 36.2297 132.643 35.7897 133.083C35.3497 133.523 35.7897 133.543 37.1297 134.343C38.4697 135.143 40.4297 136.043 40.2497 137.363C40.0697 138.683 39.5497 138.863 39.0497 141.123C41.4697 141.123 45.8097 139.403 50.9097 138.523C53.518 138.091 56.19 138.248 58.7297 138.983C58.8697 138.303 59.0097 137.463 58.7297 137.103Z" fill="#294F6E" stroke="#002F57" stroke-width="0.75"/>
<path fill-rule="evenodd" clip-rule="evenodd" d="M71.5693 124.883C71.2495 123.023 71.2495 121.122 71.5693 119.263C71.7593 118.332 71.3731 117.379 70.5894 116.843C70.2494 116.663 69.9693 115.403 69.7693 114.263C69.0693 114.583 69.0094 115.743 68.7094 115.243C68.4094 114.743 59.0694 114.303 58.6094 115.003C58.1494 115.703 59.4293 118.343 59.3093 119.003C59.1893 119.663 59.0493 119.703 58.7493 119.743C59.5318 121.739 60.004 123.843 60.1494 125.983C60.1494 126.863 58.5493 127.583 58.6293 128.663C58.7093 129.743 57.2094 131.863 57.1094 132.663C57.4037 134.239 57.9795 135.75 58.8093 137.123C59.0893 137.483 58.9493 138.323 58.8093 139.123C60.4293 139.603 61.4893 140.143 61.8093 140.223C64.5195 139.465 67.136 138.405 69.6094 137.063C71.2094 136.263 73.0093 135.743 74.2493 135.063C73.4556 133.63 72.9591 132.052 72.7894 130.423C72.7159 128.518 72.3027 126.642 71.5693 124.883Z" fill="#294F6E" stroke="#002F57" stroke-width="0.75"/>
<path fill-rule="evenodd" clip-rule="evenodd" d="M19.1298 119.923C19.2298 118.943 20.0298 119.303 21.0098 119.483C21.9898 119.663 23.1498 118.863 24.0498 118.863C24.9498 118.863 27.2498 121.983 27.2498 122.863C27.199 123.698 27.3863 124.53 27.7898 125.263C27.8465 125.348 27.8872 125.443 27.9098 125.543C28.8709 125.312 29.8464 125.145 30.8298 125.043C31.2498 125.043 32.1298 127.043 31.9498 128.463C31.7698 129.883 33.2698 130.743 33.9498 129.863C34.6298 128.983 35.3498 127.863 35.5298 128.643C35.5298 128.863 35.9098 129.063 36.3298 129.243C36.5498 128.723 37.0298 128.503 37.3898 128.023C37.7498 127.543 36.5898 126.503 37.0298 125.623C37.4698 124.743 38.2898 125.983 38.9098 125.363C39.5298 124.743 38.0098 123.363 38.1898 122.863C38.4403 122.145 38.1361 121.35 37.4698 120.983C36.8098 120.623 37.1898 119.103 37.4698 117.783C37.2599 117.62 37.0776 117.424 36.9298 117.203C36.4498 116.503 36.8098 114.943 35.9698 114.943C35.1298 114.943 35.2498 113.763 35.9698 113.523C36.6898 113.283 34.5498 112.463 34.5498 111.523C34.3827 110.386 33.8407 109.337 33.0098 108.543C32.5298 108.423 30.8698 110.543 30.1498 110.543C29.4298 110.543 27.8898 109.123 27.4098 110.303C26.9298 111.483 25.8698 109.723 25.1498 110.663C24.4298 111.603 23.9698 109.603 23.9698 109.603C23.9698 109.603 23.9698 109.323 23.9698 108.943L23.5298 109.103C21.5298 109.803 17.8298 109.363 17.6498 108.743C17.4698 108.123 14.7898 107.583 14.7898 107.583C14.7898 107.583 14.7898 109.103 13.8898 109.443C12.9898 109.783 14.1698 110.963 14.1698 111.323C14.1698 111.683 13.3698 112.223 12.7298 111.943C12.0898 111.663 10.3298 113.283 9.42981 113.943C9.28061 114.081 9.14028 114.228 9.00977 114.383C10.3898 115.483 10.2698 116.723 11.8698 117.903C13.773 119.143 15.3342 120.842 16.4098 122.843C17.5298 121.923 19.0698 120.643 19.1298 119.923Z" fill="#294F6E" stroke="#002F57" stroke-width="0.75"/>
<path fill-rule="evenodd" clip-rule="evenodd" d="M37.0695 134.423C35.8095 133.623 35.1895 133.623 35.7295 133.163C36.2695 132.703 36.3495 131.743 36.1695 130.323C36.0813 129.988 36.0813 129.637 36.1695 129.303C35.7495 129.123 35.4294 128.923 35.3694 128.703C35.1894 127.903 34.4095 129.043 33.7895 129.923C33.1695 130.803 31.6895 129.923 31.7895 128.523C31.8895 127.123 31.0895 125.103 30.6695 125.103C29.6861 125.204 28.7106 125.371 27.7495 125.603C27.9495 126.243 27.5094 126.943 27.3694 127.603C27.2294 128.263 25.0495 129.603 24.1495 130.283C23.7734 130.677 23.4628 131.13 23.2295 131.623C24.9095 132.683 26.8695 133.923 28.4695 135.123C31.3768 137.412 34.5215 139.384 37.8495 141.003C38.1648 141.111 38.4961 141.165 38.8295 141.163C39.3295 138.903 39.8695 138.623 40.0295 137.403C40.1895 136.183 38.3095 135.223 37.0695 134.423Z" fill="#294F6E" stroke="#002F57" stroke-width="0.75"/>
<path fill-rule="evenodd" clip-rule="evenodd" d="M27.5297 127.643C27.6897 126.843 28.2297 126.043 27.7897 125.323C27.3862 124.59 27.1989 123.758 27.2496 122.923C27.2496 122.023 24.9297 118.923 24.0497 118.923C23.1697 118.923 22.0496 119.723 21.0096 119.543C19.9696 119.363 19.2296 119.003 19.1296 119.983C19.1296 120.663 17.5296 121.983 16.3896 123.003C16.6219 123.48 16.8159 123.975 16.9697 124.483C17.3462 126.523 18.5007 128.338 20.1896 129.543C20.7896 130.043 22.0096 130.803 23.3896 131.683C23.623 131.19 23.9336 130.738 24.3096 130.343C25.2096 129.603 27.3497 128.443 27.5297 127.643Z" fill="#294F6E" stroke="#002F57" stroke-width="0.75"/>
<path fill-rule="evenodd" clip-rule="evenodd" d="M17.1295 65.4828C17.1295 64.5628 21.3295 63.3828 21.3295 62.4628V51.7228C21.3295 51.7228 34.4495 51.9828 34.8295 51.7228C35.0361 49.7963 35.0696 47.8552 34.9296 45.9228C34.4296 45.0828 35.1496 44.3828 32.0496 44.3828H17.0895C16.0893 45.4288 15.3373 46.6865 14.8895 48.0628C14.1695 50.0628 9.70954 52.7628 9.52954 55.4428C9.34954 58.1228 5.18954 62.2828 2.46954 67.9828C1.85478 69.1643 1.4488 70.4431 1.26953 71.7628H17.1295V65.4828Z" fill="#294F6E" stroke="#002F57" stroke-width="0.75"/>
<path fill-rule="evenodd" clip-rule="evenodd" d="M4.90981 92.1624C6.12505 92.3148 7.35455 92.3148 8.56978 92.1624C9.56478 91.7238 10.68 91.639 11.7298 91.9223C12.5939 92.4523 13.3588 93.1291 13.9898 93.9223H15.3898C15.3898 93.9223 16.5298 97.0224 18.2298 97.6024C19.0869 97.953 19.7701 98.629 20.1298 99.4823C21.3498 99.4823 22.2698 99.0623 22.2698 98.2023C22.2698 97.3423 22.8298 95.6623 24.6298 97.3023C26.4298 98.9423 26.4298 97.4623 26.7898 96.9223C27.1498 96.3823 28.4098 97.1024 29.4898 97.1024C30.3672 97.0208 31.2217 96.7767 32.0098 96.3824C32.0098 96.3824 46.9898 96.5623 47.7098 96.2023C48.4298 95.8423 48.2498 92.7823 48.2498 92.7823L46.9898 91.5223L43.1498 55.9223H49.9298C42.7098 51.1423 36.5098 47.0823 35.7098 46.6223C35.3897 46.457 35.1202 46.2082 34.9298 45.9023C35.0699 47.8348 35.0364 49.7759 34.8298 51.7023C34.4498 51.9623 21.3298 51.7023 21.3298 51.7023V62.4424C21.3298 63.3624 17.1298 64.4423 17.1298 65.4623V71.7423H1.2698C1.0498 74.3423 2.6298 75.2623 3.5298 76.2823C4.7898 77.7223 2.58983 80.2823 4.42983 82.7623C6.26983 85.2423 4.00982 89.2423 3.10982 90.7623C2.67192 91.8779 2.44147 93.064 2.42983 94.2623H2.62978C3.72978 93.9223 3.48981 91.9224 4.90981 92.1624Z" fill="#294F6E" stroke="#002F57" stroke-width="0.75"/>
<path fill-rule="evenodd" clip-rule="evenodd" d="M83.7293 81.9228C83.7293 81.9228 83.7293 78.8228 81.7293 77.6828C80.3143 76.9561 78.7857 76.4759 77.2093 76.2628C76.4966 74.955 75.6451 73.728 74.6693 72.6028C73.9893 71.9228 60.6693 63.0628 49.8693 55.8828H43.0893L46.8893 91.4028L48.1493 92.6628C48.1493 92.6628 48.3293 95.7228 47.6093 96.0828C46.8893 96.4428 31.9093 96.2628 31.9093 96.2628C31.1213 96.6571 30.2667 96.9012 29.3893 96.9828C28.3093 96.9828 27.0493 96.2628 26.6893 96.8028C26.3293 97.3428 26.3293 98.8028 24.5293 97.1828C22.7293 95.5628 22.1693 96.9828 22.1693 98.0828C22.1693 99.1828 21.2493 99.3428 20.0293 99.3628C20.1709 99.6674 20.2912 99.9815 20.3893 100.303L21.1293 101.403C21.0442 102.286 21.2553 103.173 21.7293 103.923C22.5826 104.664 23.3058 105.543 23.8693 106.523C23.9305 107.595 23.9305 108.67 23.8693 109.743C23.8693 109.743 24.3293 111.743 25.0493 110.803C25.7693 109.863 26.8293 111.643 27.3093 110.443C27.7893 109.243 29.3093 110.683 30.0493 110.683C30.7893 110.683 32.4293 108.543 32.9093 108.683C33.7402 109.477 34.2822 110.526 34.4493 111.663C34.4493 112.503 36.5893 113.323 35.8693 113.663C35.1493 114.003 35.0493 115.083 35.8693 115.083C36.6893 115.083 36.3493 116.643 36.8293 117.343C37.3093 118.043 38.2493 118.663 38.7293 117.583C39.2093 116.503 40.2693 117.463 40.7293 118.183C41.1893 118.903 42.7293 118.063 42.9893 117.103C43.2493 116.143 45.1293 115.803 44.9893 116.883C44.8493 117.963 45.2293 118.183 46.4093 117.343C46.7468 117.126 47.1552 117.047 47.5493 117.123C47.854 116.066 48.2281 115.03 48.6693 114.023C49.0293 113.303 47.8493 111.643 48.4293 111.403C49.0093 111.163 51.0493 111.643 51.6493 109.983C51.9477 109.086 52.3865 108.242 52.9493 107.483C52.9493 107.483 53.1893 103.923 54.2693 104.503C55.3493 105.083 56.6293 106.063 56.7493 104.623C56.8693 103.183 58.1893 104.043 58.5493 102.723C58.9093 101.403 59.6093 101.543 60.5493 101.783C61.4893 102.023 62.0893 101.663 62.0893 100.943C62.0893 100.223 63.9893 100.583 65.5293 99.5228C67.0693 98.4628 67.9093 97.6228 68.5093 98.2028C70.1706 98.7004 71.9287 98.7829 73.6293 98.4428C74.2093 98.2028 75.4093 97.1428 76.8293 97.3828C78.9389 97.3017 81.0423 97.1014 83.1293 96.7828C84.5693 96.7828 85.1293 95.4628 85.6293 95.0028C86.1293 94.5428 86.4693 92.3828 86.9493 92.0228C87.2874 88.4666 87.3676 84.8906 87.1893 81.3228L83.7293 81.9228Z" fill="#294F6E" stroke="#002F57" stroke-width="0.75"/>
<path fill-rule="evenodd" clip-rule="evenodd" d="M80.5099 110.803C80.059 110.398 79.4922 110.146 78.8899 110.083C78.5299 110.083 78.7899 108.083 78.6099 107.843C78.4299 107.603 77.2699 108.383 76.6099 108.123C75.9499 107.863 75.6299 106.683 75.0099 106.683C74.3899 106.683 74.2899 105.983 74.2899 105.163C74.2899 104.343 73.1299 103.563 72.4099 103.023C71.6899 102.483 71.5299 101.023 71.0699 100.723C70.6099 100.423 70.9299 99.4626 71.0699 98.5626C70.2125 98.6352 69.3509 98.4836 68.5699 98.1226C67.9699 97.5426 67.1499 98.3626 65.5899 99.4426C64.0299 100.523 62.1499 100.143 62.1499 100.863C62.1499 101.583 61.4299 101.943 60.6099 101.703C59.7899 101.463 59.0499 101.343 58.6099 102.643C58.1699 103.943 56.9299 103.123 56.8099 104.543C56.6899 105.963 55.3899 105.023 54.3299 104.423C53.2699 103.823 53.0099 107.403 53.0099 107.403C52.4523 108.169 52.0203 109.02 51.7299 109.923C51.1299 111.583 49.1099 111.103 48.5099 111.343C47.9099 111.583 49.1099 113.343 48.7499 113.963C48.3087 114.97 47.9346 116.006 47.6299 117.063C48.4368 117.228 49.1514 117.692 49.6299 118.363C49.9899 118.963 52.1299 121.223 53.1899 120.023C54.5307 118.928 56.3792 118.694 57.9499 119.423C58.6699 120.143 59.1299 119.783 59.2499 119.083C59.3699 118.383 58.0699 115.743 58.5499 115.083C59.0299 114.423 68.2899 114.743 68.6499 115.323C69.0099 115.903 69.0099 114.143 70.1899 114.263C71.4014 114.56 72.6425 114.721 73.8899 114.743C74.5899 114.503 75.4299 113.183 76.1499 113.183C76.8699 113.183 78.9899 113.063 79.4699 112.483C79.9499 111.903 80.7699 111.883 80.5499 110.923L80.5099 110.803Z" fill="#294F6E" stroke="#002F57" stroke-width="0.75"/>
<path fill-rule="evenodd" clip-rule="evenodd" d="M130.449 69.5824C130.449 69.0024 130.33 66.3824 130.23 64.4224L127.03 66.1424C126.361 65.1347 125.497 64.2711 124.49 63.6024C122.589 62.8168 120.546 62.4354 118.49 62.4824L101.249 73.2224L93.8895 79.2224C93.8895 79.2224 89.0895 80.9224 87.6695 81.2224H87.1295C87.3078 84.7902 87.2276 88.3662 86.8895 91.9224C86.4095 92.2824 86.0495 94.4224 85.5695 94.9024C85.0895 95.3824 84.5095 96.6824 83.0695 96.6824C80.9825 97.001 78.8791 97.2013 76.7695 97.2824C75.3495 97.0424 74.1495 98.1024 73.5695 98.3424C72.7077 98.5163 71.8277 98.5834 70.9495 98.5424C70.8295 99.4424 70.7295 100.542 70.9495 100.702C71.1695 100.862 71.5895 102.482 72.2895 103.002C72.9895 103.522 74.1695 104.342 74.1695 105.142C74.1695 105.942 74.1695 106.662 74.8895 106.662C75.6095 106.662 75.7695 107.822 76.4895 108.102C77.2095 108.382 78.3495 107.562 78.4895 107.822C78.6295 108.082 78.4895 110.062 78.7695 110.062C79.3718 110.126 79.9386 110.378 80.3895 110.782C80.1695 109.842 80.6495 108.582 81.8295 108.922C83.0095 109.262 82.0695 110.362 83.1295 110.922C84.1895 111.482 84.8095 111.042 84.8095 110.222C84.8095 109.402 86.2295 107.722 86.5895 107.362C86.9495 107.002 86.8295 104.742 87.5295 104.142C88.2295 103.542 90.3895 104.142 91.2295 104.142C92.0695 104.142 92.6495 102.482 93.5895 103.322C94.5295 104.162 96.0895 103.442 96.8095 104.262C97.5295 105.082 97.8695 107.122 99.0695 106.402C100.085 105.828 101.223 105.505 102.389 105.462C103.109 105.462 104.77 106.882 105.49 107.122C106.796 107.498 108.183 107.498 109.49 107.122C110.33 106.642 111.49 105.122 112.47 105.222C114.17 105.138 115.875 105.178 117.569 105.342C118.556 105.99 119.735 106.279 120.91 106.162C121.97 105.822 122.909 103.802 123.749 103.562C123.938 103.503 124.141 103.503 124.329 103.562C124.329 103.102 124.329 102.662 124.329 102.262C124.329 100.122 124.81 100.962 125.17 98.8224C125.53 96.6824 131.17 91.0824 131.59 90.8224C132.009 90.5624 132.05 82.0224 132.05 80.8224C132.094 79.3697 132.336 77.9297 132.769 76.5424C133.249 74.8824 131.95 75.0024 132.05 73.4624C132.15 71.9224 130.449 70.5424 130.449 69.5824Z" fill="#294F6E" stroke="#002F57" stroke-width="0.75"/>
<path fill-rule="evenodd" clip-rule="evenodd" d="M164.51 78.9824L133.73 62.4824L130.15 64.4824C130.25 66.4824 130.37 69.0624 130.37 69.6424C130.37 70.6024 132.15 71.8024 132.03 73.3424C131.91 74.8824 133.23 74.7624 132.75 76.4224C132.316 77.8098 132.074 79.2497 132.03 80.7024C132.03 81.9024 132.03 90.3424 131.57 90.7024C131.11 91.0624 125.57 96.7024 125.15 98.7024C124.73 100.702 124.31 100.002 124.31 102.142V103.442C124.61 103.442 124.75 103.882 125.17 104.282C125.59 104.682 125.77 105.962 126.95 105.962C128.13 105.962 129.57 108.682 129.45 109.762C129.33 110.842 130.03 111.422 129.93 113.322C129.903 115.129 130.488 116.891 131.59 118.322C132.17 118.682 131.35 119.042 129.93 118.922C128.51 118.802 126.47 118.802 126.47 119.382C126.121 120.443 126.511 121.607 127.43 122.242C128.97 123.662 130.27 124.242 130.75 125.682C131.026 126.89 131.55 128.028 132.29 129.022C132.77 129.382 133.73 129.262 134.55 128.062C135.37 126.862 136.35 129.142 137.17 128.062C137.99 126.982 140.87 127.122 141.57 126.762C142.806 126.188 143.996 125.519 145.13 124.762C145.85 124.162 144.31 123.222 145.37 122.622C146.43 122.022 149.77 123.102 151.09 121.422C152.335 120.004 153.671 118.668 155.09 117.422C155.69 116.842 155.09 116.362 155.93 115.522C156.77 114.682 158.41 113.742 159.25 114.222C159.47 114.322 159.708 114.377 159.95 114.382L159.81 114.222L160.31 112.482C160.31 112.482 158.31 111.482 158.31 110.002C158.31 108.522 158.81 107.022 157.57 107.022C156.33 107.022 156.07 105.782 157.07 104.802C158.07 103.822 155.59 101.822 157.31 101.822C159.03 101.822 157.81 99.1024 159.05 98.8424C160.29 98.5824 160.53 97.6024 160.53 96.3624C160.53 95.1224 163.27 94.3624 164.01 94.1424C164.75 93.9224 164.51 89.9224 164.51 89.9224V78.9824Z" fill="#294F6E" stroke="#002F57" stroke-width="0.75"/>
<path fill-rule="evenodd" clip-rule="evenodd" d="M208.11 35.023L205.21 27.923C205.082 28.142 204.934 28.3495 204.77 28.543C204.29 29.023 202.33 27.843 200.49 28.323C198.727 28.633 196.913 28.2457 195.43 27.243C193.65 26.363 187.83 27.483 187.05 28.603C186.27 29.723 184.31 29.743 182.53 29.023C180.196 27.9762 177.713 27.3014 175.17 27.023C172.11 26.743 169.65 26.303 169.17 25.583L168.81 26.583C167.81 29.303 169.55 30.043 168.31 31.543C167.07 33.043 168.31 34.763 168.31 37.543V68.523H192.83L194.27 67.563C194.97 67.103 196.17 68.283 196.17 68.283H201.39C201.92 68.9464 202.688 69.3769 203.53 69.483C204.73 69.483 204.01 67.483 205.91 67.483C207.81 67.483 207.35 64.643 208.53 64.643C209.71 64.643 209.49 64.883 210.67 63.203L210.81 63.043C210.72 62.5068 210.72 61.9592 210.81 61.423C211.11 59.523 209.79 59.643 208.97 56.963C208.15 54.283 204.81 50.303 204.69 48.763C204.57 47.223 202.69 46.323 202.79 44.663C202.89 43.003 201.89 42.823 200.05 40.203C198.21 37.583 197.67 33.003 198.21 32.843C198.75 32.683 200.21 36.703 200.89 38.003C201.57 39.303 203.49 43.303 204.89 43.303C206.29 43.303 206.89 37.303 207.33 37.583C207.372 37.6379 207.405 37.6985 207.43 37.763L207.57 36.683L208.11 35.023Z" fill="#294F6E" stroke="#002F57" stroke-width="0.75"/>
<path fill-rule="evenodd" clip-rule="evenodd" d="M116.73 174.043C118.73 174.043 117.97 172.803 117.23 170.803C116.49 168.803 118.47 169.083 119.71 169.083C120.95 169.083 120.47 166.843 121.45 166.843C122.43 166.843 122.69 169.563 123.69 169.323C124.69 169.083 125.43 170.063 126.67 169.823C127.91 169.583 127.91 167.083 127.91 165.103C127.91 163.123 128.17 161.623 126.93 160.863C125.69 160.103 124.69 158.383 126.17 157.643C126.838 157.439 127.33 156.87 127.437 156.18C127.543 155.489 127.245 154.799 126.67 154.403C125.43 153.403 122.67 155.403 122.67 154.403C122.67 153.863 122.89 151.923 123.11 150.263C120.23 150.263 117.11 150.003 117.11 150.003L116.37 150.223C116.468 151.951 116.408 153.685 116.19 155.403C116.19 155.403 111.73 155.643 110.73 155.643C110.51 155.643 109.83 155.643 108.87 155.903C108.673 156.206 108.445 156.488 108.19 156.743C107.65 157.283 109.43 157.983 109.73 158.743C110.03 159.503 107.47 159.283 107.53 160.403C107.434 161.462 106.84 162.413 105.93 162.963C105.21 163.503 107.83 165.763 107.93 166.523C108.03 167.283 108.57 168.023 110.83 170.223C113.09 172.423 111.97 172.863 114.83 175.163C115.226 174.485 115.945 174.061 116.73 174.043Z" fill="#294F6E" stroke="#002F57" stroke-width="0.75"/>
<path fill-rule="evenodd" clip-rule="evenodd" d="M116.23 155.403C116.448 153.685 116.508 151.951 116.41 150.223L115.41 150.503H109.85C109.841 150.542 109.841 150.583 109.85 150.623C110.159 151.08 110.23 151.659 110.04 152.178C109.85 152.697 109.422 153.093 108.89 153.243C107.65 153.663 107.71 154.783 108.71 154.843C109.33 154.843 109.19 155.383 108.87 155.903C109.83 155.743 110.51 155.643 110.73 155.643C111.73 155.643 116.23 155.403 116.23 155.403Z" fill="#294F6E" stroke="#002F57" stroke-width="0.75"/>
<path fill-rule="evenodd" clip-rule="evenodd" d="M122.45 177.783C123.19 178.023 123.69 179.263 125.19 178.023C126.69 176.783 128.41 177.023 128.41 178.283C128.41 179.543 128.91 179.263 130.15 178.023C131.39 176.783 132.65 178.263 132.65 175.783C132.65 173.303 134.13 175.543 134.13 172.803C134.13 170.063 134.39 167.323 134.39 166.083C134.39 164.843 137.87 163.603 137.87 161.623C137.87 159.643 140.85 155.623 140.85 153.163C140.781 151.618 141.311 150.106 142.33 148.943C142.985 147.654 143.196 146.184 142.93 144.763L139.47 144.263L137.73 144.763L135.49 145.263C135.621 146.307 135.357 147.363 134.75 148.223C134.041 149.446 133.617 150.813 133.51 152.223C133.51 152.223 129.05 149.983 127.81 150.223C126.251 150.308 124.689 150.308 123.13 150.223C122.91 151.883 122.69 153.823 122.69 154.363C122.69 155.363 125.43 153.363 126.69 154.363C127.266 154.759 127.564 155.449 127.457 156.14C127.351 156.83 126.858 157.399 126.19 157.603C124.71 158.343 125.69 160.083 126.95 160.823C128.21 161.563 127.93 163.063 127.93 165.063C127.93 167.063 127.93 169.523 126.69 169.783C125.45 170.043 124.69 169.043 123.71 169.283C122.73 169.523 122.47 166.803 121.47 166.803C120.47 166.803 120.99 169.043 119.73 169.043C118.47 169.043 116.51 168.783 117.25 170.763C117.99 172.743 118.75 174.003 116.75 174.003C115.925 173.989 115.159 174.426 114.75 175.143L115.17 175.483C116.641 176.604 117.826 178.057 118.63 179.723C119.751 178.812 121.053 178.151 122.45 177.783Z" fill="#294F6E" stroke="#002F57" stroke-width="0.75"/>
<path fill-rule="evenodd" clip-rule="evenodd" d="M208.45 64.6025C207.27 64.6025 207.73 67.4425 205.83 67.4425C203.93 67.4425 204.65 69.4425 203.45 69.4425C202.608 69.3364 201.84 68.9059 201.31 68.2425H196.09C196.09 68.2425 194.89 67.0625 194.19 67.5225L192.75 68.4825H168.23V76.9425H164.51V89.9225C164.51 89.9225 164.75 93.9225 164.01 94.1425C163.27 94.3625 160.53 95.1225 160.53 96.3625C160.53 97.6025 160.29 98.6025 159.05 98.8425C157.81 99.0825 159.05 101.822 157.31 101.822C155.57 101.822 158.07 103.822 157.07 104.802C156.07 105.782 156.33 107.022 157.57 107.022C158.81 107.022 158.31 108.522 158.31 110.002C158.31 111.482 160.31 112.482 160.31 112.482L159.81 114.222C160.906 115.476 161.902 116.814 162.79 118.222C163.05 118.962 164.53 120.962 163.05 121.702C161.57 122.442 162.55 123.182 162.55 123.182L164.27 123.442L164.77 124.682C166.005 124.721 167.173 125.254 168.01 126.162C169.25 127.642 169.73 127.902 169.73 128.642C169.73 129.382 170.73 129.642 172.21 130.882C173.69 132.122 173.71 132.882 173.71 133.602C173.71 134.322 176.43 135.602 176.43 135.602L177.35 137.922C177.827 138.125 178.208 138.505 178.41 138.982C178.777 139.808 179.383 140.505 180.15 140.982C180.15 140.982 181.63 141.982 182.63 140.982C183.63 139.982 184.87 141.242 184.87 141.242C184.87 141.242 186.11 140.242 186.87 140.742C187.63 141.242 189.59 142.902 191.51 144.742C192.475 144.36 193.472 144.065 194.49 143.862C195.39 143.862 196.63 145.282 196.99 144.762C197.763 143.993 198.851 143.631 199.93 143.782C200.65 144.122 202.33 144.222 202.43 143.602C202.53 142.982 203.25 142.742 203.79 142.282C204.02 142.127 204.195 141.903 204.29 141.642C204.47 140.922 206.61 139.642 207.51 139.482C208.41 139.322 209.51 139.222 209.91 139.762C210.203 140.034 210.551 140.239 210.93 140.362C211.23 138.082 211.73 136.842 210.93 136.842C209.234 136.605 207.8 135.463 207.19 133.862C206.45 131.862 204.21 130.622 203.73 129.382C203.25 128.142 200.49 128.382 199.99 127.382C199.49 126.382 200.73 126.402 200.73 125.162C200.73 123.922 203.73 124.662 203.97 124.402C204.331 122.944 204.499 121.445 204.47 119.942C204.47 118.442 206.47 116.962 205.71 116.202C204.95 115.442 206.45 115.202 207.45 114.462C208.45 113.722 207.69 111.482 208.69 110.462C209.69 109.442 210.43 107.482 211.17 107.482C212.147 107.305 212.87 106.474 212.91 105.482C212.91 104.482 214.65 102.502 214.41 100.762C214.17 99.0224 213.41 96.7625 214.65 95.2825C215.749 94.2574 216.304 92.7771 216.15 91.2825C215.89 90.0425 217.63 89.8025 218.39 89.0424C219.903 88.1268 221.211 86.9079 222.23 85.4625C221.548 84.546 220.7 83.7658 219.73 83.1625C218.31 82.5225 217.35 80.0225 217.35 76.8625C217.262 74.619 216.96 72.3889 216.45 70.2025C215.833 68.4336 214.587 66.9531 212.95 66.0424C211.771 65.4424 210.942 64.3245 210.71 63.0225L210.57 63.1825C209.41 64.8425 209.73 64.6025 208.45 64.6025Z" fill="#294F6E" stroke="#002F57" stroke-width="0.75"/>
<path fill-rule="evenodd" clip-rule="evenodd" d="M218.41 89.0228C217.65 89.7828 215.91 90.0228 216.17 91.2628C216.323 92.7574 215.768 94.2377 214.67 95.2628C213.43 96.7428 214.17 98.9628 214.43 100.703C215.549 100.504 216.698 100.566 217.79 100.883C218.41 101.503 218.67 100.883 219.05 99.6228C219.43 98.3628 220.17 98.5028 220.93 99.1228C221.69 99.7428 222.17 100.763 223.43 100.123C224.69 99.4828 224.55 99.8828 225.19 100.123C226.522 100.193 227.857 100.193 229.19 100.123C230.07 100.243 237.71 108.403 237.71 108.403C238.67 108.523 239.33 108.663 239.71 108.263C240.038 107.967 240.401 107.712 240.79 107.503C239.254 106.003 237.824 104.4 236.51 102.703C235.028 100.479 232.753 98.905 230.15 98.3028C228.73 98.3028 228.49 95.8628 227.59 95.7428C226.69 95.6228 224.69 92.1228 224.63 89.8628C224.309 88.1879 223.526 86.6361 222.37 85.3828C221.322 86.8625 219.972 88.1031 218.41 89.0228Z" fill="#294F6E" stroke="#002F57" stroke-width="0.75"/>
<path fill-rule="evenodd" clip-rule="evenodd" d="M203.73 129.302C204.21 130.542 206.45 131.782 207.19 133.782C207.8 135.383 209.233 136.525 210.93 136.762C211.67 136.762 211.17 138.002 210.93 140.282C211.374 140.443 211.808 140.63 212.23 140.842C212.87 141.202 215.45 140.842 216.23 141.642C217.59 142.826 219.165 143.736 220.87 144.322C222.445 144.382 224.005 144.651 225.51 145.122C226.05 145.482 226.77 143.782 228.19 142.982C229.61 142.182 231.39 141.642 231.67 142.262C232.023 143.012 232.897 143.362 233.67 143.062C234.32 142.82 234.989 142.633 235.67 142.502C236.736 142.222 237.829 142.055 238.93 142.002C239.65 142.002 241.61 139.242 244.19 139.242C246.77 139.242 247.49 139.682 248.65 138.422C249.81 137.162 258.55 128.422 259.35 127.722C260.15 127.022 258.81 126.842 257.93 126.842C256.018 126.796 254.134 126.367 252.39 125.582C249.53 124.422 245.09 122.922 244.27 122.742C243.45 122.562 242.27 120.742 241.61 120.322C240.559 119.274 239.711 118.04 239.11 116.682C238.99 116.402 239.27 115.822 239.71 115.182C238.85 114.362 238.41 114.122 237.83 114.522C237.25 114.922 235.83 115.142 235.57 114.642C235.038 113.567 235.083 112.297 235.69 111.262C236.424 110.351 237.092 109.388 237.69 108.382C237.69 108.382 230.05 100.222 229.17 100.102C227.837 100.172 226.502 100.172 225.17 100.102C224.53 99.8622 224.65 99.4822 223.41 100.102C222.17 100.722 221.65 99.7222 220.91 99.1022C220.17 98.4822 219.39 98.3422 219.03 99.6022C218.67 100.862 218.39 101.482 217.77 100.862C216.679 100.545 215.529 100.483 214.41 100.682C214.65 102.422 212.91 104.402 212.91 105.402C212.87 106.394 212.147 107.225 211.17 107.402C210.43 107.402 209.69 109.402 208.69 110.382C207.69 111.362 208.45 113.622 207.45 114.382C206.45 115.142 204.97 115.382 205.71 116.122C206.45 116.862 204.47 118.362 204.47 119.862C204.499 121.364 204.331 122.864 203.97 124.322C203.73 124.582 200.73 123.842 200.73 125.082C200.73 126.322 199.49 126.322 199.99 127.302C200.49 128.282 203.25 128.062 203.73 129.302Z" fill="#294F6E" stroke="#002F57" stroke-width="0.75"/>
<path fill-rule="evenodd" clip-rule="evenodd" d="M231.93 148.202L233.77 145.322L235.77 142.502C235.089 142.633 234.42 142.821 233.77 143.062C232.996 143.362 232.123 143.013 231.77 142.262C231.49 141.642 229.77 142.262 228.29 142.982C226.81 143.702 226.15 145.482 225.61 145.122C224.105 144.651 222.545 144.382 220.97 144.322C219.265 143.736 217.689 142.826 216.33 141.642C215.45 140.842 212.87 141.202 212.33 140.842C211.79 140.482 210.47 140.222 210.01 139.682C209.55 139.142 208.51 139.242 207.61 139.402C206.71 139.562 204.57 140.842 204.39 141.562C204.295 141.823 204.12 142.047 203.89 142.202L205.71 143.882L206.13 146.762L207.77 148.202C207.761 149.305 207.694 150.407 207.57 151.502C207.146 153.3 206.216 154.938 204.89 156.222C204.375 156.993 203.977 157.835 203.71 158.722C205.27 159.122 206.45 159.722 206.37 160.182C206.19 161.162 203.51 160.722 203.51 162.782V163.182L218.71 171.182L218.49 173.662C218.49 173.662 221.91 176.162 225.25 178.442C226.424 175.459 227.759 172.541 229.25 169.702C230.15 168.342 231.05 168.582 231.81 167.702C232.57 166.822 232.83 168.182 234.01 166.282C234.121 166.11 234.241 165.943 234.37 165.782L232.37 162.622L231.93 148.202Z" fill="#294F6E" stroke="#002F57" stroke-width="0.75"/>
<path fill-rule="evenodd" clip-rule="evenodd" d="M205.99 146.762L205.57 143.882L203.75 142.202C203.21 142.662 202.45 143.082 202.39 143.522C202.33 143.962 200.61 144.042 199.89 143.702C198.81 143.55 197.722 143.913 196.95 144.682C196.59 145.202 195.35 143.702 194.45 143.782C193.418 143.991 192.408 144.292 191.43 144.682C191.43 144.682 191.07 147.162 191.07 148.142C191.07 149.122 192.41 149.302 192.41 150.142C192.41 150.982 191.33 151.642 191.25 152.142C191.17 152.642 190.43 153.042 189.55 153.302C188.67 153.562 188.75 155.002 188.03 155.522C187.31 156.042 187.49 157.402 187.05 158.382C186.584 159.484 186.339 160.666 186.33 161.862C186.4 162.879 186.17 163.894 185.67 164.782C186.356 164.923 187.069 164.802 187.67 164.442C189.018 163.948 190.393 163.534 191.79 163.202L195.15 162.922C195.89 160.922 196.99 158.922 198.19 158.562C199.968 158.17 201.815 158.218 203.57 158.702C203.838 157.815 204.235 156.973 204.75 156.202C206.076 154.917 207.006 153.279 207.43 151.482C207.554 150.386 207.621 149.285 207.63 148.182L205.99 146.762Z" fill="#294F6E" stroke="#002F57" stroke-width="0.75"/>
<path fill-rule="evenodd" clip-rule="evenodd" d="M265.41 208.583C264.87 206.583 264.45 209.303 263.97 209.763C263.457 210.623 263.252 211.631 263.39 212.623C263.51 213.583 261.95 214.523 261.01 214.403C260.07 214.283 258.51 214.883 259.01 216.183C259.51 217.483 258.29 217.263 258.89 218.323C259.49 219.383 257.57 220.703 255.91 220.823C254.25 220.943 252.11 223.923 250.33 223.683C248.55 223.443 246.75 224.863 245.21 224.643C243.67 224.423 244.73 227.843 243.55 229.983C242.37 232.123 242.95 234.623 244.03 237.243C245.11 239.863 245.93 241.983 243.07 245.443C240.734 248.079 240.134 251.829 241.53 255.063C242.59 257.443 242.59 261.063 244.15 262.683C245.71 264.303 249.97 265.763 251.27 264.463C252.57 263.163 253.95 264.643 255.43 262.923C256.91 261.203 259.25 252.103 261.27 246.043C263.29 239.983 265.89 232.043 265.67 230.343C265.45 228.643 267.09 227.603 266.37 225.823C265.65 224.043 266.61 221.823 267.45 223.323C268.29 224.823 269.45 224.743 269.83 222.843C270.21 220.943 268.39 217.983 268.27 215.243C268.15 212.503 265.73 209.923 265.41 208.583Z" fill="#294F6E" stroke="#002F57" stroke-width="0.75"/>
<path fill-rule="evenodd" clip-rule="evenodd" d="M186.15 187.742C184.15 186.682 183.39 173.202 184.37 172.862C184.51 172.862 184.63 172.862 184.75 173.222L184.55 170.182H184.29C183.797 170.002 183.475 169.527 183.49 169.002C183.429 168.443 183.815 167.934 184.37 167.842C184.37 167.842 184.19 165.622 185.17 165.262C185.368 165.184 185.541 165.053 185.67 164.882C186.17 163.994 186.4 162.979 186.33 161.962C186.339 160.766 186.583 159.584 187.05 158.482C187.49 157.502 187.31 156.162 188.03 155.622C188.75 155.082 188.65 153.622 189.55 153.402C190.45 153.182 191.15 152.782 191.25 152.242C191.35 151.702 192.41 151.002 192.41 150.242C192.41 149.482 191.07 149.242 191.07 148.242C191.07 147.242 191.43 144.782 191.43 144.782C189.43 143.022 187.29 141.182 186.79 140.782C186.29 140.382 184.79 141.282 184.79 141.282C184.79 141.282 183.55 140.022 182.55 141.022C181.55 142.022 180.07 141.022 180.07 141.022C179.303 140.545 178.697 139.848 178.33 139.022C178.127 138.545 177.747 138.165 177.27 137.962V138.122L174.29 138.622C174.29 138.622 170.57 136.622 169.83 138.122C169.09 139.622 168.33 138.622 166.61 138.622C165.124 138.694 163.678 139.119 162.39 139.862C161.39 140.362 159.91 139.362 159.17 139.862C158.43 140.362 157.93 142.582 157.93 142.582L150.23 141.102C150.23 141.102 148.75 138.862 147.01 138.862C145.27 138.862 142.79 142.102 142.79 142.102V144.782C143.056 146.204 142.845 147.673 142.19 148.962C141.171 150.126 140.641 151.637 140.71 153.182C140.71 155.662 137.73 159.642 137.73 161.642C137.73 163.642 134.25 164.862 134.25 166.102C134.25 167.342 133.99 170.102 133.99 172.822C133.99 175.542 132.51 173.322 132.51 175.802C132.51 178.282 131.25 176.802 130.01 178.042C128.77 179.282 128.27 179.542 128.27 178.302C128.27 177.062 126.53 176.802 125.05 178.042C123.57 179.282 123.05 178.042 122.31 177.802C120.929 178.196 119.648 178.878 118.55 179.802C119.195 181.222 119.671 182.712 119.97 184.242C119.97 184.382 119.97 184.522 120.07 184.662C120.742 184.104 121.516 183.683 122.35 183.422C123.59 183.242 135.37 183.422 135.37 183.422C135.967 184.442 136.219 185.628 136.09 186.802C135.73 188.402 136.79 187.702 137.69 189.842C138.59 191.982 139.29 192.862 141.07 192.342C142.56 191.824 144.132 191.58 145.71 191.622C146.43 191.802 146.25 188.582 147.31 188.042C148.365 187.765 149.474 187.765 150.53 188.042C150.53 188.042 150.71 188.942 152.53 188.942C154.35 188.942 155.21 188.222 155.21 189.482C155.109 190.596 155.353 191.713 155.91 192.682C156.45 193.222 154.49 197.682 155.39 198.402C156.29 199.122 157.53 200.722 157.39 201.602C157.25 202.482 156.67 204.642 157.39 204.822C158.11 205.002 158.27 203.742 159.53 203.742C160.728 203.893 161.946 203.77 163.09 203.382C163.434 203.231 163.826 203.231 164.17 203.382C164.61 203.628 164.976 203.987 165.23 204.422C165.23 204.422 165.59 205.662 166.31 205.302C167.03 204.942 168.97 204.422 168.79 205.122C168.61 205.822 169.33 207.462 170.05 207.122C170.77 206.782 172.55 208.182 173.43 208.182C174.31 208.182 175.21 208.182 175.21 207.642C175.21 207.102 176.29 206.222 176.65 206.942C177.01 207.662 177.89 209.262 178.79 209.262C179.69 209.262 181.81 209.262 181.81 209.962C181.971 211.24 182.539 212.432 183.43 213.362C184.31 214.062 186.27 213.362 186.27 213.362C186.765 212.907 187.029 212.254 186.99 211.582C186.99 210.322 186.99 208.722 186.45 208.722C185.91 208.722 185.03 209.962 183.77 209.602C182.51 209.242 181.63 206.762 181.11 206.402C180.59 206.042 181.99 203.722 181.99 202.662C181.99 201.602 182.89 198.562 182.17 198.202C181.45 197.842 181.81 196.762 182.71 196.062C183.61 195.362 182.35 193.382 183.77 193.382C185.19 193.382 187.77 193.522 188.61 192.662C188.673 192.612 188.728 192.551 188.77 192.482C188.872 192.282 188.959 192.075 189.03 191.862C188.17 190.342 187.27 188.342 186.15 187.742Z" fill="#294F6E" stroke="#002F57" stroke-width="0.75"/>
<path fill-rule="evenodd" clip-rule="evenodd" d="M184.75 173.223C185.194 174.587 185.529 175.985 185.75 177.403C186.55 176.903 187.19 176.503 187.47 176.383C188.49 175.983 190.75 171.663 190.75 171.663L189.73 171.043C189.792 170.332 189.738 169.616 189.57 168.923C188.937 168.975 188.302 168.975 187.67 168.923C187.67 168.923 187.87 170.563 185.67 170.163C185.232 170.097 184.792 170.057 184.35 170.043H184.61L184.75 173.223Z" fill="#294F6E" stroke="#002F57" stroke-width="0.75"/>
<path fill-rule="evenodd" clip-rule="evenodd" d="M230.87 219.763C230.148 217.207 229.805 214.559 229.85 211.903C230.09 209.903 229.49 204.783 229.49 202.283V202.123C227.97 202.703 226.532 203.476 225.21 204.423C224.85 205.123 223.31 204.303 222.37 205.123C221.43 205.943 220.81 205.263 219.99 205.123C219.17 204.983 218.79 205.943 218.67 206.663C218.55 207.383 216.89 207.023 216.29 206.903C215.69 206.783 213.81 207.383 212.85 207.383C211.89 207.383 212.61 206.543 211.55 206.183C210.49 205.823 209.77 206.663 209.17 206.663C208.57 206.663 207.69 206.523 206.89 206.423C206.891 206.898 206.817 207.371 206.67 207.823C205.89 209.823 208.27 214.403 208.39 216.323C209.259 217.043 210.074 217.825 210.83 218.663C211.91 219.983 210.83 219.863 210.95 222.663C211.07 225.463 209.77 224.323 208.69 225.263C207.61 226.203 208.57 228.363 208.33 228.963C208.09 229.563 204.89 224.783 204.65 224.083C204.41 223.383 205.83 220.503 205.49 218.843C205.15 217.183 202.99 218.263 202.27 218.363C201.55 218.463 199.89 216.463 199.53 216.463C199.17 216.463 188.35 220.463 188.35 220.463L189.19 223.443H188.95L189.55 224.743C191.337 224.811 193.092 225.239 194.71 226.003C196.201 226.684 197.755 227.22 199.35 227.603C199.89 227.963 199.35 231.883 199.53 233.843C199.71 235.803 197.39 236.343 198.47 237.423C199.55 238.503 198.99 240.263 199.71 240.443C200.43 240.623 198.47 242.943 197.57 243.483C196.67 244.023 197.57 245.983 196.51 247.483C195.81 248.403 193.81 250.183 192.51 251.483C192.564 251.513 192.612 251.554 192.65 251.603C193.01 252.243 194.09 258.483 195.15 259.103C196.21 259.723 195.61 265.883 195.51 266.423C195.41 266.963 195.95 271.043 195.95 271.043C196.943 270.9 197.946 270.827 198.95 270.823C199.05 270.003 199.11 269.303 199.15 268.823C199.25 266.923 197.95 268.463 197.53 267.283C197.11 266.103 200.45 263.883 203.83 262.643C207.21 261.403 208.53 260.643 208.89 259.483C209.25 258.323 208.89 254.983 209.31 253.663C209.73 252.343 209.01 251.663 208.59 248.603C208.17 245.543 207.11 245.163 206.59 243.503C206.07 241.843 206.23 240.523 207.25 240.463C208.27 240.403 208.25 239.923 209.09 238.323C209.93 236.723 210.87 237.383 212.47 236.183C214.07 234.983 214.13 233.503 216.69 231.543C219.25 229.583 222.05 229.643 224.55 228.163C227.05 226.683 231.27 220.823 230.87 219.763Z" fill="#294F6E" stroke="#002F57" stroke-width="0.75"/>
<path fill-rule="evenodd" clip-rule="evenodd" d="M226.65 198.483C226.53 196.043 225.09 196.043 225.15 194.383C225.21 192.723 225.33 191.223 224.75 191.043C224.17 190.863 224.51 189.443 225.45 188.003C226.39 186.563 223.73 186.403 223.31 184.623C223.557 182.498 224.159 180.429 225.09 178.503C221.75 176.223 218.33 173.723 218.33 173.723L218.55 171.243L203.35 163.243C203.414 164.771 202.65 166.216 201.35 167.023C200.19 167.563 202.95 169.263 201.61 169.523C200.27 169.783 197.25 168.283 195.11 169.163C193.67 169.763 193.97 166.163 195.11 163.003L191.75 163.283C191.75 163.283 190.83 163.503 189.85 163.783L190.51 165.543C190.938 166.37 191.151 167.292 191.13 168.223C191.03 168.683 190.29 168.903 189.53 168.983C189.698 169.676 189.752 170.392 189.69 171.103L190.71 171.723C190.71 171.723 188.45 176.043 187.43 176.443C187.15 176.563 186.51 176.963 185.71 177.463C186.31 180.503 187.05 184.123 188.17 185.123C190.17 187.003 189.87 189.123 190.31 190.383C190.75 191.643 192.53 193.063 191.29 193.603C190.49 193.943 189.77 193.083 189.05 191.903C188.979 192.116 188.892 192.323 188.79 192.523C188.748 192.592 188.694 192.653 188.63 192.703C189.487 193.44 190.478 194.004 191.55 194.363C192.57 194.363 194.21 195.603 195.25 195.803C197.073 196.276 198.809 197.039 200.39 198.063C200.483 198.192 200.57 198.325 200.65 198.463C201.556 198.403 202.464 198.403 203.37 198.463C203.529 198.32 203.736 198.242 203.95 198.243C205.31 198.243 206.91 203.383 206.85 206.383C207.65 206.483 208.85 206.623 209.13 206.623C209.41 206.623 210.43 205.783 211.51 206.143C212.59 206.503 211.87 207.343 212.81 207.343C213.75 207.343 215.67 206.743 216.25 206.863C216.83 206.983 218.51 207.343 218.63 206.623C218.75 205.903 219.11 204.843 219.95 205.083C220.79 205.323 221.37 206.023 222.33 205.083C223.29 204.143 224.81 205.083 225.17 204.383C226.492 203.436 227.93 202.663 229.45 202.083C229.37 199.923 226.75 200.863 226.65 198.483Z" fill="#294F6E" stroke="#002F57" stroke-width="0.75"/>
<path fill-rule="evenodd" clip-rule="evenodd" d="M210.83 218.563C210.074 217.724 209.259 216.942 208.39 216.223C208.424 216.456 208.381 216.695 208.27 216.903C207.23 218.423 204.27 213.703 203.91 210.743C203.55 207.783 205.59 206.383 204.35 203.623C203.31 201.303 202.65 199.083 203.41 198.403C202.504 198.342 201.595 198.342 200.69 198.403C201.45 199.634 201.991 200.987 202.29 202.403C202.29 203.223 201.25 202.203 200.85 203.223C200.45 204.243 200.23 208.983 201.05 209.803C201.87 210.623 199.41 210.023 199.41 210.843C199.45 212.17 199.24 213.493 198.79 214.743C198.55 214.863 199.03 215.563 199.49 216.523C199.85 216.523 201.49 218.523 202.23 218.423C202.97 218.323 205.09 217.243 205.45 218.903C205.81 220.563 204.37 223.423 204.61 224.143C204.85 224.863 208.05 229.603 208.29 229.023C208.53 228.443 207.59 226.283 208.65 225.323C209.71 224.363 211.03 225.563 210.91 222.723C210.79 219.883 211.91 219.923 210.83 218.563Z" fill="#294F6E" stroke="#002F57" stroke-width="0.75"/>
</svg>
