<?xml version="1.0" encoding="utf-8"?>
<svg xmlns="http://www.w3.org/2000/svg" xmlns:xlink="http://www.w3.org/1999/xlink" viewBox="0 0 1000 607.22"><defs><style>.cls-1{fill:#003057;}.cls-2{fill:url(#linear-gradient);}.cls-3{fill:url(#linear-gradient-2);}.cls-4{fill:url(#linear-gradient-3);}</style><linearGradient id="linear-gradient" x1="188.35" y1="110.79" x2="753.78" y2="110.79" gradientUnits="userSpaceOnUse"><stop offset="0" stop-color="#c8102e"/><stop offset="0.5" stop-color="#640c39"/><stop offset="1" stop-color="#003057"/></linearGradient><linearGradient id="linear-gradient-2" x1="188.35" y1="329.37" x2="753.78" y2="329.37" xlink:href="#linear-gradient"/><linearGradient id="linear-gradient-3" x1="188.35" y1="285.47" x2="753.78" y2="285.47" xlink:href="#linear-gradient"/></defs><g id="Layer_2" data-name="Layer 2"><g id="Layer_1-2" data-name="Layer 1"><path class="cls-1" d="M32.11,547.15c3.17,0,6.46.11,10,.32v-.85c0-11-6.14-13.35-16.52-13.35a67.86,67.86,0,0,0-18.23,2l-2-8.7a96.63,96.63,0,0,1,20.77-2c13.23,0,25.75,4.24,25.75,23.52v36a193.52,193.52,0,0,1-23.85,1.8C9.31,585.93,0,580.75,0,566.42,0,551.6,11.23,547.15,32.11,547.15Zm10,9.11c-3.39,0-6.88-.42-11.54-.42-13.78,0-20.88,2.44-20.88,10.58,0,7.85,4.77,10.82,18.33,10.82,3.92,0,8.59-.31,14.09-.74Z"/><path class="cls-1" d="M145.47,584.13h-9.75V548.2c0-7-2.85-14.93-12.61-14.93a30,30,0,0,0-16,4.65,35.5,35.5,0,0,1,1.49,9.65v36.56H98.85V547.57c0-10-4.55-14.3-14-14.3a57.37,57.37,0,0,0-13.23,1.27v49.59H61.87V526.38a149.28,149.28,0,0,1,22.57-1.8c5.4,0,12.29.75,17.8,5.51a41.71,41.71,0,0,1,20.66-5.51c13.77,0,22.57,8.06,22.57,23.1Z"/><path class="cls-1" d="M163.66,559.65c1.38,14.52,9,17.59,20,17.59a96.63,96.63,0,0,0,20.34-2l2,8.69a144.13,144.13,0,0,1-23.09,2c-20.25,0-29.14-9.11-29.14-30.72,0-17.49,6.35-30.63,27.33-30.63,16.21,0,27.34,8.69,27.34,30.63,0,1,0,2.22-.11,4.44Zm35-8.59c0-12.49-7.31-17.79-17.48-17.79-9.11,0-17.48,5.3-17.48,17.79Z"/><path class="cls-1" d="M226.65,534.23v49.9H216.9V526.38a110,110,0,0,1,19.29-1.8c14.94.1,24.05,7,24.05,21.93h-9.85c0-8.15-3.28-13.24-14.73-13.24A37.84,37.84,0,0,0,226.65,534.23Z"/><path class="cls-1" d="M273.64,516.22c-4.87,0-6.15-3.08-6.15-6.58s1.28-6.57,6.15-6.57,6.14,3.08,6.14,6.57S278.94,516.22,273.64,516.22Zm4.76,10.16v57.75h-9.75V526.38Z"/><path class="cls-1" d="M335.83,584.17a141,141,0,0,1-20.67,1.59c-18.64,0-28.27-9.75-28.27-30.19,0-16.12,6.35-31.17,27.33-31.17,5.5,0,14.2.42,20.33,1.91l-2,8.48c-9.86-1.59-12.19-1.7-16.53-1.7-17,0-19.28,11-19.28,21.51,0,16.73,4.86,22.35,20.55,22.35a148.57,148.57,0,0,0,16.85-1.47Z"/><path class="cls-1" d="M374.84,547.15c3.18,0,6.47.11,10.06.32v-.85c0-11-6.13-13.35-16.52-13.35a67.72,67.72,0,0,0-18.22,2l-2-8.7a96.63,96.63,0,0,1,20.77-2c13.24,0,25.74,4.24,25.74,23.52v36a193.1,193.1,0,0,1-23.84,1.8c-18.75,0-28.08-5.18-28.08-19.51C342.73,551.6,354,547.15,374.84,547.15Zm10.06,9.11c-3.39,0-6.88-.42-11.54-.42-13.78,0-20.88,2.44-20.88,10.58,0,7.85,4.77,10.82,18.33,10.82,3.93,0,8.58-.31,14.09-.74Z"/><path class="cls-1" d="M414.41,584.13h-9.73V526.38a172.37,172.37,0,0,1,25.41-1.8c11.78,0,24.49,3.6,24.49,23.74v35.81h-9.76V549.38c0-11-3.28-16.11-14-16.11a117.08,117.08,0,0,0-16.43,1.27Z"/><path class="cls-1" d="M472.85,559.65c1.38,14.52,9,17.59,20,17.59a96.73,96.73,0,0,0,20.35-2l2,8.69a144.15,144.15,0,0,1-23.1,2c-20.23,0-29.13-9.11-29.13-30.72,0-17.49,6.35-30.63,27.34-30.63,16.19,0,27.33,8.69,27.33,30.63,0,1,0,2.22-.1,4.44Zm35-8.59c0-12.49-7.31-17.79-17.48-17.79-9.12,0-17.49,5.3-17.49,17.79Z"/><path class="cls-1" d="M556.66,547.15c3.18,0,6.46.11,10.07.32v-.85c0-11-6.15-13.35-16.53-13.35a67.86,67.86,0,0,0-18.23,2l-2-8.7a96.69,96.69,0,0,1,20.77-2c13.25,0,25.75,4.24,25.75,23.52v36a193.39,193.39,0,0,1-23.85,1.8c-18.75,0-28.06-5.18-28.06-19.51C524.57,551.6,535.79,547.15,556.66,547.15Zm10.07,9.11c-3.4,0-6.89-.42-11.55-.42-13.77,0-20.88,2.44-20.88,10.58,0,7.85,4.77,10.82,18.33,10.82,3.92,0,8.59-.31,14.1-.74Z"/><path class="cls-1" d="M592.21,597a128.74,128.74,0,0,0,18.44,1.59c12,0,16.41-1.27,16.41-14.41a72.36,72.36,0,0,1-15.78,1.8c-15.57,0-26.38-9.64-26.38-30.83,0-20,10.59-30.52,30.94-30.52a115.72,115.72,0,0,1,20.85,1.8v57.75c0,17.38-7.18,23.09-25.63,23.09-6.56,0-10.59-.1-21.61-1.9Zm34.85-63.15c-4-.31-8.15-.53-12-.53-14.4,0-20.45,8.16-20.45,21.83,0,15.68,4.67,22.14,17.48,22.14a60.6,60.6,0,0,0,14.94-1.8Z"/><path class="cls-1" d="M666.14,585.71c-1.44.13-2.86.22-4.23.22-8.58,0-15.26-3.07-15.26-14.09V503.07h9.86v64.74c0,7.74,1.27,9.43,6.15,9.43a7.09,7.09,0,0,0,1.36-.06Z"/><path class="cls-1" d="M682.89,559.65c1.36,14.52,9,17.59,20,17.59a96.73,96.73,0,0,0,20.35-2l2,8.69a144.26,144.26,0,0,1-23.1,2c-20.25,0-29.14-9.11-29.14-30.72,0-17.49,6.36-30.63,27.34-30.63,16.2,0,27.33,8.69,27.33,30.63,0,1,0,2.22-.1,4.44Zm35-8.59c0-12.49-7.3-17.79-17.48-17.79-9.11,0-17.48,5.3-17.48,17.79Z"/><path class="cls-1" d="M804.76,584.35a142.3,142.3,0,0,1-20.66,1.58c-18.64,0-28.29-9.74-28.29-30.19,0-16.12,6.36-31.16,27.34-31.16,5.51,0,14.2.41,20.34,1.9l-2,8.49c-9.83-1.6-12.17-1.7-16.53-1.7-17.05,0-19.28,11-19.28,21.51,0,16.73,4.88,22.35,20.57,22.35a149,149,0,0,0,16.84-1.47Z"/><path class="cls-1" d="M839.53,524.58c22.44,0,27.86,15,27.86,30.63,0,16.43-5.42,30.72-27.86,30.72s-27.87-14.29-27.87-30.72C811.66,539.62,817.05,524.58,839.53,524.58Zm0,8.69c-16.76,0-18.12,12.4-18.12,21.94,0,10.17,1.36,22,18.12,22,17.46,0,18.1-11.86,18.1-22C857.63,545.67,857,533.27,839.53,533.27Z"/><path class="cls-1" d="M959.42,584.13h-9.75V548.2c0-7-2.87-14.93-12.6-14.93a30,30,0,0,0-16,4.65,35.11,35.11,0,0,1,1.49,9.65v36.56h-9.75V547.57c0-10-4.55-14.3-14-14.3a57.5,57.5,0,0,0-13.24,1.27v49.59h-9.75V526.38a149.51,149.51,0,0,1,22.58-1.8c5.41,0,12.27.75,17.79,5.51a41.69,41.69,0,0,1,20.67-5.51c13.76,0,22.57,8.06,22.57,23.1Z"/><path class="cls-1" d="M741.76,547.53c5.77,0,7.15,3.86,7.15,7.87,0,4.22-1.38,7.88-7.15,7.88s-7.17-3.66-7.17-7.88C734.59,551.39,736,547.53,741.76,547.53Z"/><path class="cls-1" d="M1000,573.65a10.62,10.62,0,1,1-10.52-10.33A10.41,10.41,0,0,1,1000,573.65Zm-18.58,0a8,8,0,0,0,8.06,8.25,7.9,7.9,0,0,0,7.87-8.18,8,8,0,1,0-15.93-.07Zm6.36,5.36h-2.39V568.68a27.1,27.1,0,0,1,4-.32,5.49,5.49,0,0,1,3.52.82,2.61,2.61,0,0,1,1.07,2.21,2.66,2.66,0,0,1-2.14,2.45V574c1,.31,1.51,1.13,1.83,2.52a9.57,9.57,0,0,0,.75,2.52h-2.52a8.24,8.24,0,0,1-.81-2.52c-.19-1.07-.82-1.58-2.14-1.58h-1.14Zm.06-5.8H989c1.32,0,2.39-.44,2.39-1.51s-.69-1.57-2.2-1.57a6.07,6.07,0,0,0-1.33.12Z"/><path class="cls-2" d="M289.44,150.64a222.21,222.21,0,0,0,34.17,17.46q41.82,20.28,85.86,36.47,25.11,9.21,50.89,17-19.75-10.71-38.93-22.32-12.07-7.31-23.91-15A941.87,941.87,0,0,1,214,28.86Q201,14.7,188.67,0a222.81,222.81,0,0,0,14.6,49.63A221.35,221.35,0,0,0,289.44,150.64Z"/><path class="cls-3" d="M822,309.86l-.23-.13A84.69,84.69,0,0,0,784,299c-.39-1.1-.82-2.18-1.28-3.24-.25-.57-.5-1.14-.77-1.7s-.61-1.23-.93-1.84a51.31,51.31,0,0,0-11.74-14.75,52.33,52.33,0,0,0-6.93-5.06l-.08,0-.55-.33a51.9,51.9,0,0,0-7.62-3.67,50.88,50.88,0,0,0-18-3.37H623l1.5.65a221.3,221.3,0,0,1,24.25,12.55c2.14,1.29,4.26,2.6,6.36,4q6.79,4.38,13.24,9.25l1,.74c1.71,1.31,3.41,2.64,5.07,4q5.82,4.71,11.28,9.79c.59.54,1.17,1.09,1.75,1.64q4,3.81,7.83,7.81,4,4.24,7.88,8.7c.74.86,1.48,1.73,2.21,2.61q3.06,3.67,6,7.48,6.71,8.8,12.53,18.27c1.2,1.94,2.36,3.9,3.5,5.87q2.49,4.36,4.8,8.83l.07.14a221.54,221.54,0,0,1,11.46,26.37A50.89,50.89,0,0,1,753,364.35l.54-.75a51,51,0,0,1,41.25-20.91,17.05,17.05,0,0,1,17,17.05c0,.05,0,.1,0,.15a51.37,51.37,0,0,0,9.44-9.82,50.82,50.82,0,0,0,8.31-17.57q.59-2.29,1-4.68c.08-.45.15-.9.2-1.37s.08-1.12.08-1.7A17,17,0,0,0,822,309.86Zm-55.29-7.74-1.89.73a51.26,51.26,0,0,1-8.89,1.77,53,53,0,0,1-5.52.29,11.33,11.33,0,0,1-11.39-11.36,10.88,10.88,0,0,1,.1-1.52c-.57-.19-1.15-.37-1.73-.54s-1.11-.3-1.67-.43a34.25,34.25,0,0,0-7.63-.86q-.72,0-1.44,0a34.15,34.15,0,0,1,9.07-2.16c1.08-.1,2.18-.16,3.3-.16l1,0h.51a33.94,33.94,0,0,1,21,8.39l.25.22a12.39,12.39,0,0,0,1.18,1.11,11.39,11.39,0,0,0,4.59,2.24,11.69,11.69,0,0,0,2.59.3,11.55,11.55,0,0,0,2-.19Z"/><path class="cls-4" d="M716.23,367.33q-1.5-2.65-3.06-5.26-4-6.65-8.44-13l-1.27-1.8q-2.87-4-5.89-7.86-4.4-5.61-9.14-10.93-1.5-1.68-3-3.33-5.19-5.59-10.77-10.83a222.72,222.72,0,0,0-17.23-14.59l-.68-.52c-1.1-.84-2.22-1.66-3.35-2.48a221.09,221.09,0,0,0-21.87-14.05q-2.24-1.24-4.5-2.45-2-1.07-4-2.09-9.66-4.89-19.88-8.84l-.76-.3a221.15,221.15,0,0,0-39-10.9c-2.9-.54-5.83-1-8.77-1.43q-11.66-2-23.24-4.21-5.45-1.05-10.88-2.18c-3.29-.68-6.58-1.37-9.87-2.09a935.08,935.08,0,0,1-113-32.14,942.25,942.25,0,0,1-198.18-97.54q-26.49-17.16-51.82-36.09-9.56-7.14-19-14.54A221.64,221.64,0,0,0,149.05,114a222.86,222.86,0,0,0,51,59.56,220.73,220.73,0,0,0,43.59,27.87q8.08,3.93,16.54,7.2a938,938,0,0,0,185.91,56.85l5,1q20.12,3.82,40.47,6.75a929.7,929.7,0,0,0,94.08,8.74c2.32.1,4.64.18,7,.26l2.08.07-2.21.1q-3.74.17-7.46.28a934.89,934.89,0,0,1-105-2.31q-25.2-2-50.24-5.29l-2.3-.31a942.85,942.85,0,0,1-216.2-55.88q-14.81-5.76-29.4-12A222.35,222.35,0,0,0,327.44,306q8.82,1.68,17.84,2.66,14.24,2,28.56,3.55l3.61.38a936.39,936.39,0,0,0,184.17,1.08c3.63-.34,7.26-.69,10.89-1.08q16.31-1.71,32.59-4-16.3,3.56-32.7,6.53-8,1.46-16,2.76a942.5,942.5,0,0,1-193.94,11.45l-5.28-.25q-33.59-1.68-67-5.75a222.51,222.51,0,0,0,50.32,27.09q2.79,1.07,5.61,2.06A221.88,221.88,0,0,0,411.67,365c2.65.1,126.92.15,127.07.15A221.83,221.83,0,0,1,743.05,503.07q.47-3.84.81-7.72a223.69,223.69,0,0,0,.39-33.91A220.36,220.36,0,0,0,716.23,367.33Z"/></g></g></svg>
