<?xml version="1.0" encoding="UTF-8"?>
<svg width="64px" height="64px" viewBox="0 0 64 64" version="1.1" xmlns="http://www.w3.org/2000/svg" xmlns:xlink="http://www.w3.org/1999/xlink">
    <title>api</title>
    <g id="⏹️-Product-Wireframe" stroke="none" stroke-width="1" fill="none" fill-rule="evenodd">
        <g id="DR---Global-Seller-Services" transform="translate(-775.000000, -3233.000000)" fill="#003058" fill-rule="nonzero">
            <g id="components-/-card-/-old-stylee-copy" transform="translate(734.000000, 3136.000000)">
                <g id="api(1)" transform="translate(41.000000, 97.000000)">
                    <path d="M21.47975,30.97425 L22.19825,29.08775 L27.0225,29.08775 L27.7335,30.971625 C27.874625,31.345875 28.230375,31.5765 28.607875,31.5765 C28.7175,31.5765 28.829125,31.557125 28.93775,31.516125 C29.420625,31.333875 29.66425,30.79475 29.482,30.311875 L25.71125,20.319875 C25.708125,20.31125 25.704625,20.302875 25.70125,20.294375 C25.520875,19.856 25.0985,19.573 24.624625,19.573 C24.62425,19.573 24.62375,19.573 24.623375,19.573 C24.149125,19.5735 23.726625,19.857375 23.547,20.296375 C23.544125,20.303375 23.54125,20.3105 23.538625,20.317625 L19.73325,30.30925 C19.5495,30.791625 19.791625,31.3315 20.274,31.515125 C20.7555,31.698625 21.296,31.456625 21.47975,30.97425 L21.47975,30.97425 Z M24.6215,22.7255 L26.31725,27.21875 L22.91025,27.21875 L24.6215,22.7255 Z" id="Shape"></path>
                    <path d="M42.832875,30.49175 L42.832875,20.3575 C42.832875,19.841375 42.4145,19.423 41.898375,19.423 C41.38225,19.423 40.963875,19.841375 40.963875,20.3575 L40.963875,30.49175 C40.963875,31.007875 41.38225,31.42625 41.898375,31.42625 C42.4145,31.42625 42.832875,31.007875 42.832875,30.49175 L42.832875,30.49175 Z" id="Path"></path>
                    <path d="M32.420375,31.576125 C32.9365,31.576125 33.354875,31.15775 33.354875,30.641625 L33.354875,27.169 C33.99475,27.1655 34.811,27.161625 35.242125,27.161625 C37.365375,27.161625 39.092625,25.459375 39.092625,23.36725 C39.092625,21.275125 37.365375,19.572875 35.242125,19.572875 L32.420375,19.572875 C31.960875,19.56225 31.4665,19.981375 31.485875,20.507375 L31.485875,30.64175 C31.48575,31.15775 31.904125,31.576125 32.420375,31.576125 Z M35.242125,21.441875 C36.31625,21.441875 37.223625,22.323625 37.223625,23.36725 C37.223625,24.410875 36.31625,25.292625 35.242125,25.292625 C34.813,25.292625 34.00775,25.2965 33.36925,25.299875 C33.365875,24.64275 33.362,23.8055 33.362,23.36725 C33.362,22.99625 33.35975,22.126125 33.35775,21.441875 L35.242125,21.441875 Z" id="Shape"></path>
                    <path d="M37.985625,55.39575 C37.4695,55.39575 37.051125,55.814125 37.051125,56.33025 L37.051125,61.15725 C37.051125,61.69425 36.61425,62.131125 36.077375,62.131125 L27.922875,62.131125 C27.385875,62.131125 26.949125,61.69425 26.949125,61.15725 L26.949125,56.120875 C26.949125,55.527625 26.5475,55.007625 25.972125,54.85625 C23.916,54.3155 21.941125,53.496875 20.102125,52.423125 C19.5885,52.123375 18.93675,52.207 18.517125,52.626625 L14.9545,56.189 C14.770625,56.372875 14.526125,56.47425 14.266,56.47425 C14.005875,56.47425 13.761375,56.373 13.577375,56.189 L7.811,50.42275 C7.627125,50.238875 7.52575,49.99425 7.52575,49.734125 C7.52575,49.474 7.627125,49.2295 7.811125,49.0455 L11.373125,45.4835 C11.79325,45.06375 11.877,44.411625 11.576875,43.898125 C10.50325,42.05925 9.68475,40.08425 9.143875,38.028125 C8.992625,37.453 8.472625,37.051375 7.879375,37.051375 L2.843,37.051375 C2.306,37.051375 1.869125,36.6145 1.869125,36.077625 L1.869125,27.922875 C1.869125,27.385875 2.306125,26.949125 2.843,26.949125 L7.879375,26.949125 C8.472625,26.949125 8.9925,26.5475 9.143875,25.97225 C9.68475,23.91625 10.50325,21.941375 11.57675,20.102625 C11.876875,19.588875 11.793375,18.93675 11.3735,18.51725 L7.811,14.95475 C7.627125,14.770875 7.52575,14.526375 7.52575,14.26625 C7.52575,14.006125 7.627125,13.761625 7.811125,13.577625 L13.577375,7.811375 C13.761375,7.627375 14.00575,7.526125 14.266,7.526125 C14.526,7.526125 14.770625,7.627375 14.954625,7.811375 L18.51725,11.373875 C18.93675,11.793125 19.588625,11.876875 20.10225,11.577125 C21.941125,10.5035 23.916,9.685 25.97225,9.144125 C26.547375,8.992875 26.949125,8.472875 26.949125,7.8795 L26.949125,2.842875 C26.949125,2.305875 27.386,1.869 27.922875,1.869 L36.077375,1.869 C36.614375,1.869 37.051125,2.305875 37.051125,2.842875 L37.051125,7.87925 C37.051125,8.4725 37.45275,8.9925 38.028125,9.143875 C40.08425,9.684625 42.059125,10.50325 43.898125,11.577 C44.41175,11.87675 45.063625,11.793125 45.483125,11.3735 L49.045625,7.811125 C49.2295,7.62725 49.474,7.525875 49.734125,7.525875 C49.99425,7.525875 50.23875,7.627125 50.422875,7.81125 L50.992625,8.380875 C51.357375,8.74575 51.949125,8.745625 52.31425,8.380875 C52.679125,8.015875 52.679125,7.424125 52.314125,7.05925 L51.7445,6.489625 C51.2075,5.952625 50.493625,5.656875 49.73425,5.656875 C48.974875,5.656875 48.261,5.952625 47.72425,6.489625 L44.4655,9.74825 C42.7135,8.764875 40.851875,7.99325 38.92025,7.449875 L38.92025,2.842875 C38.920125,1.275375 37.64475,0 36.07725,0 L27.92275,0 C26.35525,0 25.079875,1.275375 25.079875,2.842875 L25.079875,7.44975 C23.14825,7.993125 21.286375,8.764875 19.534625,9.748125 L16.276,6.489625 C15.739125,5.952625 15.02525,5.656875 14.265875,5.656875 C13.5065,5.656875 12.792625,5.952625 12.255625,6.489625 L6.489625,12.25575 C5.952625,12.79275 5.656875,13.506625 5.656875,14.266 C5.656875,15.025375 5.952625,15.73925 6.4895,16.276125 L9.748125,19.534875 C8.764875,21.286875 7.99325,23.1485 7.449875,25.079875 L2.843,25.079875 C1.275375,25.07975 -3.55271368e-15,26.355 -3.55271368e-15,27.922625 L-3.55271368e-15,36.077375 C-3.55271368e-15,37.644875 1.275375,38.92025 2.843,38.92025 L7.449875,38.92025 C7.99325,40.851625 8.764875,42.71325 9.748125,44.465375 L6.4895,47.724 C5.952625,48.261 5.656875,48.974875 5.656875,49.73425 C5.656875,50.493625 5.952625,51.2075 6.4895,51.7445 L12.25575,57.51075 C12.79275,58.04775 13.506625,58.3435 14.266,58.3435 C15.025375,58.3435 15.73925,58.04775 16.276,57.51075 L19.53475,54.252125 C21.28675,55.2355 23.148375,56.007125 25.08,56.5505 L25.08,61.157375 C25.08,62.724875 26.355375,64.00025 27.922875,64.00025 L36.077375,64.00025 C37.644875,64.00025 38.92025,62.724875 38.92025,61.157375 L38.92025,56.330375 C38.920125,55.814125 38.50175,55.39575 37.985625,55.39575 Z" id="Path"></path>
                    <path d="M14.01975,35.238625 C13.928875,34.7305 13.4425,34.392 12.935375,34.48325 C12.42725,34.574125 12.089125,35.059625 12.18,35.56775 C13.897125,45.167625 22.232625,52.13525 32,52.13525 C43.102625,52.13525 52.135375,43.102625 52.135375,31.999875 C52.135375,20.897125 43.102625,11.864625 32,11.864625 C21.408125,11.864625 12.581875,20.13625 11.90625,30.69575 C11.87325,31.210875 12.264125,31.655125 12.779125,31.688 C13.294625,31.7205 13.738375,31.330125 13.77125,30.815125 C14.384375,21.23675 22.39125,13.733625 32,13.733625 C42.072125,13.733625 50.266375,21.927875 50.266375,32 C50.266375,37.023125 48.228,41.579 44.93525,44.8845 L44.93525,38.973625 C45.477625,38.653125 45.842625,38.064125 45.842625,37.3885 C45.842625,36.37125 45.018,35.546625 44.00075,35.546625 C42.9835,35.546625 42.158875,36.37125 42.158875,37.3885 C42.158875,38.064125 42.523875,38.65325 43.06625,38.97375 L43.06625,46.52225 C42.121625,47.243875 41.105,47.8755 40.028875,48.404375 L40.028875,45.32975 C40.577625,45.010875 40.9475,44.418125 40.9475,43.737625 C40.9475,42.720375 40.122875,41.89575 39.105625,41.89575 C38.088375,41.89575 37.26375,42.720375 37.26375,43.737625 C37.26375,44.408625 37.623625,44.994 38.15975,45.316 L38.15975,49.1965 C37.230625,49.530375 36.26725,49.791375 35.27575,49.971625 L35.27575,42.24425 L37.741625,39.778375 C38.036,39.48425 38.198125,39.093 38.198125,38.676625 L38.198125,34.476375 C38.7405,34.155875 39.1055,33.566875 39.1055,32.891125 C39.1055,31.873875 38.280875,31.04925 37.263625,31.04925 C36.246375,31.04925 35.42175,31.873875 35.42175,32.891125 C35.42175,33.56675 35.786625,34.155875 36.329125,34.476375 L36.329125,38.547625 L33.86275,41.014 C33.568625,41.308125 33.40675,41.69925 33.40675,42.11525 L33.40675,50.212625 C32.942375,50.248125 32.47325,50.26625 31.999875,50.26625 C31.531125,50.26625 31.06625,50.2475 30.605375,50.21275 L30.605375,42.283625 C31.14775,41.963125 31.51275,41.374125 31.51275,40.698375 C31.51275,39.681125 30.688125,38.8565 29.670875,38.8565 C28.653625,38.8565 27.829,39.681125 27.829,40.698375 C27.829,41.374 28.193875,41.963125 28.736375,42.283625 L28.736375,49.97575 C27.866375,49.819125 27.01675,49.6 26.19175,49.324375 L26.19175,46.385625 C26.19175,45.96975 26.02975,45.578625 25.735625,45.28425 L23.269375,42.818125 L23.269375,38.74675 C23.81175,38.42625 24.17675,37.83725 24.17675,37.161625 C24.17675,36.144375 23.352125,35.31975 22.334875,35.31975 C21.317625,35.31975 20.493,36.144375 20.493,37.161625 C20.493,37.83725 20.858,38.426375 21.400375,38.746875 L21.400375,42.947125 C21.400375,43.363 21.562375,43.754125 21.8565,44.0485 L24.32275,46.514625 L24.32275,48.583125 C19.0525,46.147625 15.09775,41.265375 14.01975,35.238625 L14.01975,35.238625 Z" id="Path"></path>
                    <path d="M61.157125,25.07975 L56.55025,25.07975 C56.007,23.148375 55.23525,21.28675 54.252,19.53475 L57.5105,16.276125 C58.0475,15.739125 58.34325,15.02525 58.34325,14.265875 C58.34325,13.5065 58.0475,12.792625 57.5105,12.25575 L55.543875,10.28925 C55.179125,9.92425 54.587375,9.924375 54.22225,10.28925 C53.857375,10.65425 53.857375,11.245875 54.222375,11.610875 L56.189,13.5775 C56.372875,13.761375 56.47425,14.005875 56.47425,14.266 C56.47425,14.526125 56.372875,14.770625 56.188875,14.954625 L52.62675,18.516875 C52.20675,18.936625 52.123125,19.588625 52.423125,20.10225 C53.49675,21.94125 54.31525,23.916125 54.856125,25.97225 C55.0075,26.54725 55.5275,26.948875 56.120625,26.948875 L61.157,26.948875 C61.694,26.948875 62.130875,27.38575 62.130875,27.922625 L62.130875,36.077375 C62.130875,36.614375 61.693875,37.051125 61.157,37.051125 L56.120625,37.051125 C55.527375,37.051125 55.007375,37.45275 54.856125,38.028 C54.31525,40.084125 53.49675,42.059125 52.42325,43.897625 C52.123,44.4115 52.206625,45.063625 52.6265,45.483125 L56.188875,49.0455 C56.372875,49.2295 56.47425,49.474 56.47425,49.734125 C56.47425,49.99425 56.372875,50.23875 56.188875,50.42275 L50.422625,56.189 C50.238625,56.373 49.994125,56.47425 49.734,56.47425 C49.474,56.47425 49.229375,56.373 49.045375,56.189 L45.483125,52.626875 C45.063125,52.207 44.411125,52.1235 43.897375,52.423375 C43.308125,52.7675 42.696125,53.089875 42.0785,53.381375 C41.61175,53.60175 41.412,54.15875 41.632375,54.625375 C41.85275,55.092 42.409625,55.291875 42.876375,55.0715 C43.413,54.818125 43.94575,54.54325 44.464875,54.251875 L47.723625,57.510375 C48.2605,58.047375 48.974375,58.343125 49.73375,58.343125 C50.493125,58.343125 51.207,58.047375 51.744,57.510375 L57.510125,51.74425 C58.047125,51.20725 58.342875,50.493375 58.342875,49.734 C58.342875,48.974625 58.047125,48.26075 57.51025,47.72375 L54.251625,44.465125 C55.234875,42.713125 56.0065,40.8515 56.549875,38.92 L61.15675,38.92 C62.724375,38.92 63.99975,37.64475 63.99975,36.077125 L63.99975,27.922375 C64,26.355 62.72475,25.07975 61.157125,25.07975 L61.157125,25.07975 Z" id="Path"></path>
                </g>
            </g>
        </g>
    </g>
</svg>