<?xml version="1.0" encoding="UTF-8"?>
<svg width="48px" height="39px" viewBox="0 0 48 39" version="1.1" xmlns="http://www.w3.org/2000/svg" xmlns:xlink="http://www.w3.org/1999/xlink">
    <title>arrows</title>
    <defs>
        <linearGradient x1="26.1022482%" y1="0%" x2="26.1022482%" y2="77.6488069%" id="linearGradient-1">
            <stop stop-color="#EAF9FF" stop-opacity="0.995001093" offset="0%"></stop>
            <stop stop-color="#FFFFFF" offset="99.9836101%"></stop>
        </linearGradient>
        <linearGradient x1="50%" y1="0%" x2="50%" y2="100%" id="linearGradient-2">
            <stop stop-color="#002F57" offset="0%"></stop>
            <stop stop-color="#0075D7" offset="99.9918051%"></stop>
        </linearGradient>
        <linearGradient x1="50%" y1="0%" x2="50%" y2="100%" id="linearGradient-3">
            <stop stop-color="#005E91" offset="0%"></stop>
            <stop stop-color="#003058" offset="100%"></stop>
        </linearGradient>
    </defs>
    <g id="⏹️-Product-Wireframe" stroke="none" stroke-width="1" fill="none" fill-rule="evenodd">
        <g id="DR---Payments-2" transform="translate(-151.000000, -4389.000000)" fill-rule="nonzero">
            <g id="Benefits" transform="translate(0.000000, 4304.000000)">
                <g id="elements-/-card-/-icon+h3+p" transform="translate(151.000000, 44.000000)">
                    <g id="Group" transform="translate(0.000000, 35.000000)">
                        <g transform="translate(24.500000, 24.500000) rotate(-90.000000) translate(-24.500000, -24.500000) translate(6.000000, 1.000000)">
                            <path d="M8.36515086,0.12076962 C8.35209138,0.12076962 8.33907073,0.12582377 8.32911461,0.13577787 L1.08513897,7.37983973 C1.07523257,7.38974613 1.07031388,7.40273454 1.07031388,7.41570639 C1.07031388,7.42867825 1.07523257,7.44166666 1.08513462,7.4515687 L8.32919114,14.6956683 C8.33907059,14.7055458 8.35210988,14.7105192 8.36515904,14.7105192 C8.37817012,14.7105192 8.39119366,14.7056016 8.40112912,14.6956662 C8.41103116,14.6857641 8.41594985,14.6727757 8.41594985,14.6598038 C8.41594985,14.646832 8.41103116,14.6338436 8.40112912,14.6239415 L1.30419495,7.52663193 L27.6564874,7.5270292 C29.7629767,7.5270292 31.6731159,8.38032544 33.0562556,9.7598992 C34.4392377,11.1393157 35.2952927,13.0445872 35.2952927,15.1488231 C35.2952927,17.2582283 34.439185,19.1711571 33.0564602,20.5566346 C31.6729681,21.9428808 29.762685,22.8007914 27.6564718,22.8007914 L22.3152151,22.8007914 C22.3012055,22.8007914 22.2885097,22.8064445 22.2793255,22.8156287 C22.2701382,22.824816 22.2644782,22.8375144 22.2644782,22.8515283 C22.2644782,22.8655422 22.2701382,22.8782407 22.2793255,22.887428 C22.2885097,22.8966122 22.3012055,22.9022653 22.3152151,22.9022653 L27.6564718,22.9022653 C29.7908064,22.9022653 31.7258049,22.0319738 33.1271553,20.6263966 C34.5287439,19.2205804 35.3967665,17.279129 35.3967665,15.1355033 C35.3967665,13.0102844 34.5285551,11.0835851 33.1280492,9.6879158 C31.7262466,8.29095432 29.790908,7.42555535 27.6565149,7.42555535 L1.18302492,7.42468777 L8.40112663,0.20738753 C8.41098223,0.19753192 8.41589058,0.18454943 8.41589058,0.17158702 C8.41589058,0.15859456 8.41096595,0.14558446 8.36515086,0.12076962 Z" id="Combined-Shape" stroke="url(#linearGradient-2)" stroke-width="2.06910004" fill="url(#linearGradient-1)"></path>
                            <path d="M33.1681707,39.3120513 L8.81061939,39.3120513 C3.97987043,39.3120513 0.048189251,35.3767061 0.035817747,30.5341891 C0.035817747,30.5313441 0.035817747,30.5286284 0.035817747,30.5258696 C0.035817747,30.5232401 0.035817747,30.5209124 0.035817747,30.5182829 C0.035817747,30.5156534 0.035817747,30.5133257 0.035817747,30.5106962 C0.035817747,30.5079805 0.035817747,30.5051355 0.035817747,30.5022905 C0.048792739,25.6832233 3.98008596,21.7662845 8.81061939,21.7662845 L16.3459429,21.7662845 C16.945422,21.7662845 17.4312299,22.2521785 17.4312299,22.8515714 C17.4312299,23.4509643 16.945422,23.9368584 16.3459429,23.9368584 L8.81061939,23.9368584 C5.17154368,23.9368584 2.21040052,26.8884751 2.20634853,30.518326 C2.21040052,34.1711526 5.17154368,37.1415205 8.81061939,37.1415205 L33.1681707,37.1415205 C33.7676499,37.1415205 34.2534577,37.6274146 34.2534577,38.2268075 C34.2534577,38.8262004 33.7676499,39.3120513 33.1681707,39.3120513 Z" id="Path" fill="url(#linearGradient-3)"></path>
                            <path d="M27.3342523,46.1852623 C26.9104744,45.7614844 26.9104744,45.0742409 27.3342523,44.650463 L33.8112303,38.1737868 L27.3342523,31.6971105 C26.9104744,31.2733326 26.9104744,30.5860891 27.3342523,30.1623112 C27.7582457,29.7383178 28.4452737,29.7383178 28.869224,30.1623112 L36.1134939,37.4064087 C36.3169556,37.6098703 36.4312734,37.885923 36.4312734,38.1737868 C36.4312734,38.4616505 36.3169556,38.7377032 36.1134939,38.9411648 L28.869224,46.1852623 C28.6572273,46.3971297 28.3794073,46.5031281 28.1017597,46.5031281 C27.8238966,46.5031281 27.546249,46.3972159 27.3342523,46.1852623 Z" id="Path" fill="#B03478"></path>
                        </g>
                    </g>
                </g>
            </g>
        </g>
    </g>
</svg>