<?xml version="1.0" encoding="utf-8"?>
<!-- Generator: Adobe Illustrator 24.2.1, SVG Export Plug-In . SVG Version: 6.00 Build 0)  -->
<svg version="1.1" id="Layer_1" xmlns="http://www.w3.org/2000/svg" xmlns:xlink="http://www.w3.org/1999/xlink" x="0px" y="0px"
	 viewBox="0 0 800 800" style="enable-background:new 0 0 800 800;" xml:space="preserve">
<style type="text/css">
	.st0{fill:#212121;}
	.st1{fill:#2A2A2A;}
	.st2{fill:#343434;}
	.st3{fill:#3B3B3B;}
	.st4{fill:#444444;}
	.st5{fill:#323232;}
	.st6{fill:#1D1D1D;}
	.st7{fill:#262626;}
	.st8{fill:#FFFFFF;}
	.st9{fill:#242424;}
	.st10{fill:#2E2E2E;}
	.st11{fill:#373737;}
	.st12{fill:#4C4C4C;}
</style>
<rect y="700" class="st0" width="100" height="100"/>
<rect x="100" y="700" class="st1" width="100" height="100"/>
<rect x="200" y="700" class="st2" width="100" height="100"/>
<rect x="300" y="700" class="st3" width="100" height="100"/>
<rect x="400" y="700" class="st2" width="100" height="100"/>
<rect x="500" y="700" class="st4" width="100" height="100"/>
<rect x="600" y="700" class="st3" width="100" height="100"/>
<rect x="700" y="700" class="st1" width="100" height="100"/>
<rect y="600" class="st5" width="100" height="100"/>
<rect x="100" y="600" class="st3" width="100" height="100"/>
<rect x="200" y="600" class="st1" width="100" height="100"/>
<rect x="300" y="600" class="st5" width="100" height="100"/>
<rect x="400" y="600" class="st6" width="100" height="100"/>
<rect x="500" y="600" class="st1" width="100" height="100"/>
<rect x="600" y="600" class="st7" width="100" height="100"/>
<rect x="700" y="600" class="st2" width="100" height="100"/>
<rect y="500" class="st0" width="100" height="100"/>
<rect x="100" y="500" class="st1" width="100" height="100"/>
<rect x="200" y="500" class="st3" width="100" height="100"/>
<rect x="300" y="500" class="st1" width="100" height="100"/>
<rect x="400" y="500" class="st1" width="100" height="100"/>
<rect x="500" y="500" class="st3" width="100" height="100"/>
<rect x="600" y="500" class="st5" width="100" height="100"/>
<rect x="700" y="500" class="st1" width="100" height="100"/>
<rect y="400" class="st5" width="100" height="100"/>
<rect x="100" y="400" class="st3" width="100" height="100"/>
<rect x="200" y="400" class="st2" width="100" height="100"/>
<rect x="300" y="400" class="st3" width="100" height="100"/>
<rect x="400" y="400" class="st1" width="100" height="100"/>
<rect x="500" y="400" class="st1" width="100" height="100"/>
<rect x="600" y="400" class="st3" width="100" height="100"/>
<rect x="700" y="400" class="st4" width="100" height="100"/>
<rect y="300" class="st0" width="100" height="100"/>
<rect x="100" y="300" class="st1" width="100" height="100"/>
<rect x="200" y="300" class="st2" width="100" height="100"/>
<rect x="300" y="300" class="st1" width="100" height="100"/>
<rect x="400" y="300" class="st2" width="100" height="100"/>
<rect x="500" y="300" class="st4" width="100" height="100"/>
<rect x="600" y="300" class="st4" width="100" height="100"/>
<rect x="700" y="300" class="st1" width="100" height="100"/>
<rect y="200" class="st8" width="100" height="100"/>
<rect x="100" y="200" class="st4" width="100" height="100"/>
<rect x="200" y="200" class="st1" width="100" height="100"/>
<rect x="300" y="200" class="st3" width="100" height="100"/>
<rect x="400" y="200" class="st2" width="100" height="100"/>
<rect x="500" y="200" class="st1" width="100" height="100"/>
<rect x="600" y="200" class="st9" width="100" height="100"/>
<rect x="700" y="200" class="st3" width="100" height="100"/>
<rect y="100" class="st0" width="100" height="100"/>
<rect x="100" y="100" class="st8" width="100" height="100"/>
<rect x="200" y="100" class="st2" width="100" height="100"/>
<rect x="300" y="100" class="st1" width="100" height="100"/>
<rect x="400" y="100" class="st10" width="100" height="100"/>
<rect x="500" y="100" class="st2" width="100" height="100"/>
<rect x="600" y="100" class="st1" width="100" height="100"/>
<rect x="700" y="100" class="st10" width="100" height="100"/>
<rect class="st8" width="100" height="100"/>
<rect x="100" class="st3" width="100" height="100"/>
<rect x="200" class="st1" width="100" height="100"/>
<rect x="300" class="st3" width="100" height="100"/>
<rect x="400" class="st11" width="100" height="100"/>
<rect x="500" class="st1" width="100" height="100"/>
<rect x="600" class="st12" width="100" height="100"/>
<rect x="700" class="st4" width="100" height="100"/>
<g>
	<path class="st8" d="M596.09,238.38c11.29,0,21.55-0.01,31.8,0c5.37,0.01,5.44,0.09,5.45,5.6c0.01,2.29-0.17,4.59,0.04,6.85
		c0.36,3.81-1.28,4.92-4.97,4.9c-19.57-0.13-39.15-0.01-58.72-0.12c-1.93-0.01-5.38-0.79-5.49-1.58c-0.34-2.43-0.13-5.53,1.18-7.49
		c3.41-5.08,7.58-9.65,11.34-14.5c10.15-13.09,20.3-26.18,30.35-39.34c3.58-4.7,6.67-9.87,6.07-16.01
		c-0.97-9.9-11.43-15.84-21.71-12.07c-4.14,1.52-7.97,4.36-11.39,7.25c-2.81,2.38-4.77,2.55-7.21-0.07
		c-1.94-2.09-4.41-3.8-5.91-6.16c-0.9-1.42-1.27-4.48-0.38-5.54c14.87-17.56,38.68-19.94,55.06-8.47
		c13.06,9.14,17.01,27.29,8.12,41.22c-8.12,12.72-17.69,24.51-26.67,36.68C601.05,232.27,598.86,234.89,596.09,238.38z"/>
	<path class="st8" d="M571.33,571.93c-0.37-1.95-1.2-3.85-2.03-5.67c-34.93-76.42-69.9-152.82-104.84-229.23
		c-16.6-36.3-33.09-72.65-49.81-108.9c-1.35-2.93-3.57-6.31-6.27-7.59c-7.9-3.74-15.81-0.22-19.49,7.76
		c-33.75,73.2-67.48,146.42-101.26,219.61c-18.42,39.91-36.84,79.81-55.42,119.65c-4.01,8.59,0.71,15.61,9.7,15.23
		c13.67-0.59,27.4-0.5,41.08-0.03c9.13,0.31,14.49-3.71,18-11.74c7.36-16.79,15.06-33.42,22.51-50.16c1.14-2.56,2.44-3.74,5.48-3.73
		c48.1,0.11,96.19,0.1,144.29,0.02c2.74,0,4.18,0.82,5.27,3.35c3.24,7.57,6.73,15.03,10.12,22.53c4.35,9.63,8.76,19.23,13.03,28.89
		c3.3,7.47,8.46,11.46,17.08,10.83c6.66-0.49,13.38-0.1,20.07-0.1c7.94,0,15.88,0.1,23.81-0.04
		C568.7,582.48,572.45,577.83,571.33,571.93z M350.59,460.05c16.57-37.3,32.97-74.2,49.99-112.51
		c17.31,38.14,34.04,75.02,51.05,112.51C417.61,460.05,384.5,460.05,350.59,460.05z"/>
</g>
</svg>
