<?xml version="1.0" encoding="utf-8"?><svg id="Layer_1" data-name="Layer 1" xmlns="http://www.w3.org/2000/svg" viewBox="0 0 431.77 98.54"><defs><style>.cls-1{fill:#2057f5;}.cls-1,.cls-2{fill-rule:evenodd;}.cls-2,.cls-4{fill:#171717;}.cls-3{fill:silver;}</style></defs><title>AC_Logo_Full_Colour_RGB</title><path class="cls-1" d="M8.7,118.12c73.58-68.58,92.52-36.95,92.52-36.95L64.32,19.94Z" transform="translate(-8.7 -19.72)"/><path class="cls-2" d="M142.75,67.14c.8-.94,2.77-2,5.93-3.1a26.08,26.08,0,0,0,6.58-3.17V71a8.89,8.89,0,0,1-3.75,3.1A10.67,10.67,0,0,1,147,75.23q-5.46,0-5.46-4.89a4.72,4.72,0,0,1,1.21-3.2M156.11,77a7.35,7.35,0,0,0,3.59,3.66,16,16,0,0,0,6.75,1.15h2.21l.43-7.51a3.39,3.39,0,0,1-2.7-.86,6.42,6.42,0,0,1-.69-3.6V53.7q0-6.66-3.92-10.23t-12.57-3.56q-8.64,0-12.82,3.44a11.63,11.63,0,0,0-4.16,9.51v1.22h9.93V52.5a5.44,5.44,0,0,1,1.4-4c.94-.92,2.63-1.38,5.12-1.38,4.38,0,6.58,1.53,6.58,4.66a4,4,0,0,1-2.12,3.56,36.84,36.84,0,0,1-7.39,2.93C140,60,136.08,61.87,134,63.78A10,10,0,0,0,131,71.44a10.12,10.12,0,0,0,3.36,7.84,11.85,11.85,0,0,0,8.26,3.07,20.2,20.2,0,0,0,8.28-1.53A13.65,13.65,0,0,0,156.11,77" transform="translate(-8.7 -19.72)"/><path class="cls-2" d="M201.9,78.89a11,11,0,0,0,3.91-8.62c0-3.44-.72-6.12-2.13-8s-3.85-3.41-7.31-4.46l-8.64-2.67c-1.94-.57-2.89-1.7-2.89-3.38a4.21,4.21,0,0,1,1.36-3.56,7.23,7.23,0,0,1,4.36-1c2,0,2.86,0,11.67.58l.07-6.58a55.48,55.48,0,0,0-11.54-1.2q-16,0-16,11.4v.31a12.05,12.05,0,0,0,2,7C178,60.55,180.22,62,183.35,63l9.2,2.8q3.55,1.11,3.56,4.17a6,6,0,0,1-.09,1q-.65,4.28-5.61,4.28a34.87,34.87,0,0,1-13.79-2.53l-2.14,7c4.28,2.13,9.72,2.68,16.32,2.68q7.22,0,11.1-3.46" transform="translate(-8.7 -19.72)"/><path class="cls-2" d="M232.65,81.94l.4-7.67H231.8c-3.51,0-5.89-.44-7.12-1.32s-1.84-2.59-1.84-5.11V47.34h9.94V40.78h-9.94V23.38l-10.35,4.33V68.56c0,5.18,1.12,8.7,3.88,10.57s7.31,2.81,13.68,2.81Z" transform="translate(-8.7 -19.72)"/><path class="cls-2" d="M266,81.44c6.4-1.64,9.59-5.72,9.59-12.28v-16a11.41,11.41,0,0,0-4.79-9.72q-4.8-3.49-13.4-3.5c-5.71,0-10.18,1.16-13.36,3.49a11.36,11.36,0,0,0-4.78,9.73v16q0,13.2,18.17,13.19a35.06,35.06,0,0,0,8.57-.91m-14.24-7.53a4.8,4.8,0,0,1-1.89-4.29v-17q0-5.55,7.56-5.56A10,10,0,0,1,263,48.4a4.77,4.77,0,0,1,1.91,4.27v17q0,5.58-7.55,5.57a10.21,10.21,0,0,1-5.67-1.28" transform="translate(-8.7 -19.72)"/><path class="cls-2" d="M310.11,81.48h10V40.78H309.49V68.22A5.32,5.32,0,0,1,307,73a10.07,10.07,0,0,1-5.58,1.61,9.09,9.09,0,0,1-5.21-1.43,4.94,4.94,0,0,1-2.11-4.37v-28H283.49V70.45A11.18,11.18,0,0,0,287.11,79q3.63,3.36,9.91,3.37A21.29,21.29,0,0,0,305,80.93,8.57,8.57,0,0,0,309.8,77Z" transform="translate(-8.7 -19.72)"/><path class="cls-2" d="M354.65,81.48h10.61V52.3A12.79,12.79,0,0,0,362,43.4q-3.27-3.57-10.39-3.57a18.65,18.65,0,0,0-12.48,4.55v-3.6h-10.6v40.7h10.6V53.63a5,5,0,0,1,2.5-4.42,10.22,10.22,0,0,1,5.64-1.62q7.37,0,7.37,5.27Z" transform="translate(-8.7 -19.72)"/><path class="cls-2" d="M384.48,69.35V52.71a4.81,4.81,0,0,1,1.94-4.29,10.45,10.45,0,0,1,5.78-1.31,16.26,16.26,0,0,1,6.85,1.41v25a13.41,13.41,0,0,1-6.85,1.64c-2.71,0-4.67-.46-5.89-1.36a5.15,5.15,0,0,1-1.83-4.41m16.87,9.75,1.13,2.38h7.17V19.72L399.05,24V41.35a23.45,23.45,0,0,0-7.8-1.44q-8.76,0-13.07,3.54a11.68,11.68,0,0,0-4.31,9.49V69.2c0,4.2,1.39,7.43,4.16,9.72s6.93,3.43,12.49,3.43a18.88,18.88,0,0,0,10.83-3.25" transform="translate(-8.7 -19.72)"/><path class="cls-3" d="M234.66,111.77A7.74,7.74,0,0,1,221.57,116a6.58,6.58,0,0,1-1.79-3.54,31.38,31.38,0,0,1-.23-4.65,31.22,31.22,0,0,1,.23-4.64,6.65,6.65,0,0,1,1.79-3.55,7.51,7.51,0,0,1,5.53-2.25,7.23,7.23,0,0,1,7.56,6.49H230.6a3.35,3.35,0,0,0-3.47-2.91,3.22,3.22,0,0,0-2.79,1.36q-.78,1.09-.78,5.5,0,2.4.06,3a5.05,5.05,0,0,0,.95,2.8,3.26,3.26,0,0,0,2.56,1.07c1.83,0,3-1,3.47-2.92Z" transform="translate(-8.7 -19.72)"/><path class="cls-3" d="M258.42,107.82a28.09,28.09,0,0,1-.26,4.65,6.45,6.45,0,0,1-1.79,3.54,8,8,0,0,1-11.1,0,6.58,6.58,0,0,1-1.79-3.54,31.38,31.38,0,0,1-.23-4.65,31.22,31.22,0,0,1,.23-4.64,6.65,6.65,0,0,1,1.79-3.55,8,8,0,0,1,11.1,0,6.52,6.52,0,0,1,1.79,3.55,27.87,27.87,0,0,1,.26,4.64m-4,0q0-2.35-.06-3a4.68,4.68,0,0,0-.95-2.76,3.58,3.58,0,0,0-5.16,0,4.82,4.82,0,0,0-.92,2.76q-.06.53-.06,3t.06,3a4.86,4.86,0,0,0,.92,2.77,3.31,3.31,0,0,0,2.59,1.1,3.27,3.27,0,0,0,2.8-1.39q.78-1.06.78-5.48" transform="translate(-8.7 -19.72)"/><polygon class="cls-3" points="277.85 98.37 273.84 98.37 273.84 86.4 269.92 94.19 267.21 94.19 263.26 86.4 263.26 98.37 259.25 98.37 259.25 77.84 263.18 77.84 268.53 88.94 273.84 77.84 277.85 77.84 277.85 98.37"/><polygon class="cls-3" points="306.61 98.37 302.6 98.37 302.6 86.4 298.68 94.19 295.97 94.19 292.02 86.4 292.02 98.37 288.01 98.37 288.01 77.84 291.94 77.84 297.29 88.94 302.6 77.84 306.61 77.84 306.61 98.37"/><polygon class="cls-3" points="330.29 98.37 316.77 98.37 316.77 77.84 330.29 77.84 330.29 81.42 320.78 81.42 320.78 86.23 328.88 86.23 328.88 89.81 320.78 89.81 320.78 94.8 330.29 94.8 330.29 98.37"/><path class="cls-3" d="M363.94,118.09H359.3l-4-8.19h-2.88v8.19h-4V97.56h8.05a6.63,6.63,0,0,1,4.9,1.84,6,6,0,0,1,1.76,4.44,5.62,5.62,0,0,1-1.13,3.52,5.68,5.68,0,0,1-2.62,1.88Zm-4.84-14.26a2.54,2.54,0,0,0-.81-2,3,3,0,0,0-2.1-.75h-3.78v5.4h3.78a3,3,0,0,0,2.1-.75,2.54,2.54,0,0,0,.81-2" transform="translate(-8.7 -19.72)"/><path class="cls-3" d="M387.16,111.77a7.74,7.74,0,0,1-13.1,4.24,6.57,6.57,0,0,1-1.78-3.54,30,30,0,0,1-.23-4.65,29.87,29.87,0,0,1,.23-4.64,6.64,6.64,0,0,1,1.78-3.55,7.59,7.59,0,0,1,13.1,4.24h-4.07a3.33,3.33,0,0,0-3.46-2.91,3.25,3.25,0,0,0-2.8,1.36q-.78,1.09-.78,5.5,0,2.4.06,3a5.13,5.13,0,0,0,.95,2.8,3.28,3.28,0,0,0,2.57,1.07q2.75,0,3.46-2.92Z" transform="translate(-8.7 -19.72)"/><polygon class="cls-3" points="400.95 98.37 387.42 98.37 387.42 77.84 400.95 77.84 400.95 81.42 391.43 81.42 391.43 86.23 399.53 86.23 399.53 89.81 391.43 89.81 391.43 94.8 400.95 94.8 400.95 98.37"/><polygon class="cls-4" points="412.56 12.23 412.56 3.18 409.3 3.18 409.3 1.09 418.18 1.09 418.18 3.18 414.94 3.18 414.94 12.23 412.56 12.23"/><polygon class="cls-4" points="429.39 12.23 429.39 4.43 426.25 12.23 425.21 12.23 422.08 4.43 422.08 12.23 419.7 12.23 419.7 1.09 423.03 1.09 425.73 7.82 428.44 1.09 431.77 1.09 431.77 12.23 429.39 12.23"/></svg>