<?xml version="1.0" standalone="no"?>
<!DOCTYPE svg PUBLIC "-//W3C//DTD SVG 20010904//EN"
 "http://www.w3.org/TR/2001/REC-SVG-20010904/DTD/svg10.dtd">
<svg version="1.0" xmlns="http://www.w3.org/2000/svg"
 width="1181.000000pt" height="591.000000pt" viewBox="0 0 1181.000000 591.000000"
 preserveAspectRatio="xMidYMid meet">

<g transform="translate(0.000000,591.000000) scale(0.100000,-0.100000)"
fill="#000000" stroke="none">
<path d="M1902 4355 c-76 -17 -134 -49 -187 -104 -47 -48 -1530 -2478 -1547
-2534 -28 -91 64 -189 162 -172 49 8 52 11 765 685 275 260 527 490 559 511
163 107 412 125 589 41 34 -16 190 -114 347 -217 353 -233 366 -240 445 -239
107 1 190 65 221 169 25 90 12 125 -133 363 -630 1031 -831 1353 -866 1390
-54 56 -115 92 -186 108 -68 17 -88 16 -169 -1z"/>
<path d="M8210 4070 c-20 -20 -20 -33 -20 -643 0 -592 1 -625 18 -640 27 -25
78 -22 96 5 14 20 16 97 16 636 l0 613 -25 24 c-29 30 -58 32 -85 5z"/>
<path d="M10846 4064 c-14 -14 -16 -85 -16 -638 0 -591 1 -624 18 -639 24 -22
65 -21 85 1 10 11 17 36 17 60 0 23 2 42 5 42 3 0 26 -16 52 -36 82 -63 126
-77 233 -78 83 -1 102 2 153 26 144 67 230 191 258 368 30 193 -74 411 -234
490 -145 71 -294 56 -417 -43 l-45 -37 -5 241 c-5 260 -5 259 -62 259 -15 0
-34 -7 -42 -16z m509 -509 c56 -27 107 -83 141 -151 26 -54 29 -68 29 -164 0
-99 -2 -110 -33 -172 -79 -160 -232 -218 -374 -141 -58 32 -98 79 -135 160
-36 78 -38 209 -5 294 29 74 89 141 155 174 44 22 62 26 117 23 37 -2 82 -12
105 -23z"/>
<path d="M6080 3940 c-17 -17 -20 -33 -20 -125 l0 -105 -46 0 c-25 0 -54 -5
-65 -11 -28 -15 -42 -55 -28 -82 17 -32 28 -37 86 -37 l52 0 3 -343 3 -344 28
-41 c45 -69 86 -83 229 -80 122 3 122 3 138 31 13 24 13 30 0 55 -15 26 -19
27 -122 32 -161 8 -148 -24 -148 367 l0 323 120 0 c107 0 122 2 140 20 11 11
20 30 20 43 -1 53 -34 67 -169 67 l-111 0 0 108 c0 93 -3 111 -18 125 -25 23
-68 21 -92 -3z"/>
<path d="M4430 3700 c-110 -23 -224 -110 -265 -199 -17 -39 -18 -46 -4 -70 11
-19 24 -27 51 -29 34 -3 39 1 77 52 70 94 130 126 237 126 171 0 259 -61 279
-193 l7 -47 -133 0 c-155 0 -308 -20 -394 -52 -80 -30 -146 -95 -165 -163 -40
-141 13 -271 136 -331 51 -25 60 -26 162 -22 129 7 239 39 330 98 l62 40 0
-54 c0 -62 19 -86 68 -86 63 0 64 10 60 367 -5 370 -8 384 -92 469 -39 38 -67
56 -116 73 -74 25 -229 36 -300 21z m375 -554 l0 -70 -81 -62 c-91 -69 -162
-100 -265 -114 -86 -12 -141 -1 -180 36 -60 57 -58 149 3 206 55 51 195 77
408 74 l115 -1 0 -69z"/>
<path d="M5333 3699 c-103 -20 -182 -70 -223 -142 -39 -69 -40 -126 -2 -197
47 -90 86 -110 423 -214 124 -38 175 -66 199 -108 13 -25 13 -29 -6 -55 -11
-15 -42 -39 -70 -53 -45 -23 -60 -25 -179 -25 -117 0 -135 2 -180 24 -27 14
-78 53 -112 88 -64 66 -96 78 -127 48 -40 -41 -25 -88 51 -155 65 -57 134 -96
217 -122 59 -18 84 -20 180 -15 128 6 194 24 262 70 131 87 130 257 -1 347
-64 44 -114 63 -275 105 -182 47 -213 59 -250 101 -94 108 42 208 237 174 92
-16 154 -51 203 -117 35 -45 45 -53 74 -53 38 0 66 25 66 61 0 36 -83 135
-151 179 -93 60 -220 82 -336 59z"/>
<path d="M6630 3690 c-19 -19 -20 -33 -20 -448 0 -477 -1 -472 64 -472 59 0
60 8 66 284 5 233 7 254 27 291 52 96 157 160 289 175 89 10 120 32 109 79
-11 45 -32 53 -120 48 -92 -6 -171 -32 -246 -83 -28 -19 -53 -34 -55 -34 -2 0
-4 32 -4 70 0 78 -19 110 -65 110 -14 0 -34 -9 -45 -20z"/>
<path d="M7540 3700 c-110 -23 -224 -110 -265 -199 -17 -39 -18 -46 -4 -70 11
-19 24 -27 51 -29 34 -3 39 1 77 52 70 94 130 126 237 126 171 0 259 -61 279
-193 l7 -47 -133 0 c-155 0 -308 -20 -394 -52 -80 -30 -146 -95 -165 -163 -40
-141 13 -271 136 -331 51 -25 60 -26 162 -22 129 7 239 39 330 98 l62 40 0
-54 c0 -62 19 -86 68 -86 63 0 64 10 60 367 -5 370 -8 384 -92 469 -39 38 -67
56 -116 73 -74 25 -229 36 -300 21z m375 -554 l0 -70 -81 -62 c-91 -69 -162
-100 -265 -114 -86 -12 -141 -1 -180 36 -60 57 -58 149 3 206 55 51 195 77
408 74 l115 -1 0 -69z"/>
<path d="M9067 3688 c-22 -20 -78 -164 -259 -658 -13 -33 -7 -46 -148 316 -67
170 -128 319 -136 332 -10 15 -24 22 -47 22 -41 0 -57 -15 -57 -53 0 -37 317
-848 338 -864 24 -19 69 -16 85 7 7 10 69 168 137 350 68 181 126 330 129 330
3 0 62 -151 130 -335 68 -184 132 -341 141 -350 22 -20 63 -19 82 3 19 21 338
834 338 861 0 44 -70 69 -102 37 -8 -7 -72 -162 -144 -344 -71 -182 -132 -328
-136 -324 -4 4 -61 153 -127 332 -79 210 -129 331 -142 343 -28 23 -53 22 -82
-5z"/>
<path d="M10153 3686 c-276 -90 -387 -473 -213 -734 46 -68 91 -108 171 -149
48 -25 64 -28 154 -28 87 0 107 3 157 27 96 45 208 166 208 224 0 33 -27 56
-63 52 -24 -2 -41 -16 -76 -61 -75 -95 -152 -134 -246 -124 -65 7 -119 34
-167 84 -36 37 -79 120 -92 176 l-6 27 330 0 c209 0 338 4 351 10 15 9 19 22
19 63 0 164 -104 338 -245 410 -51 26 -73 31 -150 34 -58 2 -105 -2 -132 -11z
m240 -140 c60 -34 112 -97 137 -163 34 -90 56 -83 -266 -83 -225 0 -285 3
-282 13 3 6 13 35 22 64 22 67 95 148 161 180 68 33 162 28 228 -11z"/>
<path d="M4122 2338 c-19 -19 -17 -491 2 -507 9 -8 52 -11 127 -9 93 2 114 6
114 18 0 12 -21 16 -105 20 l-105 5 0 220 0 220 120 5 c98 4 120 8 120 20 0
12 -22 15 -130 18 -93 2 -134 -1 -143 -10z"/>
<path d="M4481 2332 c-26 -49 -71 -177 -67 -189 11 -26 35 -12 55 32 l20 45
52 0 52 0 -7 -65 c-6 -55 -4 -66 9 -72 25 -9 32 6 38 84 7 90 -3 103 -74 103
-48 0 -50 1 -44 23 8 24 8 25 6 45 -2 18 -29 14 -40 -6z"/>
<path d="M4997 2344 c-4 -4 -7 -17 -7 -30 0 -12 -7 -24 -15 -28 -8 -3 -15 -12
-15 -21 0 -9 7 -18 15 -21 12 -5 15 -28 15 -120 0 -95 -3 -114 -15 -114 -8 0
-15 -9 -15 -20 0 -20 5 -20 137 -18 122 3 138 5 141 21 2 10 -3 17 -12 17 -23
0 -24 228 -1 236 19 8 19 30 1 41 -8 4 -16 19 -18 33 -5 37 -42 35 -46 -2 -3
-27 -5 -28 -62 -28 -57 0 -59 1 -62 27 -3 27 -26 41 -41 27z m163 -129 c0 -24
-3 -25 -60 -25 -57 0 -60 1 -60 25 0 24 3 25 60 25 57 0 60 -1 60 -25z m0 -90
c0 -24 -3 -25 -60 -25 -57 0 -60 1 -60 25 0 24 3 25 60 25 57 0 60 -1 60 -25z
m0 -90 c0 -24 -3 -25 -60 -25 -57 0 -60 1 -60 25 0 24 3 25 60 25 57 0 60 -1
60 -25z"/>
<path d="M5365 2328 c-38 -11 -76 -27 -82 -36 -9 -11 -13 -60 -13 -161 0 -121
-4 -159 -22 -219 -18 -63 -19 -75 -7 -82 33 -21 68 73 76 203 l6 87 33 0 34 0
0 -150 c0 -141 1 -150 19 -150 28 0 31 18 31 166 0 128 1 134 20 134 25 0 38
29 19 41 -8 5 -47 9 -87 9 l-73 0 3 47 3 46 62 21 c67 23 89 38 79 55 -9 14
-17 13 -101 -11z"/>
<path d="M6140 2301 l0 -51 -40 0 c-39 0 -40 1 -40 34 0 33 -13 47 -37 39 -15
-5 -17 -81 -3 -103 7 -12 35 -16 124 -18 146 -5 158 1 154 71 -2 38 -7 52 -18
52 -10 0 -17 -13 -20 -35 -5 -32 -8 -35 -42 -38 l-37 -3 -3 48 c-2 36 -7 49
-20 51 -15 3 -18 -4 -18 -47z"/>
<path d="M6864 2325 c-15 -23 -22 -25 -103 -25 -93 0 -115 -7 -109 -36 3 -16
15 -20 86 -24 l82 -5 -44 -57 c-25 -31 -61 -68 -80 -83 -37 -28 -47 -61 -21
-71 7 -3 30 6 50 21 l35 27 0 -60 c0 -47 -6 -72 -30 -118 -31 -59 -29 -79 6
-72 11 2 32 27 49 60 l30 58 138 0 138 0 -3 -32 c-3 -30 -6 -33 -43 -38 -32
-4 -41 -9 -43 -28 -3 -22 -1 -23 65 -20 l68 3 3 164 c3 211 11 201 -155 201
-67 0 -123 3 -123 8 0 4 7 15 14 24 11 15 34 18 157 20 132 3 144 5 147 22 6
30 -16 36 -140 36 l-118 0 0 25 c0 18 -5 25 -20 25 -11 0 -27 -11 -36 -25z
m224 -212 c3 -23 3 -23 -132 -23 l-136 0 0 25 0 26 133 -3 c128 -3 132 -4 135
-25z m2 -98 l0 -25 -135 0 -135 0 0 25 0 25 135 0 135 0 0 -25z"/>
<path d="M7509 2333 c-11 -13 -14 -68 -14 -262 l0 -246 25 0 25 0 3 238 2 237
25 0 c34 0 38 -12 20 -73 -15 -53 -15 -55 10 -108 33 -71 33 -107 0 -119 -15
-6 -25 -17 -25 -29 0 -46 82 -29 99 21 12 34 2 95 -25 151 -15 32 -15 38 0 83
19 56 21 95 4 112 -19 19 -133 15 -149 -5z"/>
<path d="M7737 2332 c-25 -27 -25 -456 -1 -490 27 -39 128 -23 122 21 -3 19
-8 22 -40 19 l-38 -3 0 106 0 105 93 0 c124 0 127 4 127 133 0 127 0 127 -139
127 -92 0 -110 -3 -124 -18z m201 -59 c3 -22 1 -23 -82 -23 -85 0 -86 0 -86
25 0 26 0 26 83 23 76 -3 82 -5 85 -25z m-3 -103 c0 -24 -2 -25 -82 -28 -81
-3 -83 -2 -83 21 0 13 3 27 7 31 4 4 41 5 83 4 73 -3 75 -4 75 -28z"/>
<path d="M8479 2288 c-17 -34 -55 -87 -85 -118 -58 -61 -62 -71 -39 -90 12
-10 19 -8 40 8 67 53 173 216 161 248 -3 8 -14 14 -26 14 -14 0 -28 -17 -51
-62z"/>
<path d="M8640 2335 c-15 -18 -5 -35 20 -35 14 0 29 -19 54 -67 44 -88 111
-165 140 -161 36 5 30 36 -17 83 -25 25 -59 73 -76 106 -17 34 -36 68 -42 75
-15 18 -63 18 -79 -1z"/>
<path d="M9193 2334 c-3 -8 -2 -19 3 -24 6 -6 113 -11 239 -12 l230 -3 0 -210
0 -210 -55 -5 c-47 -4 -55 -8 -55 -25 0 -18 8 -20 70 -23 107 -5 105 -9 105
262 0 184 -3 225 -16 244 -15 22 -18 22 -265 22 -217 0 -250 -2 -256 -16z"/>
<path d="M5807 2302 c-9 -14 7 -30 33 -33 23 -4 25 -9 28 -56 3 -53 3 -53 -26
-53 -32 0 -47 -21 -29 -39 6 -6 21 -11 34 -11 22 0 23 -3 23 -85 0 -84 0 -85
-30 -100 -30 -15 -39 -38 -20 -50 17 -10 151 67 147 85 -2 9 -13 14 -30 13
-27 -2 -27 -2 -27 67 0 65 1 68 26 74 31 8 29 40 -4 44 -20 3 -22 9 -22 57 0
51 1 54 28 57 16 2 27 9 27 18 0 12 -16 16 -77 18 -42 2 -79 -1 -81 -6z"/>
<path d="M4194 2237 c-3 -8 -4 -34 -2 -58 l3 -44 73 -3 c91 -4 104 5 100 67
l-3 46 -83 3 c-64 2 -84 0 -88 -11z m126 -48 c0 -18 -5 -20 -42 -17 -31 2 -44
8 -46 21 -3 14 4 17 42 17 40 0 46 -3 46 -21z"/>
<path d="M9220 2235 c-25 -30 0 -35 196 -35 169 0 195 2 201 16 3 9 0 20 -8
25 -8 5 -96 9 -195 9 -147 0 -184 -3 -194 -15z"/>
<path d="M8527 2058 c-30 -62 -72 -132 -92 -155 -20 -24 -35 -51 -33 -60 6
-32 43 -29 335 24 28 5 34 2 44 -21 14 -31 52 -33 57 -3 4 20 -74 152 -108
182 -19 17 -22 17 -37 2 -15 -15 -14 -19 12 -57 22 -31 26 -43 16 -49 -16 -10
-207 -44 -220 -39 -5 1 9 32 31 68 54 88 100 189 94 206 -3 8 -14 14 -24 14
-15 0 -33 -28 -75 -112z"/>
<path d="M4513 2153 c-7 -3 -13 -20 -13 -38 0 -56 -20 -136 -51 -201 -32 -69
-36 -94 -14 -94 19 0 50 49 71 114 l16 48 39 -81 c36 -76 58 -97 74 -70 4 5
-12 47 -34 92 -30 59 -44 101 -50 150 -8 69 -17 88 -38 80z"/>
<path d="M5997 2154 c-4 -4 -7 -13 -7 -21 0 -9 18 -13 65 -13 67 0 74 -5 59
-44 -4 -11 -19 -16 -48 -16 -23 0 -47 -5 -54 -12 -8 -8 -12 -48 -12 -115 0
-86 3 -105 16 -110 26 -10 34 16 34 110 0 80 2 87 20 87 19 0 20 -7 20 -89 0
-94 11 -120 37 -86 8 12 13 47 13 97 0 71 2 78 20 78 19 0 20 -7 20 -89 0 -94
11 -120 37 -86 8 12 13 47 13 97 0 71 2 78 20 78 18 0 20 -7 20 -80 0 -47 -4
-80 -10 -80 -5 0 -10 -9 -10 -20 0 -14 7 -20 23 -20 40 0 47 18 47 120 0 61
-4 100 -12 108 -7 7 -40 12 -80 12 -37 0 -68 2 -68 4 0 3 4 16 10 30 9 25 13
26 85 26 67 0 76 2 73 18 -3 15 -20 17 -164 20 -88 1 -163 -1 -167 -4z"/>
<path d="M9270 2120 c-16 -16 -20 -33 -20 -88 0 -100 3 -102 177 -102 170 0
173 2 173 103 0 103 -7 107 -175 107 -122 0 -137 -2 -155 -20z m268 -87 l3
-53 -115 0 -116 0 0 48 c0 27 3 52 7 56 4 3 54 5 112 4 l106 -3 3 -52z"/>
<path d="M4192 2078 c-16 -16 -16 -140 0 -156 16 -16 53 -15 67 2 7 9 11 42 9
88 l-3 73 -30 3 c-17 2 -36 -3 -43 -10z m48 -78 c0 -38 -4 -50 -15 -50 -11 0
-15 12 -15 50 0 38 4 50 15 50 11 0 15 -12 15 -50z"/>
<path d="M4314 2077 c-3 -8 -4 -47 -2 -88 l3 -74 35 0 35 0 0 85 0 85 -33 3
c-21 2 -34 -2 -38 -11z m51 -77 c0 -26 -5 -45 -12 -47 -9 -3 -13 10 -13 47 0
37 4 50 13 48 7 -3 12 -22 12 -48z"/>
<path d="M7853 2049 c-37 -37 114 -244 163 -225 26 10 15 40 -28 77 l-43 37
38 39 c39 41 47 70 21 80 -9 3 -28 -7 -50 -27 -18 -19 -35 -32 -37 -29 -2 2
-11 16 -20 32 -19 30 -27 33 -44 16z"/>
<path d="M4993 1895 c-38 -51 -41 -65 -14 -65 24 0 81 64 81 90 0 34 -33 22
-67 -25z"/>
<path d="M5127 1928 c-6 -17 31 -68 48 -68 25 0 27 20 5 50 -22 31 -45 39 -53
18z"/>
</g>
</svg>
