<?xml version="1.0" encoding="UTF-8"?>
<svg width="48px" height="48px" viewBox="0 0 48 48" version="1.1" xmlns="http://www.w3.org/2000/svg" xmlns:xlink="http://www.w3.org/1999/xlink">
    <title>icons / Bank</title>
    <defs>
        <linearGradient x1="50%" y1="0%" x2="50%" y2="100%" id="linearGradient-1">
            <stop stop-color="#005E91" offset="0%"></stop>
            <stop stop-color="#003058" offset="100%"></stop>
        </linearGradient>
        <linearGradient x1="50%" y1="0%" x2="50%" y2="100%" id="linearGradient-2">
            <stop stop-color="#005E91" offset="0%"></stop>
            <stop stop-color="#003058" offset="100%"></stop>
        </linearGradient>
        <linearGradient x1="50%" y1="0%" x2="50%" y2="100%" id="linearGradient-3">
            <stop stop-color="#005E91" offset="0%"></stop>
            <stop stop-color="#003058" offset="100%"></stop>
        </linearGradient>
    </defs>
    <g id="icons-/-Bank" stroke="none" stroke-width="1" fill="none" fill-rule="evenodd">
        <path d="M13,21.9998 C13.552,21.9998 14,22.4478 14,22.9998 C14,23.5123714 13.6137143,23.9352694 13.1165685,23.9930682 L13,23.9998 L12,23.9998 L12,37.9998 L13,37.9998 C13.552,37.9998 14,38.4478 14,38.9998 C14,39.5123714 13.6137143,39.9352694 13.1165685,39.9930682 L13,39.9998 L3,39.9998 C2.448,39.9998 2,39.5518 2,38.9998 C2,38.4478 2.448,37.9998 3,37.9998 L4,37.9998 L4,23.9998 L3,23.9998 C2.448,23.9998 2,23.5518 2,22.9998 C2,22.4478 2.448,21.9998 3,21.9998 L13,21.9998 Z M10,37.9998 L10,23.9998 L6,23.9998 L6,37.9998 L10,37.9998 Z" id="Combined-Shape" fill="url(#linearGradient-1)" fill-rule="nonzero"></path>
        <path d="M47,47.9998 L47,47.9998 L1,47.9998 C0.448,47.9998 0,47.5518 0,46.9998 C0,46.4478 0.448,45.9998 1,45.9998 L47,45.9998 C47.552,45.9998 48,46.4478 48,46.9998 C48,47.5518 47.552,47.9998 47,47.9998" id="Fill-4" fill="url(#linearGradient-2)" fill-rule="nonzero"></path>
        <path d="M47,43.9998 L47,43.9998 L1,43.9998 C0.448,43.9998 0,43.5518 0,42.9998 C0,42.4478 0.448,41.9998 1,41.9998 L47,41.9998 C47.552,41.9998 48,42.4478 48,42.9998 C48,43.5518 47.552,43.9998 47,43.9998" id="Fill-6" fill="url(#linearGradient-2)" fill-rule="nonzero"></path>
        <path d="M29,21.9998 C29.552,21.9998 30,22.4478 30,22.9998 C30,23.5123714 29.6137143,23.9352694 29.1165685,23.9930682 L29,23.9998 L28,23.9998 L28,37.9998 L29,37.9998 C29.552,37.9998 30,38.4478 30,38.9998 C30,39.5123714 29.6137143,39.9352694 29.1165685,39.9930682 L29,39.9998 L19,39.9998 C18.448,39.9998 18,39.5518 18,38.9998 C18,38.4478 18.448,37.9998 19,37.9998 L20,37.9998 L20,23.9998 L19,23.9998 C18.448,23.9998 18,23.5518 18,22.9998 C18,22.4478 18.448,21.9998 19,21.9998 L29,21.9998 Z M26,37.9998 L26,23.9998 L22,23.9998 L22,37.9998 L26,37.9998 Z" id="Combined-Shape" fill="#B03478" fill-rule="nonzero"></path>
        <path d="M45,21.9998 C45.552,21.9998 46,22.4478 46,22.9998 C46,23.5123714 45.6137143,23.9352694 45.1165685,23.9930682 L45,23.9998 L44,23.9998 L44,37.9998 L45,37.9998 C45.552,37.9998 46,38.4478 46,38.9998 C46,39.5123714 45.6137143,39.9352694 45.1165685,39.9930682 L45,39.9998 L35,39.9998 C34.448,39.9998 34,39.5518 34,38.9998 C34,38.4478 34.448,37.9998 35,37.9998 L36,37.9998 L36,23.9998 L35,23.9998 C34.448,23.9998 34,23.5518 34,22.9998 C34,22.4478 34.448,21.9998 35,21.9998 L45,21.9998 Z M42,37.9998 L42,23.9998 L38,23.9998 L38,37.9998 L42,37.9998 Z" id="Combined-Shape" fill="url(#linearGradient-1)" fill-rule="nonzero"></path>
        <path d="M47,19.9998 L47,19.9998 L1,19.9998 C0.572,19.9998 0.194,19.7278 0.054,19.3258 C-0.084,18.9218 0.048,18.4738 0.384,18.2118 L23.448,0.2118 C23.812,-0.0722 24.318,-0.0702 24.68,0.2118 L47.618,18.2118 C47.954,18.4758 48.084,18.9238 47.946,19.3258 C47.806,19.7298 47.426,19.9998 47,19.9998 L47,19.9998 Z M3.906,17.9998 L3.906,17.9998 L44.106,17.9998 L24.06,2.2698 L3.906,17.9998 Z" id="Fill-28" fill="url(#linearGradient-3)" fill-rule="nonzero"></path>
    </g>
</svg>