<?xml version="1.0" encoding="utf-8"?>
<!-- Generator: Adobe Illustrator 23.1.1, SVG Export Plug-In . SVG Version: 6.00 Build 0)  -->
<svg version="1.1" id="Layer_1" xmlns="http://www.w3.org/2000/svg" xmlns:xlink="http://www.w3.org/1999/xlink" x="0px" y="0px"
	 viewBox="0 0 1839 330" style="enable-background:new 0 0 1839 330;" xml:space="preserve">
<style type="text/css">
	.st0{fill:#007BFF;}
</style>
<g>
	<path class="st0" d="M1442.4,96.3h44.1v32.1h-44.1V96.3z M1444.1,143.8h40.7v113.3h-40.7V143.8z"/>
	<path class="st0" d="M1660.7,227.2c-18.2,22.6-42,34-71.6,34c-12.4,0-23.7-2.1-34-6.3c-10.3-4.2-19.1-10-26.4-17.4
		s-13-16.2-17.1-26.5s-6.2-21.6-6.2-34c0-12.2,2-23.5,6-33.9c4-10.4,9.7-19.4,17.1-27s16.2-13.6,26.5-17.8c10.3-4.3,21.6-6.4,34-6.4
		c14,0,26.9,2.3,38.8,7c11.9,4.7,21.9,12.8,30.1,24.3l-28.2,28.4c-4.5-6.1-9.9-11-16.2-14.7c-6.3-3.7-13.4-5.5-21.4-5.5
		c-6.8,0-12.8,1.1-18.1,3.4c-5.3,2.2-9.8,5.4-13.4,9.4c-3.6,4-6.4,8.7-8.3,14.1c-1.9,5.4-2.9,11.2-2.9,17.5c0,6.4,1,12.4,3,17.8
		s4.9,10.2,8.6,14.2c3.7,4,8.2,7.1,13.4,9.4c5.2,2.2,11,3.4,17.5,3.4c9.3,0,16.9-1.6,22.8-4.9c5.9-3.3,11.6-8.5,17.2-15.6
		L1660.7,227.2z"/>
	<path class="st0" d="M1672.8,96.3h44.1v32.1h-44.1V96.3z M1674.5,143.8h40.7v113.3h-40.7V143.8z"/>
</g>
<path class="st0" d="M277.5,119.2c-3.6-5.2-7-9.2-11.2-13.4c-129.7,15.5-172.1,109.5-175.2,116c15-32.3,32.1-64.7,63.4-86.6
	c33.8-23.6,70.5-37.7,108.8-40.5c-0.9-8.7-2.6-15.1-7.9-22.7c-9.2-13-23.1-20.8-37.8-22.6c-0.5-0.1-1.2-0.1-1.9-0.3
	c-26.1-2.1-52.7,1.7-77.8,11.6c-2.3-4.1-5.4-8.4-9.3-12.6c-10.2-11.1-24.1-18.5-38.2-21.4l-7,19.4c9.8,3.5,17.7,7,24.9,14.8
	c4.3,4.6,5.4,9.2,3.5,13.4c-7.6,5.3-11.2,9-11.2,9c-23.4,22.3-39.4,50.1-47.8,79.8c-0.1,0.6-0.4,1.3-0.5,1.8
	c-3.5,14.5-0.9,30.2,8.3,43.2c5.3,7.5,16.7,18.5,27.4,20.4c2.7,5.7,5.8,11.1,9.6,16.4c8.1,11.6,18.1,21,29.2,28.5
	c36,25.2,80.3,35.8,123.4,30c1.7-0.1,3.4-0.4,4.9-0.8c2.8-0.5,5.7-1,8.5-1.5c2.1,1.9,5.3,2.2,7.8,0.5c0,0,0,0,0.1-0.1c0,0,0,0,0.1,0
	c2.5-1.7,3.2-4.8,2.1-7.5c1.5-2.5,3-5,4.4-7.5c0.9-1.4,1.7-2.8,2.5-4.4c20.1-38.6,25.3-83.6,14.1-126.1
	C291.2,143.4,285.7,130.8,277.5,119.2"/>
<rect x="521.5" y="94.8" class="st0" width="21.8" height="162"/>
<path class="st0" d="M1290.1,142.9h33.6l1,12.4c3.7-4.5,8.7-8.1,14.7-11c6.1-2.7,12.4-4.1,19.1-4.1c13.2,0,23.5,3.9,31.2,11.6
	c7.7,7.8,11.5,19.2,11.5,34.5v70.5h-35v-65.6c0-6.3-1.6-11.4-4.8-15.1c-3.1-3.7-7.6-5.6-13.3-5.6c-3.9,0-7.2,0.6-10.2,2.1
	c-3,1.4-5.3,3.2-7.2,5.4c-1.9,2.3-3.4,4.9-4.4,7.9c-1,3-1.4,6.2-1.4,9.6v61.3h-34.7V142.9H1290.1z"/>
<path class="st0" d="M1197.4,142.9h33.6l1.2,14.3c3-3.9,7-7.6,12-11.1c5-3.6,11.8-5.3,19.8-5.3c3.1,0,5.7,0.1,7.9,0.5
	s4.4,0.9,6.4,1.7l-5.6,30.9c-3.6-1.2-7.8-1.7-12.7-1.7c-8.3,0-15,2.4-20,7.4c-5.2,4.9-7.6,11.9-7.6,21v56.1h-35L1197.4,142.9
	L1197.4,142.9z"/>
<path class="st0" d="M1121.6,230.3c4.4,0,8.3-0.9,11.6-2.6c3.4-1.7,6.3-4,8.7-7c2.3-3,4.1-6.2,5.2-9.8c1.2-3.6,1.7-7.4,1.7-11.2
	s-0.5-7.6-1.7-11.2s-2.8-6.8-5.2-9.7c-2.3-2.8-5.2-5-8.7-6.8c-3.4-1.7-7.2-2.6-11.6-2.6s-8.3,0.9-11.8,2.6c-3.5,1.7-6.3,4-8.7,6.8
	c-2.3,2.8-4,6.1-5.2,9.7c-1.2,3.6-1.8,7.4-1.8,11.2s0.7,7.6,1.8,11.2s3,7,5.2,9.8c2.3,3,5.2,5.2,8.7,7
	C1113.4,229.4,1117.2,230.3,1121.6,230.3 M1060.4,199.7c0-8.4,1.6-16.3,4.5-23.6s7.1-13.8,12.5-19.4c5.3-5.6,11.8-9.8,19.4-13
	c7.5-3.1,15.9-4.8,24.9-4.8s17.3,1.6,24.8,4.8c7.5,3.1,13.8,7.5,19.2,13c5.3,5.6,9.6,12,12.5,19.4s4.5,15.2,4.5,23.6
	s-1.6,16.3-4.5,23.6s-7.2,13.8-12.5,19.4s-11.8,9.9-19.2,13.2s-15.8,4.9-24.8,4.9s-17.3-1.7-24.9-4.9c-7.5-3.2-13.9-7.6-19.4-13.2
	c-5.3-5.6-9.6-11.9-12.5-19.4C1062,216,1060.4,208.1,1060.4,199.7"/>
<path class="st0" d="M1056.3,241.6c-4.7,5.2-10.8,9.7-18.6,13.3c-7.7,3.7-16.8,5.6-27.4,5.6c-9.2,0-17.6-1.5-25.2-4.5
	c-7.5-3-13.9-7.2-19.4-12.6c-5.3-5.4-9.5-11.9-12.5-19.4s-4.5-15.6-4.5-24.5c0-8.4,1.5-16.3,4.7-23.6c3.1-7.4,7.4-13.8,12.8-19.4
	c5.4-5.6,11.9-9.8,19.4-13c7.5-3.1,15.8-4.8,24.7-4.8c10.3,0,19.4,1.7,27,5.2c7.6,3.4,13.9,7.9,19.2,13.6l-21.2,22.9
	c-2.6-3-5.8-5.6-9.4-7.8c-3.7-2.3-8.7-3.4-14.8-3.4c-4.3,0-8,0.9-11.2,2.6c-3.4,1.7-6.2,3.9-8.5,6.7c-2.3,2.7-4.1,5.9-5.3,9.6
	s-1.8,7.5-1.8,11.5c0,3.7,0.7,7.4,1.8,11.1c1.2,3.6,3,6.8,5.3,9.7s5.2,5.2,8.5,7c3.4,1.8,7.1,2.7,11.2,2.7c5.9,0,11-1.2,15.1-3.5
	c4-2.3,7.2-4.9,9.7-7.6L1056.3,241.6z"/>
<path class="st0" d="M900.9,206.4c-0.8-0.1-2.3-0.4-4.7-0.6c-2.3-0.3-4.9-0.4-7.8-0.4c-9.7,0-16.7,1.4-20.7,4.1s-6.1,6.6-6.1,11.6
	c0,9.4,5.7,14.1,17,14.1c2.7,0,5.4-0.4,8.1-1.3s5-2.2,7.1-3.7c2.1-1.7,3.6-3.6,5-6.1c1.3-2.4,1.9-5.3,1.9-8.5v-9.2L900.9,206.4
	L900.9,206.4z M900.9,246c-3.9,4.5-8.8,8-14.7,10.5c-5.9,2.5-12.5,3.6-19.8,3.6c-4,0-8.3-0.5-12.8-1.7c-4.4-1.2-8.5-3-12.4-5.7
	c-3.7-2.7-7-6.3-9.4-10.8c-2.5-4.5-3.7-10.2-3.7-17c0-6.6,1.3-12.5,4-17.7c2.7-5.2,6.3-9.6,11.1-13c4.7-3.5,10.2-6.1,16.7-7.9
	c6.5-1.8,13.3-2.7,20.8-2.7c4,0,8.1,0.1,12.3,0.3s6.8,0.4,8.1,0.8v-2.4c0-3-0.7-5.4-1.8-7.4c-1.2-2.1-2.8-3.7-4.9-5
	c-2.1-1.4-4.4-2.3-7-3c-2.6-0.5-5.3-0.9-8.3-0.9c-7.8,0-14.2,1-19.4,3c-5,1.9-9.4,4.1-13,6.6L832.5,154c2.5-1.8,5.2-3.6,8.3-5.3
	c3.1-1.8,6.7-3.4,11-4.9c4.3-1.4,8.9-2.6,14.2-3.5c5.3-0.9,11.2-1.3,18.1-1.3c17.3,0,30.1,4.6,38.3,13.9
	c8.3,9.3,12.4,21.8,12.4,37.6v66.2h-32.8L900.9,246z"/>
<path class="st0" d="M770.5,190.4c-0.7-8.8-3.7-16.1-9.2-22.3c-5.5-6.2-13.3-9.2-23.4-9.2c-5.2,0-9.8,0.9-13.9,2.7
	s-7.6,4.1-10.6,7.1s-5.2,6.3-6.8,10.1c-1.7,3.7-2.5,7.8-2.7,11.8h66.6L770.5,190.4L770.5,190.4z M790.1,240.2
	c-1.3,1.4-3.2,3.4-5.8,5.6c-2.6,2.3-5.9,4.5-10.1,6.6c-4.1,2.1-9,3.9-14.6,5.4s-11.9,2.3-19.1,2.3c-8.8,0-16.8-1.4-24-4.4
	c-7.2-3-13.5-7.1-18.7-12.4s-9.2-11.8-12-19.2c-2.8-7.5-4.3-15.8-4.3-24.8c0-8.3,1.4-16,4.1-23.2c2.7-7.2,6.6-13.4,11.6-18.7
	c5-5.3,11-9.4,17.8-12.5s14.5-4.6,22.7-4.6c9.7,0,18.1,1.8,25,5.6s12.7,8.6,17.2,14.8c4.4,6.2,7.8,13.2,9.8,21.2
	c2.1,7.9,3.1,16.1,3.1,24.8h-89.1c0.1,5,1.3,9.7,3.2,13.8c2.1,4.3,4.8,7.9,8.1,11c3.4,3.1,7.2,5.6,11.6,7.2c4.4,1.8,9,2.7,13.8,2.7
	c9.5,0,17.4-1.7,23.5-4.9c6.2-3.2,10.6-6.4,13.3-9.4L790.1,240.2z"/>
<g>
	<path class="st0" d="M563.7,143.8h21.8V210c0,10.7,2.2,18.5,6.6,23.2c4.4,4.8,10.7,7.2,19,7.2c6.3,0,11.5-1.3,15.6-3.9
		s7.5-5.9,10.1-10.1s4.4-8.8,5.4-14.1c1-5.3,1.5-10.6,1.5-16.1v-52.4h21.8v101.5v4.5c0,2.3,0.1,4.6,0.3,7h-20.9l-0.8-16.8
		c-1.4,1.9-3.2,4-5.3,6.3s-4.7,4.4-7.8,6.2s-6.6,3.5-10.7,4.8c-4,1.3-8.7,1.9-13.8,1.9c-14.7,0-25.6-4.3-32.5-12.8
		s-10.5-20.1-10.5-34.9L563.7,143.8L563.7,143.8z"/>
</g>
<g>
	<path class="st0" d="M419,238c2.3,0.6,5,1.3,8.4,2.1c3.4,0.8,8.3,1,14.7,1c6.3,0,12-1,17-3.1c5-2.1,9.3-4.9,13-8.5
		c3.6-3.6,6.5-8,8.4-13.2c1.9-5,3-10.6,3-16.6c0-5.2-0.6-10.2-1.8-15c-1.2-4.8-3.1-9-5.8-12.6s-6.1-6.6-10.1-8.8
		c-4-2.2-9-3.2-14.8-3.2c-5.3,0-9.9,0.9-13.9,2.8s-7.2,4.3-9.9,7.2s-4.6,6.4-5.9,10.5s-1.9,8-1.9,12.3V238L419,238L419,238z
		 M397.5,94.8h21.8v61.4c1.2-1.4,2.7-3.1,4.8-4.9s4.5-3.5,7.4-5c3-1.6,6.3-2.8,10.1-3.7c3.7-1,8-1.4,12.8-1.4
		c8.4,0,15.9,1.6,22.2,4.5c6.5,3,11.8,7.1,16.1,12.4c4.4,5.3,7.6,11.5,9.8,18.6c2.2,7.1,3.2,14.7,3.2,22.9c0,8.9-1.5,17-4.6,24.5
		c-3.1,7.5-7.4,13.8-13,19.2c-5.5,5.3-12.3,9.6-20,12.5s-16.4,4.5-25.7,4.5c-9.2,0-17.8-0.8-25.7-2.2c-7.9-1.4-14.3-3.1-19.2-5.2
		L397.5,94.8L397.5,94.8z"/>
</g>
</svg>
