<?xml version="1.0" encoding="UTF-8" standalone="no"?>
<svg
   xmlns:dc="http://purl.org/dc/elements/1.1/"
   xmlns:cc="http://creativecommons.org/ns#"
   xmlns:rdf="http://www.w3.org/1999/02/22-rdf-syntax-ns#"
   xmlns:svg="http://www.w3.org/2000/svg"
   xmlns="http://www.w3.org/2000/svg"
   viewBox="0 0 1920 581.33331"
   height="581.33331"
   width="1920"
   xml:space="preserve"
   id="svg2"
   version="1.1"><metadata
     id="metadata8"><rdf:RDF><cc:Work
         rdf:about=""><dc:format>image/svg+xml</dc:format><dc:type
           rdf:resource="http://purl.org/dc/dcmitype/StillImage" /></cc:Work></rdf:RDF></metadata><defs
     id="defs6"><clipPath
       id="clipPath18"
       clipPathUnits="userSpaceOnUse"><path
         id="path16"
         d="M 0,436 H 1440 V 0 H 0 Z" /></clipPath></defs><g
     transform="matrix(1.3333333,0,0,-1.3333333,0,581.33333)"
     id="g10"><g
       id="g12"><g
         clip-path="url(#clipPath18)"
         id="g14"><g
           transform="translate(1381,378.2407)"
           id="g20"><path
             id="path22"
             style="fill:#000000;fill-opacity:1;fill-rule:nonzero;stroke:none"
             d="M 0,0 C 0.006,4.806 -0.965,6.222 -6.028,6.165 -32.321,5.869 -58.62,5.903 -84.914,6.14 c -4.735,0.043 -5.779,-1.369 -5.768,-5.911 0.152,-57.628 0.105,-115.255 0.065,-172.883 -10e-4,-1.944 0.549,-3.987 -0.703,-6.424 -1.23,1.745 -2.268,3.194 -3.283,4.659 -40.702,58.823 -81.43,117.628 -122.017,176.531 -2.081,3.021 -4.175,4.024 -7.72,3.994 -19.766,-0.165 -39.541,-0.304 -59.303,0.069 -5.496,0.104 -6.651,-1.426 -6.643,-6.746 0.168,-110.033 0.125,-220.067 0.134,-330.1 0,-1.861 0.115,-3.722 0.176,-5.582 h 90.653 c 0.061,44.357 0.123,88.713 0.182,133.071 0.007,4.953 0.001,9.906 1.079,15.288 34.647,-49.453 69.293,-98.906 103.941,-148.359 h 94.01 C -0.111,-224.169 -0.144,-112.084 0,0" /></g><g
           transform="translate(257.2695,115.7729)"
           id="g24"><path
             id="path26"
             style="fill:#000000;fill-opacity:1;fill-rule:nonzero;stroke:none"
             d="m 0,0 c -4.549,-12.056 -13.889,-18.797 -26.837,-18.918 -12.663,-0.119 -25.327,-0.026 -37.991,-0.026 -12.85,-0.001 -25.702,0.126 -38.549,-0.085 -3.446,-0.056 -4.376,0.873 -4.347,4.328 0.167,19.74 0.172,39.482 -0.004,59.221 -0.032,3.606 1.248,4.275 4.504,4.26 25.328,-0.114 50.656,0.066 75.982,-0.108 C -11.191,48.563 -0.231,38.313 2.045,21.456 3.023,14.218 2.637,6.988 0,0 m -102.982,185.75 c 20.701,-0.152 41.404,0.02 62.106,-0.112 15.962,-0.102 25.282,-9.977 25.183,-26.308 -0.098,-16.173 -9.658,-25.957 -25.55,-26.056 -9.884,-0.061 -19.769,-0.011 -29.654,-0.011 -10.818,-0.001 -21.638,0.139 -32.451,-0.083 -3.415,-0.07 -4.428,0.805 -4.38,4.309 0.202,14.545 0.215,29.096 -0.009,43.64 -0.059,3.794 1.19,4.646 4.755,4.621 M 92.491,29.062 c -3.724,28.985 -20.625,50.065 -45.062,65.367 -2.76,1.728 -5.564,3.384 -8.657,5.26 1.61,1.302 2.754,2.216 3.886,3.144 18.355,15.032 28.984,34.345 30.97,57.97 4.862,57.815 -41.352,107.693 -99.465,107.692 -41.954,0 -83.908,-0.016 -125.862,0.008 -15.472,0.009 -30.945,0.115 -46.417,0.176 0,-112.663 0.025,-225.325 -0.107,-337.988 -0.004,-3.832 0.751,-4.591 4.584,-4.585 83.937,0.142 167.875,0.108 251.812,0.108 1.452,1.678 2.902,3.357 4.355,5.034 24.425,28.184 34.684,61.072 29.963,97.814" /></g><g
           transform="translate(645.9106,139.1299)"
           id="g28"><path
             id="path30"
             style="fill:#000000;fill-opacity:1;fill-rule:nonzero;stroke:none"
             d="m 0,0 c -16.647,-27.263 -41.647,-42.197 -72.754,-46.429 -31.808,-4.328 -60.714,3.265 -84.962,25.122 -17.146,15.455 -26.454,35.222 -29.981,57.803 -4.008,25.65 -1.944,50.719 10.301,73.925 18.061,34.226 47.875,50.728 85.694,52.417 C -55.5,164.455 -25.269,151.439 -3.7,121.461 9.938,102.506 14.856,80.729 14.797,55.813 14.937,37.125 10.775,17.646 0,0 M 85.318,148.288 C 38.492,236.577 -65.238,272.599 -154.897,238.867 -227.742,211.461 -269.4,157.296 -278.939,80.04 c -6.591,-53.373 7.043,-101.922 40.908,-144.301 9.937,-12.435 21.891,-22.744 34.029,-32.882 H 29.903 c 8.775,8.237 18.327,15.575 26.599,24.422 54.594,58.397 66.392,150.16 28.816,221.009" /></g><g
           transform="translate(956.0635,229.8149)"
           id="g32"><path
             id="path34"
             style="fill:#000000;fill-opacity:1;fill-rule:nonzero;stroke:none"
             d="m 0,0 c -6.95,-6.148 -15.192,-9.596 -24.388,-9.789 -17.335,-0.363 -34.68,-0.108 -52.019,-0.356 -3.65,-0.051 -3.751,1.661 -3.73,4.4 0.092,11.934 0.039,23.869 0.039,35.804 0,11.561 0.136,23.126 -0.079,34.683 -0.068,3.663 0.558,5.194 4.745,5.12 16.963,-0.299 33.943,0.125 50.899,-0.35 C -7.929,69.047 5.396,58.802 10.885,43.286 16.462,27.523 12.312,10.893 0,0 m 29.983,-84.181 c 2.907,1.652 5.669,3.17 8.378,4.779 2.879,1.708 5.836,3.326 8.539,5.287 39.698,28.793 58.359,68.068 55.386,116.664 -2.601,42.539 -22.175,75.995 -59.314,98.07 -20.701,12.304 -43.622,16.998 -67.429,17.121 -46.816,0.24 -93.636,-0.026 -140.452,0.204 -5.367,0.026 -6.743,-1.225 -6.735,-6.68 0.178,-110.796 0.135,-221.593 0.126,-332.389 0,-2.234 -0.112,-4.468 -0.172,-6.703 h 91.771 c -0.06,30.332 -0.077,60.664 -0.246,90.995 -0.019,3.275 1.227,3.702 4.177,4.087 7.318,0.957 11.486,-1.681 15.38,-8.197 17.438,-29.185 35.56,-57.961 53.435,-86.885 h 106.32 c -2.743,6.993 -7.739,12.579 -11.84,18.703 -18.967,28.319 -38.116,56.517 -57.324,84.944" /></g></g></g></g></svg>