<?xml version="1.0" encoding="UTF-8"?>
<svg width="1920px" height="1080px" viewBox="0 0 1920 1080" version="1.1" xmlns="http://www.w3.org/2000/svg" xmlns:xlink="http://www.w3.org/1999/xlink">
    <!-- Generator: Sketch 61 (89581) - https://sketch.com -->
    <title>box-uk</title>
    <desc>Created with Sketch.</desc>
    <g id="box-uk" stroke="none" stroke-width="1" fill="none" fill-rule="evenodd">
        <g id="box-uk-logo" transform="translate(87.000000, 2.000000)" fill-rule="nonzero">
            <polygon id="Path" fill="#FFFFFF" points="1330.52942 593.093031 1470 795 1349.72303 795 1270.00616 671.921272 1190.33455 795 1073 795 1211.70103 594.539421 1078.11528 400 1198.39225 400 1272.22429 515.66598 1346.78062 400 1464.11517 400"></polygon>
            <path d="M1099,595.46131 L1099,596.911045 C1099,710.624669 1007.62146,803 884.608404,803 C762.318425,803 671.708149,712.165013 671.708149,598.451389 L671.708149,596.956349 C671.708149,483.197421 763.0415,390.867394 886.099745,390.867394 C1008.34453,390.867394 1099,481.702381 1099,595.46131 L1099,595.46131 Z M988.459982,598.451389 L988.459982,596.956349 C988.459982,538.604497 946.431276,487.637235 884.563212,487.637235 C820.43554,487.637235 782.157783,537.109458 782.157783,595.506614 L782.157783,596.956349 C782.157783,655.308201 824.141297,706.275463 886.009361,706.275463 C950.137033,706.275463 988.459982,656.757937 988.459982,598.451389 L988.459982,598.451389 Z M644.818815,595.46131 L644.818815,596.911045 C644.818815,729.154101 558.637371,801.50496 465.044412,801.50496 C405.345572,801.50496 368.559155,774.141204 341.986167,742.428241 L341.986167,794.12037 L230,794.12037 L230,255 L341.986167,255 L341.986167,455.154101 C369.28223,418.185847 406.836913,390.867394 465.044412,390.867394 C557.146029,390.867394 644.818815,463.263558 644.818815,595.46131 L644.818815,595.46131 Z M532.832649,596.956349 L532.832649,595.506614 C532.832649,529.770172 488.634718,486.1875 436.3022,486.1875 C384.014873,486.1875 340.540018,529.770172 340.540018,595.506614 L340.540018,596.956349 C340.540018,662.692791 384.014873,706.275463 436.3022,706.275463 C488.634718,706.275463 532.832649,663.417659 532.832649,596.956349 Z" id="Shape" fill="#FFFFFF"></path>
            <path d="M1693.00754,235.62374 L1746,312.828811 L1700.96545,312.828811 L1666.87303,262.534705 L1653.17276,277.821942 L1653.17276,312.828811 L1615.64397,312.828811 L1615.64397,177.414643 L1653.17276,177.414643 L1653.17276,232.367287 L1699.78985,177.414643 L1744.2366,177.414643 L1693.00754,235.62374 Z M1614.46837,971.265505 C1622.96887,1027.16795 1584.08362,1066.69767 1528.06172,1059.05405 L1230.04695,1018.61976 L156.497463,872.983946 C191.465524,898.00551 206.274655,942.75381 193.139481,983.704024 C180.004307,1024.65424 141.932213,1052.43055 98.9382451,1052.43055 C55.9442768,1052.43055 17.8721827,1024.65424 4.73700914,983.704024 C-8.39816444,942.75381 6.41096582,898.00551 41.3790276,872.983946 L167.168299,198.445902 L167.168299,198.400673 L187.741311,77.6405434 C197.236547,21.9190153 249.550777,-11.4143988 304.035347,3.60146754 L1419.18301,311.064899 C1473.7128,326.080766 1525.21315,384.108948 1533.71365,440.01139 L1614.46837,971.265505 Z M1469.68863,794.738618 L1330.37995,592.70285 L1463.76541,399.486642 L1346.56706,399.486642 L1272.09728,515.271636 L1198.35095,399.486642 L1078.2136,399.486642 L1211.64428,594.150163 L1073.10426,794.69339 L1190.30261,794.69339 L1269.92694,671.536148 L1349.55128,794.69339 L1469.68863,794.69339 L1469.68863,794.738618 Z M1100.41437,597.858901 L1100.41437,596.411588 C1100.41437,482.842792 1009.75747,392.159623 887.359356,392.159623 C764.283009,392.159623 672.857449,484.335333 672.857449,597.904129 L672.857449,599.39667 C672.857449,712.920238 763.514347,803.603407 885.867248,803.603407 C1008.94359,803.558178 1100.41437,711.382468 1100.41437,597.858901 L1100.41437,597.858901 Z M645.999496,597.858901 L645.999496,596.411588 C645.999496,464.389559 558.281599,392.159623 466.132593,392.159623 C407.895144,392.159623 370.321138,419.432417 343.01103,456.338883 L343.01103,256.474084 L230.967243,256.474084 L230.967243,794.738618 L343.01103,794.738618 L343.01103,743.132885 C369.552476,774.838072 406.403036,802.110866 466.132593,802.110866 C559.773708,802.110866 645.999496,729.88093 645.999496,597.858901 Z M1593.62407,177.414643 L1593.62407,252.493975 C1593.62407,296.229947 1568.66516,315.361608 1530.18685,315.361608 C1491.70853,315.361608 1467.51829,295.82289 1467.51829,253.489002 L1467.51829,177.414643 L1505.63488,177.414643 L1505.63488,252.674889 C1505.63488,272.213607 1515.49184,281.53068 1530.59378,281.53068 C1545.65052,281.53068 1555.50748,272.620663 1555.50748,253.669916 L1555.50748,177.414643 L1593.62407,177.414643 Z" id="Shape" fill="#007399"></path>
            <path d="M990,597.747067 L990,599.241202 C990,657.512451 951.672316,707 887.536723,707 C825.661017,707 783.672316,656.063593 783.672316,597.747067 L783.672316,596.29821 C783.672316,537.981683 821.954802,488.494135 886.090395,488.494135 C947.966102,488.494135 990,539.430541 990,597.747067 L990,597.747067 Z M534.316384,596.252933 L534.316384,597.70179 C534.316384,664.122865 490.112994,706.954723 437.774011,706.954723 C385.480226,706.954723 342,663.398436 342,597.70179 L342,596.252933 C342,530.556287 385.480226,487 437.774011,487 C490.112994,487 534.316384,530.601564 534.316384,596.252933 Z" id="Shape" fill="#007399"></path>
            <path d="M155.782332,872.934482 L1230,1018.60257 L145.512046,1076.85171 C89.0028485,1079.88175 41.9043103,1036.10445 40.7732215,979.619056 L27.0191815,289.809896 C25.9333363,233.324506 71.0864017,190.76826 127.459868,195.335934 L166.414567,198.501648 L71.1768888,757.792928 L155.782332,872.934482 Z" id="Path" fill="#CFE3EC"></path>
        </g>
    </g>
</svg>