<?xml version="1.0" encoding="utf-8"?><svg version="1.2" baseProfile="tiny" xmlns="http://www.w3.org/2000/svg" viewBox="0 0 400 260" overflow="visible">
  <path fill="#FFF" d="M298.08 141.98l30.81 44.67h-26.57l-17.61-27.23-17.6 27.23h-25.92l30.64-44.35-29.51-43.04h26.57l16.31 25.59 16.47-25.59h25.92z"/>
  <path fill="#FFF" d="M247.22 142.79v.32c0 25.1-20.22 45.49-47.44 45.49-27.06 0-47.11-20.05-47.11-45.15v-.33c0-25.11 20.21-45.49 47.44-45.49 27.05 0 47.11 20.05 47.11 45.16zm-24.46.66v-.33c0-12.88-9.3-24.13-22.99-24.13-14.19 0-22.66 10.92-22.66 23.81v.32c0 12.88 9.29 24.13 22.98 24.13 14.19 0 22.67-10.93 22.67-23.8zM146.72 142.79v.32c0 29.19-19.07 45.16-39.78 45.16-13.21 0-21.35-6.04-27.23-13.04v11.41H54.93v-119h24.78v44.18c6.04-8.16 14.35-14.19 27.23-14.19 20.38 0 39.78 15.98 39.78 45.16zm-24.78.33v-.32c0-14.51-9.78-24.13-21.36-24.13-11.57 0-21.19 9.62-21.19 24.13v.32c0 14.51 9.62 24.13 21.19 24.13 11.58 0 21.36-9.46 21.36-24.13z"/>
  <path fill="#007399" d="M378.28 63.03L390 80.1h-9.96l-7.54-11.12-3.03 3.38v7.74h-8.3V50.16h8.3v12.15l10.31-12.15h9.83zM360.91 225.68c1.88 12.36-6.72 21.1-19.11 19.41l-65.91-8.94-237.43-32.2a21.88 21.88 0 01-18.7-25.46L40.82 54.81v-.01l4.55-26.7c2.1-12.32 13.67-19.69 25.72-16.37l246.63 67.98c12.06 3.32 23.45 16.15 25.33 28.51l17.86 117.46zm-32.02-39.03l-30.81-44.67 29.5-42.72h-25.92l-16.47 25.6-16.31-25.6h-26.57l29.51 43.04-30.64 44.34h25.92l17.61-27.23 17.61 27.23h26.57zm-81.67-43.53v-.32c0-25.11-20.05-45.16-47.12-45.16-27.22 0-47.44 20.38-47.44 45.49v.33c0 25.1 20.05 45.15 47.11 45.15 27.22-.01 47.45-20.39 47.45-45.49zm-100.5 0v-.32c0-29.19-19.4-45.16-39.78-45.16-12.88 0-21.19 6.03-27.23 14.19V67.64H54.93v119.01h24.78v-11.41c5.87 7.01 14.02 13.04 27.23 13.04 20.71 0 39.78-15.97 39.78-45.16zM356.3 50.16v16.6c0 9.67-5.52 13.9-14.03 13.9s-13.86-4.32-13.86-13.68V50.16h8.43V66.8c0 4.32 2.18 6.38 5.52 6.38 3.33 0 5.51-1.97 5.51-6.16V50.16h8.43z"/>
  <path fill="#007399" d="M222.76 143.12v.33c0 12.87-8.48 23.8-22.67 23.8-13.69 0-22.98-11.25-22.98-24.13v-.32c0-12.88 8.47-23.81 22.66-23.81 13.69 0 22.99 11.25 22.99 24.13zM121.94 142.79v.32c0 14.67-9.78 24.13-21.36 24.13-11.57 0-21.19-9.62-21.19-24.13v-.32c0-14.51 9.62-24.13 21.19-24.13 11.58 0 21.36 9.63 21.36 24.13z"/>
  <path fill="#CFE3EC" d="M38.46 203.95l237.43 32.21-239.7 12.88c-12.49.67-22.9-9.01-23.15-21.5L10 75.01c-.24-12.49 9.74-21.9 22.2-20.89l8.61.7-21.05 123.67a21.89 21.89 0 0018.7 25.46z"/>
</svg>
