<?xml version="1.0" encoding="UTF-8" standalone="no"?>
<svg
   xmlns:dc="http://purl.org/dc/elements/1.1/"
   xmlns:cc="http://creativecommons.org/ns#"
   xmlns:rdf="http://www.w3.org/1999/02/22-rdf-syntax-ns#"
   xmlns:svg="http://www.w3.org/2000/svg"
   xmlns="http://www.w3.org/2000/svg"
   viewBox="0 0 982.66669 455.98666"
   height="455.98666"
   width="982.66669"
   xml:space="preserve"
   id="svg2"
   version="1.1"><metadata
     id="metadata8"><rdf:RDF><cc:Work
         rdf:about=""><dc:format>image/svg+xml</dc:format><dc:type
           rdf:resource="http://purl.org/dc/dcmitype/StillImage" /></cc:Work></rdf:RDF></metadata><defs
     id="defs6" /><g
     transform="matrix(1.3333333,0,0,-1.3333333,0,455.98667)"
     id="g10"><g
       transform="scale(0.1)"
       id="g12"><path
         id="path14"
         style="fill:#142c61;fill-opacity:1;fill-rule:nonzero;stroke:none"
         d="M 7200.39,3386.88 H 169.332 c -75.1328,0 -136.2617,-61.13 -136.2617,-136.6 V 169.5 C 33.0703,94.1406 94.1992,33.0117 169.332,33.0117 H 7200.39 c 75.13,0 136.6,61.1289 136.6,136.4883 v 3080.78 c 0,75.47 -61.47,136.6 -136.6,136.6" /><path
         id="path16"
         style="fill:#ffffff;fill-opacity:1;fill-rule:nonzero;stroke:none"
         d="m 6692.63,2614.57 c -91.81,0 -132.96,1.19 -171.84,1.19 -41.03,0 -88.62,-7.65 -110.88,-72.12 l -81.84,-146.98 -328.36,-580.82 -328.25,580.82 -81.84,146.98 c -22.32,64.47 -69.79,72.12 -110.88,72.12 -38.87,0 -80.14,-1.19 -171.83,-1.19 -89.99,0 -54.81,-69.73 -54.81,-69.73 0,0 333.25,-590.63 601.39,-1068 0,0 -4.67,-567.461 -4.67,-606.961 0,-39.508 21.12,-64.551 63.97,-64.551 h 156.36 c 28.12,0 78.14,2.391 78.14,62.723 l -1.19,608.789 c 268.26,477.37 601.33,1068 601.33,1068 0,0 35.07,69.73 -54.8,69.73 z M 7174.88,264.391 c 0,-34.731 -17.63,-68.422 -68.98,-69.45 H 260.113 c -1.824,0 -3.3,0.348 -4.781,0.348 -33.469,1.93 -60.332,29.481 -60.332,63.633 0,0 0.23,1250.358 0.23,2109.708 H 912.848 L 623.477,2263.44 V 678.969 c 0,-44.168 24.816,-67.391 62.152,-70.918 h 974.431 c 332.84,10.808 599.32,283.34 599.32,618.689 0,219.83 -114.62,412.55 -287.43,522.51 108.14,95.62 189.65,251.35 189.65,405.59 0,409.81 -290.95,642.26 -706.22,642.26 h -404.11 v 427.91 c 1806.11,0 6054.63,0 6054.63,0 53.28,0 68.98,-34.72 68.98,-69.1 z M 195.23,3160.8 v 0.12 c 0,33.81 26.071,61.47 59.079,64.09 0,0 135.921,0 369.168,0 V 2797.1 H 195.23 c 0,221.29 0,363.7 0,363.7 z m 849.66,-780.45 h 465.13 c 121.69,0 220.62,-104.05 220.62,-225.85 0,-122.03 -98.93,-221.06 -220.62,-221.06 l -80.48,-4.11 c -43.03,-1.93 -65.91,-27.32 -66.93,-66.71 l 0.11,-271.38 c 2.5,-42.91 29.15,-65.46 70.12,-65.46 h 200.12 c 132.28,0 239.52,-107.22 239.52,-239.62 0,-124.99 -96.31,-227.21 -218.8,-237.46 l -540.48,-0.45 c -40.3,0.8 -66.49,23.9 -68.31,68.31 z M 7233.4,3419.95 H 136.262 C 61.1328,3419.95 0,3358.82 0,3283.35 V 136.488 C 0,61.1406 61.1328,0 136.262,0 H 7233.4 C 7308.53,0 7370,61.1406 7370,136.488 V 3283.35 c 0,75.47 -61.47,136.6 -136.6,136.6 z M 3321.79,1744.47 h -422.04 v 571.9 l 422.04,0.35 c 157.98,0 286.21,-128.04 286.21,-286.18 0,-158.04 -128.23,-286.07 -286.21,-286.07 z m 4.98,868.47 h -657.85 c -57.17,0 -65.39,-47.18 -65.39,-76.49 0,-29.63 0.22,-1665.438 0.22,-1665.438 0,-68.532 63.15,-65.684 70.12,-65.684 h 168.02 c 27.64,0 58.2,22.313 58.2,53.953 l -0.34,597.069 h 427.02 c 319.34,0 578.34,258.8 578.34,578.37 0,319.39 -259,578.22 -578.34,578.22 z m 1023.84,-1136.89 296.76,840.67 314.73,-840.67 z m 523.3,1060.99 c -22.43,45.74 -38.68,75.56 -119.84,75.56 h -213.36 c -81.07,0 -97.18,-29.82 -119.75,-75.56 -20.52,-45.1 -617.33,-1661.931 -617.33,-1661.931 0,0 -35.06,-69.781 54.7,-69.781 91.75,0 111.59,-1.137 150.61,-1.137 41.03,0 88.53,7.739 110.73,72.047 19.64,56.242 108.93,304.292 108.93,304.292 h 837.66 c 0,0 89.41,-248.05 108.83,-304.292 22.37,-64.308 69.83,-72.047 110.76,-72.047 38.98,0 58.96,1.137 150.61,1.137 89.99,0 54.8,69.781 54.8,69.781 0,0 -596.84,1616.831 -617.35,1661.931" /></g></g></svg>