<?xml version="1.0" encoding="UTF-8"?>
<svg width="44px" height="44px" viewBox="0 0 44 44" version="1.1" xmlns="http://www.w3.org/2000/svg" xmlns:xlink="http://www.w3.org/1999/xlink">
    <title>calculate</title>
    <defs>
        <linearGradient x1="50%" y1="0%" x2="50%" y2="100%" id="linearGradient-1">
            <stop stop-color="#005E91" offset="0%"></stop>
            <stop stop-color="#003058" offset="100%"></stop>
        </linearGradient>
        <linearGradient x1="50%" y1="0%" x2="50%" y2="100%" id="linearGradient-2">
            <stop stop-color="#005E91" offset="0%"></stop>
            <stop stop-color="#003058" offset="100%"></stop>
        </linearGradient>
        <linearGradient x1="50%" y1="0%" x2="50%" y2="100%" id="linearGradient-3">
            <stop stop-color="#005E91" offset="0%"></stop>
            <stop stop-color="#003058" offset="100%"></stop>
        </linearGradient>
        <linearGradient x1="50%" y1="0%" x2="50%" y2="100%" id="linearGradient-4">
            <stop stop-color="#005E91" offset="0%"></stop>
            <stop stop-color="#003058" offset="100%"></stop>
        </linearGradient>
        <linearGradient x1="50%" y1="0%" x2="50%" y2="100%" id="linearGradient-5">
            <stop stop-color="#005E91" offset="0%"></stop>
            <stop stop-color="#003058" offset="100%"></stop>
        </linearGradient>
    </defs>
    <g id="⏹️-Product-Wireframe" stroke="none" stroke-width="1" fill="none" fill-rule="evenodd">
        <g id="sections-/-Tax-Icons-" transform="translate(-569.000000, -79.000000)" fill-rule="nonzero">
            <g id="calculate" transform="translate(569.000000, 79.000000)">
                <path d="M40.8940469,23.034 C39.2628672,22.6948906 37.0531563,22.515625 34.5039062,22.515625 C33.4517734,22.515625 32.4586797,22.5466484 31.5390625,22.606375 L31.5390625,2.36328125 C31.5390625,1.06021094 30.4788516,-2.44249065e-15 29.1757812,-2.44249065e-15 L2.36328125,-2.44249065e-15 C0.993867187,-2.44249065e-15 0,1.1385 0,2.70703125 L0,38.3710938 C0,39.3049766 1.03236719,40.390625 2.36328125,40.390625 L25.0078125,40.390625 L25.0078125,41.3789062 C25.0078125,42.8358906 27.3454844,43.3218672 28.1137656,43.481625 C29.7449453,43.8207344 31.9546562,44 34.5039062,44 C37.0531563,44 39.2628672,43.8207344 40.8940469,43.481625 C41.6623281,43.3218672 44,42.8358906 44,41.3789062 L44,25.1367187 C44,23.6797344 41.6623281,23.1937578 40.8940469,23.034 Z M42.7109375,33.2536875 C42.6976172,33.2813594 42.4294062,33.7550469 40.4162344,34.1415937 C38.8883516,34.4348984 36.8438984,34.5899297 34.5039062,34.5899297 C32.1639141,34.5899297 30.1194609,34.4348984 28.5915781,34.1415937 C26.5289062,33.7455937 26.2979922,33.2578125 26.296875,33.2578125 L26.296875,30.7461172 C26.9714844,31.0621094 27.7340937,31.2210078 28.1137656,31.2998984 C29.7449453,31.6390078 31.9546562,31.8182734 34.5039062,31.8182734 C37.0531563,31.8182734 39.2628672,31.6390078 40.8940469,31.2998984 C41.2736328,31.2210078 42.0363281,31.0621094 42.7109375,30.7461172 L42.7109375,33.2536875 Z M16.5859375,33.3867188 C16.2298984,33.3867188 15.9414062,33.6752109 15.9414062,34.03125 L15.9414062,35.6640625 L6.14453125,35.6640625 C5.80860156,35.6640625 5.5859375,35.3888906 5.5859375,35.2773438 L5.5859375,28.875 L15.9414062,28.875 L15.9414062,31.0234375 C15.9414062,31.3794766 16.2298984,31.6679687 16.5859375,31.6679687 C16.9419766,31.6679687 17.2304688,31.3794766 17.2304688,31.0234375 L17.2304688,28.875 L25.0078125,28.875 L25.0078125,35.6640625 L17.2304688,35.6640625 L17.2304688,34.03125 C17.2304688,33.6752109 16.9419766,33.3867188 16.5859375,33.3867188 Z M27.5859375,23.1517344 C26.5976562,23.3940781 25.0078125,23.9349687 25.0078125,25.1367187 L25.0078125,27.5859375 L17.2304688,27.5859375 L17.2304688,20.796875 L27.0273438,20.796875 C27.3353437,20.796875 27.5859375,21.0474688 27.5859375,21.3554688 L27.5859375,23.1517344 Z M15.9414062,27.5859375 L5.5859375,27.5859375 L5.5859375,21.5273438 C5.5859375,21.0904375 5.81040625,20.796875 6.14453125,20.796875 L15.9414062,20.796875 L15.9414062,27.5859375 Z M42.7109375,29.1931406 C42.6976172,29.2208125 42.4294062,29.6945 40.4162344,30.0810469 C38.8883516,30.3743516 36.8438984,30.5293828 34.5039062,30.5293828 C32.1639141,30.5293828 30.1194609,30.3743516 28.5915781,30.0810469 C26.5289062,29.6850469 26.2979922,29.1972656 26.296875,29.1972656 L26.296875,26.6855703 C26.9714844,27.0015625 27.7340937,27.1604609 28.1137656,27.2393516 C29.7449453,27.5785469 31.9546562,27.7578125 34.5039062,27.7578125 C37.0531563,27.7578125 39.2628672,27.5785469 40.8940469,27.2394375 C41.2736328,27.1605469 42.0363281,27.0016484 42.7109375,26.6856563 L42.7109375,29.1931406 Z M40.4162344,24.2530234 C42.3603125,24.62625 42.67725,25.0810312 42.7087891,25.1367187 C42.67725,25.1924062 42.3603125,25.6471875 40.4162344,26.0204141 C38.8883516,26.3137187 36.8438984,26.46875 34.5039062,26.46875 C32.1639141,26.46875 30.1194609,26.3137187 28.5915781,26.0204141 C26.6475,25.6471875 26.3305625,25.1924062 26.2990234,25.1367187 C26.3305625,25.0810312 26.6475,24.62625 28.5915781,24.2530234 C30.1194609,23.9597187 32.1639141,23.8046875 34.5039062,23.8046875 C36.8438984,23.8046875 38.8883516,23.9597187 40.4162344,24.2530234 Z M2.36328125,39.1015625 C1.74264062,39.1015625 1.2890625,38.5889453 1.2890625,38.3710938 L1.2890625,17.359375 L22.515625,17.359375 C22.8716641,17.359375 23.1601562,17.0708828 23.1601562,16.7148438 C23.1601562,16.3588047 22.8716641,16.0703125 22.515625,16.0703125 L1.2890625,16.0703125 L1.2890625,2.70703125 C1.2890625,1.84567969 1.71067187,1.2890625 2.36328125,1.2890625 L29.1757812,1.2890625 C29.7681484,1.2890625 30.25,1.77091406 30.25,2.36328125 L30.25,16.0703125 L25.5234375,16.0703125 C25.1673984,16.0703125 24.8789062,16.3588047 24.8789062,16.7148438 C24.8789062,17.0708828 25.1673984,17.359375 25.5234375,17.359375 L30.25,17.359375 L30.25,22.7139687 C29.7627344,22.7647578 29.3037422,22.8251719 28.875,22.8946953 L28.875,21.3554688 C28.875,20.3366797 28.0461328,19.5078125 27.0273438,19.5078125 L6.14453125,19.5078125 C5.09119531,19.5078125 4.296875,20.3760391 4.296875,21.5273438 L4.296875,35.2773438 C4.296875,36.1700625 5.16028906,36.953125 6.14453125,36.953125 L25.0078125,36.953125 L25.0078125,39.1015625 L2.36328125,39.1015625 Z M40.4162344,42.2626016 C38.8883516,42.5559062 36.8438984,42.7109375 34.5039062,42.7109375 C32.1639141,42.7109375 30.1194609,42.5559062 28.5915781,42.2626016 C26.5289062,41.8666875 26.2979922,41.3789062 26.296875,41.3789062 L26.296875,38.8672109 C26.9714844,39.1832031 27.7340937,39.3421016 28.1137656,39.4209922 C29.7449453,39.7601016 31.9546562,39.9393672 34.5039062,39.9393672 C35.7322109,39.9393672 36.8957188,39.8968281 37.9620313,39.8127813 C38.3168672,39.7848516 38.5818984,39.4745312 38.5539687,39.1196953 C38.5260391,38.7648594 38.2148594,38.4997422 37.8608828,38.5277578 C36.8280859,38.6090547 35.6986953,38.6503047 34.5039062,38.6503047 C32.1639141,38.6503047 30.1194609,38.4952734 28.5915781,38.2019687 C26.5289062,37.8061406 26.2979922,37.3183594 26.296875,37.3183594 L26.296875,34.8066641 C26.9714844,35.1226563 27.7340937,35.2815547 28.1137656,35.3604453 C29.7449453,35.6995547 31.9546562,35.8788203 34.5039062,35.8788203 C37.0531563,35.8788203 39.2628672,35.6995547 40.8940469,35.3604453 C41.2736328,35.2815547 42.0363281,35.1226563 42.7109375,34.8066641 L42.7109375,37.3141484 C42.6977031,37.3416484 42.4603437,37.7611953 40.7543984,38.132875 C40.4066094,38.2086719 40.1860937,38.5520781 40.2618906,38.8998672 C40.3361406,39.2501484 40.6899453,39.4691172 41.0288828,39.392375 C41.3815703,39.3155469 42.0798125,39.1629219 42.7109375,38.8677266 L42.7109375,41.3746953 C42.6976172,41.4024531 42.4294062,41.8760547 40.4162344,42.2626016 L40.4162344,42.2626016 Z" id="Shape" fill="url(#linearGradient-1)"></path>
                <path d="M28.9609375,12.0742188 L28.9609375,5.28515625 C28.9609375,4.26636719 28.1320703,3.4375 27.1132812,3.4375 L12.890625,3.4375 C12.5345859,3.4375 12.2460938,3.72599219 12.2460938,4.08203125 C12.2460938,4.43807031 12.5345859,4.7265625 12.890625,4.7265625 L27.1132812,4.7265625 C27.4212812,4.7265625 27.671875,4.97715625 27.671875,5.28515625 L27.671875,12.0742188 C27.671875,12.3822187 27.4212812,12.6328125 27.1132812,12.6328125 L6.14453125,12.6328125 C5.83653125,12.6328125 5.5859375,12.3822187 5.5859375,12.0742188 L5.5859375,5.28515625 C5.5859375,4.97715625 5.83653125,4.7265625 6.14453125,4.7265625 L9.8828125,4.7265625 C10.2388516,4.7265625 10.5273438,4.43807031 10.5273438,4.08203125 C10.5273438,3.72599219 10.2388516,3.4375 9.8828125,3.4375 L6.14453125,3.4375 C5.12574219,3.4375 4.296875,4.26636719 4.296875,5.28515625 L4.296875,12.0742188 C4.296875,13.0930078 5.12574219,13.921875 6.14453125,13.921875 L27.1132812,13.921875 C28.1320703,13.921875 28.9609375,13.0930078 28.9609375,12.0742188 Z" id="Path" fill="url(#linearGradient-2)"></path>
                <path d="M13.5351562,31.625 L8.89453125,31.625 C8.53849219,31.625 8.25,31.9134922 8.25,32.2695312 C8.25,32.6255703 8.53849219,32.9140625 8.89453125,32.9140625 L13.5351562,32.9140625 C13.8911953,32.9140625 14.1796875,32.6255703 14.1796875,32.2695312 C14.1796875,31.9134922 13.8911953,31.625 13.5351562,31.625 Z" id="Path" fill="url(#linearGradient-3)"></path>
                <path d="M9.32421875,24.8359375 L10.5703125,24.8359375 L10.5703125,26.0820312 C10.5703125,26.4380703 10.8588047,26.7265625 11.2148438,26.7265625 C11.5708828,26.7265625 11.859375,26.4380703 11.859375,26.0820312 L11.859375,24.8359375 L13.1054688,24.8359375 C13.4615078,24.8359375 13.75,24.5474453 13.75,24.1914062 C13.75,23.8353672 13.4615078,23.546875 13.1054688,23.546875 L11.859375,23.546875 L11.859375,22.3007812 C11.859375,21.9447422 11.5708828,21.65625 11.2148438,21.65625 C10.8588047,21.65625 10.5703125,21.9447422 10.5703125,22.3007812 L10.5703125,23.546875 L9.32421875,23.546875 C8.96817969,23.546875 8.6796875,23.8353672 8.6796875,24.1914062 C8.6796875,24.5474453 8.96817969,24.8359375 9.32421875,24.8359375 Z" id="Path" fill="url(#linearGradient-1)"></path>
                <path d="M23.7926562,22.39875 C23.5408594,22.147125 23.1328281,22.147125 22.8811172,22.39875 L22,23.2798672 L21.1188828,22.39875 C20.8670859,22.147125 20.4590547,22.147125 20.2073438,22.39875 C19.9556328,22.6505469 19.9556328,23.0585781 20.2073438,23.3102891 L21.0884609,24.1914062 L20.2073438,25.0725234 C19.9556328,25.3243203 19.9556328,25.7323516 20.2073438,25.9840625 C20.4591406,26.2356875 20.8670859,26.2356875 21.1188828,25.9840625 L22,25.1029453 L22.8811172,25.9840625 C23.1329141,26.2356875 23.5408594,26.2356875 23.7926563,25.9840625 C24.0443672,25.7322656 24.0443672,25.3242344 23.7926563,25.0725234 L22.9115391,24.1914062 L23.7926563,23.3102891 C24.0443672,23.0584922 24.0443672,22.6504609 23.7926563,22.39875 L23.7926562,22.39875 Z" id="Path" fill="url(#linearGradient-4)"></path>
                <path d="M20.5516094,34.3875469 C20.7165234,34.3875469 20.8815234,34.3246406 21.0074219,34.1988281 L23.9292969,31.2769531 C24.1810078,31.0251562 24.1810078,30.617125 23.9292969,30.3654141 C23.6775,30.1137891 23.2694687,30.1137891 23.0177578,30.3654141 L20.0958828,33.2872891 C19.8441719,33.5390859 19.8441719,33.9471172 20.0958828,34.1988281 C20.2217812,34.3246406 20.3867812,34.3875469 20.5516094,34.3875469 L20.5516094,34.3875469 Z" id="Path" fill="url(#linearGradient-5)"></path>
                <g id="Group" transform="translate(20.109375, 29.992188)" fill="#000000">
                    <circle id="Oval" cx="0.64453125" cy="0.64453125" r="1"></circle>
                    <circle id="Oval" cx="3.22265625" cy="3.91015625" r="1"></circle>
                </g>
                <path d="M24.9648438,11.4296875 C25.7940547,11.4296875 26.46875,10.7549922 26.46875,9.92578125 L26.46875,7.43359375 C26.46875,6.60438281 25.7940547,5.9296875 24.9648438,5.9296875 L23.7617188,5.9296875 C22.9325078,5.9296875 22.2578125,6.60438281 22.2578125,7.43359375 L22.2578125,9.92578125 C22.2578125,10.7549922 22.9325078,11.4296875 23.7617188,11.4296875 L24.9648438,11.4296875 Z M23.546875,9.92578125 L23.546875,7.43359375 C23.546875,7.31508594 23.6432109,7.21875 23.7617188,7.21875 L24.9648438,7.21875 C25.0833516,7.21875 25.1796875,7.31508594 25.1796875,7.43359375 L25.1796875,9.92578125 C25.1796875,10.0442891 25.0833516,10.140625 24.9648438,10.140625 L23.7617188,10.140625 C23.6432109,10.140625 23.546875,10.0442891 23.546875,9.92578125 Z" id="Shape" fill="#B03478"></path>
            </g>
        </g>
    </g>
</svg>