<?xml version="1.0" encoding="UTF-8"?>
<svg width="49px" height="32px" viewBox="0 0 49 32" version="1.1" xmlns="http://www.w3.org/2000/svg" xmlns:xlink="http://www.w3.org/1999/xlink">
    <title>card</title>
    <defs>
        <linearGradient x1="50%" y1="0%" x2="50%" y2="100%" id="linearGradient-1">
            <stop stop-color="#005E91" offset="0%"></stop>
            <stop stop-color="#003058" offset="100%"></stop>
        </linearGradient>
    </defs>
    <g id="⏹️-Product-Wireframe" stroke="none" stroke-width="1" fill="none" fill-rule="evenodd">
        <g id="DR---Payments-2" transform="translate(-926.000000, -4391.000000)" stroke-width="2">
            <g id="Benefits" transform="translate(0.000000, 4304.000000)">
                <g id="elements-/-card-/-icon+h3+p-copy-2" transform="translate(927.000000, 44.000000)">
                    <g id="Group" transform="translate(0.000000, 35.000000)">
                        <path d="M5,9 L42,9 C44.7614237,9 47,11.2385763 47,14 L47,34 C47,36.7614237 44.7614237,39 42,39 L5,39 C2.23857625,39 3.38176876e-16,36.7614237 0,34 L0,14 C-3.38176876e-16,11.2385763 2.23857625,9 5,9 Z M0.5,18.5 L45.5,18.5" id="Combined-Shape" stroke="url(#linearGradient-1)"></path>
                        <line x1="6.5" y1="23.5" x2="22.5" y2="23.5" id="Line-2" stroke="#B03478" stroke-linecap="square"></line>
                        <line x1="33.5" y1="23.5" x2="39.5" y2="23.5" id="Line-2-Copy" stroke="#B03478" stroke-linecap="square"></line>
                        <line x1="6.5" y1="27.5" x2="12.5" y2="27.5" id="Line-2-Copy-2" stroke="#B03478" stroke-linecap="square"></line>
                    </g>
                </g>
            </g>
        </g>
    </g>
</svg>