<?xml version="1.0" encoding="UTF-8"?>
<svg width="48px" height="48px" viewBox="0 0 48 48" version="1.1" xmlns="http://www.w3.org/2000/svg" xmlns:xlink="http://www.w3.org/1999/xlink">
    <title>icons / cash rules everything aorund me cream get the money</title>
    <defs>
        <linearGradient x1="50%" y1="0%" x2="50%" y2="100%" id="linearGradient-1">
            <stop stop-color="#005E91" offset="0%"></stop>
            <stop stop-color="#003058" offset="100%"></stop>
        </linearGradient>
    </defs>
    <g id="icons-/-cash-rules-everything-aorund-me-cream-get-the-money" stroke="none" stroke-width="1" fill="none" fill-rule="evenodd">
        <path d="M47.8095238,9 C48.4670057,9 49,9.53299435 49,10.1904762 L49,38.7619048 C49,39.4193866 48.4670057,39.952381 47.8095238,39.952381 L0.19047619,39.952381 C-0.467005655,39.952381 -1,39.4193866 -1,38.7619048 L-1,10.1904762 C-1,9.53299435 -0.467005655,9 0.19047619,9 L47.8095238,9 Z M46.6190476,11.3809524 L1.38095238,11.3809524 L1.38095238,37.5714286 L46.6190476,37.5714286 L46.6190476,11.3809524 Z M9.71428571,32.8095238 C10.3717676,32.8095238 10.9047619,33.3425182 10.9047619,34 C10.9047619,34.6574818 10.3717676,35.1904762 9.71428571,35.1904762 L4.95238095,35.1904762 C4.29489911,35.1904762 3.76190476,34.6574818 3.76190476,34 C3.76190476,33.3425182 4.29489911,32.8095238 4.95238095,32.8095238 L9.71428571,32.8095238 Z M43.047619,13.7619048 C43.7051009,13.7619048 44.2380952,14.2948991 44.2380952,14.952381 C44.2380952,15.6098628 43.7051009,16.1428571 43.047619,16.1428571 L38.2857143,16.1428571 C37.6282324,16.1428571 37.0952381,15.6098628 37.0952381,14.952381 C37.0952381,14.2948991 37.6282324,13.7619048 38.2857143,13.7619048 L43.047619,13.7619048 Z" id="Combined-Shape" fill="url(#linearGradient-1)"></path>
        <circle id="Oval" stroke="#B03478" stroke-width="2" cx="24.5" cy="24.5" r="3.5"></circle>
    </g>
</svg>