<?xml version="1.0" encoding="UTF-8"?>
<svg width="45px" height="45px" viewBox="0 0 45 45" version="1.1" xmlns="http://www.w3.org/2000/svg" xmlns:xlink="http://www.w3.org/1999/xlink">
    <title>certificate</title>
    <defs>
        <linearGradient x1="50%" y1="0%" x2="50%" y2="100%" id="linearGradient-1">
            <stop stop-color="#005E91" offset="0%"></stop>
            <stop stop-color="#003058" offset="100%"></stop>
        </linearGradient>
        <linearGradient x1="50%" y1="0%" x2="50%" y2="100%" id="linearGradient-2">
            <stop stop-color="#005E91" offset="0%"></stop>
            <stop stop-color="#003058" offset="100%"></stop>
        </linearGradient>
    </defs>
    <g id="⏹️-Product-Wireframe" stroke="none" stroke-width="1" fill="none" fill-rule="evenodd">
        <g id="sections-/-Tax-Icons-" transform="translate(-190.000000, -364.000000)" fill-rule="nonzero">
            <g id="certificate" transform="translate(190.000000, 364.000000)">
                <path d="M27.5412598,18.3142089 L20.7821045,24.6983643 L17.538208,21.3610839 C17.1785888,20.9908447 16.5864258,20.9824219 16.2165527,21.3420411 C15.8463135,21.7020263 15.8378906,22.2938232 16.1975098,22.6640625 L20.0881348,26.6579589 C20.4495849,27.0216065 21.0336914,27.0340576 21.4101562,26.6857911 L28.8446045,19.6735839 C29.0251464,19.5032959 29.1306152,19.2681885 29.1375732,19.0202636 C29.1445313,18.7723388 29.0526123,18.5317383 28.881958,18.3515625 C28.5201416,17.9754638 27.9235839,17.9589844 27.5412598,18.3142089 L27.5412598,18.3142089 Z" id="Path" fill="#B03478"></path>
                <path d="M22.5256348,8.48913572 C14.8007812,8.48913572 8.51953125,14.7703857 8.51953125,22.4952393 C8.51953125,30.2204589 14.8007812,36.5017089 22.5256348,36.5017089 C30.2508545,36.5017089 36.5321045,30.2204589 36.5321045,22.4952393 C36.5321045,14.7703857 30.2508545,8.48913572 22.5256348,8.48913572 Z M22.5256348,34.6267089 C15.8320312,34.6267089 10.3945312,29.1796875 10.3945312,22.4952393 C10.3945312,15.8107911 15.8320312,10.3641357 22.5256348,10.3641357 C29.2258301,10.3641357 34.6571045,15.7954102 34.6571045,22.4952393 C34.6571045,29.1950683 29.2258301,34.6267089 22.5256348,34.6267089 Z" id="Shape" fill="url(#linearGradient-1)"></path>
                <path d="M41.8007812,17.3389893 L42.1102295,11.7795411 C42.1318359,11.4063721 41.9289551,11.0559082 41.5946045,10.8889161 L36.6445312,8.38586428 L34.1414795,3.43579106 C33.9711914,3.10437009 33.6229248,2.90258794 33.2508545,2.92016606 L27.6818848,3.22045894 L23.0412598,0.154541062 C22.7285156,-0.0516357188 22.3231201,-0.0516357188 22.0100098,0.154541062 L17.3693848,3.22045894 L11.8103027,2.91101072 C11.4367676,2.88903806 11.0866699,3.09191897 10.9196777,3.42663572 L8.41625981,8.37670894 L3.46655269,10.8797607 C3.13476563,11.0496826 2.93334956,11.3979492 2.95092769,11.7703857 L3.26000981,17.3298339 L0.194458031,21.9704589 C-0.01171875,22.2832031 -0.01171875,22.6885987 0.194458031,23.0017089 L3.25085447,27.6514893 L2.94140625,33.2109375 C2.91979978,33.5841065 3.1223145,33.9345703 3.45703125,34.1015625 L8.40710447,36.6046143 L10.9101563,41.5546875 C11.0800781,41.8864746 11.4283448,42.0878906 11.8007813,42.0703125 L17.3602295,41.7608643 L22.0008545,44.8264161 C22.3117676,45.0391846 22.7211914,45.0391846 23.0321045,44.8264161 L27.6727295,41.7608643 L33.2321777,42.0703125 C33.6053467,42.091919 33.9554443,41.8890381 34.1228027,41.5546875 L36.6258545,36.6046143 L41.5759277,34.1015625 C41.9073487,33.9312744 42.1091308,33.583374 42.0915527,33.2109375 L41.7821045,27.6514893 L44.8476563,23.0108643 C45.053833,22.6981201 45.053833,22.2923584 44.8476563,21.9796143 L41.8007812,17.3389893 Z M40.0568848,26.8828125 C39.942627,27.0505371 39.8895263,27.2523193 39.9071045,27.4548339 L40.1975098,32.7139893 L35.5195312,35.0764161 C35.3411865,35.1657714 35.1965332,35.3107911 35.1071777,35.4891357 L32.7443848,40.1671143 L27.4852295,39.8767089 C27.2838135,39.8693848 27.0849609,39.9213867 26.913208,40.0264893 L22.5256348,42.9235839 L18.1384277,40.0264893 C17.9860839,39.9235839 17.8066406,39.8679199 17.6228027,39.8671875 L17.5759277,39.8671875 L12.3164063,40.1579589 L9.95397947,35.4796143 C9.864624,35.3012695 9.71997075,35.1566162 9.54125981,35.0672607 L4.85375981,32.7139893 L5.14453125,27.4548339 C5.15185547,27.253418 5.09948728,27.0545654 4.99438481,26.8828125 L2.09765625,22.4952393 L4.99438481,18.1076661 C5.10900881,17.9403076 5.16210938,17.7381592 5.14453125,17.5360107 L4.85375981,12.2764893 L9.53210447,9.9140625 C9.71044922,9.82470703 9.85510256,9.68005369 9.94445803,9.50170894 L12.3068848,4.82336428 L17.5664063,5.11413572 C17.767456,5.12109375 17.9663086,5.06909175 18.1384277,4.96398928 L22.5256348,2.06726072 L26.913208,4.96398928 C27.0809326,5.07861328 27.283081,5.13171384 27.4852295,5.11413572 L32.7443848,4.82336428 L35.1071777,9.50170894 C35.1965333,9.68005369 35.3411865,9.82470703 35.5195312,9.9140625 L40.1975098,12.2764893 L39.9071045,17.5360107 C39.8997802,17.7370605 39.9521484,17.9359131 40.0568848,18.1076661 L42.9539795,22.4952393 L40.0568848,26.8828125 Z" id="Shape" fill="url(#linearGradient-2)"></path>
            </g>
        </g>
    </g>
</svg>