<?xml version="1.0" encoding="UTF-8"?>
<svg width="41px" height="44px" viewBox="0 0 41 44" version="1.1" xmlns="http://www.w3.org/2000/svg" xmlns:xlink="http://www.w3.org/1999/xlink">
    <title>chargeback</title>
    <defs>
        <linearGradient x1="50%" y1="0%" x2="50%" y2="100%" id="linearGradient-1">
            <stop stop-color="#005E91" offset="0%"></stop>
            <stop stop-color="#003058" offset="100%"></stop>
        </linearGradient>
        <linearGradient x1="50%" y1="0%" x2="50%" y2="100%" id="linearGradient-2">
            <stop stop-color="#005E91" offset="0%"></stop>
            <stop stop-color="#003058" offset="100%"></stop>
        </linearGradient>
    </defs>
    <g id="⏹️-Product-Wireframe" stroke="none" stroke-width="1" fill="none" fill-rule="evenodd">
        <g id="sections-/-Fraud-Icons" transform="translate(-636.000000, -839.000000)" fill-rule="nonzero">
            <g id="chargeback" transform="translate(636.000000, 839.000000)">
                <path d="M22.6043956,18.4380952 C23.3865963,18.4380952 24.0227106,19.0742095 24.0227106,19.8564103 L25.4410256,19.8564103 C25.4410256,18.5380864 24.533304,17.437474 23.3135531,17.1204806 L23.3135531,15.6014652 L21.8952381,15.6014652 L21.8952381,17.1204806 C20.6754872,17.437474 19.7677656,18.5380864 19.7677656,19.8564103 C19.7677656,21.4208117 21.0399941,22.6930403 22.6043956,22.6930403 C23.3865963,22.6930403 24.0227106,23.3291546 24.0227106,24.1113553 C24.0227106,24.893556 23.3865963,25.5296703 22.6043956,25.5296703 C21.8221949,25.5296703 21.1860806,24.893556 21.1860806,24.1113553 L19.7677656,24.1113553 C19.7677656,25.4296791 20.6754872,26.5302916 21.8952381,26.847285 L21.8952381,28.3663004 L23.3135531,28.3663004 L23.3135531,26.847285 C24.533304,26.5302916 25.4410256,25.4296791 25.4410256,24.1113553 C25.4410256,22.5469538 24.1687971,21.2747253 22.6043956,21.2747253 C21.8221949,21.2747253 21.1860806,20.638611 21.1860806,19.8564103 C21.1860806,19.0742095 21.8221949,18.4380952 22.6043956,18.4380952 Z" id="Path" fill="#B03478"></path>
                <path d="M22.6043956,0 C12.8286593,0 4.87545788,7.95320147 4.87545788,17.7289377 L4.87545788,31.2029304 L0.0772981685,31.2029304 L7.71208791,43.9273436 L15.3468777,31.2029304 L10.5487179,31.2029304 L10.5487179,17.7289377 C10.5487179,11.0812952 15.9567531,5.67326007 22.6043956,5.67326007 C29.2520381,5.67326007 34.6600733,11.0812952 34.6600733,17.7289377 L34.6600733,29.7846154 C34.6600733,31.3490168 35.9323018,32.6212454 37.4967033,32.6212454 C39.0611048,32.6212454 40.3333333,31.3490168 40.3333333,29.7846154 L40.3333333,17.7289377 C40.3333333,7.95320147 32.3801319,0 22.6043956,0 Z M38.9150183,29.7846154 C38.9150183,30.5668161 38.278904,31.2029304 37.4967033,31.2029304 C36.7145026,31.2029304 36.0783883,30.5668161 36.0783883,29.7846154 L36.0783883,17.7289377 C36.0783883,10.2990945 30.0342388,4.25494505 22.6043956,4.25494505 C15.1745524,4.25494505 9.13040293,10.2990945 9.13040293,17.7289377 L9.13040293,32.6212454 L12.8421333,32.6212454 L7.71208791,41.1715575 L2.58204249,32.6212454 L6.29377289,32.6212454 L6.29377289,17.7289377 C6.29377289,8.73469304 13.6108601,1.41831502 22.6043956,1.41831502 C31.5979311,1.41831502 38.9150183,8.73469304 38.9150183,17.7289377 L38.9150183,29.7846154 Z" id="Shape" fill="url(#linearGradient-1)"></path>
                <path d="M22.6043956,12.7648352 C17.5211546,12.7648352 13.385348,16.9006418 13.385348,21.9838828 C13.385348,27.0671238 17.5211546,31.2029304 22.6043956,31.2029304 C27.6876366,31.2029304 31.8234432,27.0671238 31.8234432,21.9838828 C31.8234432,16.9006418 27.6876366,12.7648352 22.6043956,12.7648352 Z M22.6043956,29.7846154 C18.3033553,29.7846154 14.803663,26.2849231 14.803663,21.9838828 C14.803663,17.6828425 18.3033553,14.1831502 22.6043956,14.1831502 C26.9054359,14.1831502 30.4051282,17.6828425 30.4051282,21.9838828 C30.4051282,26.2849231 26.9054359,29.7846154 22.6043956,29.7846154 Z" id="Shape" fill="url(#linearGradient-2)"></path>
            </g>
        </g>
    </g>
</svg>