<?xml version="1.0" encoding="UTF-8"?>
<svg width="97px" height="118px" viewBox="0 0 97 118" version="1.1" xmlns="http://www.w3.org/2000/svg" xmlns:xlink="http://www.w3.org/1999/xlink">
    <title>clip-dark</title>
    <defs>
        <linearGradient x1="50%" y1="0%" x2="50%" y2="100%" id="linearGradient-1">
            <stop stop-color="#002F57" offset="0%"></stop>
            <stop stop-color="#0075D7" offset="99.9918051%"></stop>
        </linearGradient>
        <linearGradient x1="50%" y1="0%" x2="50%" y2="100%" id="linearGradient-2">
            <stop stop-color="#002F57" offset="0%"></stop>
            <stop stop-color="#0075D7" offset="99.9918051%"></stop>
        </linearGradient>
        <linearGradient x1="50%" y1="0%" x2="50%" y2="100%" id="linearGradient-3">
            <stop stop-color="#002F57" offset="0%"></stop>
            <stop stop-color="#0075D7" offset="99.9918051%"></stop>
        </linearGradient>
        <linearGradient x1="50%" y1="0%" x2="50%" y2="100%" id="linearGradient-4">
            <stop stop-color="#002F57" offset="0%"></stop>
            <stop stop-color="#0075D7" offset="99.9918051%"></stop>
        </linearGradient>
        <linearGradient x1="50%" y1="0%" x2="50%" y2="100%" id="linearGradient-5">
            <stop stop-color="#002F57" offset="0%"></stop>
            <stop stop-color="#0075D7" offset="99.9918051%"></stop>
        </linearGradient>
        <linearGradient x1="50%" y1="0%" x2="50%" y2="100%" id="linearGradient-6">
            <stop stop-color="#002F57" offset="0%"></stop>
            <stop stop-color="#0075D7" offset="99.9918051%"></stop>
        </linearGradient>
        <linearGradient x1="50%" y1="0%" x2="50%" y2="100%" id="linearGradient-7">
            <stop stop-color="#002F57" offset="0%"></stop>
            <stop stop-color="#0075D7" offset="99.9918051%"></stop>
        </linearGradient>
    </defs>
    <g id="Page-1" stroke="none" stroke-width="1" fill="none" fill-rule="evenodd">
        <g id="clip-dark" transform="translate(-0.000000, 0.000000)" fill-rule="nonzero">
            <path d="M94.6993789,32.9591054 C95.6542109,32.9591054 96.4278945,32.1854218 96.4278945,31.2305898 L96.4278945,12.3625742 C96.4278945,9.39897656 94.0167305,6.98804297 91.0535938,6.98804297 L68.3998984,6.98804297 L68.3998984,5.37476172 C68.3998984,2.41093359 65.9887344,0 63.0253672,0 L58.6890977,0 C57.7344961,0 56.960582,0.773683594 56.960582,1.72851562 C56.960582,2.68334766 57.7344961,3.45703125 58.6890977,3.45703125 L63.0253672,3.45703125 C64.0825273,3.45703125 64.9426367,4.31714062 64.9426367,5.37453125 C64.9426367,7.74490234 64.9426367,9.77809765 64.9426367,12.2100039 C64.9426367,13.2673945 64.0822969,14.1275039 63.0253672,14.1275039 L33.4027578,14.1275039 C32.3453672,14.1275039 31.4852578,13.2673945 31.4852578,12.2100039 C31.4852578,9.77832812 31.4852578,7.74536328 31.4852578,5.37453125 C31.4852578,4.31737109 32.3453672,3.45703125 33.4027578,3.45703125 L51.8902695,3.45703125 C52.8451016,3.45703125 53.6187852,2.68334766 53.6187852,1.72851562 C53.6187852,0.773683594 52.8451016,0 51.8902695,0 L33.4027578,0 C30.4391602,0 28.0279961,2.41116406 28.0279961,5.37453125 L28.0279961,6.9878125 L5.37453125,6.9878125 C2.41093359,6.9878125 5.68434189e-14,9.39897656 5.68434189e-14,12.3623437 L5.68434189e-14,112.624778 C5.68434189e-14,115.588375 2.41116406,117.999309 5.37453125,117.999309 L91.0535938,117.999309 C94.0169609,117.999309 96.4278945,115.588145 96.4278945,112.624778 L96.4278945,37.5680195 C96.4278945,36.6134179 95.6542109,35.8395039 94.6993789,35.8395039 C93.7445469,35.8395039 92.9708633,36.6134179 92.9708633,37.5680195 L92.9708633,112.624778 C92.9708633,113.681938 92.1109844,114.542278 91.0535938,114.542278 L5.37453125,114.542278 C4.31737109,114.542278 3.45703125,113.682168 3.45703125,112.624778 L3.45703125,12.3625742 C3.45703125,11.305414 4.31737109,10.4450742 5.37453125,10.4450742 L28.0279961,10.4450742 L28.0279961,12.2097734 C28.0279961,15.1729101 30.4386992,17.5845351 33.4027578,17.5845351 L63.0251367,17.5845351 C65.9885039,17.5845351 68.399668,15.1736015 68.399668,12.2097734 L68.399668,10.4450742 L91.0533633,10.4450742 C92.1105234,10.4450742 92.9706328,11.3051836 92.9706328,12.3625742 L92.9706328,31.2303593 C92.9708633,32.1851914 93.7447773,32.9591054 94.6993789,32.9591054 Z" id="Path" fill="url(#linearGradient-1)"></path>
            <path d="M31.774957,30.0568125 C31.0978398,29.3836133 30.0035742,29.3863789 29.3301445,30.0630351 L21.2856328,38.1492617 L17.6488359,34.7307187 C16.9530508,34.0766484 15.8590156,34.1107578 15.2051758,34.8063125 C14.5513359,35.5020976 14.5852148,36.5959023 15.2807695,37.2499726 L20.1420469,41.8192461 C20.8237734,42.4599492 21.8913047,42.4419726 22.5515977,41.778914 L31.7811797,32.501625 C32.4543789,31.8247383 32.4516133,30.7302422 31.774957,30.0568125 Z" id="Path" fill="url(#linearGradient-2)"></path>
            <path d="M31.7747266,49.1442343 C31.0980703,48.4712656 30.0035742,48.4738008 29.3301445,49.1506875 L21.2856328,57.236914 L17.6488359,53.8183711 C16.9530508,53.1643008 15.8590156,53.1984101 15.2051758,53.8939648 C14.5513359,54.5895195 14.5852148,55.6835547 15.2807695,56.3373945 C20.4865977,61.2304765 20.4133086,61.3756718 21.3259648,61.3756718 C22.2943945,61.3756718 21.8198594,61.6017617 31.7814102,51.5883554 C32.4543789,50.9121601 32.4513828,49.8174336 31.7747266,49.1442343 Z" id="Path" fill="url(#linearGradient-3)"></path>
            <path d="M31.7747266,68.2316562 C31.0980703,67.558457 30.0035742,67.5609922 29.3299141,68.2381093 L21.2854023,76.3243359 L17.6486055,72.9060234 C16.9528203,72.2519531 15.8587852,72.2860625 15.2049453,72.9816172 C14.5511055,73.6771718 14.5852148,74.7714375 15.2805391,75.4252773 L20.1418164,79.9943203 C20.823543,80.6350234 21.8913047,80.6172773 22.5513672,79.9537578 L31.7809492,70.6764687 C32.4543789,69.9993515 32.4513828,68.9048554 31.7747266,68.2316562 Z" id="Path" fill="url(#linearGradient-4)"></path>
            <path d="M31.774957,87.319539 C31.0978398,86.6461093 30.0035742,86.6491054 29.330375,87.3255312 L21.2856328,95.4117578 L17.6488359,91.9932148 C16.9535117,91.339375 15.8590156,91.3732539 15.2051758,92.0688086 C14.5511055,92.7641328 14.5849844,93.8583984 15.2805391,94.5124687 L20.1415859,99.0817422 C20.823543,99.7226757 21.8913047,99.7044687 22.5509063,99.0414101 L31.7809492,89.7641211 C32.4543789,89.0870039 32.4516133,87.9925078 31.774957,87.319539 Z" id="Path" fill="url(#linearGradient-5)"></path>
            <path d="M80.5243984,30.4168047 L41.6325664,30.4168047 C40.6777344,30.4168047 39.9040508,31.1904883 39.9040508,32.1453203 C39.9040508,33.1001523 40.6777344,33.8738359 41.6325664,33.8738359 L80.524168,33.8738359 C81.4787695,33.8738359 82.252684,33.1001523 82.252684,32.1453203 C82.2531445,31.1904883 81.4792305,30.4168047 80.5243984,30.4168047 Z" id="Path" fill="url(#linearGradient-6)"></path>
            <path d="M80.5243984,49.0407539 L41.6325664,49.0407539 C40.6777344,49.0407539 39.9040508,49.8144375 39.9040508,50.7692695 C39.9040508,51.7241015 40.6777344,52.4977851 41.6325664,52.4977851 L80.524168,52.4977851 C81.4787695,52.4977851 82.252684,51.7241015 82.252684,50.7692695 C82.2531445,49.8146679 81.4792305,49.0407539 80.5243984,49.0407539 Z" id="Path" fill="url(#linearGradient-6)"></path>
            <path d="M80.5243984,67.6653945 L41.6325664,67.6653945 C40.6777344,67.6653945 39.9040508,68.4390781 39.9040508,69.3939101 C39.9040508,70.3487422 40.6777344,71.1224258 41.6325664,71.1224258 L80.524168,71.1224258 C81.4787695,71.1224258 82.252684,70.3487422 82.252684,69.3939101 C82.2531445,68.4393086 81.4792305,67.6653945 80.5243984,67.6653945 Z" id="Path" fill="url(#linearGradient-6)"></path>
            <path d="M80.5243984,86.2895742 L41.6325664,86.2895742 C40.6777344,86.2895742 39.9040508,87.0634883 39.9040508,88.0180898 C39.9040508,88.9729218 40.6777344,89.7466054 41.6325664,89.7466054 L80.524168,89.7466054 C81.479,89.7466054 82.2529141,88.9726914 82.2529141,88.0180898 C82.2529141,87.0634882 81.4792305,86.2895742 80.5243984,86.2895742 Z" id="Path" fill="url(#linearGradient-7)"></path>
            <path d="M61.2811797,38.316582 L41.6325664,38.316582 C40.6777344,38.316582 39.9040508,39.0902656 39.9040508,40.0450976 C39.9040508,40.9999297 40.6779648,41.7736132 41.6325664,41.7736132 L61.2811797,41.7736132 C62.2360117,41.7736132 63.0096953,40.9999297 63.0096953,40.0450976 C63.0096953,39.0902656 62.2362422,38.316582 61.2811797,38.316582 Z" id="Path" fill="#B03478"></path>
            <path d="M61.2811797,56.9407617 L41.6325664,56.9407617 C40.6777344,56.9407617 39.9040508,57.7144453 39.9040508,58.6692773 C39.9040508,59.6241093 40.6779648,60.3977929 41.6325664,60.3977929 L61.2811797,60.3977929 C62.2360117,60.3977929 63.0096953,59.6241093 63.0096953,58.6692773 C63.0096953,57.7144453 62.2362422,56.9407617 61.2811797,56.9407617 Z" id="Path" fill="#B03478"></path>
            <path d="M61.2811797,75.5651718 L41.6325664,75.5651718 C40.6777344,75.5651718 39.9040508,76.3390859 39.9040508,77.2936875 C39.9040508,78.2485195 40.6779648,79.0222031 41.6325664,79.0222031 L61.2811797,79.0222031 C62.2360117,79.0222031 63.0096954,78.2485195 63.0096954,77.2936875 C63.0096954,76.3390859 62.2362422,75.5651718 61.2811797,75.5651718 Z" id="Path" fill="#B03478"></path>
            <path d="M61.2811797,94.1893515 L41.6325664,94.1893515 C40.6777344,94.1893515 39.9040508,94.9630351 39.9040508,95.9178672 C39.9040508,96.8726992 40.6777344,97.6463828 41.6325664,97.6463828 L61.2811797,97.6463828 C62.2360117,97.6463828 63.0096953,96.8726992 63.0096953,95.9178672 C63.0096953,94.9630351 62.2362422,94.1893515 61.2811797,94.1893515 Z" id="Path" fill="#B03478"></path>
        </g>
    </g>
</svg>