<?xml version="1.0" encoding="UTF-8"?>
<svg width="1920px" height="1080px" viewBox="0 0 1920 1080" version="1.1" xmlns="http://www.w3.org/2000/svg" xmlns:xlink="http://www.w3.org/1999/xlink">
    <!-- Generator: Sketch 61 (89581) - https://sketch.com -->
    <title>Codal</title>
    <desc>Created with Sketch.</desc>
    <g id="Codal" stroke="none" stroke-width="1" fill="none" fill-rule="evenodd">
        <g id="codal-logo-blue-rgb" transform="translate(0.000000, 240.000000)" fill="#000000" fill-rule="nonzero">
            <g id="Group" transform="translate(960.000000, 300.500000) scale(-1, 1) rotate(-180.000000) translate(-960.000000, -300.500000) ">
                <path d="M1217.00545,512.346036 C1217.00545,463.586355 1216.75922,423.692071 1216.6361,423.692071 C1216.38987,423.692071 1212.94261,424.800246 1208.87977,426.154681 C1179.33184,436.497644 1134.39436,443.392952 1096.84386,443.392952 C1020.26547,443.392952 965.724912,418.028068 932.975954,367.175169 C909.830074,331.221061 897.764668,275.442942 899.73453,213.138906 C902.196858,139.629994 919.925617,87.2995288 954.767554,51.345421 C990.225072,14.7756607 1037.0093,-1.60069658 1100.66047,0.492522024 C1186.96505,3.32452366 1238.55082,36.2003688 1257.26451,100.105101 L1260.71177,111.556238 L1261.08112,356.339684 L1261.32735,601 L1239.1664,601 L1217.00545,601 L1217.00545,512.346036 Z M1124.66816,400.174145 C1152.12312,397.711535 1184.25649,390.446835 1207.40237,381.581438 L1217.00623,377.887523 L1217.00623,250.324319 C1217.00623,109.093628 1217.25168,113.772588 1209.00289,96.7805778 C1192.01282,61.318992 1149.78391,41.9875026 1089.82623,41.9875026 C1014.84835,41.9875026 969.295287,78.1878713 952.551459,150.958 C947.134338,174.352797 945.654894,189.86724 945.654894,224.220652 C945.533825,274.457898 950.950946,304.25548 965.601795,333.191149 C991.702469,385.275353 1044.64251,407.561975 1124.66816,400.174145 Z" id="Shape"></path>
                <polygon id="Path" points="1874.44694 304.25548 1874.44694 7.51096087 1897.22347 7.51096087 1920 7.51096087 1920 304.25548 1920 601 1897.22347 601 1874.44694 601"></polygon>
                <path d="M180.365502,443.762344 C127.917922,440.684081 81.872395,421.106331 52.4475794,389.708052 C25.361975,360.772383 9.11061238,322.109404 2.33921129,270.394591 C-0.738698301,248.10797 -0.738698301,195.284983 2.33921129,173.737144 C16.0051298,74.1245646 64.8823341,19.2083589 153.403014,3.81704569 C200.310356,-4.30956771 259.283104,1.10817455 311.853799,18.3464454 L325.642834,22.7791436 L325.642834,44.6963737 C325.642834,56.7631633 325.519718,66.6136038 325.273485,66.6136038 C325.150369,66.6136038 318.6252,64.3972547 310.745752,61.811514 C239.707599,37.5548043 162.882975,37.8010654 116.714332,62.3040361 C75.9628086,83.8518746 53.924976,121.77607 46.0455274,183.587585 C44.0756653,198.855767 44.0756653,244.906577 46.0455274,260.544151 C53.8018596,323.217578 77.686438,362.61934 120.654056,383.674657 C146.38538,396.357099 173.840333,401.159189 213.976274,399.927884 C247.587047,398.94284 274.05707,394.26388 307.298493,383.551526 C316.532222,380.596394 324.41167,378.133784 324.904136,378.133784 C325.396601,378.133784 325.519718,387.984225 325.396601,399.927884 L325.027252,421.721983 L312.100032,425.90842 C267.039436,440.191559 222.348189,446.224954 180.365502,443.762344 Z" id="Path"></path>
                <path d="M582.340494,443.762344 C548.114139,441.053473 522.136582,434.650686 498.990702,423.076419 C481.877525,414.580414 471.412632,407.069453 457.254248,392.909445 C425.982687,362.003688 409.115742,322.478795 402.467458,265.22311 C399.882013,243.42901 400.620712,185.927064 403.698621,166.964966 C411.208721,121.160418 424.997756,88.0383118 448.389869,60.2108175 C481.261943,21.178447 534.694453,0.123130506 600.684835,0.123130506 C696.715614,0.123130506 761.105483,42.2337636 787.821738,122.268593 C792.746393,137.044253 797.424816,159.207744 799.887143,178.662364 C801.857005,195.284983 801.857005,247.738578 799.887143,265.469371 C787.329272,374.562999 727.740943,434.896947 624.200064,443.392952 C609.426098,444.501127 593.544085,444.747388 582.340494,443.762344 Z M634.049375,400.297275 C689.69798,392.416923 726.14043,363.234993 744.115422,312.258963 C757.658224,274.088506 761.228599,217.940996 753.34915,168.319402 C749.163193,142.092604 739.313883,115.742676 726.879128,97.2730998 C716.537352,81.8817865 699.547291,67.1061258 682.064764,58.3638599 C639.466496,36.9391518 566.950946,36.4466298 523.121513,57.2556853 C508.101315,64.3972547 498.37512,71.4156935 487.540878,82.7437001 C466.611093,104.907191 454.79192,131.749641 447.897403,173.121491 C446.050657,184.080107 445.681308,193.438025 445.681308,222.989346 C445.804424,255.37267 446.050657,261.036673 448.636101,275.196681 C457.500481,325.187666 476.706637,358.556034 508.347547,379.118828 C527.676819,391.67814 550.8227,398.696579 583.571658,402.021102 C591.697339,402.883016 623.461366,401.774841 634.049375,400.297275 Z" id="Shape"></path>
                <path d="M1544.2488,442.038517 C1482.56749,437.236427 1434.30587,408.67015 1406.60468,360.402991 C1385.6749,323.833231 1375.57935,278.890596 1375.45484,221.758041 C1375.33312,170.41262 1383.33568,129.533292 1400.44886,94.3179676 C1409.92882,74.8633477 1420.39372,60.4570785 1435.66015,45.9276788 C1459.54473,23.2716656 1487.24591,9.72730998 1523.56525,3.20139316 C1539.07791,0.369391518 1578.22892,-0.61565253 1596.45014,1.23130506 C1632.03078,4.92522024 1661.57871,14.6525302 1683.98589,30.0438435 L1692.23469,35.8309773 L1692.23469,21.6709691 L1692.23469,7.51096087 L1714.39564,7.51096087 L1736.55659,7.51096087 L1736.31036,169.673837 L1735.94101,331.959844 L1732.49375,343.410981 C1717.1042,396.110838 1677.70696,428.12477 1614.54825,439.083385 C1603.59089,441.053473 1572.56557,443.516083 1562.96249,443.146691 C1559.88458,443.146691 1551.51266,442.531039 1544.2488,442.038517 Z M1604.20648,397.834665 C1648.15903,390.323704 1676.35268,370.130301 1688.41808,337.131326 L1691.61911,328.265929 L1691.98846,225.451957 C1692.35781,109.832411 1692.60404,113.280066 1683.37031,94.5642286 C1676.22956,80.2810899 1662.56364,66.8598648 1647.29721,58.9795124 C1624.76691,47.5283753 1606.17634,43.3419381 1573.42738,42.3568941 C1555.08304,41.8643721 1546.95736,42.1106331 1536,43.7113296 C1507.92946,47.8977669 1486.26098,57.7482073 1468.77845,74.2476951 C1442.92401,98.6275353 1429.01186,131.257119 1422.48669,182.971932 C1420.39372,198.855767 1420.39372,244.660316 1422.48669,260.544151 C1430.61238,325.064536 1454.37384,366.682647 1494.38666,386.506658 C1510.39179,394.387011 1526.52004,398.327187 1552.4976,400.789797 C1562.22379,401.651711 1590.90991,400.051014 1604.20648,397.834665 Z" id="Shape"></path>
            </g>
        </g>
    </g>
</svg>