<?xml version="1.0" encoding="utf-8"?>
<!-- Generator: Adobe Illustrator 22.1.0, SVG Export Plug-In . SVG Version: 6.00 Build 0)  -->
<svg version="1.1" id="Layer_1" xmlns="http://www.w3.org/2000/svg" xmlns:xlink="http://www.w3.org/1999/xlink" x="0px" y="0px"
	 viewBox="0 0 424.32849 153.4575" style="enable-background:new 0 0 424.32849 153.4575;" xml:space="preserve">
<style type="text/css">
	.st0{fill:#039BE5;}
	.st1{fill:#243746;}
</style>
<g>
	
		<rect x="95.29724" y="58.59179" transform="matrix(0.70711 -0.70711 0.70711 0.70711 -21.07682 102.7933)" class="st0" width="36.49368" height="36.49368"/>
	<path class="st1" d="M113.54408,113.4575l-36.6191-36.6187l36.6191-36.6191h-36.9121c-20.1396,0-36.61909,16.479-36.61909,36.6191
		c0,20.1392,16.4795,36.6187,36.61909,36.6187H113.54408z"/>
	<g>
		<path class="st1" d="M153.27458,66.3823c0-2.0664,0.3564-4.021,1.0713-5.8628c0.71289-1.8408,1.71869-3.4477,3.01559-4.8198
			c1.29691-1.3716,2.84669-2.4522,4.65041-3.2417c1.80469-0.7891,3.7959-1.1836,5.9756-1.1836
			c2.78119,0,5.20509,0.6299,7.2724,1.8887c2.0665,1.2592,3.62601,2.9594,4.67879,5.1015l-3.72069,1.1836
			c-0.82721-1.5024-1.9727-2.6777-3.43851-3.5229c-1.46581-0.8457-3.10059-1.2686-4.9043-1.2686
			c-1.50391,0-2.90329,0.3013-4.2002,0.9019c-1.29591,0.6015-2.42381,1.4189-3.38181,2.4521
			c-0.9581,1.0342-1.711,2.2647-2.2549,3.6924c-0.545,1.4287-0.8174,2.9878-0.8174,4.6792c0,1.6543,0.28119,3.2134,0.84569,4.6787
			c0.56351,1.46581,1.33301,2.73441,2.3105,3.80521c0.9776,1.0713,2.1143,1.917,3.41121,2.53709
			c1.2968,0.61961,2.6777,0.9297,4.14349,0.9297c0.93851,0,1.8692-0.1309,2.79012-0.3945
			c0.92088-0.2623,1.77539-0.629,2.56538-1.0992c0.78911-0.4692,1.4648-1.0048,2.0293-1.6064
			c0.56351-0.6011,0.95801-1.2402,1.18361-1.917l3.7207,1.1274c-0.41411,1.0528-1.01471,2.021-1.80371,2.9034
			c-0.7901,0.8833-1.71979,1.6538-2.791,2.312c-1.07129,0.6582-2.2549,1.164-3.55179,1.5215
			c-1.2959,0.3574-2.64061,0.5351-4.0303,0.5351c-2.1416,0-4.11519-0.4043-5.9189-1.2109
			c-1.8037-0.8086-3.36429-1.918-4.6787-3.32671c-1.31641-1.4097-2.3399-3.0347-3.07231-4.8765
			C153.64078,70.4604,153.27458,68.4873,153.27458,66.3823z"/>
		<path class="st1" d="M198.54118,81.7153c-2.14261,0-4.1064-0.4043-5.89061-1.2109c-1.78619-0.8086-3.32619-1.9082-4.62309-3.2989
			c-1.2968-1.3896-2.3027-3.0058-3.01559-4.8476c-0.71481-1.8413-1.0713-3.7774-1.0713-5.8067
			c0-2.0664,0.3662-4.0209,1.09959-5.8627c0.73241-1.8409,1.7471-3.4571,3.04401-4.8477c1.2968-1.3901,2.8369-2.499,4.62199-3.3262
			c1.7852-0.8261,3.72951-1.2402,5.83501-1.2402c2.10449,0,4.0488,0.4141,5.83499,1.2402
			c1.7841,0.8272,3.32521,1.9361,4.62201,3.3262c1.29689,1.3906,2.3116,3.0068,3.04399,4.8477
			c0.7334,1.8418,1.09961,3.7963,1.09961,5.8627c0,2.0293-0.36621,3.9654-1.09961,5.8067
			c-0.73239,1.8418-1.7471,3.458-3.04399,4.8476c-1.2968,1.3907-2.83791,2.4903-4.62201,3.2989
			C202.58998,81.311,200.64568,81.7153,198.54118,81.7153z M187.88689,66.6079c0,1.6538,0.27249,3.185,0.8174,4.5942
			c0.5439,1.40919,1.29689,2.6494,2.2549,3.7207c0.95799,1.0708,2.08589,1.9077,3.38179,2.5083
			c1.29692,0.6016,2.6777,0.9019,4.1436,0.9019c1.46581,0,2.8466-0.3101,4.14351-0.9297
			c1.29689-0.62009,2.4326-1.4658,3.4102-2.53709c0.97749-1.0708,1.748-2.3198,2.31149-3.7485
			c0.56351-1.4278,0.8457-2.9683,0.8457-4.6226c0-1.6157-0.2822-3.1475-0.8457-4.5942c-0.56349-1.4468-1.334-2.7061-2.31149-3.7774
			c-0.9776-1.0708-2.10451-1.9165-3.3819-2.5366c-1.27831-0.6201-2.64941-0.9302-4.1152-0.9302
			c-1.46581,0-2.84671,0.3101-4.1436,0.9302c-1.2968,0.6201-2.4238,1.4756-3.38181,2.5649
			c-0.959,1.0904-1.7197,2.3589-2.2832,3.8052C188.16818,63.4043,187.88689,64.9546,187.88689,66.6079z"/>
		<path class="st1" d="M242.51089,81.7153V75.458c-1.20311,1.917-2.79001,3.439-4.76361,4.5659
			c-1.9727,1.1289-4.0303,1.6914-6.1729,1.6914c-2.02931,0-3.9082-0.4219-5.6367-1.2676
			c-1.72951-0.8457-3.2227-1.9633-4.48151-3.3545c-1.2597-1.3901-2.23628-2.9965-2.93159-4.8203
			c-0.6963-1.8222-1.043-3.729-1.043-5.7217c0-2.0664,0.33789-4.0307,1.01469-5.8906c0.6767-1.8603,1.6064-3.4858,2.791-4.8764
			c1.18361-1.3902,2.5928-2.4893,4.22751-3.2979c1.6348-0.8076,3.4287-1.2119,5.38379-1.2119c2.4805,0,4.67871,0.6484,6.5957,1.9448
			c1.916,1.2964,3.43851,2.8662,4.56551,4.707V40h3.83389v41.7153H242.51089z M232.36438,78.333
			c0.97659,0,2.00099-0.1875,3.0723-0.5635c1.0703-0.3755,2.06641-0.8921,2.9873-1.5503c0.92091-0.6572,1.7197-1.4277,2.39549-2.311
			c0.6768-0.8828,1.0899-1.8325,1.24031-2.84721v-9.0757c-0.37601-1.0146-0.9297-1.9633-1.6631-2.8471
			c-0.7325-0.8824-1.5596-1.6626-2.47951-2.3394c-0.92189-0.6763-1.8985-1.2021-2.9317-1.5781
			c-1.03409-0.3755-2.05759-0.564-3.07219-0.564c-1.5791,0-3.0166,0.3384-4.3125,1.0147
			c-1.29689,0.6767-2.3965,1.5698-3.2979,2.6777c-0.90231,1.1089-1.60641,2.3774-2.11421,3.8052
			c-0.5069,1.4287-0.76079,2.8945-0.76079,4.3969c0,1.5787,0.2813,3.0821,0.84569,4.5098
			c0.56351,1.4287,1.33301,2.6777,2.31061,3.749c0.97749,1.0708,2.1328,1.9263,3.4677,2.565
			C229.38489,78.0141,230.82237,78.333,232.36438,78.333z"/>
		<path class="st1" d="M267.37027,81.7153c-2.1416,0-4.1152-0.4043-5.91888-1.2109c-1.8038-0.8086-3.36432-1.918-4.6788-3.32671
			c-1.31641-1.4097-2.3398-3.0347-3.0722-4.8765c-0.7334-1.8408-1.09959-3.8139-1.09959-5.9189
			c0-2.0664,0.3662-4.0112,1.09959-5.8345c0.73241-1.8227,1.7558-3.4194,3.0722-4.792c1.31448-1.3711,2.8653-2.4609,4.65039-3.2695
			c1.78421-0.8076,3.74911-1.2119,5.89072-1.2119c2.14249,0,4.10538,0.4043,5.8916,1.2119
			c1.78409,0.8086,3.31638,1.9077,4.59369,3.2979c1.2774,1.3906,2.27341,2.9878,2.98831,4.7915
			c0.71289,1.8042,1.07129,3.7207,1.07129,5.75c0,0.3012-0.0098,0.6015-0.02829,0.9023
			c-0.01962,0.3013-0.04791,0.5073-0.08502,0.6201h-25.08588c0.11319,1.5781,0.47949,3.0352,1.09958,4.3687
			c0.62012,1.3344,1.40921,2.4902,2.36722,3.4668c0.95889,0.978,2.06638,1.7387,3.32608,2.2832
			c1.25882,0.54491,2.60263,0.8169,4.03131,0.8169c0.9765,0,1.9346-0.1309,2.875-0.3941
			c0.93851-0.2627,1.80371-0.6201,2.5928-1.0713c0.789-0.4506,1.49408-1.0048,2.1142-1.6626
			c0.62009-0.6572,1.0986-1.3813,1.4375-2.1704l3.3252,0.9019c-0.4502,1.0903-1.08981,2.0771-1.91599,2.9595
			c-0.82721,0.8833-1.78522,1.6538-2.875,2.312c-1.09082,0.6582-2.293,1.164-3.6084,1.5215
			C270.11346,81.5376,268.75989,81.7153,267.37027,81.7153z M278.19348,64.9165c-0.1123-1.57809-0.47852-3.01559-1.0986-4.3125
			c-0.62009-1.2964-1.40921-2.4141-2.36819-3.354c-0.95801-0.939-2.07712-1.6719-3.35352-2.1988
			c-1.27829-0.5258-2.63181-0.789-4.05948-0.789c-1.4288,0-2.78131,0.2632-4.05862,0.789
			c-1.27838,0.5269-2.39548,1.2598-3.35449,2.1988c-0.95801,0.9399-1.72849,2.0674-2.31061,3.3823
			c-0.58298,1.3159-0.93057,2.7437-1.04288,4.28419H278.19348z"/>
		<path class="st0" d="M287.77649,81.7153V40h3.83398v41.7153H287.77649z"/>
		<path class="st0" d="M315.34299,81.7153c-2.14261,0-4.1153-0.4043-5.92001-1.2109c-1.80371-0.8086-3.36319-1.918-4.67871-3.32671
			c-1.31537-1.4097-2.33878-3.0347-3.07217-4.8765c-0.73251-1.8408-1.09872-3.8139-1.09872-5.9189
			c0-2.0664,0.36621-4.0112,1.09872-5.8345c0.7334-1.8227,1.75681-3.4194,3.07217-4.792
			c1.31552-1.3711,2.86533-2.4609,4.65143-3.2695c1.78421-0.8076,3.74799-1.2119,5.89059-1.2119
			c2.1416,0,4.1055,0.4043,5.89059,1.2119c1.78519,0.8086,3.31641,1.9077,4.59479,3.2979
			c1.27731,1.3906,2.27341,2.9878,2.9873,4.7915c0.71381,1.8042,1.07132,3.7207,1.07132,5.75
			c0,0.3012-0.00983,0.6015-0.02841,0.9023c-0.0195,0.3013-0.04779,0.5073-0.08389,0.6201h-25.086
			c0.11227,1.5781,0.47849,3.0352,1.09869,4.3687c0.62009,1.3344,1.4101,2.4902,2.3681,3.4668
			c0.95798,0.978,2.06641,1.7387,3.3262,2.2832c1.25879,0.54491,2.6015,0.8169,4.0303,0.8169c0.97647,0,1.93549-0.1309,2.875-0.3941
			c0.93939-0.2627,1.80368-0.6201,2.59268-1.0713c0.7901-0.4506,1.4942-1.0048,2.11429-1.6626
			c0.62012-0.6572,1.09964-1.3813,1.4375-2.1704l3.3262,0.9019c-0.4512,1.0903-1.09088,2.0771-1.91699,2.9595
			c-0.82721,0.8833-1.78519,1.6538-2.875,2.312c-1.0899,0.6582-2.293,1.164-3.60748,1.5215
			C318.08508,81.5376,316.73257,81.7153,315.34299,81.7153z M326.16617,64.9165c-0.11328-1.57809-0.47949-3.01559-1.09958-4.3125
			c-0.62012-1.2964-1.40921-2.4141-2.36722-3.354c-0.95898-0.939-2.07709-1.6719-3.35449-2.1988
			c-1.27829-0.5258-2.63089-0.789-4.05859-0.789c-1.42871,0-2.7822,0.2632-4.05859,0.789
			c-1.27832,0.5269-2.39651,1.2598-3.35452,2.1988c-0.95798,0.9399-1.72949,2.0674-2.31149,3.3823
			c-0.58301,1.3159-0.92969,2.7437-1.043,4.28419H326.16617z"/>
		<path class="st0" d="M345.44547,81.7153c-2.293,0-4.5293-0.375-6.70898-1.1269c-2.17972-0.752-4.05859-1.8418-5.63672-3.2701
			l1.74713-2.5927c1.65329,1.3525,3.33487,2.3676,5.0459,3.0439c1.70889,0.6758,3.54099,1.0142,5.49609,1.0142
			c2.3671,0,4.2558-0.4785,5.66501-1.437c1.40918-0.9585,2.11429-2.3199,2.11429-4.08701c0-0.8261-0.18851-1.5122-0.56351-2.05759
			c-0.37601-0.5444-0.93069-1.0234-1.66309-1.4375c-0.7334-0.4131-1.65433-0.7798-2.7627-1.09911
			c-1.10843-0.31879-2.39551-0.6484-3.86133-0.98679c-1.69138-0.4131-3.15628-0.8262-4.39648-1.2402
			c-1.2403-0.4131-2.26471-0.8824-3.0723-1.4092c-0.80859-0.52589-1.4101-1.1743-1.80472-1.9448
			c-0.3945-0.7701-0.5918-1.7378-0.5918-2.9034c0-1.4653,0.29102-2.7622,0.87411-3.8896c0.582-1.1275,1.371-2.0576,2.3671-2.7905
			c0.99609-0.733,2.16119-1.2867,3.49521-1.6626c1.33389-0.3755,2.7529-0.564,4.25677-0.564c2.25491,0,4.3027,0.3662,6.1445,1.0991
			c1.84082,0.7329,3.3262,1.7012,4.45322,2.9033l-1.86041,2.2549c-1.09079-1.1274-2.41501-1.9731-3.97458-2.5366
			c-1.5596-0.564-3.1846-0.8457-4.87601-0.8457c-1.01462,0-1.9541,0.104-2.8183,0.3101c-0.8653,0.207-1.62601,0.5356-2.2832,0.9863
			c-0.65829,0.4512-1.1749,1.0244-1.5499,1.7197c-0.37689,0.6958-0.56442,1.5132-0.56442,2.4522
			c0,0.789,0.13181,1.4287,0.39453,1.9165c0.2627,0.4887,0.69528,0.9116,1.29688,1.2685c0.60062,0.3574,1.3623,0.6763,2.2832,0.958
			c0.92093,0.2822,2.03812,0.5738,3.35449,0.874c1.87891,0.45071,3.5322,0.9019,4.96091,1.3531
			c1.4278,0.4507,2.62109,0.9775,3.5791,1.5781c0.95801,0.6016,1.6817,1.3345,2.1709,2.1987
			c0.4873,0.8648,0.73251,1.9165,0.73251,3.1568c0,2.706-1.03421,4.8481-3.10062,6.4267
			C351.72089,80.9262,348.94058,81.7153,345.44547,81.7153z"/>
		<path class="st0" d="M372.89859,81.7153c-2.29291,0-4.52933-0.375-6.70901-1.1269c-2.17969-0.752-4.05859-1.8418-5.63669-3.2701
			l1.7471-2.5927c1.65329,1.3525,3.3349,2.3676,5.0459,3.0439c1.70901,0.6758,3.54102,1.0142,5.49609,1.0142
			c2.36719,0,4.2558-0.4785,5.66501-1.437c1.40918-0.9585,2.11429-2.3199,2.11429-4.08701c0-0.8261-0.18851-1.5122-0.56351-2.05759
			c-0.37601-0.5444-0.93069-1.0234-1.66309-1.4375c-0.7334-0.4131-1.6543-0.7798-2.7627-1.09911
			c-1.1084-0.31879-2.39551-0.6484-3.8613-0.98679c-1.69141-0.4131-3.15631-0.8262-4.39651-1.2402
			c-1.2402-0.4131-2.26459-0.8824-3.0723-1.4092c-0.80859-0.52589-1.4101-1.1743-1.8046-1.9448
			c-0.39462-0.7701-0.5918-1.7378-0.5918-2.9034c0-1.4653,0.29099-2.7622,0.87399-3.8896
			c0.582-1.1275,1.37109-2.0576,2.36719-2.7905c0.99609-0.733,2.1611-1.2867,3.49512-1.6626
			c1.33398-0.3755,2.7529-0.564,4.25681-0.564c2.25488,0,4.3028,0.3662,6.14459,1.0991
			c1.84079,0.7329,3.32608,1.7012,4.45309,2.9033l-1.86038,2.2549c-1.09082-1.1274-2.41501-1.9731-3.97461-2.5366
			c-1.5596-0.564-3.1846-0.8457-4.87601-0.8457c-1.01459,0-1.9541,0.104-2.8183,0.3101c-0.8653,0.207-1.62601,0.5356-2.2832,0.9863
			c-0.6582,0.4512-1.1748,1.0244-1.5498,1.7197c-0.37698,0.6958-0.56448,1.5132-0.56448,2.4522c0,0.789,0.1319,1.4287,0.3945,1.9165
			c0.2627,0.4887,0.69537,0.9116,1.29691,1.2685c0.60059,0.3574,1.36227,0.6763,2.28317,0.958
			c0.9209,0.2822,2.03812,0.5738,3.35452,0.874c1.87888,0.45071,3.5322,0.9019,4.961,1.3531
			c1.42767,0.4507,2.62109,0.9775,3.5791,1.5781c0.95798,0.6016,1.68158,1.3345,2.1709,2.1987
			c0.4873,0.8648,0.73239,1.9165,0.73239,3.1568c0,2.706-1.03421,4.8481-3.10062,6.4267
			C379.17398,80.9262,376.39368,81.7153,372.89859,81.7153z"/>
	</g>
	<g>
		<path class="st1" d="M153.22578,113.2846V92.8257h8.47211c0.88329,0,1.69489,0.1875,2.4341,0.5615
			c0.73979,0.376,1.37839,0.8652,1.91599,1.4707c0.5381,0.6055,0.9566,1.291,1.25391,2.0605
			c0.2979,0.76759,0.44681,1.5459,0.44681,2.334c0,0.8447-0.14011,1.6563-0.418,2.43459
			c-0.27831,0.77641-0.6772,1.46481-1.1958,2.0596c-0.51801,0.5966-1.13811,1.0752-1.85881,1.44141
			c-0.7198,0.3652-1.522,0.5468-2.40529,0.5468h-6.65721v7.5498H153.22578z M155.21358,103.9487h6.5415
			c0.5957,0,1.1386-0.1299,1.6279-0.3896c0.49071-0.2588,0.9077-0.6055,1.25439-1.03709
			c0.34471-0.4317,0.61421-0.9307,0.80611-1.4991c0.19189-0.56541,0.2881-1.1552,0.2881-1.7705
			c0-0.6347-0.11081-1.23441-0.33051-1.8017c-0.22119-0.5664-0.51959-1.0616-0.8931-1.4844
			c-0.37599-0.4209-0.8174-0.7539-1.3262-0.9942c-0.5088-0.2392-1.04289-0.3603-1.6001-0.3603h-6.3681V103.9487z"/>
		<path class="st1" d="M179.18867,113.2846V92.8257h1.98781v18.6728h11.8427v1.7861H179.18867z"/>
		<path class="st1" d="M202.09589,113.2846l8.55759-20.4589h1.64261l8.55859,20.4589h-2.16209l-2.6494-6.3974h-9.19341
			l-2.6216,6.3974H202.09589z M211.48988,95.188l-4.2075,10.1152h8.2988L211.48988,95.188z"/>
		<path class="st1" d="M244.39568,94.6118h-7.28909v18.6728h-2.01761V94.6118h-7.28999v-1.7861h16.59669V94.6118z"/>
		<path class="st1" d="M255.60468,113.2846V92.8257h13.39941v1.7861h-11.4111v7.5215h9.65329v1.6709h-9.65329v9.4804H255.60468z"/>
		<path class="st1" d="M288.33807,113.4292c-1.4209,0-2.72269-0.292-3.9043-0.8799c-1.1817-0.5859-2.1944-1.3633-3.03909-2.334
			c-0.8476-0.9687-1.49802-2.0791-1.96091-3.3281c-0.45999-1.2481-0.69141-2.5244-0.69141-3.832
			c0-1.3633,0.24512-2.67,0.73532-3.919c0.48929-1.248,1.16599-2.3525,2.0322-3.3135c0.86328-0.9599,1.8829-1.7236,3.0538-2.291
			c1.17178-0.5664,2.43939-0.8486,3.80368-0.8486c1.42181,0,2.7226,0.3017,3.9043,0.9062
			c1.18161,0.6065,2.18942,1.3985,3.02542,2.377c0.83688,0.9805,1.4834,2.0889,1.9462,3.3291
			c0.45999,1.2383,0.69049,2.5019,0.69049,3.7881c0,1.3652-0.24509,2.6709-0.73441,3.9199
			c-0.4902,1.249-1.16208,2.34769-2.01761,3.2988c-0.85449,0.9512-1.86807,1.709-3.03998,2.2754
			C290.96887,113.147,289.70139,113.4292,288.33807,113.4292z M280.75989,103.0552c0,1.1142,0.1817,2.1855,0.54788,3.2128
			c0.3652,1.0284,0.88382,1.94051,1.55661,2.7364c0.66998,0.7978,1.46881,1.43259,2.39069,1.9023
			c0.92181,0.4717,1.95023,0.7061,3.08301,0.7061c1.15231,0,2.19922-0.2491,3.14059-0.7491
			c0.94141-0.499,1.73831-1.1533,2.3916-1.9589c0.65332-0.8077,1.1572-1.7188,1.5137-2.7383
			c0.35541-1.01759,0.5332-2.0537,0.5332-3.1113c0-1.1143-0.1875-2.1856-0.5625-3.2129c-0.375-1.0274-0.8985-1.9346-1.57129-2.7227
			c-0.6709-0.7881-1.46881-1.417-2.39059-1.88869c-0.92191-0.4697-1.94052-0.706-3.05472-0.706
			c-1.1524,0-2.19919,0.2461-3.14069,0.7353c-0.94141,0.4903-1.73822,1.1377-2.39062,1.9463
			c-0.6543,0.8057-1.1572,1.7188-1.51358,2.7364C280.93668,100.9624,280.75989,101.9985,280.75989,103.0552z"/>
		<path class="st1" d="M309.89279,113.2846V92.8257h8.6142c0.88379,0,1.7012,0.1875,2.4502,0.5615
			c0.74899,0.376,1.39258,0.8652,1.92972,1.4707c0.53809,0.6055,0.95508,1.291,1.25388,2.0605
			c0.2998,0.76759,0.4473,1.5459,0.4473,2.334c0,0.749-0.11038,1.4639-0.33209,2.1465c-0.2207,0.68159-0.5322,1.2969-0.93649,1.8438
			c-0.40332,0.5478-0.88281,1.0078-1.43942,1.38371c-0.55768,0.3741-1.1817,0.628-1.87408,0.7618l5.04199,7.8964h-2.27631
			l-4.8399-7.5498h-6.0517v7.5498H309.89279z M311.88007,103.9487h6.71381c0.5957,0,1.1387-0.1299,1.62891-0.3896
			c0.48929-0.2588,0.90729-0.6104,1.25391-1.0528c0.34479-0.4404,0.61328-0.9394,0.8067-1.497
			c0.19138-0.5567,0.28809-1.1416,0.28809-1.7569c0-0.6142-0.11139-1.206-0.33209-1.7724
			c-0.2207-0.56551-0.51749-1.0625-0.89249-1.48441c-0.37601-0.4219-0.81741-0.7598-1.32523-1.0078
			c-0.50977-0.25-1.043-0.376-1.60159-0.376h-6.54001V103.9487z"/>
		<path class="st1" d="M355.10367,113.2846V96.4848l-7.4639,12.9961h-1.18158l-7.49222-12.9961v16.7998h-1.98828V92.8257h2.0459
			l8.01077,14.0039l8.01172-14.0039h2.04489v20.4589H355.10367z"/>
		<path class="st1" d="M382.36148,96.6577c-0.57712-0.6523-1.34958-1.1807-2.32031-1.584
			c-0.9697-0.4043-2.0596-0.6045-3.2695-0.6045c-1.82428,0-3.15039,0.3399-3.97659,1.0225
			c-0.82709,0.6816-1.23929,1.6084-1.23929,2.7793c0,0.6152,0.11038,1.12009,0.33112,1.5146
			c0.22067,0.3926,0.56638,0.7344,1.03708,1.0215c0.4697,0.2891,1.06641,0.5391,1.7861,0.75
			c0.7207,0.2109,1.5704,0.4229,2.55081,0.6338c1.09567,0.2285,2.0752,0.4853,2.93948,0.7627
			c0.8642,0.2793,1.60251,0.6338,2.21869,1.0664c0.61331,0.4336,1.08401,0.96091,1.41211,1.58591
			c0.3262,0.6241,0.48929,1.3975,0.48929,2.3184c0,0.9424-0.18259,1.7578-0.54688,2.4502
			c-0.36621,0.69041-0.87601,1.2685-1.52731,1.7285c-0.65329,0.46001-1.43069,0.8027-2.33499,1.02441
			c-0.90231,0.2188-1.88181,0.33009-2.93851,0.33009c-3.20801,0-5.94531-0.9893-8.21188-2.9678l0.97849-1.6416
			c0.75,0.7862,1.7579,1.4541,3.0264,2.002c1.26761,0.54691,2.67969,0.8213,4.2363,0.8213c1.6319,0,2.90921-0.293,3.83209-0.88091
			c0.92181-0.585,1.38382-1.47359,1.38382-2.66409c0-0.6328-0.12991-1.166-0.38971-1.5986
			c-0.25879-0.4326-0.64838-0.8066-1.168-1.125c-0.51752-0.3164-1.16602-0.59081-1.94431-0.8203
			c-0.77728-0.2295-1.67679-0.4609-2.69339-0.6924c-1.0752-0.249-2.01752-0.5078-2.8252-0.7773
			c-0.8056-0.2676-1.4834-0.6065-2.03021-1.0088c-0.54691-0.4024-0.96191-0.8877-1.23929-1.45509
			c-0.2793-0.56641-0.41699-1.2637-0.41699-2.08791c0-0.9424,0.17578-1.7832,0.53229-2.5224
			c0.3544-0.7393,0.8544-1.3545,1.49799-1.8428c0.64362-0.4912,1.41211-0.8662,2.30573-1.125
			c0.89249-0.2588,1.87589-0.3877,2.95309-0.3877c1.34369,0,2.54977,0.2051,3.61517,0.6172
			c1.06741,0.414,2.03223,0.9951,2.89752,1.7441L382.36148,96.6577z"/>
	</g>
</g>
</svg>
