<?xml version="1.0" encoding="UTF-8"?>
<svg width="1920px" height="1080px" viewBox="0 0 1920 1080" version="1.1" xmlns="http://www.w3.org/2000/svg" xmlns:xlink="http://www.w3.org/1999/xlink">
    <!-- Generator: Sketch 61 (89581) - https://sketch.com -->
    <title>Coherent</title>
    <desc>Created with Sketch.</desc>
    <g id="Coherent" stroke="none" stroke-width="1" fill="none" fill-rule="evenodd">
        <g transform="translate(1.000000, 188.000000)">
            <path d="M439.910884,411.971158 C422.866678,412.217444 406.431055,405.587388 394.257122,393.554637 C377,375.782695 377,356.261184 377,322.282704 C377,288.304224 377,268.782712 393.891892,251.471183 C406.065825,239.438432 422.501448,232.808376 439.545654,233.054663 C471.284631,231.706833 498.610756,255.437408 502,287.291315 L474.607743,287.291315 C472.057333,274.045257 462.529033,263.265904 449.77251,259.195248 C437.015987,255.124592 423.073452,258.414311 413.431702,267.769803 C404.848795,276.978064 402.931337,287.291315 402.931337,323.019364 C402.931337,358.747414 404.940102,368.50817 413.431702,378.268925 C423.065886,387.727488 437.074113,391.082842 449.896687,387.003287 C462.71926,382.923732 472.282303,372.069081 474.790358,358.747414 L501.63477,358.747414 C497.741903,389.882916 471.014249,412.929842 439.910884,411.971158 L439.910884,411.971158 Z" id="Path" fill="#181919"></path>
            <path d="M653.200375,393.22333 C627.25024,418.25889 586.025179,418.25889 560.075044,393.22333 C542.723645,375.946677 543.000264,356.464495 543.000264,322.554469 C543.000264,288.644443 543.000264,269.16226 560.075044,251.885608 C585.965927,226.704797 627.309493,226.704797 653.200375,251.885608 C670.551775,269.16226 669.998006,288.644443 669.998006,322.554469 C669.998006,356.464495 670.551775,375.85478 653.200375,393.22333 L653.200375,393.22333 Z M633.080135,267.875701 C626.141149,260.859989 616.665367,256.909515 606.776152,256.909515 C596.886937,256.909515 587.411155,260.859989 580.472168,267.875701 C571.796469,277.06541 570.04287,287.17409 570.04287,323.013954 C570.04287,358.853819 571.611879,367.584042 580.287579,376.773751 C587.233325,383.846619 596.748936,387.833586 606.683857,387.833586 C616.618778,387.833586 626.134389,383.846619 633.080135,376.773751 C641.755835,367.584042 643.509434,357.56726 643.509434,322.278778 C643.509434,286.990296 641.571245,277.341101 633.080135,267.875701 Z" id="Shape" fill="#181919"></path>
            <polygon id="Path" fill="#181919" points="820.306333 410 820.306333 333.563218 748.693667 333.563218 748.693667 410 722 410 722 235 748.693667 235 748.693667 309.699582 820.306333 309.699582 820.306333 235 847 235 847 410"></polygon>
            <polygon id="Path" fill="#181919" points="905 410 905 235 1018 235 1018 258.863636 931.865196 258.863636 931.865196 309.973877 1005.35212 309.973877 1005.35212 333.563218 931.865196 333.563218 931.865196 386.136364 1018 386.136364 1018 410"></polygon>
            <path d="M1164.0437,409.908616 L1127.08095,336.16188 L1092.79799,336.16188 L1092.79799,409.908616 L1066,409.908616 L1066,235 L1134.5659,235 C1168.1096,235 1189.54799,256.475196 1189.54799,286.083551 C1190.5659,307.948164 1175.76187,327.455557 1154.24857,332.597911 L1195,410 L1164.0437,409.908616 Z M1132.99499,258.759791 L1092.79799,258.759791 L1092.79799,313.590078 L1132.62536,313.590078 C1150.55229,313.590078 1162.65759,303.537859 1162.65759,286.174935 C1162.82211,278.521506 1159.67748,271.162108 1154.0132,265.944453 C1148.34893,260.726797 1140.70297,258.146421 1132.99499,258.851175 L1132.99499,258.759791 Z" id="Shape" fill="#181919"></path>
            <polygon id="Path" fill="#181919" points="1240 410 1240 235 1353 235 1353 258.863636 1266.8652 258.863636 1266.8652 309.973877 1340.35212 309.973877 1340.35212 333.563218 1266.8652 333.563218 1266.8652 386.136364 1353 386.136364 1353 410"></polygon>
            <polygon id="Path" fill="#181919" points="1508.63359 410 1427.56489 286.841693 1427.56489 410 1401 410 1401 235 1425.36641 235 1506.34351 357.975444 1506.34351 235 1533 235 1533 410"></polygon>
            <polygon id="Path" fill="#181919" points="1651.86161 258.863636 1651.86161 410 1625.22991 410 1625.22991 258.863636 1577 258.863636 1577 235 1700 235 1700 258.863636"></polygon>
            <path d="M1089.60721,560.862272 C1079.82408,561.745629 1070.13563,558.349843 1063,551.536489 L1072.23861,542.210706 C1077.02937,546.565646 1083.35835,548.784877 1089.79198,548.365723 C1098.19912,548.365723 1102.72604,545.194956 1102.72604,539.039939 C1102.87997,536.736545 1102.07655,534.472507 1100.50877,532.791665 C1098.69043,531.236739 1096.42081,530.320322 1094.04174,530.180446 L1085.26506,528.968094 C1080.02835,528.472047 1075.08098,526.317752 1071.12998,522.813077 C1067.47371,518.934788 1065.56794,513.703542 1065.86397,508.358113 C1065.86397,495.302017 1075.10258,486.069492 1091.27016,486.069492 C1099.96492,485.486041 1108.5057,488.596495 1114.82862,494.649212 L1105.59001,503.974995 C1101.49644,500.287605 1096.09489,498.436442 1090.62345,498.845814 C1083.04779,498.845814 1079.35235,503.042417 1079.35235,508.171597 C1079.3595,510.14385 1080.15971,512.028634 1081.56961,513.394036 C1083.49184,514.998381 1085.83531,516.002943 1088.3138,516.285029 L1096.90571,517.497381 C1102.24774,517.827345 1107.3243,519.962539 1111.31795,523.55914 C1115.29344,527.712636 1117.34095,533.371018 1116.9535,539.133197 C1116.58396,553.21513 1104.85092,560.862272 1089.60721,560.862272 Z" id="Path" fill="#181919"></path>
            <path d="M1213.68274,552.929268 C1208.4653,558.094584 1201.3631,561 1193.95408,561 C1186.54506,561 1179.44286,558.094584 1174.22542,552.929268 C1166.81559,545.74433 1167.00042,536.74042 1167.00042,524.371412 C1167.00042,512.002404 1167.00042,502.998494 1174.22542,495.813555 C1185.23816,485.395482 1202.67,485.395482 1213.68274,495.813555 C1221.09257,502.998494 1220.99997,512.002404 1220.99997,524.371412 C1220.99997,536.74042 1220.99997,545.74433 1213.68274,552.929268 L1213.68274,552.929268 Z M1203.12374,504.180825 C1200.75055,501.643281 1197.3682,500.248375 1193.86146,500.360985 C1190.35927,500.27242 1186.98666,501.663314 1184.59917,504.180825 C1181.72787,507.273077 1181.07951,510.547226 1181.07951,524.371412 C1181.07951,538.195597 1181.82049,541.469746 1184.59917,544.471049 C1186.97237,547.008593 1190.35471,548.4035 1193.86146,548.29089 C1197.37284,548.428451 1200.76544,547.029316 1203.12374,544.471049 C1205.90242,541.469746 1206.73603,538.104648 1206.73603,524.371412 C1206.73603,510.638175 1205.8098,507.273077 1203.03112,504.180825 L1203.12374,504.180825 Z" id="Shape" fill="#181919"></path>
            <polygon id="Path" fill="#181919" points="1276 559 1276 486 1290.22852 486 1290.22852 546.231939 1323 546.231939 1323 559"></polygon>
            <path d="M1401.04766,560.95671 C1393.96694,561.366891 1387.0324,558.848037 1381.90335,554.002875 C1376.7743,549.157712 1373.91226,542.422191 1374.00205,535.408026 L1374.00205,488 L1388.27094,488 L1388.27094,535.315793 C1388.27094,542.294458 1393.99127,547.951784 1401.04766,547.951784 C1408.10404,547.951784 1413.82437,542.294458 1413.82437,535.315793 L1413.82437,488 L1428,488 L1428,535.869194 C1427.95944,542.786398 1425.05371,549.384818 1419.96042,554.125706 C1414.86713,558.866593 1408.03152,561.335511 1401.04766,560.95671 L1401.04766,560.95671 Z" id="Path" fill="#181919"></path>
            <polygon id="Path" fill="#181919" points="1511.0742 498.768061 1511.0742 559 1497.01767 559 1497.01767 498.768061 1478 498.768061 1478 486 1530 486 1530 498.768061"></polygon>
            <rect id="Rectangle" fill="#181919" fill-rule="nonzero" x="1582" y="486" width="14" height="73"></rect>
            <path d="M1696.68274,552.932008 C1691.4653,558.09557 1684.3631,561 1676.95408,561 C1669.54506,561 1662.44286,558.09557 1657.22542,552.932008 C1649.81559,545.749508 1650.00042,536.748655 1650.00042,524.383845 C1650.00042,512.019036 1650.00042,503.018182 1657.22542,495.835683 C1662.40845,490.594762 1669.61035,487.753821 1677.0467,488.01676 C1684.42558,487.771277 1691.56346,490.613529 1696.68274,495.835683 C1704.09257,503.018182 1703.99997,512.019036 1703.99997,524.383845 C1703.99997,536.748655 1703.99997,545.749508 1696.68274,552.932008 L1696.68274,552.932008 Z M1686.12374,504.200113 C1683.76544,501.642714 1680.37284,500.244054 1676.86146,500.381569 C1673.36152,500.304729 1669.99359,501.693222 1667.59917,504.200113 C1664.82049,507.291315 1664.17213,510.564353 1664.17213,524.383845 C1664.17213,538.203338 1664.91311,541.476376 1667.59917,544.47666 C1669.98666,546.993317 1673.35927,548.383738 1676.86146,548.295204 C1680.37756,548.458622 1683.78098,547.055502 1686.12374,544.47666 C1688.90242,541.476376 1689.73603,538.11242 1689.73603,524.383845 C1689.73603,510.65527 1688.99505,507.291315 1686.12374,504.200113 L1686.12374,504.200113 Z" id="Shape" fill="#181919"></path>
            <polygon id="Path" fill="#181919" points="1802.2053 559 1773.27815 514.219265 1773.27815 559 1759 559 1759 486 1771.70199 486 1800.62914 530.688213 1800.62914 486 1815 486 1815 559"></polygon>
            <path d="M1893.11444,560.858868 C1883.51103,561.754489 1873.99724,558.357004 1867,551.533103 L1876.06751,542.207338 C1880.78659,546.59566 1887.03989,548.818029 1893.38646,548.362343 C1901.6379,548.362343 1906.08098,545.191583 1906.08098,539.036578 C1906.25542,536.712326 1905.42628,534.42693 1903.8141,532.788315 C1902.0329,531.227479 1899.8033,530.310238 1897.46684,530.177101 L1888.39933,528.964751 C1883.25804,528.474988 1878.40049,526.319893 1874.52604,522.809746 C1870.9652,518.913789 1869.09926,513.695222 1869.35755,508.35481 C1869.35755,495.298739 1878.42507,486.066232 1894.29321,486.066232 C1902.79777,485.497782 1911.14675,488.607949 1917.32469,494.645936 L1908.25718,503.971701 C1904.26727,500.298961 1898.99933,498.4481 1893.65849,498.84253 C1886.22313,498.84253 1882.59612,503.039124 1882.59612,508.168295 C1882.55807,510.131033 1883.31324,512.02209 1884.68165,513.390723 C1886.5655,514.999756 1888.86699,516.004937 1891.30093,516.281711 L1899.82439,517.49406 C1904.83279,517.84646 1909.59961,519.840174 1913.42566,523.182777 C1917.3177,527.342579 1919.32565,532.996318 1918.95685,538.756805 C1919.5009,553.211741 1908.07583,560.858868 1893.11444,560.858868 Z" id="Path" fill="#181919"></path>
            <path d="M226.44187,457.45606 C201.953545,420.471521 190.105172,376.546641 192.671652,332.261424 C197.259997,271.866944 231.48905,216.245281 287.283323,169.159615 C419.180469,142.492477 552.783814,125.102535 687.111693,117.117563 L687.111693,131.344226 L736.390517,112.252962 L686.285791,97.567374 L686.285791,110.784403 C564.010798,114.061203 442.059844,124.974263 321.145308,143.459836 C359.461491,117.805483 400.636763,96.7055564 443.837649,80.5871631 C565.699636,51.4609346 690.114243,34.3075283 815.310049,29.3711756 C815.310049,29.3711756 896.523752,26.0669184 976.636254,23.2215857 L976.636254,37.9989585 L1035,17.8980601 L976.636254,0 L976.636254,13.308814 C905.333375,12.1156099 816.686552,15.0527275 816.686552,14.8691577 C375.563078,24.2312199 18.9569163,168.058196 0.695303822,344.652389 C-18.3922108,533.729332 357.852067,694.995443 841.00478,705 L867.708947,705 C835.529355,703.959771 803.869775,702.246452 772.730208,699.860044 L775.116148,699.860044 C765.29709,699.21755 755.569799,698.48327 745.842508,697.565421 L743.273034,697.565421 C598.556638,684.348392 470.908884,645.3398 374.92071,590.452415 C550.729841,620.08273 728.913077,633.295461 907.168712,629.919932 C923.044386,629.919932 939.378893,629.093868 955.254566,628.451374 C743.745004,629.378127 532.809082,606.37753 326.467788,559.888035 C298.505147,540.238325 273.103554,517.175068 250.851865,491.232912 C483.494352,542.080275 721.575898,563.663833 959.567611,555.482359 C975.535051,555.482359 991.777792,554.19737 1007.74523,553.371306 C744.091139,558.421134 481.049047,526.129263 226.44187,457.45606 L226.44187,457.45606 Z M378.407852,98.5770082 C342.391948,112.624063 307.84383,130.1782 275.26186,150.9862 C256.90848,154.106887 238.830402,157.411144 221.027624,160.898971 C271.520266,135.296998 324.264588,114.404055 378.591386,98.4852233 L378.407852,98.5770082 Z M61.0779221,404.863299 C54.4639993,385.905969 52.0528893,365.73636 54.011871,345.753808 C59.5178848,291.876058 96.5917112,242.220414 157.708465,198.89793 C183.28084,192.411795 209.097927,186.2928 235.159726,180.540945 C184.045564,223.679859 153.028353,274.712277 148.623542,332.444994 C146.095921,370.8593 154.936957,409.167343 174.042972,442.586903 C135.439698,430.899622 97.8152698,418.416873 61.169689,405.138654 L61.0779221,404.863299 Z M316.924031,579.988934 C388.410286,621.441491 465.75919,651.830109 546.341273,670.121729 C412.912205,643.963026 298.478885,605.138003 213.778039,557.868767 C247.548257,565.854055 282.05261,573.196849 316.924031,579.897149 L316.924031,579.988934 Z M265.534569,544.835308 C222.710017,533.882307 181.017256,521.950267 140.456288,509.039188 C118.014568,491.357764 98.3155629,470.448591 82.0007746,446.992579 C119.747558,458.31272 158.350833,468.837391 197.810599,478.566593 C217.548587,503.381282 240.29815,525.642001 265.534569,544.835308 L265.534569,544.835308 Z" id="Shape" fill="#0066A4"></path>
        </g>
    </g>
</svg>