<?xml version="1.0" encoding="UTF-8"?> <svg xmlns="http://www.w3.org/2000/svg" viewBox="0 0 394 390.08"><defs><style>.cls-1,.cls-3{fill:#00a7e1;}.cls-1{opacity:0.4;}.cls-2{fill:#b6e8fb;}.cls-4{opacity:0.9;}.cls-5{fill:#606060;}.cls-6{fill:#b7b7b7;}.cls-7{fill:#939393;}.cls-8{fill:#fff;}.cls-9{fill:#003058;}.cls-10{fill:#bebebe;}.cls-11{fill:#e9e9e9;}</style></defs><title>digital-river-content-graphics-v1_isolated</title><g id="Layer_2" data-name="Layer 2"><path class="cls-1" d="M197.55,385.66h-.11c-1.36,0-2.73,0-4.09,0h0v-.84c1.36,0,2.72,0,4.09,0l.09.83v0Zm4.17,0h0v-.84c1.4,0,2.78-.08,4.17-.14l0,.42-.05-.42.06.84v0c-1.39.06-2.79.1-4.19.14l0-.82Zm-12.54-.13h0c-1.4-.06-2.8-.14-4.19-.23h0l.08-.83c1.39.08,2.78.16,4.17.22v.43l.05-.43Zm16.77,0,0-.42Zm4.15-.23,0-.83c1.39-.1,2.78-.2,4.17-.32l0,.43v-.43l.08.83h0C212.9,385.06,211.5,385.16,210.1,385.25Zm-29.29-.3v0Zm0,0c-1.4-.12-2.79-.25-4.18-.4l.09-.84c1.38.15,2.77.28,4.16.4l0,.42v-.42l-.06.84.05-.3Zm37.63-.42,0-.84c1.39-.15,2.77-.31,4.15-.49l0,.41,0-.41.13.83h0c-1.39.18-2.77.35-4.17.5h-.05Zm-46-.48c-1.39-.18-2.78-.37-4.16-.58l0-.19,0,.18.12-.83-.08.66.1-.65c1.37.2,2.75.4,4.13.58h0l-.1.83,0-.19h0Zm54.32-.61-.1-.83c1.37-.21,2.75-.44,4.12-.68l.17.82-.07-.28.05.29-.08-.42.07.42c-1.37.24-2.75.47-4.14.68Zm-62.6-.65,0-.19,0,.19.06-.42-.07.42c-1.38-.24-2.75-.5-4.12-.77h0l.19-.82c1.36.27,2.73.52,4.11.76ZM235,382l-.18-.82.11.4-.08-.4c1.37-.28,2.73-.56,4.08-.86h0l.19.81-.07-.28.06.29c-1.36.3-2.72.58-4.09.86h0l-.06-.29Zm4-1.28,0,.18Zm-83.12.46h0c-1.37-.3-2.73-.61-4.08-.94l.2-.82c1.35.33,2.71.64,4.07.94l-.1.45.11-.44Zm87.24-1-.14-.83c1.35-.33,2.7-.67,4.05-1l.1.4-.05-.42.2.82h0c-1.35.36-2.7.71-4.06,1h-.06Zm-95.37-1,.07-.41Zm-.05,0c-1.36-.36-2.71-.73-4-1.12l.08-.28-.09.27.22-.81-.09.4.12-.39c1.33.39,2.68.76,4,1.12l-.1.4,0-.41-.18.82.08-.24ZM251.32,378l-.21-.82h0c1.34-.39,2.67-.79,4-1.21l.12.39-.1-.4.24.81h0c-1.33.42-2.67.83-4,1.22h0Zm-111.6-1.17.07-.28-.09.27.12-.4-.12.4c-1.34-.42-2.68-.85-4-1.3h0l.29-.79h0c1.32.45,2.65.88,4,1.3Zm119.62-1.36-.29-.79Zm0,0-.27-.79c1.32-.45,2.63-.91,3.94-1.39l.28.79v0C262,374.57,260.67,375,259.35,375.48Zm-127.61-1.33h0c-1.32-.48-2.63-1-3.93-1.48h0l.29-.79-.11.34.13-.33c1.3.5,2.61,1,3.92,1.47l-.15.41.15-.41Zm135.47-1.53-.29-.79Zm0,0-.31-.78c1.3-.5,2.59-1,3.87-1.55l.16.39-.14-.4.33.77h0C269.82,371.59,268.53,372.11,267.23,372.61ZM123.91,371.1l.14-.39Zm0,0q-1.95-.81-3.87-1.65l.17-.39v0l.18-.41c1.28.56,2.56,1.11,3.85,1.64l-.16.4.13-.41-.31.78.14-.27Zm151-1.66-.29-.79c1.27-.56,2.54-1.13,3.79-1.72l.38.75h0l-.2-.41.19.41c-1.26.59-2.53,1.17-3.81,1.73h0ZM116.18,367.7c-1.27-.59-2.54-1.2-3.79-1.82l.37-.75c1.25.61,2.51,1.22,3.77,1.81l-.19.41.2-.41Zm-3.79-1.82h0l.37-.75Zm170.13,0-.38-.75.33.64-.32-.64q1.88-.93,3.72-1.89l.19.37-.18-.37.38.74h0q-1.85,1-3.72,1.89ZM108.65,364h0l.19-.39-.2.39c-1.24-.65-2.48-1.31-3.71-2l0,0,.45-.72q1.83,1,3.69,2ZM290,362l-.21-.37h0l-.21-.38q1.83-1,3.63-2l.21.36-.23-.35.43.72-.12-.24.13.23C292.39,360.64,291.17,361.33,290,362ZM101.3,359.94h0c-1.21-.71-2.42-1.42-3.61-2.15l.22-.36v0l.22-.38c1.2.73,2.39,1.44,3.6,2.14l-.2.35.22-.34Zm192.32,0-.23-.35Zm3.53-2.1-.39-.74c1.19-.72,2.37-1.46,3.54-2.2l.22.34-.19-.36.43.72h0c-1.18.75-2.36,1.48-3.56,2.21h0Zm-203-2.25.2-.37Zm0,0c-1.18-.75-2.35-1.52-3.51-2.3h0l0,0,.49-.68c1.16.78,2.33,1.54,3.5,2.29l-.22.36.18-.38Zm210.16-2.25-.49-.69.25.33-.22-.34c1.15-.78,2.3-1.56,3.44-2.36l.24.34-.3-.29.54.64v0c-1.14.8-2.29,1.59-3.46,2.36L304,353l.23.34h0l-.15-.22ZM87.13,350.9h0c-1.14-.8-2.27-1.62-3.39-2.44h0l-.06-.05L84,348l.21-.28c1.12.83,2.25,1.64,3.39,2.44l-.24.34.3-.29Zm220.64,0-.29-.3Zm3.34-2.39-.24-.34h0l-.25-.34c1.12-.82,2.23-1.66,3.33-2.51l.26.34-.3-.3.54.64-.16-.24.18.23Q312.81,347.26,311.11,348.5Zm3.4-2.56-.29-.3Zm-234.13,0,0,0h0c-1.11-.86-2.21-1.72-3.3-2.6h0l-.08-.07.35-.28v0l0,0,.3-.24-.3.24.24-.29c1.09.87,2.18,1.73,3.29,2.58l-.26.33.3-.29Zm237.35-2.53-.21-.32-.36-.28.08-.07h0c1.08-.87,2.16-1.76,3.22-2.65h0l.05,0,.23.35.32.26-.3-.24.24.3c-1.07.9-2.15,1.79-3.24,2.66l-.24-.3Zm3-3,.06.07ZM77.3,343l.24-.35Zm-3.46-2.3,0,0h0c-1.07-.9-2.13-1.82-3.18-2.74h0l-.06-.06.33-.26.24-.34-.22.32,0,0,.24-.27c1,.92,2.1,1.83,3.17,2.72l-.24.3.3-.24-.3.24Zm-2.93-3.11,0,0,0-.05Zm253.23.46-.22-.33-.35-.28.06-.05h0c1-.91,2.07-1.84,3.1-2.77h0l.56.62-.14-.16.15.16c-1,.94-2.07,1.87-3.13,2.79l-.26-.29Zm-.23-.35ZM67.52,335.14l0,0c-1-.95-2-1.9-3-2.86l.27-.28-.31.24.31-.24.25-.38.06.06h0c1,1,2,1.92,3,2.86l-.27.3.28-.29Zm262.78-2.75-.25-.37h0l0,0-.2-.31.2.31-.25-.27c1-1,2-1.93,3-2.92l.3.3h0l0,0,0,0,.36.29,0,0h0c-1,1-2,2-3,2.93h0Zm-.23-.35-.32-.27ZM61.5,329.37l.21-.33-.28.28c-1-1-2-2-2.93-3l.3-.29h0l.31-.29c1,1,1.93,2,2.92,3h0l0,0-.33.27Zm.23-.35-.06.06Zm274.53-2.57-.56-.62c1-1,1.91-2,2.85-3.05l.31.29-.26-.33.6.58,0,0h0c-.94,1-1.9,2-2.87,3.06h0ZM55.68,323.3,56,323Zm0,0c-.94-1-1.87-2.07-2.8-3.12l.32-.28h0l.32-.28c.91,1.05,1.84,2.08,2.78,3.11l-.31.28.27-.32-.59.59.22-.17Zm286.29-3-.31-.37-.26-.23c.92-1.05,1.82-2.11,2.72-3.17l.32.26-.3-.29.64.55,0,0h0q-1.35,1.6-2.73,3.18h0ZM50.13,317l.3-.29Zm0,0c-.89-1.07-1.78-2.14-2.66-3.23h0l0,0,.68-.49c.87,1.08,1.75,2.16,2.65,3.22l-.33.27.3-.29Zm297.28-3.14-.68-.49.35.22-.32-.26c.87-1.09,1.73-2.18,2.58-3.29l.68.49-.25-.17.24.19-.34-.25.34.26C349.12,311.62,348.26,312.72,347.38,313.81ZM44.86,310.43h0c-.85-1.11-1.69-2.22-2.52-3.35h0l0,0,.69-.48c.83,1.12,1.66,2.24,2.51,3.34l-.34.26.36-.24Zm307.63-3.27-.68-.48.4.26-.39-.29c.83-1.12,1.64-2.25,2.44-3.39l.35.24-.33-.26.68.48v0c-.8,1.15-1.62,2.28-2.45,3.41l-.25-.18ZM39.91,303.69l.24-.19-.26.17c-.8-1.15-1.59-2.3-2.37-3.46l.26-.17-.26.17.68-.5-.35.28.37-.25c.78,1.16,1.56,2.31,2.36,3.45Zm.33-.26-.32.22Zm317.06-3.12-.67-.5c.77-1.16,1.54-2.32,2.29-3.5l.35.23-.32-.27.68.49h0c-.76,1.17-1.53,2.35-2.3,3.51h0ZM35.24,296.72h0c-.75-1.18-1.49-2.36-2.21-3.56h0l0-.07.44-.17.31-.19c.73,1.18,1.46,2.36,2.21,3.53l-.36.23.4-.15Zm326.61-3.52-.72-.44c.73-1.19,1.44-2.39,2.14-3.6h0l0,0,.35.24.39.14-.36-.12.33.19v0h0C363.29,290.81,362.58,292,361.85,293.2Zm1.78-3.83.14.08Zm-332.73.22,0,0h0c-.7-1.2-1.38-2.42-2.06-3.64h0l0-.08.4-.13.35-.23-.32.22h0l.32-.18c.67,1.22,1.35,2.43,2.05,3.63l-.36.21h0Zm-1.68-3.9,0,0,0,0ZM366,286l-.32-.22-.43-.14,0-.08h0c.67-1.22,1.33-2.45,2-3.69h0l0-.05.35.24.4.14-.37-.12.34.18c-.65,1.24-1.31,2.48-2,3.7l-.33-.18Zm-.34-.24Zm2-3.7.09.05Zm-340.8.25,0,0h0c-.64-1.23-1.27-2.48-1.89-3.73h0l0-.06.4-.13.36-.23-.32.22.34-.17c.62,1.24,1.25,2.48,1.89,3.71l-.37.2h0Zm-1.51-4h0l.06,0Zm344.57.23-.32-.21-.44-.15,0-.06h0c.62-1.25,1.23-2.51,1.82-3.77l.37.17-.36-.21.77.34,0,.05h0c-.6,1.27-1.2,2.54-1.82,3.79l-.35-.16Zm-.35-.23ZM23.17,274.78l.32-.22-.35.16c-.59-1.26-1.17-2.53-1.73-3.8l.76-.34c.57,1.27,1.14,2.53,1.73,3.79h0l0,.05-.4.13Zm.35-.24-.08,0Zm350-3.64-.74-.39c.56-1.27,1.11-2.56,1.65-3.85l.39.17-.37-.22.77.34,0,0h0q-.81,1.95-1.65,3.87h0ZM19.78,267.12l.37-.2Zm0-.05c-.53-1.28-1.06-2.57-1.56-3.87l.39-.16h0l.39-.15c.51,1.29,1,2.58,1.56,3.86l-.39.16.36-.21-.76.35L20,267Zm357-3.93-.42-.24-.33-.13c.5-1.3,1-2.6,1.48-3.92l.39.15-.36-.21.76.33v0h0c-.47,1.31-1,2.62-1.47,3.92h0v0h0Zm-360-3.8.37-.2Zm0-.07c-.48-1.31-.95-2.63-1.4-4l.16-.05-.16.05v0l.81-.24c.45,1.32.91,2.64,1.39,3.94l-.4.15.37-.21-.76.35.06,0Zm362.9-4.1-.8-.24.4.1-.39-.13c.45-1.32.88-2.65,1.3-4l.37.12-.37-.12.81.24v0c-.42,1.34-.86,2.67-1.31,4l-.4-.14.4.14ZM14,251.33h0c-.42-1.33-.82-2.66-1.22-4l.41-.11-.41.11.41-.11-.41.11.8-.26-.39.15.4-.12c.39,1.34.8,2.67,1.22,4Zm.11,0h0l.33-.09Zm368-4.11-.8-.26c.39-1.34.76-2.68,1.12-4l.4.11-.39-.13.81.24h0c-.37,1.35-.74,2.7-1.13,4h0ZM11.67,243.29l.4-.12-.4.12.29-.1-.29.08c-.37-1.35-.71-2.7-1.05-4.06h0v-.11H11l.4-.11-.37.11h0l.37-.09c.33,1.35.68,2.7,1,4.05Zm-.61-4.19h0Zm373.25,0-.37-.11h-.46l0-.1h0c.33-1.36.64-2.71.94-4.07h0v0l.41.12h0l.37.09c-.3,1.37-.62,2.73-.95,4.08l-.37-.09Zm.54-4.19.15,0Zm-375.17.29v0h0c-.3-1.36-.59-2.73-.86-4.1h0v-.09h.42l.4-.11-.37.11h0l.36-.08c.27,1.37.56,2.73.86,4.09l-.38.09h0Zm-.43-4.23h0Zm376.86,0-.37-.11h-.45v-.09h0c.27-1.37.52-2.73.76-4.11h0v-.05l.41.12h0l.38.08c-.24,1.38-.5,2.75-.77,4.12l-.38-.07Zm.37-4.24.08,0ZM8,227v-.06H8c-.24-1.37-.47-2.75-.68-4.13h0v-.07h.42l.4-.1-.37.1h0l.35-.05c.21,1.38.44,2.75.68,4.12l-.38.07h0Zm-.24-4.27h0Zm379.76,0-.38-.11h-.45v-.07h0c.21-1.37.4-2.75.58-4.14l.42.06h.42v.06h0c-.19,1.39-.38,2.78-.59,4.16l-.38-.06Zm-.41-.12ZM6.78,218.68l.37-.12-.39,0c-.18-1.38-.35-2.77-.5-4.16l.39-.05h0l.43-.14v.1h0c.15,1.38.31,2.76.49,4.14h0v.07H7.18Zm.4-.13h0Zm-.5-4.16Zm382,0-.4-.13h0l-.37,0c.15-1.39.28-2.77.4-4.16l.42,0h.42v0h0c-.12,1.4-.26,2.79-.41,4.18h0Zm-.44-.14h0ZM5.87,210.36l.37-.12-.39,0c-.12-1.39-.23-2.78-.32-4.18l.39,0h0l.43-.14,0,.11h0v0h0c.09,1.38.2,2.76.32,4.14h0v.05H6.27Zm.4-.13h0ZM6,206.05Zm383.4,0-.4-.13h0l-.38,0c.09-1.38.16-2.77.22-4.17l.32,0h.09l.43,0c-.06,1.4-.14,2.8-.23,4.19h0Zm-.43-.14h0Zm-383.62-4h0c-.06-1.39-.1-2.78-.14-4.17l.81,0H6c0,1.39.08,2.78.14,4.16l-.42,0h.42Zm384.43-4.36h-.84c0-1.39.05-2.78.05-4.18V193h.84v.35c0,1.4,0,2.8,0,4.19Zm-384.61-4v-.19c0-1.34,0-2.68,0-4H6c0,1.33,0,2.67,0,4v.18ZM389.78,193h0Zm-.89-4.17h0c0-1.4-.08-2.79-.15-4.18l.43,0h-.43l.84,0h0c.07,1.4.11,2.79.15,4.19l-.81,0h0ZM6.13,185.16H5.71l-.42,0c.06-1.4.13-2.79.22-4.19h0l0-.11L6,181H6l.37.12L6,181l.39,0C6.26,182.37,6.19,183.76,6.13,185.16ZM6,181H6Zm382.57-.38v-.12h0v0h0c-.09-1.38-.2-2.76-.32-4.13h0v-.05h.42l.4-.12-.37.12.39,0c.12,1.39.23,2.79.32,4.19l-.39,0h0Zm.4-.15Zm-.29-4.18h0Zm-382,.57-.42,0H5.82v-.05h0c.12-1.4.25-2.79.4-4.18h0v-.1l.43.14h0l.35.12-.35-.12.37,0C6.91,174.05,6.78,175.43,6.66,176.82Zm0-4.2h0Zm381.13-.38,0-.1h0c-.15-1.39-.32-2.77-.5-4.15h0v-.06h.42l.4-.12-.37.12.39-.05c.18,1.39.35,2.78.5,4.17l-.38,0h0Zm-.08-4.31h0ZM7.53,168.6l-.37-.13H6.71v-.06h0c.18-1.39.37-2.78.58-4.15l.38.05-.37-.11.37.11h.46v.07h0c-.21,1.37-.4,2.75-.58,4.14l-.39-.05Zm-.4-.14Zm.58-4.14h0Zm379-.41.4-.1Zm0,0c-.22-1.38-.44-2.75-.69-4.12l.42-.07h0l.44-.13v.05h0q.36,2.07.69,4.14h0v.08H387ZM8.79,160.31l-.41-.12h0L8,160.11c.24-1.38.5-2.75.77-4.12l.38.07L8.75,156l.37.11h.45v.09h0c-.26,1.36-.52,2.73-.76,4.11h0Zm-.44-.12h0l-.09,0Zm376.89-4.52.4-.11Zm0,0c-.27-1.36-.56-2.73-.86-4.08l.41-.09h0l.44-.13v0h0c.3,1.37.59,2.74.86,4.11h0v.09h-.47ZM10.41,152.1,10,152h0l-.38-.09c.3-1.37.62-2.73.95-4.09l.37.09-.37-.1.38.1h.45l0,.11h0c-.33,1.35-.65,2.71-.95,4.07h0ZM10,152h0l-.16,0Zm373.45-4.47.4-.11Zm0,0c-.33-1.35-.68-2.7-1-4l.81-.24-.4.12.4-.12-.3.1.3-.08c.37,1.34.72,2.7,1.05,4.06h0v.11h-.46ZM12.38,144l-.81-.24h0c.36-1.35.73-2.69,1.12-4h0v0l.79.26c-.38,1.34-.76,2.68-1.11,4l-.4-.1Zm368.87-4.53.4-.14-.41.11c-.39-1.33-.79-2.67-1.21-4l.41-.13-.42.12.8-.26v0c.42,1.33.83,2.67,1.22,4l-.4.11.4-.11-.4.12.4-.12ZM14.71,135.93l-.81-.24v0c.42-1.34.86-2.67,1.3-4l.4.13-.4-.13h0l.8.24-.4-.11.39.13c-.45,1.33-.88,2.66-1.3,4l-.4-.13Zm364-4.48h0c-.45-1.32-.92-2.62-1.39-3.93l.39-.14-.36.21.76-.35c.48,1.31.94,2.63,1.39,4l-.11,0,.11,0v0ZM17.4,128l-.8-.27.33.1-.32-.12c.48-1.32,1-2.63,1.48-3.94h0l0-.06.42.24.33.13C18.37,125.36,17.88,126.66,17.4,128Zm360.32-.62.37-.2Zm.32-.11.08,0h0Zm-2.19-3.64c-.51-1.3-1-2.58-1.56-3.86l.39-.16-.37.2.76-.35-.27.1.27-.12c.53,1.29,1.05,2.58,1.56,3.88Zm-355.44-3.4-.77-.33,0,0h0q.81-1.95,1.65-3.87h0l0,0,.74.38c-.56,1.28-1.11,2.57-1.64,3.86L20,120Zm354.26-.63.37-.2Zm-2-3.66c-.56-1.27-1.14-2.53-1.73-3.79h0l0,0,.4-.13.35-.23-.32.22.35-.16c.59,1.26,1.17,2.53,1.74,3.8l-.39.17h0Zm-1.32-4,0,0,.07,0Zm-347.54.59L23,112.2l0,0h0c.59-1.27,1.2-2.53,1.82-3.79l.35.17-.32-.21.32.21.43.14,0,.06h0c-.61,1.25-1.22,2.51-1.81,3.78l-.37-.18Zm1.44-4h0Zm343.91-.11.32-.21h0l-.32.15c-.61-1.24-1.24-2.48-1.89-3.71l.37-.19h0l.38-.25,0,.05h0c.64,1.24,1.28,2.48,1.9,3.73h0l0,.06-.4.14Zm.34-.23-.05,0ZM27.48,105l-.35-.24-.39-.14.36.12-.34-.18c.65-1.24,1.31-2.48,2-3.7l.34.18-.32-.22.32.22.44.14,0,.08h0c-.67,1.22-1.33,2.45-2,3.69h0Zm-.38-.25h0l-.07,0Zm2-3.69ZM365.27,101l.35-.22Zm0,0c-.67-1.21-1.36-2.42-2.05-3.62l.36-.21h0l.38-.26v0h0c.71,1.21,1.39,2.42,2.07,3.65h0l0,.08-.43.14,0,0-.05,0-.35.11.35-.11ZM31.52,97.69l-.35-.24-.4-.14.37.12-.33-.2c.7-1.21,1.41-2.41,2.14-3.61l.36.22h0l.36.21c-.73,1.2-1.44,2.4-2.14,3.6h0Zm-.38-.26h0L31,97.37Zm329.93-3.64c-.73-1.18-1.46-2.36-2.21-3.53l.35-.23-.39.16.74-.4v0h0c.74,1.18,1.48,2.35,2.21,3.54h0l0,.07-.44.18ZM35.88,90.5l-.35-.22.38.15-.74-.38c.75-1.18,1.52-2.35,2.3-3.51h0l0,0,.68.5C37.39,88.16,36.63,89.33,35.88,90.5Zm-.36-.21-.39-.17ZM356.6,86.81l.32-.27-.35.23c-.77-1.15-1.56-2.3-2.36-3.44l.67-.5-.23.19.25-.17h0q1.2,1.71,2.37,3.45l-.2.14.2-.14Zm-2-3.78-.07.06.28-.2Zm-314.12.54-.68-.48v0c.8-1.15,1.62-2.28,2.45-3.41l.25.18-.24-.2.68.49-.39-.25.37.27c-.82,1.13-1.63,2.26-2.43,3.4l-.35-.24ZM351.78,80h0c-.82-1.12-1.66-2.23-2.5-3.33l.34-.26-.36.24.67-.5h0c.86,1.11,1.7,2.22,2.52,3.35h0l0,0ZM45.47,76.81l-.68-.49.26.17-.24-.19.33.26-.33-.26c.85-1.11,1.72-2.21,2.59-3.3l.68.49-.35-.23.33.26C47.18,74.61,46.32,75.71,45.47,76.81Zm301.22-3.48c-.88-1.08-1.76-2.15-2.66-3.22l.33-.27-.3.3.62-.57h0c.9,1.07,1.78,2.15,2.66,3.24h0l0,0Zm-296-3-.63-.55,0,0c.89-1.07,1.81-2.13,2.73-3.18h0l.05,0,.31.37.27.23c-.92,1-1.83,2.11-2.72,3.17L50.4,70Zm293.67-.49.3-.29Zm-3-2.88c-.92-1-1.85-2.08-2.79-3.11l.31-.28-.27.32.59-.59-.22.17.21-.19c.94,1,1.88,2.07,2.8,3.12ZM56.18,64.05l-.61-.58,0,0h0c.94-1,1.9-2,2.87-3.06h0l0,0,.56.62c-1,1-1.91,2-2.85,3.05l-.31-.28Zm282.64-.5.28-.32Zm-3.16-2.75c-1-1-1.93-2-2.92-3h0l0,0,.33-.26.24-.34-.22.32.28-.27q1.49,1.48,2.94,3Zm-2.61-3.31,0,0,.07-.07ZM61.93,58l-.22-.33-.35-.28,0,0h0c1-1,2-2,3-2.93h0l.06-.06.25.38,0,0,0,0,.21.3-.21-.3.26.26C64,56,63,57,62,58l-.28-.28Zm-.23-.35ZM65,55l-.32-.27ZM329.82,55l-.06-.06h0c-1-1-2-1.92-3.05-2.86l.29-.31-.3.3.56-.63,0,0c1,.95,2.05,1.9,3.06,2.87l-.26.28.3-.24-.3.24ZM68,52.2l-.56-.63.13.16-.13-.15c1-.95,2.07-1.88,3.12-2.8l.25.29-.21-.33.22.33.35.28-.06,0h0C70.08,50.33,69.05,51.26,68,52.2Zm255.61-2.91.24-.34Zm0,0c-1-.91-2.11-1.82-3.17-2.71l.26-.32h0l.25-.37,0,0h0q1.6,1.35,3.18,2.73h0l.06,0-.35.29,0,0-.05.06-.27.22.27-.22ZM74.25,46.72,74,46.37l-.32-.27.3.25L73.75,46c1.08-.89,2.15-1.78,3.24-2.66l.25.3L77,43.36l.22.32.35.29-.07.06h0c-1.08.87-2.16,1.75-3.22,2.65h0ZM74,46.35l0,0L74,46.3Zm3.25-2.64h0Zm240,.2.24-.35Zm0,0c-1.09-.88-2.19-1.74-3.29-2.58l.25-.34-.29.3.52-.65,0,0h0c1.11.85,2.21,1.71,3.3,2.59h0l.07.07-.35.28,0,0,0,0-.29.24.29-.24ZM80.8,41.46l-.26-.34.3.3-.54-.64.17.25-.18-.24c1.1-.85,2.22-1.69,3.34-2.52l.25.34h0l.25.34C83,39.77,81.9,40.61,80.8,41.46Zm-.26-.33-.29-.3Zm230-2.33c-1.12-.83-2.25-1.64-3.4-2.44l.25-.35-.3.3.52-.65h0c1.14.8,2.27,1.61,3.4,2.44h0l.06.05-.35.34Zm-223-2.28-.24-.35.3.3L87,35.83l0,0,0,0q1.71-1.2,3.45-2.37l.24.35-.07-.1,0,.06-.21-.31.5.68-.26-.33.23.35C89.8,34.93,88.66,35.72,87.52,36.52Zm-.25-.34L87,35.87ZM303.7,34c-1.16-.77-2.32-1.54-3.5-2.29l.23-.35-.19.38.41-.73c1.18.75,2.35,1.51,3.52,2.29l0,0ZM94.41,31.89,94,31.17h0c1.17-.75,2.36-1.49,3.55-2.21h0l0,0,.4.73c-1.19.73-2.37,1.46-3.54,2.21l-.23-.35Zm206-.53.19-.38Zm-3.77-1.85c-1.19-.73-2.4-1.44-3.6-2.14l.21-.36-.24.35.42-.73,0,0h0c1.21.7,2.42,1.41,3.61,2.14l-.21.36v0Zm-195.08-2-.22-.39.24.37Zm0,0-.43-.72.13.26-.14-.25c1.2-.7,2.42-1.39,3.64-2.06l.2.37v0l.22.39C104,26.15,102.79,26.83,101.59,27.52Zm-.24-.34-.22-.36Zm188-1.86c-1.22-.67-2.45-1.33-3.69-2l.37-.75h0l-.19.38.2-.38c1.23.65,2.47,1.31,3.69,2h0l0,0Zm-180.54-1.8-.38-.75h0c1.23-.64,2.48-1.28,3.73-1.9h0l.38.75-.36-.69.35.7c-1.25.61-2.48,1.24-3.71,1.89l-.17-.33ZM282,21.46l.37-.75h0Zm0,0c-1.25-.62-2.51-1.22-3.77-1.81l.18-.38-.19.37.36-.75h0c1.27.59,2.53,1.2,3.79,1.81ZM116.33,19.82l-.37-.75h0l.21.41-.19-.41c1.26-.59,2.52-1.17,3.8-1.73h0l0,0,.29.78C118.85,18.66,117.59,19.23,116.33,19.82Zm158.05-1.9c-1.27-.56-2.56-1.11-3.85-1.64l.16-.38-.13.39.31-.78-.13.26.11-.27q1.95.81,3.87,1.65ZM123.92,16.46l-.33-.77h0c1.29-.54,2.58-1.06,3.88-1.56l.15.39v0h0l-.13-.38.29.79-.13-.33.12.33c-1.29.5-2.58,1-3.85,1.55l-.17-.4Zm146.76-.57.14-.4Zm-4-1.16.11-.32-.12.31c-1.3-.5-2.61-1-3.92-1.47l.16-.46-.17.46.27-.8h0c1.32.48,2.64,1,3.94,1.48h0ZM131.71,13.42l-.29-.79,0,.06,0-.06c1.32-.48,2.63-.94,4-1.4l.27.8C134.33,12.48,133,12.94,131.71,13.42Zm4-1.4-.29-.79Zm123.09-.15c-1.32-.45-2.65-.88-4-1.3l.23-.81-.07.28.09-.27-.12.4.12-.4c1.35.42,2.68.85,4,1.3h0ZM139.59,10.73l-.24-.8h0c1.33-.43,2.67-.83,4-1.23h0l.21.81h0c-1.34.39-2.67.8-4,1.22l-.13-.4ZM250.8,9.37l.08-.38-.11.37c-1.33-.38-2.67-.76-4-1.11l.11-.4-.06.41.18-.82-.08.23.06-.24c1.36.36,2.71.74,4,1.13l-.08.28.09-.28Zm-103.22-1-.19-.81h0c1.35-.36,2.7-.71,4.06-1h.06l.14.82c-1.35.34-2.7.68-4,1l-.11-.4Zm99.27-.55.06-.42Zm-4.15-.62c-1.35-.33-2.71-.64-4.07-.94l.09-.41-.1.41.16-.83h0c1.37.3,2.72.61,4.08.94l-.1.41h0Zm-86.95-.83-.19-.81.07.28-.06-.29c1.36-.3,2.73-.59,4.1-.86l.06.29,0-.29.18.82-.12-.41.09.41c-1.37.27-2.73.56-4.08.86h0Zm-.12-.52,0,.08,0-.12Zm4.12-.78v0Zm74.79.34c-1.36-.27-2.73-.52-4.11-.76l.13-.83,0,.19,0-.19-.07.42.08-.42c1.38.24,2.75.5,4.12.77h0Zm-70.6-.67-.17-.82.07.29-.05-.3.08.42-.07-.42c1.37-.24,2.75-.47,4.13-.68h0l.1.83C166.69,4.29,165.31,4.52,163.94,4.76ZM226.33,4l.09-.69-.11.69c-1.37-.21-2.75-.4-4.13-.58h0l.11-.83,0,.15,0-.15c1.39.18,2.77.37,4.16.58l0,.19,0-.19ZM172.2,3.49l0-.26,0,.26-.14-.83h0c1.38-.19,2.77-.35,4.16-.51h.06l0,.84C175,3.14,173.58,3.31,172.2,3.49ZM218,2.93c-1.38-.14-2.76-.28-4.15-.4l0-.43v.44L214,1.7l-.05.31,0-.31c1.39.12,2.79.25,4.17.4l0,.42v0Zm-37.56-.35-.07-.83h0c1.39-.12,2.78-.23,4.18-.32l0,.42h0l0,.43c-1.4.09-2.79.2-4.17.32l0-.42Zm29.24-.35c-1.38-.09-2.77-.16-4.17-.22l0-.43L205.5,2l0-.83h0c1.4.06,2.79.13,4.19.22h0Zm4.19-.12v0Zm-25-.08,0-.42.05.42-.06-.84v0c1.39-.06,2.78-.11,4.18-.14l0,.84C191.61,1.92,190.22,2,188.84,2ZM193,1.89V1.05h0Zm8.37,0v0c-1.3,0-2.61,0-3.91,0h-.27V1h.27c1.31,0,2.61,0,3.92,0h0Zm-4.19,0V1h0Zm-8.37-.23,0-.42Z"></path><path class="cls-1" d="M197.45,346.14c-84.26,0-152.81-68.55-152.81-152.81S113.19,40.52,197.45,40.52s152.81,68.55,152.81,152.81S281.71,346.14,197.45,346.14Zm0-304.78c-83.8,0-152,68.17-152,152s68.17,152,152,152,152-68.17,152-152S281.24,41.36,197.45,41.36Z"></path></g><g id="Layer_1" data-name="Layer 1"><rect class="cls-2" x="288.88" y="10.75" width="93.02" height="52.07"></rect><polygon class="cls-3" points="378 58.4 373.46 58.4 373.46 57.71 377.3 57.71 377.3 53.87 378 53.87 378 58.4"></polygon><path class="cls-3" d="M365.77,58.4h-7.7v-.69h7.7Zm-15.39,0h-7.7v-.69h7.7ZM335,58.4h-7.7v-.69H335Zm-15.39,0h-7.7v-.69h7.7Zm-15.39,0h-7.7v-.69h7.7Z"></path><polygon class="cls-3" points="288.81 58.4 284.28 58.4 284.28 53.87 284.98 53.87 284.98 57.71 288.81 57.71 288.81 58.4"></polygon><path class="cls-3" d="M285,45.13h-.7V36.39h.7Zm0-17.48h-.7V18.91h.7Z"></path><polygon class="cls-3" points="284.98 10.17 284.28 10.17 284.28 5.64 288.81 5.64 288.81 6.33 284.98 6.33 284.98 10.17"></polygon><path class="cls-3" d="M365.77,6.33h-7.7V5.64h7.7Zm-15.39,0h-7.7V5.64h7.7ZM335,6.33h-7.7V5.64H335Zm-15.39,0h-7.7V5.64h7.7Zm-15.39,0h-7.7V5.64h7.7Z"></path><polygon class="cls-3" points="378 10.17 377.3 10.17 377.3 6.33 373.46 6.33 373.46 5.64 378 5.64 378 10.17"></polygon><path class="cls-3" d="M378,45.13h-.7V36.39h.7Zm0-17.48h-.7V18.91h.7Z"></path><path class="cls-3" d="M316.37,33.74l11-5.67v1.64l-9.27,4.64v0l9.27,4.65v1.63l-11-5.66Z"></path><path class="cls-3" d="M328.92,41.63l6.61-17.18h1.61L330.5,41.63Z"></path><path class="cls-3" d="M349.63,35l-11,5.64V39.05L348,34.4v0l-9.34-4.64V28.07l11,5.64Z"></path><rect class="cls-3" x="197.33" y="82.44" width="0.7" height="4.18"></rect><path class="cls-3" d="M198,73.21h-.7V64h.7Zm0-18.44h-.7V45.54h.7Z"></path><polygon class="cls-3" points="198.03 36.32 197.33 36.32 197.33 31.79 201.87 31.79 201.87 32.48 198.03 32.48 198.03 36.32"></polygon><path class="cls-3" d="M272.29,32.48h-8.8v-.69h8.8Zm-17.6,0h-8.81v-.69h8.81Zm-17.61,0h-8.8v-.69h8.8Zm-17.61,0h-8.8v-.69h8.8Z"></path><rect class="cls-3" x="281.1" y="31.79" width="4.18" height="0.7"></rect><rect class="cls-3" x="196.7" y="299.5" width="0.7" height="4.18"></rect><path class="cls-3" d="M197.4,340.58h-.7v-9.23h.7Zm0-18.45h-.7v-9.22h.7Z"></path><polygon class="cls-3" points="197.4 354.33 192.87 354.33 192.87 353.64 196.7 353.64 196.7 349.8 197.4 349.8 197.4 354.33"></polygon><path class="cls-3" d="M184.06,354.33h-8.8v-.69h8.8Zm-17.6,0h-8.81v-.69h8.81Zm-17.61,0h-8.8v-.69h8.8Zm-17.61,0h-8.8v-.69h8.8Z"></path><rect class="cls-3" x="109.45" y="353.64" width="4.18" height="0.7"></rect><rect class="cls-2" x="17.75" y="326.61" width="93.02" height="52.07"></rect><polygon class="cls-3" points="106.86 374.27 102.33 374.27 102.33 373.57 106.17 373.57 106.17 369.73 106.86 369.73 106.86 374.27"></polygon><path class="cls-3" d="M94.64,374.27h-7.7v-.7h7.7Zm-15.39,0h-7.7v-.7h7.7Zm-15.4,0H56.16v-.7h7.69Zm-15.39,0H40.77v-.7h7.69Zm-15.39,0H25.38v-.7h7.69Z"></path><polygon class="cls-3" points="17.68 374.27 13.15 374.27 13.15 369.73 13.85 369.73 13.85 373.57 17.68 373.57 17.68 374.27"></polygon><path class="cls-3" d="M13.85,361h-.7v-8.74h.7Zm0-17.48h-.7v-8.74h.7Z"></path><polygon class="cls-3" points="13.85 326.03 13.15 326.03 13.15 321.5 17.68 321.5 17.68 322.2 13.85 322.2 13.85 326.03"></polygon><path class="cls-3" d="M94.64,322.2h-7.7v-.7h7.7Zm-15.39,0h-7.7v-.7h7.7Zm-15.4,0H56.16v-.7h7.69Zm-15.39,0H40.77v-.7h7.69Zm-15.39,0H25.38v-.7h7.69Z"></path><polygon class="cls-3" points="106.86 326.03 106.17 326.03 106.17 322.2 102.33 322.2 102.33 321.5 106.86 321.5 106.86 326.03"></polygon><path class="cls-3" d="M106.86,361h-.69v-8.74h.69Zm0-17.48h-.69v-8.74h.69Z"></path><path class="cls-3" d="M45.24,349.6l11-5.67v1.64L47,350.22v0l9.27,4.65v1.64l-11-5.67Z"></path><path class="cls-3" d="M57.78,357.49l6.62-17.18H66l-6.64,17.18Z"></path><path class="cls-3" d="M78.5,350.9l-11,5.65v-1.64l9.34-4.65v0l-9.34-4.65v-1.64l11,5.65Z"></path><g class="cls-4"><rect class="cls-5" x="38.27" y="86.62" width="317.48" height="11.69"></rect><path class="cls-6" d="M118.56,98.31V92.55A2.6,2.6,0,0,0,115.93,90H49.31a2.6,2.6,0,0,0-2.63,2.57v5.76H38.27V113.9H355.76V98.31Z"></path><rect class="cls-7" x="38.27" y="113.9" width="317.48" height="185.48"></rect><path class="cls-8" d="M332.66,111.05h-262a3.07,3.07,0,0,1-3.11-3V104.2a3.07,3.07,0,0,1,3.11-3h262a3.07,3.07,0,0,1,3.11,3V108A3.07,3.07,0,0,1,332.66,111.05Z"></path><rect class="cls-9" x="344.49" y="103.89" width="5.25" height="0.57"></rect><rect class="cls-9" x="344.49" y="105.75" width="5.25" height="0.57"></rect><rect class="cls-9" x="344.49" y="107.6" width="5.25" height="0.57"></rect><polygon class="cls-9" points="47.33 109.61 47.75 109.2 44.92 106.43 47.79 103.64 47.36 103.22 44.5 106.02 44.11 106.4 44.07 106.43 47.33 109.61"></polygon><rect class="cls-9" x="44.79" y="106.11" width="6.59" height="0.61"></rect><polygon class="cls-9" points="59.88 109.61 59.45 109.2 62.28 106.43 59.42 103.64 59.84 103.22 62.71 106.02 63.1 106.4 63.13 106.43 59.88 109.61"></polygon><rect class="cls-9" x="55.83" y="106.11" width="6.59" height="0.61"></rect><polygon class="cls-9" points="75.58 104.53 73.98 105.54 75.28 105.8 75.58 104.53"></polygon><path class="cls-9" d="M74.86,106.56a1.82,1.82,0,1,1-.21-1.39L75,105a2.29,2.29,0,0,0-2-1.08,2.24,2.24,0,1,0,2.2,2.87Z"></path><path class="cls-9" d="M115.92,94.91h0a.18.18,0,0,1-.24,0l-2-2a.15.15,0,0,1,0-.23h0a.18.18,0,0,1,.24,0l2,2A.15.15,0,0,1,115.92,94.91Z"></path><path class="cls-9" d="M115.92,94.91h0a.18.18,0,0,1-.24,0l-2-2a.15.15,0,0,1,0-.23h0a.18.18,0,0,1,.24,0l2,2A.15.15,0,0,1,115.92,94.91Z"></path><path class="cls-9" d="M115.92,92.69h0a.15.15,0,0,1,0,.23l-2,2a.18.18,0,0,1-.24,0h0a.15.15,0,0,1,0-.23l2-2A.18.18,0,0,1,115.92,92.69Z"></path><path class="cls-9" d="M349.12,94.42h0a.3.3,0,0,1-.43,0l-3.58-3.49a.31.31,0,0,1,0-.42h0a.3.3,0,0,1,.43,0L349.12,94A.29.29,0,0,1,349.12,94.42Z"></path><path class="cls-9" d="M349.12,94.42h0a.3.3,0,0,1-.43,0l-3.58-3.49a.31.31,0,0,1,0-.42h0a.3.3,0,0,1,.43,0L349.12,94A.29.29,0,0,1,349.12,94.42Z"></path><path class="cls-9" d="M349.12,90.51h0a.29.29,0,0,1,0,.42l-3.57,3.49a.3.3,0,0,1-.43,0h0a.31.31,0,0,1,0-.42l3.58-3.49A.3.3,0,0,1,349.12,90.51Z"></path><path class="cls-9" d="M340.54,94.67h-3.38a.34.34,0,0,1-.34-.33h0a.33.33,0,0,1,.34-.33h3.38a.33.33,0,0,1,.33.33h0A.33.33,0,0,1,340.54,94.67Z"></path></g><polygon class="cls-8" points="289.92 171.63 106.04 171.64 105.98 299.43 289.85 299.77 289.92 171.63"></polygon><polygon class="cls-10" points="93.88 161.82 95.74 150.63 98.74 150.63 96.88 161.82 93.88 161.82"></polygon><path class="cls-10" d="M107.56,150.91a7.61,7.61,0,0,0-2.69-.47c-3,0-5.05,1.52-5.07,3.7,0,1.61,1.49,2.5,2.63,3s1.55.9,1.55,1.38c0,.75-.93,1.1-1.8,1.1a6.17,6.17,0,0,1-2.82-.59l-.38-.18-.42,2.51a9.49,9.49,0,0,0,3.33.6c3.15,0,5.2-1.51,5.23-3.83,0-1.27-.79-2.24-2.52-3-1-.52-1.69-.86-1.68-1.39s.54-1,1.72-1a5.29,5.29,0,0,1,2.24.43l.27.13.41-2.43Z"></path><path class="cls-10" d="M112.67,150.62a1.49,1.49,0,0,0-1.56.95l-4.44,10.25h3.17l.62-1.71h3.79l.35,1.71h2.82L115,150.62Zm-1.37,7.24,1.2-3.13s.24-.65.39-1.07l.21,1,.69,3.23Z"></path><path class="cls-10" d="M88.42,158.3l-.26-1.54A8.71,8.71,0,0,0,84,152.07l2.64,9.75h3.17l4.77-11.19H91.42Z"></path><path class="cls-10" d="M80.76,150.63v.18a10.29,10.29,0,0,1,7.4,5.95l-1.08-5.18a1.29,1.29,0,0,0-1.38-1Z"></path><path class="cls-10" d="M312.21,155.15a10.09,10.09,0,1,1-20.17,0h0a10.09,10.09,0,1,1,20.17,0Z"></path><path class="cls-10" d="M288.54,144.84a10.32,10.32,0,0,0,0,20.63,9.93,9.93,0,0,0,6.79-2.69h0a9.63,9.63,0,0,0,1-1.1h-2.06a9.3,9.3,0,0,1-.75-1.06h3.56a11.79,11.79,0,0,0,.59-1.11H293a10.06,10.06,0,0,1-.42-1.08h5.58a10.43,10.43,0,0,0,.52-3.28,10.83,10.83,0,0,0-.23-2.21h-6.16a10.25,10.25,0,0,1,.28-1.09h5.59a9.7,9.7,0,0,0-.44-1.1H293a11.37,11.37,0,0,1,.58-1.09h3.56a10.44,10.44,0,0,0-.78-1.1h-2a8.25,8.25,0,0,1,1-1,9.91,9.91,0,0,0-6.78-2.69Z"></path><path class="cls-11" d="M292.22,157.78l.14-.93c-.08,0-.18,0-.28,0-.37,0-.41-.2-.39-.35l.3-1.91h.57l.14-1h-.54l.11-.64H291.2s-.64,3.61-.64,4.05a.81.81,0,0,0,.86.93A2.83,2.83,0,0,0,292.22,157.78Z"></path><path class="cls-11" d="M292.56,156a1.7,1.7,0,0,0,1.86,1.92,2.69,2.69,0,0,0,1.13-.18l.19-1.06a3.29,3.29,0,0,1-1.14.27c-1.15,0-1-.88-1-.88h2.18a8.08,8.08,0,0,0,.14-1,1.46,1.46,0,0,0-1.53-1.6C293.36,153.47,292.56,154.66,292.56,156Zm1.89-1.55c.6,0,.49.7.49.75h-1.19C293.75,155.13,293.86,154.45,294.45,154.45Z"></path><path class="cls-11" d="M301.24,157.78l.2-1.2a2.57,2.57,0,0,1-.89.27c-.76,0-1.07-.59-1.07-1.23,0-1.3.66-2,1.39-2a1.9,1.9,0,0,1,1,.31l.18-1.16a3.77,3.77,0,0,0-1.21-.27c-1.24,0-2.45,1.1-2.45,3.17,0,1.37.65,2.27,1.93,2.27A4.76,4.76,0,0,0,301.24,157.78Z"></path><path class="cls-11" d="M286.32,153.49a3.7,3.7,0,0,0-1.3.24l-.15.94a3.34,3.34,0,0,1,1.17-.19c.4,0,.69.05.69.38a.69.69,0,0,1,0,.28l-.46,0c-.93,0-1.9.4-1.9,1.63a1,1,0,0,0,1,1.18,1.39,1.39,0,0,0,1.1-.5l0,.42h.94l.43-3A1.28,1.28,0,0,0,286.32,153.49Zm.23,2.46c0,.18-.11,1.05-.76,1.05a.4.4,0,0,1-.42-.42c0-.3.16-.66.95-.66A.48.48,0,0,1,286.55,156Z"></path><path class="cls-11" d="M288.8,157.9a1.39,1.39,0,0,0,1.62-1.4c0-1.36-1.28-1.09-1.28-1.64,0-.27.21-.36.59-.36.16,0,.74.05.74.05l.13-1a4.61,4.61,0,0,0-1-.09c-.79,0-1.6.33-1.6,1.44s1.35,1.13,1.35,1.66c0,.35-.38.38-.67.38a3.4,3.4,0,0,1-.95-.17l-.15,1A3.27,3.27,0,0,0,288.8,157.9Z"></path><path class="cls-11" d="M310.14,152.61l-.23,1.47a1.43,1.43,0,0,0-1-.57c-1,0-1.8,1.21-1.8,2.61,0,.9.43,1.78,1.33,1.78a1.34,1.34,0,0,0,1-.46l0,.39h1l.83-5.22Zm-.5,2.87c0,.58-.28,1.35-.86,1.35-.39,0-.57-.33-.57-.85,0-.85.37-1.42.84-1.42S309.64,154.84,309.64,155.48Z"></path><path class="cls-11" d="M280.51,157.84l.66-3.94.09,3.94H282l1.38-3.94-.61,3.94h1.09l.85-5.23H283L282,155.82l-.06-3.21h-1.56l-.86,5.23Z"></path><path class="cls-11" d="M297.05,157.85c.31-1.82.37-3.3,1.11-3a4.38,4.38,0,0,1,.4-1.27.71.71,0,0,0-.2,0c-.48,0-.84.67-.84.67l.09-.61h-1l-.67,4.26Z"></path><path class="cls-11" d="M303.72,153.48a3.7,3.7,0,0,0-1.3.24l-.15.95a3.34,3.34,0,0,1,1.17-.19c.4,0,.69,0,.69.37a.64.64,0,0,1,0,.28l-.46,0c-.93,0-1.9.41-1.9,1.63,0,1,.64,1.19,1,1.19a1.36,1.36,0,0,0,1.1-.51l0,.42h.94l.43-3A1.28,1.28,0,0,0,303.72,153.48Zm.23,2.46c0,.19-.11,1.06-.76,1.06a.4.4,0,0,1-.42-.42c0-.3.16-.66,1-.66A1,1,0,0,1,304,155.94Z"></path><path class="cls-11" d="M306.06,157.84c.31-1.81.37-3.29,1.12-3a4.07,4.07,0,0,1,.4-1.28h-.21c-.48,0-.84.67-.84.67l.1-.61h-1l-.67,4.25Z"></path><path class="cls-10" d="M185.63,151.44h-3c-.18,0-.35.19-.44.37l-1.25,8a.24.24,0,0,0,.26.27h1.61c.18,0,.26-.09.26-.28l.36-2.27a.42.42,0,0,1,.45-.37h1a3.12,3.12,0,0,0,3.47-3,2.47,2.47,0,0,0-.35-2,3.59,3.59,0,0,0-2.32-.73m.36,3c-.18,1.09-1,1.09-1.79,1.09h-.53l.36-2.09c0-.09.09-.18.26-.18h.18c.54,0,1.07,0,1.34.36.18.09.18.36.18.82"></path><path class="cls-10" d="M163.82,151.45h-3a.59.59,0,0,0-.45.37l-1.25,8a.24.24,0,0,0,.27.27h1.42a.6.6,0,0,0,.45-.36l.36-2.19a.41.41,0,0,1,.44-.36h1a3.12,3.12,0,0,0,3.47-3,2.4,2.4,0,0,0-.35-2,3.34,3.34,0,0,0-2.31-.73m.35,3c-.18,1.09-1,1.09-1.78,1.09h-.45l.36-2.1c0-.09.09-.18.27-.18h.18c.53,0,1.06,0,1.33.37a1,1,0,0,1,.09.82"></path><path class="cls-10" d="M173,154.36h-1.42c-.09,0-.27.09-.27.18l-.09.46-.09-.18a2,2,0,0,0-1.69-.64,3.45,3.45,0,0,0-3.29,3,2.75,2.75,0,0,0,.53,2.27,2.2,2.2,0,0,0,1.87.73,2.84,2.84,0,0,0,2.05-.82l-.09.46a.24.24,0,0,0,.27.27h1.33a.6.6,0,0,0,.45-.36l.8-5.1c-.09-.1-.27-.28-.36-.28m-2,2.92a1.72,1.72,0,0,1-1.69,1.45,1.43,1.43,0,0,1-1-.36,2,2,0,0,1-.26-1.09,1.58,1.58,0,0,1,2.58-1.1,1.61,1.61,0,0,1,.35,1.1"></path><path class="cls-10" d="M194.72,154.36h-1.43c-.09,0-.27.09-.27.18l-.09.45-.08-.18a2.1,2.1,0,0,0-1.7-.64,3.46,3.46,0,0,0-3.29,3,2.75,2.75,0,0,0,.53,2.28,2.2,2.2,0,0,0,1.87.73,2.81,2.81,0,0,0,2.05-.82l-.09.45c0,.19.09.28.27.28h1.33c.18,0,.36-.19.45-.37l.8-5.1c-.09-.09-.18-.27-.35-.27m-2.05,2.91a1.75,1.75,0,0,1-1.7,1.46,1.43,1.43,0,0,1-1-.36,2,2,0,0,1-.26-1.1,1.65,1.65,0,0,1,1.6-1.46,1.61,1.61,0,0,1,1,.37,1,1,0,0,1,.36,1.09"></path><path class="cls-10" d="M180.73,154.36h-1.51a.47.47,0,0,0-.36.18l-2,3.1-.89-2.91a.41.41,0,0,0-.44-.28h-1.43c-.18,0-.27.19-.27.37l1.6,4.82L174,161.83c-.09.18,0,.46.18.46h1.42a.48.48,0,0,0,.36-.19l4.9-7.19c.27-.28.09-.55-.09-.55"></path><path class="cls-10" d="M196.41,151.71l-1.25,8.2c0,.19.09.28.27.28h1.24c.18,0,.36-.19.45-.37l1.25-8a.24.24,0,0,0-.27-.27h-1.42c-.09-.09-.18,0-.27.18"></path><path class="cls-10" d="M152.51,148.72a4.32,4.32,0,0,0-3.38-1.09h-4.45a.79.79,0,0,0-.62.55l-1.78,11.93a.41.41,0,0,0,.35.45h2.76l.71-4.46v.18a.77.77,0,0,1,.63-.54h1.33c2.58,0,4.54-1.1,5.16-4.1v-.28h0a3.21,3.21,0,0,0-.71-2.64"></path><path class="cls-10" d="M153.14,151.36h0v.28c-.62,3.09-2.58,4.09-5.16,4.1h-1.33a.77.77,0,0,0-.63.54l-.89,5.56a.33.33,0,0,0,.36.36h2.31a.5.5,0,0,0,.53-.46v-.09l.45-2.82v-.18a.51.51,0,0,1,.54-.46h.35c2.23,0,4-.91,4.45-3.64a3.42,3.42,0,0,0-.44-2.73.94.94,0,0,0-.53-.46"></path><path class="cls-10" d="M152.51,151.09c-.09,0-.18-.09-.26-.09a.33.33,0,0,1-.27-.09,4.67,4.67,0,0,0-1.16-.09h-3.47a.33.33,0,0,0-.27.09.51.51,0,0,0-.26.46l-.72,4.73v.18a.77.77,0,0,1,.63-.54h1.33c2.58,0,4.54-1.1,5.16-4.1a.35.35,0,0,1,.09-.28c-.17-.09-.26-.18-.44-.18s-.27-.09-.36-.09"></path><polygon class="cls-8" points="232.92 138.34 226.83 138.34 226.83 136.31 232.92 136.31 232.92 138.34"></polygon><polygon class="cls-8" points="171.25 138.37 165.17 138.37 165.17 136.34 171.25 136.34 171.25 138.37"></polygon><polygon class="cls-8" points="163.74 138.37 157.66 138.38 157.66 136.35 163.74 136.34 163.74 138.37"></polygon><polygon class="cls-8" points="182.99 138.36 172.93 138.37 172.93 136.34 182.99 136.33 182.99 138.36"></polygon><polygon class="cls-8" points="156.38 138.38 146.32 138.38 146.32 136.35 156.38 136.35 156.38 138.38"></polygon><polygon class="cls-8" points="144.38 138.38 124.27 138.39 124.27 136.37 144.38 136.35 144.38 138.38"></polygon><polygon class="cls-8" points="225.27 138.34 184.99 138.36 184.99 136.33 225.27 136.31 225.27 138.34"></polygon><polygon class="cls-8" points="122.22 138.4 82.05 138.41 82.05 136.39 122.22 136.37 122.22 138.4"></polygon><rect class="cls-11" x="173.27" y="197.57" width="2.24" height="116.83" transform="translate(-81.8 430.07) rotate(-89.93)"></rect><rect class="cls-11" x="157.33" y="252.68" width="2.24" height="15.23" transform="translate(-102.04 418.41) rotate(-89.93)"></rect><rect class="cls-11" x="130.96" y="244.15" width="2.23" height="32.21" transform="translate(-128.35 392.01) rotate(-89.93)"></rect><rect class="cls-11" x="158.34" y="207.12" width="2.24" height="86.95" transform="matrix(0, -1, 1, 0, -91.32, 409.77)"></rect><rect class="cls-11" x="115.99" y="231.89" width="116.83" height="2.24"></rect><rect class="cls-11" x="150.85" y="236.21" width="15.23" height="2.24"></rect><rect class="cls-11" x="115.99" y="236.18" width="32.21" height="2.23"></rect><rect class="cls-11" x="115.99" y="226.51" width="86.95" height="2.24"></rect><polygon class="cls-11" points="248.63 220.16 115.99 220.07 116 201.51 248.63 201.57 248.63 220.16"></polygon><polygon class="cls-11" points="215.21 283.72 116.88 283.56 116.88 273.43 215.22 273.57 215.21 283.72"></polygon><polygon class="cls-11" points="214.34 192.97 116.01 192.94 116.01 182.81 214.34 182.82 214.34 192.97"></polygon><polygon class="cls-8" points="180.29 132.4 82.05 132.46 82.06 122.33 180.29 122.25 180.29 132.4"></polygon><path class="cls-10" d="M255.43,143.52h.78a6,6,0,0,1,.71.06,1.84,1.84,0,0,1,.6.2,2,2,0,0,1,.86.86,2.12,2.12,0,0,1,.2.6,6,6,0,0,1,.06.71v21a6.37,6.37,0,0,1-.06.71,2.17,2.17,0,0,1-.2.59,2,2,0,0,1-.86.87,2.1,2.1,0,0,1-.6.19,4.17,4.17,0,0,1-.71.06H220a4.17,4.17,0,0,1-.71-.06,2.1,2.1,0,0,1-.6-.19,2,2,0,0,1-.5-.37,1.64,1.64,0,0,1-.36-.5,2.12,2.12,0,0,1-.2-.6,4.14,4.14,0,0,1-.06-.7c0-.12,0-.24,0-.36v-20.3c0-.12,0-.24,0-.35a6,6,0,0,1,.06-.71,2.12,2.12,0,0,1,.2-.6,2,2,0,0,1,.86-.86,2.12,2.12,0,0,1,.6-.2,4.17,4.17,0,0,1,.71-.06h35.4m0-.56H220a4.22,4.22,0,0,0-.79.07,2.61,2.61,0,0,0-.76.25,2.54,2.54,0,0,0-1.1,1.1,2.61,2.61,0,0,0-.25.76,4.22,4.22,0,0,0-.07.79c0,.12,0,.24,0,.37v20.31c0,.12,0,.24,0,.36a4.15,4.15,0,0,0,.07.79,2.52,2.52,0,0,0,.25.76,2.56,2.56,0,0,0,1.1,1.11,3,3,0,0,0,.76.25,7,7,0,0,0,.79.07h36.22a7,7,0,0,0,.79-.07,2.76,2.76,0,0,0,.75-.25,2.56,2.56,0,0,0,1.36-1.87,5.16,5.16,0,0,0,.07-.79c0-.12,0-.24,0-.36V146.31c0-.13,0-.25,0-.37a5.27,5.27,0,0,0-.07-.79,2.61,2.61,0,0,0-.25-.76,2.51,2.51,0,0,0-1.11-1.1A2.46,2.46,0,0,0,257,143a4.22,4.22,0,0,0-.79-.07h-.8Z"></path><path class="cls-10" d="M229.11,151.06a2.46,2.46,0,0,0,.58-1.78,2.49,2.49,0,0,0-1.64.85,2.3,2.3,0,0,0-.59,1.72A2.06,2.06,0,0,0,229.11,151.06Zm1.62,4.15a2.55,2.55,0,0,1,1.21-2.13,2.62,2.62,0,0,0-2.05-1.1c-.86-.09-1.69.51-2.13.51s-1.12-.5-1.84-.48a2.72,2.72,0,0,0-2.31,1.4c-1,1.71-.25,4.24.71,5.62.47.68,1,1.44,1.76,1.41s1-.46,1.83-.46,1.09.46,1.84.45,1.24-.69,1.71-1.38a6.18,6.18,0,0,0,.77-1.58,2.47,2.47,0,0,1-1.5-2.26Zm9.05-4.15a2.94,2.94,0,0,0-1.08-.63,4.83,4.83,0,0,0-1.55-.22,10.88,10.88,0,0,0-1.14.06l-.94.13-.09,0v9.94h.9v-4.19a6.56,6.56,0,0,0,1,.08,4.94,4.94,0,0,0,1.43-.2,3.15,3.15,0,0,0,1.15-.59,2.8,2.8,0,0,0,.77-1,3.27,3.27,0,0,0,.28-1.38,3.19,3.19,0,0,0-.2-1.15,2.63,2.63,0,0,0-.57-.87Zm-.83,3.8a3,3,0,0,1-2,.59c-.23,0-.45,0-.65,0a3.69,3.69,0,0,1-.46-.08v-4.23l.45-.06c.22,0,.48,0,.79,0a3.66,3.66,0,0,1,1,.13,2.43,2.43,0,0,1,.79.39,1.68,1.68,0,0,1,.51.66,2.25,2.25,0,0,1,.18.94,2.14,2.14,0,0,1-.69,1.72Zm7,4.57c0-.29,0-.57,0-.85v-2.76a5.54,5.54,0,0,0-.1-1,2.44,2.44,0,0,0-.38-.93,2.09,2.09,0,0,0-.76-.68,2.72,2.72,0,0,0-1.25-.26,4.18,4.18,0,0,0-1.07.14,3.55,3.55,0,0,0-1,.48l-.08,0,.31.72.11-.08a2.85,2.85,0,0,1,.79-.37,3.17,3.17,0,0,1,.87-.14,1.63,1.63,0,0,1,.89.21,1.24,1.24,0,0,1,.49.5,1.93,1.93,0,0,1,.22.65,5,5,0,0,1,.05.62v.08a5.76,5.76,0,0,0-3.09.67,2.24,2.24,0,0,0-1.11,2,2.35,2.35,0,0,0,.13.74,1.86,1.86,0,0,0,.4.66,1.94,1.94,0,0,0,.67.46,2.32,2.32,0,0,0,.94.18,2.65,2.65,0,0,0,1.43-.39,2.8,2.8,0,0,0,.49-.39l.18-.19h0l.08.81h.88l0-.13a5.6,5.6,0,0,1-.09-.8Zm-.92-1.42a1.8,1.8,0,0,1-.07.39,2.16,2.16,0,0,1-.24.48,1.88,1.88,0,0,1-1,.72,2,2,0,0,1-.73.11,1.34,1.34,0,0,1-.48-.08,1.1,1.1,0,0,1-.4-.24,1.07,1.07,0,0,1-.28-.41,1.53,1.53,0,0,1-.11-.6,1.35,1.35,0,0,1,.31-.94,2.05,2.05,0,0,1,.81-.55,4.54,4.54,0,0,1,1.09-.25,9.21,9.21,0,0,1,1.05,0V158Zm7.08-4.89-1.7,4.6c-.1.28-.2.56-.29.83s-.09.27-.13.39h0c0-.13-.08-.27-.13-.4s-.18-.54-.28-.79l-1.81-4.63h-1l2.59,6.66a.73.73,0,0,1,.08.26.82.82,0,0,1-.08.27,4.58,4.58,0,0,1-.55,1,5.5,5.5,0,0,1-.56.68,2.92,2.92,0,0,1-.61.48,4,4,0,0,1-.57.3l-.1.05.31.76.1,0a3.83,3.83,0,0,0,.47-.22,3.64,3.64,0,0,0,.78-.55,3.52,3.52,0,0,0,.65-.74,7.44,7.44,0,0,0,.58-.95c.18-.36.37-.76.55-1.21s.37-1,.57-1.48l2.1-5.3Z"></path></g></svg> 