<?xml version="1.0" encoding="UTF-8"?> <!-- Generator: Adobe Illustrator 23.1.1, SVG Export Plug-In . SVG Version: 6.00 Build 0) --> <svg xmlns="http://www.w3.org/2000/svg" xmlns:xlink="http://www.w3.org/1999/xlink" id="Layer_1" x="0px" y="0px" viewBox="0 0 393 394" style="enable-background:new 0 0 393 394;" xml:space="preserve"> <style type="text/css"> .st0{opacity:0.4;fill:#00A7E1;enable-background:new ;} .st1{opacity:0.9;} .st2{fill:#606060;} .st3{fill:#B7B7B7;} .st4{fill:#939393;} .st5{fill:#FFFFFF;} .st6{fill:#003058;} .st7{fill:#BEBEBE;} .st8{fill:#E9E9E9;} .st9{opacity:0.8;} .st10{opacity:0.6;fill:#FFFFFF;enable-background:new ;} .st11{opacity:0.6;fill:#E9E9E9;enable-background:new ;} .st12{fill:#00A7E1;} .st13{opacity:0.6;} .st14{fill:#ACABAB;} .st15{fill:#E3E3E3;} .st16{fill:#F7F6F0;} .st17{fill:#92B7C2;} .st18{fill:#3A3768;} .st19{opacity:0.9;fill:#FFFFFF;enable-background:new ;} .st20{fill:#E6E8EC;} .st21{fill:#A8C628;} </style> <title>digital-river-content-graphics-v1_isolated</title> <g> <path class="st0" d="M196.5,389.6h-0.1c-1.4,0-2.7,0-4.1,0l0,0v-0.8c1.4,0,2.7,0,4.1,0L196.5,389.6L196.5,389.6L196.5,389.6z M200.7,389.5L200.7,389.5v-0.8c1.4,0,2.8-0.1,4.2-0.1v0.4v-0.4l0.1,0.8l0,0C203.5,389.5,202.1,389.5,200.7,389.5L200.7,389.5 L200.7,389.5z M188.1,389.4L188.1,389.4c-1.4-0.1-2.8-0.1-4.2-0.2l0,0l0.1-0.8c1.4,0.1,2.8,0.2,4.2,0.2v0.4v-0.4L188.1,389.4z M204.9,389.4V389V389.4z M209.1,389.2l-0.1-0.8c1.4-0.1,2.8-0.2,4.2-0.3v0.4V388l0.1,0.8l0,0C211.9,389,210.4,389.1,209.1,389.2 L209.1,389.2z M179.8,388.9L179.8,388.9z M179.8,388.9c-1.4-0.1-2.8-0.3-4.2-0.4l0.1-0.8c1.4,0.1,2.8,0.3,4.2,0.4v0.4V388 L179.8,388.9l0.1-0.3L179.8,388.9z M217.4,388.5v-0.8c1.4-0.1,2.8-0.3,4.1-0.5l0.1,0.4l-0.1-0.4l0.1,0.8l0,0 c-1.4,0.2-2.8,0.4-4.2,0.5L217.4,388.5L217.4,388.5z M171.4,388c-1.4-0.2-2.8-0.4-4.2-0.6v-0.2v0.2l0.1-0.8l-0.1,0.7l0.1-0.7 c1.4,0.2,2.8,0.4,4.1,0.6l0,0L171.4,388l0-0.2l0,0L171.4,388z M225.7,387.4l-0.1-0.8c1.4-0.2,2.8-0.4,4.1-0.7l0.2,0.8l-0.1-0.3v0.3 l-0.1-0.4l0.1,0.4C228.5,386.9,227.1,387.1,225.7,387.4L225.7,387.4z M163.1,386.7v-0.2V386.7l0.1-0.4L163.1,386.7 c-1.4-0.2-2.8-0.5-4.1-0.8l0,0l0.2-0.8c1.4,0.3,2.7,0.5,4.1,0.8L163.1,386.7z M234,385.9l-0.2-0.8l0.1,0.4l-0.1-0.4 c1.4-0.3,2.7-0.5,4.1-0.9l0,0l0.2,0.8l-0.1-0.3l0.1,0.3C236.7,385.4,235.4,385.7,234,385.9L234,385.9l0-0.3L234,385.9z M238,384.6 v0.2V384.6z M154.9,385.1L154.9,385.1c-1.4-0.3-2.7-0.6-4.1-1l0.2-0.8c1.4,0.3,2.7,0.6,4.1,0.9l-0.1,0.5l0.1-0.5L154.9,385.1z M242.1,384.1l-0.1-0.8c1.4-0.3,2.7-0.7,4-1l0.1,0.4l-0.1-0.4l0.2,0.8l0,0C244.9,383.4,243.5,383.8,242.1,384.1L242.1,384.1 L242.1,384.1z M146.7,383.1l0.1-0.4L146.7,383.1z M146.7,383.1c-1.4-0.4-2.7-0.7-4-1.1l0.1-0.3l-0.1,0.3l0.2-0.8l-0.1,0.4l0.1-0.4 c1.3,0.4,2.7,0.8,4,1.1l-0.1,0.4l0.1-0.4L146.7,383.1l0.1-0.2L146.7,383.1z M250.3,381.9l-0.2-0.8l0,0c1.3-0.4,2.7-0.8,4-1.2 l0.1,0.4l-0.1-0.4l0.2,0.8l0,0C253,381.1,251.7,381.5,250.3,381.9L250.3,381.9L250.3,381.9z M138.7,380.8l0.1-0.3L138.7,380.8 l0.1-0.4L138.7,380.8c-1.4-0.4-2.7-0.9-4-1.3l0,0l0.3-0.8l0,0c1.3,0.4,2.6,0.9,4,1.3L138.7,380.8z M258.3,379.4l-0.3-0.8 L258.3,379.4z M258.3,379.4l-0.3-0.8c1.3-0.5,2.6-0.9,3.9-1.4l0.3,0.8l0,0C260.9,378.5,259.6,379,258.3,379.4L258.3,379.4z M130.7,378.1L130.7,378.1c-1.3-0.5-2.6-1-3.9-1.5l0,0l0.3-0.8l-0.1,0.3l0.1-0.3c1.3,0.5,2.6,1,3.9,1.5l-0.1,0.4l0.1-0.4 L130.7,378.1z M266.2,376.5l-0.3-0.8L266.2,376.5z M266.2,376.5l-0.3-0.8c1.3-0.5,2.6-1,3.9-1.6l0.2,0.4l-0.1-0.4l0.3,0.8l0,0l0,0 C268.8,375.5,267.5,376,266.2,376.5L266.2,376.5z M122.9,375l0.1-0.4L122.9,375z M122.9,375c-1.3-0.5-2.6-1.1-3.9-1.7l0.2-0.4l0,0 l0.2-0.4c1.3,0.6,2.6,1.1,3.8,1.6l-0.2,0.4l0.1-0.4L122.9,375l0.1-0.3L122.9,375z M273.9,373.3l-0.3-0.8c1.3-0.6,2.5-1.1,3.8-1.7 l0.4,0.8l0,0l-0.2-0.4l0.2,0.4C276.5,372.2,275.2,372.8,273.9,373.3L273.9,373.3L273.9,373.3z M115.1,371.6 c-1.3-0.6-2.5-1.2-3.8-1.8l0.4-0.8c1.2,0.6,2.5,1.2,3.8,1.8l-0.2,0.4l0.2-0.4L115.1,371.6z M111.3,369.8L111.3,369.8l0.4-0.8 L111.3,369.8z M281.5,369.8l-0.4-0.8l0.3,0.6l-0.3-0.6c1.2-0.6,2.5-1.2,3.7-1.9l0.2,0.4l-0.2-0.4l0.4,0.8l0,0 C284,368.5,282.7,369.2,281.5,369.8L281.5,369.8z M107.6,367.9L107.6,367.9l0.2-0.4L107.6,367.9c-1.2-0.6-2.5-1.3-3.7-2l0,0 l0.4-0.7c1.2,0.7,2.5,1.3,3.7,2L107.6,367.9z M288.9,365.9l-0.2-0.4l0,0l-0.2-0.4c1.2-0.7,2.4-1.4,3.6-2l0.2,0.4l-0.2-0.4l0.4,0.7 l-0.1-0.2l0.1,0.2C291.3,364.6,290.1,365.2,288.9,365.9L288.9,365.9z M100.2,363.8L100.2,363.8L100.2,363.8 c-1.2-0.7-2.4-1.4-3.6-2.1l0.2-0.4l0,0l0.2-0.4c1.2,0.7,2.4,1.4,3.6,2.1l-0.2,0.4l0.2-0.3L100.2,363.8z M292.6,363.8l-0.2-0.4 L292.6,363.8z M296.1,361.7l-0.4-0.7c1.2-0.7,2.4-1.5,3.5-2.2l0.2,0.4l-0.2-0.4l0.4,0.7l0,0C298.5,360.2,297.4,361,296.1,361.7 L296.1,361.7L296.1,361.7z M93.1,359.5l0.2-0.4L93.1,359.5z M93.1,359.5c-1.2-0.8-2.3-1.5-3.5-2.3l0,0l0,0l0.5-0.7 c1.2,0.8,2.3,1.5,3.5,2.3l-0.2,0.4l0.2-0.4L93.1,359.5z M303.3,357.2l-0.5-0.7l0.2,0.3l-0.2-0.3c1.1-0.8,2.3-1.6,3.4-2.4l0.2,0.3 l-0.3-0.3l0.5,0.6l0,0C305.6,355.7,304.4,356.5,303.3,357.2l-0.2-0.3L303.3,357.2L303.3,357.2l-0.1-0.2L303.3,357.2z M86.1,354.8 L86.1,354.8c-1.1-0.8-2.3-1.6-3.4-2.4l0,0h-0.1L83,352l0.2-0.3c1.1,0.8,2.3,1.6,3.4,2.4l-0.2,0.4l0.3-0.3L86.1,354.8z M306.7,354.8 l-0.3-0.3L306.7,354.8z M310.1,352.4l-0.2-0.3l0,0l-0.2-0.4c1.1-0.8,2.2-1.6,3.3-2.5l0.2,0.3l-0.3-0.3l0.5,0.6l-0.2-0.2l0.2,0.2 C312.3,350.8,311.2,351.6,310.1,352.4z M313.5,349.9l-0.3-0.3L313.5,349.9z M79.3,349.9L79.3,349.9L79.3,349.9 c-1.1-0.9-2.2-1.7-3.3-2.6l0,0l-0.1-0.1l0.4-0.3l0,0l0,0l0.3-0.2l-0.3,0.2l0.2-0.3c1.1,0.9,2.2,1.7,3.3,2.6l-0.3,0.3l0.3-0.3 L79.3,349.9z M316.7,347.3l-0.2-0.3l-0.4-0.3l0.1-0.1l0,0c1.1-0.9,2.2-1.8,3.2-2.6l0,0l0,0l0.2,0.4l0.3,0.3l-0.3-0.2l0.2,0.3 C318.8,345.6,317.8,346.5,316.7,347.3l-0.3-0.3L316.7,347.3z M319.7,344.3L319.7,344.3L319.7,344.3z M76.2,346.9l0.2-0.3 L76.2,346.9z M72.8,344.6L72.8,344.6L72.8,344.6c-1.1-0.9-2.1-1.8-3.2-2.7l0,0l-0.1,0l0.3-0.3l0.2-0.3l-0.2,0.3l0,0l0.2-0.3 l3.2,2.7l-0.2,0.3l0.3-0.2l-0.3,0.2L72.8,344.6z M69.9,341.5L69.9,341.5L69.9,341.5z M323.1,341.9l-0.2-0.3l-0.4-0.3l0.1-0.1l0,0 c1-0.9,2.1-1.8,3.1-2.8l0,0l0.6,0.6l-0.1-0.2l0.1,0.2C325.2,340.1,324.2,341,323.1,341.9l-0.2-0.3L323.1,341.9z M322.9,341.6 L322.9,341.6z M66.5,339L66.5,339c-1-0.9-2-1.9-3-2.9l0.3-0.3l-0.3,0.2l0.3-0.2l0.2-0.4l0.1,0l0,0c1,1,2,1.9,3.1,2.9l-0.3,0.3 l0.3-0.3L66.5,339z M329.3,336.3l-0.3-0.4l0,0l0,0l-0.2-0.3l0.2,0.3l-0.2-0.3c1-1,2-1.9,3-2.9l0.3,0.3l0,0l0,0l0.4,0.3l0,0l0,0 c-1,1-2,2-3,2.9l0,0L329.3,336.3z M329,336l-0.3-0.3L329,336z M60.5,333.3l0.2-0.3L60.5,333.3c-1-1-2-2-3-3.1l0.3-0.3l0,0l0.3-0.3 c1,1,1.9,2,2.9,3l0,0l0,0l-0.3,0.3L60.5,333.3z M60.7,332.9L60.7,332.9L60.7,332.9z M335.2,330.4l-0.6-0.6c1-1,1.9-2,2.9-3l0.3,0.3 l-0.3-0.3l0.6,0.6l0,0l0,0C337.2,328.2,336.2,329.3,335.2,330.4L335.2,330.4L335.2,330.4z M54.6,327.2l0.3-0.3L54.6,327.2z M54.6,327.2c-1-1-1.9-2.1-2.8-3.1l0.3-0.3l0,0l0.3-0.3c0.9,1,1.8,2.1,2.8,3.1l-0.3,0.3l0.3-0.3L54.6,327.2l0.2-0.2L54.6,327.2z M340.9,324.2l-0.3-0.4l-0.3-0.2c0.9-1,1.8-2.1,2.7-3.2l0.3,0.3l-0.3-0.3l0.6,0.5l0,0C342.8,322,341.9,323.1,340.9,324.2 L340.9,324.2L340.9,324.2z M49.1,320.9l0.3-0.3L49.1,320.9z M49.1,320.9c-0.9-1.1-1.8-2.1-2.7-3.2l0,0l0,0l0.7-0.5 c0.9,1.1,1.8,2.2,2.7,3.2l-0.3,0.3l0.3-0.3L49.1,320.9z M346.4,317.8l-0.7-0.5l0.4,0.2l-0.3-0.3c0.9-1.1,1.7-2.2,2.6-3.3l0.7,0.5 l-0.2-0.2l0.2,0.2l-0.3-0.3l0.3,0.3C348.1,315.5,347.2,316.6,346.4,317.8L346.4,317.8z M43.8,314.4L43.8,314.4 c-0.8-1.1-1.7-2.2-2.5-3.4l0,0l0,0l0.7-0.5c0.8,1.1,1.7,2.2,2.5,3.3l-0.3,0.3l0.4-0.2L43.8,314.4z M351.4,311.1l-0.7-0.5l0.4,0.3 l-0.4-0.3c0.8-1.1,1.6-2.3,2.4-3.4l0.4,0.2l-0.3-0.3l0.7,0.5l0,0C353.1,308.8,352.3,309.9,351.4,311.1l-0.2-0.2L351.4,311.1z M38.9,307.6l0.2-0.2L38.9,307.6c-0.8-1.2-1.6-2.3-2.4-3.5l0.2-0.2l-0.3,0.2l0.7-0.5l-0.3,0.3l0.4-0.2c0.8,1.2,1.6,2.3,2.4,3.4 L38.9,307.6z M39.2,307.3l-0.3,0.2L39.2,307.3z M356.2,304.2l-0.7-0.5c0.8-1.2,1.5-2.3,2.3-3.5l0.4,0.2l-0.3-0.3l0.7,0.5l0,0 C357.8,301.9,357.1,303,356.2,304.2L356.2,304.2L356.2,304.2z M34.2,300.6L34.2,300.6L34.2,300.6c-0.8-1.2-1.5-2.4-2.2-3.5l0,0V297 l0.5-0.2l0.3-0.2c0.7,1.2,1.5,2.4,2.2,3.5l-0.4,0.2l0.4-0.2L34.2,300.6z M360.8,297.1l-0.7-0.4c0.7-1.2,1.4-2.4,2.1-3.6l0,0l0,0 l0.4,0.2l0.4,0.1l-0.4-0.1l0.3,0.2l0,0C362.2,294.7,361.5,295.9,360.8,297.1L360.8,297.1z M362.6,293.3l0.1,0.1L362.6,293.3z M29.8,293.5L29.8,293.5L29.8,293.5c-0.7-1.2-1.4-2.4-2.1-3.6l0,0v-0.1l0.4-0.1l0.4-0.2l-0.3,0.2l0,0l0.3-0.2 c0.7,1.2,1.4,2.4,2,3.6l-0.4,0.2l0,0L29.8,293.5z M28.2,289.6L28.2,289.6L28.2,289.6L28.2,289.6z M365,289.9l-0.3-0.2l-0.4-0.1 v-0.1l0,0c0.7-1.2,1.3-2.5,2-3.7l0,0v0l0.4,0.2l0.4,0.1l-0.4-0.1l0.3,0.2C366.3,287.4,365.6,288.6,365,289.9l-0.4-0.2L365,289.9z M366.6,285.9L366.6,285.9L366.6,285.9z M25.8,286.2L25.8,286.2L25.8,286.2c-0.6-1.2-1.3-2.5-1.9-3.7l0,0v-0.1l0.4-0.1l0.4-0.2 l-0.3,0.2l0.3-0.2c0.6,1.2,1.2,2.5,1.9,3.7l-0.4,0.2l0,0L25.8,286.2z M24.3,282.2L24.3,282.2L24.3,282.2L24.3,282.2z M368.9,282.4 l-0.3-0.2l-0.4-0.1V282l0,0c0.6-1.3,1.2-2.5,1.8-3.8l0.4,0.2l-0.4-0.2l0.8,0.3v0.1l0,0C370.2,279.8,369.6,281.1,368.9,282.4 l-0.3-0.2L368.9,282.4z M22.1,278.7l0.3-0.2L22.1,278.7c-0.6-1.3-1.2-2.6-1.8-3.9l0.8-0.3c0.6,1.3,1.1,2.5,1.7,3.8l0,0v0.1 l-0.4,0.1L22.1,278.7z M22.5,278.5L22.5,278.5L22.5,278.5z M372.5,274.8l-0.7-0.4c0.6-1.3,1.1-2.6,1.6-3.9l0.4,0.2l-0.4-0.2 l0.8,0.3l0,0l0,0C373.6,272.2,373.1,273.5,372.5,274.8L372.5,274.8L372.5,274.8z M18.7,271l0.4-0.2L18.7,271z M18.7,271 c-0.5-1.3-1-2.6-1.6-3.9l0.4-0.1l0,0l0.4-0.1c0.5,1.3,1,2.6,1.6,3.9l-0.4,0.2l0.4-0.2L18.7,271l0.3-0.1L18.7,271z M375.7,267 l-0.4-0.2l-0.3-0.1c0.5-1.3,1-2.6,1.5-3.9l0.4,0.1l-0.4-0.2l0.8,0.3l0,0c-0.5,1.3-1,2.6-1.5,3.9l0,0L375.7,267z M15.7,263.2 l0.4-0.2L15.7,263.2z M15.7,263.2c-0.5-1.3-0.9-2.6-1.4-4l0.2,0l-0.2,0l0,0l0.8-0.2c0.4,1.3,0.9,2.6,1.4,3.9l-0.4,0.1l0.4-0.2 L15.7,263.2L15.7,263.2L15.7,263.2z M378.6,259l-0.8-0.2l0.4,0.1l-0.4-0.1c0.5-1.3,0.9-2.6,1.3-4l0.4,0.1l-0.4-0.1l0.8,0.2l0,0 C379.5,256.3,379.1,257.7,378.6,259l-0.4-0.2L378.6,259L378.6,259z M13,255.2L13,255.2c-0.4-1.3-0.8-2.7-1.2-4l0.4-0.1l-0.4,0.1 l0.4-0.1l-0.4,0.1l0.8-0.3l-0.4,0.1l0.4-0.1c0.4,1.3,0.8,2.7,1.2,4L13,255.2z M13.1,255.2L13.1,255.2l0.3-0.1L13.1,255.2z M381.1,251.1l-0.8-0.3c0.4-1.3,0.8-2.7,1.1-4l0.4,0.1l-0.4-0.1l0.8,0.2l0,0C381.9,248.4,381.5,249.8,381.1,251.1L381.1,251.1 L381.1,251.1z M10.6,247.2l0.4-0.1L10.6,247.2l0.3-0.1L10.6,247.2c-0.4-1.4-0.7-2.7-1-4.1l0,0V243H10l0.4-0.1L10,243l0,0l0.4-0.1 c0.3,1.4,0.7,2.7,1,4L10.6,247.2z M10,243L10,243z M383.2,243l-0.4-0.1h-0.5v-0.1l0,0c0.3-1.4,0.6-2.7,0.9-4.1l0,0l0,0l0.4,0.1l0,0 l0.4,0.1C383.8,240.3,383.5,241.6,383.2,243l-0.4-0.1L383.2,243z M383.8,238.8h0.1H383.8z M8.6,239.1L8.6,239.1L8.6,239.1 c-0.3-1.4-0.6-2.7-0.9-4.1l0,0v-0.1h0.4l0.4-0.1l-0.4,0.1l0,0l0.4-0.1c0.3,1.4,0.6,2.7,0.9,4.1L9.1,239l0,0L8.6,239.1z M9,239 L9,239z M8.2,234.9L8.2,234.9z M385,234.9l-0.4-0.1h-0.5v-0.1l0,0c0.3-1.4,0.5-2.7,0.8-4.1l0,0v-0.1l0.4,0.1l0,0l0.4,0.1 C385.5,232.1,385.3,233.5,385,234.9l-0.4-0.1L385,234.9z M385.4,230.7L385.4,230.7L385.4,230.7z M7,230.9L7,230.9L7,230.9 c-0.2-1.4-0.5-2.8-0.7-4.2l0,0v-0.1h0.4l0.4-0.1l-0.4,0.1l0,0l0.3-0.1c0.2,1.4,0.4,2.8,0.7,4.1l-0.4,0.1l0,0L7,230.9z M6.8,226.6 L6.8,226.6z M386.5,226.6l-0.4-0.1h-0.5v-0.1l0,0c0.2-1.4,0.4-2.8,0.6-4.1h0.4h0.4v0.1l0,0C386.9,223.8,386.7,225.1,386.5,226.6 l-0.4-0.1L386.5,226.6z M386.1,226.5L386.1,226.5z M5.7,222.6l0.4-0.1L5.7,222.6c-0.2-1.5-0.4-2.9-0.5-4.2h0.4l0,0l0.4-0.1v0.1l0,0 c0.2,1.4,0.3,2.8,0.5,4.1l0,0v0.1H6.1L5.7,222.6z M6.1,222.5L6.1,222.5z M387.6,218.3l-0.4-0.1l0,0h-0.4c0.1-1.4,0.3-2.8,0.4-4.1 h0.4h0.3l0,0l0,0c-0.1,1.4-0.3,2.8-0.4,4.2l0,0L387.6,218.3z M387.2,218.2L387.2,218.2z M4.8,214.3l0.4-0.1H4.8 c-0.1-1.4-0.2-2.8-0.3-4.2h0.4l0,0l0.4-0.1v0.1l0,0l0,0l0,0c0.1,1.4,0.2,2.8,0.3,4.1l0,0v0.1H5.2L4.8,214.3z M5.2,214.1L5.2,214.1z M388.3,210l-0.4-0.1l0,0h-0.4c0.1-1.4,0.2-2.8,0.2-4.2h0.4h0.4c-0.1,1.4-0.1,2.8-0.2,4.2l0,0L388.3,210z M387.9,209.9L387.9,209.9 z M4.2,205.9L4.2,205.9c-0.1-1.4-0.1-2.8-0.1-4.2h0.8H5c0,1.4,0.1,2.8,0.1,4.2H4.7L4.2,205.9L4.2,205.9z M388.7,201.5h-0.3h-0.6 c0-1.4,0-2.8,0-4.2V197h0.8v0.4C388.7,198.7,388.7,200.1,388.7,201.5L388.7,201.5z M4.1,197.5v-0.2c0-1.3,0-2.7,0-4H5 c0,1.3,0,2.7,0,4v0.2L4.1,197.5z M388.7,197L388.7,197z M387.8,192.8L387.8,192.8c0-1.4-0.1-2.8-0.1-4.2h0.4h-0.4h0.8l0,0 c0.1,1.4,0.1,2.8,0.1,4.2L387.8,192.8L387.8,192.8L387.8,192.8z M5.1,189.1H4.7H4.2c0.1-1.4,0.1-2.8,0.2-4.2l0,0v-0.1l0.4,0.1l0,0 l0.4,0.1l-0.4-0.1h0.4C5.2,186.3,5.1,187.7,5.1,189.1z M4.9,184.9L4.9,184.9z M387.5,184.5v-0.1l0,0l0,0l0,0 c-0.1-1.4-0.2-2.8-0.3-4.1l0,0l0,0h0.4l0.4-0.1l-0.4,0.1h0.4c0.1,1.4,0.2,2.8,0.3,4.2h-0.4l0,0L387.5,184.5z M387.6,180.2 L387.6,180.2z M5.6,180.7H5.2H4.8l0,0l0,0c0.1-1.4,0.3-2.8,0.4-4.2l0,0v-0.1l0.4,0.1l0,0l0.3,0.1l-0.3-0.1H6 C5.9,178,5.7,179.4,5.6,180.7L5.6,180.7z M5.6,176.5L5.6,176.5z M386.7,176.2L386.7,176.2L386.7,176.2c-0.1-1.5-0.3-2.9-0.5-4.2 l0,0v-0.1h0.4l0.4-0.1l-0.4,0.1h0.4c0.2,1.4,0.4,2.8,0.5,4.2h-0.4l0,0L386.7,176.2z M386.6,171.9L386.6,171.9z M6.5,172.5l-0.4-0.1 H5.7v-0.1l0,0c0.2-1.4,0.4-2.8,0.6-4.1l0.4,0.1l-0.4-0.1l0.4,0.1h0.5v0.1l0,0C6.9,169.7,6.7,171.1,6.5,172.5l-0.3-0.1L6.5,172.5z M6.6,168.2L6.6,168.2z M385.6,167.8l0.4-0.1L385.6,167.8z M385.6,167.8c-0.2-1.4-0.4-2.8-0.7-4.1l0.4-0.1l0,0l0.4-0.1l0,0l0,0 c0.2,1.4,0.5,2.8,0.7,4.1l0,0v0.1H386L385.6,167.8z M7.7,164.2l-0.4-0.1l0,0L6.9,164c0.2-1.4,0.5-2.8,0.8-4.1l0.4,0.1l-0.4-0.1 l0.4,0.1h0.4v0.1l0,0C8.3,161.4,8,162.8,7.7,164.2L7.7,164.2L7.7,164.2z M7.3,164.1L7.3,164.1z M384.2,159.6l0.4-0.1L384.2,159.6z M384.2,159.6c-0.3-1.4-0.6-2.7-0.9-4.1l0.4-0.1l0,0l0.4-0.1l0,0l0,0c0.3,1.4,0.6,2.7,0.9,4.1l0,0v0.1h-0.5L384.2,159.6z M9.4,156 L9,155.9l0,0l-0.4-0.1c0.3-1.4,0.6-2.7,1-4.1l0.4,0.1l-0.4-0.1l0.4,0.1h0.4v0.1l0,0c-0.3,1.4-0.6,2.7-0.9,4.1l0,0L9.4,156z M8.9,155.9L8.9,155.9L8.9,155.9L8.9,155.9z M382.4,151.4l0.4-0.1L382.4,151.4z M382.4,151.4c-0.3-1.4-0.7-2.7-1-4.1l0.8-0.2 l-0.4,0.1l0.4-0.1l-0.3,0.1l0.3-0.1c0.4,1.4,0.7,2.7,1,4.1l0,0v0.1h-0.5l0,0l0,0l0,0L382.4,151.4z M11.4,147.9l-0.8-0.2l0,0 c0.4-1.4,0.7-2.7,1.1-4l0,0l0,0l0.8,0.3C12.1,145.2,11.7,146.6,11.4,147.9l-0.4-0.1L11.4,147.9z M380.2,143.4l0.4-0.1L380.2,143.4 c-0.4-1.4-0.8-2.7-1.2-4l0.4-0.1l-0.4,0.1l0.8-0.3l0,0c0.4,1.3,0.8,2.7,1.2,4l-0.4,0.1l0.4-0.1l-0.4,0.1l0.4-0.1L380.2,143.4z M13.7,139.8l-0.8-0.2l0,0c0.4-1.3,0.9-2.7,1.3-4l0.4,0.1l-0.4-0.1l0,0l0.8,0.2l-0.4-0.1l0.4,0.1C14.5,137.2,14.1,138.5,13.7,139.8 l-0.4-0.1L13.7,139.8z M377.7,135.4L377.7,135.4L377.7,135.4c-0.5-1.3-0.9-2.6-1.4-3.9l0.4-0.1l-0.4,0.2l0.8-0.4 c0.5,1.3,0.9,2.6,1.4,4h-0.1h0.1l0,0L377.7,135.4z M16.4,131.9l-0.8-0.3l0.3,0.1l-0.3-0.1c0.5-1.3,1-2.6,1.5-3.9l0,0v-0.1l0.4,0.2 l0.3,0.1C17.3,129.3,16.8,130.6,16.4,131.9z M376.7,131.3l0.4-0.2L376.7,131.3z M377,131.2L377,131.2L377,131.2L377,131.2z M374.8,127.5c-0.5-1.3-1-2.6-1.6-3.9l0.4-0.2l-0.4,0.2l0.8-0.3l-0.3,0.1l0.3-0.1c0.5,1.3,1,2.6,1.6,3.9L374.8,127.5z M19.4,124.1 l-0.8-0.3l0,0l0,0c0.5-1.3,1.1-2.6,1.6-3.9l0,0l0,0l0.8,0.4C20.4,121.6,19.9,122.9,19.4,124.1L19,124L19.4,124.1z M373.6,123.5 l0.4-0.2L373.6,123.5z M371.6,119.8c-0.6-1.3-1.1-2.5-1.7-3.8l0,0l0,0l0.4-0.1l0.4-0.2l-0.3,0.2l0.4-0.2c0.6,1.3,1.2,2.5,1.7,3.8 l-0.4,0.2l0,0L371.6,119.8z M370.3,115.8L370.3,115.8L370.3,115.8L370.3,115.8z M22.8,116.4l-0.8-0.3l0,0l0,0 c0.6-1.3,1.2-2.5,1.8-3.8l0.4,0.2l-0.3-0.2l0.3,0.2l0.4,0.2v0.1l0,0C24,113.9,23.4,115.2,22.8,116.4l-0.4-0.2L22.8,116.4z M24.2,112.4L24.2,112.4z M368.1,112.3l0.3-0.2l0,0L368.1,112.3c-0.6-1.3-1.2-2.5-1.9-3.8l0.4-0.2l0,0l0.4-0.3l0,0l0,0 c0.6,1.2,1.3,2.5,1.9,3.7l0,0v0.1l-0.4,0.1L368.1,112.3z M368.5,112.1L368.5,112.1L368.5,112.1z M26.4,109l-0.4-0.2l-0.4-0.1 l0.4,0.1l-0.3-0.2c0.6-1.2,1.3-2.5,2-3.7L28,105l-0.3-0.2L28,105l0.4,0.2v0.1l0,0C27.8,106.4,27.1,107.7,26.4,109L26.4,109 L26.4,109z M26.1,108.7L26.1,108.7L26.1,108.7L26.1,108.7z M364.2,105l0.4-0.2L364.2,105z M364.2,105c-0.7-1.2-1.4-2.4-2-3.6 l0.4-0.2l0,0l0.4-0.2l0,0l0,0c0.7,1.2,1.4,2.4,2.1,3.6l0,0v0.1l-0.4,0.2l0,0h0L364.2,105l0.3-0.2L364.2,105z M30.5,101.6l-0.4-0.2 l-0.4-0.1l0.4,0.1l-0.3-0.2c0.7-1.2,1.4-2.4,2.1-3.6l0.4,0.2l0,0l0.4,0.2C31.9,99.2,31.2,100.4,30.5,101.6L30.5,101.6L30.5,101.6z M30.1,101.3L30.1,101.3l-0.1-0.1L30.1,101.3z M360,97.7c-0.7-1.2-1.5-2.4-2.2-3.5l0.4-0.2l-0.4,0.2l0.7-0.4l0,0 c0.8,1.2,1.5,2.3,2.2,3.5l0,0v0.1l-0.4,0.2L360,97.7z M34.8,94.4l-0.3-0.2L34.8,94.4L34.1,94c0.8-1.2,1.5-2.4,2.3-3.5l0,0l0,0 l0.7,0.5C36.3,92.1,35.6,93.2,34.8,94.4z M34.5,94.2L34.1,94L34.5,94.2z M355.5,90.7l0.3-0.3L355.5,90.7c-0.8-1.2-1.6-2.3-2.4-3.5 l0.7-0.5l-0.2,0.2l0.2-0.2l0,0c0.8,1.1,1.6,2.3,2.4,3.4l-0.2,0.1l0.2-0.1L355.5,90.7z M353.5,86.9L353.5,86.9l0.2-0.1L353.5,86.9z M39.4,87.5L38.8,87l0,0c0.8-1.1,1.6-2.3,2.5-3.4l0.2,0.2l-0.2-0.2l0.7,0.5l-0.4-0.3l0.4,0.3C41.1,85.2,40.3,86.3,39.4,87.5 l-0.3-0.2L39.4,87.5z M350.7,83.9L350.7,83.9c-0.8-1.1-1.7-2.2-2.5-3.3l0.3-0.3l-0.4,0.2l0.7-0.5l0,0l0,0c0.9,1.1,1.7,2.2,2.5,3.3 l0,0l0,0L350.7,83.9z M44.4,80.7l-0.7-0.5l0.3,0.2l-0.2-0.2l0.3,0.2l-0.3-0.3c0.8-1.1,1.7-2.2,2.6-3.3l0.7,0.5l-0.4-0.2l0.3,0.3 C46.1,78.5,45.3,79.6,44.4,80.7z M345.6,77.2c-0.9-1.1-1.8-2.2-2.6-3.2l0.3-0.3L343,74l0.6-0.6l0,0c0.9,1.1,1.8,2.1,2.7,3.2l0,0 l0,0L345.6,77.2z M49.6,74.2L49,73.7l0,0c0.9-1.1,1.8-2.1,2.7-3.2l0,0l0,0l0.3,0.4l0.3,0.2C51.4,72.1,50.5,73.2,49.6,74.2L49.3,74 L49.6,74.2z M343.3,73.8l0.3-0.3L343.3,73.8z M340.3,70.9c-0.9-1-1.9-2.1-2.8-3.1l0.3-0.3l-0.3,0.3l0.6-0.6l-0.2,0.2l0.2-0.2 c1,1,1.9,2.1,2.8,3.1L340.3,70.9z M55.1,68l-0.6-0.6l0,0l0,0c0.9-1,1.9-2,2.9-3.1l0,0l0,0L58,65C57,66,56.1,67,55.1,68l-0.3-0.2 L55.1,68z M337.8,67.5l0.3-0.3L337.8,67.5z M334.6,64.7c-1-1-1.9-2-2.9-3l0,0l0,0l0.3-0.3l0.2-0.3l-0.2,0.3l0.3-0.3c1,1,2,2,2.9,3 L334.6,64.7z M332,61.4L332,61.4L332,61.4L332,61.4z M60.9,61.9l-0.2-0.3l-0.4-0.3l0,0l0,0c1-1,2-2,3-2.9l0,0l0.1-0.1l0.2,0.4l0,0 l0,0l0.2,0.3l-0.2-0.3l0.3,0.3C62.9,60,61.9,60.9,60.9,61.9l-0.3-0.3L60.9,61.9z M60.7,61.6L60.7,61.6z M64,58.9l-0.3-0.3L64,58.9z M328.8,58.9L328.8,58.9L328.8,58.9c-1.1-1-2.1-1.9-3.1-2.8l0.3-0.3l-0.3,0.3l0.6-0.6l0,0c1,0.9,2,1.9,3.1,2.9l-0.3,0.3l0.3-0.2 l-0.3,0.2L328.8,58.9z M67,56.1l-0.6-0.6l0.1,0.2l-0.1-0.2c1-0.9,2.1-1.9,3.1-2.8l0.3,0.3l-0.2-0.3l0.2,0.3l0.3,0.3l-0.1,0.1l0,0 C69,54.2,68,55.2,67,56.1z M322.6,53.2l0.2-0.3L322.6,53.2z M322.6,53.2c-1-0.9-2.1-1.8-3.2-2.7l0.3-0.3l0,0l0.2-0.4h0l0,0 c1.1,0.9,2.1,1.8,3.2,2.7l0,0l0.1,0.1l-0.4,0.3l0,0l0,0l-0.3,0.2l0.3-0.2L322.6,53.2z M73.2,50.6L73,50.3L72.7,50l0.3,0.2l-0.2-0.3 c1.1-0.9,2.2-1.8,3.2-2.7l0.2,0.3L76,47.3l0.2,0.3l0.3,0.3l-0.1,0.1l0,0C75.4,48.8,74.3,49.7,73.2,50.6L73.2,50.6L73.2,50.6z M73,50.3L73,50.3L73,50.3L73,50.3z M76.3,47.6L76.3,47.6z M316.3,47.8l0.2-0.3L316.3,47.8z M316.3,47.8c-1.1-0.9-2.2-1.7-3.3-2.6 l0.3-0.3l-0.3,0.3l0.5-0.7l0,0l0,0c1.1,0.9,2.2,1.7,3.3,2.6l0,0l0.1,0.1l-0.4,0.3l0,0l0,0L316.3,47.8l0.2-0.3L316.3,47.8z M79.8,45.4L79.5,45L79.8,45.4l-0.5-0.7l0.2,0.2l-0.2-0.2c1.1-0.8,2.2-1.7,3.3-2.5l0.2,0.3l0,0l0.2,0.3 C82,43.7,80.8,44.5,79.8,45.4z M79.5,45l-0.3-0.3L79.5,45z M309.5,42.7c-1.1-0.8-2.2-1.6-3.4-2.4l0.2-0.3l-0.3,0.3l0.5-0.7l0,0 c1.1,0.8,2.3,1.6,3.4,2.4l0,0h0.1l-0.4,0.3L309.5,42.7z M86.5,40.4l-0.2-0.3L86.5,40.4L86,39.7l0,0l0,0c1.1-0.8,2.3-1.6,3.4-2.4 l0.2,0.3l-0.1-0.1l0,0l-0.2-0.3l0.5,0.7l-0.3-0.3l0.2,0.3C88.8,38.8,87.6,39.6,86.5,40.4L86.5,40.4z M86.2,40.1l-0.3-0.3L86.2,40.1 z M302.7,37.9c-1.1-0.8-2.3-1.5-3.5-2.3l0.2-0.4l-0.2,0.4l0.4-0.7c1.2,0.8,2.4,1.5,3.5,2.3l0,0L302.7,37.9z M93.4,35.8l-0.4-0.7 l0,0c1.2-0.8,2.4-1.5,3.6-2.2l0,0l0,0l0.4,0.7C95.7,34.3,94.5,35.1,93.4,35.8l-0.2-0.3L93.4,35.8z M299.4,35.3l0.2-0.4L299.4,35.3z M295.6,33.4c-1.2-0.7-2.4-1.4-3.6-2.1l0.2-0.4l-0.2,0.4l0.4-0.7l0,0l0,0c1.2,0.7,2.4,1.4,3.6,2.1l-0.2,0.4l0,0L295.6,33.4z M100.5,31.4l-0.2-0.4L100.5,31.4L100.5,31.4z M100.5,31.4l-0.4-0.7l0.1,0.3l-0.1-0.3c1.2-0.7,2.4-1.4,3.6-2L104,29l0,0l0.2,0.4 C102.9,30.1,101.7,30.7,100.5,31.4L100.5,31.4z M100.3,31.1l-0.2-0.4L100.3,31.1z M288.3,29.2c-1.2-0.7-2.4-1.3-3.7-2l0.4-0.8l0,0 l-0.2,0.4l0.2-0.4c1.2,0.6,2.5,1.3,3.7,2l0,0l0,0L288.3,29.2z M107.8,27.4l-0.4-0.7l0,0c1.2-0.6,2.5-1.3,3.7-1.9l0,0l0.4,0.8 l-0.4-0.7l0.3,0.7C110.3,26.2,109,26.8,107.8,27.4l-0.2-0.3L107.8,27.4z M280.9,25.4l0.4-0.8l0,0L280.9,25.4z M280.9,25.4 c-1.3-0.6-2.5-1.2-3.8-1.8l0.2-0.4l-0.2,0.4l0.4-0.8l0,0c1.3,0.6,2.5,1.2,3.8,1.8L280.9,25.4z M115.3,23.7l-0.4-0.8l0,0l0.2,0.4 l-0.2-0.4c1.3-0.6,2.5-1.2,3.8-1.7l0,0l0,0L119,22C117.8,22.6,116.5,23.1,115.3,23.7z M273.3,21.8c-1.3-0.6-2.6-1.1-3.9-1.6 l0.2-0.4l-0.1,0.4l0.3-0.8l-0.1,0.2l0.1-0.3c1.3,0.5,2.6,1.1,3.9,1.6L273.3,21.8z M122.9,20.4l-0.3-0.8l0,0c1.3-0.5,2.6-1,3.9-1.6 l0.2,0.4l0,0l-0.1-0.4l0.3,0.8l-0.1-0.3l0.1,0.3C125.4,19.3,124.2,19.8,122.9,20.4l-0.2-0.4L122.9,20.4z M269.6,19.8l0.1-0.4 L269.6,19.8z M265.6,18.6l0.1-0.3L265.6,18.6c-1.3-0.5-2.6-1-3.9-1.5l0.2-0.5l-0.2,0.5l0.3-0.8l0,0c1.3,0.5,2.6,1,3.9,1.5l0,0 L265.6,18.6z M130.6,17.3l-0.3-0.8v0v0c1.3-0.5,2.6-1,4-1.4l0.3,0.8C133.3,16.4,132,16.9,130.6,17.3L130.6,17.3z M134.6,15.9 l-0.3-0.8L134.6,15.9z M257.7,15.8c-1.3-0.4-2.6-0.9-4-1.3l0.2-0.8l-0.1,0.3l0.1-0.3l-0.1,0.4l0.1-0.4c1.3,0.4,2.7,0.9,4,1.3l0,0 L257.7,15.8z M138.5,14.6l-0.2-0.8l0,0c1.3-0.4,2.7-0.8,4-1.2l0,0l0.2,0.8l0,0C141.2,13.8,139.8,14.2,138.5,14.6l-0.2-0.4 L138.5,14.6z M249.8,13.3l0.1-0.4L249.8,13.3c-1.4-0.4-2.7-0.8-4-1.1l0.1-0.4l-0.1,0.4l0.2-0.8l-0.1,0.2l0.1-0.2 c1.4,0.4,2.7,0.7,4,1.1l-0.1,0.3l0.1-0.3L249.8,13.3z M146.5,12.3l-0.2-0.8l0,0c1.4-0.4,2.7-0.7,4.1-1.1h0.1l0.1,0.8 C149.2,11.6,147.9,11.9,146.5,12.3l0-0.4L146.5,12.3z M245.8,11.7l0.1-0.4L245.8,11.7z M241.6,11.1c-1.4-0.3-2.7-0.6-4.1-0.9 l0.1-0.4l-0.1,0.4l0.2-0.8l0,0c1.4,0.3,2.7,0.6,4.1,0.9l-0.1,0.4l0,0L241.6,11.1z M154.6,10.3l-0.2-0.8l0.1,0.3l-0.1-0.3 c1.4-0.3,2.7-0.6,4.1-0.9l0.1,0.3l-0.1-0.3l0.2,0.8L158.7,9l0.1,0.4C157.4,9.7,156,10,154.6,10.3L154.6,10.3L154.6,10.3z M154.5,9.8L154.5,9.8L154.5,9.8L154.5,9.8z M158.7,9L158.7,9z M233.5,9.3c-1.4-0.3-2.7-0.5-4.1-0.8l0.1-0.8v0.2V7.7l-0.1,0.4 l0.1-0.4c1.4,0.2,2.8,0.5,4.1,0.8l0,0L233.5,9.3z M162.9,8.7l-0.2-0.8l0.1,0.3V7.8l0.1,0.4l-0.1-0.4c1.4-0.2,2.8-0.5,4.1-0.7l0,0 L167,8C165.6,8.2,164.3,8.4,162.9,8.7L162.9,8.7z M225.3,7.9l0.1-0.7L225.3,7.9c-1.4-0.2-2.8-0.4-4.2-0.6l0,0l0.1-0.8v0.2V6.5 c1.4,0.2,2.8,0.4,4.2,0.6v0.2V7.1L225.3,7.9z M171.1,7.4V7.1V7.4L171,6.6l0,0c1.4-0.2,2.8-0.3,4.2-0.5h0.1v0.8 C173.9,7.1,172.5,7.2,171.1,7.4L171.1,7.4z M217,6.8c-1.4-0.2-2.8-0.3-4.2-0.4V6v0.4l0.1-0.8v0.3V5.6c1.4,0.1,2.8,0.2,4.2,0.4v0.4 l0,0L217,6.8z M179.4,6.5l-0.1-0.8l0,0c1.4-0.1,2.8-0.2,4.2-0.3v0.4l0,0v0.4C182.1,6.3,180.7,6.4,179.4,6.5l-0.1-0.4L179.4,6.5z M208.6,6.1c-1.4-0.1-2.8-0.2-4.2-0.2V5.5l-0.1,0.4V5.1l0,0c1.4,0.1,2.8,0.1,4.2,0.2l0,0L208.6,6.1z M212.8,6L212.8,6z M187.8,6 V5.6V6l-0.1-0.8l0,0c1.4-0.2,2.8-0.2,4.2-0.2v0.8C190.6,5.8,189.2,5.9,187.8,6z M192,5.8V5l0,0V5.8z M200.4,5.8L200.4,5.8 c-1.3,0-2.6,0-3.9,0h-0.3V4.9h0.3c1.3,0,2.6,0,3.9,0l0,0L200.4,5.8z M196.2,5.8V4.9l0,0V5.8z M187.8,5.6V5.2V5.6z"></path> <path class="st0" d="M196.4,350.1c-84.3,0-152.8-68.5-152.8-152.8S112.1,44.4,196.4,44.4S349.2,113,349.2,197.2 S280.7,350.1,196.4,350.1z M196.4,45.3c-83.8,0-152,68.2-152,152s68.2,152,152,152s152-68.2,152-152S280.2,45.3,196.4,45.3z"></path> </g> <g> <g class="st1"> <rect x="29.5" y="19" class="st2" width="217.9" height="8"></rect> <path class="st3" d="M84.6,27.1v-3.9c0-1-0.8-1.8-1.8-1.8H37c-1,0-1.8,0.8-1.8,1.8c0,0,0,0,0,0v4h-5.7v10.7h217.9V27.1H84.6z"></path> <rect x="29.5" y="37.8" class="st4" width="217.9" height="127.3"></rect> <path class="st5" d="M231.5,35.8H51.7c-1.2,0-2.1-0.9-2.1-2.1v-2.6c0-1.2,0.9-2.1,2.1-2.1c0,0,0,0,0,0h179.9 c1.2,0,2.1,0.9,2.1,2.1v2.6C233.7,34.9,232.7,35.8,231.5,35.8C231.5,35.8,231.5,35.8,231.5,35.8z"></path> <rect x="239.7" y="30.9" class="st6" width="3.6" height="0.4"></rect> <rect x="239.7" y="32.2" class="st6" width="3.6" height="0.4"></rect> <rect x="239.7" y="33.4" class="st6" width="3.6" height="0.4"></rect> <polygon class="st6" points="35.7,34.8 36,34.5 34,32.6 36,30.7 35.7,30.4 33.7,32.4 33.5,32.6 33.4,32.6 "></polygon> <rect x="33.9" y="32.4" class="st6" width="4.5" height="0.4"></rect> <polygon class="st6" points="44.3,34.8 44,34.5 45.9,32.6 44,30.7 44.2,30.4 46.2,32.4 46.5,32.6 46.5,32.6 "></polygon> <rect x="41.5" y="32.4" class="st6" width="4.5" height="0.4"></rect> <polygon class="st6" points="55,31.3 54,32 54.8,32.2 "></polygon> <path class="st6" d="M54.6,32.7c-0.2,0.7-0.8,1.1-1.5,0.9s-1.1-0.8-0.9-1.5c0.1-0.6,0.7-1,1.2-1c0.4,0,0.9,0.2,1.1,0.6l0.3-0.1 c-0.3-0.5-0.8-0.7-1.3-0.7c-0.9,0-1.5,0.7-1.5,1.6c0,0.9,0.7,1.5,1.6,1.5c0.7,0,1.2-0.5,1.4-1.1L54.6,32.7z"></path> <path class="st6" d="M82.8,24.7L82.8,24.7c-0.1,0-0.1,0-0.2,0l-1.4-1.4c0,0-0.1-0.1,0-0.1c0,0,0,0,0,0l0,0c0,0,0.1,0,0.2,0 c0,0,0,0,0,0l1.4,1.4C82.8,24.6,82.8,24.7,82.8,24.7z"></path> <path class="st6" d="M82.8,24.7L82.8,24.7c-0.1,0-0.1,0-0.2,0l-1.4-1.4c0,0-0.1-0.1,0-0.1c0,0,0,0,0,0l0,0c0,0,0.1,0,0.2,0 c0,0,0,0,0,0l1.4,1.4C82.8,24.6,82.8,24.7,82.8,24.7z"></path> <path class="st6" d="M82.8,23.2L82.8,23.2c0,0,0,0.1,0,0.2l-1.4,1.4c-0.1,0-0.1,0-0.2,0l0,0c0,0-0.1-0.1,0-0.1c0,0,0,0,0,0 l1.4-1.4C82.6,23.2,82.7,23.2,82.8,23.2C82.7,23.2,82.7,23.2,82.8,23.2z"></path> <path class="st6" d="M242.8,24.4L242.8,24.4c-0.1,0.1-0.2,0.1-0.3,0l-2.4-2.4c-0.1-0.1-0.1-0.2,0-0.3c0,0,0,0,0,0l0,0 c0.1-0.1,0.2-0.1,0.3,0l2.5,2.4C242.9,24.2,242.9,24.3,242.8,24.4z"></path> <path class="st6" d="M242.8,24.4L242.8,24.4c-0.1,0.1-0.2,0.1-0.3,0l-2.4-2.4c-0.1-0.1-0.1-0.2,0-0.3c0,0,0,0,0,0l0,0 c0.1-0.1,0.2-0.1,0.3,0l2.5,2.4C242.9,24.2,242.9,24.3,242.8,24.4z"></path> <path class="st6" d="M242.8,21.7L242.8,21.7c0.1,0.1,0.1,0.2,0,0.3c0,0,0,0,0,0l-2.5,2.4c-0.1,0.1-0.2,0.1-0.3,0l0,0 c-0.1-0.1-0.1-0.2,0-0.3c0,0,0,0,0,0l2.4-2.4C242.6,21.6,242.8,21.6,242.8,21.7z"></path> <path class="st6" d="M236.9,24.6h-2.3c-0.1,0-0.2-0.1-0.2-0.2c0,0,0,0,0,0l0,0c0-0.1,0.1-0.2,0.2-0.2c0,0,0,0,0,0h2.3 c0.1,0,0.2,0.1,0.2,0.2c0,0,0,0,0,0l0,0C237.2,24.5,237.1,24.6,236.9,24.6C236.9,24.6,236.9,24.6,236.9,24.6z"></path> </g> <polygon class="st5" points="202.2,77.4 76,77.4 75.9,165.1 202.1,165.4 "></polygon> <polygon class="st7" points="67.6,70.7 68.9,63 70.9,63 69.7,70.7 "></polygon> <path class="st7" d="M77,63.2c-0.6-0.2-1.2-0.3-1.8-0.3c-2,0-3.5,1-3.5,2.5c0,1.1,1,1.7,1.8,2.1s1.1,0.6,1.1,1 c0,0.5-0.6,0.8-1.2,0.8c-0.7,0-1.3-0.1-1.9-0.4l-0.3-0.1l-0.3,1.7c0.7,0.3,1.5,0.4,2.3,0.4c2.2,0,3.6-1,3.6-2.6 c0-0.9-0.5-1.5-1.7-2.1c-0.7-0.4-1.2-0.6-1.2-1s0.4-0.7,1.2-0.7c0.5,0,1.1,0.1,1.5,0.3l0.2,0.1L77,63.2z"></path> <path class="st7" d="M80.5,63c-0.5-0.1-0.9,0.2-1.1,0.7l-3.1,7h2.2l0.4-1.2h2.6l0.2,1.2h1.9L82.1,63H80.5z M79.6,68l0.8-2.2 c0,0,0.2-0.4,0.3-0.7l0.1,0.7l0.5,2.2H79.6z"></path> <path class="st7" d="M63.9,68.2l-0.2-1c-0.5-1.4-1.5-2.6-2.8-3.2l1.8,6.7h2.2l3.3-7.7h-2.2L63.9,68.2z"></path> <path class="st7" d="M58.6,63v0.1c2.3,0.5,4.2,2,5.1,4.1L63,63.6c-0.1-0.4-0.6-0.7-1-0.6H58.6z"></path> <path class="st7" d="M217.5,66.1c0.1,3.8-2.8,7-6.7,7.2c-3.8,0.1-7-2.8-7.2-6.7c0-0.2,0-0.4,0-0.5l0,0c-0.1-3.8,2.8-7,6.7-7.2 c3.8-0.1,7,2.8,7.2,6.7C217.5,65.7,217.5,65.9,217.5,66.1z"></path> <path class="st7" d="M201.2,59c-3.9,0.1-7,3.4-6.8,7.4c0.1,3.7,3.1,6.7,6.8,6.8c1.7,0,3.4-0.7,4.6-1.8l0,0c0.3-0.2,0.5-0.5,0.7-0.8 h-1.4c-0.2-0.2-0.4-0.5-0.5-0.7h2.4c0.1-0.2,0.3-0.5,0.4-0.8h-3.2c-0.1-0.2-0.2-0.5-0.3-0.7h3.8c0.2-0.7,0.4-1.5,0.4-2.2 c0-0.5-0.1-1-0.2-1.5h-4.2c0.1-0.3,0.1-0.5,0.2-0.8h3.8c-0.1-0.3-0.2-0.5-0.3-0.8h-3.2c0.1-0.3,0.3-0.5,0.4-0.8h2.4 c-0.2-0.3-0.3-0.5-0.5-0.8h-1.4c0.2-0.3,0.4-0.5,0.7-0.7C204.7,59.7,203,59,201.2,59L201.2,59z"></path> <path class="st8" d="M203.8,67.9l0.1-0.6h-0.2c-0.3,0-0.3-0.1-0.3-0.2l0.2-1.3h0.4l0.1-0.7h-0.4l0.1-0.4h-0.7c0,0-0.4,2.5-0.4,2.8 s0.2,0.6,0.6,0.6C203.4,68,203.6,67.9,203.8,67.9z"></path> <path class="st8" d="M204,66.7c-0.1,0.6,0.3,1.2,1,1.3c0.1,0,0.2,0,0.3,0c0.3,0,0.5,0,0.8-0.1l0.1-0.7c-0.2,0.1-0.5,0.2-0.8,0.2 c-0.8,0-0.6-0.6-0.6-0.6h1.5c0-0.2,0.1-0.5,0.1-0.7c0.1-0.5-0.3-1-0.9-1.1c0,0-0.1,0-0.1,0C204.6,64.9,204,65.7,204,66.7z M205.3,65.6c0.4,0,0.3,0.5,0.3,0.5h-0.8C204.8,66.1,204.9,65.6,205.3,65.6L205.3,65.6z"></path> <path class="st8" d="M210,67.9l0.1-0.8c-0.2,0.1-0.4,0.2-0.6,0.2c-0.5,0-0.7-0.4-0.7-0.8c0-0.9,0.4-1.4,1-1.4 c0.2,0,0.5,0.1,0.7,0.2l0.1-0.8c-0.3-0.1-0.5-0.2-0.8-0.2c-0.9,0-1.7,0.8-1.7,2.2c0,0.9,0.4,1.6,1.3,1.6 C209.6,68,209.8,68,210,67.9z"></path> <path class="st8" d="M199.7,65c-0.3,0-0.6,0.1-0.9,0.2l-0.1,0.7c0.3-0.1,0.5-0.1,0.8-0.1c0.3,0,0.5,0,0.5,0.3c0,0.1,0,0.1,0,0.2 h-0.3c-0.6,0-1.3,0.3-1.3,1.1c0,0.7,0.4,0.8,0.7,0.8c0.3,0,0.6-0.1,0.8-0.3V68h0.6l0.3-2.1c0-0.5-0.3-0.9-0.8-0.9 C199.9,65,199.8,65,199.7,65z M199.9,66.7c0,0.1-0.1,0.7-0.5,0.7c-0.1,0-0.3-0.1-0.3-0.2c0,0,0,0,0,0c0-0.2,0.1-0.5,0.6-0.5 C199.8,66.7,199.8,66.6,199.9,66.7L199.9,66.7z"></path> <path class="st8" d="M201.4,68c0.5,0.1,1-0.3,1.1-0.9c0,0,0-0.1,0-0.1c0-0.9-0.9-0.8-0.9-1.1c0-0.2,0.1-0.2,0.4-0.2h0.5l0.1-0.7 c-0.2,0-0.4,0-0.7,0c-0.6,0-1.1,0.2-1.1,1s0.9,0.8,0.9,1.1s-0.3,0.3-0.5,0.3c-0.2,0-0.4,0-0.6-0.1l-0.1,0.7 C200.9,68,201.2,68,201.4,68z"></path> <path class="st8" d="M216.1,64.3l-0.2,1c-0.2-0.2-0.4-0.4-0.7-0.4c-0.7,0-1.2,0.8-1.2,1.8c0,0.6,0.3,1.2,0.9,1.2 c0.3,0,0.5-0.1,0.7-0.3v0.3h0.7l0.6-3.6L216.1,64.3z M215.7,66.3c0,0.4-0.2,0.9-0.6,0.9s-0.4-0.2-0.4-0.6c0-0.6,0.3-1,0.6-1 S215.7,65.9,215.7,66.3L215.7,66.3z"></path> <path class="st8" d="M195.7,67.9l0.4-2.7l0.1,2.7h0.5l1-2.7l-0.4,2.7h0.7l0.6-3.6h-1.2l-0.7,2.2v-2.2h-1.1l-0.6,3.6H195.7z"></path> <path class="st8" d="M207.1,67.9c0.2-1.2,0.2-2.3,0.8-2.1c0-0.3,0.1-0.6,0.3-0.9H208c-0.3,0-0.6,0.5-0.6,0.5l0.1-0.4h-0.7l-0.5,2.9 L207.1,67.9z"></path> <path class="st8" d="M211.7,64.9c-0.3,0-0.6,0.1-0.9,0.2l-0.1,0.7c0.3-0.1,0.5-0.1,0.8-0.1c0.3,0,0.5,0,0.5,0.3c0,0.1,0,0.1,0,0.2 h-0.3c-0.6,0-1.3,0.3-1.3,1.1c-0.1,0.4,0.2,0.7,0.6,0.8c0,0,0,0,0.1,0c0.3,0,0.6-0.1,0.8-0.3v0.3h0.6l0.3-2.1 c0-0.5-0.3-0.9-0.8-0.9C211.8,64.9,211.7,64.9,211.7,64.9z M211.8,66.6c0,0.1-0.1,0.7-0.5,0.7c-0.1,0-0.3-0.1-0.3-0.2c0,0,0,0,0,0 c0-0.2,0.1-0.4,0.6-0.4C211.8,66.6,211.8,66.6,211.8,66.6z"></path> <path class="st8" d="M213.3,67.9c0.2-1.2,0.3-2.3,0.8-2.1c0-0.3,0.1-0.6,0.3-0.9h-0.1c-0.3,0-0.6,0.5-0.6,0.5l0.1-0.4H213l-0.5,2.9 L213.3,67.9z"></path> <path class="st7" d="M130.6,63.5h-2.1c-0.1,0-0.3,0.1-0.3,0.2l-0.9,5.5c0,0.1,0.1,0.2,0.1,0.2c0,0,0,0,0,0h1.1 c0.1,0,0.2-0.1,0.2-0.1c0,0,0,0,0,0l0.2-1.6c0-0.2,0.2-0.3,0.3-0.3c0,0,0,0,0,0h0.7c1.2,0.1,2.2-0.7,2.4-1.9c0-0.1,0-0.1,0-0.2 c0.1-0.5,0-1-0.2-1.4C131.7,63.7,131.2,63.5,130.6,63.5 M130.9,65.6c-0.1,0.8-0.7,0.8-1.2,0.8h-0.4l0.2-1.4c0-0.1,0.1-0.1,0.2-0.1 h0.1c0.4,0,0.7,0,0.9,0.2C130.9,65.1,130.9,65.3,130.9,65.6"></path> <path class="st7" d="M115.6,63.5h-2.1c-0.1,0-0.3,0.1-0.3,0.2l-0.8,5.5c0,0.1,0.1,0.2,0.2,0.2h1c0.1,0,0.3-0.1,0.3-0.2l0.2-1.5 c0-0.1,0.1-0.3,0.3-0.3c0,0,0,0,0,0h0.7c1.2,0.1,2.2-0.7,2.4-1.9c0-0.1,0-0.1,0-0.2c0.1-0.5,0-1-0.2-1.4 C116.8,63.7,116.2,63.5,115.6,63.5 M115.9,65.6c-0.1,0.8-0.7,0.8-1.2,0.8h-0.3l0.2-1.4c0-0.1,0.1-0.1,0.2-0.1h0.1 c0.4,0,0.7,0,0.9,0.2C115.9,65.2,116,65.4,115.9,65.6"></path> <path class="st7" d="M121.9,65.5h-1c-0.1,0-0.2,0.1-0.2,0.1l-0.1,0.3l-0.1-0.1c-0.3-0.3-0.7-0.5-1.2-0.4c-1.2,0-2.1,0.9-2.3,2.1 c-0.1,0.5,0,1.1,0.4,1.6c0.3,0.4,0.8,0.5,1.3,0.5c0.5,0,1-0.2,1.4-0.6l-0.1,0.3c0,0.1,0.1,0.2,0.2,0.2h0.9c0.1,0,0.2-0.1,0.3-0.2 l0.6-3.5C122.1,65.7,122,65.5,121.9,65.5 M120.5,67.5c-0.1,0.6-0.6,1-1.2,1c-0.2,0-0.5-0.1-0.7-0.2c-0.1-0.2-0.2-0.5-0.2-0.8 c0-0.6,0.4-1,1-1S120.5,67,120.5,67.5"></path> <path class="st7" d="M136.8,65.5h-1c-0.1,0-0.2,0.1-0.2,0.1l-0.1,0.3l-0.1-0.1c-0.3-0.3-0.7-0.5-1.2-0.4c-1.2,0-2.1,0.9-2.3,2.1 c-0.1,0.5,0,1.1,0.4,1.6c0.3,0.4,0.8,0.5,1.3,0.5c0.5,0,1-0.2,1.4-0.6l-0.1,0.3c0,0.1,0.1,0.2,0.1,0.2c0,0,0,0,0,0h0.9 c0.1,0,0.2-0.1,0.3-0.2l0.6-3.5C137,65.7,136.9,65.5,136.8,65.5 M135.4,67.5c-0.1,0.6-0.6,1-1.2,1c-0.2,0-0.5-0.1-0.7-0.2 c-0.1-0.2-0.2-0.5-0.2-0.8c0.1-0.6,0.5-1,1.1-1c0.2,0,0.5,0.1,0.7,0.2C135.4,67,135.5,67.3,135.4,67.5"></path> <path class="st7" d="M127.2,65.5h-1c-0.1,0-0.2,0-0.2,0.1l-1.3,2.1l-0.6-2c0-0.1-0.2-0.2-0.3-0.2h-1c-0.1,0-0.2,0.1-0.2,0.2 l1.1,3.3l-1,1.5c-0.1,0.1,0,0.3,0.1,0.3h1c0.1,0,0.2-0.1,0.2-0.1l3.4-4.9C127.6,65.7,127.4,65.5,127.2,65.5"></path> <path class="st7" d="M138,63.7l-0.9,5.6c0,0.1,0.1,0.2,0.1,0.2c0,0,0,0,0,0h0.9c0.1,0,0.3-0.1,0.3-0.2l0.9-5.5c0-0.1,0-0.2-0.1-0.2 c0,0,0,0,0,0h-1C138.1,63.5,138,63.6,138,63.7"></path> <path class="st7" d="M107.9,61.7c-0.6-0.6-1.5-0.8-2.3-0.8h-3.1c-0.2,0-0.4,0.2-0.4,0.4l-1.2,8.2c0,0.2,0.1,0.3,0.2,0.3h1.9 l0.5-3.1v0.1c0.1-0.2,0.2-0.4,0.4-0.4h0.9c1.7,0.2,3.3-1.1,3.6-2.8v-0.2l0,0C108.5,62.9,108.3,62.2,107.9,61.7"></path> <path class="st7" d="M108.3,63.5L108.3,63.5v0.2c-0.2,1.8-1.8,3-3.5,2.8c0,0,0,0,0,0h-0.9c-0.2,0-0.4,0.2-0.4,0.4l-0.6,3.8 c0,0.1,0.1,0.2,0.2,0.2c0,0,0,0,0,0h1.6c0.2,0,0.3-0.1,0.4-0.3v-0.1l0.3-1.9v-0.1c0-0.2,0.2-0.3,0.4-0.3c0,0,0,0,0,0h0.2 c1.5,0.2,2.9-0.9,3.1-2.4c0,0,0,0,0-0.1c0.2-0.6,0.1-1.3-0.3-1.9C108.6,63.7,108.5,63.5,108.3,63.5"></path> <path class="st7" d="M107.9,63.3c-0.1,0-0.1-0.1-0.2-0.1c-0.1,0-0.1,0-0.2-0.1c-0.3-0.1-0.5-0.1-0.8-0.1h-2.4c-0.1,0-0.1,0-0.2,0.1 c-0.1,0.1-0.2,0.2-0.2,0.3l-0.5,3.2v0.1c0.1-0.2,0.2-0.4,0.4-0.4h0.9c1.7,0.2,3.3-1.1,3.6-2.8c0-0.1,0-0.1,0.1-0.2 c-0.1-0.1-0.2-0.1-0.3-0.1C107.9,63.3,107.9,63.3,107.9,63.3"></path> <polygon class="st5" points="163.1,54.5 158.9,54.5 158.9,53.2 163.1,53.1 "></polygon> <polygon class="st5" points="120.7,54.6 116.6,54.6 116.6,53.2 120.7,53.2 "></polygon> <polygon class="st5" points="115.6,54.6 111.4,54.6 111.4,53.2 115.6,53.2 "></polygon> <polygon class="st5" points="128.8,54.6 121.9,54.6 121.9,53.2 128.8,53.2 "></polygon> <polygon class="st5" points="110.5,54.6 103.6,54.6 103.6,53.2 110.5,53.2 "></polygon> <polygon class="st5" points="102.3,54.6 88.5,54.6 88.5,53.2 102.3,53.2 "></polygon> <polygon class="st5" points="157.8,54.5 130.2,54.6 130.2,53.2 157.8,53.2 "></polygon> <polygon class="st5" points="87.1,54.6 59.5,54.6 59.5,53.2 87.1,53.2 "></polygon> <rect x="122.1" y="95.2" transform="matrix(1.221725e-03 -1 1 1.221725e-03 -12.5804 258.045)" class="st8" width="1.5" height="80.2"></rect> <rect x="111.2" y="133" transform="matrix(1.221725e-03 -1 1 1.221725e-03 -26.469 250.0266)" class="st8" width="1.5" height="10.4"></rect> <rect x="93.1" y="127.2" transform="matrix(1.221725e-03 -1 1 1.221725e-03 -44.519 231.9145)" class="st8" width="1.5" height="22.1"></rect> <rect x="111.9" y="101.8" transform="matrix(1.047155e-03 -1 1 1.047155e-03 -19.1079 244.0979)" class="st8" width="1.5" height="59.7"></rect> <rect x="82.8" y="118.8" class="st8" width="80.2" height="1.5"></rect> <rect x="106.7" y="121.7" class="st8" width="10.4" height="1.5"></rect> <rect x="82.8" y="121.7" class="st8" width="22.1" height="1.5"></rect> <rect x="82.8" y="115.1" class="st8" width="59.7" height="1.5"></rect> <polygon class="st8" points="173.9,110.7 82.8,110.7 82.8,97.9 173.9,97.9 "></polygon> <polygon class="st8" points="150.9,154.4 83.4,154.2 83.4,147.3 150.9,147.4 "></polygon> <polygon class="st8" points="150.3,92.1 82.8,92 82.8,85.1 150.3,85.1 "></polygon> <polygon class="st5" points="126.9,50.5 59.5,50.5 59.5,43.6 126.9,43.5 "></polygon> <path class="st7" d="M178.5,58.1h0.5c0.2,0,0.3,0,0.5,0c0.1,0,0.3,0.1,0.4,0.1c0.3,0.1,0.5,0.3,0.6,0.6c0.1,0.1,0.1,0.3,0.1,0.4 c0,0.2,0,0.3,0,0.5c0,0.1,0,0.2,0,0.2v14c0,0.1,0,0.2,0,0.2c0,0.2,0,0.3,0,0.5c0,0.1-0.1,0.3-0.1,0.4c-0.1,0.3-0.3,0.5-0.6,0.6 c-0.1,0.1-0.3,0.1-0.4,0.1c-0.2,0-0.3,0-0.5,0h-24.8c-0.2,0-0.3,0-0.5,0c-0.1,0-0.3-0.1-0.4-0.1c-0.1-0.1-0.2-0.1-0.4-0.2 c-0.1-0.1-0.2-0.2-0.2-0.3c-0.1-0.1-0.1-0.3-0.1-0.4c0-0.2,0-0.3,0-0.5V59.8c0-0.2,0-0.3,0-0.5c0-0.1,0.1-0.3,0.1-0.4 c0.1-0.3,0.3-0.5,0.6-0.6c0.1-0.1,0.3-0.1,0.4-0.1c0.2,0,0.3,0,0.5,0L178.5,58.1 M178.5,57.8h-24.3c-0.2,0-0.4,0-0.5,0 c-0.2,0-0.4,0.1-0.5,0.2c-0.3,0.2-0.6,0.4-0.8,0.8c-0.1,0.2-0.1,0.3-0.2,0.5c0,0.2,0,0.4-0.1,0.5v14.4c0,0.2,0,0.4,0.1,0.6 c0,0.2,0.1,0.3,0.2,0.5c0.2,0.3,0.4,0.6,0.8,0.8c0.2,0.1,0.3,0.1,0.5,0.2c0.2,0,0.4,0,0.5,0h24.9c0.2,0,0.4,0,0.5,0 c0.2,0,0.4-0.1,0.5-0.2c0.3-0.2,0.6-0.4,0.8-0.8c0.1-0.2,0.1-0.3,0.2-0.5c0-0.2,0-0.4,0.1-0.6V59.8c0-0.2,0-0.4-0.1-0.5 c0-0.2-0.1-0.3-0.2-0.5c-0.2-0.3-0.4-0.6-0.8-0.8c-0.2-0.1-0.3-0.1-0.5-0.2c-0.2,0-0.4,0-0.5,0C179.1,57.8,178.5,57.8,178.5,57.8z"></path> <path class="st7" d="M160.4,63.3c0.3-0.3,0.4-0.8,0.4-1.2c-0.4,0-0.8,0.3-1.1,0.6c-0.3,0.3-0.4,0.8-0.4,1.2 C159.8,63.8,160.2,63.6,160.4,63.3z M161.6,66.1c0-0.6,0.3-1.2,0.8-1.5c-0.3-0.5-0.8-0.7-1.4-0.8c-0.6-0.1-1.2,0.4-1.5,0.4 s-0.8-0.3-1.3-0.3c-0.7,0-1.3,0.4-1.6,1c-0.5,1.3-0.3,2.7,0.5,3.9c0.3,0.5,0.7,1,1.2,1s0.7-0.3,1.3-0.3s0.8,0.3,1.3,0.3 s0.9-0.5,1.2-0.9c0.2-0.3,0.4-0.7,0.5-1.1C162,67.5,161.6,66.9,161.6,66.1L161.6,66.1z M167.8,63.3c-0.2-0.2-0.5-0.3-0.8-0.4 c-0.3-0.1-0.7-0.2-1-0.1c-0.3,0-0.5,0-0.8,0c-0.2,0-0.4,0.1-0.6,0.1h-0.1v6.8h0.6v-2.8c0.2,0,0.5,0,0.7,0c0.3,0,0.7,0,1-0.1 c0.3-0.1,0.6-0.2,0.8-0.4c0.2-0.2,0.4-0.4,0.5-0.7c0.2-0.6,0.2-1.2,0-1.7C168.1,63.6,167.9,63.4,167.8,63.3L167.8,63.3z M167.2,65.9c-0.4,0.3-0.9,0.4-1.3,0.4c-0.1,0-0.3,0-0.4,0c-0.1,0-0.2,0-0.3,0v-2.9h0.3c0.2,0,0.4,0,0.6,0c0.2,0,0.5,0,0.7,0.1 c0.2,0.1,0.4,0.1,0.6,0.3c0.1,0.1,0.3,0.3,0.4,0.5c0.1,0.2,0.1,0.4,0.1,0.7c0,0.4-0.1,0.9-0.5,1.2L167.2,65.9z M172,69 c0-0.2,0-0.4,0-0.6v-1.9c0-0.2,0-0.5-0.1-0.7c0-0.2-0.1-0.4-0.3-0.6c-0.1-0.2-0.3-0.4-0.5-0.5c-0.3-0.1-0.6-0.2-0.9-0.2 c-0.2,0-0.5,0-0.7,0.1c-0.2,0.1-0.5,0.2-0.7,0.3l0,0l0.2,0.5l0.1-0.1c0.2-0.1,0.3-0.2,0.5-0.3c0.2-0.1,0.4-0.1,0.6-0.1 c0.2,0,0.4,0,0.6,0.1c0.1,0.1,0.3,0.2,0.3,0.3c0.1,0.1,0.1,0.3,0.1,0.4c0,0.1,0,0.3,0,0.4l0,0c-0.7,0-1.5,0.1-2.1,0.5 c-0.5,0.3-0.8,0.8-0.8,1.4c0,0.2,0,0.3,0.1,0.5c0.1,0.2,0.1,0.3,0.3,0.5c0.1,0.1,0.3,0.2,0.5,0.3c0.2,0.1,0.4,0.1,0.6,0.1 c0.4,0,0.7-0.1,1-0.3c0.1-0.1,0.2-0.2,0.3-0.3l0.1-0.1l0,0l0.1,0.6h0.6v-0.1C172.1,69.3,172,69.2,172,69z M171.4,68 c0,0.1,0,0.2,0,0.3c0,0.1-0.1,0.2-0.2,0.3c-0.2,0.2-0.4,0.4-0.6,0.5c-0.2,0.1-0.3,0.1-0.5,0.1c-0.1,0-0.2,0-0.3,0 c-0.1,0-0.2-0.1-0.3-0.2c-0.1-0.1-0.1-0.2-0.2-0.3c-0.1-0.1-0.1-0.3-0.1-0.4c0-0.2,0.1-0.5,0.2-0.6c0.1-0.2,0.3-0.3,0.6-0.4 c0.2-0.1,0.5-0.1,0.8-0.2c0.2,0,0.5,0,0.7,0v1L171.4,68z M176.2,64.6l-1.2,3.2c-0.1,0.2-0.1,0.4-0.2,0.6l-0.1,0.3l0,0l-0.1-0.3 c-0.1-0.2-0.1-0.4-0.2-0.5l-1.2-3.2h-0.7l1.8,4.6c0,0.1,0,0.1,0,0.2c0,0.1,0,0.1,0,0.2c-0.1,0.2-0.2,0.5-0.4,0.7 c-0.1,0.2-0.2,0.3-0.4,0.5c-0.1,0.1-0.3,0.2-0.4,0.3c-0.1,0.1-0.3,0.1-0.4,0.2h-0.1l0.2,0.5h0.1l0.3-0.2c0.2-0.1,0.4-0.2,0.5-0.4 c0.2-0.1,0.3-0.3,0.4-0.5c0.2-0.2,0.3-0.4,0.4-0.7c0.1-0.2,0.2-0.5,0.4-0.8s0.3-0.7,0.4-1l1.4-3.6L176.2,64.6z"></path> <g class="st9"> <rect x="148.1" y="106" class="st2" width="215.7" height="7.9"></rect> <path class="st3" d="M202.6,114v-3.9c0-1-0.8-1.8-1.8-1.7h-45.3c-1,0-1.8,0.8-1.8,1.7v3.9h-5.7v10.6h215.7V114H202.6z"></path> <rect x="148.1" y="124.6" class="st4" width="215.7" height="126"></rect> <path class="st5" d="M348.1,122.6h-178c-1.2,0-2.1-0.9-2.1-2.1V118c0-1.2,1-2.1,2.1-2.1h178c1.2,0,2.1,0.9,2.1,2.1c0,0,0,0,0,0 v2.6C350.2,121.7,349.2,122.6,348.1,122.6z"></path> <rect x="356.1" y="117.8" class="st6" width="3.6" height="0.4"></rect> <rect x="356.1" y="119" class="st6" width="3.6" height="0.4"></rect> <rect x="356.1" y="120.3" class="st6" width="3.6" height="0.4"></rect> <polygon class="st6" points="154.2,121.6 154.5,121.4 152.6,119.5 154.6,117.6 154.3,117.3 152.3,119.2 152.1,119.5 152,119.5 "></polygon> <rect x="152.5" y="119.3" class="st6" width="4.5" height="0.4"></rect> <polygon class="st6" points="162.8,121.6 162.5,121.4 164.4,119.5 162.5,117.6 162.7,117.3 164.7,119.2 165,119.5 165,119.5 "></polygon> <rect x="160" y="119.3" class="st6" width="4.5" height="0.4"></rect> <polygon class="st6" points="173.4,118.2 172.3,118.9 173.2,119.1 "></polygon> <path class="st6" d="M172.9,119.6c-0.2,0.7-0.8,1.1-1.5,0.9c-0.7-0.2-1.1-0.8-0.9-1.5s0.8-1.1,1.5-0.9c0.3,0.1,0.6,0.3,0.8,0.6 l0.3-0.2c-0.3-0.5-0.8-0.7-1.3-0.7c-0.8-0.1-1.6,0.4-1.7,1.3c-0.1,0.8,0.4,1.6,1.3,1.7c0.2,0,0.3,0,0.5,0c0.7,0,1.3-0.4,1.5-1.1 L172.9,119.6z"></path> <path class="st6" d="M200.8,111.7L200.8,111.7c-0.1,0-0.1,0-0.2,0l-1.4-1.3c0,0,0-0.1,0-0.2l0,0c0.1,0,0.1,0,0.2,0l1.4,1.3 C200.9,111.5,200.9,111.6,200.8,111.7z"></path> <path class="st6" d="M200.8,111.7L200.8,111.7c-0.1,0-0.1,0-0.2,0l-1.4-1.3c0,0,0-0.1,0-0.2l0,0c0.1,0,0.1,0,0.2,0l1.4,1.3 C200.9,111.5,200.9,111.6,200.8,111.7z"></path> <path class="st6" d="M200.8,110.1L200.8,110.1c0,0,0,0.1,0,0.2l-1.4,1.3c-0.1,0-0.1,0-0.2,0l0,0c0,0,0-0.1,0-0.2l1.4-1.3 C200.7,110.1,200.8,110.1,200.8,110.1z"></path> <path class="st6" d="M359.2,111.3L359.2,111.3c-0.1,0.1-0.2,0.1-0.3,0l-2.4-2.3c-0.1-0.1-0.1-0.2,0-0.3c0,0,0,0,0,0l0,0 c0.1-0.1,0.2-0.1,0.3,0l2.4,2.4C359.3,111.2,359.3,111.3,359.2,111.3z"></path> <path class="st6" d="M359.2,111.3L359.2,111.3c-0.1,0.1-0.2,0.1-0.3,0l-2.4-2.3c-0.1-0.1-0.1-0.2,0-0.3c0,0,0,0,0,0l0,0 c0.1-0.1,0.2-0.1,0.3,0l2.4,2.4C359.3,111.2,359.3,111.3,359.2,111.3z"></path> <path class="st6" d="M359.2,108.7L359.2,108.7c0.1,0.1,0.1,0.2,0,0.3c0,0,0,0,0,0l-2.4,2.4c-0.1,0.1-0.2,0.1-0.3,0l0,0 c-0.1-0.1-0.1-0.2,0-0.3c0,0,0,0,0,0l2.4-2.4C359,108.6,359.2,108.6,359.2,108.7z"></path> <path class="st6" d="M353.4,111.5h-2.3c-0.1,0-0.2-0.1-0.2-0.2c0,0,0,0,0,0l0,0c0-0.1,0.1-0.2,0.2-0.2l0,0h2.3 c0.1,0,0.2,0.1,0.2,0.2c0,0,0,0,0,0l0,0C353.7,111.4,353.6,111.5,353.4,111.5C353.4,111.5,353.4,111.5,353.4,111.5z"></path> </g> <path class="st10" d="M305,133.3h45.2c2.8,0,5.1,2.3,5.1,5.1v26c0,2.8-2.3,5.1-5.1,5.1H305c-2.8,0-5.1-2.3-5.1-5.1v-26 C299.9,135.6,302.2,133.3,305,133.3z"></path> <rect x="301.6" y="172.3" class="st11" width="52" height="1.6"></rect> <rect x="301.6" y="175.4" class="st10" width="52" height="1.6"></rect> <rect x="301.6" y="178.6" class="st10" width="52" height="1.6"></rect> <rect x="301.6" y="181.7" class="st10" width="52" height="1.6"></rect> <path class="st5" d="M304.5,217.1v1H304v-1c-0.8,0-1.5-0.3-2.1-0.8l0.3-1c0.5,0.5,1.2,0.8,1.9,0.9v-2c-1.4-0.4-2-1.1-2-2 c0-1,0.9-1.9,1.9-1.8c0,0,0,0,0.1,0v-0.9h0.5v0.9c0.6,0,1.2,0.3,1.7,0.6l-0.3,0.9c-0.4-0.3-0.9-0.5-1.5-0.5v1.6c1.4,0.4,2,1,2,2.1 C306.5,216.1,305.7,217,304.5,217.1C304.5,217,304.5,217,304.5,217.1z M304,211.3c-0.5,0.1-0.8,0.3-0.8,0.7s0.2,0.6,0.8,0.8V211.3z M304.5,216.1c0.5,0,0.9-0.4,0.9-0.9c0-0.4-0.2-0.7-0.9-0.9V216.1z"></path> <path class="st5" d="M309.4,217.2c-0.7,0-1.5-0.2-2-0.7v-1.1c0.5,0.5,1.2,0.8,1.9,0.8c0.7,0.1,1.3-0.5,1.4-1.2c0-0.1,0-0.1,0-0.2 c0.1-0.6-0.4-1.1-1-1.2c-0.1,0-0.1,0-0.2,0c-0.4,0-0.7,0.1-0.9,0.4l-0.5-0.6l2.1-2.1h-2.7v-1.1h4.5v0.6l-1.9,1.9c1.1,0,2,0.9,2,2 c0,0,0,0.1,0,0.1c0,1.3-1,2.3-2.3,2.3C309.6,217.3,309.5,217.2,309.4,217.2z"></path> <path class="st5" d="M314.8,217.2c-0.6,0-1.1-0.2-1.6-0.4v-1c0.4,0.3,1,0.5,1.5,0.5c1,0,1.7-0.6,1.8-2.3c-0.4,0.5-0.9,0.8-1.6,0.8 c-1.2,0-2.1-0.9-2.1-2.1c0-0.1,0-0.1,0-0.2c0-1.3,1.1-2.3,2.3-2.3c0,0,0.1,0,0.1,0c1.1,0,2.6,0.6,2.6,3.2 C317.8,215.7,316.8,217.2,314.8,217.2z M315.3,211c-0.7,0-1.2,0.5-1.2,1.2c0,0,0,0.1,0,0.1c0,0.8,0.4,1.4,1.1,1.4 c0.7,0,1.2-0.5,1.2-1.2c0,0,0,0,0,0C316.5,211.5,315.9,211,315.3,211L315.3,211z"></path> <path class="st5" d="M318.6,217.1v-1.4h1.4v1.4H318.6z"></path> <path class="st5" d="M322.8,217.2c-0.6,0-1.1-0.2-1.6-0.4v-1c0.4,0.3,1,0.5,1.5,0.5c1,0,1.7-0.6,1.8-2.3c-0.4,0.5-0.9,0.8-1.6,0.8 c-1.2,0-2.1-0.9-2.1-2.1c0-0.1,0-0.1,0-0.2c0-1.3,1.1-2.3,2.3-2.3c0,0,0.1,0,0.1,0c1.1,0,2.5,0.6,2.5,3.2 C325.7,215.7,324.7,217.2,322.8,217.2z M323.2,211c-0.7,0-1.2,0.5-1.2,1.2c0,0,0,0.1,0,0.1c0,0.8,0.4,1.4,1.1,1.4 c0.7,0,1.2-0.5,1.2-1.2c0,0,0,0,0,0C324.4,211.5,323.9,211,323.2,211z"></path> <path class="st5" d="M328.7,217.2c-0.6,0-1.1-0.2-1.6-0.4v-1c0.4,0.3,1,0.5,1.5,0.5c1,0,1.7-0.6,1.8-2.3c-0.4,0.5-0.9,0.8-1.6,0.8 c-1.2,0-2.1-0.9-2.1-2.1c0-0.1,0-0.1,0-0.2c0-1.3,1.1-2.3,2.3-2.3c0,0,0.1,0,0.1,0c1.1,0,2.6,0.6,2.6,3.2 C331.6,215.7,330.6,217.2,328.7,217.2z M329.1,211c-0.7,0-1.2,0.5-1.2,1.2c0,0,0,0.1,0,0.1c0,0.8,0.4,1.4,1.1,1.4 c0.7,0,1.2-0.5,1.2-1.2c0,0,0,0,0,0C330.3,211.5,329.8,211,329.1,211z"></path> <rect x="301.4" y="224.3" class="st12" width="38.7" height="12.9"></rect> <path class="st5" d="M310.8,232.5h-1.3v-3.1h1.3c0.7,0,1,0.4,1,0.8c0,0.2-0.1,0.5-0.4,0.6c0.3,0.1,0.5,0.4,0.5,0.8 C312,232.1,311.6,232.5,310.8,232.5z M310.2,230.7h0.5c0.3,0,0.5-0.2,0.5-0.4s-0.1-0.4-0.5-0.4h-0.5V230.7z M310.7,231.1h-0.6v1 h0.6c0.4,0,0.6-0.2,0.6-0.5S311.1,231.1,310.7,231.1L310.7,231.1z"></path> <path class="st5" d="M314,232.6c-0.8,0.1-1.4-0.5-1.5-1.2c0-0.1,0-0.2,0-0.3v-1.7h0.7v1.7c0,0.7,0.3,1,0.9,1s0.9-0.3,0.9-1v-1.7 h0.7v1.7c0.1,0.8-0.5,1.4-1.2,1.5C314.2,232.6,314.1,232.6,314,232.6z"></path> <path class="st5" d="M317.8,231.3v1.2h-0.7v-1.2l-1.3-1.9h0.7l0.9,1.4l0.9-1.4h0.7L317.8,231.3z"></path> <path class="st5" d="M322.9,232.5l-1.7-2.1v2.1h-0.6v-3.1h0.5l1.7,2.1v-2.1h0.6v3.1H322.9z"></path> <path class="st5" d="M325.7,232.6c-0.9-0.1-1.6-0.9-1.5-1.8c0.1-0.9,0.9-1.6,1.8-1.5c0.9,0.1,1.5,0.8,1.5,1.7 C327.4,231.9,326.7,232.6,325.7,232.6C325.7,232.6,325.7,232.6,325.7,232.6z M325.7,229.8c-0.6,0-1.2,0.4-1.2,1.1 c0,0.6,0.4,1.2,1.1,1.2s1.2-0.4,1.2-1.1c0,0,0,0,0-0.1c0-0.6-0.4-1.1-1-1.1C325.7,229.8,325.7,229.8,325.7,229.8z"></path> <path class="st5" d="M331.1,232.5h-0.5l-0.6-1.9c0-0.1-0.1-0.2-0.1-0.2c0,0,0,0.2-0.1,0.2l-0.7,1.9h-0.5l-1.1-3.1h0.7l0.7,2 c0,0.1,0.1,0.2,0.1,0.3c0,0,0.1-0.2,0.1-0.3l0.6-2h0.5l0.6,2l0.1,0.3c0-0.1,0-0.2,0.1-0.3l0.7-2h0.6L331.1,232.5z"></path> <rect x="301.5" y="196.1" class="st7" width="24.9" height="8.2"></rect> <path class="st5" d="M326.5,204.5h-25.1V196h25.1V204.5z M301.6,204.3h24.6v-8h-24.6L301.6,204.3z"></path> <path class="st5" d="M353.5,204.5h-25.1V196h25.1V204.5z M328.6,204.3h24.6v-8h-24.6V204.3z"></path> <g class="st13"> <path class="st5" d="M290.6,230.2c0,4.5-2.9,8.2-6.5,8.2H163.7c-3.6,0-6.5-3.7-6.5-8.2v-89.1c0-4.5,2.9-8.2,6.5-8.2h120.5 c3.6,0,6.5,3.7,6.5,8.2V230.2z"></path> <polygon class="st14" points="166.9,186.4 166.3,185.9 163.2,189.1 163.2,189.1 162.6,189.6 162.6,189.6 162.6,189.6 163.2,190.1 163.2,190.1 166.3,193.3 166.9,192.7 163.7,189.6 "></polygon> <polygon class="st14" points="281,186.4 281.5,185.9 284.6,189.1 284.6,189.1 285.2,189.6 285.2,189.6 285.2,189.6 284.6,190.1 284.6,190.1 281.5,193.3 281,192.7 284.1,189.6 "></polygon> </g> <g class="st9"> <rect x="28.7" y="190.2" class="st2" width="215.8" height="7.9"></rect> <path class="st3" d="M83.3,198.2v-3.9c0-1-0.8-1.8-1.8-1.7H36.2c-1,0-1.8,0.8-1.8,1.7c0,0,0,0,0,0v3.9h-5.7v10.6h215.8v-10.6H83.3 z"></path> <rect x="28.7" y="208.8" class="st4" width="215.8" height="126.1"></rect> <path class="st5" d="M228.8,206.9H50.7c-1.2,0-2.1-0.9-2.1-2.1v-2.6c0-1.2,1-2.1,2.1-2.1h178.1c1.2,0,2.1,0.9,2.1,2.1c0,0,0,0,0,0 v2.6C230.9,205.9,229.9,206.9,228.8,206.9z"></path> <rect x="236.8" y="202" class="st6" width="3.6" height="0.4"></rect> <rect x="236.8" y="203.2" class="st6" width="3.6" height="0.4"></rect> <rect x="236.8" y="204.5" class="st6" width="3.6" height="0.4"></rect> <polygon class="st6" points="34.9,205.9 35.2,205.6 33.2,203.7 35.2,201.8 34.9,201.5 32.9,203.4 32.7,203.7 32.7,203.7 "></polygon> <rect x="33.1" y="203.5" class="st6" width="4.5" height="0.4"></rect> <polygon class="st6" points="43.4,205.9 43.1,205.6 45,203.7 43.1,201.8 43.4,201.5 45.3,203.4 45.6,203.7 45.6,203.7 "></polygon> <rect x="40.6" y="203.5" class="st6" width="4.5" height="0.4"></rect> <polygon class="st6" points="54.1,202.4 53,203.1 53.9,203.3 "></polygon> <path class="st6" d="M53.6,203.8c-0.2,0.5-0.7,0.9-1.2,0.9c-0.7,0-1.2-0.6-1.2-1.2c0-0.7,0.6-1.2,1.2-1.2c0.4,0,0.8,0.2,1.1,0.6 l0.2-0.1c-0.3-0.5-0.8-0.7-1.3-0.7c-0.8,0-1.5,0.7-1.5,1.6s0.7,1.5,1.6,1.5c0.7,0,1.2-0.4,1.4-1.1L53.6,203.8z"></path> <path class="st6" d="M81.5,195.9L81.5,195.9c0,0-0.1,0.1-0.1,0c0,0,0,0,0,0l-1.4-1.4c0,0-0.1-0.1,0-0.1c0,0,0,0,0,0l0,0 c0,0,0.1,0,0.2,0l1.4,1.4C81.5,195.8,81.5,195.8,81.5,195.9C81.5,195.9,81.5,195.9,81.5,195.9z"></path> <path class="st6" d="M81.5,195.9L81.5,195.9c0,0-0.1,0.1-0.1,0c0,0,0,0,0,0l-1.4-1.4c0,0-0.1-0.1,0-0.1c0,0,0,0,0,0l0,0 c0,0,0.1,0,0.2,0l1.4,1.4C81.5,195.8,81.5,195.8,81.5,195.9C81.5,195.9,81.5,195.9,81.5,195.9z"></path> <path class="st6" d="M81.5,194.4L81.5,194.4c0,0,0.1,0.1,0,0.1c0,0,0,0,0,0l-1.4,1.4c0,0-0.1,0.1-0.1,0c0,0,0,0,0,0l0,0 c0,0-0.1-0.1,0-0.1c0,0,0,0,0,0l1.4-1.4C81.4,194.3,81.4,194.3,81.5,194.4z"></path> <path class="st6" d="M240,195.6L240,195.6c-0.1,0.1-0.2,0.1-0.3,0l-2.4-2.4c-0.1-0.1-0.1-0.2,0-0.3c0,0,0,0,0,0l0,0 c0.1-0.1,0.2-0.1,0.3,0l2.4,2.4C240.1,195.3,240.1,195.4,240,195.6C240,195.5,240,195.5,240,195.6z"></path> <path class="st6" d="M240,195.6L240,195.6c-0.1,0.1-0.2,0.1-0.3,0l-2.4-2.4c-0.1-0.1-0.1-0.2,0-0.3c0,0,0,0,0,0l0,0 c0.1-0.1,0.2-0.1,0.3,0l2.4,2.4C240.1,195.3,240.1,195.4,240,195.6C240,195.5,240,195.5,240,195.6z"></path> <path class="st6" d="M240,192.9L240,192.9c0.1,0.1,0.1,0.2,0,0.3c0,0,0,0,0,0l-2.4,2.4c-0.1,0.1-0.2,0.1-0.3,0l0,0 c-0.1-0.1-0.1-0.2,0-0.3c0,0,0,0,0,0l2.4-2.4C239.8,192.8,239.9,192.8,240,192.9z"></path> <path class="st6" d="M234.1,195.7h-2.3c-0.1,0-0.2-0.1-0.2-0.2l0,0c0-0.1,0.1-0.2,0.2-0.2h2.3c0.1,0,0.2,0.1,0.2,0.2l0,0 C234.3,195.6,234.2,195.7,234.1,195.7z"></path> </g> <path class="st15" d="M149.7,239.4v31.8c0,2.3-1.9,4.1-4.1,4.1h-20.9c-2.3,0-4.1-1.9-4.1-4.1v-31.8c0-2.3,1.9-4.2,4.1-4.2h20.9 C147.9,235.3,149.7,237.1,149.7,239.4z"></path> <path class="st15" d="M189,239.4v31.8c0,2.3-1.9,4.1-4.1,4.1H164c-2.3,0-4.1-1.9-4.1-4.1v-31.8c0-2.3,1.9-4.1,4.1-4.1h20.9 C187.1,235.3,189,237.1,189,239.4z"></path> <path class="st15" d="M227.4,239.4v31.8c0,2.3-1.9,4.1-4.1,4.1h-20.9c-2.3,0-4.1-1.9-4.1-4.1v-31.8c0-2.3,1.9-4.1,4.1-4.1h20.9 C225.5,235.3,227.4,237.1,227.4,239.4z"></path> <path class="st15" d="M111,239.4v31.8c0,2.3-1.9,4.2-4.1,4.2H86c-2.3,0-4.1-1.9-4.1-4.2v-31.8c0-2.3,1.9-4.2,4.1-4.2h20.9 C109.1,235.3,111,237.1,111,239.4z"></path> <path class="st15" d="M72.3,239.4v31.8c0,2.3-1.9,4.1-4.1,4.1H47.2c-2.3,0-4.1-1.9-4.1-4.1v-31.8c0-2.3,1.9-4.2,4.1-4.2h20.9 C70.4,235.3,72.3,237.1,72.3,239.4z"></path> <path class="st15" d="M149.7,294.7v31.8c0,2.3-1.9,4.1-4.1,4.1h-20.9c-2.3,0-4.1-1.9-4.1-4.1v-31.8c0-2.3,1.9-4.1,4.1-4.1h20.9 C147.9,290.6,149.7,292.4,149.7,294.7z"></path> <path class="st15" d="M189,294.7v31.8c0,2.3-1.9,4.1-4.1,4.1H164c-2.3,0-4.1-1.9-4.1-4.1v-31.8c0-2.3,1.9-4.1,4.1-4.1h20.9 C187.1,290.6,189,292.4,189,294.7z"></path> <path class="st15" d="M227.4,294.7v31.8c0,2.3-1.9,4.1-4.1,4.1h-20.9c-2.3,0-4.1-1.9-4.1-4.1v-31.8c0-2.3,1.9-4.1,4.1-4.1h20.9 C225.5,290.6,227.4,292.4,227.4,294.7z"></path> <path class="st15" d="M111,294.7v31.8c0,2.3-1.9,4.1-4.1,4.1H86c-2.3,0-4.1-1.9-4.1-4.1v-31.8c0-2.3,1.9-4.1,4.1-4.1h20.9 C109.1,290.6,111,292.4,111,294.7z"></path> <path class="st15" d="M72.3,294.7v31.8c0,2.3-1.9,4.1-4.1,4.1H47.2c-2.3,0-4.1-1.9-4.1-4.1v-31.8c0-2.3,1.9-4.1,4.1-4.1h20.9 C70.4,290.6,72.3,292.4,72.3,294.7z"></path> <path class="st5" d="M47.5,266.9v1.8h21v-1.8H47.5z M47.5,272.1h12.9v-1.7H47.5V272.1z"></path> <path class="st5" d="M86.2,266.9v1.8h21v-1.8H86.2z M86.2,272.1h12.9v-1.7H86.2V272.1z"></path> <path class="st5" d="M125,266.9v1.8h21v-1.8H125z M125,272.1h12.9v-1.7H125V272.1z"></path> <path class="st5" d="M163.7,266.9v1.8h20.9v-1.8H163.7z M163.7,272.1h12.9v-1.7h-12.9V272.1z"></path> <path class="st5" d="M202.4,266.9v1.8h21v-1.8H202.4z M202.4,272.1h12.9v-1.7h-12.9V272.1z"></path> <path class="st5" d="M47.5,319.7v1.7h21v-1.7H47.5z M47.5,324.9h12.9v-1.7H47.5V324.9z"></path> <path class="st5" d="M86.2,319.7v1.7h21v-1.7H86.2z M86.2,324.9h12.9v-1.7H86.2V324.9z"></path> <path class="st5" d="M125,319.7v1.7h21v-1.7H125z M125,324.9h12.9v-1.7H125V324.9z"></path> <path class="st5" d="M163.7,319.7v1.7h20.9v-1.7H163.7z M163.7,324.9h12.9v-1.7h-12.9V324.9z"></path> <path class="st5" d="M202.4,319.7v1.7h21v-1.7H202.4z M202.4,324.9h12.9v-1.7h-12.9V324.9z"></path> <path class="st15" d="M234.7,215.3v12.2c0,1.3-1.1,2.4-2.4,2.4H38.6c-1.3,0-2.4-1.1-2.4-2.4v-12.2c0-1.3,1.1-2.4,2.4-2.4h193.8 C233.6,213,234.7,214,234.7,215.3z"></path> <path class="st16" d="M119.6,219.5H95.2c-1.1,0-1.9,0.9-1.9,1.9s0.9,1.9,1.9,1.9c0,0,0,0,0,0h24.4c1.1,0,1.9-0.9,1.9-1.9 S120.7,219.5,119.6,219.5C119.6,219.5,119.6,219.5,119.6,219.5z M153.2,219.5h-24.4c-1.1,0-1.9,0.9-1.9,1.9s0.9,1.9,1.9,1.9 c0,0,0,0,0,0h24.4c1.1,0,1.9-0.9,1.9-1.9C155.2,220.4,154.3,219.5,153.2,219.5L153.2,219.5z M186.9,219.5h-24.4 c-1.1,0-1.9,0.9-1.9,1.9s0.9,1.9,1.9,1.9c0,0,0,0,0,0h24.4c1.1,0,1.9-0.9,1.9-1.9C188.8,220.4,188,219.5,186.9,219.5z"></path> <path class="st16" d="M43.8,217h12.7c1,0,1.8,0.8,1.8,1.8v5.4c0,1-0.8,1.8-1.8,1.8H43.8c-1,0-1.8-0.8-1.8-1.8v-5.4 C42.1,217.8,42.9,217,43.8,217z"></path> <path class="st17" d="M233.7,282.8H37.2c-0.5,0.1-1.1-0.2-1.2-0.7c-0.1-0.5,0.2-1.1,0.7-1.2c0.2,0,0.3,0,0.5,0h196.5 c0.5-0.1,1.1,0.2,1.2,0.7s-0.2,1.1-0.7,1.2C234,282.8,233.9,282.8,233.7,282.8z"></path> <path class="st5" d="M217.4,346l-0.1,5.6l67.5,0.7l0.1-5.6L217.4,346z M259,357.8l-41.5-0.4l-0.1,5.6l41.5,0.4L259,357.8z"></path> <rect x="106.1" y="121.7" class="st12" width="0.7" height="4.2"></rect> <path class="st12" d="M106.8,161.9h-0.7v-9h0.7V161.9z M106.8,143.9h-0.7v-9h0.7V143.9z"></path> <polygon class="st12" points="110.6,175.4 106.1,175.4 106.1,170.9 106.8,170.9 106.8,174.7 110.6,174.7 "></polygon> <path class="st12" d="M136.7,175.4h-6.5v-0.7h6.5V175.4z M123.7,175.4h-6.5v-0.7h6.5V175.4z"></path> <rect x="143.2" y="174.7" class="st12" width="4.2" height="0.7"></rect> <rect x="297.9" y="322.5" class="st12" width="4.2" height="0.7"></rect> <rect x="310.7" y="322.5" class="st12" width="8.7" height="0.7"></rect> <polygon class="st12" points="332.6,323.2 328.1,323.2 328.1,322.5 331.9,322.5 331.9,318.7 332.6,318.7 "></polygon> <path class="st12" d="M332.6,310.1h-0.7v-8.6h0.7V310.1z M332.6,292.9h-0.7v-8.6h0.7V292.9z M332.6,275.8h-0.7v-8.6h0.7V275.8z M332.6,258.6h-0.7V250h0.7V258.6z"></path> <rect x="331.9" y="237.2" class="st12" width="0.7" height="4.2"></rect> <g> <path class="st18" d="M296.3,251.2h1.1c0.3,0,0.6,0.3,0.6,0.6v16.9c0,0.3-0.3,0.6-0.6,0.6h-1.1c-0.3,0-0.6-0.3-0.6-0.6v-16.9 C295.7,251.5,295.9,251.2,296.3,251.2z"></path> <path class="st18" d="M223.4,237.1L223.4,237.1c0.4,0,0.7,0.3,0.7,0.6v4.8c0,0.3-0.3,0.6-0.6,0.6h-0.1c-0.3,0-0.6-0.3-0.6-0.6 v-4.8C222.8,237.3,223.1,237.1,223.4,237.1z"></path> <path class="st18" d="M223.3,248h0.3c0.3,0,0.6,0.3,0.6,0.6v9.2c0,0.3-0.3,0.6-0.6,0.6h-0.3c-0.3,0-0.6-0.3-0.6-0.6v-9.2 C222.8,248.2,223,248,223.3,248z"></path> <path class="st18" d="M223.4,261.9h0.2c0.3,0,0.6,0.3,0.6,0.6v9.3c0,0.3-0.3,0.6-0.6,0.6h-0.2c-0.3,0-0.6-0.3-0.6-0.6v-9.3 C222.8,262.2,223.1,261.9,223.4,261.9z"></path> <path class="st2" d="M233.2,217.4h54.1c5.3,0,9.7,4.3,9.7,9.7v129.8c0,5.3-4.3,9.7-9.7,9.7h-54.1c-5.3,0-9.7-4.3-9.7-9.7V227.1 C223.5,221.7,227.8,217.4,233.2,217.4z"></path> <path class="st19" d="M286.5,221.3h-8.4v1c0,2.6-2.1,4.8-4.8,4.8c0,0,0,0,0,0h-26.8c-2.6,0-4.8-2.1-4.8-4.8c0,0,0,0,0,0v-1h-7.9 c-3.2,0-5.8,2.6-5.8,5.8v0v129.7c0,3.2,2.6,5.8,5.8,5.8h52.7c3.2,0,5.8-2.6,5.8-5.8V227.1C292.4,223.9,289.8,221.3,286.5,221.3 C286.5,221.3,286.5,221.3,286.5,221.3z"></path> <path class="st20" d="M254.1,221.9h8.3c0.5,0,1,0.4,1,1v0.2c0,0.5-0.4,1-1,1h-8.3c-0.5,0-1-0.4-1-1v-0.2 C253.1,222.3,253.5,221.9,254.1,221.9z"></path> <circle class="st20" cx="266.1" cy="222.9" r="1.2"></circle> <circle class="st5" cx="260.6" cy="293.8" r="13.9"></circle> <path class="st21" d="M278.9,291.9c0,10.2-8.3,18.5-18.5,18.5s-18.5-8.3-18.5-18.5s8.3-18.5,18.5-18.5S278.9,281.7,278.9,291.9 L278.9,291.9z M258.2,301.8l13.8-13.8c0.5-0.5,0.5-1.2,0-1.7c0,0,0,0,0,0l-1.7-1.7c-0.5-0.5-1.2-0.5-1.7,0c0,0,0,0,0,0l-11.2,11.2 l-5.2-5.3c-0.5-0.5-1.2-0.5-1.7,0l-1.7,1.7c-0.5,0.5-0.5,1.2,0,1.7l7.8,7.8C257,302.2,257.7,302.2,258.2,301.8 C258.2,301.8,258.2,301.8,258.2,301.8L258.2,301.8z"></path> </g> </g> </svg> 