<?xml version="1.0" encoding="UTF-8"?> <svg xmlns="http://www.w3.org/2000/svg" viewBox="0 0 392.95 394"><defs><style>.cls-1,.cls-13,.cls-20{fill:#00a7e1;}.cls-1{opacity:0.4;}.cls-2{opacity:0.9;}.cls-3{fill:#606060;}.cls-4{fill:#b7b7b7;}.cls-5{fill:#939393;}.cls-11,.cls-6{fill:#fff;}.cls-21,.cls-7{fill:#003058;}.cls-8{fill:#bebebe;}.cls-12,.cls-9{fill:#e9e9e9;}.cls-10{opacity:0.8;}.cls-11,.cls-12,.cls-14{opacity:0.6;}.cls-15{fill:#acabab;}.cls-16{fill:#e3e3e3;}.cls-17{fill:#f7f6f0;}.cls-18{fill:#92b7c2;}.cls-19{fill:#b6e8fb;}.cls-20,.cls-21,.cls-22,.cls-23{fill-rule:evenodd;}.cls-22{fill:#666;}.cls-23{fill:#d4d4d4;}</style></defs><title>digital-river-content-graphics-v1_isolated</title><g id="Layer_2" data-name="Layer 2"><path class="cls-1" d="M196.5,389.58h-.11c-1.36,0-2.73,0-4.09,0h0v-.84c1.36,0,2.72,0,4.09,0l.09.83v0Zm4.17-.05h0v-.84c1.39,0,2.78-.07,4.16-.13l0,.42,0-.42.06.83v0c-1.39.07-2.79.11-4.19.14v0Zm-12.54-.13h0c-1.4-.06-2.8-.13-4.19-.22h0l.09-.84c1.38.09,2.77.16,4.17.22l0,.43,0-.42Zm16.77,0,0-.42Zm4.16-.22-.06-.84c1.39-.09,2.78-.2,4.17-.32l0,.43V388l.08.84h0C211.85,389,210.45,389.08,209.06,389.17Zm-29.3-.3v0Zm0,0c-1.4-.12-2.79-.26-4.18-.41l.09-.83c1.38.15,2.77.28,4.16.4l0,.42V388l0,.83,0-.29Zm37.63-.42,0-.84c1.39-.15,2.77-.32,4.15-.5l.06.41-.06-.41.14.83h0c-1.38.19-2.77.35-4.16.5h-.06Zm-46-.48c-1.39-.18-2.78-.38-4.16-.59l0-.19,0,.19.11-.83-.08.66.1-.66c1.37.21,2.75.4,4.13.58h0l-.11.84,0-.19h0Zm54.32-.61-.1-.84c1.38-.21,2.75-.43,4.12-.67l.17.82-.07-.29,0,.29-.08-.41.07.42c-1.37.24-2.75.46-4.14.67Zm-62.6-.65,0-.19,0,.19.06-.42-.07.41c-1.38-.24-2.75-.49-4.12-.76h0l.19-.82c1.36.27,2.73.53,4.11.77Zm70.87-.8-.18-.82.11.39-.08-.4c1.37-.27,2.73-.55,4.08-.85h0l.19.82-.07-.29.06.29c-1.36.3-2.72.59-4.09.86h0l-.06-.29Zm4-1.28,0,.18Zm-83.12.46h0c-1.37-.3-2.72-.62-4.08-.95l.2-.81c1.35.33,2.71.64,4.07.94l-.1.45.11-.45Zm87.24-1-.14-.82c1.36-.33,2.7-.68,4-1l.11.41-.06-.42.2.81h0c-1.34.36-2.7.71-4.06,1h-.06Zm-95.37-1,.07-.42Zm0,0c-1.36-.36-2.7-.74-4-1.13l.07-.28-.09.28.23-.81-.09.4.11-.39c1.33.38,2.68.76,4,1.12l-.1.4.05-.42-.18.82.08-.23Zm103.56-1.17-.21-.81h0c1.33-.39,2.66-.8,4-1.21l.12.38-.1-.39.25.8h0c-1.33.42-2.67.82-4,1.21h0Zm-111.6-1.17.07-.28-.09.28.12-.4-.12.4c-1.34-.42-2.68-.86-4-1.31h0l.3-.79h0c1.32.44,2.65.88,4,1.3Zm119.62-1.36-.29-.79Zm0,0-.27-.79c1.32-.45,2.63-.92,3.94-1.39l.28.79v0C260.94,378.49,259.62,379,258.3,379.4Zm-127.61-1.34h0q-2-.72-3.93-1.47h0l.29-.78-.11.34.13-.34c1.3.51,2.61,1,3.92,1.48l-.15.41.15-.41Zm135.47-1.52-.29-.79Zm0,0-.3-.78c1.29-.51,2.58-1,3.86-1.56l.16.39-.14-.4.33.77,0,0h0C268.77,375.5,267.48,376,266.18,376.53ZM122.86,375l.14-.4Zm0,0c-1.3-.54-2.59-1.09-3.87-1.66l.17-.38v0l.18-.41c1.28.57,2.56,1.11,3.85,1.65l-.16.4.13-.41-.31.78.14-.28Zm151-1.67-.3-.78c1.27-.56,2.54-1.14,3.79-1.73l.38.76h0l-.2-.4.19.41c-1.26.59-2.53,1.16-3.81,1.72h0Zm-158.73-1.72c-1.27-.6-2.54-1.2-3.79-1.83l.37-.75c1.25.62,2.51,1.22,3.77,1.81l-.19.41.21-.4Zm-3.79-1.83h0l.37-.75Zm170.13,0-.37-.75.33.64-.32-.65c1.24-.61,2.48-1.24,3.71-1.88l.19.37-.18-.38.38.75h0c-1.24.65-2.48,1.28-3.73,1.89ZM107.61,367.9h0l.19-.38-.2.38c-1.24-.65-2.48-1.31-3.71-2l0,0,.45-.71q1.83,1,3.69,2Zm181.29-2-.21-.37h0l-.21-.38c1.22-.67,2.43-1.35,3.63-2.05l.21.37-.23-.35.43.72-.12-.24.13.23C291.34,364.56,290.12,365.24,288.9,365.92Zm-188.65-2.06,0,0h0c-1.21-.7-2.42-1.41-3.61-2.14l.22-.36h0l.23-.37c1.19.72,2.39,1.44,3.59,2.13l-.2.36.23-.34Zm192.32,0-.23-.36Zm3.53-2.1-.39-.74c1.19-.73,2.37-1.46,3.54-2.21l.22.35-.18-.37.42.72h0c-1.18.75-2.36,1.49-3.55,2.21h0Zm-203-2.25.2-.37Zm0,0c-1.18-.76-2.35-1.52-3.51-2.3h0l0,0,.5-.68c1.15.77,2.32,1.54,3.5,2.29l-.23.36.19-.38Zm210.16-2.26-.49-.68.25.32-.22-.34c1.15-.77,2.3-1.56,3.44-2.35l.24.34-.3-.3.54.64h0c-1.14.8-2.29,1.59-3.46,2.37l-.23-.35.23.35h0l-.15-.22ZM86.08,354.81h0c-1.14-.8-2.27-1.61-3.39-2.44h0l-.06,0,.35-.35.21-.28c1.12.82,2.26,1.63,3.4,2.43l-.25.35.3-.3Zm220.64,0-.29-.31Zm3.35-2.4-.25-.34h0l-.25-.35c1.12-.82,2.23-1.65,3.34-2.5l.25.33-.3-.29.54.64-.16-.24.18.23C312.31,350.75,311.19,351.58,310.07,352.41Zm3.39-2.55-.29-.3Zm-234.13,0,0,0h0c-1.11-.85-2.21-1.72-3.3-2.59h0l-.08-.07.36-.28,0,0,0,0,.29-.23-.29.23.23-.29c1.09.87,2.18,1.74,3.29,2.58l-.26.34.3-.3Zm237.35-2.52-.21-.32-.36-.29.08-.06h0c1.08-.87,2.16-1.75,3.22-2.64h0l0,0,.23.35.32.27-.3-.24.24.3c-1.07.9-2.15,1.78-3.24,2.66l-.24-.3Zm3-3,.06.07ZM76.25,346.9l.24-.34Zm-3.45-2.29,0,0h0q-1.6-1.35-3.18-2.73h0l-.06-.05.33-.27.24-.34-.22.32h0l.24-.27,3.17,2.72-.24.3.3-.24-.3.24Zm-2.94-3.12,0,0,0,0Zm253.23.46-.21-.32-.36-.28.06-.06h0c1-.92,2.08-1.84,3.1-2.78h0l.56.63-.14-.17.15.16c-1,.94-2.07,1.88-3.12,2.8l-.26-.29Zm-.23-.35h0ZM66.47,339.05l0,0c-1-.94-2-1.89-3.05-2.85l.27-.29-.3.24.3-.24.25-.37.06.05h0c1,1,2,1.91,3.05,2.86l-.27.29.28-.28Zm262.79-2.74-.26-.38,0,0,0,0-.2-.3.2.3-.25-.26c1-1,2-1.94,3-2.92l.29.3h0l0,0,.35.28,0,0h0q-1.49,1.49-3,2.94h0ZM329,336l-.32-.27ZM60.45,333.28l.22-.32-.28.27q-1.48-1.49-2.94-3l.31-.29h0l.31-.29c1,1,1.94,2,2.92,3h0l0,0-.33.26Zm.23-.35-.06.06Zm274.53-2.56-.56-.62c1-1,1.91-2,2.86-3.05l.31.28-.27-.32.6.58,0,0h0c-.94,1-1.9,2.05-2.87,3.06h0ZM54.63,327.21l.27-.31Zm0,0c-1-1-1.88-2.07-2.8-3.12l.31-.28h0l.32-.28c.91,1,1.84,2.08,2.79,3.1l-.31.29.26-.32-.59.59.22-.17Zm286.29-3-.32-.38-.26-.23c.92-1,1.83-2.1,2.72-3.17l.32.27-.29-.29.63.55h0c-.91,1.07-1.82,2.13-2.74,3.19h0Zm-291.8-3.3.3-.29Zm0,0c-.89-1.07-1.78-2.15-2.66-3.24h0l0,0,.68-.49c.87,1.09,1.75,2.16,2.65,3.23l-.32.27.29-.3Zm297.28-3.15-.68-.49.35.23-.32-.27c.87-1.08,1.73-2.18,2.58-3.28l.68.49-.25-.17.24.19-.34-.26.34.26C348.07,315.53,347.21,316.63,346.33,317.72ZM43.82,314.35h0c-.85-1.11-1.69-2.23-2.51-3.35h0l0,0,.69-.47c.83,1.12,1.66,2.23,2.51,3.33l-.34.26.36-.23Zm307.62-3.27-.68-.49.41.27-.4-.29c.83-1.12,1.64-2.26,2.44-3.4l.35.24-.33-.26.68.49v0c-.8,1.14-1.62,2.28-2.45,3.41l-.25-.18ZM38.86,307.6l.24-.19-.26.17c-.8-1.14-1.59-2.29-2.36-3.45l.25-.17-.26.17.68-.51-.35.29.37-.25c.78,1.16,1.56,2.3,2.36,3.44Zm.33-.26-.32.22Zm317.06-3.11-.67-.5c.78-1.16,1.54-2.33,2.29-3.5l.35.22-.32-.26.68.49h0c-.76,1.18-1.52,2.35-2.3,3.51h0ZM34.19,300.64v0h0c-.75-1.17-1.49-2.36-2.21-3.55h0l0-.07.45-.18.3-.19c.73,1.19,1.46,2.37,2.21,3.54l-.36.23.4-.16Zm326.61-3.53-.72-.43c.73-1.19,1.44-2.39,2.14-3.6h0l0,0,.35.23.39.14-.36-.12.33.2h0C362.24,294.72,361.53,295.92,360.8,297.11Zm1.78-3.82.14.08Zm-332.73.21,0,0h0c-.7-1.21-1.38-2.42-2.06-3.65h0l0-.07.4-.14.35-.22-.32.21h0l.32-.18c.67,1.22,1.35,2.43,2,3.63l-.36.21h0Zm-1.68-3.9,0,0,.05,0Zm336.83.27-.32-.21-.44-.15,0-.07h0q1-1.85,2-3.69h0l0-.05.35.23.4.14-.37-.12.34.19c-.65,1.24-1.31,2.47-2,3.7l-.33-.18Zm-.35-.23Zm2-3.7.09.05Zm-340.8.24,0,0h0c-.65-1.24-1.28-2.48-1.9-3.73h0l0-.06.4-.14.36-.22-.32.21.34-.16c.62,1.24,1.25,2.48,1.89,3.71l-.37.19h0Zm-1.51-4,0,0,.06,0Zm344.57.23-.32-.21-.43-.14,0-.06h0c.62-1.26,1.23-2.51,1.82-3.78l.37.18-.36-.21.77.33,0,.06h0c-.6,1.27-1.2,2.53-1.82,3.79l-.35-.17Zm-.35-.23ZM22.12,278.69l.32-.21-.35.16c-.59-1.26-1.17-2.53-1.73-3.81l.76-.34c.57,1.27,1.14,2.54,1.73,3.79h0l0,.06-.4.13Zm.35-.23-.07,0Zm350-3.64-.74-.39c.56-1.28,1.11-2.56,1.65-3.85l.39.16-.37-.21.77.33,0,0h0q-.81,2-1.65,3.87h0ZM18.74,271l.36-.2Zm0-.05c-.53-1.29-1.05-2.58-1.56-3.88l.39-.15h0l.39-.15c.51,1.29,1,2.58,1.56,3.86l-.39.16.36-.21-.75.35.27-.09Zm357-3.93-.42-.24-.33-.13c.51-1.3,1-2.61,1.48-3.92l.39.14-.36-.21.76.34h0c-.48,1.31-1,2.61-1.48,3.91h0Zm-360-3.81.37-.2Zm0-.06c-.48-1.32-.94-2.63-1.4-4l.16-.05-.16.05v0l.81-.24c.45,1.32.91,2.63,1.39,3.94l-.4.14.37-.21-.76.35.06,0Zm362.9-4.11-.8-.24.4.11-.39-.14c.45-1.32.88-2.65,1.3-4l.38.12-.38-.13.81.24v0c-.42,1.34-.86,2.67-1.31,4l-.39-.13.39.13ZM13,255.24h0c-.43-1.33-.83-2.67-1.22-4l.4-.12-.4.12.4-.12-.4.12.79-.26-.39.14.4-.12c.39,1.34.8,2.67,1.22,4Zm.11,0h0l.33-.09Zm368-4.12-.8-.26c.39-1.33.76-2.68,1.12-4l.41.11-.4-.14.81.24h0c-.36,1.36-.74,2.7-1.13,4h0ZM10.62,247.21l.4-.12-.4.11.3-.09-.3.08c-.37-1.35-.71-2.7-1-4.07h0l0-.1H10l.4-.11L10,243h0l.37-.09c.33,1.35.68,2.7,1,4ZM10,243h0Zm373.25,0-.37-.11h-.46l0-.11h0c.33-1.35.64-2.71.94-4.07h0v0l.41.11h0l.37.09c-.3,1.37-.61,2.73-.95,4.09l-.37-.09Zm.54-4.2.15,0Zm-375.17.29v0h0c-.3-1.36-.59-2.73-.86-4.11h0v-.09h.42l.4-.1-.37.1h0l.36-.07c.27,1.37.56,2.73.86,4.09l-.37.09h0ZM9,239H9Zm-.83-4.11h0Zm376.86,0-.37-.11h-.45v-.09h0c.27-1.36.52-2.73.76-4.1h0v-.06l.41.12h0l.38.07c-.24,1.38-.5,2.76-.77,4.13l-.38-.08Zm.37-4.23.09,0ZM7,230.86v-.05H7c-.25-1.37-.47-2.75-.69-4.14h0v-.07h.42l.4-.11-.37.11h0l.35-.06c.22,1.38.44,2.76.68,4.12l-.38.08h0Zm-.25-4.26h0Zm379.76,0-.37-.1h-.46v-.07h0c.21-1.38.4-2.76.58-4.14l.42,0h.42v.07h0c-.18,1.39-.38,2.77-.59,4.15l-.38-.05Zm-.4-.11h0ZM5.73,222.6l.37-.13-.39.05c-.18-1.39-.35-2.77-.5-4.17l.39,0h0l.43-.15v.1h0c.15,1.39.31,2.77.49,4.15h0v.06H6.13Zm.4-.14h0Zm-.5-4.15Zm382,0-.4-.13h0l-.37,0c.15-1.38.28-2.76.4-4.15l.42,0H388v0h0c-.12,1.39-.26,2.79-.41,4.17h0Zm-.44-.15h0ZM4.82,214.27l.37-.12-.39,0c-.12-1.39-.23-2.79-.32-4.19l.39,0h0l.43-.15,0,.12h0v0h0c.09,1.38.2,2.76.32,4.13h0v.05H5.22Zm.4-.13h0ZM4.9,210Zm383.4,0-.4-.13h0l-.38,0c.09-1.39.16-2.78.22-4.17h.41l.43,0c-.06,1.4-.14,2.79-.23,4.18h0Zm-.43-.15h0Zm-383.62-4h0c-.06-1.39-.1-2.78-.13-4.18l.8,0H5c0,1.4.07,2.78.13,4.17l-.42,0H4.25Zm384.43-4.36h-.27l-.57,0c0-1.38.05-2.78.05-4.17v-.35h.84v.35c0,1.4,0,2.79-.05,4.19Zm-384.61-4v-.19c0-1.34,0-2.68,0-4H5c0,1.33,0,2.66,0,4v.18Zm384.66-.54h0Zm-.89-4.18h0c0-1.39-.08-2.78-.14-4.17l.43,0h-.43l.84,0h0c.06,1.39.11,2.79.14,4.18l-.81,0h0ZM5.08,189.07H4.66l-.42,0c.06-1.4.13-2.8.22-4.19h0l0-.12.43.15h0l.36.12-.36-.12.38,0C5.21,186.29,5.14,187.68,5.08,189.07Zm-.17-4.19h0Zm382.58-.39,0-.11h0v0h0c-.09-1.38-.2-2.76-.32-4.14h0v0h.42l.4-.13-.37.13.39,0c.12,1.39.23,2.78.32,4.18l-.39,0h0Zm.39-.14Zm-.29-4.18h0Zm-382,.57-.42,0H4.77v0h0c.12-1.4.26-2.79.4-4.18h0l0-.1.42.15h0l.35.12-.35-.12.37,0C5.86,178,5.73,179.35,5.61,180.74Zm0-4.2h0Zm381.13-.39v-.09h0c-.15-1.39-.32-2.77-.5-4.15h0v-.07h.42l.4-.12-.37.12.39,0c.18,1.38.35,2.77.5,4.16l-.38,0h0Zm-.08-4.3h0Zm-380.19.66-.37-.12H5.66v-.06h0c.18-1.38.37-2.77.58-4.15l.38.05-.37-.1.37.1h.46v.08h0c-.21,1.37-.4,2.75-.58,4.13l-.39,0Zm-.4-.13Zm.58-4.15h0Zm379-.4.4-.11Zm0-.06c-.22-1.37-.44-2.75-.69-4.12l.42-.07h0l.44-.12v0h0q.36,2.06.69,4.14h0v.07H386ZM7.74,164.23l-.41-.12h0L6.92,164c.25-1.38.5-2.76.77-4.13l.38.08-.37-.11.37.11h.45v.09h0c-.26,1.36-.52,2.73-.76,4.1h0Zm-.44-.13h0Zm376.89-4.52.4-.1Zm0,0c-.27-1.37-.56-2.73-.86-4.09l.41-.09h0l.44-.12v0h0c.3,1.36.59,2.73.86,4.1h0v.09h-.47ZM9.36,156,9,155.9h0l-.38-.09c.31-1.37.62-2.73,1-4.09l.38.09-.37-.11.37.11h.45l0,.11h0c-.33,1.35-.65,2.7-.94,4.07h0Zm-.44-.12H9l-.16,0Zm373.45-4.48.41-.1Zm0,0c-.34-1.36-.68-2.71-1.05-4.05l.81-.23-.4.11.4-.11-.29.09.29-.08c.37,1.35.72,2.7,1.05,4.06h0l0,.11h-.46l0,0,0,0h0Zm-371-3.52-.81-.23h0c.36-1.35.73-2.7,1.12-4h0v0l.8.26c-.39,1.33-.76,2.67-1.12,4l-.4-.11Zm368.87-4.53.4-.14-.41.12c-.39-1.34-.79-2.67-1.21-4l.41-.13-.42.12.8-.26v0c.42,1.33.83,2.67,1.22,4l-.4.12.4-.11-.4.11.4-.11ZM13.66,139.84l-.81-.24v0c.42-1.34.86-2.67,1.31-4l.39.14-.39-.14h0l.8.24-.4-.1.39.13c-.45,1.32-.88,2.65-1.3,4l-.4-.13Zm364-4.47v0h0c-.45-1.31-.91-2.62-1.39-3.92l.39-.15-.36.21.76-.35c.48,1.31.94,2.63,1.4,4l-.12,0,.12,0v0ZM16.35,131.89l-.8-.26.33.1-.32-.12c.48-1.32,1-2.64,1.48-3.94h0l0-.07.42.24.33.13C17.32,129.27,16.83,130.58,16.35,131.89Zm360.32-.62.37-.19Zm.32-.1.08,0h0Zm-2.19-3.65c-.51-1.29-1-2.58-1.56-3.86l.39-.16-.36.21.75-.35-.27.09.27-.11c.53,1.28,1.05,2.58,1.56,3.88ZM19.36,124.13l-.77-.33,0,0h0q.8-2,1.65-3.87h0l0,0,.75.39c-.57,1.28-1.11,2.56-1.65,3.85l-.39-.16Zm354.27-.64.36-.2Zm-2-3.65c-.56-1.27-1.14-2.53-1.73-3.79h0l0,0,.4-.14.35-.22-.32.21.35-.16c.59,1.27,1.17,2.53,1.74,3.81l-.39.17h0Zm-1.32-4,0,0,.08,0Zm-347.54.6-.77-.34,0,0h0c.59-1.27,1.2-2.54,1.82-3.79l.35.16-.32-.21.32.21.43.15,0,.06h0c-.61,1.25-1.22,2.51-1.81,3.78l-.37-.18Zm1.44-4h0Zm343.91-.1.32-.22h0l-.31.16c-.62-1.25-1.25-2.48-1.9-3.71l.38-.2,0,0,.38-.26,0,0h0c.64,1.23,1.28,2.48,1.9,3.73h0l0,.06-.39.13Zm.35-.23-.06,0ZM26.43,109l-.35-.23-.39-.14.36.12-.34-.18c.65-1.25,1.31-2.48,2-3.71L28,105l-.32-.21L28,105l.44.15,0,.07h0c-.67,1.22-1.33,2.45-2,3.69h0Zm-.38-.25h0l-.07,0Zm2-3.69ZM364.22,105l.35-.23Zm0,0c-.67-1.22-1.35-2.43-2.05-3.63l.36-.21h0l.38-.25v0h0c.7,1.21,1.38,2.42,2.06,3.64h0l0,.08-.43.15,0,0-.05,0-.34.12.34-.12ZM30.47,101.6l-.35-.23-.4-.14.37.12-.33-.2c.7-1.21,1.41-2.42,2.14-3.62l.36.22h0l.36.22c-.72,1.19-1.44,2.39-2.13,3.6h0Zm-.38-.25h0l-.13-.07ZM360,97.71c-.73-1.19-1.46-2.37-2.21-3.54l.35-.22-.39.15.74-.39h0c.75,1.17,1.48,2.35,2.21,3.54h0l0,.07-.44.18ZM34.83,94.42l-.35-.23.38.16L34.12,94c.75-1.18,1.52-2.36,2.3-3.52h0l0,0,.67.51C36.34,92.08,35.58,93.24,34.83,94.42Zm-.36-.22L34.08,94Zm321.08-3.48.32-.26-.34.23c-.78-1.16-1.57-2.31-2.37-3.44l.68-.51-.24.2.25-.18h0q1.2,1.71,2.37,3.45l-.2.13.2-.13Zm-2-3.78-.08.06.28-.19Zm-314.13.55L38.78,87v0c.8-1.14,1.62-2.28,2.45-3.41l.25.18-.24-.19.68.49-.39-.26.38.28c-.83,1.12-1.64,2.26-2.44,3.4l-.35-.24Zm311.27-3.63h0c-.82-1.11-1.66-2.22-2.5-3.32l.34-.27-.36.24.67-.5v0h0c.86,1.1,1.7,2.22,2.52,3.34h0l0,0ZM44.43,80.73l-.69-.49.26.17-.24-.19.33.25-.33-.26c.85-1.11,1.72-2.21,2.59-3.3l.69.49-.36-.22.33.26C46.13,78.53,45.27,79.62,44.43,80.73Zm301.21-3.48c-.88-1.08-1.76-2.16-2.65-3.22l.32-.27-.3.29.62-.56h0c.9,1.07,1.79,2.14,2.66,3.23v0l0,0Zm-296-3L49,73.68h0c.9-1.07,1.81-2.13,2.73-3.19h0l0,0,.31.37.27.24c-.92,1-1.83,2.1-2.72,3.17L49.35,74Zm293.66-.49.3-.29Zm-3-2.89c-.92-1-1.85-2.08-2.79-3.1l.31-.29-.27.33.59-.6-.21.18.2-.19c1,1,1.88,2.07,2.8,3.12ZM55.13,68l-.6-.58,0,0h0c.94-1,1.9-2,2.87-3.06h0l0,0,.56.62c-1,1-1.91,2-2.85,3.05l-.3-.28Zm282.64-.5.28-.32Zm-3.15-2.76c-1-1-1.94-2-2.93-3h0l0,0,.33-.26.24-.35-.22.33.29-.27c1,1,2,2,2.93,3ZM332,61.41l0,0,.07-.07Zm-271.12.53-.21-.32-.36-.28,0,0h0q1.49-1.48,3-2.94h0l.06-.06.25.38,0,0,0,0,.21.31-.21-.31.26.27c-1,1-2,1.94-3,2.92l-.28-.27Zm-.23-.35h0ZM64,58.93l-.33-.27Zm264.8-.07-.06,0h0q-1.51-1.44-3.06-2.85l.29-.31-.3.29.56-.62,0,0c1,.94,2,1.9,3.07,2.86l-.27.29.3-.24-.3.24ZM67,56.11l-.56-.62.13.15-.13-.15c1-.94,2.07-1.87,3.12-2.8l.26.29-.22-.32.22.32.35.28-.06.06h0C69,54.24,68,55.17,67,56.11ZM322.58,53.2l.25-.34Zm0,0c-1.05-.92-2.11-1.82-3.17-2.72l.27-.32,0,0,.25-.38.05,0h0q1.6,1.35,3.18,2.73h0l.06.06-.35.28,0,0,0,0-.28.22.28-.22ZM73.2,50.64,73,50.29,72.65,50l.3.24-.24-.3c1.07-.9,2.15-1.79,3.23-2.66l.25.3L76,47.28l.22.32.35.28-.07.07h0c-1.08.87-2.16,1.76-3.22,2.65h0ZM73,50.26l0,0-.06-.06Zm3.26-2.64h0Zm240,.2.24-.34Zm0,0c-1.09-.87-2.19-1.73-3.29-2.58l.26-.33-.3.29.52-.65,0,0h0c1.11.86,2.21,1.72,3.3,2.6h0l.08.07-.36.28,0,0,0,0-.29.23.29-.23ZM79.75,45.37,79.49,45l.3.3-.54-.64.17.24-.18-.23c1.1-.85,2.22-1.69,3.35-2.52l.25.34h0l.25.34C82,43.69,80.85,44.53,79.75,45.37Zm-.26-.32-.29-.31Zm230-2.34c-1.12-.82-2.25-1.63-3.4-2.43l.25-.35-.3.3.52-.65h0c1.14.8,2.27,1.61,3.4,2.43h0l.06,0-.35.35Zm-223-2.28-.24-.34.3.29L86,39.74l0,0,0,0q1.71-1.2,3.45-2.37l.24.35-.07-.09,0,0-.2-.31.49.68-.26-.32.23.34C88.75,38.85,87.61,39.63,86.47,40.43Zm-.25-.34-.29-.3Zm216.43-2.17c-1.15-.78-2.32-1.54-3.5-2.29l.23-.36-.19.38.41-.73c1.18.75,2.36,1.52,3.52,2.3l0,0ZM93.36,35.81l-.43-.72h0c1.17-.75,2.36-1.49,3.55-2.22h0l0,0,.4.74c-1.19.72-2.37,1.46-3.54,2.21l-.23-.35Zm206-.54.19-.37Zm-3.77-1.85q-1.78-1.08-3.6-2.13l.21-.37-.24.35.42-.73,0,0h0c1.21.7,2.42,1.42,3.61,2.14l-.21.36h0Zm-195.08-2-.22-.38.24.37Zm0,0-.43-.72.13.26-.14-.26c1.2-.7,2.42-1.38,3.64-2L104,29l0,0,.22.39C102.94,30.07,101.74,30.75,100.54,31.44Zm-.24-.35-.22-.35Zm188.05-1.85q-1.83-1-3.69-2l.37-.75h0l-.19.37.2-.37c1.24.64,2.47,1.3,3.69,2h0l0,0ZM107.81,27.43l-.38-.74h0c1.23-.65,2.48-1.28,3.73-1.9h0l.37.75-.36-.7.35.7c-1.24.62-2.48,1.25-3.71,1.89l-.17-.33Zm173.12-2.05.37-.76h0Zm0,0c-1.26-.61-2.51-1.22-3.78-1.81l.18-.38-.19.38.36-.76h0c1.27.6,2.53,1.2,3.79,1.82ZM115.28,23.73l-.37-.75h0l.2.4-.19-.41c1.26-.59,2.53-1.16,3.8-1.73h0l0,0,.29.79C117.8,22.57,116.54,23.15,115.28,23.73Zm158-1.89c-1.27-.56-2.56-1.11-3.85-1.64l.16-.38-.13.39.31-.78-.13.25.11-.26q1.95.81,3.87,1.65ZM122.87,20.38l-.33-.77,0,0c1.29-.53,2.58-1.05,3.88-1.56l.15.39h0l-.13-.39.29.79-.13-.33.13.33c-1.3.51-2.58,1-3.86,1.56l-.17-.4Zm146.76-.58.14-.39Zm-4-1.16.1-.31-.12.31c-1.3-.51-2.61-1-3.92-1.47l.16-.46-.17.46.27-.8h0c1.32.47,2.63,1,3.94,1.47h0Zm-135-1.3-.28-.79v.05l0-.05c1.32-.48,2.63-1,4-1.4l.27.8C133.28,16.39,132,16.86,130.66,17.34Zm4-1.4-.29-.79Zm123.09-.16c-1.32-.45-2.65-.88-4-1.3l.23-.81-.07.29.09-.28-.12.4.13-.4c1.34.42,2.67.86,4,1.31h0ZM138.54,14.65l-.24-.8h0c1.33-.42,2.67-.83,4-1.22h0l.21.82h0c-1.34.39-2.67.79-4,1.21l-.13-.4Zm111.21-1.36.08-.38-.1.37c-1.34-.39-2.68-.76-4-1.12l.11-.4-.05.41.17-.82-.08.24.07-.24c1.35.36,2.7.73,4,1.12l-.08.28.09-.27Zm-103.22-1-.19-.81h0c1.35-.37,2.7-.71,4.06-1.05h.06l.14.83c-1.35.33-2.7.68-4,1l-.11-.41Zm99.27-.56.06-.41Zm-4.15-.62c-1.35-.32-2.71-.64-4.07-.94l.09-.41-.1.41.16-.82h0c1.37.3,2.73.61,4.08.94l-.1.41h0Zm-87-.82-.19-.82.07.29-.06-.29c1.36-.3,2.73-.59,4.1-.87l.07.29-.05-.29.18.82-.11-.4.08.41c-1.37.27-2.72.55-4.08.86h0Zm-.12-.52,0,.08,0-.12ZM158.7,9V9Zm74.79.34c-1.36-.27-2.73-.53-4.11-.76l.13-.84,0,.19,0-.18-.06.41.07-.41c1.38.24,2.75.49,4.12.76h0Zm-70.6-.67-.17-.83.07.29,0-.29.08.41-.07-.41c1.37-.24,2.75-.47,4.13-.68h0L167,8C165.64,8.21,164.26,8.44,162.89,8.68Zm62.39-.76.09-.69-.11.69c-1.37-.21-2.75-.4-4.13-.58h0l.11-.84,0,.16,0-.16c1.39.18,2.78.38,4.16.59l0,.18,0-.18Zm-54.13-.51,0-.26,0,.26L171,6.58h0c1.38-.18,2.77-.35,4.16-.5h.06l0,.83C173.91,7.06,172.53,7.22,171.15,7.41ZM217,6.85c-1.39-.15-2.77-.28-4.16-.4l0-.43v.43l.06-.83,0,.31,0-.32c1.4.12,2.79.25,4.18.4l0,.42v0ZM179.42,6.5l-.08-.84h0c1.39-.12,2.78-.23,4.18-.32l0,.42v0l0,.43c-1.4.1-2.78.2-4.17.32l0-.41Zm29.23-.36c-1.38-.09-2.77-.16-4.17-.22l0-.43-.05.43,0-.84h0c1.4.06,2.79.13,4.19.22h0ZM212.84,6V6ZM187.79,6l0-.42,0,.41-.06-.83v0C189.14,5,190.54,5,191.93,5l0,.84C190.56,5.84,189.17,5.88,187.79,6ZM192,5.81V5h0Zm8.38,0v0c-1.3,0-2.61,0-3.91,0h-.27V4.92h.27c1.31,0,2.61,0,3.92,0h0Zm-4.2,0V4.92h0Zm-8.37-.23,0-.42Z"></path><path class="cls-1" d="M196.4,350.06c-84.26,0-152.81-68.55-152.81-152.81S112.14,44.44,196.4,44.44,349.21,113,349.21,197.25,280.66,350.06,196.4,350.06Zm0-304.78c-83.8,0-152,68.17-152,152s68.17,152,152,152,152-68.18,152-152S280.19,45.28,196.4,45.28Z"></path></g><g id="Layer_1" data-name="Layer 1"><g class="cls-2"><rect class="cls-3" x="29.45" y="19.05" width="217.95" height="8.03"></rect><path class="cls-4" d="M84.56,27.07V23.12a1.79,1.79,0,0,0-1.8-1.77H37a1.79,1.79,0,0,0-1.81,1.77v3.95H29.45v10.7H247.39V27.07Z"></path><rect class="cls-5" x="29.45" y="37.77" width="217.95" height="127.33"></rect><path class="cls-6" d="M231.54,35.82H51.67a2.12,2.12,0,0,1-2.14-2.09V31.11A2.11,2.11,0,0,1,51.67,29H231.54a2.11,2.11,0,0,1,2.13,2.08v2.62A2.12,2.12,0,0,1,231.54,35.82Z"></path><rect class="cls-7" x="239.66" y="30.9" width="3.61" height="0.39"></rect><rect class="cls-7" x="239.66" y="32.17" width="3.61" height="0.39"></rect><rect class="cls-7" x="239.66" y="33.45" width="3.61" height="0.39"></rect><polygon class="cls-7" points="35.66 34.83 35.95 34.55 34.01 32.65 35.98 30.73 35.68 30.44 33.72 32.36 33.45 32.63 33.43 32.65 35.66 34.83"></polygon><rect class="cls-7" x="33.92" y="32.43" width="4.52" height="0.42"></rect><polygon class="cls-7" points="44.27 34.83 43.98 34.55 45.93 32.65 43.96 30.73 44.25 30.44 46.22 32.36 46.49 32.63 46.51 32.65 44.27 34.83"></polygon><rect class="cls-7" x="41.5" y="32.43" width="4.52" height="0.42"></rect><polygon class="cls-7" points="55.05 31.34 53.95 32.03 54.85 32.21 55.05 31.34"></polygon><path class="cls-7" d="M54.56,32.74a1.27,1.27,0,1,1-1.23-1.56,1.28,1.28,0,0,1,1.09.6l.26-.15a1.58,1.58,0,0,0-1.35-.74,1.54,1.54,0,1,0,1.51,2Z"></path><path class="cls-7" d="M82.75,24.74h0a.14.14,0,0,1-.17,0l-1.39-1.36a.1.1,0,0,1,0-.16h0a.12.12,0,0,1,.17,0l1.39,1.36A.12.12,0,0,1,82.75,24.74Z"></path><path class="cls-7" d="M82.75,24.74h0a.14.14,0,0,1-.17,0l-1.39-1.36a.1.1,0,0,1,0-.16h0a.12.12,0,0,1,.17,0l1.39,1.36A.12.12,0,0,1,82.75,24.74Z"></path><path class="cls-7" d="M82.75,23.22h0a.12.12,0,0,1,0,.16l-1.39,1.36a.14.14,0,0,1-.17,0h0a.1.1,0,0,1,0-.16l1.39-1.36A.12.12,0,0,1,82.75,23.22Z"></path><path class="cls-7" d="M242.84,24.4h0a.22.22,0,0,1-.3,0L240.09,22a.18.18,0,0,1,0-.28h0a.23.23,0,0,1,.29,0l2.46,2.4A.21.21,0,0,1,242.84,24.4Z"></path><path class="cls-7" d="M242.84,24.4h0a.22.22,0,0,1-.3,0L240.09,22a.18.18,0,0,1,0-.28h0a.23.23,0,0,1,.29,0l2.46,2.4A.21.21,0,0,1,242.84,24.4Z"></path><path class="cls-7" d="M242.84,21.71h0a.19.19,0,0,1,0,.28l-2.46,2.4a.21.21,0,0,1-.29,0h0a.19.19,0,0,1,0-.29l2.45-2.4A.24.24,0,0,1,242.84,21.71Z"></path><path class="cls-7" d="M236.94,24.57h-2.31a.23.23,0,0,1-.24-.22h0a.23.23,0,0,1,.24-.22h2.31a.22.22,0,0,1,.23.22h0A.22.22,0,0,1,236.94,24.57Z"></path></g><polygon class="cls-6" points="202.19 77.41 75.97 77.41 75.92 165.14 202.15 165.37 202.19 77.41"></polygon><polygon class="cls-8" points="67.62 70.67 68.89 62.98 70.95 62.98 69.68 70.67 67.62 70.67"></polygon><path class="cls-8" d="M77,63.18a5.18,5.18,0,0,0-1.85-.32c-2,0-3.46,1-3.48,2.54,0,1.1,1,1.71,1.8,2.08s1.07.62,1.07,1c0,.52-.64.76-1.23.76a4.22,4.22,0,0,1-1.94-.41l-.26-.12-.29,1.72a6.52,6.52,0,0,0,2.29.41c2.16,0,3.57-1,3.58-2.63,0-.87-.54-1.54-1.72-2.08-.72-.36-1.16-.6-1.16-1s.38-.66,1.18-.66a3.68,3.68,0,0,1,1.54.3l.19.09L77,63.18Z"></path><path class="cls-8" d="M80.51,63a1,1,0,0,0-1.06.66l-3.06,7h2.18L79,69.49h2.6l.24,1.17h1.94L82.09,63Zm-.93,5,.82-2.15s.17-.44.27-.73l.14.66L81.28,68Z"></path><path class="cls-8" d="M63.87,68.25l-.18-1A5.91,5.91,0,0,0,60.85,64l1.81,6.69h2.18L68.11,63H65.93Z"></path><path class="cls-8" d="M58.61,63v.12a7.06,7.06,0,0,1,5.08,4.09L63,63.64A.89.89,0,0,0,62,63Z"></path><path class="cls-8" d="M217.5,66.09a6.93,6.93,0,1,1-13.85,0h0a6.93,6.93,0,1,1,13.85,0Z"></path><path class="cls-8" d="M201.25,59a7.09,7.09,0,0,0,0,14.17,6.78,6.78,0,0,0,4.65-1.85h0a7.26,7.26,0,0,0,.71-.76h-1.42a7.44,7.44,0,0,1-.52-.73h2.45a6.86,6.86,0,0,0,.4-.76h-3.25a6.67,6.67,0,0,1-.29-.74h3.83a7.26,7.26,0,0,0,.36-2.25,7.51,7.51,0,0,0-.16-1.51h-4.23a6.93,6.93,0,0,1,.2-.75h3.83a7.05,7.05,0,0,0-.3-.76h-3.24a6.72,6.72,0,0,1,.4-.75h2.44a8,8,0,0,0-.53-.76h-1.36a6.6,6.6,0,0,1,.69-.71A6.79,6.79,0,0,0,201.29,59Z"></path><path class="cls-9" d="M203.78,67.9l.09-.64-.19,0c-.26,0-.29-.14-.27-.24l.21-1.31H204l.09-.71h-.36l.07-.44h-.74s-.43,2.48-.43,2.78.24.64.58.64A2.35,2.35,0,0,0,203.78,67.9Z"></path><path class="cls-9" d="M204,66.68A1.16,1.16,0,0,0,205.28,68a1.9,1.9,0,0,0,.78-.12l.13-.73a2.2,2.2,0,0,1-.78.19c-.79,0-.65-.6-.65-.6h1.49a5.17,5.17,0,0,0,.1-.68,1,1,0,0,0-1-1.11C204.56,64.94,204,65.75,204,66.68Zm1.29-1.07c.42,0,.34.48.34.52h-.82S204.9,65.61,205.3,65.61Z"></path><path class="cls-9" d="M210,67.9l.13-.83a1.7,1.7,0,0,1-.61.19c-.52,0-.73-.41-.73-.85,0-.89.45-1.38,1-1.38a1.28,1.28,0,0,1,.68.22l.12-.8a2.57,2.57,0,0,0-.83-.19c-.85,0-1.68.76-1.68,2.18,0,.94.45,1.56,1.32,1.56A3.5,3.5,0,0,0,210,67.9Z"></path><path class="cls-9" d="M199.73,65a2.61,2.61,0,0,0-.9.16l-.1.65a2.32,2.32,0,0,1,.8-.13c.27,0,.47,0,.47.26a.59.59,0,0,1,0,.19l-.32,0c-.63,0-1.3.28-1.3,1.12,0,.66.43.81.71.81a.94.94,0,0,0,.75-.34l0,.28h.65l.29-2.07A.88.88,0,0,0,199.73,65Zm.15,1.69c0,.13-.08.72-.52.72a.27.27,0,0,1-.29-.28c0-.21.11-.46.65-.46A.48.48,0,0,1,199.88,66.64Z"></path><path class="cls-9" d="M201.43,68a1,1,0,0,0,1.11-1c0-.94-.88-.75-.88-1.13,0-.19.15-.25.41-.25l.5,0,.1-.67A3.33,3.33,0,0,0,202,65c-.55,0-1.1.22-1.1,1s.92.77.92,1.14-.26.26-.46.26a2,2,0,0,1-.65-.12l-.1.66A2.07,2.07,0,0,0,201.43,68Z"></path><path class="cls-9" d="M216.08,64.35l-.16,1a1,1,0,0,0-.71-.39c-.68,0-1.24.84-1.24,1.79,0,.62.3,1.23.91,1.23a.93.93,0,0,0,.69-.32l0,.27h.72l.57-3.59Zm-.35,2c0,.4-.19.93-.59.93s-.39-.22-.39-.58c0-.59.26-1,.58-1S215.73,65.87,215.73,66.31Z"></path><path class="cls-9" d="M195.74,67.94l.45-2.71.06,2.71h.51l1-2.71-.43,2.71H198l.58-3.59h-1.16l-.73,2.2,0-2.2h-1.07L195,67.94Z"></path><path class="cls-9" d="M207.09,67.94c.21-1.25.25-2.26.76-2.08a2.8,2.8,0,0,1,.28-.87H208c-.33,0-.58.46-.58.46l.07-.42h-.69l-.46,2.92Z"></path><path class="cls-9" d="M211.67,64.94a2.46,2.46,0,0,0-.89.17l-.11.65a2.32,2.32,0,0,1,.8-.13c.28,0,.48,0,.48.26a.41.41,0,0,1,0,.19l-.31,0c-.64,0-1.31.28-1.31,1.12A.71.71,0,0,0,211,68a1,1,0,0,0,.76-.35l0,.29h.65l.29-2.08A.88.88,0,0,0,211.67,64.94Zm.16,1.7c0,.12-.08.72-.52.72a.27.27,0,0,1-.29-.29c0-.2.11-.45.65-.45C211.79,66.62,211.81,66.63,211.83,66.64Z"></path><path class="cls-9" d="M213.27,67.94c.22-1.25.26-2.26.77-2.08a2.8,2.8,0,0,1,.28-.87h-.15c-.33,0-.57.46-.57.46l.07-.42H213l-.46,2.92Z"></path><path class="cls-8" d="M130.6,63.55h-2.08a.39.39,0,0,0-.3.25l-.86,5.5a.17.17,0,0,0,.18.19h1.1a.17.17,0,0,0,.19-.19l.24-1.56a.28.28,0,0,1,.31-.25h.67a2.15,2.15,0,0,0,2.39-2.07,1.64,1.64,0,0,0-.25-1.37,2.36,2.36,0,0,0-1.59-.5m.25,2.06c-.13.75-.68.75-1.23.75h-.36l.24-1.44c0-.06.06-.12.19-.12h.12c.36,0,.73,0,.91.25.13.06.13.25.13.56"></path><path class="cls-8" d="M115.63,63.55h-2.08a.43.43,0,0,0-.31.25l-.85,5.5c0,.13.06.19.18.19h1a.39.39,0,0,0,.3-.25l.25-1.5a.27.27,0,0,1,.3-.25h.68a2.14,2.14,0,0,0,2.38-2.06,1.7,1.7,0,0,0-.24-1.38,2.34,2.34,0,0,0-1.59-.5m.24,2.06c-.12.75-.67.75-1.22.75h-.31l.25-1.43c0-.07.06-.13.18-.13h.12c.37,0,.74,0,.92.25a.69.69,0,0,1,.06.56"></path><path class="cls-8" d="M121.92,65.55h-1c-.06,0-.18.06-.18.12l-.06.32-.06-.13a1.4,1.4,0,0,0-1.16-.43,2.38,2.38,0,0,0-2.27,2.06,1.88,1.88,0,0,0,.37,1.56,1.51,1.51,0,0,0,1.28.5,2,2,0,0,0,1.41-.56l-.06.31c0,.13.06.19.18.19h.92c.12,0,.24-.13.3-.25l.56-3.5c-.07-.07-.19-.19-.25-.19m-1.41,2a1.19,1.19,0,0,1-1.16,1,.94.94,0,0,1-.67-.25,1.39,1.39,0,0,1-.18-.75,1,1,0,1,1,2,0"></path><path class="cls-8" d="M136.84,65.55h-1c-.06,0-.18.06-.18.12l-.06.31-.06-.12a1.45,1.45,0,0,0-1.17-.44,2.37,2.37,0,0,0-2.26,2.07,1.89,1.89,0,0,0,.37,1.56,1.52,1.52,0,0,0,1.28.5,2,2,0,0,0,1.41-.56l-.06.31a.17.17,0,0,0,.18.19h.92c.12,0,.24-.13.3-.25l.55-3.51c-.06-.06-.12-.18-.24-.18m-1.41,2a1.19,1.19,0,0,1-1.16,1,1,1,0,0,1-.67-.25,1.39,1.39,0,0,1-.19-.75,1.14,1.14,0,0,1,1.11-1,1.09,1.09,0,0,1,.67.25.73.73,0,0,1,.24.75"></path><path class="cls-8" d="M127.24,65.55h-1a.31.31,0,0,0-.24.12l-1.35,2.13-.61-2a.28.28,0,0,0-.31-.19h-1c-.13,0-.19.13-.19.25l1.1,3.32-1,1.5c-.06.12,0,.31.12.31h1a.33.33,0,0,0,.25-.13l3.36-4.94c.18-.18.06-.37-.06-.37"></path><path class="cls-8" d="M138,63.73l-.86,5.63a.17.17,0,0,0,.19.19h.85a.41.41,0,0,0,.31-.25l.86-5.51a.16.16,0,0,0-.18-.18h-1c-.06-.07-.13,0-.19.12"></path><path class="cls-8" d="M107.87,61.68a3,3,0,0,0-2.32-.75h-3.06a.52.52,0,0,0-.42.38l-1.23,8.18a.29.29,0,0,0,.24.32H103l.49-3.06v.13a.52.52,0,0,1,.43-.38h.91a3.25,3.25,0,0,0,3.55-2.81v-.19h0a2.21,2.21,0,0,0-.49-1.81"></path><path class="cls-8" d="M108.3,63.49h0v.19a3.19,3.19,0,0,1-3.54,2.81h-.92a.52.52,0,0,0-.42.38l-.62,3.81a.24.24,0,0,0,.25.25h1.59a.34.34,0,0,0,.36-.31v-.07l.31-1.93v-.13a.34.34,0,0,1,.37-.31h.24a2.76,2.76,0,0,0,3.06-2.5,2.35,2.35,0,0,0-.31-1.88.63.63,0,0,0-.36-.31"></path><path class="cls-8" d="M107.87,63.3c-.06,0-.12-.06-.19-.06a.22.22,0,0,1-.18-.06,3.25,3.25,0,0,0-.79-.06h-2.39a.22.22,0,0,0-.18.06.34.34,0,0,0-.18.31l-.49,3.25v.13a.52.52,0,0,1,.43-.38h.91a3.25,3.25,0,0,0,3.55-2.81.24.24,0,0,1,.06-.19.67.67,0,0,0-.31-.12c-.18-.07-.18-.07-.24-.07"></path><polygon class="cls-6" points="163.07 54.55 158.88 54.55 158.88 53.16 163.07 53.15 163.07 54.55"></polygon><polygon class="cls-6" points="120.73 54.57 116.55 54.57 116.56 53.18 120.73 53.18 120.73 54.57"></polygon><polygon class="cls-6" points="115.58 54.57 111.4 54.58 111.4 53.18 115.58 53.18 115.58 54.57"></polygon><polygon class="cls-6" points="128.79 54.57 121.88 54.57 121.88 53.18 128.79 53.17 128.79 54.57"></polygon><polygon class="cls-6" points="110.52 54.58 103.62 54.58 103.62 53.19 110.52 53.18 110.52 54.58"></polygon><polygon class="cls-6" points="102.28 54.58 88.48 54.59 88.48 53.2 102.28 53.19 102.28 54.58"></polygon><polygon class="cls-6" points="157.82 54.55 130.16 54.57 130.16 53.17 157.82 53.16 157.82 54.55"></polygon><polygon class="cls-6" points="87.07 54.59 59.5 54.6 59.5 53.21 87.07 53.2 87.07 54.59"></polygon><rect class="cls-9" x="122.12" y="95.21" width="1.53" height="80.2" transform="translate(-12.57 258.04) rotate(-89.93)"></rect><rect class="cls-9" x="111.18" y="133.04" width="1.53" height="10.45" transform="translate(-26.47 250.04) rotate(-89.93)"></rect><rect class="cls-9" x="93.07" y="127.19" width="1.53" height="22.11" transform="translate(-44.52 231.91) rotate(-89.93)"></rect><rect class="cls-9" x="111.86" y="101.77" width="1.53" height="59.69" transform="translate(-19.11 244.1) rotate(-89.94)"></rect><rect class="cls-9" x="82.79" y="118.77" width="80.2" height="1.53"></rect><rect class="cls-9" x="106.72" y="121.74" width="10.45" height="1.53"></rect><rect class="cls-9" x="82.79" y="121.72" width="22.11" height="1.53"></rect><rect class="cls-9" x="82.8" y="115.08" width="59.69" height="1.53"></rect><polygon class="cls-9" points="173.85 110.72 82.8 110.66 82.81 97.92 173.85 97.95 173.85 110.72"></polygon><polygon class="cls-9" points="150.91 154.35 83.41 154.24 83.41 147.28 150.91 147.38 150.91 154.35"></polygon><polygon class="cls-9" points="150.31 92.06 82.81 92.04 82.81 85.08 150.31 85.09 150.31 92.06"></polygon><polygon class="cls-6" points="126.94 50.47 59.5 50.51 59.5 43.56 126.94 43.51 126.94 50.47"></polygon><path class="cls-8" d="M178.52,58.11h.54a2.8,2.8,0,0,1,.48,0,1.23,1.23,0,0,1,.41.13,1.37,1.37,0,0,1,.6.59,1.79,1.79,0,0,1,.13.41,2.85,2.85,0,0,1,0,.49,1.93,1.93,0,0,0,0,.24V74a1.93,1.93,0,0,0,0,.24,2.85,2.85,0,0,1,0,.49,1.51,1.51,0,0,1-.13.41,1.37,1.37,0,0,1-.6.59,1.53,1.53,0,0,1-.41.14,3.88,3.88,0,0,1-.48,0H154.22a3.89,3.89,0,0,1-.49,0,1.53,1.53,0,0,1-.41-.14,1.24,1.24,0,0,1-.35-.25,1.16,1.16,0,0,1-.24-.34,1.53,1.53,0,0,1-.14-.41,2.7,2.7,0,0,1,0-.49V59.78a2.85,2.85,0,0,1,0-.49,1.25,1.25,0,0,1,.14-.41,1.35,1.35,0,0,1,.59-.59,1.23,1.23,0,0,1,.41-.13,3.87,3.87,0,0,1,.49,0h24.3m0-.39H154.2a3.29,3.29,0,0,0-.54.05,1.67,1.67,0,0,0-.52.17,1.74,1.74,0,0,0-.76.76,1.8,1.8,0,0,0-.17.51,5.11,5.11,0,0,0-.05.55V74.21a5.11,5.11,0,0,0,.05.55,1.8,1.8,0,0,0,.17.51,1.77,1.77,0,0,0,.76.77,2.43,2.43,0,0,0,.52.17,3.27,3.27,0,0,0,.54,0h24.87a3.27,3.27,0,0,0,.54,0,1.87,1.87,0,0,0,.52-.17,1.77,1.77,0,0,0,.76-.77,1.8,1.8,0,0,0,.17-.51,5.11,5.11,0,0,0,.05-.55V59.77a3.41,3.41,0,0,0-.05-.55,1.8,1.8,0,0,0-.17-.51,1.69,1.69,0,0,0-.76-.76,1.89,1.89,0,0,0-.52-.18,4.9,4.9,0,0,0-.54,0h-.55Z"></path><path class="cls-8" d="M160.45,63.28a1.66,1.66,0,0,0,.4-1.22,1.75,1.75,0,0,0-1.13.58,1.6,1.6,0,0,0-.4,1.19A1.4,1.4,0,0,0,160.45,63.28Zm1.11,2.85a1.72,1.72,0,0,1,.83-1.46,1.78,1.78,0,0,0-1.4-.76c-.6-.06-1.17.35-1.47.35s-.77-.34-1.26-.33a1.9,1.9,0,0,0-1.59,1,4,4,0,0,0,.49,3.86c.32.47.71,1,1.21,1s.67-.31,1.26-.31.75.31,1.26.3.85-.47,1.17-.94a4.18,4.18,0,0,0,.53-1.09,1.69,1.69,0,0,1-1-1.55Zm6.22-2.85a2.11,2.11,0,0,0-.75-.43A3.35,3.35,0,0,0,166,62.7a6.79,6.79,0,0,0-.78,0c-.22,0-.43.06-.65.09h-.06v6.82h.62V66.79a3.94,3.94,0,0,0,.72,0,3.42,3.42,0,0,0,1-.13,2.17,2.17,0,0,0,.78-.41,1.93,1.93,0,0,0,.53-.68,2.39,2.39,0,0,0,0-1.74,1.91,1.91,0,0,0-.38-.6Zm-.58,2.61a2,2,0,0,1-1.34.4,3.24,3.24,0,0,1-.45,0,1.67,1.67,0,0,1-.31,0v-2.9l.3,0a4.44,4.44,0,0,1,.55,0,2.44,2.44,0,0,1,.71.1,1.64,1.64,0,0,1,.55.26,1.3,1.3,0,0,1,.35.45,1.64,1.64,0,0,1,.12.65,1.45,1.45,0,0,1-.48,1.18ZM172,69c0-.2,0-.39,0-.58v-1.9a3.91,3.91,0,0,0-.06-.68,1.8,1.8,0,0,0-.26-.64,1.41,1.41,0,0,0-.53-.46,1.78,1.78,0,0,0-.85-.18,3,3,0,0,0-.74.09,2.85,2.85,0,0,0-.68.33l0,0,.21.49.07-.05a2.24,2.24,0,0,1,.54-.26,2,2,0,0,1,.6-.09,1.15,1.15,0,0,1,.61.14.92.92,0,0,1,.34.34,1.2,1.2,0,0,1,.15.45,3.46,3.46,0,0,1,0,.43v0a4,4,0,0,0-2.12.46,1.55,1.55,0,0,0-.76,1.37,1.43,1.43,0,0,0,.09.5,1.33,1.33,0,0,0,.27.46,1.38,1.38,0,0,0,.46.31,1.67,1.67,0,0,0,.65.12,1.76,1.76,0,0,0,1-.26,1.84,1.84,0,0,0,.34-.27l.12-.13h0l.06.55h.6l0-.08A5.43,5.43,0,0,1,172,69Zm-.63-1a1,1,0,0,1,0,.27,1.29,1.29,0,0,1-.17.33,1.34,1.34,0,0,1-.65.5,1.41,1.41,0,0,1-.5.07,1.2,1.2,0,0,1-.33,0,1,1,0,0,1-.28-.17.77.77,0,0,1-.19-.28,1,1,0,0,1-.07-.42,1,1,0,0,1,.21-.64,1.28,1.28,0,0,1,.55-.37,3.28,3.28,0,0,1,.75-.18q.36,0,.72,0v1Zm4.86-3.35-1.16,3.16c-.07.19-.14.38-.2.57l-.09.26h0l-.09-.27c-.06-.19-.13-.37-.19-.54l-1.25-3.18h-.66l1.78,4.57a.41.41,0,0,1,0,.18.6.6,0,0,1,0,.18,3.37,3.37,0,0,1-.38.7,3.46,3.46,0,0,1-.39.47,1.75,1.75,0,0,1-.41.33,3.15,3.15,0,0,1-.4.21l-.07,0,.22.52.07,0,.32-.15a2.86,2.86,0,0,0,.54-.38,2.59,2.59,0,0,0,.44-.5,5,5,0,0,0,.4-.66c.12-.24.25-.52.37-.83s.26-.65.4-1l1.44-3.63Z"></path><g class="cls-10"><rect class="cls-3" x="148.09" y="106.02" width="215.67" height="7.94"></rect><path class="cls-4" d="M202.63,114v-3.92a1.77,1.77,0,0,0-1.79-1.74H155.59a1.77,1.77,0,0,0-1.79,1.74V114h-5.71v10.59H363.76V114Z"></path><rect class="cls-5" x="148.09" y="124.56" width="215.67" height="126"></rect><path class="cls-6" d="M348.07,122.62h-178a2.09,2.09,0,0,1-2.11-2.06V118a2.1,2.1,0,0,1,2.11-2.07h178a2.09,2.09,0,0,1,2.11,2.07v2.59A2.08,2.08,0,0,1,348.07,122.62Z"></path><rect class="cls-7" x="356.11" y="117.76" width="3.57" height="0.39"></rect><rect class="cls-7" x="356.11" y="119.02" width="3.57" height="0.39"></rect><rect class="cls-7" x="356.11" y="120.28" width="3.57" height="0.39"></rect><polygon class="cls-7" points="154.24 121.64 154.53 121.36 152.61 119.48 154.55 117.58 154.26 117.3 152.32 119.2 152.05 119.46 152.03 119.48 154.24 121.64"></polygon><rect class="cls-7" x="152.51" y="119.26" width="4.48" height="0.42"></rect><polygon class="cls-7" points="162.76 121.64 162.48 121.36 164.4 119.48 162.46 117.58 162.74 117.3 164.69 119.2 164.96 119.46 164.98 119.48 162.76 121.64"></polygon><rect class="cls-7" x="160.02" y="119.26" width="4.48" height="0.42"></rect><polygon class="cls-7" points="173.43 118.19 172.34 118.88 173.23 119.06 173.43 118.19"></polygon><path class="cls-7" d="M172.94,119.57a1.24,1.24,0,1,1-.14-.94l.26-.15a1.57,1.57,0,0,0-1.33-.74,1.52,1.52,0,1,0,0,3,1.55,1.55,0,0,0,1.49-1.09Z"></path><path class="cls-7" d="M200.84,111.66h0a.14.14,0,0,1-.17,0l-1.38-1.35a.12.12,0,0,1,0-.16h0a.14.14,0,0,1,.17,0l1.38,1.35A.12.12,0,0,1,200.84,111.66Z"></path><path class="cls-7" d="M200.84,111.66h0a.14.14,0,0,1-.17,0l-1.38-1.35a.12.12,0,0,1,0-.16h0a.14.14,0,0,1,.17,0l1.38,1.35A.12.12,0,0,1,200.84,111.66Z"></path><path class="cls-7" d="M200.84,110.15h0a.12.12,0,0,1,0,.16l-1.38,1.35a.14.14,0,0,1-.17,0h0a.12.12,0,0,1,0-.16l1.38-1.35A.14.14,0,0,1,200.84,110.15Z"></path><path class="cls-7" d="M359.25,111.32h0a.23.23,0,0,1-.29,0L356.53,109a.19.19,0,0,1,0-.28h0a.21.21,0,0,1,.29,0l2.43,2.37A.19.19,0,0,1,359.25,111.32Z"></path><path class="cls-7" d="M359.25,111.32h0a.23.23,0,0,1-.29,0L356.53,109a.19.19,0,0,1,0-.28h0a.21.21,0,0,1,.29,0l2.43,2.37A.19.19,0,0,1,359.25,111.32Z"></path><path class="cls-7" d="M359.25,108.67h0a.19.19,0,0,1,0,.28l-2.43,2.38a.23.23,0,0,1-.29,0h0a.19.19,0,0,1,0-.28l2.43-2.37A.21.21,0,0,1,359.25,108.67Z"></path><path class="cls-7" d="M353.42,111.49h-2.29a.22.22,0,0,1-.23-.22h0a.23.23,0,0,1,.23-.23h2.29a.23.23,0,0,1,.23.23h0A.22.22,0,0,1,353.42,111.49Z"></path></g><rect class="cls-11" x="299.89" y="133.34" width="55.31" height="36.15" rx="5.08"></rect><rect class="cls-12" x="301.56" y="172.26" width="51.97" height="1.57"></rect><rect class="cls-11" x="301.56" y="175.41" width="51.97" height="1.57"></rect><rect class="cls-11" x="301.56" y="178.55" width="51.97" height="1.57"></rect><rect class="cls-11" x="301.56" y="181.7" width="51.97" height="1.57"></rect><path class="cls-6" d="M304.54,217.05v1H304v-1a3.67,3.67,0,0,1-2.15-.79l.27-1a3.54,3.54,0,0,0,1.88.85v-2c-1.43-.4-2-1.05-2-2a1.88,1.88,0,0,1,2-1.82v-.92h.52v.92a3.55,3.55,0,0,1,1.73.61l-.26.92a3.88,3.88,0,0,0-1.47-.54v1.63c1.41.4,2,1,2,2.11A2,2,0,0,1,304.54,217.05Zm-.52-5.78c-.52.06-.81.34-.81.74s.21.57.81.76Zm.52,4.8a.92.92,0,0,0,.87-.91c0-.41-.25-.69-.87-.9Z"></path><path class="cls-6" d="M309.42,217.24a3.21,3.21,0,0,1-2.05-.69v-1.12a2.68,2.68,0,0,0,1.88.82,1.29,1.29,0,0,0,1.4-1.35,1.09,1.09,0,0,0-1.18-1.2,1.35,1.35,0,0,0-.94.38l-.55-.62,2.13-2.09h-2.72V210.3h4.48v.63L310,212.8a2,2,0,0,1,2,2.13A2.32,2.32,0,0,1,309.42,217.24Z"></path><path class="cls-6" d="M314.82,217.22a3,3,0,0,1-1.61-.45v-1a2.85,2.85,0,0,0,1.48.47c1,0,1.74-.57,1.78-2.33a1.91,1.91,0,0,1-1.56.76,2.1,2.1,0,0,1-2.12-2.27,2.32,2.32,0,0,1,2.45-2.3c1.08,0,2.56.55,2.56,3.19C317.8,215.68,316.77,217.22,314.82,217.22Zm.48-6.22a1.2,1.2,0,0,0-1.18,1.35c0,.78.38,1.36,1.14,1.36a1.21,1.21,0,0,0,1.21-1.24C316.47,211.52,315.92,211,315.3,211Z"></path><path class="cls-6" d="M318.62,217.05v-1.36H320v1.36Z"></path><path class="cls-6" d="M322.75,217.22a3,3,0,0,1-1.61-.45v-1a2.92,2.92,0,0,0,1.49.47c1,0,1.73-.57,1.77-2.33a1.88,1.88,0,0,1-1.56.76,2.1,2.1,0,0,1-2.12-2.27,2.32,2.32,0,0,1,2.46-2.3c1.08,0,2.55.55,2.55,3.19C325.73,215.68,324.71,217.22,322.75,217.22Zm.48-6.22a1.2,1.2,0,0,0-1.18,1.35c0,.78.38,1.36,1.14,1.36a1.21,1.21,0,0,0,1.21-1.24C324.4,211.52,323.85,211,323.23,211Z"></path><path class="cls-6" d="M328.66,217.22a3,3,0,0,1-1.61-.45v-1a2.85,2.85,0,0,0,1.48.47c1,0,1.73-.57,1.78-2.33a1.91,1.91,0,0,1-1.56.76,2.1,2.1,0,0,1-2.12-2.27,2.32,2.32,0,0,1,2.45-2.3c1.08,0,2.56.55,2.56,3.19C331.64,215.68,330.61,217.22,328.66,217.22Zm.48-6.22a1.2,1.2,0,0,0-1.18,1.35c0,.78.38,1.36,1.13,1.36a1.21,1.21,0,0,0,1.22-1.24C330.31,211.52,329.76,211,329.14,211Z"></path><rect class="cls-13" x="301.44" y="224.32" width="38.68" height="12.89"></rect><path class="cls-6" d="M310.84,232.53H309.5v-3.12h1.29c.71,0,1,.37,1,.82a.79.79,0,0,1-.35.61.86.86,0,0,1,.53.77C312,232.12,311.64,232.53,310.84,232.53Zm-.67-1.87h.51c.34,0,.47-.17.47-.4s-.13-.41-.47-.41h-.51Zm.56.45h-.56v1h.56c.42,0,.59-.22.59-.5S311.15,231.11,310.73,231.11Z"></path><path class="cls-6" d="M314,232.62a1.39,1.39,0,0,1-1.53-1.53v-1.68h.69v1.66c0,.67.31,1,.85,1s.85-.33.85-1v-1.66h.66v1.68A1.39,1.39,0,0,1,314,232.62Z"></path><path class="cls-6" d="M317.8,231.28v1.25h-.67v-1.25l-1.3-1.87h.73l.92,1.36.91-1.36h.71Z"></path><path class="cls-6" d="M322.86,232.53l-1.74-2.06v2.06h-.6v-3.12H321l1.74,2.06v-2.06h.6v3.12Z"></path><path class="cls-6" d="M325.66,232.62a1.66,1.66,0,1,1,1.79-1.65A1.69,1.69,0,0,1,325.66,232.62Zm0-2.79a1.14,1.14,0,1,0,1.08,1.14A1.06,1.06,0,0,0,325.66,229.83Z"></path><path class="cls-6" d="M331.11,232.53h-.5l-.65-1.87a1,1,0,0,1-.07-.24s-.05.18-.07.24l-.66,1.87h-.49l-1.15-3.12h.67l.67,2a1.67,1.67,0,0,1,.07.29s.06-.22.08-.29l.65-2h.48l.65,2,.07.29a1.92,1.92,0,0,1,.07-.29l.66-2h.65Z"></path><rect class="cls-8" x="301.48" y="196.15" width="24.88" height="8.23"></rect><path class="cls-6" d="M326.49,204.51H301.36V196h25.13Zm-24.89-.24h24.65v-8H301.6Z"></path><path class="cls-6" d="M353.5,204.51H328.38V196H353.5Zm-24.88-.24h24.64v-8H328.62Z"></path><g class="cls-14"><path class="cls-6" d="M290.65,230.2c0,4.51-2.91,8.17-6.5,8.17H163.68c-3.59,0-6.5-3.66-6.5-8.17V141.08c0-4.51,2.91-8.17,6.5-8.17H284.15c3.59,0,6.5,3.66,6.5,8.17Z"></path><polygon class="cls-15" points="166.88 186.45 166.33 185.91 163.2 189.05 163.19 189.05 162.65 189.59 162.65 189.59 162.65 189.59 163.19 190.13 163.2 190.13 166.33 193.27 166.88 192.73 163.74 189.59 166.88 186.45"></polygon><polygon class="cls-15" points="280.95 186.45 281.5 185.91 284.63 189.05 284.63 189.05 285.18 189.59 285.18 189.59 285.18 189.59 284.63 190.13 284.63 190.13 281.5 193.27 280.95 192.73 284.09 189.59 280.95 186.45"></polygon></g><g class="cls-10"><rect class="cls-3" x="28.7" y="190.25" width="215.76" height="7.95"></rect><path class="cls-4" d="M83.27,198.2v-3.92a1.77,1.77,0,0,0-1.79-1.74H36.2a1.76,1.76,0,0,0-1.78,1.74v3.92H28.7v10.59H244.46V198.2Z"></path><rect class="cls-5" x="28.7" y="208.79" width="215.76" height="126.05"></rect><path class="cls-6" d="M228.76,206.86H50.7a2.1,2.1,0,0,1-2.11-2.07V202.2a2.09,2.09,0,0,1,2.11-2.06H228.76a2.09,2.09,0,0,1,2.12,2.06v2.59A2.1,2.1,0,0,1,228.76,206.86Z"></path><rect class="cls-7" x="236.81" y="201.99" width="3.57" height="0.39"></rect><rect class="cls-7" x="236.81" y="203.25" width="3.57" height="0.39"></rect><rect class="cls-7" x="236.81" y="204.51" width="3.57" height="0.39"></rect><polygon class="cls-7" points="34.86 205.88 35.15 205.6 33.22 203.72 35.17 201.82 34.88 201.54 32.93 203.44 32.67 203.7 32.65 203.72 34.86 205.88"></polygon><rect class="cls-7" x="33.13" y="203.5" width="4.48" height="0.42"></rect><polygon class="cls-7" points="43.38 205.88 43.1 205.6 45.02 203.72 43.07 201.82 43.36 201.54 45.31 203.44 45.58 203.7 45.6 203.72 43.38 205.88"></polygon><rect class="cls-7" x="40.63" y="203.5" width="4.48" height="0.42"></rect><polygon class="cls-7" points="54.06 202.43 52.97 203.11 53.86 203.29 54.06 202.43"></polygon><path class="cls-7" d="M53.57,203.81a1.26,1.26,0,0,1-1.22.92,1.23,1.23,0,1,1,0-2.46,1.27,1.27,0,0,1,1.08.59l.25-.15a1.57,1.57,0,0,0-1.33-.74,1.53,1.53,0,1,0,1.49,2Z"></path><path class="cls-7" d="M81.47,195.89h0a.1.1,0,0,1-.16,0l-1.38-1.35a.1.1,0,0,1,0-.16h0a.12.12,0,0,1,.16,0l1.38,1.35A.1.1,0,0,1,81.47,195.89Z"></path><path class="cls-7" d="M81.47,195.89h0a.1.1,0,0,1-.16,0l-1.38-1.35a.1.1,0,0,1,0-.16h0a.12.12,0,0,1,.16,0l1.38,1.35A.1.1,0,0,1,81.47,195.89Z"></path><path class="cls-7" d="M81.47,194.38h0a.1.1,0,0,1,0,.16l-1.38,1.35a.1.1,0,0,1-.16,0h0a.1.1,0,0,1,0-.16l1.38-1.35A.12.12,0,0,1,81.47,194.38Z"></path><path class="cls-7" d="M240,195.55h0a.21.21,0,0,1-.29,0l-2.43-2.38a.19.19,0,0,1,0-.28h0a.21.21,0,0,1,.29,0l2.43,2.37A.19.19,0,0,1,240,195.55Z"></path><path class="cls-7" d="M240,195.55h0a.21.21,0,0,1-.29,0l-2.43-2.38a.19.19,0,0,1,0-.28h0a.21.21,0,0,1,.29,0l2.43,2.37A.19.19,0,0,1,240,195.55Z"></path><path class="cls-7" d="M240,192.9h0a.19.19,0,0,1,0,.28l-2.43,2.38a.21.21,0,0,1-.29,0h0a.19.19,0,0,1,0-.28l2.43-2.37A.21.21,0,0,1,240,192.9Z"></path><path class="cls-7" d="M234.12,195.73h-2.3a.23.23,0,0,1-.23-.23h0a.23.23,0,0,1,.23-.23h2.3a.23.23,0,0,1,.23.23h0A.23.23,0,0,1,234.12,195.73Z"></path></g><rect class="cls-16" x="115.1" y="240.73" width="40.08" height="29.18" rx="4.15" transform="translate(390.46 120.17) rotate(90)"></rect><rect class="cls-16" x="154.36" y="240.73" width="40.08" height="29.18" rx="4.15" transform="translate(429.72 80.92) rotate(90)"></rect><rect class="cls-16" x="192.76" y="240.73" width="40.08" height="29.18" rx="4.15" transform="translate(468.12 42.51) rotate(90)"></rect><rect class="cls-16" x="76.37" y="240.73" width="40.08" height="29.18" rx="4.15" transform="translate(351.73 158.91) rotate(90)"></rect><rect class="cls-16" x="37.63" y="240.73" width="40.08" height="29.18" rx="4.15" transform="translate(312.99 197.64) rotate(90)"></rect><rect class="cls-16" x="115.1" y="296.02" width="40.08" height="29.18" rx="4.15" transform="translate(445.75 175.46) rotate(90)"></rect><rect class="cls-16" x="154.36" y="296.02" width="40.08" height="29.18" rx="4.15" transform="translate(485.01 136.21) rotate(90)"></rect><rect class="cls-16" x="192.76" y="296.02" width="40.08" height="29.18" rx="4.15" transform="translate(523.41 97.8) rotate(90)"></rect><rect class="cls-16" x="76.37" y="296.02" width="40.08" height="29.18" rx="4.15" transform="translate(407.02 214.2) rotate(90)"></rect><rect class="cls-16" x="37.63" y="296.02" width="40.08" height="29.18" rx="4.15" transform="translate(368.29 252.93) rotate(90)"></rect><path class="cls-6" d="M47.52,266.91v1.75H68.47v-1.75Zm0,5.21H60.39v-1.74H47.52Z"></path><path class="cls-6" d="M86.25,266.91v1.75h21v-1.75Zm0,5.21H99.13v-1.74H86.25Z"></path><path class="cls-6" d="M125,266.91v1.75h21v-1.75Zm0,5.21h12.87v-1.74H125Z"></path><path class="cls-6" d="M163.72,266.91v1.75h20.95v-1.75Zm0,5.21H176.6v-1.74H163.72Z"></path><path class="cls-6" d="M202.45,266.91v1.75h21v-1.75Zm0,5.21h12.88v-1.74H202.45Z"></path><path class="cls-6" d="M47.52,319.73v1.74H68.47v-1.74Zm0,5.21H60.39V323.2H47.52Z"></path><path class="cls-6" d="M86.25,319.73v1.74h21v-1.74Zm0,5.21H99.13V323.2H86.25Z"></path><path class="cls-6" d="M125,319.73v1.74h21v-1.74Zm0,5.21h12.87V323.2H125Z"></path><path class="cls-6" d="M163.72,319.73v1.74h20.95v-1.74Zm0,5.21H176.6V323.2H163.72Z"></path><path class="cls-6" d="M202.45,319.73v1.74h21v-1.74Zm0,5.21h12.88V323.2H202.45Z"></path><rect class="cls-16" x="127" y="122.19" width="16.9" height="198.45" rx="2.35" transform="translate(356.87 85.97) rotate(90)"></rect><path class="cls-17" d="M119.59,219.5H95.23a1.92,1.92,0,1,0,0,3.84h24.36a1.92,1.92,0,1,0,0-3.84Zm33.65,0H128.88a1.92,1.92,0,1,0,0,3.84h24.36a1.92,1.92,0,0,0,0-3.84Zm33.66,0H162.53a1.92,1.92,0,1,0,0,3.84H186.9a1.92,1.92,0,0,0,0-3.84Z"></path><rect class="cls-17" x="42.07" y="216.96" width="16.22" height="8.92" rx="1.78"></rect><path class="cls-18" d="M233.71,282.79H37.2a1,1,0,1,1,0-1.94H233.71a1,1,0,1,1,0,1.94Z"></path><g class="cls-14"><rect class="cls-19" x="188.19" y="264.55" width="126.71" height="92.23" rx="13.12" transform="translate(-61.7 559) rotate(-89.41)"></rect></g><path class="cls-6" d="M217.42,346.05l-.06,5.61,67.52.7.06-5.61ZM259,357.77l-41.5-.43-.06,5.61,41.5.43Z"></path><path class="cls-20" d="M253.3,281.85l7.53,14.68c.19-3.38,1.17-6.93.88-9.55-.44-4.07-.92-7.68-2.63-8.55C257.27,278.12,254.77,280.05,253.3,281.85Z"></path><path class="cls-20" d="M237,269.94c-4.58,1.19-8.09,3.9-11.7,8.44-.36,3,1.85,6.81,5,9.46,5.47,4.64,9.59,10.48,13.59,16.85,6.55,10.45,20.64,21.6,26,24.15a4.46,4.46,0,0,0,2.78.55,3.57,3.57,0,0,0,2.8-3.23c-.61-2-2.07-3.75-3.64-5.68a46.44,46.44,0,0,1-9.94-19.94c-1.57-6.12-1.42-15.31-4.51-18.41-3.26-3.26-13.84-.77-16.79-3.72-1.82-1.81-.85-4-1.07-6.06C239.33,271.14,238.15,269.63,237,269.94Z"></path><path class="cls-21" d="M273.32,322.43l-.93-1.18a3.15,3.15,0,0,1-.59.28c-6.13,2.27-12.19-12.24-13.06-16.59-.37,3,3.13,10.33,3.93,11.62a19.55,19.55,0,0,0,4.34,5.17c1.7,1.31,3.5,1.87,5.31,1.2A5.19,5.19,0,0,0,273.32,322.43Z"></path><path class="cls-22" d="M232.2,286.27c-2.95-2.51-5.57-6-6.16-8.83-.25.3-.51.61-.76.94.31,2.9,3.07,6.67,6.19,9.32,5.47,4.64,9.19,10.07,13.18,16.44,6.56,10.46,19.7,21.61,25.17,24.7a3.94,3.94,0,0,0,2.78.55,3.76,3.76,0,0,0,2.4-1.8,3.29,3.29,0,0,1-1.39.64,4,4,0,0,1-2.79-.55c-5.5-3.13-18.73-14.36-25.34-24.87C241.45,296.4,237.7,290.94,232.2,286.27Z"></path><path class="cls-21" d="M260.4,297.77c.16.89.66,1.06.92.46-.16-.86-.29-1.74-.42-2.64-.77-5.33-1.26-11.13-3.59-13.46a6,6,0,0,0-3-1.41c-4.48-1-11.51,0-13.83-2.31-1.82-1.81-.85-4-1.07-6.06-.12-1.21-1.3-2.72-2.47-2.41l-.4.11a4.9,4.9,0,0,1,2.14,2.9c.21,2-.75,4.25,1.06,6.06,2.8,2.79,9.57,1.48,13.92,2.38a5.53,5.53,0,0,1,2.88,1.34c2.14,2.14,2.72,7.2,3.4,12.15C260.11,295.85,260.25,296.82,260.4,297.77Z"></path><path class="cls-21" d="M249.81,308.75c-1.37-8.22,4.27-12.6,10.09-14H260c-.56-4.11-1.07-8.29-2.48-10.77a16.9,16.9,0,0,1-2.59,1c-9.69,2.89-19.59-3.85-21-13.9a23.14,23.14,0,0,0-7.82,6.39c.59,2.83,3.21,6.32,6.16,8.83,5.5,4.67,9.25,10.13,13.28,16.54A60.26,60.26,0,0,0,249.81,308.75Z"></path><path class="cls-23" d="M225.28,278.38a15.51,15.51,0,0,0-6.2,5.14,9.6,9.6,0,0,0,2.87,6.66l31.64,32.56c2.89,2.89,15.7,11.43,20.81,6.32a3.23,3.23,0,0,0,1-2.9,3.58,3.58,0,0,1-5.58,2.68c-5.47-3.09-18.61-14.24-25.17-24.7-4-6.37-7.71-11.8-13.18-16.44C228.35,285.05,225.59,281.28,225.28,278.38Z"></path><path class="cls-20" d="M272.6,329.39c-5.91,1.59-15.82-4.95-18.32-7.45l-31.64-32.55a10.6,10.6,0,0,1-2.9-6.73c-.23.28-.45.57-.66.86a9.6,9.6,0,0,0,2.87,6.66l31.64,32.56c2.89,2.89,15.7,11.43,20.81,6.32a3.23,3.23,0,0,0,1-2.9A3.57,3.57,0,0,1,272.6,329.39Z"></path><path class="cls-23" d="M261.49,291.19c.05-.41.1-.8.15-1.19l-4.62-.91a.59.59,0,0,0-.7.46.6.6,0,0,0,.47.7Z"></path><path class="cls-23" d="M261,294.81l.15-1.19-3.43-.24a.59.59,0,0,0-.63.55.59.59,0,0,0,.55.64Z"></path><path class="cls-23" d="M261.37,298.53l-.21-1.19-2.54.06a.61.61,0,0,0-.58.61.59.59,0,0,0,.61.58Z"></path><path class="cls-23" d="M262.21,302c-.11-.38-.21-.77-.31-1.16l-2.19.33a.6.6,0,0,0,.17,1.18Z"></path><path class="cls-23" d="M263.33,305.73c-.13-.38-.25-.76-.37-1.14l-1.9.39a.59.59,0,1,0,.25,1.16Z"></path><path class="cls-23" d="M264.72,309.29c-.17-.37-.32-.73-.47-1.1l-1.6.75a.59.59,0,0,0-.29.79.6.6,0,0,0,.8.28Z"></path><path class="cls-23" d="M266.57,313q-.3-.53-.57-1.05l-1.42.74a.59.59,0,0,0-.26.8.59.59,0,0,0,.8.25Z"></path><path class="cls-23" d="M268.84,316.59q-.34-.49-.66-1l-1.14.63a.61.61,0,0,0-.23.82.6.6,0,0,0,.81.22Z"></path><path class="cls-23" d="M270.76,319.22l-.72-1-1.1.81a.58.58,0,0,0-.13.83.59.59,0,0,0,.83.13Z"></path><rect class="cls-13" x="106.09" y="121.73" width="0.7" height="4.18"></rect><path class="cls-13" d="M106.79,161.9h-.7v-9h.7Zm0-18h-.7v-9h.7Z"></path><polygon class="cls-13" points="110.63 175.44 106.09 175.44 106.09 170.9 106.79 170.9 106.79 174.74 110.63 174.74 110.63 175.44"></polygon><path class="cls-13" d="M136.73,175.43H130.2v-.69h6.53Zm-13,0h-6.53v-.69h6.53Z"></path><rect class="cls-13" x="143.25" y="174.74" width="4.18" height="0.7"></rect><rect class="cls-13" x="297.88" y="322.53" width="4.18" height="0.7"></rect><rect class="cls-13" x="310.73" y="322.53" width="8.67" height="0.7"></rect><polygon class="cls-13" points="332.59 323.23 328.06 323.23 328.06 322.53 331.89 322.53 331.89 318.7 332.59 318.7 332.59 323.23"></polygon><path class="cls-13" d="M332.59,310.11h-.7v-8.59h.7Zm0-17.18h-.7v-8.59h.7Zm0-17.18h-.7v-8.59h.7Zm0-17.18h-.7V250h.7Z"></path><rect class="cls-13" x="331.89" y="237.21" width="0.7" height="4.18"></rect></g></svg> 