<?xml version="1.0" encoding="UTF-8"?>
<svg width="97px" height="118px" viewBox="0 0 97 118" version="1.1" xmlns="http://www.w3.org/2000/svg" xmlns:xlink="http://www.w3.org/1999/xlink">
    <title>compliance icon</title>
    <defs>
        <linearGradient x1="50%" y1="0%" x2="50%" y2="100%" id="linearGradient-1">
            <stop stop-color="#002F57" offset="0%"></stop>
            <stop stop-color="#0075D7" offset="99.9918051%"></stop>
        </linearGradient>
        <linearGradient x1="50%" y1="0%" x2="50%" y2="100%" id="linearGradient-2">
            <stop stop-color="#002F57" offset="0%"></stop>
            <stop stop-color="#0075D7" offset="99.9918051%"></stop>
        </linearGradient>
        <linearGradient x1="50%" y1="0%" x2="50%" y2="100%" id="linearGradient-3">
            <stop stop-color="#002F57" offset="0%"></stop>
            <stop stop-color="#0075D7" offset="99.9918051%"></stop>
        </linearGradient>
        <linearGradient x1="50%" y1="0%" x2="50%" y2="100%" id="linearGradient-4">
            <stop stop-color="#002F57" offset="0%"></stop>
            <stop stop-color="#0075D7" offset="99.9918051%"></stop>
        </linearGradient>
    </defs>
    <g id="⏹️-Product-Wireframe" stroke="none" stroke-width="1" fill="none" fill-rule="evenodd">
        <g id="components-/-stat-card-dark-copy" transform="translate(-302.000000, -67.000000)">
            <g id="Group" transform="translate(292.000000, 67.000000)">
                <g id="list(1)" transform="translate(10.000000, 0.000000)">
                    <path d="M94.8837539,32.9593359 C95.8385859,32.9593359 96.6122695,32.1856523 96.6122695,31.2308203 L96.6122695,12.3628047 C96.6122695,9.39920703 94.2011055,6.98827344 91.2379688,6.98827344 L68.5842734,6.98827344 L68.5842734,5.37499219 C68.5842734,2.41116406 66.1731094,0.00023046875 63.2097422,0.00023046875 L58.8734727,0.00023046875 C57.9188711,0.00023046875 57.144957,0.773914063 57.144957,1.72874609 C57.144957,2.68357813 57.9188711,3.45726172 58.8734727,3.45726172 L63.2097422,3.45726172 C64.2669023,3.45726172 65.1270117,4.31737109 65.1270117,5.37476172 C65.1270117,7.74513281 65.1270117,9.77832812 65.1270117,12.2102344 C65.1270117,13.267625 64.2666719,14.1277344 63.2097422,14.1277344 L33.5871328,14.1277344 C32.5297422,14.1277344 31.6696328,13.267625 31.6696328,12.2102344 C31.6696328,9.77855859 31.6696328,7.74559375 31.6696328,5.37476172 C31.6696328,4.31760156 32.5297422,3.45726172 33.5871328,3.45726172 L52.0746445,3.45726172 C53.0294766,3.45726172 53.8031602,2.68357813 53.8031602,1.72874609 C53.8031602,0.773914063 53.0294766,0.00023046875 52.0746445,0.00023046875 L33.5871328,0.00023046875 C30.6235352,0.00023046875 28.2123711,2.41139453 28.2123711,5.37476172 L28.2123711,6.98804297 L5.55890625,6.98804297 C2.59530859,6.98804297 0.184375,9.39920703 0.184375,12.3625742 L0.184375,112.625008 C0.184375,115.588605 2.59553906,117.999539 5.55890625,117.999539 L91.2379688,117.999539 C94.2013359,117.999539 96.6122695,115.588375 96.6122695,112.625008 L96.6122695,37.56825 C96.6122695,36.6136484 95.8385859,35.8397344 94.8837539,35.8397344 C93.9289219,35.8397344 93.1552383,36.6136484 93.1552383,37.56825 L93.1552383,112.625008 C93.1552383,113.682168 92.2953594,114.542508 91.2379688,114.542508 L5.55890625,114.542508 C4.50174609,114.542508 3.64140625,113.682398 3.64140625,112.625008 L3.64140625,12.3628047 C3.64140625,11.3056445 4.50174609,10.4453047 5.55890625,10.4453047 L28.2123711,10.4453047 L28.2123711,12.2100039 C28.2123711,15.1731406 30.6230742,17.5847656 33.5871328,17.5847656 L63.2095117,17.5847656 C66.1728789,17.5847656 68.584043,15.173832 68.584043,12.2100039 L68.584043,10.4453047 L91.2377383,10.4453047 C92.2948984,10.4453047 93.1550078,11.3054141 93.1550078,12.3628047 L93.1550078,31.2305898 C93.1552383,32.1854219 93.9291523,32.9593359 94.8837539,32.9593359 Z" id="Path" fill="#FFFFFF" fill-rule="nonzero"></path>
                    <path d="M31.959332,30.057043 C31.2822148,29.3838438 30.1879492,29.3866094 29.5145195,30.0632656 L21.4700078,38.1494922 L17.8332109,34.7309492 C17.1374258,34.0768789 16.0433906,34.1109883 15.3895508,34.806543 C14.7357109,35.5023281 14.7695898,36.5961328 15.4651445,37.2502031 L20.3264219,41.8194766 C21.0081484,42.4601797 22.0756797,42.4422031 22.7359727,41.7791445 L31.9655547,32.5018555 C32.6387539,31.8249688 32.6359883,30.7304727 31.959332,30.057043 Z" id="Path" fill="url(#linearGradient-1)"></path>
                    <path d="M31.9591016,49.1444648 C31.2824453,48.4714961 30.1879492,48.4740313 29.5145195,49.150918 L21.4700078,57.2371445 L17.8332109,53.8186016 C17.1374258,53.1645313 16.0433906,53.1986406 15.3895508,53.8941953 C14.7357109,54.58975 14.7695898,55.6837852 15.4651445,56.337625 C20.6709727,61.230707 20.5976836,61.3759023 21.5103398,61.3759023 C22.4787695,61.3759023 22.0042344,61.6019922 31.9657852,51.5885859 C32.6387539,50.9123906 32.6357578,49.8176641 31.9591016,49.1444648 Z" id="Path" fill="url(#linearGradient-2)"></path>
                    <path d="M31.9591016,68.2318867 C31.2824453,67.5586875 30.1879492,67.5612227 29.5142891,68.2383398 L21.4697773,76.3245664 L17.8329805,72.9062539 C17.1371953,72.2521836 16.0431602,72.286293 15.3893203,72.9818477 C14.7354805,73.6774023 14.7695898,74.771668 15.4649141,75.4255078 L20.3261914,79.9945508 C21.007918,80.6352539 22.0756797,80.6175078 22.7357422,79.9539883 L31.9653242,70.6766992 C32.6387539,69.999582 32.6357578,68.9050859 31.9591016,68.2318867 Z" id="Path" fill="url(#linearGradient-3)"></path>
                    <path d="M31.959332,87.3197695 C31.2822148,86.6463398 30.1879492,86.6493359 29.51475,87.3257617 L21.4700078,95.4119883 L17.8332109,91.9934453 C17.1378867,91.3396055 16.0433906,91.3734844 15.3895508,92.0690391 C14.7354805,92.7643633 14.7693594,93.8586289 15.4649141,94.5126992 L20.3259609,99.0819727 C21.007918,99.7229062 22.0756797,99.7046992 22.7352813,99.0416406 L31.9653242,89.7643516 C32.6387539,89.0872344 32.6359883,87.9927383 31.959332,87.3197695 Z" id="Path" fill="url(#linearGradient-4)"></path>
                    <path d="M80.7087734,30.4170352 L41.8169414,30.4170352 C40.8621094,30.4170352 40.0884258,31.1907188 40.0884258,32.1455508 C40.0884258,33.1003828 40.8621094,33.8740664 41.8169414,33.8740664 L80.708543,33.8740664 C81.6631445,33.8740664 82.4370588,33.1003828 82.4370588,32.1455508 C82.4375195,31.1907188 81.6636055,30.4170352 80.7087734,30.4170352 Z" id="Path" fill="#FFFFFF" fill-rule="nonzero"></path>
                    <path d="M80.7087734,49.0409844 L41.8169414,49.0409844 C40.8621094,49.0409844 40.0884258,49.814668 40.0884258,50.7695 C40.0884258,51.724332 40.8621094,52.4980156 41.8169414,52.4980156 L80.708543,52.4980156 C81.6631445,52.4980156 82.4370588,51.724332 82.4370588,50.7695 C82.4375195,49.8148984 81.6636055,49.0409844 80.7087734,49.0409844 Z" id="Path" fill="#FFFFFF" fill-rule="nonzero"></path>
                    <path d="M80.7087734,67.665625 L41.8169414,67.665625 C40.8621094,67.665625 40.0884258,68.4393086 40.0884258,69.3941406 C40.0884258,70.3489727 40.8621094,71.1226563 41.8169414,71.1226563 L80.708543,71.1226563 C81.6631445,71.1226563 82.4370588,70.3489727 82.4370588,69.3941406 C82.4375195,68.4395391 81.6636055,67.665625 80.7087734,67.665625 Z" id="Path" fill="#FFFFFF" fill-rule="nonzero"></path>
                    <path d="M80.7087734,86.2898047 L41.8169414,86.2898047 C40.8621094,86.2898047 40.0884258,87.0637188 40.0884258,88.0183203 C40.0884258,88.9731523 40.8621094,89.7468359 41.8169414,89.7468359 L80.708543,89.7468359 C81.663375,89.7468359 82.4372891,88.9729219 82.4372891,88.0183203 C82.4372891,87.0637187 81.6636055,86.2898047 80.7087734,86.2898047 Z" id="Path" fill="#FFFFFF" fill-rule="nonzero"></path>
                    <path d="M61.4655547,38.3168125 L41.8169414,38.3168125 C40.8621094,38.3168125 40.0884258,39.0904961 40.0884258,40.0453281 C40.0884258,41.0001602 40.8623398,41.7738437 41.8169414,41.7738437 L61.4655547,41.7738437 C62.4203867,41.7738437 63.1940703,41.0001602 63.1940703,40.0453281 C63.1940703,39.0904961 62.4206172,38.3168125 61.4655547,38.3168125 Z" id="Path" fill="#B03478"></path>
                    <path d="M61.4655547,56.9409922 L41.8169414,56.9409922 C40.8621094,56.9409922 40.0884258,57.7146758 40.0884258,58.6695078 C40.0884258,59.6243398 40.8623398,60.3980234 41.8169414,60.3980234 L61.4655547,60.3980234 C62.4203867,60.3980234 63.1940703,59.6243398 63.1940703,58.6695078 C63.1940703,57.7146758 62.4206172,56.9409922 61.4655547,56.9409922 Z" id="Path" fill="#B03478"></path>
                    <path d="M61.4655547,75.5654023 L41.8169414,75.5654023 C40.8621094,75.5654023 40.0884258,76.3393164 40.0884258,77.293918 C40.0884258,78.24875 40.8623398,79.0224336 41.8169414,79.0224336 L61.4655547,79.0224336 C62.4203867,79.0224336 63.1940704,78.24875 63.1940704,77.293918 C63.1940704,76.3393164 62.4206172,75.5654023 61.4655547,75.5654023 Z" id="Path" fill="#B03478"></path>
                    <path d="M61.4655547,94.189582 L41.8169414,94.189582 C40.8621094,94.189582 40.0884258,94.9632656 40.0884258,95.9180977 C40.0884258,96.8729297 40.8621094,97.6466133 41.8169414,97.6466133 L61.4655547,97.6466133 C62.4203867,97.6466133 63.1940703,96.8729297 63.1940703,95.9180977 C63.1940703,94.9632656 62.4206172,94.189582 61.4655547,94.189582 Z" id="Path" fill="#B03478"></path>
                </g>
            </g>
        </g>
    </g>
</svg>