<?xml version="1.0" encoding="UTF-8"?>
<svg width="48px" height="48px" viewBox="0 0 48 48" version="1.1" xmlns="http://www.w3.org/2000/svg" xmlns:xlink="http://www.w3.org/1999/xlink">
    <title>icons / contract</title>
    <defs>
        <linearGradient x1="50%" y1="0%" x2="50%" y2="100%" id="linearGradient-1">
            <stop stop-color="#005E91" offset="0%"></stop>
            <stop stop-color="#003058" offset="100%"></stop>
        </linearGradient>
    </defs>
    <g id="icons-/-contract" stroke="none" stroke-width="1" fill="none" fill-rule="evenodd">
        <path d="M40.2076814,2 C40.8400985,2 41.3527738,2.51267536 41.3527738,3.14509246 L41.3527738,44.3684211 C41.3527738,45.0008382 40.8400985,45.5135135 40.2076814,45.5135135 L8.14509246,45.5135135 C7.51267536,45.5135135 7,45.0008382 7,44.3684211 L7,3.14509246 C7,2.51267536 7.51267536,2 8.14509246,2 L40.2076814,2 Z M39.0625889,4.29018492 L9.29018492,4.29018492 L9.29018492,43.2233286 L39.0625889,43.2233286 L39.0625889,4.29018492 Z M33.3371266,24.9018492 C33.9695437,24.9018492 34.4822191,25.4145246 34.4822191,26.0469417 C34.4822191,26.6793588 33.9695437,27.1920341 33.3371266,27.1920341 L15.0156472,27.1920341 C14.3832301,27.1920341 13.8705548,26.6793588 13.8705548,26.0469417 C13.8705548,25.4145246 14.3832301,24.9018492 15.0156472,24.9018492 L33.3371266,24.9018492 Z M33.3371266,20.3214794 C33.9695437,20.3214794 34.4822191,20.8341547 34.4822191,21.4665718 C34.4822191,22.0989889 33.9695437,22.6116643 33.3371266,22.6116643 L15.0156472,22.6116643 C14.3832301,22.6116643 13.8705548,22.0989889 13.8705548,21.4665718 C13.8705548,20.8341547 14.3832301,20.3214794 15.0156472,20.3214794 L33.3371266,20.3214794 Z M33.3371266,15.7411095 C33.9695437,15.7411095 34.4822191,16.2537849 34.4822191,16.886202 C34.4822191,17.5186191 33.9695437,18.0312945 33.3371266,18.0312945 L15.0156472,18.0312945 C14.3832301,18.0312945 13.8705548,17.5186191 13.8705548,16.886202 C13.8705548,16.2537849 14.3832301,15.7411095 15.0156472,15.7411095 L33.3371266,15.7411095 Z M31.0469417,8.87055477 C31.6793588,8.87055477 32.1920341,9.38323012 32.1920341,10.0156472 C32.1920341,10.6480643 31.6793588,11.1607397 31.0469417,11.1607397 L17.3058321,11.1607397 C16.673415,11.1607397 16.1607397,10.6480643 16.1607397,10.0156472 C16.1607397,9.38323012 16.673415,8.87055477 17.3058321,8.87055477 L31.0469417,8.87055477 Z" id="Combined-Shape" fill="url(#linearGradient-1)"></path>
        <path d="M32.1920341,35.6428165 C32.1579625,35.4997723 32.1579625,35.3507255 32.1920341,35.2076814 C32.1883319,34.903994 32.3130971,34.6128753 32.5355619,34.4061166 C32.9808236,33.9696728 33.6934296,33.9696728 34.1386913,34.4061166 C34.3611561,34.6128753 34.4859213,34.903994 34.4822191,35.2076814 C34.5162907,35.3507255 34.5162907,35.4997723 34.4822191,35.6428165 C34.433391,35.7857272 34.3462477,35.912481 34.2302987,36.0092461 C34.0225026,36.2306548 33.7323802,36.3562518 33.428734,36.3562518 C33.1250877,36.3562518 32.8349654,36.2306548 32.6271693,36.0092461 C32.4432447,35.9425953 32.2890126,35.8127157 32.1920341,35.6428165 L32.1920341,35.6428165 Z" id="Path" fill="#B03478" fill-rule="nonzero"></path>
        <path d="M19.5960171,38.6429587 C19.4527865,38.6754045 19.3041125,38.6754045 19.1608819,38.6429587 C18.7009559,38.4555994 18.4142265,37.9931326 18.4509246,37.4978663 L18.4509246,35.6886202 L15.8172119,38.299431 C15.37452,38.742123 14.6567745,38.7421229 14.2140825,38.299431 C13.7713906,37.856739 13.7713906,37.1389935 14.2140825,36.6963016 L18.7944523,32.1159317 C19.1090474,31.7737368 19.6077671,31.6721457 20.0311522,31.8640114 C20.4587589,32.0396727 20.738802,32.4552205 20.7411095,32.9174964 L20.7411095,34.7267425 L23.3748222,32.1159317 C23.6894172,31.7737368 24.1881369,31.6721457 24.611522,31.8640114 C25.0391288,32.0396727 25.3191718,32.4552205 25.3214794,32.9174964 L25.3214794,34.8412518 L25.8253201,34.3832148 C26.0320278,34.1772218 26.3121599,34.0618733 26.6039829,34.0625889 L29.9018492,34.0625889 C30.5342663,34.0625889 31.0469417,34.5752643 31.0469417,35.2076814 C31.0469417,35.8400985 30.5342663,36.3527738 29.9018492,36.3527738 L27.0620199,36.3527738 L24.9550498,38.3223329 C24.6283469,38.6442154 24.1386512,38.7348998 23.7183499,38.5513514 C23.303672,38.3640039 23.0355486,37.9528814 23.0312945,37.4978663 L23.0312945,35.6886202 L20.3975818,38.299431 C20.1908231,38.5218958 19.8997044,38.6466609 19.5960171,38.6429587 L19.5960171,38.6429587 Z" id="Path" fill="#B03478"></path>
    </g>
</svg>