<?xml version="1.0" encoding="UTF-8"?>
<svg width="47px" height="31px" viewBox="0 0 47 31" version="1.1" xmlns="http://www.w3.org/2000/svg" xmlns:xlink="http://www.w3.org/1999/xlink">
    <title>credit-card</title>
    <defs>
        <linearGradient x1="50%" y1="0%" x2="50%" y2="100%" id="linearGradient-1">
            <stop stop-color="#005E91" offset="0%"></stop>
            <stop stop-color="#003058" offset="100%"></stop>
        </linearGradient>
    </defs>
    <g id="Symbols" stroke="none" stroke-width="1" fill="none" fill-rule="evenodd">
        <g id="icons-/-credit-card" transform="translate(0.000000, -9.000000)" stroke-width="2">
            <g id="credit-card" transform="translate(1.000000, 10.000000)">
                <path d="M5,0 L40,0 C42.7614237,-5.07265313e-16 45,2.23857625 45,5 L45,24 C45,26.7614237 42.7614237,29 40,29 L5,29 C2.23857625,29 3.38176876e-16,26.7614237 0,24 L0,5 C-3.38176876e-16,2.23857625 2.23857625,5.07265313e-16 5,0 Z M0.478723404,9.18333333 L43.5638298,9.18333333" id="Combined-Shape" stroke="url(#linearGradient-1)"></path>
                <line x1="6.47058824" y1="14.5" x2="21.5294118" y2="14.5" id="Line-2" stroke="#B03478" stroke-linecap="square"></line>
                <line x1="31.5" y1="14.5" x2="37.5" y2="14.5" id="Line-2-Copy" stroke="#B03478" stroke-linecap="square"></line>
                <line x1="5.5" y1="17.5" x2="11.5" y2="17.5" id="Line-2-Copy-2" stroke="#B03478" stroke-linecap="square"></line>
            </g>
        </g>
    </g>
</svg>