<?xml version="1.0" encoding="UTF-8"?> <svg xmlns="http://www.w3.org/2000/svg" id="Layer_2" data-name="Layer 2" viewBox="0 0 209.01 76.84"><defs><style>.cls-1,.cls-2{fill:#181919;}.cls-1,.cls-3{fill-rule:evenodd;}.cls-3{fill:#0066a4;}</style></defs><title>Artboard 1</title><path class="cls-1" d="M47.89,44.84a7,7,0,0,1-5-2C41,40.91,41,38.79,41,35.1s0-5.81,1.85-7.69a7,7,0,0,1,5-2,6.6,6.6,0,0,1,6.84,5.89h-3a4,4,0,0,0-6.7-2.12c-.94,1-1.15,2.12-1.15,6s.22,4.94,1.15,6a4,4,0,0,0,6.72-2.12h2.94A6.61,6.61,0,0,1,47.89,44.84Z"></path><path class="cls-1" d="M71.18,42.79a7.25,7.25,0,0,1-10.09,0c-1.88-1.88-1.85-4-1.85-7.69s0-5.81,1.85-7.69a7.22,7.22,0,0,1,10.09,0c1.88,1.88,1.82,4,1.82,7.69s.06,5.8-1.82,7.69ZM69,29.15a4,4,0,0,0-5.7,0c-.94,1-1.13,2.1-1.13,6S62.34,40,63.28,41A4,4,0,0,0,69,41c.94-1,1.13-2.09,1.13-5.93S69.92,30.18,69,29.15Z"></path><polygon class="cls-1" points="89.34 44.67 89.34 36.31 81.56 36.31 81.56 44.67 78.66 44.67 78.66 25.53 81.56 25.53 81.56 33.7 89.34 33.7 89.34 25.53 92.24 25.53 92.24 44.67 89.34 44.67"></polygon><polygon class="cls-1" points="98.58 44.67 98.58 25.53 110.82 25.53 110.82 28.14 101.49 28.14 101.49 33.73 109.45 33.73 109.45 36.31 101.49 36.31 101.49 42.06 110.82 42.06 110.82 44.67 98.58 44.67"></polygon><path class="cls-1" d="M126.71,44.67l-4-8.07H119v8.07h-2.9V25.53h7.42c3.63,0,5.95,2.35,5.95,5.59a5,5,0,0,1-3.82,5.09l4.41,8.47Zm-3.36-16.54H119v6h4.31c1.94,0,3.25-1.1,3.25-3A2.94,2.94,0,0,0,123.35,28.14Z"></path><polygon class="cls-1" points="135.1 44.67 135.1 25.53 147.34 25.53 147.34 28.14 138.01 28.14 138.01 33.73 145.97 33.73 145.97 36.31 138.01 36.31 138.01 42.06 147.34 42.06 147.34 44.67 135.1 44.67"></polygon><polygon class="cls-1" points="164.42 44.67 155.57 31.2 155.57 44.67 152.67 44.67 152.67 25.53 155.33 25.53 164.17 38.98 164.17 25.53 167.08 25.53 167.08 44.67 164.42 44.67"></polygon><polygon class="cls-1" points="179.91 28.14 179.91 44.67 177 44.67 177 28.14 171.73 28.14 171.73 25.53 185.17 25.53 185.17 28.14 179.91 28.14"></polygon><path class="cls-1" d="M118.65,61a3.71,3.71,0,0,1-2.88-1l1-1a2.59,2.59,0,0,0,1.9.66c.91,0,1.4-.34,1.4-1a.89.89,0,0,0-.24-.67,1.19,1.19,0,0,0-.7-.28l-.95-.13a2.7,2.7,0,0,1-1.53-.66,2.08,2.08,0,0,1-.57-1.55c0-1.4,1-2.39,2.75-2.39a3.38,3.38,0,0,1,2.55.92l-1,1a2.19,2.19,0,0,0-1.62-.55c-.82,0-1.22.45-1.22,1a.78.78,0,0,0,.24.56,1.39,1.39,0,0,0,.73.31l.93.13A2.58,2.58,0,0,1,121,57a2.19,2.19,0,0,1,.61,1.67C121.57,60.18,120.3,61,118.65,61Z"></path><path class="cls-1" d="M132.23,60.18a3,3,0,0,1-4.26,0c-.8-.79-.78-1.78-.78-3.14s0-2.35.78-3.14a3.07,3.07,0,0,1,4.26,0c.8.79.79,1.78.79,3.14s0,2.35-.79,3.14Zm-1.14-5.36a1.3,1.3,0,0,0-1-.42,1.32,1.32,0,0,0-1,.42c-.31.34-.38.7-.38,2.22s.08,1.88.38,2.21a1.3,1.3,0,0,0,1,.42,1.28,1.28,0,0,0,1-.42c.3-.33.39-.7.39-2.21S131.38,55.16,131.08,54.82Z"></path><polygon class="cls-1" points="139.01 60.98 139.01 53.09 140.56 53.09 140.56 59.6 144.13 59.6 144.13 60.98 139.01 60.98"></polygon><path class="cls-1" d="M152.46,61a2.74,2.74,0,0,1-2.9-2.77V53.09h1.53v5.13a1.37,1.37,0,1,0,2.74,0V53.09h1.52v5.19A2.74,2.74,0,0,1,152.46,61Z"></path><polygon class="cls-1" points="164.51 54.47 164.51 60.98 162.98 60.98 162.98 54.47 160.91 54.47 160.91 53.09 166.57 53.09 166.57 54.47 164.51 54.47"></polygon><rect class="cls-2" x="172.25" y="53.09" width="1.54" height="7.89"></rect><path class="cls-1" d="M184.83,60.18a3,3,0,0,1-4.26,0c-.8-.79-.78-1.78-.78-3.14s0-2.35.78-3.14a2.84,2.84,0,0,1,2.14-.86,2.81,2.81,0,0,1,2.12.86c.8.79.79,1.78.79,3.14s0,2.35-.79,3.14Zm-1.14-5.36a1.28,1.28,0,0,0-1-.42,1.33,1.33,0,0,0-1,.42c-.3.34-.37.7-.37,2.22s.08,1.88.37,2.21a1.32,1.32,0,0,0,1,.42,1.26,1.26,0,0,0,1-.42c.3-.33.39-.7.39-2.21S184,55.16,183.69,54.82Z"></path><polygon class="cls-1" points="196.28 60.98 193.16 56.14 193.16 60.98 191.62 60.98 191.62 53.09 192.99 53.09 196.11 57.92 196.11 53.09 197.66 53.09 197.66 60.98 196.28 60.98"></polygon><path class="cls-1" d="M206.09,61a3.7,3.7,0,0,1-2.88-1l1-1a2.58,2.58,0,0,0,1.91.66c.91,0,1.4-.34,1.4-1a.85.85,0,0,0-.25-.67,1.18,1.18,0,0,0-.7-.28l-1-.13a2.69,2.69,0,0,1-1.53-.66,2.11,2.11,0,0,1-.57-1.55c0-1.4,1-2.39,2.75-2.39a3.37,3.37,0,0,1,2.54.92l-1,1a2.18,2.18,0,0,0-1.61-.55c-.82,0-1.22.45-1.22,1a.76.76,0,0,0,.23.56,1.38,1.38,0,0,0,.73.31l.94.13a2.59,2.59,0,0,1,1.5.61,2.2,2.2,0,0,1,.61,1.67C209,60.18,207.74,61,206.09,61Z"></path><path class="cls-3" d="M24.68,49.84A22.36,22.36,0,0,1,21,36.2c.5-6.58,4.23-12.64,10.31-17.77a313.89,313.89,0,0,1,43.57-5.67l0,1.55,5.37-2.08-5.46-1.6,0,1.44A320.08,320.08,0,0,0,35,15.63,64.66,64.66,0,0,1,48.37,8.78,209.71,209.71,0,0,1,88.85,3.2s8.85-.36,17.58-.67V4.14l6.36-2.19L106.43,0V1.45C98.66,1.32,89,1.64,89,1.62,40.93,2.64,2.07,18.31.08,37.55-2,58.15,39,75.72,91.65,76.81l2.91,0q-5.26-.17-10.35-.56h.26c-1.07-.07-2.13-.15-3.19-.25L81,76c-15.77-1.44-29.68-5.69-40.14-11.67a313.36,313.36,0,0,0,58,4.3c1.73,0,3.51-.09,5.24-.16A305.71,305.71,0,0,1,35.58,61a44.76,44.76,0,0,1-8.24-7.48,311.62,311.62,0,0,0,77.23,7c1.74,0,3.51-.14,5.25-.23A304.6,304.6,0,0,1,24.68,49.84Zm16.56-39.1A64.28,64.28,0,0,0,30,16.45q-3,.51-5.91,1.08a100.4,100.4,0,0,1,17.17-6.8ZM6.66,44.11a15.08,15.08,0,0,1-.77-6.44c.6-5.87,4.64-11.28,11.3-16q4.18-1.06,8.44-2c-5.57,4.7-8.95,10.26-9.43,16.55a21.35,21.35,0,0,0,2.77,12q-6.31-1.91-12.3-4.08ZM34.54,63.19a89.21,89.21,0,0,0,25,9.82C45,70.16,32.53,65.93,23.3,60.78c3.68.87,7.44,1.67,11.24,2.4Zm-5.6-3.83q-7-1.79-13.63-3.9a31.52,31.52,0,0,1-6.37-6.76q6.17,1.85,12.62,3.44A41.63,41.63,0,0,0,28.94,59.36Z"></path></svg> 