<?xml version="1.0" encoding="UTF-8"?>
<svg width="117px" height="117px" viewBox="0 0 117 117" version="1.1" xmlns="http://www.w3.org/2000/svg" xmlns:xlink="http://www.w3.org/1999/xlink">
    <title>currency</title>
    <defs>
        <linearGradient x1="50%" y1="-125.480886%" x2="50%" y2="100%" id="linearGradient-1">
            <stop stop-color="#002F57" offset="0%"></stop>
            <stop stop-color="#0075D7" offset="99.9918051%"></stop>
        </linearGradient>
        <linearGradient x1="50%" y1="-125.480886%" x2="50%" y2="100%" id="linearGradient-2">
            <stop stop-color="#002F57" offset="0%"></stop>
            <stop stop-color="#0075D7" offset="99.9918051%"></stop>
        </linearGradient>
        <linearGradient x1="50%" y1="-125.480886%" x2="50%" y2="100%" id="linearGradient-3">
            <stop stop-color="#002F57" offset="0%"></stop>
            <stop stop-color="#0075D7" offset="99.9918051%"></stop>
        </linearGradient>
        <linearGradient x1="50%" y1="-125.480886%" x2="50%" y2="100%" id="linearGradient-4">
            <stop stop-color="#002F57" offset="0%"></stop>
            <stop stop-color="#0075D7" offset="99.9918051%"></stop>
        </linearGradient>
    </defs>
    <g id="Symbols" stroke="none" stroke-width="1" fill="none" fill-rule="evenodd">
        <g id="currency">
            <path d="M27.8528555,84.1408242 C28.8014238,84.1408242 29.5701504,83.3720977 29.5701504,82.4235293 C29.5701504,81.4749609 28.8014238,80.7062344 27.8528555,80.7062344 C23.9742598,80.7062344 21.1792852,81.454623 19.056375,83.0610879 C17.3646738,84.3412324 16.1896465,86.1481055 15.5365488,88.4556563 L13.7337891,88.4556563 C12.7852207,88.4556563 12.0164941,89.2243828 12.0164941,90.1729512 C12.0164941,91.1215195 12.7852207,91.8902461 13.7337891,91.8902461 L14.9746289,91.8902461 C14.9446934,92.3548184 14.9259551,92.8299023 14.9259551,93.3223535 C14.9259551,93.8148047 14.9446934,94.2901172 14.9746289,94.7546895 L13.7337891,94.7546895 C12.7852207,94.7546895 12.0164941,95.523416 12.0164941,96.4719844 C12.0164941,97.4205527 12.7852207,98.1892793 13.7337891,98.1892793 L15.5365488,98.1892793 C16.1896465,100.496602 17.3649023,102.303246 19.056375,103.583619 C21.1792852,105.190313 23.9742598,105.938701 27.8528555,105.938701 C28.8014238,105.938701 29.5701504,105.169975 29.5701504,104.221406 C29.5701504,103.272838 28.8014238,102.504111 27.8528555,102.504111 C23.1383496,102.504111 20.3778809,101.201115 19.1425254,98.1890508 L25.2061875,98.1890508 C26.1547559,98.1890508 26.9234824,97.4203242 26.9234824,96.4717559 C26.9234824,95.5231875 26.1547559,94.7544609 25.2061875,94.7544609 L18.4117324,94.7544609 C18.3785977,94.2985723 18.3603164,93.8230313 18.3603164,93.322125 C18.3603164,92.8212188 18.3785977,92.3459063 18.4117324,91.8900176 L25.206416,91.8900176 C26.1549844,91.8900176 26.9237109,91.121291 26.9237109,90.1727227 C26.9237109,89.2241543 26.1549844,88.4554277 25.206416,88.4554277 L19.1427539,88.4554277 C20.3778809,85.4438203 23.1385781,84.1408242 27.8528555,84.1408242 L27.8528555,84.1408242 Z" id="Path" fill="url(#linearGradient-1)"></path>
            <path d="M85.9858594,24.6223301 L89.2017598,24.6223301 L89.2259824,24.8302793 C89.4766641,27.0738457 89.3452676,27.9104414 87.552334,30.3183105 L85.7504883,32.5835859 C84.8519648,33.6409277 85.6922168,35.4027832 87.0793066,35.369877 L101.166152,35.494418 L101.181463,35.494418 C102.122719,35.494418 102.890074,34.7355176 102.898595,33.7924336 C102.906756,32.8440937 102.144885,32.0685117 101.196545,32.0600566 L90.6021035,31.9663652 C92.5088379,29.3119277 92.9670117,27.6254824 92.6562305,24.6225586 L95.8792148,24.6225586 C96.8277832,24.6225586 97.5965098,23.853832 97.5965098,22.9052637 C97.5965098,21.9566953 96.8277832,21.1879688 95.8792148,21.1879688 L91.8235195,21.1879688 C91.136373,20.1619336 89.9398652,18.0049746 89.9476348,16.2284941 C89.9476348,16.226209 89.9474062,16.2239238 89.9474062,16.2216387 C89.9474062,16.2193535 89.9476348,16.2170684 89.9476348,16.2147832 C89.943293,15.0623789 90.4457988,14.2173281 91.4832598,13.6316426 C93.0533906,12.7456875 95.493709,12.731748 96.9228457,13.6005645 C98.0400586,14.2799414 98.8853379,15.2346797 99.1289355,16.0925273 C99.3878437,17.0047617 100.337326,17.534918 101.249789,17.2755527 C102.162023,17.0166445 102.691723,16.0671621 102.432814,15.1546992 C101.948361,13.4467734 100.590064,11.8106016 98.7073242,10.6659668 C96.2082773,9.14610937 92.459707,9.1362832 89.7947578,10.6408301 C87.6780176,11.8361953 86.5141875,13.8096562 86.513959,16.2001582 C86.513959,16.2047285 86.5132734,16.2090703 86.5132734,16.2136406 C86.5132734,16.2156973 86.513502,16.2177539 86.513502,16.2198105 C86.513502,16.2223242 86.5132734,16.2246094 86.5132734,16.2273516 C86.5132734,16.2344355 86.5141875,16.2410625 86.514416,16.2481465 C86.5151016,18.0465645 87.1736836,19.8255586 87.8560312,21.1877402 L85.9860879,21.1877402 C85.0375195,21.1877402 84.2687929,21.9564668 84.2687929,22.9050352 C84.2685645,23.8536035 85.037291,24.6223301 85.9858594,24.6223301 L85.9858594,24.6223301 Z" id="Path" fill="url(#linearGradient-2)"></path>
            <path d="M105.558451,73.6645254 C107.481182,68.3035488 108.457629,62.6790937 108.457629,56.9214141 C108.457629,52.116873 107.769111,47.3742598 106.414014,42.8025762 C112.782516,38.6413066 117,31.4501484 117,23.2914551 C117,10.4484199 106.55158,0 93.7085449,0 C85.8542344,0 78.8959336,3.90853125 74.6750215,9.88192969 C69.5830078,8.16669141 64.2606504,7.29581836 58.8322617,7.29581836 C53.2135195,7.29581836 47.7113203,8.22930469 42.4543184,10.0683984 C38.2471172,3.99011133 31.2268887,0 23.2914551,0 C10.4484199,0 0,10.4484199 0,23.2914551 C0,31.6871191 4.46565234,39.0590332 11.1460781,43.1581465 C9.8602207,47.6196855 9.20689453,52.2425566 9.20689453,56.9214141 C9.20689453,62.559123 10.1465508,68.0764043 11.9959277,73.3457461 C4.84727344,77.3269453 0,84.9618809 0,93.7085449 C0,106.55158 10.4484199,117 23.2914551,117 C32.3242207,117 40.1723613,111.831434 44.0342754,104.296588 C48.8125371,105.788566 53.782752,106.546781 58.8322617,106.546781 C63.677707,106.546781 68.4555117,105.847752 73.0582734,104.472088 C76.9514941,111.911186 84.7463906,117 93.7085449,117 C106.55158,117 117,106.55158 117,93.7085449 C117,85.1899395 112.402037,77.7259336 105.558451,73.6645254 Z M93.7085449,3.43436133 C104.657643,3.43436133 113.56541,12.3421289 113.56541,23.2912266 C113.56541,34.2405527 104.657643,43.1483203 93.7085449,43.1483203 C82.7592188,43.1483203 73.8514512,34.2405527 73.8514512,23.2912266 C73.8514512,12.3423574 82.7592188,3.43436133 93.7085449,3.43436133 Z M97.4148398,46.2869824 C99.4899902,45.9538066 101.474648,45.3461836 103.329738,44.5013613 C104.453121,48.532377 105.023039,52.700959 105.023039,56.9214141 C105.023039,62.1459668 104.159707,67.2512344 102.460008,72.1250156 C100.567213,71.3546895 98.5517051,70.8268184 96.4509609,70.5793359 C98.0405156,66.2114883 98.8476328,61.6286074 98.8476328,56.9214141 C98.8476328,53.3069824 98.3650078,49.7393965 97.4148398,46.2869824 L97.4148398,46.2869824 Z M58.8322617,10.7304082 C63.633832,10.7304082 68.3455957,11.4600586 72.8672344,12.9015352 C71.9527148,14.7282891 71.2715098,16.6910098 70.8626953,18.7508496 C66.9818145,17.527377 62.9448574,16.9058145 58.8322617,16.9058145 C54.4902363,16.9058145 50.2432734,17.5945605 46.1756953,18.9512578 C45.7856191,16.8895898 45.1233809,14.9232129 44.2271426,13.0912031 C48.9254238,11.5247285 53.8289121,10.7304082 58.8322617,10.7304082 Z M3.43436133,23.2914551 C3.43436133,12.3423574 12.3421289,3.43458984 23.2912266,3.43458984 C34.2405527,3.43458984 43.1483203,12.3423574 43.1483203,23.2914551 C43.1483203,34.2407812 34.2405527,43.1485488 23.2912266,43.1485488 C12.3423574,43.1485488 3.43436133,34.2405527 3.43436133,23.2914551 Z M21.1895684,70.5128379 C19.0755703,70.7027344 17.0420098,71.1759902 15.1275059,71.8949004 C13.4787656,67.0862461 12.6412559,62.0582168 12.6412559,56.9211855 C12.6412559,52.7921367 13.1869512,48.7110762 14.2625742,44.7611836 C16.1377734,45.5527617 18.1377422,46.1048555 20.2236328,46.3804453 C19.290375,49.8042949 18.8166621,53.3401172 18.8166621,56.9211855 C18.8166621,61.6048418 19.6160098,66.1648711 21.1895684,70.5128379 L21.1895684,70.5128379 Z M23.2914551,113.565639 C12.3423574,113.565639 3.43458984,104.657871 3.43458984,93.7087734 C3.43458984,82.7594473 12.3423574,73.8516797 23.2914551,73.8516797 C34.2407812,73.8516797 43.1485488,82.7594473 43.1485488,93.7087734 C43.1485488,104.657643 34.2405527,113.565639 23.2914551,113.565639 Z M58.8322617,103.11242 C54.2425254,103.11242 49.7243145,102.441041 45.3745195,101.11725 C46.025332,99.1824082 46.4279766,97.1346797 46.5456621,95.011998 C50.5014961,96.2887148 54.6227754,96.9367852 58.8320332,96.9367852 C62.8050059,96.9367852 66.7075957,96.357041 70.4669063,95.2151484 C70.6026445,97.3312031 71.0215137,99.3711621 71.6874082,101.297549 C67.523625,102.502283 63.2078789,103.11242 58.8322617,103.11242 L58.8322617,103.11242 Z M70.5139805,91.5940898 C66.7592402,92.8596094 62.8351699,93.5024238 58.8322617,93.5024238 C54.5782148,93.5024238 50.4235723,92.7798574 46.4647676,91.3568906 C45.3331582,80.123291 36.1856777,71.2210078 24.8455898,70.4701055 C23.1244102,66.1616719 22.2510234,61.6094121 22.2510234,56.9214141 C22.2510234,53.3990742 22.7514727,49.9258652 23.7370605,46.5774258 C36.3748887,46.338627 46.5826816,35.9852695 46.5826816,23.2914551 C46.5826816,23.0094668 46.5758262,22.7293066 46.5657715,22.449832 C50.493041,21.0510879 54.6129492,20.3404043 58.8318047,20.3404043 C62.8091191,20.3404043 66.7082812,20.9754492 70.441998,22.2254297 C70.426002,22.5789434 70.4166328,22.9340566 70.4166328,23.2914551 C70.4166328,36.1344902 80.8652812,46.5831387 93.7083164,46.5831387 C93.7816699,46.5831387 93.8545664,46.581082 93.9279199,46.5803965 C94.9128223,49.9274648 95.4128145,53.3997598 95.4128145,56.9216426 C95.4128145,61.5968438 94.543998,66.1369922 92.8317305,70.4353711 C81.1004238,70.8716074 71.560125,80.0254863 70.5139805,91.5940898 Z M93.7085449,113.565639 C82.7592188,113.565639 73.8514512,104.657871 73.8514512,93.7087734 C73.8514512,82.7594473 82.7592188,73.8516797 93.7085449,73.8516797 C104.657643,73.8516797 113.56541,82.7594473 113.56541,93.7087734 C113.56541,104.657643 104.657643,113.565639 93.7085449,113.565639 Z" id="Shape" fill="#FFFFFF" fill-rule="nonzero"></path>
            <path d="M101.728529,81.2416465 C100.937408,80.7176602 99.8720684,80.9349785 99.3487676,81.7256426 L93.7451074,90.1926035 L88.086375,81.6675996 C87.5617031,80.8771641 86.4956777,80.6621309 85.7059277,81.1863457 C84.9157207,81.7110176 84.700459,82.7768145 85.2246738,83.566793 L91.208584,92.5812773 L86.6700352,92.5812773 C85.7214668,92.5812773 84.9527402,93.3500039 84.9527402,94.2985723 C84.9527402,95.2471406 85.7214668,96.0158672 86.6700352,96.0158672 L92.0225566,96.0158672 L92.0168438,98.426707 L86.6698066,98.426707 C85.7212383,98.426707 84.9525117,99.1954336 84.9525117,100.144002 C84.9525117,101.09257 85.7212383,101.861297 86.6698066,101.861297 L92.0090742,101.861297 L92.0022188,104.815318 C91.9999336,105.763887 92.7670605,106.534213 93.7154004,106.536498 L93.7195137,106.536498 C94.6660254,106.536498 95.4345234,105.770285 95.4368086,104.823316 L95.4436641,101.861297 L100.76625,101.861297 C101.714818,101.861297 102.483545,101.09257 102.483545,100.144002 C102.483545,99.1954336 101.714818,98.426707 100.76625,98.426707 L95.4514336,98.426707 L95.456918,96.0158672 L100.766021,96.0158672 C101.71459,96.0158672 102.483316,95.2471406 102.483316,94.2985723 C102.483316,93.3500039 101.71459,92.5812773 100.766021,92.5812773 L96.2825449,92.5812773 L102.212525,83.6214082 C102.736055,82.8305156 102.519422,81.7649473 101.728529,81.2416465 L101.728529,81.2416465 Z" id="Path" fill="url(#linearGradient-3)"></path>
            <path d="M24.8835234,35.9658457 L24.8835234,34.5949805 C27.8933027,33.863959 29.8238027,31.3075547 30.2476992,28.7870273 C30.7963652,25.5229102 29.0911816,22.6856602 25.9036172,21.5590781 C25.5679277,21.4404785 25.2258398,21.3170801 24.8835234,21.1895684 L24.8835234,15.2371934 C25.6092891,15.4855898 26.0336426,15.8439023 26.0667773,15.8729238 C26.375959,16.1725078 26.7968848,16.3576055 27.2616855,16.3576055 C28.2107109,16.3576055 28.9803516,15.5881934 28.9803516,14.6389395 C28.9803516,14.1160957 28.7465801,13.6480957 28.3782129,13.3329727 C28.2984609,13.2591621 27.0055195,12.0951035 24.883752,11.6963438 L24.883752,10.6170645 C24.883752,9.66849609 24.1150254,8.89976953 23.166457,8.89976953 C22.2178887,8.89976953 21.4491621,9.66849609 21.4491621,10.6170645 L21.4491621,11.8167715 C21.3159375,11.8503633 21.1813418,11.8873828 21.0451465,11.9282871 C18.9325195,12.5647031 17.3543906,14.3690625 16.9270664,16.6375371 C16.5353906,18.7163438 17.2083691,20.7261387 18.683209,21.8828848 C19.3977773,22.4432051 20.2720781,22.9569082 21.4491621,23.4927773 L21.4491621,31.3036699 C20.5659492,31.1942109 19.9201641,30.9154219 18.8955,30.2451855 C18.1023223,29.7262266 17.037668,29.9483437 16.5184805,30.742207 C15.999293,31.5358418 16.2218672,32.6000391 17.015502,33.1192266 C18.7485645,34.2528926 19.9633535,34.6372559 21.4491621,34.7549414 L21.4491621,35.9653887 C21.4491621,36.913957 22.2178887,37.6826836 23.166457,37.6826836 C24.1147969,37.6826836 24.8835234,36.9141855 24.8835234,35.9658457 L24.8835234,35.9658457 Z M24.8835234,24.8444473 C27.0964687,25.6990957 26.9584453,27.6353086 26.8606406,28.2173379 C26.683998,29.2680527 26.0130762,30.376125 24.8835234,30.9567832 L24.8835234,24.8444473 Z M21.4491621,19.6235508 C21.213791,19.4791289 20.9953301,19.3319648 20.8026914,19.1806875 C20.3477168,18.8235176 20.1509648,18.0751289 20.3020137,17.2739531 C20.4196992,16.6501055 20.7802969,15.9227402 21.4491621,15.4897031 L21.4491621,19.6235508 Z" id="Shape" fill="url(#linearGradient-4)"></path>
            <path d="M58.5,36.3362695 C46.2789844,36.3362695 36.3362695,46.2789844 36.3362695,58.5 C36.3362695,70.7210156 46.2789844,80.6637305 58.5,80.6637305 C70.7210156,80.6637305 80.6637305,70.7210156 80.6637305,58.5 C80.6637305,46.2789844 70.7210156,36.3362695 58.5,36.3362695 Z M75.1642734,49.9674551 L68.7505254,49.9674551 C68.262416,47.5289648 67.5645293,45.2780859 66.6728613,43.3281621 C66.309293,42.5329277 65.9189883,41.8019063 65.505832,41.1353262 C69.6846973,42.8272559 73.1163164,45.9841992 75.1642734,49.9674551 Z M66.1321934,58.5 C66.1321934,60.2947617 66.024334,61.9990313 65.8307812,63.5981836 L51.1692187,63.5981836 C50.975666,61.9990313 50.8675781,60.2947617 50.8675781,58.5 C50.8675781,56.7052383 50.9754375,55.0009687 51.1692187,53.4018164 L65.8305527,53.4018164 C66.024334,55.0009687 66.1321934,56.7052383 66.1321934,58.5 Z M58.5,39.7706309 C61.0792559,39.7706309 63.8682891,43.699043 65.2510371,49.9672266 L51.7491914,49.9672266 C53.1317109,43.699043 55.9207441,39.7706309 58.5,39.7706309 Z M51.4943965,41.1350977 C51.0812402,41.8019063 50.6909355,42.5326992 50.3273672,43.3279336 C49.4356992,45.2778574 48.7378125,47.5285078 48.2497031,49.9672266 L41.8359551,49.9672266 C43.8836836,45.9841992 47.3153027,42.8272559 51.4943965,41.1350977 L51.4943965,41.1350977 Z M39.7706309,58.5 C39.7706309,56.7326602 40.021998,55.0238203 40.4817715,53.4018164 L47.7156621,53.4018164 C47.5301074,55.0535273 47.4332168,56.7616816 47.4332168,58.5 C47.4332168,60.2383184 47.5298789,61.9464727 47.7156621,63.5981836 L40.4817715,63.5981836 C40.021998,61.9761797 39.7706309,60.2673398 39.7706309,58.5 Z M41.8357266,67.0327734 L48.2494746,67.0327734 C48.737584,69.4712637 49.4354707,71.7221426 50.3271387,73.6720664 C50.690707,74.4673008 51.0810117,75.1983223 51.494168,75.8649023 C47.3153027,74.1727441 43.8836836,71.0158008 41.8357266,67.0327734 L41.8357266,67.0327734 Z M58.5,77.2293691 C55.9207441,77.2293691 53.1317109,73.300957 51.7489629,67.0327734 L65.2508086,67.0327734 C63.8682891,73.300957 61.0792559,77.2293691 58.5,77.2293691 L58.5,77.2293691 Z M65.5044609,75.8653594 C65.9178457,75.1983223 66.3088359,74.4677578 66.6726328,73.6718379 C67.5643008,71.7219141 68.2621875,69.4712637 68.7502969,67.0325449 L75.1640449,67.0325449 C73.1160879,71.0162578 69.6840117,74.1734297 65.5044609,75.8653594 L65.5044609,75.8653594 Z M69.2843379,63.5981836 C69.4698926,61.9464727 69.5665547,60.2380898 69.5665547,58.5 C69.5665547,56.7616816 69.4698926,55.0535273 69.2843379,53.4018164 L76.5182285,53.4018164 C76.978002,55.0240488 77.2293691,56.7326602 77.2293691,58.5 C77.2293691,60.2673398 76.978002,61.9761797 76.5182285,63.5981836 L69.2843379,63.5981836 Z" id="Shape" fill="#B03478"></path>
        </g>
    </g>
</svg>