<?xml version="1.0" encoding="UTF-8"?>
<svg width="44px" height="42px" viewBox="0 0 44 42" version="1.1" xmlns="http://www.w3.org/2000/svg" xmlns:xlink="http://www.w3.org/1999/xlink">
    <title>customer</title>
    <defs>
        <linearGradient x1="50%" y1="0%" x2="50%" y2="100%" id="linearGradient-1">
            <stop stop-color="#005E91" offset="0%"></stop>
            <stop stop-color="#003058" offset="100%"></stop>
        </linearGradient>
        <linearGradient x1="50%" y1="0%" x2="50%" y2="100%" id="linearGradient-2">
            <stop stop-color="#005E91" offset="0%"></stop>
            <stop stop-color="#003058" offset="100%"></stop>
        </linearGradient>
    </defs>
    <g id="⏹️-Product-Wireframe" stroke="none" stroke-width="1" fill="none" fill-rule="evenodd">
        <g id="DR---Global-Seller-Services" transform="translate(-532.000000, -3951.000000)" fill-rule="nonzero">
            <g id="Benefits" transform="translate(0.000000, 3872.000000)">
                <g id="elements-/-card-/-icon+h3+p-copy" transform="translate(531.000000, 44.000000)">
                    <g id="Group" transform="translate(0.000000, 35.000000)">
                        <g id="account-screening" transform="translate(1.916667, 0.895833)">
                            <path d="M15.8979287,18.4924245 C21.360684,18.4924245 25.7892255,14.3529744 25.7892255,9.24621224 C25.7892255,4.13972358 21.360684,0 15.8979287,0 C10.4351734,0 6.00663185,4.13972358 6.00663185,9.24621224 C6.01189797,14.3510601 10.4372214,18.4875019 15.8979287,18.4924245 Z M15.8979287,1.74947557 C20.3273479,1.74947557 23.9176936,5.10621521 23.9176936,9.24621224 C23.9176936,13.3867563 20.3273479,16.742949 15.8979287,16.742949 C11.468802,16.742949 7.8784564,13.3867563 7.8784564,9.24621224 C7.88342997,5.10785608 11.47085,1.75439831 15.8979287,1.74947557 Z" id="Shape" fill="url(#linearGradient-1)"></path>
                            <path d="M41.6043586,23.6623614 L33.5377835,19.6473464 C33.2598478,19.5056819 32.9233992,19.5089637 32.6486815,19.6558244 L25.2652435,23.434823 C22.5607816,21.5540752 19.3226831,20.5744564 15.8794972,20.5744564 C11.5934343,20.5832078 7.61631904,22.1404244 4.668444,24.9745365 C1.68312078,27.8349032 0.0453474414,31.7451738 0.0549175217,35.9877273 C0.0564648366,36.4704262 0.474538873,36.8612344 0.99062172,36.8626018 L27.0244308,36.8188444 C28.2482261,38.2393191 29.8216354,39.3616965 31.6097866,40.0905306 L32.6954918,40.5365827 C32.8133951,40.5858097 32.9412455,40.6096028 33.0699737,40.6065945 C33.1981167,40.6044067 33.3250896,40.580887 33.4441631,40.5365827 L34.6700063,40.0380218 C39.1740293,38.2715902 42.1034728,34.1504635 42.1002599,29.5843787 L42.1002599,24.4406963 C42.1002599,24.1157975 41.9100881,23.8168798 41.6043586,23.6623614 L41.6043586,23.6623614 Z M1.95462018,35.1043748 C2.15093066,31.6664105 3.58273899,28.5262701 6.01599391,26.1904454 C8.60781855,23.6973674 12.1171239,22.323932 15.8885667,22.323932 L15.9166528,22.323932 C19.0143206,22.323932 21.9153854,23.2338124 24.3202616,24.9570336 L24.3202616,29.6893965 C24.3217244,31.5682299 24.8231791,33.41698 25.7798635,35.0690954 L1.95462018,35.1043748 Z M40.2287245,29.5843787 C40.2304781,33.4503451 37.7466095,36.9383568 33.930697,38.4285698 L33.9213349,38.4285698 L33.0699737,38.7696041 L32.358458,38.4808053 C28.6159791,36.9523045 26.1958896,33.4987517 26.1917937,29.6809184 L26.1917937,24.9482821 L33.1071293,21.4055735 L40.2287245,24.9570336 L40.2287245,29.5843787 Z" id="Shape" fill="url(#linearGradient-2)"></path>
                            <path d="M30.5430983,29.1208237 C30.2072348,28.7538086 29.616548,28.7108717 29.2236346,29.0248309 C28.8310136,29.3387903 28.785081,29.890954 29.1209446,30.2579692 L31.2449593,32.5760175 C31.4234234,32.7699175 31.6829277,32.8814989 31.9561825,32.8823765 C32.1706319,32.8839602 32.3789374,32.8161362 32.545699,32.6897868 L37.4868127,28.9373161 C37.8873328,28.6304674 37.9458455,28.0783037 37.6175888,27.703631 C37.2896245,27.3292317 36.6989378,27.2745349 36.2984176,27.5813837 L32.068527,30.800561 L30.5430983,29.1208237 Z" id="Path" fill="#B03478"></path>
                        </g>
                    </g>
                </g>
            </g>
        </g>
    </g>
</svg>