<?xml version="1.0" encoding="UTF-8"?>
<svg width="46px" height="43px" viewBox="0 0 46 43" version="1.1" xmlns="http://www.w3.org/2000/svg" xmlns:xlink="http://www.w3.org/1999/xlink">
    <title>icons / data-down</title>
    <defs>
        <polygon id="path-1" points="0 0 24 0 24 7.99968 0 7.99968"></polygon>
    </defs>
    <g id="icons-/-data-down" stroke="none" stroke-width="1" fill="none" fill-rule="evenodd">
        <g id="Group-22" transform="translate(2.000000, 5.000000)">
            <g id="Group-3">
                <mask id="mask-2" fill="white">
                    <use xlink:href="#path-1"></use>
                </mask>
                <g id="Clip-2"></g>
                <path d="M12,7.99968 C6.219,7.99968 0,6.74848 0,3.99968 C0,1.25088 6.219,-0.00032 12,-0.00032 C17.781,-0.00032 24,1.25088 24,3.99968 C24,6.74848 17.781,7.99968 12,7.99968 M12,1.59968 C5.073,1.59968 1.5,3.28128 1.5,3.99968 C1.5,4.71808 5.073,6.39968 12,6.39968 C18.927,6.39968 22.5,4.71808 22.5,3.99968 C22.5,3.28128 18.927,1.59968 12,1.59968" id="Fill-1" fill="#143358" mask="url(#mask-2)"></path>
            </g>
            <path d="M12,12 C6.219,12 0,10.827 0,8.25 L0,3.75 C0,3.336 0.336,3 0.75,3 C1.164,3 1.5,3.336 1.5,3.75 L1.5,8.25 C1.5,8.9235 5.073,10.5 12,10.5 C18.927,10.5 22.5,8.9235 22.5,8.25 L22.5,3.75 C22.5,3.336 22.836,3 23.25,3 C23.664,3 24,3.336 24,3.75 L24,8.25 C24,10.827 17.781,12 12,12" id="Fill-4" fill="#143358"></path>
            <path d="M12,16 C6.219,16 0,14.827 0,12.25 L0,7.75 C0,7.336 0.336,7 0.75,7 C1.164,7 1.5,7.336 1.5,7.75 L1.5,12.25 C1.5,12.9235 5.073,14.5 12,14.5 C18.927,14.5 22.5,12.9235 22.5,12.25 L22.5,7.75 C22.5,7.336 22.836,7 23.25,7 C23.664,7 24,7.336 24,7.75 L24,12.25 C24,14.827 17.781,16 12,16" id="Fill-6" fill="#143358"></path>
            <path d="M24,27 C18.219,27 12,25.7488 12,23 C12,20.2512 18.219,19 24,19 C29.781,19 36,20.2512 36,23 C36,25.7488 29.781,27 24,27 M24,20.6 C17.073,20.6 13.5,22.2816 13.5,23 C13.5,23.7184 17.073,25.4 24,25.4 C30.927,25.4 34.5,23.7184 34.5,23 C34.5,22.2816 30.927,20.6 24,20.6" id="Fill-8" fill="#143358"></path>
            <path d="M24,31 C18.219,31 12,29.827 12,27.25 L12,22.75 C12,22.336 12.336,22 12.75,22 C13.164,22 13.5,22.336 13.5,22.75 L13.5,27.25 C13.5,27.9235 17.073,29.5 24,29.5 C30.927,29.5 34.5,27.9235 34.5,27.25 L34.5,22.75 C34.5,22.336 34.836,22 35.25,22 C35.664,22 36,22.336 36,22.75 L36,27.25 C36,29.827 29.781,31 24,31" id="Fill-10" fill="#143358"></path>
            <path d="M24,36 C18.219,36 12,34.827 12,32.25 L12,27.75 C12,27.336 12.336,27 12.75,27 C13.164,27 13.5,27.336 13.5,27.75 L13.5,32.25 C13.5,32.9235 17.073,34.5 24,34.5 C30.927,34.5 34.5,32.9235 34.5,32.25 L34.5,27.75 C34.5,27.336 34.836,27 35.25,27 C35.664,27 36,27.336 36,27.75 L36,32.25 C36,34.827 29.781,36 24,36" id="Fill-12" fill="#143358"></path>
            <path d="M12,21 C6.219,21 0,19.827 0,17.25 L0,12.75 C0,12.336 0.336,12 0.75,12 C1.164,12 1.5,12.336 1.5,12.75 L1.5,17.25 C1.5,17.9235 5.073,19.5 12,19.5 C18.927,19.5 22.5,17.9235 22.5,17.25 L22.5,12.75 C22.5,12.336 22.836,12 23.25,12 C23.664,12 24,12.336 24,12.75 L24,17.25 C24,19.827 17.781,21 12,21" id="Fill-14" fill="#143358"></path>
            <path d="M13.2222222,25 L13.2222222,25 L12.4444444,25 C6.44933333,25 0,23.827 0,21.25 L0,16.75 C0,16.336 0.348444444,16 0.777777778,16 C1.20711111,16 1.55555556,16.336 1.55555556,16.75 L1.55555556,21.25 C1.55555556,21.9235 5.26088889,23.5 12.4444444,23.5 L13.2222222,23.5 C13.6515556,23.5 14,23.836 14,24.25 C14,24.664 13.6515556,25 13.2222222,25" id="Fill-16" fill="#143358"></path>
            <path d="M13.2222222,30 L13.2222222,30 L12.4444444,30 C6.44933333,30 0,28.827 0,26.25 L0,21.75 C0,21.336 0.348444444,21 0.777777778,21 C1.20711111,21 1.55555556,21.336 1.55555556,21.75 L1.55555556,26.25 C1.55555556,26.9235 5.26088889,28.5 12.4444444,28.5 L13.2222222,28.5 C13.6515556,28.5 14,28.836 14,29.25 C14,29.664 13.6515556,30 13.2222222,30" id="Fill-18" fill="#143358"></path>
            <path d="M23,21 C22.448,21 22,20.6266667 22,20.1666667 L22,16.8333333 C22,16.3733333 22.448,16 23,16 C23.552,16 24,16.3733333 24,16.8333333 L24,20.1666667 C24,20.6266667 23.552,21 23,21" id="Fill-20" fill="#143358"></path>
        </g>
        <path d="M35.156702,15.3758 L32.5963918,17.9516 L32.5963918,7 L31.4036082,7 L31.4036082,17.9516 L28.843298,15.3758 L28,16.2242 L31.578351,19.8242 C31.6946474,19.9412 31.8473237,20 32,20 C32.1526763,20 32.3053526,19.9412 32.421649,19.8242 L36,16.2242 L35.156702,15.3758 Z" id="Path" fill="#B03478" fill-rule="nonzero"></path>
        <path d="M34.3125,8.92307692 C32.4375,7.30769231 31.5,6.5 31.5,6.5 C31.5,6.5 34.5,9.5 40.5,15.5" id="Line" stroke="#B03478" stroke-width="1.5" fill="#B03478" stroke-linecap="square"></path>
        <line x1="41.5" y1="2.5" x2="41.5" y2="15.5" id="Line-7" stroke="#B03478" stroke-width="1.5" fill="#B03478" stroke-linecap="square"></line>
        <line x1="31.5" y1="7.5" x2="31.5" y2="16.5" id="Line-7-Copy" stroke="#B03478" stroke-width="1.5" fill="#B03478" stroke-linecap="square"></line>
    </g>
</svg>