<?xml version="1.0" encoding="UTF-8"?>
<svg width="44px" height="44px" viewBox="0 0 44 44" version="1.1" xmlns="http://www.w3.org/2000/svg" xmlns:xlink="http://www.w3.org/1999/xlink">
    <title>detection</title>
    <defs>
        <linearGradient x1="50%" y1="0%" x2="50%" y2="100%" id="linearGradient-1">
            <stop stop-color="#005E91" offset="0%"></stop>
            <stop stop-color="#003058" offset="100%"></stop>
        </linearGradient>
    </defs>
    <g id="⏹️-Product-Wireframe" stroke="none" stroke-width="1" fill="none" fill-rule="evenodd">
        <g id="sections-/-Fraud-Copy" transform="translate(-957.000000, -59.000000)" fill-rule="nonzero">
            <g id="detection" transform="translate(957.000000, 59.000000)">
                <path d="M36.731254,7.38373002 C32.5399076,2.99040853 26.0986146,2.31602131 21.3337407,4.96301243 C20.922032,5.19167318 20.7737691,5.71089165 21.0024298,6.1225151 C21.2310906,6.53430906 21.7503091,6.68240142 22.1619325,6.45382593 C26.5201279,4.03242629 32.0037229,4.89906927 35.4937407,8.55721492 C39.0946785,12.3776909 39.5001634,18.0725542 36.714373,22.2945933 C32.8771012,28.1229698 24.5893002,29.0012931 19.6202345,24.0312895 C16.2719147,20.6841634 15.3018544,15.2862522 17.7205258,10.893698 C17.9474813,10.4810515 17.7970018,9.9625151 17.3844405,9.7355595 C16.9718792,9.50877442 16.4534281,9.65908348 16.226302,10.0716448 C16.1740391,10.1667069 16.0811083,10.3438721 15.9915027,10.525556 L15.9915879,10.525556 C13.5116163,15.5808171 14.6399147,21.4641847 18.4144369,25.2372575 C24.1393108,30.963325 33.701968,29.9716092 38.1383446,23.2331083 C41.3199005,18.4110266 40.9295915,11.8380107 36.731254,7.38373002 Z" id="Path" fill="#B03478"></path>
                <path d="M38.9147851,4.73707993 C32.597968,-1.57888455 22.3193179,-1.57914032 16.0022451,4.73716519 C10.3217052,10.4185577 9.71015275,19.3260107 14.3361421,25.6982451 L11.6789201,28.3548703 C10.7473108,27.9089734 9.56922202,28.0528881 8.76694849,28.8552469 L1.25047247,36.3725755 C-0.416056838,38.0379964 -0.417420959,40.7350337 1.25004618,42.4013925 C2.91589343,44.0683481 5.61284547,44.0690302 7.27903375,42.4015631 L14.7966181,34.8849165 C15.5985506,34.0828135 15.7429769,32.9047247 15.2969094,31.9730302 L17.9537904,29.3155524 C24.3274742,33.9425648 33.2342451,33.3293925 38.9147851,27.6496199 C45.2310053,21.3326323 45.2310053,11.0541528 38.9147851,4.73707993 Z M13.5906501,33.6790337 L6.0728952,41.1958508 C5.07376199,42.1957513 3.45642629,42.1966892 2.45592895,41.1954245 C1.4558579,40.1961208 1.4552611,38.5787851 2.45609947,37.5786288 L9.972746,30.0611297 C10.3049947,29.7287957 10.8459538,29.7286252 11.1782025,30.0611297 L13.5905648,32.473492 C13.9230693,32.8058259 13.9230693,33.3466998 13.5906501,33.6790337 Z M14.1935915,30.6645826 L12.9873677,29.4583588 L15.4155879,27.0307353 C15.6060533,27.2420888 15.8017194,27.4492647 16.0021599,27.6496199 C16.2026004,27.8500604 16.4096909,28.0458117 16.6212149,28.2363623 L14.1935915,30.6645826 Z M37.7088171,26.4437371 C32.0582025,32.0934991 22.9051226,32.1415844 17.2079574,26.4437371 C11.5176128,20.7539893 11.55146,11.6004831 17.2079574,5.94304796 C22.859595,0.29217762 32.0562416,0.291239787 37.7087318,5.94304796 C43.3600284,11.5951119 43.3600284,20.7917584 37.7088171,26.4437371 Z" id="Shape" fill="url(#linearGradient-1)"></path>
                <path d="M19.6407815,7.17084192 C19.6348135,7.16316874 19.6279929,7.15634813 19.6203197,7.14867496 C19.2868774,6.81608526 18.7471119,6.81608526 18.4137549,7.14867496 C18.0811652,7.48211723 18.0811652,8.02188277 18.4137549,8.35523979 C18.4214281,8.36291297 18.4282487,8.36973357 18.4359218,8.37655417 C18.7710693,8.68782948 19.2946359,8.68015631 19.6203197,8.35523979 C19.945151,8.02947069 19.9528242,7.50590409 19.6407815,7.17084192 Z" id="Path" fill="#B03478"></path>
            </g>
        </g>
    </g>
</svg>