<?xml version="1.0" encoding="UTF-8"?>
<svg width="1920px" height="1080px" viewBox="0 0 1920 1080" version="1.1" xmlns="http://www.w3.org/2000/svg" xmlns:xlink="http://www.w3.org/1999/xlink">
    <!-- Generator: Sketch 61 (89581) - https://sketch.com -->
    <title>DHL</title>
    <desc>Created with Sketch.</desc>
    <g id="DHL" stroke="none" stroke-width="1" fill="none" fill-rule="evenodd">
        <g transform="translate(0.000000, 406.000000)" fill="#D40511" fill-rule="nonzero" id="Path">
            <polygon points="0 248 233 248 219.609195 266 0 266"></polygon>
            <polygon points="1918.66355 266 1634 266 1648.70093 248 1920 248 1920 266"></polygon>
            <polygon points="0 213 259 213 244.314433 231 0 231"></polygon>
            <polygon points="0 179 286 179 271.299065 197 0 197"></polygon>
            <polygon points="1918.66495 231 1661 231 1675.68557 213 1920 213 1920 231"></polygon>
            <polygon points="1700.72989 179 1919 179 1919 197 1686 197"></polygon>
            <path d="M251,266.66129 L374.102273,102 C374.102273,102 510.585227,102 526.642045,102 C544.036932,102 544.036932,108.693548 534.670455,119.403226 C526.642045,130.112903 511.923295,150.193548 503.894886,160.903226 C499.880682,167.596774 491.852273,176.967742 517.275568,176.967742 C545.375,176.967742 722,176.967742 722,176.967742 C705.943182,201.064516 649.744318,268 550.727273,268 C470.443182,266.66129 251,266.66129 251,266.66129 Z"></path>
            <polygon points="956 179 889.149171 268 714 268 780.850829 179"></polygon>
            <polygon points="1212 179 1144.96703 268 968 268 1035.03297 179"></polygon>
            <path d="M1269.56045,179 C1269.56045,179 1256.21247,196.268657 1250.87328,204.238806 C1228.1817,233.462687 1248.20368,268 1320.2828,268 C1403.0403,268 1603.26008,268 1603.26008,268 L1670,179 L1269.56045,179 Z"></path>
            <path d="M337.609042,1.33050847 L276,82.4915254 C276,82.4915254 593.420501,82.4915254 610.831752,82.4915254 C628.243003,82.4915254 628.243003,89.1440678 618.867714,99.7881356 C610.831752,110.432203 596.099155,130.389831 588.063193,141.033898 C584.045212,146.355932 576.00925,157 601.456463,157 C629.58233,157 738.067818,157 738.067818,157 C738.067818,157 760.836377,127.728814 778.247628,102.449153 C803.694841,69.1864407 780.926282,0 691.191372,0 C610.831752,1.33050847 337.609042,1.33050847 337.609042,1.33050847 Z"></path>
            <polygon points="1226.90024 157 796 157 913.761557 1 1090.40389 1 1023.49392 90.3333333 1102.44769 90.3333333 1169.35766 1 1346 1"></polygon>
            <polygon points="1588 1 1470.2807 157 1283 157 1400.7193 1"></polygon>
        </g>
    </g>
</svg>