<?xml version="1.0" encoding="UTF-8"?> <!-- Generator: Adobe Illustrator 23.0.6, SVG Export Plug-In . SVG Version: 6.00 Build 0) --> <svg xmlns="http://www.w3.org/2000/svg" xmlns:xlink="http://www.w3.org/1999/xlink" id="Ebene_1" x="0px" y="0px" viewBox="0 0 144.57 28.35" style="enable-background:new 0 0 144.57 28.35;" xml:space="preserve"> <style type="text/css"> .st0{fill:#EA571A;} </style> <g> <g> <g> <g> <g> <path d="M30.03,20.88c-0.21-0.65-0.36-1.29-0.44-1.93c-0.08-0.63-0.12-1.33-0.12-2.09c0-0.76,0.04-1.46,0.11-2.11 c0.07-0.65,0.21-1.31,0.41-1.98c0.2-0.67,0.48-1.23,0.82-1.67c0.77-1.03,1.91-1.55,3.42-1.55c0.66,0,1.5,0.1,2.53,0.29 c1.03,0.2,1.94,0.45,2.74,0.78V2.98h1.47v21h-1.04l-0.45-1.58c-0.41,0.34-1.18,0.71-2.31,1.12c-1.13,0.41-2.09,0.62-2.88,0.62 c-0.78,0-1.46-0.15-2.03-0.44c-0.57-0.29-1.03-0.67-1.38-1.14C30.53,22.09,30.24,21.53,30.03,20.88z M30.99,17 c0,1.86,0.29,3.26,0.87,4.2c0.58,0.94,1.37,1.4,2.37,1.4c1.52,0,3.26-0.44,5.24-1.31v-9.5c-1.87-0.48-3.62-0.72-5.24-0.72 c-1.28,0-2.17,0.58-2.65,1.74C31.19,13.75,30.99,15.14,30.99,17z"></path> <path d="M45.33,7.42v-1.5c0-0.37,0.18-0.56,0.54-0.56h0.99c0.34,0,0.51,0.19,0.51,0.56v1.5c0,0.36-0.17,0.53-0.51,0.53h-0.99 c-0.21,0-0.36-0.06-0.43-0.19C45.37,7.64,45.33,7.52,45.33,7.42z M45.54,23.97V9.77h1.52v14.2H45.54z"></path> <path d="M51.4,16.86c0-1.21,0.08-2.26,0.24-3.13c0.16-0.87,0.37-1.57,0.62-2.1c0.25-0.53,0.58-0.94,1-1.24 c0.42-0.3,0.84-0.5,1.27-0.6c0.43-0.1,0.94-0.15,1.55-0.15c1.53,0,3.48,0.23,5.83,0.7v1.07c-2.3-0.16-3.92-0.24-4.87-0.24 c-0.95,0-1.52,0.01-1.74,0.04c-0.21,0.03-0.44,0.09-0.67,0.19c-0.23,0.1-0.43,0.23-0.59,0.39c-0.16,0.16-0.32,0.38-0.47,0.67 c-0.15,0.29-0.27,0.63-0.36,1.04c-0.2,0.89-0.29,2.06-0.29,3.52c0,1.45,0.12,2.6,0.37,3.44c0.25,0.84,0.59,1.4,1.03,1.7 c0.44,0.29,1.02,0.44,1.75,0.44c1.46,0,3.15-0.1,5.06-0.29l0.96-0.08v1.12c-1.73,0.48-3.74,0.74-6.02,0.78 c-1.87,0-3.14-0.67-3.8-2.01C51.7,20.94,51.4,19.19,51.4,16.86z"></path> <path d="M66.05,22.49c-0.47-0.58-0.8-1.3-0.99-2.15c-0.19-0.86-0.28-2.1-0.28-3.73c0-1.63,0.2-2.98,0.6-4.05 c0.4-1.07,1.03-1.82,1.9-2.26c0.86-0.44,2.07-0.66,3.62-0.66c2.32,0,3.92,0.55,4.8,1.65c0.88,1.1,1.32,3,1.32,5.7 c0,2.7-0.44,4.57-1.32,5.59c-0.88,1.03-2.48,1.54-4.8,1.54c-1.21,0-2.21-0.12-2.98-0.37C67.14,23.48,66.52,23.07,66.05,22.49z M66.82,13.1c-0.19,0.44-0.32,0.98-0.4,1.63c-0.08,0.65-0.12,1.36-0.12,2.13c0,0.77,0.02,1.4,0.07,1.9 c0.04,0.5,0.12,0.94,0.23,1.31c0.11,0.37,0.23,0.7,0.36,0.96c0.13,0.27,0.31,0.49,0.52,0.68c0.21,0.19,0.43,0.34,0.64,0.45 c0.21,0.12,0.48,0.2,0.8,0.25c0.54,0.11,1.14,0.16,1.81,0.16c0.67,0,1.19-0.02,1.58-0.07c0.38-0.04,0.76-0.13,1.14-0.27 c0.37-0.13,0.68-0.33,0.91-0.58c0.23-0.25,0.44-0.58,0.62-0.99c0.36-0.75,0.54-1.76,0.54-3.04c0-1.27-0.04-2.23-0.12-2.86 c-0.08-0.63-0.21-1.17-0.39-1.6c-0.18-0.44-0.38-0.79-0.6-1.06c-0.22-0.27-0.53-0.47-0.91-0.62c-0.38-0.14-0.77-0.24-1.15-0.28 c-0.38-0.04-0.87-0.07-1.44-0.07c-0.58,0-1.05,0.02-1.42,0.05c-0.37,0.04-0.74,0.12-1.12,0.25c-0.38,0.13-0.69,0.33-0.91,0.59 C67.21,12.31,67.01,12.66,66.82,13.1z"></path> <path d="M83.5,10.48c0.45-0.22,1.01-0.44,1.7-0.64c0.69-0.2,1.43-0.31,2.22-0.31c0.79,0,1.53,0.21,2.21,0.64 c1.34,0.86,2.01,2.16,2.01,3.91v9.9h-1.52v-9.9c0-0.93-0.26-1.66-0.79-2.21c-0.53-0.54-1.18-0.82-1.97-0.82 s-1.48,0.07-2.09,0.2c-0.61,0.13-1.13,0.29-1.58,0.48c-0.45,0.19-1.07,0.48-1.87,0.87v11.37h-1.52V9.77h1.04l0.48,1.66 C82.49,11.02,83.05,10.7,83.5,10.48z"></path> <path d="M96.21,7.42v-1.5c0-0.37,0.18-0.56,0.54-0.56h0.99c0.34,0,0.51,0.19,0.51,0.56v1.5c0,0.36-0.17,0.53-0.51,0.53h-0.99 c-0.21,0-0.36-0.06-0.43-0.19C96.24,7.64,96.21,7.52,96.21,7.42z M96.42,23.97V9.77h1.52v14.2H96.42z"></path> <path d="M104.34,9.77v9.9c0,0.93,0.26,1.66,0.79,2.21c0.53,0.54,1.22,0.82,2.07,0.82c1.07,0,1.92-0.11,2.54-0.32 c0.86-0.3,1.82-0.72,2.89-1.26V9.77h1.52v14.2h-1.04l-0.48-1.66c-0.68,0.39-1.24,0.7-1.68,0.94c-1.23,0.64-2.5,0.96-3.81,0.96 s-2.36-0.45-3.14-1.34c-0.78-0.89-1.18-1.96-1.18-3.21v-9.9H104.34z"></path> <path d="M121.96,10.52c0.41-0.21,0.95-0.42,1.63-0.63c0.68-0.2,1.4-0.31,2.18-0.31c0.78,0,1.51,0.19,2.21,0.57 c0.7,0.38,1.2,0.9,1.52,1.54c0.75-0.61,1.65-1.11,2.71-1.51c1.06-0.4,2.18-0.6,3.36-0.6c1.18,0,2.18,0.43,3,1.3 c0.82,0.87,1.23,1.96,1.23,3.28v9.82h-1.52v-9.82c0-0.89-0.26-1.62-0.79-2.19c-0.53-0.57-1.18-0.86-1.97-0.86 c-0.79,0-1.49,0.06-2.11,0.19c-1.14,0.21-2.32,0.7-3.53,1.44c0.09,0.23,0.13,0.69,0.13,1.36v9.87h-1.52v-9.82 c0-0.89-0.27-1.62-0.8-2.19c-0.53-0.57-1.19-0.86-1.97-0.86c-0.78,0-1.46,0.07-2.05,0.2c-0.59,0.13-1.1,0.29-1.52,0.47 c-0.43,0.18-1.04,0.47-1.85,0.88v11.31h-1.52V9.77h1.04l0.48,1.69C121,11.04,121.55,10.73,121.96,10.52z"></path> </g> </g> </g> </g> <g> <path class="st0" d="M11.47,2.83c-1.04,0-1.93,0.68-2.24,1.62l-6.4,19.19c0.36,0.22,0.77,0.34,1.22,0.34 c1.04,0,1.93-0.68,2.24-1.62l6.4-19.19C12.34,2.96,11.92,2.83,11.47,2.83z"></path> <path class="st0" d="M19.91,2.83c-1.04,0-1.93,0.68-2.24,1.62l-6.4,19.19c0.36,0.22,0.77,0.34,1.22,0.34 c1.04,0,1.93-0.68,2.24-1.62l6.4-19.19C20.77,2.96,20.35,2.83,19.91,2.83z"></path> </g> </g> </svg> 