<?xml version="1.0" encoding="UTF-8"?>
<svg width="1920px" height="1080px" viewBox="0 0 1920 1080" version="1.1" xmlns="http://www.w3.org/2000/svg" xmlns:xlink="http://www.w3.org/1999/xlink">
    <!-- Generator: Sketch 61 (89581) - https://sketch.com -->
    <title>Diconium</title>
    <desc>Created with Sketch.</desc>
    <g id="Diconium" stroke="none" stroke-width="1" fill="none" fill-rule="evenodd">
        <g transform="translate(1.000000, 390.000000)" fill-rule="nonzero" id="Group">
            <g transform="translate(374.000000, 3.000000)" fill="#000000">
                <path d="M7.93402099,250.334522 C4.99550029,241.244811 2.89655693,232.294941 1.77712047,223.345071 C0.657684014,214.535043 0.0979657849,204.746123 0.0979657849,194.118153 C0.0979657849,183.490182 0.657684014,173.701262 1.63719091,164.611551 C2.61669781,155.521839 4.57571162,146.292286 7.37430276,136.922891 C10.1728939,127.553496 14.0909215,119.72236 18.8485265,113.569325 C29.6231024,99.1656281 45.5750719,91.8938589 66.704435,91.8938589 C75.9397858,91.8938589 87.6938686,93.2922761 102.106613,95.9492687 C116.519357,98.746103 129.252947,102.242146 140.447312,106.856922 L140.447312,0.0178521338 L161.016957,0.0178521338 L161.016957,293.685454 L146.464283,293.685454 L140.167453,271.590463 C134.430341,276.345081 123.655765,281.519225 107.843725,287.252735 C92.0316849,292.986245 78.5984474,295.922921 67.5440124,295.922921 C56.6295069,295.922921 47.114297,293.825296 39.1383122,289.769886 C31.1623275,285.714476 24.7255679,280.400491 19.8280334,273.82793 C14.9304988,267.25537 10.8725417,259.424234 7.93402099,250.334522 Z M21.3672585,196.075937 C21.3672585,222.086496 25.4252156,241.664336 33.54113,254.809457 C41.6570443,267.954578 52.7114793,274.387297 66.704435,274.387297 C87.9737277,274.387297 112.321471,268.234262 140.027523,256.068032 L140.027523,123.218403 C113.860696,116.506001 89.3730233,113.1498 66.704435,113.1498 C48.7934517,113.1498 36.3397211,121.260619 29.6231024,137.482258 C24.1658496,150.627379 21.3672585,170.065378 21.3672585,196.075937 Z" id="Shape"></path>
                <path d="M222.026244,62.1075736 L222.026244,41.1313164 C222.026244,35.9571729 224.544976,33.3001803 229.58244,33.3001803 L243.435466,33.3001803 C248.193071,33.3001803 250.571873,35.9571729 250.571873,41.1313164 L250.571873,62.1075736 C250.571873,67.1418754 248.193071,69.5191845 243.435466,69.5191845 L229.58244,69.5191845 C226.643919,69.5191845 224.544976,68.6801342 223.565469,66.8621919 C222.585962,65.1840914 222.026244,63.5059908 222.026244,62.1075736 Z M224.964764,293.545612 L224.964764,94.9703767 L246.234057,94.9703767 L246.234057,293.545612 L224.964764,293.545612 Z" id="Shape"></path>
                <path d="M306.963485,194.118153 C306.963485,177.197305 308.082921,162.513925 310.321794,150.347696 C312.560667,138.181467 315.499188,128.392547 318.997427,120.980936 C322.495666,113.569325 327.113341,107.835814 332.990382,103.640563 C338.867424,99.4453116 344.744465,96.6484773 350.761436,95.2500601 C356.778407,93.851643 363.914815,93.1524344 372.450518,93.1524344 C393.85974,93.1524344 421.146003,96.3687938 454.029449,102.941354 L454.029449,117.904418 C421.845651,115.666951 399.177063,114.548217 385.883755,114.548217 C372.590447,114.548217 364.614462,114.688059 361.536012,115.107584 C358.597491,115.527109 355.379112,116.366159 352.160732,117.764576 C348.942352,119.162993 346.143761,120.980936 343.904888,123.218403 C341.666015,125.455871 339.427142,128.532388 337.328199,132.587798 C335.229255,136.643208 333.550101,141.397826 332.290735,147.131336 C329.492143,159.577249 328.232777,175.93873 328.232777,196.35562 C328.232777,216.632669 329.911932,232.714466 333.410171,244.46117 C336.90841,256.207874 341.666015,264.03901 347.822915,268.234262 C353.979816,272.289671 362.09573,274.387297 372.310588,274.387297 C392.740303,274.387297 416.388399,272.98888 443.114944,270.331887 L456.548181,269.213154 L456.548181,284.875426 C432.340368,291.587828 404.214527,295.223713 372.310588,295.78308 C346.143761,295.78308 328.372707,286.413685 319.137356,267.674895 C311.161371,251.173572 306.963485,226.701272 306.963485,194.118153 Z" id="Path"></path>
                <path d="M511.960286,272.849038 C505.383597,264.738219 500.765922,254.669615 498.10726,242.78307 C495.448598,230.756682 494.189232,213.416309 494.189232,190.62211 C494.189232,167.82791 496.987823,148.949279 502.585006,133.986215 C508.182188,119.023152 516.99775,108.535023 529.171622,102.381988 C541.205564,96.2289521 558.13704,93.1524344 579.826121,93.1524344 C612.289779,93.1524344 634.678508,100.843729 646.992309,116.226317 C659.30611,131.608906 665.46301,158.178832 665.46301,195.936095 C665.46301,233.693358 659.30611,259.843759 646.992309,274.107614 C634.678508,288.51131 612.289779,295.643238 579.826121,295.643238 C562.894645,295.643238 548.901689,293.965137 538.127113,290.469094 C527.212608,286.693368 518.536975,280.959858 511.960286,272.849038 Z M522.734862,141.537668 C520.0762,147.690703 518.257116,155.242156 517.13768,164.331867 C516.018243,173.421579 515.458525,183.350341 515.458525,194.118153 C515.458525,204.885965 515.738384,213.695993 516.438032,220.688079 C516.99775,227.680164 518.117187,233.8332 519.656412,239.007343 C521.195637,244.181487 522.874792,248.796263 524.693876,252.432148 C526.51296,256.207874 529.031692,259.284392 531.970213,261.941384 C534.908733,264.598377 537.987184,266.696003 540.925704,268.234262 C543.864225,269.912362 547.642323,271.031096 552.120069,271.730305 C559.676265,273.268563 568.072039,273.967772 577.447319,273.967772 C586.822599,273.967772 594.098936,273.688089 599.556189,272.98888 C604.873512,272.429513 610.190835,271.170938 615.508158,269.213154 C620.685552,267.395211 625.023368,264.598377 628.241748,261.102334 C631.460128,257.606291 634.398649,252.991515 636.917381,247.258004 C641.954845,236.769876 644.473577,222.645863 644.473577,204.746123 C644.473577,186.986225 643.913859,173.561421 642.794422,164.751393 C641.674986,155.941364 639.855901,148.389912 637.337169,142.376718 C634.818437,136.223683 632.019846,131.329223 628.941396,127.553496 C625.862946,123.77777 621.525129,120.980936 616.207806,118.88331 C610.890483,116.925526 605.43323,115.527109 600.115907,114.967742 C594.798584,114.408375 587.942036,113.98885 579.966051,113.98885 C571.850137,113.98885 565.273447,114.268533 560.096054,114.688059 C554.91866,115.247425 549.741267,116.366159 544.423943,118.184101 C539.10662,120.002044 534.768804,122.798878 531.690354,126.434763 C528.192115,130.490172 525.393524,135.384632 522.734862,141.537668 Z" id="Shape"></path>
                <path d="M756.137363,104.899138 C762.434194,101.822621 770.270249,98.746103 779.925388,95.9492687 C789.580528,93.1524344 799.935315,91.6141755 810.98975,91.6141755 C822.044185,91.6141755 832.398972,94.5508515 841.914182,100.564045 C860.664743,112.590433 870.040023,130.769856 870.040023,155.242156 L870.040023,293.685454 L848.77073,293.685454 L848.77073,155.242156 C848.77073,142.236876 845.132562,132.028431 837.716295,124.337137 C830.300029,116.785684 821.204608,112.870116 810.150173,112.870116 C799.095737,112.870116 789.440598,113.849008 780.904895,115.666951 C772.369192,117.484893 765.092855,119.72236 758.796025,122.379353 C752.499195,125.036345 743.823562,129.091755 732.629198,134.545582 L732.629198,293.545612 L711.359905,293.545612 L711.359905,94.9703767 L725.912579,94.9703767 L732.629198,118.184101 C742.004478,112.450591 749.840533,107.975656 756.137363,104.899138 Z" id="Path"></path>
                <path d="M933.987831,62.1075736 L933.987831,41.1313164 C933.987831,35.9571729 936.506563,33.3001803 941.544027,33.3001803 L955.397053,33.3001803 C960.154658,33.3001803 962.53346,35.9571729 962.53346,41.1313164 L962.53346,62.1075736 C962.53346,67.1418754 960.154658,69.5191845 955.397053,69.5191845 L941.544027,69.5191845 C938.605506,69.5191845 936.506563,68.6801342 935.527056,66.8621919 C934.407619,65.1840914 933.987831,63.5059908 933.987831,62.1075736 Z M936.926351,293.545612 L936.926351,94.9703767 L958.195644,94.9703767 L958.195644,293.545612 L936.926351,293.545612 Z" id="Shape"></path>
                <path d="M1047.75056,94.9703767 L1047.75056,233.413675 C1047.75056,246.418954 1051.38873,256.627399 1058.805,264.318694 C1066.22126,271.870146 1075.8764,275.785714 1087.77041,275.785714 C1102.74288,275.785714 1114.63689,274.247455 1123.31252,271.310779 C1135.34646,267.115528 1148.7797,261.242176 1163.75216,253.690723 L1163.75216,94.9703767 L1185.02146,94.9703767 L1185.02146,293.545612 L1170.46878,293.545612 L1163.75216,270.331887 C1154.23695,275.785714 1146.4009,280.120807 1140.244,283.477009 C1123.03266,292.426878 1105.26161,296.901813 1086.93084,296.901813 C1068.60006,296.901813 1053.90746,290.608936 1042.99296,278.163023 C1032.07845,265.717111 1026.48127,250.754047 1026.48127,233.273833 L1026.48127,94.830535 L1047.75056,94.830535 L1047.75056,94.9703767 Z" id="Path"></path>
                <path d="M1294.30644,105.458505 C1300.04355,102.521829 1307.59975,99.5851533 1317.11496,96.6484773 C1326.63017,93.851643 1336.7051,92.3133841 1347.6196,92.3133841 C1358.53411,92.3133841 1368.74896,94.9703767 1378.54403,100.284362 C1388.3391,105.598347 1395.33558,112.870116 1399.81333,121.819986 C1410.30804,113.289641 1422.9017,106.297556 1437.73424,100.703887 C1452.56677,95.1102184 1468.23888,92.3133841 1484.75057,92.3133841 C1501.26226,92.3133841 1515.25521,98.3265778 1526.72944,110.492807 C1538.20366,122.659036 1543.94077,137.901783 1543.94077,156.36089 L1543.94077,293.685454 L1522.67148,293.685454 L1522.67148,156.36089 C1522.67148,143.914977 1519.03331,133.706532 1511.61704,125.735554 C1504.20078,117.764576 1495.10536,113.709166 1484.05092,113.709166 C1472.99649,113.709166 1463.20142,114.548217 1454.52578,116.366159 C1438.57381,119.302835 1422.06213,126.155079 1405.13065,136.503366 C1406.39002,139.719726 1406.94973,146.152444 1406.94973,155.521839 L1406.94973,293.545612 L1385.68044,293.545612 L1385.68044,156.221048 C1385.68044,143.775135 1381.90234,133.56669 1374.48608,125.595712 C1367.06981,117.624735 1357.83446,113.569325 1346.91995,113.569325 C1336.00545,113.569325 1326.49024,114.548217 1318.23439,116.366159 C1309.97855,118.184101 1302.84214,120.421569 1296.9651,122.93872 C1290.94813,125.455871 1282.41243,129.51128 1271.07813,135.244791 L1271.07813,293.40577 L1249.80884,293.40577 L1249.80884,94.9703767 L1264.36152,94.9703767 L1271.07813,118.603627 C1280.8732,112.730274 1288.56933,108.395181 1294.30644,105.458505 Z" id="Path"></path>
            </g>
            <g fill="#EA571A">
                <path d="M121.581128,0.668778802 C107.02334,0.668778802 94.565234,10.187212 90.2258936,23.3450461 L0.639510638,291.960829 C5.67874468,295.040323 11.4178723,296.720046 17.7169149,296.720046 C32.2747021,296.720046 44.7328085,287.201613 49.0721489,274.043779 L138.658532,5.42799539 C133.759277,2.48847926 127.88017,0.668778802 121.581128,0.668778802 Z" id="Path"></path>
                <path d="M239.72317,0.668778802 C225.165383,0.668778802 212.707277,10.187212 208.367936,23.3450461 L118.781553,291.960829 C123.820787,295.040323 129.559915,296.720046 135.858957,296.720046 C150.416745,296.720046 162.874851,287.201613 167.214191,274.043779 L256.800574,5.42799539 C251.76134,2.48847926 245.882234,0.668778802 239.72317,0.668778802 Z" id="Path"></path>
            </g>
        </g>
    </g>
</svg>