<?xml version="1.0" encoding="UTF-8" standalone="no"?><svg height="156" viewBox="0 0 600 156" width="600" xmlns="http://www.w3.org/2000/svg"><g fill="none" transform="translate(0 -.000011)"><path d="m114.968638.00000556c42.493573-.0154186 81.279177 32.03908014 81.279177 78.41337314 0 42.4068893-38.785604 77.2655013-81.279177 77.0630983h-36.5706946c-43.0025706.202712-78.3979434-34.646954-78.3979434-77.0630983 0-46.36473 35.3953728-78.42879174 78.3979434-78.41337314z" fill="#0079be"/><path d="m78.5710026 6.42571806c-39.2946016.01233934-71.13624682 31.86323904-71.14550131 71.17357324.00925449 39.3035477 31.85059121 71.1513627 71.14550131 71.1637017 39.3038564-.012339 71.1519794-31.860154 71.1575324-71.1637017-.005861-39.3103342-31.853676-71.1612339-71.1575324-71.17357324zm-45.0971723 71.17357324c.037018-19.2092545 12.0339332-35.5897172 28.9511568-42.0990231v84.1881748c-16.9172236-6.505604-28.9144473-22.8771208-28.9511568-42.0891517zm61.237018 42.1076607v-84.2094602c16.9233937 6.4935733 28.9388177 22.8832905 28.9696657 42.1017995-.030848 19.2243702-12.046272 35.6017477-28.9696657 42.1076607z" fill="#fff"/><path d="m228.816247 99.0851525c1.700051 0 3.442673.1696658 5.111568.1696658.38599 0 .769119-.0144334 1.155412-.0332733l1.174391-.0597126c.398643-.0176262.806473-.0296322 1.229514-.025991l.552765.0140926 19.551671 22.010591v-16.361953c-.019126-2.744576-1.440657-3.617796-2.682617-3.886304l-.237712-.044758-.230679-.031697-.221096-.020677-.208965-.011697c-.033675-.001315-.066738-.00234-.099137-.003119h-1.178406v-1.7151675h.19743c2.101079 0 4.1491.1696658 6.228277.1696658 1.810797 0 3.633933-.1696658 5.472494-.1696658h.194344v1.7148585h-.857583l-.423591.016346-.315751.022941-.208371.023569c-.034542.004598-.068982.009554-.103306.014904l-.204451.03711c-.033808.007068-.067474.0146-.100984.022632l-.199085.054477c-1.214841.376445-2.179808 1.534519-2.216903 5.268175v20.245759c0 1.554756.045964 3.109511.26221 4.457583l.043188.228586h-.231054l-1.835167-.068174-22.575116-25.162674v17.830334l.010369.499521.017901.467595c.003677.075322.007716.149352.012142.222108l.031398.421401c.218603 2.438498 1.002161 3.274941 3.489446 3.387021l.430518.012123h.953213v1.721337h-.197429c-.615979 0-1.231011-.018322-1.844802-.043239l-1.837357-.082813c-.305509-.013191-.610633-.0251-.915338-.034261l-1.140601-.018608c-.637696 0-1.280447.018322-1.925826.043239l-1.941596.082813c-.324104.013191-.64826.0251-.972162.034261l-1.212858.018608h-.194653v-1.721337h.820874c2.939846-.015424 3.778921-1.903342 3.812854-5.4509v-18.737275c-.006478-2.369152-1.949615-3.806684-3.856041-3.812853h-.777687v-1.7151675zm273.671259 0c1.706222 0 3.439589.1699743 5.117738.1699743.330154 0 .657976-.0106234.987513-.0255414l1.508165-.0747609c.515693-.0203436 1.048911-.0289908 1.61332-.004582l19.545809 22.0102825v-16.361953c-.009802-2.744337-1.434979-3.617689-2.68178-3.886124l-.238661-.044742-.231638-.031674-.222048-.020647-.209889-.01166c-.033825-.001308-.067038-.002326-.099583-.003097h-1.168843v-1.7148585h.200514c2.094293 0 4.145707.1696658 6.215322.1696658 1.826221 0 3.640411-.1696658 5.485141-.1696658h.190951v1.7148585h-.864061l-.316883.011169-.315952.019163-.209024.020039-.206972.027826-.204264.037305c-1.182364.248558-2.193036 1.067415-2.446465 3.969129l-.035918.518122c-.01414.269546-.022472.555028-.024625.857401v20.245759c0 1.554755.033624 3.106118.25018 4.466529l.036709.215939h-.211928l-1.841337-.06509-22.571722-25.162982v17.830642l.009896.499501c.002247.080561.004811.159791.007713.237708l.021688.451895c.004359.07274.009106.144205.014265.214414l.036101.406326c.241725 2.28405 1.048201 3.075235 3.459817 3.182005l.429338.01175h.962776v1.727507h-.194653c-.616967 0-1.232006-.018322-1.845453-.043239l-1.835892-.082813c-.305297-.013191-.610279-.0251-.914987-.034261l-1.141457-.018608c-.638783 0-1.28224.018322-1.92819.043239l-1.94314.082813c-.324374.013191-.648826.0251-.973082.034261l-1.214509.018608h-.18509v-1.727507h.814705c2.933676-.008946 3.775835-1.896864 3.812545-5.44473v-18.74036c-.00617-2.369151-1.946838-3.806684-3.859126-3.809768h-.768124v-1.7151675zm-18.143444-.6697172c9.557121.0061697 17.216761 5.9444727 17.23527 15.5383037-.008844 10.224249-7.274071 17.057986-16.674511 17.231313l-.32878.00334c-9.402309-.018292-16.646639-6.3391-16.833358-15.821446l-.004277-.339994c.018818-9.359075 7.262005-16.5991774 16.605656-16.6115167zm-127.068278.6635475c1.696658 0 3.436812.175527 5.114653.175527.381491 0 .761407-.0149319 1.14526-.0345624l1.168879-.0627535c.397236-.018794.80392-.032053 1.225562-.0295436l.550787.0127207 19.555065 22.019846v-16.368432c-.009802-2.739794-1.43498-3.61935-2.677329-3.88492l-.237743-.044068c-.0391-.006178-.077902-.011802-.116354-.016912l-.226065-.024833-.215062-.014519-.201483-.006213h-1.17563v-1.7213372h.194653c2.103856 0 4.151876.175527 6.231054.175527 1.81419 0 3.637326-.175527 5.469409-.175527h.194036v1.7213372h-.854499l-.211891.006483-.211741.00919-.315908.022573-.208524.023382-.206102.032028c-.034112.006152-.068097.012736-.10194.019786l-.201251.048179c-1.26247.344152-2.281579 1.463741-2.315394 5.298533v20.24545c0 1.554756.040412 3.097172.265604 4.466838l.024679.215938h-.213162l-1.832082-.061697-22.577584-25.165758v17.827249l.010051.489386.017206.458776.025465.429012c.004994.069069.010377.136934.016174.203611l.039921.385958c.263925 2.169972 1.090095 2.928987 3.46352 3.034317l.422213.011794h.941183v1.721337h-.194653c-.615782 0-1.229795-.018669-1.842585-.044059l-1.835246-.084383c-.305445-.013442-.610721-.025577-.915895-.034911l-1.144063-.018961c-.635624 0-1.27826.018669-1.923937.044059l-1.942177.084383c-.323892.013442-.647551.025577-.97048.034911l-1.206594.018961h-.200514v-1.721337h.817481c2.936761-.012339 3.77892-1.903342 3.806683-5.463239v-18.728021c-.003084-2.36946-1.943136-3.806684-3.843393-3.810077h-.780771v-1.7210282zm198.639177-.8455527c.132648.3488946.262211.7526993.410283 1.1136247l8.180977 23.2692032.600548 1.769869c.336639.979103.680236 1.931545 1.040583 2.758666.521028 1.178406 1.332648 1.644216 2.751671 1.656555h.462725v1.733676l-.20329-.012339-2.005747-.082034c-1.34284-.053013-2.703457-.096887-4.120423-.096887-1.301368 0-2.623613.035538-3.963672.081292l-2.70296.097629-.197121.012339v-1.733676h.67527l.280259-.005704c.048145-.001942.096897-.0044.14609-.007405l.299101-.02484c.905147-.095679 1.844886-.388429 1.8473-1.057167.003914-.221472-.070585-.57804-.197198-1.02845l-.120676-.408085-.142522-.448275-.160686-.482693-.267041-.775942-1.690489-5.031362h-9.819023l-1.376144 4.494293c-.059187.203188-.119922.400069-.180715.590417l-.508583 1.530649c-.167171.521915-.280409.9555-.275946 1.291068 0 .924026 1.192239 1.260546 2.450907 1.342221l.344075.016206c.057338.001731.114602.002999.171686.003833l.848962.001236v1.733676l-.197121-.012339c-1.424206-.064165-2.874077-.140175-4.303337-.168013l-1.067357-.010908c-.956915 0-1.915163.035538-2.875077.081292l-1.922147.097629-.194653.012339v-1.733676h.44761c1.659331-.006478 3.047506-.959383 3.69563-2.76401l7.623444-21.874831.355288-1.050424c.353465-1.066944.6899-2.165094.905278-3.1292441 1.397738-.4843188 3.183547-1.3727507 4.047609-1.9159897.087686-.0300772.177455-.0670951.293512-.0837243l.125717-.0088207c.117532-.0123393.345193.0154241.487403.2591259zm-145.708072-.2681632c.10797-.0026851.348278.0250784.490489.2598342l.26461.7528592c.045313.1255984.090865.2497115.13611.37002l8.193624 23.2692027.595007 1.769365c.334463.978262.677603 1.928463 1.040263 2.749607.515167 1.187969 1.332648 1.653471 2.763702 1.65964h.453779v1.739846l-.204524-.012956-2.006399-.087027c-1.343387-.054019-2.704141-.095287-4.116995-.095287-1.308586 0-2.629388.033427-3.968469.079492l-2.704333.102822-.200514.012339v-1.739846h.685141l.278778-.005571c.047907-.0019.096424-.004306.145385-.00725l.297755-.024376c.901238-.094025 1.838185-.382944 1.838185-1.05144.003162-.126556-.01955-.297822-.06306-.505653l-.080231-.338152-.107621-.386889-.131206-.429519-.150984-.466037-.255233-.754166c-.029879-.086833-.060187-.174552-.090842-.263029l-1.693573-5.031363h-9.812545l-1.473059 4.793244-.184301.569738-.422258 1.251117c-.169263.523499-.28466.959886-.283364 1.298189.01279.919067 1.205229 1.250186 2.465152 1.330316l.344453.015884.342785.004957h.685142v1.739846l-.200514-.012339c-1.779949-.089461-3.596916-.182314-5.370694-.182314-1.275887 0-2.5575.059426-3.835677.129l-1.164529.065653v-1.739846h.45964c1.656247-.006169 3.03856-.946735 3.680206-2.757532l7.122879-20.418509.513143-1.456447c.476563-1.370713.977112-2.895691 1.257551-4.1857123.836607-.2831877 1.814141-.7185193 2.647616-1.1387476l.53118-.2760792c.335723-.1801141.630479-.3499033.85925-.4946848l.192571-.0660448c.0691-.0204903.145527-.0361544.236529-.0361544zm-84.840308 1.1143329h.194653l.46999.0049148.540231.01334 3.084403.1078175.782641.0220286.800549.0167628c.13447.002238.26935.0041688.404474.0057485l.812313.0049148c.79672 0 1.546881-.0157974 2.27068-.0379138l2.802478-.0996994c.689409-.0221164 1.379387-.0379138 2.090133-.0379138l.532339.0059279.528767.0158652.524293.0264504.518914.0376833c.085987.0072526.171712.0150003.257157.0232565l.509152.0557476c4.380854.5379043 7.901169 2.5238683 7.913645 7.8556343 0 4.019538-2.655732 6.527198-6.08946 7.928021l7.47455 11.191465c.095654.141903.188531.275611.279479.401672l.267901.355792c.96729 1.224467 1.803571 1.589881 3.635962 1.824541l.163188.024679v1.696658h-.190951c-1.489975 0-2.905913-.179229-4.368124-.179229-1.017995 0-2.070694.100817-3.1879.119861l-.564116.001862c-.189923-.002214-.381775-.007545-.575696-.016838-3.412133-4.476093-6.336555-9.254499-9.211619-14.338304h-2.628278v9.322674c.034704 2.510283.799936 3.122236 2.048425 3.292143l.256069.028519c.043727.003915.087973.007446.132729.010648l.274574.015691.737046.021636h.996401v1.721337h-.197738c-2.541902 0-5.123598-.17892-7.650077-.17892-.708586 0-1.412647.01988-2.1192.046387l-2.134144.086146c-.359275.013254-.720926.02485-1.08583.033134l-1.10535.013253h-.194653v-1.721337h.993625c1.603804-.009254 2.95527-.706426 2.961439-2.205655v-22.605347c-.026354-2.47587-.98148-3.000013-2.058848-3.133055l-.224384-.022457-.226284-.014368-.451923-.016753h-.993625zm245.352802.0058612c2.366067 0 4.682776.1696658 7.033111.1696658 2.258097 0 4.479485-.1696658 6.765038-.1696658h.182622v1.714859h-1.299023l-.634172.017904-.291137.013978-.273002.022598c-1.010952.108198-1.608389.493505-1.633566 2.157653v22.960412c.011106 1.529128.937717 2.027885 2.172044 2.248426l.31464.049774c.786324.055527 1.609975.08946 2.467867.08946 1.088637 0 2.220771-.052442 3.368637-.175835 1.813573-.212545 3.374499-1.258612 4.139846-2.319795.616072-.855115.997764-1.930118 1.261118-2.844953l.123972-.446255h1.675064l-.040411.234448c-.201008 1.017994-.41934 2.026611-.643526 3.032563l-.678648 3.016572c-.112212.503667-.223019 1.008345-.330988 1.514875l-.03671.151157-.152082-.000617c-3.920514 0-7.834858-.178921-11.737481-.178921-1.253774 0-2.507202.018322-3.760585.043239l-3.76032.082813c-.626799.013191-1.253662.0251-1.880629.034261l-2.540162.018608v-1.721337h.808534l.292039-.008092.279248-.012487.273903-.02007.266839-.030631c1.138513-.159922 2.029628-.701208 2.043756-2.714324v-22.873728c-.015783-1.813682-1.083787-2.210371-2.385021-2.309534l-.304052-.018112-.310096-.010607c-.052062-.001312-.104283-.002438-.156616-.003443h-.808534v-1.714859zm-275.170797-1.4168638.200514.0431877 1.255527.1977378-.028072.1943445c-.17892 1.1907455-.354447 2.3938298-.48401 3.5876608-.071568.947661-.085882 1.907167-.088744 2.867463l-.000716.859015-.123393.049357-1.57635.573471-.012031-.259126-.032088-.431716-.02716-.299665-.034864-.305348c-.006601-.051184-.013632-.10247-.021151-.153788l-.051392-.307769c-.251839-1.330696-.907347-2.592203-2.936995-2.592203h-7.101286v23.478664c.032905 2.753885.935797 3.403935 2.429549 3.572425l.286934.026345.300374.017434.474866.014644h1.042673v1.721337l-.490782-.000968-.67301-.011583-.747625-.020373-2.959448-.098442-.873536-.023856-.854881-.016616c-.139983-.002004-.278483-.003584-.415145-.004681l-.428966-.001785c-.314653 0-.635536.002494-.959665.006892l-.979147.018322-1.945144.056799-2.222208.072363-.76637.018036c-.120154.002143-.236272.003805-.347983.004913l-.488481.001596v-1.721337h1.033419l.66128-.018968.445283-.023978c.047113-.003455.093446-.007219.139006-.011339l.264139-.029372c1.35988-.183426 1.942867-.82703 1.985408-3.454955v-23.5709h-7.101285l-.428047.011281-.388771.018699-.351834.027375c-1.392269.133893-1.883531.526579-2.235066 1.588291l-.082076.267867-.079049.294817-.118013.495515-.296579 1.349626h-1.712082l.024679-.231363.111824-.747549.230355-1.502604c.073804-.504491.141646-1.013908.194582-1.53216.18509-1.233934.271465-2.4678667.271465-3.7449875v-.1943445h1.409769l.030848.1388175c.244319.8983034.820319 1.0819126 1.620598 1.1289008l.310409.0123455.330175.0063116h23.173265l.315556-.0055812.298227-.0100974c.91493-.0438931 1.540504-.2236508 1.604212-1.1846299zm-82.17563 1.4100772h.190951c.249916 0 .518523.0035884.801721.0097401l.889263.0251194 2.444675.089712 1.001884.030502c.497196.0126879.985697.0207619 1.451661.0207619.492202 0 1.006508-.0086832 1.531873-.0221904l1.598221-.0511346 1.598292-.0569235c.525412-.0173664 1.039789-.0318385 1.532086-.0395569l.918242-.00603v1.7213366h-.820874l-.463383.013899-.301114.017974c-1.287411.09855-2.328257.494738-2.33576 2.31877v23.309306c.007503 1.824032 1.048132 2.209369 2.335655 2.30806l.301146.018211.463456.015117h.820566v1.721337h-.19743c-.716709 0-1.490625-.01988-2.286021-.046387l-2.414898-.086147c-.535086-.017671-1.063839-.032397-1.575674-.040251l-.753741-.006136c-.550763 0-1.129797.011475-1.715875.028613l-1.175256.040104-1.715543.065869c-.550586.01987-1.072835.035716-1.545516.041726l-.578607.002609v-1.721337h.814396l.463065-.015117.300688-.018211c1.285271-.098691 2.320483-.484028 2.333419-2.30806v-23.309306c-.012936-1.824032-1.047931-2.220437-2.333314-2.318875l-.30072-.017942-.463138-.013826h-.814396zm239.469409.0064781h.194036c.248153 0 .515375.0034626.797475.0093984l.886745.024238 2.442393.0865642c.167454.0055648.33496.0108823.501994.0158289l.99236.0242379c.326106.0059359.646135.0093984.955897.0093984.492956 0 1.008123-.0083785 1.534408-.0214118l1.601111-.0493404 1.601253-.0549262c.526379-.0167571 1.041689-.0307213 1.534834-.0381689l.910193-.0058185v1.7148585h-.811619l-.466148.013977c-.051018.002303-.101735.00492-.152107.007915l-.297768.023017c-1.220656.119066-2.17299.554345-2.190404 2.305734v23.309306c.016021 1.615855.823528 2.109265 1.903071 2.266395l.287449.033879c.048823.004548.098075.008589.147713.012188l.302119.01681.466075.012116h.811619v1.721337h-.188483c-.716607 0-1.49018-.020257-2.285256-.047267l-2.41427-.08778c-.535077-.018007-1.06395-.033012-1.576109-.041015l-.754391-.006252c-.67325 0-1.389886.017467-2.110059.041587l-2.639409.100524-.960452.029293c-.152631.003573-.301124.006381-.444858.008252l-.579412.002658v-1.721337h.817481l.461595-.012116.300019-.01681c.04934-.003599.098318-.00764.146889-.012188l.286189-.033879c1.075604-.15713 1.888648-.65054 1.893225-2.266395v-23.309306c-.005174-1.821445-1.043474-2.219602-2.326303-2.318674l-.300019-.018065-.461595-.013904h-.817481zm-2.697069-1.4162468.209768.0434962 1.261697.1974293-.033625.1943444c-.182005 1.1907455-.351979 2.3938304-.487403 3.5876604-.071815.947661-.086178 1.909142-.089051 2.868648l-.000718.85783-.125861.049358-1.576658.573779-.008946-.259435-.03138-.431651-.026753-.299634c-.005031-.050504-.010386-.101245-.016119-.152155l-.039378-.306952c-.209063-1.436861-.80116-2.900096-2.986936-2.900096h-7.104062v23.478663c.034408 2.495709.77821 3.263561 2.027584 3.511004l.265639.044165.279665.031691.29329.021593.306515.01387.319338.008525h1.042365v1.721646l-.512862-.001785-.718884-.012965-.801885-.022579-2.698728-.090461-.928951-.026075-.909481-.018209c-.297638-.00437-.588616-.006847-.869517-.006847-.313961 0-.634281.002494-.95795.006892l-.978047.018322-1.944158.056799-2.221616.072363-.765825.018036c-.120033.002143-.236013.003805-.347565.004913l-.500006.001596v-1.721337h1.03928l.661149-.018968.445149-.023978c.047098-.003455.093415-.007219.138959-.011339l.264045-.029372c1.189462-.160498 1.784306-.673319 1.945765-2.559521l.028024-.42558c.007169-.149115.012186-.305609.015109-.469854l-.006169-23.5709h-7.092031l.000308-.194653-.001424-.000365.000807.19471-.429137.010936-.389695.018417-.352604.027154c-1.339374.127765-1.84503.495347-2.194354 1.464343l-.084466.254988c-.013666.044656-.027158.090409-.040526.137284l-.079106.29493-.118205.495659-.297511 1.349759h-1.715475l.027763-.222416c.18509-1.255219.407198-2.49563.536761-3.782005.182005-1.243188.268689-2.4771211.268689-3.754242v-.1943444h1.406067l.037326.1388174c.233677.8421594.748285 1.0561697 1.471336 1.1183484l.300165.0179028.714566.0174763h22.961029l.462479-.0117965c.049271-.0018446.097797-.0039613.145538-.0064443l.276693-.0200485c.755429-.0735315 1.260549-.3073997 1.317552-1.164487zm-152.126067 3.1311053v-1.7148585l.937575.0036256 1.715385.024989 5.030891.1034701 1.56295.023971 1.021085.0099845.991445.0036256c.472623 0 .959184-.0027071 1.454728-.0074375l1.508621-.0195768 6.190397-.1211604 1.386916-.0176929 1.045971-.0037982-.009563.1974293c-.015424.3347044-.026144.6994088-.033008 1.0853602l-.008837.797638c-.0007.136796-.001034.275305-.001034.415202 0 1.539023.042879 3.220257.132647 4.488432l.00617.160412-.148072.043496-1.56401.407198-.008946-.228278-.07048-.704606-.041586-.33855-.048173-.328652c-.008676-.05392-.0177-.107406-.027108-.160444l-.061367-.312783c-.410546-1.894659-1.448838-3.146867-4.979769-3.180158h-5.993831l-.006478 11.262725h5.108792c2.327927-.022435 2.918915-1.10799 3.234492-3.106016l.059877-.411727c.009512-.070634.018826-.142271.027996-.214905l.015733-.175835h1.705912l-.003085.200205c-.086067 1.733677-.142211 3.467353-.142211 5.201029 0 1.684319.056144 3.371722.142211 5.065295l.003085.157635-.160411.03671-1.545501.308483-.015733-.209768-.116218-1.032717-.048458-.374671-.054159-.3524-.062905-.329914c-.295949-1.3806-.924155-2.121837-3.000831-2.145466l-5.142416-.003393v10.176864c.002684 1.959177 1.228925 2.489844 3.008301 2.639425l.375819.025854.390285.01704.818689.015885.642176.004109 1.118381-.012083.522751-.012008.49938-.017721c.081321-.003502.161697-.007296.241143-.01141l.465626-.02873.443988-.037698c.072233-.007102.143594-.014632.214097-.022618l.412832-.053587c2.617968-.386623 3.974487-1.547698 4.926018-5.091548l.043496-.17892.187866.033933 1.425501.366786-.043496.185399c-.57347 2.356812-1.107455 4.707455-1.505707 7.063959l-.036709.157635-.877641-.003303-.801954-.009165-6.876886-.134694-2.06114-.027729-1.499911-.007423-.65442.001514-1.360119.011099-2.112627.031786-5.735439.116388-1.386484.018869-.772505.002658v-1.721337h.811311l.4629-.012195.300429-.016933.291467-.027577c1.145177-.135714 2.025419-.600962 2.042376-2.284683v-23.309306c-.017414-1.751389-.971955-2.184662-2.186831-2.30457l-.296222-.023275-.45853-.019103c-.051677-.00139-.103555-.0026-.155589-.003695zm186.241851-.040103c-6.747022.008182-9.294362 5.298815-9.804583 10.620022l-.043692.523311c-.018638.261519-.03252.522696-.041903.782906l-.012845.518945c-.001167.086214-.001853.172275-.002067.258158.006169 7.924936 3.618509 15.368638 10.664267 15.387147 5.822161-.008281 8.331079-3.521557 9.336299-7.826411l.107472-.490578c.050621-.246833.096643-.495876.138395-.746634l.077906-.503658c.012067-.084276.023685-.168706.034864-.253272l.061916-.508882.051986-.511271.042638-.512786.033875-.513424.025695-.51319.018098-.512079.011085-.510093.004655-.507234c0-6.450077-3.473521-14.171414-10.704061-14.180977zm-77.575219 3.973265-3.914344 11.922879h7.786118zm145.222211.00617-3.911568 11.916709h7.780257zm-214.164833-3.674036-.248264.001637-.443496.011964-.382142.021038c-.059201.004095-.116313.008443-.17157.01298l-.311154.028993-.778592.084108v12.891516h1.983547c4.404833-.037326 6.62036-1.567095 6.666633-6.737583-.024131-3.800514-2.333932-6.191286-6.05881-6.310084zm257.574293-3.0539848c2.680411 0 4.682776 2.0606688 4.682776 4.7012858 0 2.555269-1.892376 4.556531-4.460982 4.665741l-.221794.004696c-2.681028 0-4.68617-2.04216-4.68617-4.670437-.000308-2.640309 2.004833-4.7012858 4.68617-4.7012858zm0 .8760925c-2.106941 0-3.717532 1.8049353-3.717532 3.8251933 0 1.943444 1.508358 3.681768 3.515222 3.791896l.20231.005533c2.094293 0 3.704884-1.789203 3.704884-3.797429 0-2.020566-1.585912-3.8251933-3.704884-3.8251933zm.086067 1.3079693c.826735 0 1.582211.391774 1.582211 1.243188 0 .697172-.462725 1.212339-1.107455 1.412853l.768123 1.073213c.360926.487404.765039.944268 1.033419 1.104371v.151156h-.912802c-.207495 0-.402532-.206957-.642192-.556281l-.16701-.253266-.388718-.616069-.229226-.354298-.257481-.379469h-.518252v1.557841c0 .213565.051748.270407.275109.31178l.175646.026841.234386.031559v.231362l-2.264267.000309v-.231363l.328306-.045594c.291072-.046111.353134-.098681.353134-.373943v-3.467352c0-.422149-.03939-.603557-.445292-.628563l-.100324-.003033-.11423.00229v-.237532zm-.317738.31126h-.521645v2.205964h.552494c.604318 0 .888123-.459641.888123-1.196916 0-.746529-.438046-1.009048-.918972-1.009048zm-186.031157-56.427147c2.613162 0 6.12617.7403599 9.312802 2.3784062l.580257 8.3324421h-1.884524c-.79873-5.0449115-3.562691-7.9751529-8.606994-8.0881247l-.305397-.003392c-3.269923 0-6.373264 1.8820566-6.373264 5.3953728 0 3.1201491 2.013768 4.9101237 4.728919 6.3496235l.486158.2505907c.08215.0412252.164841.0821971.248038.1229406l.504995.2419196.776782.3552186 1.063302.4656061 1.730931.7454548.771851.3411407.51213.2332571.508602.2390982.503724.2459485.497493.2538078c.082321.0430123.164327.0863941.245988.1301664l.485613.2674888.476003.2778707c3.059857 1.8420872 5.425023 4.4060806 5.425023 8.9389938 0 5.3193816-4.21326 10.9626064-13.655865 11.1205152l-.407888.0033923c-3.269923 0-7.110848-1.144473-9.97018-2.7763496l-.900771-9.4053471 1.474858-.414293c1.064576 5.3984575 4.331414 9.9797429 10.303342 9.9797429 4.81234 0 6.613574-2.9429306 6.613574-5.8056555 0-3.1080007-1.848521-4.8926578-4.354767-6.3238632l-.462663-.2565403-.475569-.2500462c-.080248-.0412051-.160968-.0821937-.242126-.1229926l-.491944-.242734-.500872-.2394785-2.619665-1.2112904-.476608-.2262129-.474782-.2310617-.471739-.2369021-.467476-.2437341-.461998-.2515578-.455302-.2603732c-3.236091-1.8999654-5.862484-4.5554808-5.862484-9.6091256 0-4.5809769 3.682982-10.4699229 12.672493-10.4699229zm140.292031 1.2299229c.506711 0 .625937.3337276.653991.8949632l.007552.2747994.001079 30.4692091c.000238 1.1366423.529642 1.4464033 1.405821 1.5288387l.273074.0185104.292786.0084682.311404.0020233c.327918 0 .682297-.0089117 1.048581-.0207941l1.120011-.0386175c.375538-.0118823.748426-.0207941 1.104107-.0207941v1.7213368c-.285745.0263002-.592485.0617931-.915759.1050735l-.667272.0965276-.703432.1147957-.731662.1305656c-.123855.0229362-.248556.0464255-.373938.0704157l-.759138.1495358-.767541.1590599-.768014.1660854-1.135562.2568361-1.092019.2585905-1.342031.3329428-1.153595.3010851-.70337.1928838-.376985.108224-.287574.0869415-.410282-.2470951v-6.6166581l-.745587.6071069-.730282.5876427-.71755.5667873-.70739.5445403-.699805.5209021c-3.252056 2.3735559-6.340345 3.9294765-10.441546 4.0314383l-.431876.0053356c-4.414088 0-8.991671-2.8599486-8.991671-9.7237018l-.002064-21.2106257-.013668-.4029658c-.002412-.0444853-.00516-.0888593-.008282-.1331071l-.023514-.2638518c-.185904-1.7036276-1.054854-3.1695557-4.848411-3.5071874v-1.5547558l1.009822-.0366727 2.135026-.1090192 6.548743-.3940322.508227-.0232797.339056-.0083072c.58064 0 .78967.234009.864921.8739503l.022413.2593419.012658.2994128.006793.5286592.002011 21.9898108.010678.5700284.019452.4729336.020542.3334473.027922.3458168.036434.3563375c.006845.0601636.014091.1206885.021764.1815362l.051327.3686519c.009468.0619849.019409.1242155.029847.1866534l.068769.3768062c.012517.0631128.025577.1263559.039204.1896906l.088759.3808006c.655598 2.605445 2.34378 5.2355312 6.690902 5.2355312 2.779435 0 6.456556-2.1254499 9.887198-4.9789203v-22.0071979c0-.8143959-.980283-1.4460155-2.327622-1.9766453l-.436962-.1643057c-.074622-.0268566-.150082-.0534573-.22629-.079814l-.46552-.1553078-.479193-.1500248-.735041-.2163833-2.186955-.6048713v-1.4714653l1.292612-.0903678 2.018246-.1553196 2.189821-.1881752 2.221522-.211417 4.225016-.4406396.532558-.0464704zm-74.887403-22.1669923c5.707206 0 11.233074 1.5864331 16.682545 3.4391162l1.306459.4490801 1.303849.4552484.814704 11.6884319h-2.039383c-1.554447-9.562982-8.341079-13.4097687-17.493778-13.4097687-.470438 0-.951486.0157319-1.44091.0480754l-.591184.0468419c-.495765.0457734-.99901.1085103-1.507497.1890903l-.612558.1053169-.616731.1227841c-8.659443 1.8428243-18.293331 8.920311-18.293331 25.4035727 0 16.5285347 11.780668 28.3801542 24.367095 28.3801542 8.091208 0 14.80072-5.5588689 16.435681-14.1467352l1.875578.4874036-1.875578 11.9379949c-1.865235 1.1579167-5.443403 2.3377709-9.188958 3.1740546l-.901355.1939244c-2.708961.5608607-5.440599.9284562-7.618041.9663614l-.365682.0032431c-19.125964 0-31.221902-12.3482776-31.221902-30.7465296 0-16.762982 14.958355-28.7876606 30.980977-28.7876606zm-124.529177 20.9381908.173084-.0014299c6.626221 0 13.743239 4.1679177 13.82036 12.8359897 0 .4966581 0 .9809769-.077121 1.477635l-.74036.4904884h-22.969357l-.018858.0873271-.03319.1890788-.027156.21075-.021121.2353471-.015087.26287-.009051.2933189-.003018.3266937.003018.3629943.01584.6189555.029419.7170901.060346 1.1258415c.006034.102471.01232.207186.018858.314206.481542 7.7645244 5.481748 14.1411825 12.012031 14.1411825 4.500771 0 8.02365-2.4524421 11.04401-5.4755784l1.14108 1.1475579-.231625.3043883-.470203.6025475c-3.562167 4.4852668-7.939483 8.1687558-14.020467 8.3236728l-.399556.0050726c-6.829633 0-10.793781-3.4749401-13.018422-7.5320483l-.249033-.4705469c-.080481-.1576004-.158453-.3158974-.233979-.4747265l-.219308-.4779187-.205022-.4801232c-.033001-.0801494-.065423-.1603496-.097273-.2405798l-.184313-.4815786-.170988-.4813144-.158046-.4800627c-.025285-.0798513-.050045-.1596093-.074291-.2392534l-.139356-.4763336-.127376-.4726131-.115781-.467905-.104569-.4622095-.093742-.4555265-.0833-.4478559-.073242-.4391978-.063568-.4295522-.054278-.4189191-.045374-.4072984-.036853-.3946902-.040145-.5662349-.017233-.3588494-.010058-.342785-.003268-.3257329c0-9.9380422 4.147963-15.5382736 8.663479-18.3593962l.438006-.2643886.439539-.247351.440312-.2306276c.367036-.1853087.734084-.3535242 1.09916-.5054638l.437017-.1745675.434364-.1592567c.07213-.0252843.144118-.0499437.215948-.0739849l.428955-.136879c.071134-.021594.142077-.0425827.212816-.0629727l.421832-.1152077.416133-.1011526.409672-.0874115c.067698-.0134409.135095-.0263224.202175-.0386509l.398552-.0673883.390188-.0544319.381062-.0417894.371175-.029461.360525-.0174463c.059158-.001924.117841-.0033604.176032-.0043158zm215.695552-25.1058001c.487404 0 .650591.4938818.650591 1.1506427l.000926 29.8426735.571067-.4790632c3.200487-2.6455562 7.366737-5.4095743 11.610321-5.4095743 9.485861 0 15.202365 8.2673522 15.202365 17.1729563 0 10.6015539-7.685451 21.2055257-19.18613 21.4208294l-.356904.0033351c-3.720783 0-6.358625-.7441566-8.333367-1.5251391l-.480114-.1956035-.453943-.1946819-.635031-.2849224-.948181-.4354691-.344952-.1532338c-.056-.0243024-.111273-.0479524-.165851-.0708988l-2.449049 1.8755784-1.711774-.894293c.724936-4.8246787 1.14108-9.5691517 1.14108-14.5542417v-35.1609254c0-.2085468-.001898-.4091672-.005731-.6022163l-.017347-.5567886c-.127775-2.9413166-.793056-3.9180231-2.168088-4.525266l-.257865-.1066917c-.044293-.0172218-.089249-.0341931-.13487-.0509583l-.281759-.0984728-.297976-.095657-.477875-.142866-.696073-.2005178v-1.3079691l.821809-.2733196.821402-.2874274.814572-.2983934.80132-.3062181.781646-.310901.75555-.3124423.723029-.3108421.684089-.3061002c.772889-.3531291 1.453159-.6901628 1.994918-.9886518l1.232265-.6846537.262952-.1405532c.242916-.1251381.424436-.2010628.532978-.2010628zm-176.600206 25.1043702c2.044936 0 4.658098 1.3881748 4.658098 4.3341902 0 2.1418089-1.456154 4.0573626-3.631227 4.17149l-.205997.0053738c-1.076725 0-1.697913-.3522825-2.272612-.7587622l-.468133-.3386211c-.632474-.4514949-1.342387-.8707401-2.660797-.8707401-1.39126 0-5.966067 1.8817481-5.966067 6.7897172v19.2092545c0 2.0290489.917757 2.5363111 2.343586 2.6631266l.325048.0223826.340775.012641.538467.0067844 4.95053.0004639v2.1257583l-6.412994-.1183562-1.916665-.026344-1.870925-.0156025-1.241061-.0031934c-1.353463 0-2.721127.0130934-4.064658.0341936l-1.992405.0370193-2.857842.0697021-.81435.0225811v-2.1254498l2.764923-.0015658.526106-.0109607.332161-.0171658c1.513434-.1039229 2.502672-.571576 2.502672-2.6760147v-22.9727506c0-1.611685-1.222871-2.397629-2.429423-2.9246418l-.343215-.144019-.960087-.3768857c-.048299-.0196186-.09549-.0391396-.141441-.0586244l-.259736-.1169623c-.04045-.0195844-.079391-.0392548-.11669-.0590725v-1.2215938l1.133518-.4910134.717586-.3201131 1.019447-.4672078.951377-.4491114.596571-.2879418 1.103081-.5445529 2.923808-1.4879914.570387-.2777659.241441-.1100839.212383-.0897547.183407-.0685782.154514-.0465544c.070047-.01763.129291-.0266833.177776-.0266833.484319 0 .724936.2467866.724936 1.0673522v7.3573265h.173059l.551068-.8536906.453575-.682555.321684-.4688544c.054905-.0788296.110456-.1579559.166656-.2373088l.344982-.4782743.360595-.4803415c2.026334-2.641385 4.764105-5.2236541 8.262108-5.2236541zm-70.059948.0003085c6.940874 0 9.393007 5.0711568 9.393007 11.4475064v21.0943959c0 2.0322747 1.014852 2.5379201 2.491427 2.6637286l.335504.022171.349355.0124628.547055.0066088 1.838922.0004273v2.1254498c-.918145 0-1.83528-.0167104-2.754263-.0394366l-2.765363-.075531c-.462772-.0120315-.926722-.0228933-1.392207-.0312485l-1.753463-.0169715c-2.357059 0-4.714118.0513316-7.067703.114351l-1.764482.0488366v-2.1254498l2.027601-.0015657.355697-.0056826c.058074-.0014497.115529-.0031892.172345-.0052767l.333063-.0171639c1.51698-.1039111 2.500805-.5715108 2.500805-2.6757096v-21.1715167c0-4.5740052-2.734547-6.8608263-7.237094-6.9504696l-.277867-.0027438c-2.612545 0-6.783548 2.1257584-9.492031 3.9269923v24.1971208c0 1.9572284.945751 2.4986557 2.336796 2.6484305l.328687.0280771.34313.0169693.72412.0118027 1.835699.0004274v2.1257583c-2.859949 0-5.725758-.1638046-8.66838-.1638046-2.352124 0-4.709775.051529-7.06411.1147854l-1.764991.0490192v-2.1257583l1.84979-.000464.537851-.0067851.340433-.0126424.324754-.0223852c1.424614-.12683 2.342545-.6341501 2.342545-2.6634303v-21.6672493c.000512-2.5069911-.621182-3.4950625-3.020001-4.6460157l-.442003-.2051426-.48031-.210578-.520025-.2180675c-.090059-.0370828-.181832-.0745633-.275347-.1124841v-1.5513625l2.094184-.6829598c2.781542-.9135153 5.552068-1.8701096 8.693168-3.2474258.24401 0 .484319.1668894.484319.8177892v5.3179434l1.154392-.824421.757973-.5327506c.125706-.0875088.251132-.1743444.376324-.260459l.748698-.5076567.745265-.48807c3.225221-2.0692295 6.415685-3.5223753 10.376731-3.5223753zm189.908791-25.1046787c.500052 0 .66324.4938818.66324 1.1506427v56.4956298c0 2.0325064 1.01311 2.5382095 2.48882 2.6640323l.335326.0221736.349213.0124642.546922.0066095 1.746351.0004274v2.1254498c-.922468 0-1.855493-.0181662-2.798663-.0423879l-2.859538-.0787203c-.481525-.0121109-.965484-.0227078-1.451825-.0302771l-1.466118-.0121108c-2.35163 0-4.705629.051529-7.104326.1146274l-1.808065.0488687v-2.1254498l2.108078-.0015658.528315-.0109607.333535-.0171658c1.519654-.1039229 2.512437-.571576 2.512437-2.6760147v-45.5379948l-.005704-.6022512c-.066775-3.3785549-.723878-4.4382603-2.182787-5.0823219l-.257993-.106694c-.044321-.0172221-.089306-.0341937-.134961-.0509592l-.281999-.0984743-.298301-.0956578-.478533-.1428667-.697305-.2005179v-1.3079691l.8198-.2733194.82009-.2874261.813858-.2983901.801105-.3062115.781828-.3108901.756031-.3124261.72371-.3108194c.117563-.0514947.233507-.1027916.347697-.1538251l.663002-.3025169c.213259-.0994363.418413-.1972954.614376-.2930535l.55923-.2804474c.176493-.0910323.342709-.1794398.497559-.2646988l1.227303-.6847381.262591-.1406189c.2424-.1252029.42258-.2011842.525701-.2011842zm-224.417892 25.1046787c.404422 0 .573779.4935732.573779 1.1506427v31.3909511c0 2.0325064 1.014852 2.5382095 2.49012 2.6640323l.33519.0221736.348997.0124642.546422.0066095 1.75485.0004274v2.1254498c-.927609 0-1.864062-.0181319-2.809163-.0423079l-2.861057-.0785718c-.962205-.024176-1.932865-.0423079-2.911785-.0423079-2.354345 0-4.710664.0513316-7.105284.114351l-1.803714.0488366v-2.1254498l2.10568-.0015658.526982-.0109607.332723-.0171658c1.516005-.1039229 2.507109-.571576 2.507109-2.6760147v-22.1549614c0-2.836991-.763496-3.7459186-2.573882-4.8028218l-.376119-.2139687-1.300899-.7024897v-1.311054l1.087077-.330705 1.384373-.4319174 2.190203-.7060185 1.471234-.4918635 1.041992-.3610851.819723-.2982329.254111-.0978122.207005-.0838735.214971-.0972487c.034345-.0175715.059466-.0323578.074812-.0441738.576864-.3269923 1.064268-.4133676 1.47455-.4133676zm-47.006992-19.7059126c21.168124 0 32.696144 14.140874 32.696144 28.6207712l-.001412.2440742-.011636.5090161c-.002956.0870914-.006433.1752894-.010451.2645622l-.030733.5482832-.044598.5725625-.059369.5953225-.075048.6165637c-1.2201 9.1912746-7.791518 24.7461843-32.585934 25.0980399l-.861025.0060744c-1.389203 0-2.742759-.0178577-4.072322-.0416681l-3.928363-.0773836c-1.293231-.0238103-2.574122-.0416681-3.854327-.0416681-2.206273 0-4.384782.0289851-6.56891.0694976l-4.385641.0912222v-2.122365l1.25291-.1284591.694418-.0796619.651858-.0880616.411102-.0659841.392451-.0736324c2.618261-.5328523 3.937489-1.7110794 4.109138-5.7832241l.000309-39.6583033c0-4.6946049-1.562513-6.1951777-3.649226-6.6873028l-.294467-.0623437c-.09922-.0187462-.199469-.0355307-.300644-.0505735l-.306194-.0401229-.311118-.0309916-.315415-.02318-.319084-.0166877-.322128-.011515-.674663-.0130993-1.019247-.014312v-2.1254499c2.655785.1311054 5.367053.1529563 8.044902.1565981l1.98854.0000969 2.086076-.0192232 6.656529-.1042209 2.418796-.0239151zm336.595064 24.1237018c-2.490892 0-4.642712 1.3258997-6.554114 2.8439419l-.493238.3996242-.48272.4038686c-.079598.0674167-.158774.1348238-.237537.2021283l.000309 19.8601542c0 3.1095116 2.939537 8.3475579 8.4182 8.3475579 7.851019 0 11.617772-6.9193249 12.307851-13.6004883l.051639-.571921c.044151-.5710038.065909-1.1387555.065909-1.6987476 0-8.8287917-6.696864-16.1861182-13.076299-16.1861182zm-338.482365-21.5019023-.743129.0040917-.683516.0115568-.628691.0179444-.850707.0365363-.512565.0291992-.91569.0651698-1.527637.1272545-.346548.0248854c-.057243.0037669-.114297.0073287-.17126.0106626v44.4798972c0 5.1418509 3.001765 6.5741877 6.283337 6.9265545l.403039.0379282.404725.0282058c.067533.0039503.13509.0075403.202648.0107922l.405172.0156339.404082.0085935.401882.0026261c17.663753 0 23.463239-13.329563 23.463239-25.5146529 0-15.2853471-9.812854-26.3228792-25.588381-26.3228792zm114.214705 19.7028277c-4.982005 0-8.415733 3.674036-9.39671 9.5663754h14.230643c1.89314 0 2.236367-.9176591 2.27574-1.8317084l.00426-.210451c0-4.0875825-2.432651-7.3897603-6.841536-7.5202124zm-68.016864-23.2287917c2.11928 0 4.007198 1.72473 4.007198 3.9331619 0 2.1418089-1.696623 3.9732421-3.808073 4.0822713l-.199125.0051323c-2.128226 0-4.003805-1.9616452-4.003805-4.0874036 0-2.048329 1.961954-3.9331619 4.003805-3.9331619z" fill="#211e1f"/><path d="m78.5710026 6.42571806c-39.2946016.01233934-71.13624682 31.86323904-71.14550131 71.17357324.00925449 39.3035477 31.85059121 71.1513627 71.14550131 71.1637017 39.3038564-.012339 71.1519794-31.860154 71.1575324-71.1637017-.005861-39.3103342-31.853676-71.1612339-71.1575324-71.17357324zm-45.0971723 71.17357324c.037018-19.2092545 12.0339332-35.5897172 28.9511568-42.0990231v84.1881748c-16.9172236-6.505604-28.9144473-22.8771208-28.9511568-42.0891517zm61.237018 42.1076607v-84.2094602c16.9233937 6.4935733 28.9388177 22.8832905 28.9696657 42.1017995-.030848 19.2243702-12.046272 35.6017477-28.9696657 42.1076607z" fill="#fff"/></g></svg>