<?xml version="1.0" encoding="UTF-8"?>
<svg width="1920px" height="1080px" viewBox="0 0 1920 1080" version="1.1" xmlns="http://www.w3.org/2000/svg" xmlns:xlink="http://www.w3.org/1999/xlink">
    <!-- Generator: Sketch 61 (89581) - https://sketch.com -->
    <title>Docmation</title>
    <desc>Created with Sketch.</desc>
    <g id="Docmation" stroke="none" stroke-width="1" fill="none" fill-rule="evenodd">
        <g transform="translate(1.000000, 367.000000)">
            <path d="M94,59 L227.505248,59 C229.039259,60.1569515 230.464417,61.4015206 231.903685,62.7317161 C241.502839,71.6806662 249.037833,84.2557929 254.421987,100.26593 C255.845129,104.437726 257.026377,109.03168 258,114 L94,114 L94,59" id="Fill-1" fill="#C62D2C"></path>
            <path d="M92,143 L260.100128,143 C260.720939,151.412303 261,160.683328 261,170.675919 C261,180.39022 260.720939,189.490296 260.191126,198 L92,198 L92,143" id="Fill-2" fill="#C62D2C"></path>
            <path d="M94,227 L258,227 C256.919782,232.927144 255.574036,238.420982 254.07541,243.252936 C248.696448,260.599075 241.816848,273.16295 233.301835,280.743811 C232.851241,281.173142 232.312138,281.632287 231.785105,282 L94,282 L94,227" id="Fill-3" fill="#C62D2C"></path>
            <path d="M425.491013,230.053719 L425.491013,126.028874 L444.897145,126.028874 C460.07179,126.028874 471.984746,130.527169 480.500363,139.638585 C489.005858,148.834607 493.259617,161.608316 493.259617,178.004029 C493.259617,195.92469 489.374341,208.994525 481.510656,217.449225 C473.752253,225.839463 461.729966,230.053719 445.271703,230.053719 L425.491013,230.053719 Z M475.687804,253.320764 C482.812497,251.592355 489.194149,248.562603 494.917794,244.322159 C504.990356,237.1547 512.671824,227.928461 518.041157,216.715961 C523.307235,205.577996 526,192.898967 526,178.729236 C526,166.126756 524.064448,154.706767 520.256109,144.600207 C516.474089,134.392924 510.928612,125.738791 503.532618,118.661983 C496.596217,111.959866 488.829714,107.165444 480.409255,104.316994 C471.814676,101.454442 460.537456,100 446.399425,100 L395,100 L395,256 L447.144491,256 C459.144506,256 468.65422,255.149897 475.687804,253.320764 L475.687804,253.320764 Z" id="Fill-4" fill="#C52E2C"></path>
            <path d="M630.081554,142.47908 C639.534802,133.257201 651.098692,128.558385 664.732637,128.558385 C677.711064,128.558385 688.917769,133.257201 698.180247,142.47908 C707.542168,151.797925 712.171377,162.965187 712.171377,176.07177 C712.171377,190.459114 707.53202,202.452608 698.27969,211.937103 C689.090274,221.619572 677.692799,226.324447 664.064943,226.324447 C657.59095,226.324447 651.285403,224.954801 645.247745,222.189247 C639.147174,219.423694 633.763004,215.468285 628.932877,210.29676 C624.589823,205.620167 621.330502,200.331474 619.122444,194.604415 C616.90221,188.879375 615.865153,182.715968 615.865153,176.083891 C615.889507,162.86216 620.518716,151.70702 630.081554,142.47908 Z M588.739327,208.074621 C592.453247,217.76921 598.011951,226.5305 605.431675,234.261526 C613.019844,242.366275 621.823662,248.555944 631.646272,252.719425 C641.566296,256.878867 652.403638,259 664.186711,259 C675.129585,259 685.682802,256.878867 695.679946,252.62852 C705.79074,248.309488 714.596587,242.208705 722.198963,234.285767 C729.60448,226.609285 735.364101,217.949001 739.163259,208.086742 C743.045625,198.212361 745,187.68952 745,176.524279 C745,165.744882 742.954299,155.500818 738.791867,145.709263 C734.694378,135.937909 728.691221,127.182679 720.891987,119.342566 C713.198286,111.775171 704.5,106.056192 694.858013,101.979576 C685.112523,98.022147 675.022023,96 664.545926,96 C650.65221,96 637.860493,99.0301904 626.07742,105.223899 C614.32479,111.310542 604.483915,119.962745 596.796302,131.33808 C592.161004,137.968137 588.739327,145.167869 586.517063,152.83223 C584.118235,160.484471 583,168.595281 583,177.168699 C583,188.144049 584.942198,198.483058 588.739327,208.074621 L588.739327,208.074621 Z" id="Fill-5" fill="#C52E2C"></path>
            <path d="M925.478848,108.342975 C913.452085,100.14328 898.912026,96 881.993601,96 C871.426885,96 861.492521,97.9332615 852.293215,101.712919 C843.097937,105.577422 834.82702,111.219636 827.289148,118.671884 C819.282046,126.703909 813.3029,135.647011 809.160393,145.432505 C805.027956,155.294765 803,165.629734 803,176.510138 C803,187.289535 804.64935,197.371988 808.052771,206.78174 C811.548829,216.282396 816.6016,224.682084 823.223167,232.037366 C831.129576,241.00875 839.956318,247.727692 849.888668,252.240655 C859.831088,256.77584 870.583078,259 882.354081,259 C899.187925,259 913.7159,254.838539 925.839329,246.436831 C937.976854,238.033103 947.738026,225.601242 955,209.005899 L918.134306,209.005899 C914.255614,214.615792 909.374021,218.957044 903.318349,221.90441 C897.246565,224.926519 890.3491,226.324447 882.811227,226.324447 C869.564066,226.324447 858.348888,221.619572 849.23215,212.133056 C840.052983,202.620278 835.547982,190.907582 835.547982,176.803056 C835.547982,170.514401 836.728103,164.264128 839.311883,158.163345 C841.790943,152.167609 845.291029,146.834474 849.787975,142.109397 C854.115757,137.691379 858.979225,134.36827 864.603932,132.061285 C870.117877,129.760361 875.909734,128.558385 882.070127,128.558385 C889.710707,128.558385 896.598103,130.037118 902.575235,132.881457 C908.554381,135.847003 913.701803,140.180175 918.122223,145.99006 L954.983889,145.99006 C947.371504,129.1018 937.449223,116.552771 925.478848,108.342975" id="Fill-6" fill="#C52E2C"></path>
            <polyline id="Fill-7" fill="#C62D2C" points="1028.82313 254 1028.82313 115.280253 1084.13291 254 1098.95807 254 1154.189 115.280253 1154.189 254 1169 254 1169 97 1146.17901 97 1091.59704 233.553168 1036.7381 97 1014 97 1014 254 1028.82313 254"></polyline>
            <path d="M1249.67218,205.178731 L1318.9778,205.178731 L1337.57287,254 L1354,254 L1293.7396,97 L1275.34639,97 L1214,254 L1231.05087,254 L1249.67218,205.178731 Z M1255.04764,190.302915 L1284.14534,111.685464 L1313.60234,190.302915 L1255.04764,190.302915 L1255.04764,190.302915 Z" id="Fill-8" fill="#C62D2C"></path>
            <polyline id="Fill-9" fill="#C62D2C" points="1433.00988 111.860299 1465 111.860299 1465 97 1386 97 1386 111.860299 1418.00841 111.860299 1418.00841 254 1433.00988 254 1433.00988 111.860299"></polyline>
            <polygon id="Fill-10" fill="#C62D2C" points="1512 254 1527 254 1527 97 1512 97"></polygon>
            <path d="M1599.47257,145.640994 C1603.89208,136.472862 1609.941,128.755308 1617.67819,122.453985 C1623.47144,117.593138 1629.89576,114.019224 1636.81114,111.491826 C1643.77319,109.067463 1650.91177,107.812856 1658.39328,107.812856 C1676.6963,107.812856 1692.43244,114.180848 1705.49414,127.139066 C1718.50308,140.073041 1724.99436,155.433398 1724.99436,173.216098 C1724.99436,192.366542 1718.68368,208.458249 1706.03998,221.578091 C1693.41861,234.609041 1677.86307,241.160881 1659.4525,241.160881 C1640.70915,241.160881 1624.90809,234.710056 1612.09394,221.745777 C1599.26762,208.805741 1592.86765,192.81707 1592.86765,173.672686 C1592.86765,164.159083 1595.03277,154.736394 1599.47257,145.640994 Z M1601.07155,232.26751 C1616.61288,248.076375 1635.72554,256 1658.58402,256 C1670.49113,256 1681.51353,253.749383 1691.706,249.357246 C1701.82136,244.860054 1710.99519,238.290031 1719.0469,229.499696 C1725.97851,221.850832 1731.25026,213.395868 1734.75259,204.142884 C1738.18593,194.895961 1740,184.634846 1740,173.505001 C1740,162.363035 1737.93634,151.83524 1733.87397,142.133749 C1729.79738,132.521151 1723.74846,123.720715 1715.72313,115.898105 C1707.88246,108.271464 1699.11852,102.515623 1689.64234,98.7578612 C1680.25342,94.8930231 1669.94326,93 1658.76868,93 C1647.84977,93 1637.74861,94.8930231 1628.45303,98.662907 C1619.15948,102.527745 1610.57613,108.182571 1602.81459,115.738501 C1594.77506,123.55101 1588.56989,132.458522 1584.31475,142.333759 C1580.06568,152.223138 1578,162.647897 1578,173.519143 C1578,196.877877 1585.6337,216.444504 1601.07155,232.26751 L1601.07155,232.26751 Z" id="Fill-11" fill="#C62D2C"></path>
            <polyline id="Fill-12" fill="#C62D2C" points="1817.54207 97 1799 97 1799 254 1813.92908 254 1813.92908 115.557656 1899.53678 254 1918 254 1918 97 1903.1902 97 1903.1902 235.249984 1817.54207 97"></polyline>
            <path d="M0,173.49899 C0,77.675086 77.8734621,0 174.004039,0 C270.023539,0 348,77.675086 348,173.49899 C348,269.3128 270.023539,347 174.004039,347 C77.8734621,347 0,269.3128 0,173.49899 Z" id="Stroke-13" stroke="#C62D2C" stroke-width="5" stroke-linecap="round" stroke-linejoin="round"></path>
        </g>
    </g>
</svg>