<?xml version="1.0" encoding="UTF-8"?>
<svg width="329px" height="367px" viewBox="0 0 329 367" version="1.1" xmlns="http://www.w3.org/2000/svg" xmlns:xlink="http://www.w3.org/1999/xlink">
    <title>dollar-spin</title>
    <defs>
        <linearGradient x1="50%" y1="0%" x2="50%" y2="100%" id="linearGradient-1">
            <stop stop-color="#005E91" offset="0%"></stop>
            <stop stop-color="#003058" offset="100%"></stop>
        </linearGradient>
        <linearGradient x1="50%" y1="0%" x2="50%" y2="100%" id="linearGradient-2">
            <stop stop-color="#005E91" offset="0%"></stop>
            <stop stop-color="#003058" offset="100%"></stop>
        </linearGradient>
    </defs>
    <g id="CB,-Sub,-MOR" stroke="none" stroke-width="1" fill="none" fill-rule="evenodd">
        <g id="Subscriptions" transform="translate(-901.000000, -885.000000)" fill-rule="nonzero">
            <g id="dollar-spin" transform="translate(901.000000, 885.353564)">
                <g id="subscription-(1)" transform="translate(166.163448, 166.922625) rotate(30.000000) translate(-166.163448, -166.922625) translate(51.590206, 40.325872)" fill="#B03478">
                    <path d="M105.57625,41.2353297 L134.940739,41.2353297 L123.819458,52.3973008 C120.939154,55.2889332 120.943,59.9721836 123.829072,62.8599634 C126.709376,65.7400372 131.385544,65.7458167 134.269694,62.8503311 L157.954331,39.0796089 C160.869245,36.1532998 160.844249,31.3429025 157.785127,28.4570491 L134.269694,4.85585682 C131.38939,1.96422391 126.715144,1.96037122 123.829072,4.8462241 C120.943,7.73400382 120.939154,12.4172542 123.819458,15.3088867 L134.909975,26.4400347 C101.451916,26.4400347 105.624319,26.4381078 105.258994,26.4381078 C27.2042895,26.4381078 -22.3415565,111.551511 16.7982774,179.964339 C18.824873,183.507118 23.3337607,184.736206 26.8754963,182.70378 C30.4133866,180.671354 31.636266,176.151853 29.6096704,172.607147 C-4.01951507,113.830526 38.9197054,40.9001236 105.57625,41.2353297 Z" id="Path" transform="translate(81.610584, 93.184480) rotate(2.000000) translate(-81.610584, -93.184480) "></path>
                    <path d="M97.9897109,206.38501 C100.869942,203.493394 105.545991,203.489541 108.43199,206.375377 C111.317989,209.26314 111.321835,213.946363 108.439681,216.837978 L108.439681,216.837978 L97.3186821,227.999883 L124.212483,227.999506 L103.733997,234.149525 L86.8454828,253.193506 L74.4844884,240.78772 C71.5126353,237.992888 71.3560285,233.330479 74.1172687,230.351647 L74.3056753,230.155591 Z M205.38118,86.5303443 C208.91898,84.4998564 213.431598,85.7270108 215.458143,89.2697696 C228.354102,111.811145 231.623546,136.169047 227.415693,158.69807 C225.420425,160.727319 223.453316,163.211468 221.513452,166.149525 C217.841654,165.91272 214.026916,166.209381 210.069235,167.039507 C217.249243,144.878611 215.807926,119.62936 202.648998,96.6288441 C200.620531,93.084159 201.843379,88.5627589 205.38118,86.5303443 Z" id="Combined-Shape"></path>
                </g>
                <g id="dollar-(1)" transform="translate(0.000000, 117.646436)">
                    <path d="M280.235941,131.433164 C276.891697,131.433164 273.803701,132.24845 271.064865,133.477296 C266.900982,128.15368 260.437969,124.707943 253.152357,124.700843 C249.387346,124.700843 245.92415,125.699539 242.948596,127.195807 L242.637311,127.368568 L233.334264,132.88506 C229.163871,127.899273 222.917455,124.704393 215.909396,124.700843 C212.144385,124.700843 208.681189,125.699539 205.705635,127.195807 L205.333395,127.405841 L169.714916,149.215627 C161.671213,146.839584 152.740406,144.23339 144.110824,141.786349 C135.007213,139.203821 126.25217,136.804112 119.234643,135.033912 C115.720553,134.147037 112.64676,133.419314 110.134582,132.901626 C108.875238,132.640711 107.757926,132.434818 106.766074,132.282766 C105.760611,132.133671 104.920852,132.02895 103.973385,132.0254 C103.241924,132.02895 102.608701,132.092848 101.887893,132.181003 C99.264457,132.526523 95.5331777,133.325243 91.1319844,134.357071 C82.1402227,136.469241 70.6640977,139.542242 64.3229941,141.268069 L64.3229941,130.538598 C64.3229941,123.092754 58.2292617,117 50.7809062,117 L13.5420879,117 C6.09373242,117 0,123.093345 0,130.539781 L0,235.461402 C0,242.907246 6.09373242,249 13.5420879,249 L50.781498,249 C58.2292617,249 64.3235859,242.907838 64.3235859,235.461402 L64.3235859,227.315051 C72.3607793,229.064543 90.1987207,232.916148 109.004842,236.777811 C121.724332,239.387554 134.869324,242.000255 145.72643,243.96984 C151.156758,244.954927 156.014818,245.777313 159.992877,246.359491 C164.004668,246.938711 166.993834,247.297248 169.272252,247.310855 C171.045867,247.304347 172.725387,246.968885 174.539836,246.467762 C177.915445,245.516398 181.757391,243.902392 186.155033,241.766556 C201.460084,234.307104 223.441787,220.331872 244.177758,206.502777 C264.876445,192.690247 284.237672,179.05107 293.723584,172.518724 C299.661674,168.426912 303,161.512364 303,154.194906 C302.989939,141.627197 292.809258,131.439672 280.235941,131.433164 Z M54.1665762,235.460219 C54.1665762,237.294316 52.6160684,238.844424 50.781498,238.844424 L13.5420879,238.844424 C11.7075176,238.844424 10.1570098,237.294316 10.1570098,235.460219 L10.1570098,130.539781 C10.1570098,128.705684 11.7075176,127.155576 13.5420879,127.155576 L50.781498,127.155576 C52.6160684,127.155576 54.1665762,128.705684 54.1665762,130.539781 L54.1665762,235.460219 Z M287.964809,164.154648 C276.298717,172.18977 250.193373,190.618309 224.92483,207.026974 C212.300619,215.224206 199.886496,222.91085 189.706406,228.481773 C184.621688,231.267235 180.084973,233.51785 176.459033,235.024177 C174.648135,235.774973 173.063303,236.340585 171.806918,236.689064 C170.557635,237.044051 169.616086,237.162971 169.274619,237.156169 C168.167367,237.165929 165.236197,236.87484 161.468227,236.312778 C148.129717,234.35976 123.162398,229.373973 101.664193,224.8899 C90.9053262,222.645793 80.9956875,220.527115 73.7751738,218.969907 C69.5805176,218.066466 66.3439805,217.358859 64.3259531,216.922226 L64.3259531,151.797564 C65.3183965,151.523041 66.6179824,151.168054 68.1785508,150.745028 C73.5313535,149.293133 81.6999258,147.116473 89.0263711,145.313141 C92.686043,144.409109 96.1427285,143.604472 98.8880742,143.031761 C100.255717,142.747771 101.451146,142.521171 102.368432,142.375035 C103.268555,142.225941 103.969242,142.172101 103.976344,142.182159 C103.993506,142.178609 104.524939,142.212333 105.249299,142.324746 C108.052641,142.744221 113.797213,144.087846 120.794619,145.918985 C141.882709,151.426011 175.134,161.379836 188.567789,165.45804 C193.215762,166.859054 197.424029,168.971225 200.186537,171.533636 C201.574893,172.813363 202.617639,174.180653 203.318326,175.659173 C204.019014,177.144792 204.414926,178.752881 204.422027,180.718915 C204.418477,184.702457 202.820625,188.262972 200.210801,190.879816 C197.617547,193.462343 194.096355,195.042625 190.166232,195.079899 L177.060891,193.797214 L132.335842,188.056489 C129.552621,187.701502 127.006711,189.663986 126.648082,192.445898 C126.288861,195.228402 128.259545,197.769514 131.038623,198.128642 L175.908662,203.885342 L189.795768,205.245532 L190.046098,205.245532 C203.591145,205.241983 214.57016,194.265796 214.577262,180.72069 C214.583771,177.312819 213.82923,174.107289 212.49177,171.301712 C210.477885,167.074413 207.237797,163.801436 203.574574,161.310022 C199.89774,158.812099 195.747469,157.032433 191.522631,155.746198 C189.166688,155.032083 186.197643,154.131601 182.805463,153.112789 L210.366035,136.233767 C212.153262,135.353992 213.981914,134.856419 215.918273,134.852861 C219.202154,134.849319 222.167648,136.121946 224.409375,138.180277 L210.793313,146.252672 C208.382924,147.681494 207.587549,150.798276 209.019697,153.208044 C210.451846,155.617811 213.566473,156.416531 215.97982,154.985343 L247.586508,136.245008 C249.383795,135.354583 251.222508,134.854052 253.165969,134.854052 C256.669998,134.850502 259.821908,136.309497 262.106836,138.624602 L225.304172,160.445038 C222.890232,161.873859 222.098408,164.990641 223.530557,167.403367 C224.962705,169.813135 228.077332,170.608305 230.49068,169.176525 L270.286652,145.579381 C270.672504,145.514892 271.061906,145.420229 271.441248,145.257527 C272.256744,144.912006 272.92074,144.364144 273.431461,143.713927 L274.673643,142.976146 C276.47093,142.085721 278.309643,141.58519 280.252512,141.58519 C283.74293,141.58874 286.864066,142.990345 289.163197,145.278234 C291.451676,147.576773 292.853051,150.700063 292.857193,154.193132 C292.840031,158.448238 290.890061,162.164356 287.964809,164.154648 Z" id="Shape" fill="url(#linearGradient-1)"></path>
                    <path d="M183.582824,57.947888 C179.089265,54.670169 173.882367,52.8681947 168.713641,51.412617 C168.011037,51.2156929 167.321556,51.0567301 166.618953,50.8728551 L166.618953,19.8027369 C171.610537,20.5459475 175.301888,22.0934627 177.758613,24.0033894 C179.498421,25.3474558 180.696664,26.854044 181.518555,28.5468796 C182.327324,30.2403084 182.760934,32.1502351 182.763916,34.3419057 C182.763916,37.1516333 185.056621,39.4316824 187.881945,39.4316824 C190.707269,39.4316824 192.999987,37.1516333 192.999987,34.3419057 C193.003553,30.7889675 192.269935,27.3113587 190.754984,24.1593865 C188.489715,19.4124476 184.456605,15.5243825 179.212131,12.9928399 C175.585196,11.2347583 171.354069,10.1184595 166.621935,9.56564843 L166.621935,5.08977672 C166.621935,2.27649028 164.329229,0 161.503906,0 C158.675003,0 156.385877,2.27649028 156.385877,5.08977672 L156.385877,9.28390459 C152.677229,9.56861416 149.346723,10.2916578 146.399129,11.4079566 C140.605337,13.586578 136.364667,17.3050036 133.740342,21.4819303 C131.106475,25.6618226 130.007837,30.2053129 130.004259,34.3419057 C129.990541,38.6949964 131.044445,42.6144982 133.0276,45.8073974 C134.750111,48.6034826 137.091128,50.7749862 139.643283,52.4411304 C144.129685,55.3558446 149.254871,56.9235267 154.362165,58.2806423 C155.034349,58.4538406 155.709517,58.6234801 156.382298,58.7895606 L156.382298,92.2120917 C151.403239,91.6658052 147.585443,90.077363 145.023745,87.912384 C141.881116,85.2248443 140.271332,81.8012117 140.236738,77.4309198 C140.236738,74.6176334 137.944033,72.3411431 135.118709,72.3411431 C132.293385,72.3411431 130.000337,74.6176334 130.000337,77.4309198 C129.963104,84.5462865 133.013285,91.1835784 138.411043,95.6825827 C143.041187,99.5777655 149.216699,101.912384 156.381701,102.489514 L156.381701,106.910223 C156.381701,109.719951 158.670828,112 161.499731,112 C164.325054,112 166.61776,109.719951 166.61776,106.910223 L166.61776,102.305639 C172.411552,101.72495 177.822432,100.303775 182.449593,97.4537135 C185.608922,95.4921832 188.348955,92.777952 190.198508,89.3477948 C192.061778,85.9271279 193.003553,81.8830657 192.995799,77.4309198 C193.00236,72.7854086 191.999749,68.6666102 190.09592,65.232301 C188.438421,62.2268356 186.138558,59.8204466 183.582824,57.947888 Z M156.378719,48.2671694 C151.397274,46.9403042 147.102329,45.3868576 144.478004,43.3844003 C143.065641,42.3220777 142.089273,41.2057789 141.389652,39.8451044 C140.696591,38.4743465 140.243299,36.7737999 140.236134,34.3413125 C140.232563,31.2130661 141.389652,27.4667627 144.214379,24.6137355 C145.637479,23.1718002 147.492995,21.885862 150.035011,20.9220014 C151.785555,20.2606448 153.900522,19.7713003 156.378123,19.5174342 L156.378123,48.2671694 L156.378719,48.2671694 Z M181.190514,84.5101046 C180.467036,85.833411 179.535997,86.9230183 178.321054,87.899928 C176.505498,89.3525399 173.987936,90.5228149 170.848886,91.2998348 C169.538514,91.6254713 168.108853,91.8662882 166.61776,92.0531288 L166.61776,61.4165996 C169.74667,62.3152142 172.613148,63.3069525 174.93329,64.5478117 C177.523021,65.9114519 179.389273,67.4589671 180.658492,69.3665212 C181.913993,71.2835656 182.743041,73.6893615 182.760337,77.4285472 C182.75318,80.5063763 182.138849,82.7484642 181.190514,84.5101046 Z" id="Shape" fill="url(#linearGradient-2)"></path>
                </g>
            </g>
        </g>
    </g>
</svg>