<?xml version="1.0" encoding="UTF-8"?>
<svg width="26px" height="48px" viewBox="0 0 26 48" version="1.1" xmlns="http://www.w3.org/2000/svg" xmlns:xlink="http://www.w3.org/1999/xlink">
    <title>dollar-tag</title>
    <defs>
        <linearGradient x1="50%" y1="0%" x2="50%" y2="100%" id="linearGradient-1">
            <stop stop-color="#005E91" offset="0%"></stop>
            <stop stop-color="#003058" offset="100%"></stop>
        </linearGradient>
    </defs>
    <g id="⏹️-Product-Wireframe" stroke="none" stroke-width="1" fill="none" fill-rule="evenodd">
        <g id="sections-/-Tax-Icons-" transform="translate(-583.000000, -806.000000)" fill-rule="nonzero">
            <g id="dollar-tag" transform="translate(583.000000, 806.000000)">
                <path d="M24.935293,16.0843411 L18.4063008,7.82883721 C17.2949829,6.42976744 15.6875411,5.50697674 13.9213395,5.24899225 L13.9213395,0.992248062 C13.9213395,0.446511628 13.4748279,0 12.9290915,0 C12.383355,0 11.9368434,0.446511628 11.9368434,0.992248062 L11.9368434,5.24899225 C10.1706419,5.49705426 8.5632,6.41984496 7.46180465,7.82883721 L0.912967442,16.0942636 C0.347386047,16.8186047 0.0298666667,17.7116279 0.0298666667,18.6344186 L0.0298666667,43.4306977 C0.0397891473,45.6731783 1.86552558,47.4889922 4.1080062,47.4792318 C4.11792868,47.4792318 4.11792868,47.4792318 4.12785116,47.4792318 L21.7204093,47.4792318 C23.9628899,47.4989147 25.7985488,45.6930233 25.8183938,43.4505426 C25.8183938,43.4406202 25.8183938,43.4406202 25.8183938,43.4306977 L25.8183938,18.6344186 C25.8183938,17.7116279 25.5008744,16.8186047 24.935293,16.0843411 Z M12.9290915,14.9234109 C14.5266109,14.9234109 15.8165333,16.2133333 15.8165333,17.8108527 C15.8165333,19.4083721 14.5266109,20.6982946 12.9290915,20.6982946 C11.3315721,20.6982946 10.0416496,19.4083721 10.0416496,17.8108527 C10.0416496,16.2232558 11.3315721,14.9234109 12.9290915,14.9234109 Z M23.8438202,43.4306977 C23.8438202,44.5916279 22.891262,45.4945736 21.7303318,45.4945736 L4.12785116,45.4945736 C2.96692093,45.4945736 2.01436279,44.5916279 2.01436279,43.4306977 L2.01436279,18.6344186 C2.01436279,18.1581395 2.17312248,17.6917829 2.4707969,17.3246512 L9.00971163,9.05922481 C9.74397519,8.13643411 10.7759132,7.49147287 11.9368434,7.26325581 L11.9368434,13.0381395 C9.29746357,13.583876 7.61064186,16.1637209 8.15637829,18.8031008 C8.70211473,21.4424806 11.2819597,23.1293023 13.9213395,22.5835659 C16.5607194,22.0378295 18.2475411,19.4579845 17.7018047,16.8186047 C17.3049054,14.9234109 15.8264558,13.4350388 13.9213395,13.0381395 L13.9213395,7.26325581 C14.3281612,7.34263566 14.7250605,7.48155039 15.1021147,7.66015504 C15.7768434,7.9875969 16.3721922,8.46387597 16.8385488,9.05922481 L23.387386,17.3147287 C23.6850605,17.6917829 23.8438202,18.1581395 23.8438202,18.6344186 L23.8438202,43.4306977 Z" id="Shape" fill="url(#linearGradient-1)"></path>
                <path d="M16.0943628,36.1872868 C15.6577736,34.808062 14.3777736,33.8654264 12.9290915,33.8654264 C12.1948279,33.8654264 11.5994791,33.2700775 11.5994791,32.535814 C11.5994791,31.8015504 12.1948279,31.2062016 12.9290915,31.2062016 C13.663355,31.2062016 14.2587039,31.8015504 14.2587039,32.535814 C14.2587039,33.0815504 14.7052155,33.528062 15.2509519,33.528062 C15.7966884,33.528062 16.2432,33.0815504 16.2432,32.535814 C16.2432,31.0871318 15.3005643,29.8071318 13.9213395,29.3705426 L13.9213395,28.9339535 C13.9213395,28.3882171 13.4748279,27.9417054 12.9290915,27.9417054 C12.383355,27.9417054 11.9368434,28.3882171 11.9368434,28.9339535 L11.9368434,29.3705426 C10.1904868,29.9162791 9.21808372,31.7817054 9.76382016,33.528062 C10.2004093,34.9072868 11.4804093,35.8499225 12.9290915,35.8499225 C13.663355,35.8499225 14.2587039,36.4452713 14.2587039,37.1795349 C14.2587039,37.9137984 13.663355,38.5091473 12.9290915,38.5091473 C12.1948279,38.5091473 11.5994791,37.9137984 11.5994791,37.1795349 C11.5994791,36.6337984 11.1529674,36.1872868 10.607231,36.1872868 C10.0614946,36.1872868 9.61498295,36.6337984 9.61498295,37.1795349 C9.61498295,38.6282171 10.5576186,39.9082171 11.9368434,40.3448062 L11.9368434,40.8409302 C11.9368434,41.3866667 12.383355,41.8331783 12.9290915,41.8331783 C13.4748279,41.8331783 13.9213395,41.3866667 13.9213395,40.8409302 L13.9213395,40.3448062 C15.6676961,39.7990698 16.6400992,37.9336434 16.0943628,36.1872868 Z" id="Path" fill="#B03478"></path>
            </g>
        </g>
    </g>
</svg>