<?xml version="1.0" encoding="UTF-8"?>
<svg width="1920px" height="1080px" viewBox="0 0 1920 1080" version="1.1" xmlns="http://www.w3.org/2000/svg" xmlns:xlink="http://www.w3.org/1999/xlink">
    <!-- Generator: Sketch 61 (89581) - https://sketch.com -->
    <title>ElasticPath</title>
    <desc>Created with Sketch.</desc>
    <g id="ElasticPath" stroke="none" stroke-width="1" fill="none" fill-rule="evenodd">
        <g transform="translate(0.000000, 356.000000)">
            <path d="M121.888939,208.570679 C109.720095,208.570679 98.7499141,201.238899 94.0934573,189.996204 C89.4370006,178.753509 92.0112064,165.812876 100.615801,157.208126 L160.375621,97.448307 C164.771458,93.0519708 164.771054,85.9245057 160.374718,81.5286682 C155.978382,77.1328306 148.850917,77.1332349 144.455079,81.5295711 L84.0668172,141.923251 C72.3174889,153.674573 53.2664471,153.676191 41.5151242,141.926862 C29.7638012,130.177534 29.7621842,111.126492 41.5115124,99.3751693 L101.906998,38.979684 C115.398646,25.489842 133.32912,18.05843 152.41535,18.05843 C171.370315,18.0073425 189.558178,25.5406423 202.925508,38.979684 C230.773815,66.8316027 230.773815,112.146275 202.925508,139.996388 L143.163883,199.758014 C137.527312,205.409328 129.87068,208.580907 121.888939,208.570679 Z" id="Path" fill="#0033CC" fill-rule="nonzero"></path>
            <g id="Group" stroke-linecap="round" transform="translate(0.093905, 0.140858)"></g>
            <path d="M319.862754,155.91693 C306.3693,142.427088 288.440632,134.995937 269.352596,134.995937 C250.26456,134.995937 232.33228,142.427088 218.844244,155.91693 L153.067269,221.693905 L131.140406,243.620767 L58.0623025,316.709707 C46.6421597,328.512361 46.796417,347.292338 58.4088978,358.905804 C70.0213787,370.519271 88.8013418,370.675123 100.604966,359.255982 L123.810384,336.048758 C126.026663,339.098484 128.477436,341.9707 131.140406,344.639278 C144.63386,358.12912 162.562528,365.558465 181.648758,365.558465 C200.603463,365.610291 218.791289,358.077657 232.158916,344.639278 L319.862754,256.93544 C333.352596,243.443792 340.784008,225.513318 340.784008,206.427088 C340.835095,187.472123 333.301796,169.28426 319.862754,155.91693 Z M277.312867,214.385553 L189.609029,302.082167 C186.765098,304.925775 182.620151,306.036159 178.735548,304.995047 C174.850946,303.953934 171.816852,300.919496 170.77618,297.034776 C169.735509,293.150055 170.846362,289.005234 173.690293,286.161625 L195.61535,264.236569 L261.392325,198.459594 C264.235933,195.615663 268.380755,194.504809 272.265476,195.54548 C276.150196,196.586152 279.184634,199.620246 280.225747,203.504849 C281.266859,207.389451 280.156475,211.534399 277.312867,214.37833 L277.312867,214.385553 Z" id="Shape" fill="#0033CC" fill-rule="nonzero"></path>
            <path d="M277.542212,155.689391 C261.40316,139.55395 235.218059,139.55395 219.073589,155.689391 L219.073589,155.689391 L161.367043,213.38149 L161.397743,213.413995 C161.052822,213.728217 160.709707,214.051467 160.375621,214.385553 C139.83362,234.927055 106.528861,234.926651 85.9873589,214.38465 C65.445857,193.842649 65.4462612,160.53789 85.9882619,139.996388 C86.3223476,139.662302 86.6437923,139.320993 86.9598194,138.974266 L86.9851016,138.999549 L144.707901,81.323702 C149.154091,77.3443031 155.934694,77.5319875 160.153949,81.7512425 C164.373204,85.9704975 164.560889,92.7511008 160.58149,97.1972912 L160.60316,97.2189616 C176.749436,81.0744921 176.749436,54.896614 160.60316,38.7503386 C144.456885,22.6040632 118.280813,22.6058691 102.134537,38.7503386 L102.134537,38.7503386 L44.4352144,96.4514673 L44.4604966,96.4767494 C44.1155756,96.7909707 43.7724605,97.1142212 43.4383747,97.448307 C-0.164334086,141.051016 -0.503837472,211.759819 42.3711061,255.810384 C42.7142212,256.192024 43.0699774,256.566441 43.4383747,256.933634 C64.7440181,278.244695 93.0582393,289.964786 123.181941,289.964786 C153.305643,289.964786 181.625282,278.226637 202.925508,256.933634 C203.259594,256.599549 203.581038,256.258239 203.897065,255.911512 L203.915124,255.931377 L261.637923,198.25553 L261.637923,198.25553 C266.084114,194.276132 272.864717,194.463816 277.083972,198.683071 C281.303227,202.902326 281.490911,209.682929 277.511512,214.12912 L277.533183,214.15079 C293.688488,198.013544 293.688488,171.835666 277.542212,155.689391 Z" id="Path" fill="#0033CC" fill-rule="nonzero"></path>
            <path d="M498.954402,233.02754 C510.78465,233.02754 520.879458,228.409932 526.651016,222.062302 L561.271332,241.972009 C547.134989,261.587359 525.784199,271.685779 498.376524,271.685779 C449.043792,271.685779 418.463205,238.508352 418.463205,195.521445 C418.463205,152.534537 449.62167,119.357111 495.212641,119.357111 C537.334537,119.357111 568.493717,151.956659 568.493717,195.521445 C568.516992,201.336121 567.937209,207.137576 566.76298,212.832506 L464.334086,212.832506 C469.814898,227.83386 483.08623,233.02754 498.954402,233.02754 Z M525.500677,180.518284 C520.88307,163.786907 507.900677,157.726411 494.92009,157.726411 C478.474041,157.726411 467.512415,165.805869 463.47088,180.518284 L525.500677,180.518284 Z" id="Shape" fill="#333333" fill-rule="nonzero"></path>
            <polygon id="Path" fill="#333333" fill-rule="nonzero" points="593.007675 57.0383747 636.283521 57.0383747 636.283521 267.647856 593.007675 267.647856"></polygon>
            <path d="M816.019865,123.395034 L816.019865,267.647856 L772.744018,267.647856 L772.744018,254.089391 C763.223476,265.051016 749.087133,271.685779 729.764334,271.685779 C691.971106,271.685779 660.812641,238.508352 660.812641,195.521445 C660.812641,152.534537 691.971106,119.357111 729.764334,119.357111 C749.087133,119.357111 763.228894,125.993679 772.744018,136.955305 L772.744018,123.395034 L816.019865,123.395034 Z M772.744018,195.521445 C772.744018,173.883521 758.320542,160.323251 738.412641,160.323251 C718.50474,160.323251 704.08307,173.883521 704.08307,195.521445 C704.08307,217.159368 718.506546,230.719639 738.412641,230.719639 C758.318736,230.719639 772.744018,217.159368 772.744018,195.521445 L772.744018,195.521445 Z" id="Shape" fill="#333333" fill-rule="nonzero"></path>
            <path d="M958.25553,224.372009 C958.25553,257.549436 929.404966,271.685779 898.246501,271.685779 C869.395937,271.685779 847.47088,260.724153 836.21851,237.354402 L873.724605,216.005418 C877.475395,226.968849 885.553047,233.02754 898.246501,233.02754 C908.63386,233.02754 913.825734,229.854628 913.825734,224.084876 C913.825734,208.216704 842.855079,216.583296 842.855079,166.67088 C842.855079,135.223476 869.401354,119.357111 899.402257,119.357111 C922.772009,119.357111 943.544921,129.742664 955.662302,150.226637 L918.739503,170.132731 C914.699774,162.631151 908.930023,157.439278 899.416704,157.439278 C891.91693,157.439278 887.299323,160.328668 887.299323,165.518736 C887.28307,181.961174 958.25553,170.997743 958.25553,224.372009 Z" id="Path" fill="#333333" fill-rule="nonzero"></path>
            <path d="M1080.29436,84.7367946 C1080.29436,70.6004515 1092.1228,58.7702032 1106.25914,58.7702032 C1120.39549,58.7702032 1132.22573,70.6004515 1132.22573,84.7367946 C1132.22573,98.8731377 1120.39549,110.699774 1106.25914,110.699774 C1092.1228,110.699774 1080.29436,98.8731377 1080.29436,84.7367946 Z M1084.62844,123.395034 L1127.90429,123.395034 L1127.90429,267.647856 L1084.62122,267.647856 L1084.62844,123.395034 Z" id="Shape" fill="#333333" fill-rule="nonzero"></path>
            <path d="M1152.41896,195.521445 C1152.41896,152.541761 1185.02032,119.357111 1228.87404,119.357111 C1256.86501,119.357111 1281.67043,134.069526 1294.07494,156.285327 L1256.28352,178.21219 C1251.37698,168.11377 1240.99142,162.055079 1228.29255,162.055079 C1209.5386,162.055079 1195.6912,175.613544 1195.6912,195.521445 C1195.6912,215.429345 1209.5386,228.98781 1228.29255,228.98781 C1240.986,228.98781 1251.6605,222.92912 1256.28352,212.832506 L1294.07675,234.470429 C1281.67223,256.973363 1257.14673,271.685779 1228.87585,271.685779 C1185.02212,271.685779 1152.41896,238.515576 1152.41896,195.521445 Z" id="Path" fill="#333333" fill-rule="nonzero"></path>
            <path d="M1468.04515,195.521445 C1468.04515,238.501129 1436.88668,271.685779 1399.09165,271.685779 C1379.76885,271.685779 1365.62709,265.051016 1356.11196,254.089391 L1356.11196,325.348984 L1312.8307,325.348984 L1312.8307,123.395034 L1356.10474,123.395034 L1356.10474,136.955305 C1365.62709,125.993679 1379.76163,119.357111 1399.08442,119.357111 C1436.88668,119.357111 1468.04515,152.534537 1468.04515,195.521445 Z M1424.7693,195.521445 C1424.7693,173.883521 1410.34402,160.321445 1390.43251,160.321445 C1370.52099,160.321445 1356.09932,173.881716 1356.09932,195.519639 C1356.09932,217.157562 1370.52641,230.717833 1390.43251,230.717833 C1410.3386,230.717833 1424.7693,217.159368 1424.7693,195.521445 L1424.7693,195.521445 Z" id="Shape" fill="#333333" fill-rule="nonzero"></path>
            <path d="M1640.56885,123.395034 L1640.56885,267.647856 L1597.293,267.647856 L1597.293,254.089391 C1587.77246,265.051016 1573.63612,271.685779 1554.31332,271.685779 C1516.52009,271.685779 1485.36163,238.508352 1485.36163,195.521445 C1485.36163,152.534537 1516.52009,119.357111 1554.31332,119.357111 C1573.63612,119.357111 1587.77788,125.993679 1597.293,136.955305 L1597.293,123.395034 L1640.56885,123.395034 Z M1597.293,195.521445 C1597.293,173.883521 1582.86953,160.323251 1562.96163,160.323251 C1543.05372,160.323251 1528.63205,173.883521 1528.63205,195.521445 C1528.63205,217.159368 1543.05553,230.719639 1562.96163,230.719639 C1582.86772,230.719639 1597.293,217.159368 1597.293,195.521445 Z" id="Shape" fill="#333333" fill-rule="nonzero"></path>
            <path d="M1727.12054,164.940858 L1727.12054,216.005418 C1727.12054,228.409932 1737.79503,229.563883 1756.83792,228.409932 L1756.83792,267.647856 C1700.29074,273.426637 1683.8447,256.395485 1683.8447,216 L1683.8447,164.940858 L1660.77111,164.940858 L1660.77111,123.395034 L1683.85011,123.395034 L1683.85011,101.218962 L1727.12054,88.0866817 L1727.12054,123.395034 L1756.84334,123.395034 L1756.84334,164.940858 L1727.12054,164.940858 Z" id="Path" fill="#333333" fill-rule="nonzero"></path>
            <path d="M1030.44876,164.940858 L1030.44876,216.005418 C1030.44876,228.409932 1041.12506,229.563883 1060.16614,228.409932 L1060.16614,267.647856 C1003.61896,273.426637 987.172912,256.395485 987.172912,216 L987.172912,164.940858 L964.093905,164.940858 L964.093905,123.395034 L987.181941,123.395034 L987.181941,101.218962 L1030.44876,88.0866817 L1030.44876,123.395034 L1060.16614,123.395034 L1060.16614,164.940858 L1030.44876,164.940858 Z" id="Path" fill="#333333" fill-rule="nonzero"></path>
            <path d="M1919.83928,179.077201 L1919.83928,267.647856 L1876.57246,267.647856 L1876.57246,185.423025 C1876.57246,167.544921 1865.3237,159.1693 1851.47088,159.1693 C1835.60271,159.1693 1824.63928,168.400903 1824.63928,188.88307 L1824.63928,267.647856 L1781.35982,267.647856 L1781.35982,71.6316027 L1824.63386,58.4920993 L1824.63386,136.955305 C1832.42438,126.280813 1846.84605,119.357111 1865.89074,119.357111 C1895.02844,119.357111 1919.83928,140.130023 1919.83928,179.077201 Z" id="Path" fill="#333333" fill-rule="nonzero"></path>
        </g>
    </g>
</svg>