<?xml version="1.0" encoding="UTF-8" standalone="no"?><svg width="238" height="285" viewBox="0 0 238 285" fill="none" xmlns="http://www.w3.org/2000/svg">
<path fill-rule="evenodd" clip-rule="evenodd" d="M135.501 190.024C135.907 191.394 135.872 192.856 135.401 194.204C134.781 195.184 135.041 195.464 135.681 195.804C136.29 196.282 136.62 197.033 136.561 197.804C136.561 198.504 137.021 198.424 137.101 199.944C137.078 201.088 137.422 202.21 138.081 203.144C138.441 203.679 138.487 204.366 138.201 204.944C138.91 205.5 139.69 205.957 140.521 206.304C142.381 206.964 143.061 207.484 143.181 208.164C143.301 208.844 144.921 210.024 145.321 209.084C145.721 208.144 146.761 208.684 147.561 208.684C148.361 208.684 148.501 209.624 148.621 210.144C148.741 210.664 150.621 210.424 151.281 210.804C151.941 211.184 152.221 212.664 153.141 213.204C154.061 213.744 154.861 212.544 155.541 212.944C156.611 213.485 157.837 213.626 159.001 213.344C160.041 212.944 160.721 213.724 162.041 213.604C163.25 213.497 164.462 213.777 165.501 214.404C166.252 214.721 167.049 214.91 167.861 214.964C168.121 214.424 167.601 212.744 167.681 212.324C167.761 211.904 170.901 209.124 171.421 208.484C171.941 207.844 172.761 207.864 173.221 207.064C173.681 206.264 171.961 203.684 171.601 203.064C171.204 201.921 171.114 200.693 171.341 199.504C171.601 198.604 170.001 198.064 170.001 197.504C170.001 196.944 171.521 195.804 172.321 195.504C173.121 195.204 172.861 192.644 172.141 192.024C171.331 191.234 171.085 190.029 171.521 188.984C171.961 187.744 168.841 186.764 168.401 186.764C168.401 186.764 168.281 186.764 168.241 186.564C164.757 186.845 161.25 186.698 157.801 186.124L155.801 185.384C155.327 186.133 154.487 186.568 153.601 186.524C151.881 186.524 151.761 184.804 151.601 184.024C151.441 183.244 144.641 184.684 142.801 186.524C140.961 188.364 136.681 187.644 136.561 188.664C136.441 189.684 135.841 189.764 135.421 189.564C135.404 189.722 135.432 189.882 135.501 190.024Z" fill="#294F6E" stroke="#002F57" stroke-width="0.75"/>
<path fill-rule="evenodd" clip-rule="evenodd" d="M151.241 247.384C151.771 245.614 152.832 244.05 154.281 242.904C154.821 242.904 155.021 239.384 154.781 237.544C153.669 236.76 152.45 236.14 151.161 235.704C149.077 235.633 146.999 235.426 144.941 235.084C144.061 234.724 143.181 236.244 142.381 235.624C142.014 235.372 141.534 235.356 141.151 235.584C140.769 235.812 140.554 236.241 140.601 236.684C140.781 237.564 142.461 238.104 142.461 239.444C142.461 240.784 145.841 242.724 145.741 243.444C145.641 244.164 147.741 245.304 149.021 247.124C149.713 247.596 150.381 248.104 151.021 248.644C151.165 248.24 151.24 247.814 151.241 247.384Z" fill="#294F6E" stroke="#002F57" stroke-width="0.75"/>
<path fill-rule="evenodd" clip-rule="evenodd" d="M145.741 243.424C145.841 242.724 142.461 240.764 142.461 239.424C142.461 238.084 140.781 237.544 140.601 236.664C140.554 236.221 140.769 235.791 141.152 235.563C141.534 235.335 142.014 235.351 142.381 235.604C143.181 236.224 144.061 234.704 144.941 235.064C146.999 235.406 149.077 235.613 151.161 235.684C152.45 236.12 153.669 236.74 154.781 237.524C154.759 237.23 154.699 236.941 154.601 236.664C154.121 235.544 154.601 234.264 153.321 233.784C152.661 233.544 152.401 232.404 152.281 231.344L150.881 231.764C149.437 232.124 147.907 231.775 146.761 230.824C145.782 229.83 144.656 228.994 143.421 228.344C142.723 229.016 141.91 229.558 141.021 229.944C140.301 229.944 140.761 231.944 140.041 231.944C139.321 231.944 138.801 233.204 138.621 233.724C138.441 234.244 136.841 233.364 136.121 233.724C135.186 233.96 134.238 234.141 133.281 234.264C133.401 235.084 133.281 235.984 134.001 235.984C135.081 235.984 137.041 235.864 137.101 237.284C137.161 238.704 139.721 241.864 140.661 242.944C141.601 244.024 143.761 243.764 143.881 244.664C144.001 245.564 145.541 246.384 147.321 246.504C147.932 246.612 148.511 246.851 149.021 247.204C147.741 245.284 145.741 243.924 145.741 243.424Z" fill="#294F6E" stroke="#002F57" stroke-width="0.75"/>
<path fill-rule="evenodd" clip-rule="evenodd" d="M158.941 260.544C159.841 260.364 159.301 259.664 159.921 259.044C160.542 258.368 161.031 257.581 161.361 256.724C161.361 256.724 161.361 256.724 161.361 256.604C160.141 255.704 159.361 255.044 159.041 254.104C158.851 252.704 158.995 251.278 159.461 249.944C158.419 249.091 157.243 248.415 155.981 247.944C155.321 247.944 154.301 249.404 153.981 250.824C155.541 251.644 156.141 252.244 155.061 253.324C153.981 254.404 153.701 258.244 154.941 259.324C156.181 260.404 156.481 262.204 157.621 262.744C158.121 261.764 158.361 260.744 158.941 260.544Z" fill="#294F6E" stroke="#002F57" stroke-width="0.75"/>
<path fill-rule="evenodd" clip-rule="evenodd" d="M141.981 216.744C140.915 215.944 139.613 215.522 138.281 215.544C138.132 216.19 137.904 216.814 137.601 217.404C137.281 217.964 135.341 217.944 134.101 217.624C133.761 218.064 132.101 218.424 131.921 219.104C131.741 219.784 129.701 219.464 130.321 221.584C130.941 223.704 129.341 223.024 128.721 222.744C127.304 222.547 125.861 222.829 124.621 223.544C123.982 224.133 123.023 224.207 122.301 223.724C121.681 223.384 120.421 223.204 119.881 224.084C119.341 224.964 118.381 223.384 117.561 223.464C116.741 223.544 117.121 225.244 117.121 225.604C117.121 225.964 118.381 227.024 119.121 226.684C119.99 226.455 120.916 226.647 121.621 227.204C122.321 227.664 123.621 226.864 124.101 226.404C124.581 225.944 127.061 225.964 127.321 225.964C127.581 225.964 127.681 227.384 128.121 227.664C129.311 228.007 130.543 228.182 131.781 228.184C133.301 228.284 135.521 229.004 136.241 229.004C136.961 229.004 138.101 227.744 139.721 227.744C141.341 227.744 142.201 226.764 142.481 226.864C142.481 226.364 142.781 225.964 143.121 225.924C143.781 225.824 143.301 224.704 143.781 224.144C144.261 223.584 143.401 222.484 144.241 222.564C145.081 222.644 146.001 222.764 146.001 221.544C146.025 221.13 146.221 220.746 146.541 220.484C145.878 219.44 145.347 218.318 144.961 217.144C144.961 217.144 143.061 217.824 141.981 216.744Z" fill="#294F6E" stroke="#002F57" stroke-width="0.75"/>
<path fill-rule="evenodd" clip-rule="evenodd" d="M167.741 219.983C167.386 219.855 167.06 219.658 166.781 219.403C165.892 219.266 165.037 218.961 164.261 218.503C163.101 217.89 161.842 217.484 160.541 217.303C160.141 217.163 157.621 219.683 156.821 219.683C156.021 219.683 152.581 220.083 152.581 221.023C152.581 221.963 148.321 222.083 147.121 221.023C146.927 220.823 146.746 220.609 146.581 220.383C146.261 220.646 146.065 221.03 146.041 221.443C146.041 222.663 145.121 222.563 144.281 222.463C143.441 222.363 144.281 223.503 143.821 224.043C143.361 224.583 143.821 225.723 143.161 225.823C142.821 225.823 142.621 226.263 142.521 226.763C142.908 227.217 143.231 227.722 143.481 228.263L143.381 228.363C144.616 229.013 145.742 229.85 146.721 230.843C147.867 231.794 149.397 232.143 150.841 231.783C151.901 231.503 156.421 230.043 156.421 230.043C156.99 230.259 157.571 230.439 158.161 230.583L159.281 230.763C160.127 230.273 160.924 229.704 161.661 229.063C162.921 227.823 164.801 223.363 165.321 223.063C165.841 222.763 167.321 221.903 168.001 221.383C168.681 220.863 168.581 220.243 167.741 219.983Z" fill="#294F6E" stroke="#002F57" stroke-width="0.75"/>
<path fill-rule="evenodd" clip-rule="evenodd" d="M151.281 210.744C150.621 210.364 148.761 210.624 148.621 210.084C148.481 209.544 148.361 208.624 147.561 208.624C146.761 208.624 145.701 208.104 145.321 209.024C144.941 209.944 143.321 208.764 143.181 208.104C143.041 207.444 142.381 206.904 140.521 206.244C139.69 205.897 138.91 205.44 138.201 204.884C138.146 205.029 138.079 205.17 138.001 205.304C137.641 205.844 136.381 204.864 135.841 205.304C135.301 205.744 133.541 205.924 132.561 206.824C131.292 207.652 129.859 208.197 128.361 208.424C127.201 208.684 128.181 209.764 128.621 210.564C129.061 211.364 129.081 213.324 129.961 213.944C131.45 214.858 132.855 215.902 134.161 217.064C134.228 217.16 134.228 217.288 134.161 217.384C135.401 217.704 137.341 217.724 137.661 217.164C137.964 216.574 138.192 215.95 138.341 215.304C139.673 215.282 140.975 215.704 142.041 216.504C143.121 217.684 145.101 216.904 145.101 216.904L145.401 217.704C145.681 217.044 146.061 216.464 146.521 216.404C148.034 216.36 149.443 215.623 150.341 214.404C150.966 213.574 151.764 212.892 152.681 212.404C152.081 212.044 151.741 211.104 151.281 210.744Z" fill="#294F6E" stroke="#002F57" stroke-width="0.75"/>
<path fill-rule="evenodd" clip-rule="evenodd" d="M162.041 213.584C160.721 213.704 160.041 212.924 159.001 213.324C157.837 213.606 156.61 213.464 155.541 212.924C154.861 212.524 154.081 213.704 153.141 213.184C152.936 213.062 152.759 212.899 152.621 212.704C151.704 213.192 150.906 213.875 150.281 214.704C149.383 215.923 147.974 216.661 146.461 216.704C146.001 216.704 145.621 217.344 145.341 218.004C145.728 219.175 146.347 220.257 147.161 221.184C148.361 222.244 152.621 222.104 152.621 221.184C152.621 220.264 156.061 219.844 156.861 219.844C157.661 219.844 160.181 217.324 160.581 217.464C161.881 217.644 163.14 218.05 164.301 218.664C165.076 219.122 165.931 219.427 166.821 219.564C166.38 219.223 166.081 218.732 165.981 218.184C166.323 217.062 166.942 216.044 167.781 215.224V215.104C166.969 215.05 166.171 214.86 165.421 214.544C164.423 213.877 163.24 213.542 162.041 213.584Z" fill="#294F6E" stroke="#002F57" stroke-width="0.75"/>
<path fill-rule="evenodd" clip-rule="evenodd" d="M49.4812 270.604C51.0612 270.304 49.0412 269.004 48.6012 268.604C48.1612 268.204 48.7412 266.444 49.6212 266.444C50.5012 266.444 49.6212 265.424 48.4612 264.264C47.3012 263.104 48.4613 262.684 49.4812 262.684C50.5012 262.684 49.1812 260.944 50.2012 259.924C51.2212 258.904 49.9012 257.044 49.9012 256.164C49.9012 255.284 51.3413 255.024 52.5013 253.864C53.6613 252.704 51.5013 253.144 51.5013 252.264C51.5013 251.384 50.0412 251.104 49.0412 251.824C48.0412 252.544 48.3012 251.824 47.4412 251.824C46.5812 251.824 44.9812 252.124 44.9812 251.244C44.9812 250.364 44.2612 250.244 43.5412 251.104C43.2525 251.388 42.8665 251.553 42.4612 251.564C42.2609 252.465 42.3023 253.403 42.5812 254.284C43.3412 255.544 41.6212 262.144 40.0812 263.924C38.5412 265.704 40.0812 266.184 41.6212 267.424C43.1612 268.664 42.1612 273.204 42.1612 274.264C42.1612 275.324 43.5812 275.044 45.2612 275.044C46.3432 274.915 47.4132 274.701 48.4612 274.404C48.1684 274.022 47.9697 273.577 47.8812 273.104C47.8812 272.184 47.8812 270.884 49.4812 270.604Z" fill="#294F6E" stroke="#002F57" stroke-width="0.75"/>
<path fill-rule="evenodd" clip-rule="evenodd" d="M96.1809 202.904C97.04 202.285 98.2325 202.443 98.9009 203.264C99.6409 204.004 100.721 204.184 101.821 205.264C102.095 205.539 102.389 205.793 102.701 206.024C102.739 204.983 102.894 203.95 103.161 202.944C103.521 202.124 102.801 201.044 103.401 201.044C104.001 201.044 105.661 201.044 105.661 199.984C105.661 198.924 106.121 199.264 106.481 198.664C106.841 198.064 105.421 196.884 105.181 196.524C104.941 196.164 106.241 196.044 107.181 194.524C107.46 193.631 107.418 192.668 107.061 191.804C106.901 192.224 106.581 192.524 106.041 192.204C105.161 191.664 103.781 191.964 102.041 192.324C100.301 192.684 99.7209 194.324 100.381 195.124C101.041 195.924 98.6609 196.184 98.4809 195.244C98.3009 194.304 96.4809 194.944 96.6409 196.184C96.8009 197.424 94.6409 197.904 94.8009 199.464C94.9609 201.024 92.8009 202.424 91.5809 203.204L90.9609 203.564C91.4025 203.814 91.8823 203.99 92.3809 204.084C93.7362 204.073 95.0581 203.663 96.1809 202.904Z" fill="#294F6E" stroke="#002F57" stroke-width="0.75"/>
<path fill-rule="evenodd" clip-rule="evenodd" d="M102.941 209.824C101.823 210.565 101.269 211.911 101.541 213.224C102.437 213.207 103.331 213.308 104.201 213.524C104.129 212.312 103.682 211.151 102.921 210.204C102.867 210.082 102.874 209.94 102.941 209.824Z" fill="#294F6E" stroke="#002F57" stroke-width="0.75"/>
<path fill-rule="evenodd" clip-rule="evenodd" d="M88.7611 205.344C88.8611 205.984 89.8411 207.484 90.2011 206.864C90.5611 206.244 91.4411 207.664 92.2011 208.124C92.9611 208.584 94.6211 209.104 94.7011 209.624C94.7811 210.144 95.0611 211.324 95.8611 210.964C96.6611 210.604 97.6411 209.364 97.6411 210.084C97.6411 210.804 97.9211 212.084 98.8011 211.944C99.6811 211.804 99.9611 213.464 100.801 213.284H101.441C101.169 211.971 101.723 210.625 102.841 209.884C103.021 209.524 103.561 209.144 103.641 208.704C103.721 208.264 102.461 206.924 102.581 206.224C102.571 206.178 102.571 206.13 102.581 206.084C102.269 205.853 101.975 205.599 101.701 205.324C100.601 204.244 99.5211 204.064 98.7811 203.324C98.1126 202.503 96.9201 202.345 96.0611 202.964C94.944 203.763 93.6136 204.208 92.2411 204.244C91.7424 204.15 91.2627 203.974 90.8211 203.724C89.9897 204.254 89.0779 204.646 88.1211 204.884C88.4411 205.064 88.7011 204.944 88.7611 205.344Z" fill="#294F6E" stroke="#002F57" stroke-width="0.75"/>
<path fill-rule="evenodd" clip-rule="evenodd" d="M191.741 234.744C190.901 234.624 189.741 234.284 190.181 233.804L190.301 233.664C189.2 232.425 188.927 230.657 189.601 229.144C190.501 228.224 188.141 224.764 187.061 223.504C186.068 222.055 185.179 220.538 184.401 218.964C183.676 219.124 182.994 219.438 182.401 219.884C181.843 220.575 181.026 221.009 180.141 221.084C179.421 221.084 178.721 220.724 178.141 221.324C177.561 221.924 176.721 222.144 176.361 221.784C175.648 221.334 174.824 221.092 173.981 221.084C173.141 221.084 170.521 220.364 169.981 220.364C169.459 220.382 168.938 220.429 168.421 220.504C168.561 220.764 168.421 221.064 168.041 221.384C167.661 221.704 165.901 222.704 165.361 223.064C164.821 223.424 162.961 227.884 161.701 229.064C160.441 230.244 159.301 230.504 159.221 230.944C159.141 231.384 160.641 232.544 160.641 233.264C160.599 233.638 160.724 234.011 160.982 234.284C161.24 234.558 161.605 234.704 161.981 234.684C162.961 234.684 161.881 237.004 162.521 237.184C163.161 237.364 166.961 237.624 166.961 238.524C166.961 239.424 167.401 239.804 167.201 240.284C168.281 240.464 169.081 241.924 169.501 241.824C169.921 241.724 173.181 242.424 173.781 242.304C175.208 242.228 176.64 242.269 178.061 242.424C179.146 242.476 180.198 242.035 180.921 241.224C182.392 240.488 184.048 240.203 185.681 240.404C186.621 240.524 188.521 240.764 188.881 241.344C189.603 241.898 190.435 242.293 191.321 242.504C191.366 241.838 191.366 241.17 191.321 240.504C191.321 239.244 192.081 237.344 193.321 237.224C194.561 237.104 195.581 237.104 195.321 235.024C195.331 234.964 195.331 234.903 195.321 234.844C194.916 234.432 194.442 234.093 193.921 233.844C193.521 233.744 192.081 234.744 191.741 234.744Z" fill="#294F6E" stroke="#002F57" stroke-width="0.75"/>
<path fill-rule="evenodd" clip-rule="evenodd" d="M193.401 222.084C192.981 220.848 191.845 219.998 190.541 219.944C189.701 219.944 188.281 218.044 187.341 218.164C186.345 218.338 185.362 218.585 184.401 218.904C185.179 220.478 186.068 221.995 187.061 223.444C188.141 224.704 190.501 228.164 189.601 229.084C188.927 230.597 189.201 232.365 190.301 233.604C191.23 232.538 191.992 231.338 192.561 230.044C192.561 229.344 192.681 227.904 194.101 228.264C195.521 228.624 196.841 229.224 196.841 228.744C196.773 227.801 196.448 226.895 195.901 226.124C194.81 224.955 193.96 223.582 193.401 222.084Z" fill="#294F6E" stroke="#002F57" stroke-width="0.75"/>
<path fill-rule="evenodd" clip-rule="evenodd" d="M185.741 240.404C184.108 240.203 182.453 240.488 180.981 241.224C180.258 242.035 179.207 242.476 178.121 242.424C176.7 242.269 175.269 242.229 173.841 242.304C173.241 242.424 170.041 241.704 169.561 241.824C169.081 241.944 168.341 240.464 167.261 240.284C167.205 240.446 167.091 240.581 166.941 240.664C166.533 241.006 166.297 241.511 166.297 242.044C166.297 242.577 166.533 243.082 166.941 243.424C167.841 244.224 168.941 246.024 168.181 246.024C167.404 246.154 166.841 246.836 166.861 247.624C166.861 248.164 166.581 249.324 166.861 249.624C167.141 249.924 169.001 251.624 169.081 252.204C169.161 252.784 169.921 252.924 169.861 253.344C171.653 253.097 173.47 253.097 175.261 253.344C176.657 253.739 178.093 253.974 179.541 254.044C180.501 254.044 181.321 253.704 181.101 253.104C180.881 252.504 182.121 252.264 183.101 252.184C182.941 251.624 182.841 251.184 183.101 251.084C184.412 250.737 185.79 250.737 187.101 251.084C187.656 251.278 188.272 251.164 188.721 250.784C188.581 250.284 188.441 249.884 188.161 249.824C187.501 249.704 186.501 246.984 187.341 246.804C188.181 246.624 189.341 243.764 190.541 243.344C190.962 243.24 191.287 242.907 191.381 242.484C190.495 242.274 189.664 241.879 188.941 241.324C188.521 240.744 186.621 240.524 185.741 240.404Z" fill="#294F6E" stroke="#002F57" stroke-width="0.75"/>
<path fill-rule="evenodd" clip-rule="evenodd" d="M161.441 256.604H161.601H163.741C163.875 256.613 164.008 256.613 164.141 256.604C165.201 256.324 165.481 255.184 166.001 255.444C167.393 255.239 168.697 254.642 169.761 253.724C169.779 253.665 169.779 253.602 169.761 253.544C169.761 253.124 169.061 252.884 168.981 252.404C168.901 251.924 166.981 250.084 166.761 249.824C166.736 249.732 166.736 249.635 166.761 249.544C166.742 249.398 166.742 249.25 166.761 249.104C163.961 249.504 159.821 250.363 159.821 250.363L159.581 250.204C159.115 251.538 158.971 252.963 159.161 254.363C159.381 255.043 160.221 255.704 161.441 256.604Z" fill="#294F6E" stroke="#002F57" stroke-width="0.75"/>
<path fill-rule="evenodd" clip-rule="evenodd" d="M229.741 223.364C230.381 223.364 232.241 221.224 232.861 221.224C233.481 221.224 236.161 221.764 236.161 221.324C236.161 220.884 237.061 219.324 236.881 218.904C236.701 218.484 235.821 217.844 236.001 217.384C236.181 216.924 237.421 216.944 237.421 216.404C237.421 215.864 236.441 215.604 236.441 215.244C236.441 214.884 237.681 214.264 237.601 213.564C237.521 212.864 236.441 212.764 235.281 212.124C234.121 211.484 232.961 211.764 231.881 211.244C230.801 210.724 228.581 211.064 228.581 210.704C228.581 210.344 227.161 209.184 226.801 208.564C226.441 207.944 225.281 208.304 224.581 208.744C224.015 209.21 223.221 209.282 222.581 208.924C221.881 208.464 221.241 207.764 220.581 208.024C219.921 208.284 218.801 208.024 219.061 207.224C219.321 206.424 217.901 204.364 217.281 204.104C216.661 203.844 214.781 204.284 214.341 203.384C213.901 202.484 213.101 201.784 213.461 201.164C213.658 200.119 213.466 199.038 212.921 198.124C212.461 197.424 210.241 197.504 209.621 197.784C209.001 198.064 207.621 197.504 206.941 197.784C206.261 198.064 205.961 198.764 205.061 198.764C204.637 198.83 204.212 198.652 203.961 198.304C203.132 198.606 202.263 198.782 201.381 198.824C201.381 198.824 199.001 200.824 199.001 201.444C199.001 202.064 198.881 203.444 198.281 202.744C197.133 202.188 195.812 202.102 194.601 202.504C194.021 202.864 193.061 201.084 191.981 201.684C190.901 202.284 189.501 200.844 189.381 201.444C189.261 202.044 187.701 201.564 186.641 201.084C185.581 200.604 183.661 201.324 182.961 200.484C182.261 199.644 177.601 199.664 176.061 199.664C174.521 199.664 174.161 200.484 173.441 201.204C172.835 201.691 172.037 201.869 171.281 201.684C171.318 202.153 171.433 202.613 171.621 203.044C171.981 203.584 173.621 206.164 173.241 207.044C172.861 207.924 171.981 207.844 171.441 208.464C170.901 209.084 167.801 211.864 167.701 212.304C167.601 212.744 168.241 214.724 167.701 215.064C166.863 215.884 166.244 216.902 165.901 218.024C165.901 218.724 166.881 219.704 167.701 220.024C167.968 220.086 168.198 220.251 168.341 220.484C168.858 220.409 169.379 220.362 169.901 220.344C170.481 220.344 173.101 221.064 173.901 221.064C174.744 221.072 175.568 221.314 176.281 221.764C176.641 222.124 177.461 221.884 178.061 221.304C178.661 220.724 179.361 221.064 180.061 221.064C180.947 220.989 181.763 220.556 182.321 219.864C183.833 219.017 185.487 218.454 187.201 218.204C188.141 218.084 189.561 219.984 190.401 219.984C191.705 220.039 192.841 220.889 193.261 222.124C193.825 223.608 194.674 224.967 195.761 226.124C196.308 226.895 196.633 227.801 196.701 228.744C196.701 229.224 195.401 228.624 193.961 228.264C192.521 227.904 192.421 229.344 192.421 230.044C191.814 231.388 191.012 232.635 190.041 233.744C189.681 234.224 190.761 234.564 191.601 234.684C191.941 234.684 193.381 233.744 193.861 233.744C194.383 233.993 194.857 234.332 195.261 234.744C195.141 232.884 195.521 232.984 197.261 231.724C199.001 230.464 199.161 227.984 200.701 227.724C202.108 227.13 203.643 226.903 205.161 227.064C207.421 227.424 204.041 228.844 205.581 229.684C207.121 230.524 211.881 229.444 212.121 230.624C212.361 231.804 206.661 233.004 206.781 233.604C206.901 234.204 209.801 234.784 210.781 235.444C211.761 236.104 210.481 237.944 210.961 238.544C211.441 239.144 212.961 238.664 214.221 237.764C215.481 236.864 216.481 237.164 218.081 236.104C219.681 235.044 223.021 235.984 223.441 235.324C223.861 234.664 222.481 234.024 219.441 234.264C218.547 234.352 217.661 234.035 217.026 233.4C216.39 232.765 216.073 231.878 216.161 230.984C217.424 229.361 219.214 228.23 221.221 227.784C223.002 227.579 224.73 227.05 226.321 226.224C227.383 225.814 228.481 225.505 229.601 225.304C229.461 224.424 229.221 223.444 229.741 223.364Z" fill="#294F6E" stroke="#002F57" stroke-width="0.75"/>
<path fill-rule="evenodd" clip-rule="evenodd" d="M205.402 189.484C204.682 189.304 204.242 187.704 203.082 187.244C201.922 186.784 202.202 185.384 201.222 184.764C200.242 184.144 200.862 182.884 200.762 181.904C200.662 180.924 200.942 179.404 200.422 179.144C199.902 178.884 197.642 177.624 196.662 178.064C195.682 178.504 194.982 178.864 194.522 178.064C194.205 177.272 193.341 176.849 192.522 177.084C191.749 177.281 190.93 177.043 190.382 176.464C190.293 176.377 190.218 176.275 190.162 176.164C189.718 176.244 189.296 176.415 188.922 176.664C188.322 177.144 188.202 178.104 187.382 178.104C186.562 178.104 185.582 177.744 184.642 178.444C183.894 178.885 183.472 179.721 183.562 180.584C183.682 181.184 183.802 182.144 183.102 182.144C182.402 182.144 182.502 182.964 181.782 183.204C180.894 183.605 180.182 184.316 179.782 185.204C179.662 185.804 179.662 187.204 179.182 187.204C178.702 187.204 177.042 187.424 176.582 188.024C176.17 188.718 175.381 189.097 174.582 188.984C173.601 188.845 172.612 188.771 171.622 188.764C171.651 188.882 171.651 189.006 171.622 189.124C171.185 190.169 171.431 191.374 172.242 192.164C172.962 192.784 173.222 195.284 172.422 195.644C171.622 196.004 170.102 197.064 170.102 197.644C170.102 198.224 171.702 198.804 171.442 199.644C171.315 200.372 171.315 201.116 171.442 201.844C172.197 202.029 172.995 201.851 173.602 201.364C174.322 200.644 174.682 199.824 176.222 199.824C177.762 199.824 182.402 199.824 183.122 200.644C183.842 201.464 185.722 200.764 186.802 201.244C187.882 201.724 189.422 202.204 189.542 201.604C189.662 201.004 191.082 202.424 192.142 201.844C193.202 201.264 194.142 203.024 194.762 202.664C195.973 202.262 197.293 202.348 198.442 202.904C199.042 203.504 199.162 202.304 199.162 201.604C199.162 200.904 201.542 198.984 201.542 198.984C202.423 198.941 203.293 198.766 204.122 198.464C203.839 197.939 203.643 197.372 203.542 196.784C203.082 194.784 202.382 193.664 202.902 193.044C203.422 192.424 204.902 193.844 205.762 193.484C206.622 193.124 208.002 192.404 207.762 191.604C207.313 190.593 206.454 189.822 205.402 189.484Z" fill="#294F6E" stroke="#002F57" stroke-width="0.75"/>
<path fill-rule="evenodd" clip-rule="evenodd" d="M170.521 175.104C172.204 175.375 173.918 175.375 175.601 175.104C177.061 174.544 177.061 176.184 177.961 176.004C178.861 175.824 180.681 177.104 181.781 178.004C182.411 178.497 183.08 178.938 183.781 179.324C183.977 178.98 184.242 178.68 184.561 178.444C185.501 177.744 186.461 178.104 187.301 178.104C188.141 178.104 188.241 177.144 188.841 176.664C189.216 176.415 189.638 176.245 190.081 176.164C189.781 175.504 189.761 174.164 189.221 173.704C188.681 173.244 187.701 172.004 187.981 171.384C188.312 170.615 188.128 169.721 187.521 169.144C187.232 168.85 187.001 168.504 186.841 168.124C185.58 167.908 184.3 167.821 183.021 167.864C182.301 168.104 179.441 165.864 179.021 165.484C177.581 165.284 176.121 165.284 174.681 165.484C173.581 166.704 174.381 167.484 174.321 169.484C174.261 171.484 172.181 171.024 171.041 171.024C169.901 171.024 168.081 167.644 167.481 166.864C166.881 166.084 164.981 167.804 163.621 168.644C162.261 169.484 162.961 171.084 162.001 171.844C160.829 172.764 160.575 174.438 161.421 175.664L161.521 175.864C162.632 175.856 163.724 175.574 164.701 175.044C165.961 174.184 169.421 175.104 170.521 175.104Z" fill="#294F6E" stroke="#002F57" stroke-width="0.75"/>
<path fill-rule="evenodd" clip-rule="evenodd" d="M163.742 181.624C164.335 182.315 165.24 182.654 166.142 182.524C166.682 182.264 168.382 183.144 168.382 183.864C168.382 184.584 167.942 186.724 168.382 186.724C168.822 186.724 171.342 187.524 171.522 188.584C172.512 188.591 173.501 188.664 174.482 188.804C175.281 188.916 176.07 188.538 176.482 187.844C176.942 187.244 178.622 187.024 179.082 187.024C179.542 187.024 179.562 185.704 179.682 185.024C180.082 184.136 180.794 183.424 181.682 183.024C182.402 182.784 182.282 181.964 183.002 181.964C183.722 181.964 183.582 181.004 183.462 180.404C183.407 179.961 183.514 179.514 183.762 179.144C183.061 178.758 182.392 178.316 181.762 177.824C180.662 176.924 178.862 175.644 177.942 175.824C177.022 176.004 177.042 174.364 175.582 174.924C173.899 175.194 172.184 175.194 170.502 174.924C169.402 174.924 165.942 174.004 164.682 174.924C163.705 175.453 162.613 175.735 161.502 175.744C162.255 177.152 162.098 178.874 161.102 180.124C160.442 180.844 160.822 180.944 161.302 181.224C162.302 181.324 163.402 181.124 163.742 181.624Z" fill="#294F6E" stroke="#002F57" stroke-width="0.75"/>
<path fill-rule="evenodd" clip-rule="evenodd" d="M119.181 226.584C118.381 226.924 117.181 225.864 117.181 225.504C117.099 224.947 117.099 224.381 117.181 223.824C116.436 223.423 115.66 223.082 114.861 222.804C113.985 222.416 112.979 222.461 112.141 222.924C111.018 223.175 109.859 223.216 108.721 223.044C108.721 223.404 108.461 223.624 108.181 223.624C107.238 223.749 106.456 224.414 106.181 225.324C106.001 226.224 104.181 226.924 103.601 228.544C103.021 230.164 103.341 230.864 104.141 229.884C104.941 228.904 105.921 229.244 105.921 230.044C105.921 230.844 106.981 230.944 106.641 232.044C107.861 231.924 109.561 231.804 110.081 231.804C110.601 231.804 111.741 229.184 112.081 228.944C112.421 228.704 113.381 230.844 114.341 231.684C115.301 232.524 115.401 230.964 115.401 230.244C115.401 229.524 116.241 229.304 116.821 229.424C117.401 229.544 118.821 229.784 118.821 228.944C118.821 228.104 119.521 228.464 120.001 228.464C120.481 228.464 120.601 227.524 120.601 227.524L121.381 226.804C120.727 226.377 119.906 226.295 119.181 226.584Z" fill="#294F6E" stroke="#002F57" stroke-width="0.75"/>
<path fill-rule="evenodd" clip-rule="evenodd" d="M107.201 194.624C106.241 196.044 104.941 196.164 105.201 196.624C105.461 197.084 106.861 198.164 106.501 198.764C106.141 199.364 105.681 199.004 105.681 200.084C105.681 201.164 104.001 201.144 103.421 201.144C102.841 201.144 103.541 202.224 103.181 203.044C102.913 204.098 102.752 205.177 102.701 206.264C102.581 206.964 103.881 208.264 103.761 208.744C103.641 209.224 102.701 209.824 102.941 210.304C103.702 211.251 104.149 212.411 104.221 213.624C104.556 213.693 104.862 213.86 105.101 214.104C105.72 214.908 106.686 215.369 107.701 215.344C108.861 215.344 109.301 216.164 109.841 216.064C110.381 215.964 111.841 216.424 110.641 217.404C109.728 218.277 109.154 219.447 109.021 220.704C108.861 221.444 108.861 222.484 108.681 223.144C109.819 223.316 110.978 223.275 112.101 223.024C112.939 222.56 113.946 222.516 114.821 222.904C115.62 223.182 116.396 223.523 117.141 223.924C117.141 223.684 117.341 223.504 117.581 223.464C118.401 223.464 119.381 224.984 119.901 224.084C120.421 223.184 121.701 223.384 122.321 223.724C123.043 224.207 124.002 224.133 124.641 223.544C125.881 222.829 127.324 222.547 128.741 222.744C129.361 223.024 130.961 223.724 130.341 221.584C129.721 219.444 131.681 219.904 131.941 219.104C132.201 218.304 134.541 217.944 134.181 217.304C132.876 216.142 131.47 215.098 129.981 214.184C129.101 213.564 129.101 211.604 128.641 210.804C128.181 210.004 127.221 208.924 128.381 208.664C129.88 208.437 131.312 207.892 132.581 207.064C133.561 206.164 135.341 206.084 135.861 205.544C136.381 205.004 137.661 205.984 138.021 205.544C138.47 204.872 138.47 203.996 138.021 203.324C137.361 202.389 137.018 201.268 137.041 200.124C137.041 198.604 136.501 198.684 136.501 197.984C136.56 197.212 136.23 196.462 135.621 195.984C134.981 195.644 134.721 195.364 135.341 194.384C135.811 193.035 135.846 191.573 135.441 190.204C135.39 190.041 135.39 189.866 135.441 189.704C135.252 189.614 135.123 189.432 135.101 189.224C134.921 188.264 134.261 187.904 132.721 187.904C131.181 187.904 133.661 186.364 133.081 185.584C132.501 184.804 130.941 187.024 129.521 186.544C128.101 186.064 126.241 188.204 125.001 189.164C123.761 190.124 121.961 188.984 123.001 187.604C124.041 186.224 123.001 186.364 121.561 186.904C120.121 187.444 118.421 186.784 118.601 185.464C118.631 185.138 118.546 184.813 118.361 184.544C117.865 184.632 117.357 184.632 116.861 184.544C115.661 184.273 114.431 184.152 113.201 184.184C113.681 184.864 114.181 185.544 113.901 186.084C113.361 187.104 114.201 188.084 114.961 189.524C115.721 190.964 113.301 190.184 113.241 191.144C113.181 192.104 110.981 191.144 110.261 190.724C109.541 190.304 107.181 190.604 107.241 191.204C107.257 191.489 107.216 191.774 107.121 192.044C107.432 192.871 107.46 193.778 107.201 194.624Z" fill="#294F6E" stroke="#002F57" stroke-width="0.75"/>
<path fill-rule="evenodd" clip-rule="evenodd" d="M197.202 142.904C198.162 140.764 202.422 139.104 203.202 137.204C203.562 136.244 203.682 135.764 202.142 133.984C200.602 132.204 197.142 131.024 197.022 129.984C196.902 128.944 199.642 128.904 199.522 127.724C199.402 126.544 197.982 126.544 197.382 125.584C196.782 124.624 198.102 124.044 197.982 123.584C197.862 123.124 196.082 122.864 195.982 122.264C195.882 121.664 197.162 121.804 196.922 121.084C196.682 120.364 195.502 119.084 196.342 117.984C197.182 116.884 198.942 117.984 197.642 115.624C196.342 113.264 194.302 110.264 193.842 109.624C193.382 108.984 194.302 107.624 195.022 107.264C195.742 106.904 197.522 105.004 197.522 104.284C197.522 103.564 195.262 101.664 194.662 101.304C194.062 100.944 192.762 101.064 192.182 99.8839C191.602 98.7039 190.982 98.3439 191.582 97.6239C192.052 97.0155 192.267 96.2481 192.182 95.4839C192.182 94.7639 193.482 95.3639 193.722 94.3039C193.87 93.7378 194.175 93.2249 194.602 92.8239C194.652 92.078 194.652 91.3297 194.602 90.5839C194.402 89.4439 191.162 89.0639 190.402 87.7239C189.642 86.3839 187.722 86.9639 187.162 87.7239C186.602 88.4839 183.162 87.5439 183.162 88.6839C183.162 89.8239 180.682 90.0239 180.682 91.3639C180.682 92.7039 181.742 94.9639 179.742 94.7439C177.742 94.5239 179.162 95.5039 178.022 97.0239C176.882 98.5439 176.862 96.0639 175.722 96.4439C174.582 96.8239 173.242 95.3039 172.662 96.2639C172.082 97.2239 170.182 96.4439 168.282 96.0639C166.382 95.6839 165.402 93.0239 163.882 92.8239C162.656 92.8468 161.584 93.6531 161.222 94.8239C162.579 96.0241 164.046 97.0954 165.602 98.0239C167.602 98.9839 171.602 100.024 171.342 101.464C171.082 102.904 170.562 104.704 171.522 105.284C172.482 105.864 171.342 108.344 172.482 108.904C173.622 109.464 173.242 112.344 172.282 112.344C171.322 112.344 172.482 113.864 173.042 114.344C173.408 114.948 173.608 115.638 173.622 116.344C174.741 116.688 175.826 117.137 176.862 117.684C178.462 118.384 178.222 119.524 178.282 120.764C178.342 122.004 178.402 122.764 177.562 122.204C176.722 121.644 175.842 122.204 175.362 123.984C174.696 125.885 173.179 127.365 171.262 127.984C169.902 128.104 170.022 129.524 168.882 129.824C167.742 130.124 166.682 130.784 166.742 132.024C166.802 133.264 165.082 133.384 163.942 133.384C162.802 133.384 163.062 135.384 162.162 135.944C161.262 136.504 161.442 137.184 162.282 138.264C163.122 139.344 162.402 140.264 162.702 141.064C163.616 142.383 163.881 144.046 163.422 145.584C162.522 147.584 161.582 149.984 162.342 149.744C163.102 149.504 164.902 151.344 166.082 151.224C167.262 151.104 167.402 152.884 168.522 152.524C169.642 152.164 169.662 153.604 172.922 153.484C176.182 153.364 182.882 150.744 185.502 150.744C186.714 150.761 187.923 150.627 189.102 150.344C189.69 149.469 190.359 148.652 191.102 147.904C192.682 146.224 196.262 145.044 197.202 142.904Z" fill="#294F6E" stroke="#002F57" stroke-width="0.75"/>
<path fill-rule="evenodd" clip-rule="evenodd" d="M109.741 215.964C109.201 215.964 108.761 215.244 107.601 215.244C106.586 215.27 105.62 214.809 105.001 214.004C104.481 213.284 101.701 213.104 100.821 213.284C99.9413 213.464 99.6613 211.764 98.8213 211.944C97.9813 212.124 97.6613 210.784 97.6613 210.084C97.6613 209.384 96.6813 210.624 95.8813 210.964C95.0813 211.304 94.8213 210.164 94.7213 209.624C94.6213 209.084 93.0213 208.564 92.2213 208.124C91.4213 207.684 90.5413 206.244 90.2213 206.864C89.9013 207.484 88.8813 205.984 88.7813 205.344C88.6813 204.704 88.4613 205.064 88.2613 204.824C87.9626 204.864 87.66 204.864 87.3613 204.824C85.9413 204.824 84.6813 205.904 84.9213 208.284C85.1613 210.664 83.2013 210.884 80.7613 211.064C78.3213 211.244 79.1613 213.064 78.1413 213.924C77.1213 214.784 73.5613 213.504 73.1013 212.204C72.6413 210.904 69.4013 212.204 70.7813 213.744C72.1613 215.284 72.0813 217.424 71.3013 218.024C70.5213 218.624 68.8813 217.084 67.8013 217.844C66.7213 218.604 66.6813 217.124 65.3613 216.664C64.0413 216.204 63.5213 217.244 61.3613 217.084C59.2013 216.924 58.1013 218.084 58.8613 219.084C59.6213 220.084 58.7413 220.804 59.3413 221.584C59.9413 222.364 62.6613 222.224 64.6813 223.304C66.7013 224.384 67.1813 223.464 68.2013 224.244C69.2213 225.024 69.4413 224.544 69.5013 226.044C69.7062 227.751 70.9783 229.136 72.6613 229.484C74.6613 230.024 73.1413 231.324 73.7213 232.624C74.3013 233.924 72.8413 235.844 73.1413 237.444C73.4413 239.044 72.1813 244.224 71.1413 244.704H70.9213C71.8013 245.144 72.7413 245.544 73.2013 245.844C74.0613 246.424 75.9413 247.004 77.1013 247.724C78.2613 248.444 80.2813 248.304 80.2813 247.424C80.2813 246.544 81.4413 247.144 82.1613 247.864C82.8813 248.584 85.6413 248.744 86.9413 249.024C88.3163 249.169 89.7003 249.21 91.0813 249.144C91.016 248.793 90.9291 248.445 90.8213 248.104C90.1213 245.784 92.2013 244.424 94.1613 244.104C96.7051 244.064 99.2239 244.611 101.521 245.704C102.661 246.424 104.201 246.244 106.161 244.164C106.824 243.384 107.7 242.814 108.681 242.524C108.783 242.055 108.937 241.599 109.141 241.164C109.401 240.444 108.161 240.624 107.261 240.544C106.791 240.539 106.367 240.258 106.177 239.828C105.988 239.397 106.068 238.895 106.381 238.544C107.001 237.544 105.841 237.464 105.221 236.544C104.601 235.624 105.481 235.824 106.021 235.564C106.561 235.304 107.261 234.224 106.821 233.964C106.381 233.704 106.021 233.064 106.381 231.964C106.741 230.864 105.661 230.804 105.661 229.964C105.661 229.124 104.681 228.824 103.881 229.804C103.081 230.784 102.801 230.064 103.341 228.464C103.881 226.864 105.741 226.144 105.921 225.244C106.196 224.334 106.979 223.669 107.921 223.544C108.721 223.544 108.541 221.684 108.801 220.524C108.934 219.267 109.508 218.098 110.421 217.224C111.741 216.324 110.341 215.884 109.741 215.964ZM116.101 246.224C115.441 246.224 115.261 247.344 113.601 248.364C111.941 249.384 113.601 253.944 115.261 253.724C116.921 253.504 116.821 246.284 116.181 246.224H116.101Z" fill="#294F6E" stroke="#002F57" stroke-width="0.75"/>
<path fill-rule="evenodd" clip-rule="evenodd" d="M91.2213 249.164C89.8403 249.229 88.4562 249.189 87.0813 249.044C85.7813 248.764 83.0813 248.604 82.3013 247.884C81.5213 247.164 80.4213 246.584 80.4213 247.444C80.4213 248.304 78.4213 248.464 77.2413 247.744C76.0613 247.024 74.2013 246.444 73.3413 245.864C72.8813 245.564 71.9413 245.164 71.0613 244.724C69.8413 244.964 66.3813 243.684 64.1013 243.964C61.8213 244.244 53.8613 243.604 50.8413 243.844C47.8213 244.084 47.6213 242.604 45.9613 242.604C44.3013 242.604 45.0213 244.604 42.6413 244.604C40.2613 244.604 40.0213 246.144 41.7413 247.524C42.7213 248.284 42.6013 249.943 42.4613 251.523C42.8666 251.513 43.2526 251.348 43.5413 251.064C44.2613 250.204 44.9813 250.344 44.9813 251.204C44.9813 252.064 46.5813 251.784 47.4413 251.784C48.3013 251.784 48.0213 252.524 49.0413 251.784C50.0613 251.044 51.5013 251.364 51.5013 252.224C51.5013 253.084 53.6613 252.664 52.5013 253.824C51.3413 254.984 49.9013 255.264 49.9013 256.124C49.9013 256.984 51.2013 258.884 50.2013 259.884C49.2013 260.884 50.4813 262.644 49.4813 262.644C48.4813 262.644 47.3013 263.084 48.4613 264.224C49.6213 265.364 50.4613 266.404 49.6213 266.404C48.7813 266.404 48.1613 268.144 48.6013 268.564C49.0413 268.984 51.0613 270.304 49.4813 270.564C47.9013 270.824 47.8813 272.143 47.8813 273.023C47.9697 273.496 48.1685 273.942 48.4613 274.324C49.1732 274.144 49.9239 274.201 50.6013 274.484C52.2613 275.264 53.2213 279.404 55.4813 279.124C56.4213 279.004 55.9613 278.283 56.4213 277.803C56.8813 277.323 57.8013 277.684 58.7413 277.684C59.6813 277.684 60.1813 276.324 62.4413 276.264C64.7013 276.204 66.1213 276.023 67.5413 276.083C68.9613 276.143 70.1013 275.664 70.4613 274.664C71.0506 273.441 72.2475 272.625 73.6013 272.523C75.2213 272.283 74.9813 270.624 75.1013 269.664C75.2213 268.704 77.8813 267.283 78.0613 266.583C78.2413 265.883 76.5213 263.124 78.0613 260.684C79.6013 258.244 81.4013 258.144 81.4013 256.684C81.4013 255.224 83.0613 254.964 85.0813 254.684C87.1013 254.404 87.7613 253.083 89.4813 252.363C90.8018 251.908 91.5565 250.52 91.2213 249.164ZM91.5613 262.164C91.2613 260.164 87.1813 262.764 88.0613 263.344C89.8413 264.544 91.8613 264.184 91.5613 262.164Z" fill="#294F6E" stroke="#002F57" stroke-width="0.75"/>
<path fill-rule="evenodd" clip-rule="evenodd" d="M130.022 233.303C130.817 232.921 131.714 232.802 132.582 232.963C133.011 233.211 133.277 233.668 133.282 234.163C134.238 234.04 135.186 233.86 136.122 233.623C136.842 233.343 138.442 234.243 138.622 233.623C138.802 233.003 139.322 231.843 140.042 231.843C140.762 231.843 140.302 229.963 141.022 229.843C141.742 229.723 143.522 228.143 143.522 228.143C143.522 228.143 142.802 226.723 142.542 226.643C142.282 226.563 141.382 227.523 139.782 227.523C138.182 227.523 137.022 228.783 136.302 228.783C135.582 228.783 133.362 228.063 131.842 227.963C131.302 227.963 130.742 227.963 130.222 227.843C130.017 229.656 129.951 231.481 130.022 233.303Z" fill="#294F6E" stroke="#002F57" stroke-width="0.75"/>
<path fill-rule="evenodd" clip-rule="evenodd" d="M182.962 252.204C182.062 252.204 180.842 252.624 180.962 253.124C181.082 253.624 180.362 254.064 179.402 254.064C177.953 253.994 176.517 253.759 175.122 253.364C173.33 253.117 171.513 253.117 169.722 253.364C169.739 253.423 169.739 253.485 169.722 253.544C168.657 254.463 167.353 255.06 165.962 255.264C165.442 255.004 165.162 256.144 164.102 256.424C163.042 256.704 161.422 256.324 161.342 256.784C161.011 257.641 160.523 258.428 159.902 259.104C159.282 259.724 159.902 260.424 158.922 260.604C158.342 260.724 158.102 261.824 157.762 262.784H157.942C159.347 263.331 160.22 264.743 160.082 266.244C159.902 267.724 161.982 268.244 162.942 267.184C163.902 266.124 166.562 267.784 166.562 268.504C166.562 269.224 163.822 267.724 162.282 268.864C160.742 270.004 163.482 271.064 163.122 272.244C162.975 272.885 163.11 273.559 163.492 274.094C163.875 274.629 164.468 274.975 165.122 275.044C166.482 275.044 168.022 277.244 168.862 276.824C169.702 276.404 167.862 273.264 168.142 272.824C168.422 272.384 170.142 273.644 170.942 272.704C171.742 271.764 170.342 271.044 169.102 271.104C167.862 271.164 169.102 269.424 170.522 270.324C171.942 271.224 172.722 270.084 173.442 269.964C174.162 269.844 174.342 267.284 172.142 266.704C169.942 266.124 170.142 268.304 168.802 266.804C167.462 265.304 170.102 265.924 170.102 264.664C170.102 263.404 167.922 261.644 166.842 260.164C165.762 258.684 168.322 257.964 168.842 259.024C169.362 260.084 171.042 259.924 172.062 259.504C173.082 259.084 170.982 257.184 172.822 256.464C174.662 255.744 174.662 257.004 175.262 257.244C175.862 257.484 176.402 255.764 178.302 255.764C179.315 255.891 180.262 256.34 181.002 257.044C181.522 256.484 181.942 256.144 181.942 255.664C181.942 255.184 183.102 254.784 183.102 253.804C183.121 253.267 183.074 252.73 182.962 252.204ZM179.602 282.204C178.662 281.684 174.382 282.564 173.242 281.504C172.102 280.444 169.802 282.344 170.802 282.504C172.706 283.215 174.675 283.738 176.682 284.064C179.022 284.064 182.162 282.984 182.102 282.384C182.042 281.784 180.562 282.744 179.602 282.184V282.204Z" fill="#294F6E" stroke="#002F57" stroke-width="0.75"/>
<path fill-rule="evenodd" clip-rule="evenodd" d="M36.6016 127.324C38.9216 127.204 38.8616 124.644 39.8016 124.764C40.7416 124.884 42.3016 122.984 42.9016 121.804C43.1129 121.094 43.0168 120.329 42.6365 119.693C42.2562 119.058 41.6268 118.612 40.9016 118.464C39.4816 118.464 38.4016 117.344 38.7016 116.464C39.0016 115.584 37.9216 114.564 37.9816 113.964C38.0416 113.364 36.2016 113.964 35.2416 114.144C34.2816 114.324 32.2816 111.824 31.3816 112.304C30.4816 112.784 31.1416 114.024 30.9016 114.744C30.6616 115.464 28.5416 114.084 28.5416 114.924C28.5416 115.764 27.6416 115.864 26.9216 114.924C26.2016 113.984 24.5416 114.564 24.6016 115.284C24.6616 116.004 23.9016 115.404 22.6016 114.564C21.3016 113.724 19.8216 115.524 19.9416 116.404C20.0616 117.284 19.4616 117.544 18.3216 115.584C17.1816 113.624 15.8816 115.764 16.4816 116.824C17.0816 117.884 16.8416 119.204 15.9616 118.664C15.0816 118.124 13.9616 119.024 13.3416 119.864C12.7216 120.704 10.9016 117.424 12.2616 116.644C13.6216 115.864 7.9216 112.644 6.1416 112.644C4.3616 112.644 5.5416 113.944 6.7416 114.904C7.9416 115.864 5.9016 115.624 5.2416 114.784C4.5816 113.944 3.3416 114.604 2.6416 115.804C1.9416 117.004 0.641602 117.644 0.641602 118.464C0.641602 119.284 2.6416 120.204 4.5016 119.424C6.01577 118.568 7.86743 118.568 9.3816 119.424C10.3216 120.304 7.6416 120.664 8.6016 121.424C9.5616 122.184 8.7816 122.724 6.6016 122.544C4.4216 122.364 1.6016 123.024 2.0216 123.804C2.4416 124.584 7.7816 123.144 7.8416 123.924C7.9016 124.704 7.8416 125.924 9.2816 125.404C10.7216 124.884 9.7416 126.484 10.4616 126.764C11.1816 127.044 11.0016 128.504 9.1016 128.624C7.2016 128.744 6.2616 129.124 7.1016 129.924C7.9416 130.724 10.1816 130.224 12.2016 129.744C14.2216 129.264 17.1416 131.744 19.5216 132.664C21.9016 133.584 26.0016 132.304 26.4816 131.044C26.9616 129.784 30.1616 130.284 31.4616 129.384C32.9631 128.255 34.7365 127.545 36.6016 127.324Z" fill="#294F6E" stroke="#002F57" stroke-width="0.75"/>
<path fill-rule="evenodd" clip-rule="evenodd" d="M52.0218 188.743C51.53 188.397 51.0803 187.994 50.6818 187.543C49.1618 185.743 48.5418 187.183 48.3618 188.263C48.1818 189.343 46.7418 187.903 45.8418 187.723C44.9418 187.543 46.1018 185.843 46.7418 185.383C47.3456 184.762 47.7316 183.962 47.8418 183.103C47.6775 183.143 47.5061 183.143 47.3418 183.103C45.6618 182.463 43.3418 182.463 43.3418 183.943C43.3418 185.423 45.2018 184.903 45.3418 185.943C45.4818 186.983 43.3418 186.663 42.0618 187.603C40.7818 188.543 39.2018 186.963 37.7818 187.603C36.3618 188.243 39.3218 189.163 38.2618 190.643C37.2018 192.123 38.2618 192.063 40.1018 193.503C41.9418 194.943 39.0218 195.283 39.0218 196.883C39.0218 198.483 36.8218 198.423 36.3618 199.503C35.9018 200.583 38.2618 202.703 40.3618 202.703C42.9222 202.51 45.3571 201.517 47.3218 199.863C49.3218 197.863 50.4018 199.863 52.2418 198.843C54.0818 197.823 52.9618 190.843 52.2418 189.523C52.0361 189.32 51.9525 189.024 52.0218 188.743Z" fill="#294F6E" stroke="#002F57" stroke-width="0.75"/>
<path fill-rule="evenodd" clip-rule="evenodd" d="M52.8613 182.204C51.3613 180.744 49.4213 183.024 47.8413 183.004C47.7311 183.863 47.3451 184.663 46.7413 185.284C46.1013 185.744 44.9413 187.444 45.8413 187.624C46.7413 187.804 48.1813 189.244 48.3613 188.164C48.5413 187.084 49.1613 185.644 50.6813 187.444C51.0798 187.894 51.5295 188.297 52.0213 188.644C52.2613 187.844 54.1413 187.704 55.1213 186.644C56.1013 185.584 54.5213 183.804 52.8613 182.204ZM85.3813 196.944C85.5013 195.164 81.5813 193.904 81.1613 194.944C80.7413 195.984 79.8413 195.784 79.1613 194.704C78.4813 193.624 79.7613 192.704 79.1613 192.504C78.3467 192.073 77.8383 191.225 77.8413 190.304C78.0213 189.704 76.8413 185.904 74.8213 185.424C72.8013 184.944 72.5013 182.104 72.1413 180.564C71.7813 179.024 70.4813 179.844 69.4613 178.564C68.4413 177.284 66.7413 177.924 65.8413 177.984C64.9413 178.044 65.8413 176.304 67.2613 175.364C68.6813 174.424 70.3613 169.364 70.3613 168.344C70.3613 167.324 64.1213 167.404 62.9213 167.984C61.7213 168.564 60.5413 167.104 61.5613 166.684C62.5813 166.264 64.7213 164.184 64.6013 163.364C64.4813 162.544 66.0813 161.744 65.1813 160.984C64.2813 160.224 64.1813 161.984 63.4013 162.584C61.9985 163.088 60.4641 163.088 59.0613 162.584C57.2213 162.224 56.5013 164.844 56.5613 165.964C56.6213 167.084 54.4213 167.764 54.7813 168.704C55.1413 169.644 54.3613 170.364 53.7813 169.824C53.2013 169.284 52.5213 167.984 51.3413 168.944C50.1613 169.904 52.7013 171.144 54.2413 171.324C55.7813 171.504 53.0613 172.624 52.7613 174.284C52.4613 175.944 54.7613 175.244 54.9013 176.424C55.0413 177.604 51.5813 177.804 51.5813 178.924C51.5813 180.044 53.5813 178.404 54.4213 177.924C55.2613 177.444 53.9613 180.704 56.1013 180.364C58.2413 180.024 57.6413 177.084 58.4013 177.204C59.1613 177.324 58.0613 178.744 58.7013 180.004C59.3413 181.264 57.1613 183.144 57.2813 184.004C57.4013 184.864 61.6813 184.884 63.0413 183.464C64.4013 182.044 65.0413 183.584 64.1213 184.664C63.6898 185.016 63.5041 185.588 63.6462 186.126C63.7884 186.665 64.2322 187.07 64.7813 187.164C65.9613 187.564 66.3813 187.684 65.8413 188.644C65.3013 189.604 65.8413 191.364 65.4813 192.264C65.1213 193.164 61.4813 193.044 61.3813 192.444C61.2813 191.844 59.7213 192.264 60.1413 193.104C60.5613 193.944 58.8213 194.824 58.9413 195.604C59.0613 196.384 61.2613 196.184 61.3213 197.144C61.3813 198.104 59.7213 199.144 57.4613 199.884C55.2013 200.624 57.9413 202.304 59.0013 201.544C60.0613 200.784 59.8413 202.064 61.3813 202.064C62.9213 202.064 63.8813 203.324 65.6013 202.664C67.3213 202.004 67.2613 202.664 65.9613 203.684C64.6613 204.704 62.7013 203.684 61.5013 204.284C60.3013 204.884 55.5013 209.464 56.3813 210.584C56.9213 211.224 57.6413 209.624 59.3613 208.904C61.0813 208.184 61.3613 209.384 62.3413 209.504C63.3213 209.624 63.3413 207.504 64.1213 207.724C64.9013 207.944 65.6013 207.064 67.0213 207.304C68.1535 207.504 69.3153 207.18 70.1813 206.424C70.9013 205.824 72.8013 207.604 73.4013 207.184C74.8335 206.618 76.3613 206.332 77.9013 206.344C79.9282 206.047 81.8513 205.258 83.5013 204.044C84.3813 203.204 82.9613 203.024 81.7813 203.204C80.6013 203.384 80.8213 202.024 82.0613 200.824C83.3013 199.624 85.2613 198.744 85.3813 196.944ZM49.7413 167.104C51.3413 167.104 53.1813 164.304 52.4013 163.524C51.6213 162.744 48.4613 167.144 49.7413 167.104ZM72.7413 154.204C73.7413 153.184 74.9413 149.324 73.4013 149.744C71.8613 150.164 72.2213 154.744 72.6613 154.204H72.7413Z" fill="#294F6E" stroke="#002F57" stroke-width="0.75"/>
<path fill-rule="evenodd" clip-rule="evenodd" d="M52.8613 182.204C51.3613 180.744 49.4213 183.024 47.8413 183.004C47.7311 183.863 47.3451 184.663 46.7413 185.284C46.1013 185.744 44.9413 187.444 45.8413 187.624C46.7413 187.804 48.1813 189.244 48.3613 188.164C48.5413 187.084 49.1613 185.644 50.6813 187.444C51.0798 187.894 51.5295 188.297 52.0213 188.644C52.2613 187.844 54.1413 187.704 55.1213 186.644C56.1013 185.584 54.5213 183.804 52.8613 182.204ZM85.3813 196.944C85.5013 195.164 81.5813 193.904 81.1613 194.944C80.7413 195.984 79.8413 195.784 79.1613 194.704C78.4813 193.624 79.7613 192.704 79.1613 192.504C78.3467 192.073 77.8383 191.225 77.8413 190.304C78.0213 189.704 76.8413 185.904 74.8213 185.424C72.8013 184.944 72.5013 182.104 72.1413 180.564C71.7813 179.024 70.4813 179.844 69.4613 178.564C68.4413 177.284 66.7413 177.924 65.8413 177.984C64.9413 178.044 65.8413 176.304 67.2613 175.364C68.6813 174.424 70.3613 169.364 70.3613 168.344C70.3613 167.324 64.1213 167.404 62.9213 167.984C61.7213 168.564 60.5413 167.104 61.5613 166.684C62.5813 166.264 64.7213 164.184 64.6013 163.364C64.4813 162.544 66.0813 161.744 65.1813 160.984C64.2813 160.224 64.1813 161.984 63.4013 162.584C61.9985 163.088 60.4641 163.088 59.0613 162.584C57.2213 162.224 56.5013 164.844 56.5613 165.964C56.6213 167.084 54.4213 167.764 54.7813 168.704C55.1413 169.644 54.3613 170.364 53.7813 169.824C53.2013 169.284 52.5213 167.984 51.3413 168.944C50.1613 169.904 52.7013 171.144 54.2413 171.324C55.7813 171.504 53.0613 172.624 52.7613 174.284C52.4613 175.944 54.7613 175.244 54.9013 176.424C55.0413 177.604 51.5813 177.804 51.5813 178.924C51.5813 180.044 53.5813 178.404 54.4213 177.924C55.2613 177.444 53.9613 180.704 56.1013 180.364C58.2413 180.024 57.6413 177.084 58.4013 177.204C59.1613 177.324 58.0613 178.744 58.7013 180.004C59.3413 181.264 57.1613 183.144 57.2813 184.004C57.4013 184.864 61.6813 184.884 63.0413 183.464C64.4013 182.044 65.0413 183.584 64.1213 184.664C63.6898 185.016 63.5041 185.588 63.6462 186.126C63.7884 186.665 64.2322 187.07 64.7813 187.164C65.9613 187.564 66.3813 187.684 65.8413 188.644C65.3013 189.604 65.8413 191.364 65.4813 192.264C65.1213 193.164 61.4813 193.044 61.3813 192.444C61.2813 191.844 59.7213 192.264 60.1413 193.104C60.5613 193.944 58.8213 194.824 58.9413 195.604C59.0613 196.384 61.2613 196.184 61.3213 197.144C61.3813 198.104 59.7213 199.144 57.4613 199.884C55.2013 200.624 57.9413 202.304 59.0013 201.544C60.0613 200.784 59.8413 202.064 61.3813 202.064C62.9213 202.064 63.8813 203.324 65.6013 202.664C67.3213 202.004 67.2613 202.664 65.9613 203.684C64.6613 204.704 62.7013 203.684 61.5013 204.284C60.3013 204.884 55.5013 209.464 56.3813 210.584C56.9213 211.224 57.6413 209.624 59.3613 208.904C61.0813 208.184 61.3613 209.384 62.3413 209.504C63.3213 209.624 63.3413 207.504 64.1213 207.724C64.9013 207.944 65.6013 207.064 67.0213 207.304C68.1535 207.504 69.3153 207.18 70.1813 206.424C70.9013 205.824 72.8013 207.604 73.4013 207.184C74.8335 206.618 76.3613 206.332 77.9013 206.344C79.9282 206.047 81.8513 205.258 83.5013 204.044C84.3813 203.204 82.9613 203.024 81.7813 203.204C80.6013 203.384 80.8213 202.024 82.0613 200.824C83.3013 199.624 85.2613 198.744 85.3813 196.944ZM49.7413 167.104C51.3413 167.104 53.1813 164.304 52.4013 163.524C51.6213 162.744 48.4613 167.144 49.7413 167.104ZM72.7413 154.204C73.7413 153.184 74.9413 149.324 73.4013 149.744C71.8613 150.164 72.2213 154.744 72.6613 154.204H72.7413Z" fill="#294F6E" stroke="#002F57" stroke-width="0.75"/>
<path fill-rule="evenodd" clip-rule="evenodd" d="M120.161 174.043C119.458 173.266 119.408 172.098 120.041 171.263C120.803 170.273 120.964 168.947 120.461 167.803C119.861 167.223 117.721 167.803 117.541 169.423C117.361 171.043 115.641 170.303 115.161 170.663C114.681 171.023 116.121 171.743 115.341 172.443C114.561 173.143 114.261 171.383 113.021 171.263C111.781 171.143 111.661 173.163 111.021 174.163C110.575 175.657 110.575 177.249 111.021 178.743C111.261 180.183 113.021 181.063 112.561 182.263C112.381 182.803 112.761 183.423 113.181 184.043C114.411 184.012 115.641 184.133 116.841 184.403C117.337 184.492 117.845 184.492 118.341 184.403C117.821 183.543 116.641 182.863 116.721 182.243C116.801 181.623 117.981 181.943 118.721 182.663C119.461 183.383 121.381 183.483 121.561 182.663C121.681 182.103 121.261 179.563 120.141 180.163C119.021 180.763 118.721 180.523 118.301 179.923C117.881 179.323 119.121 178.383 119.421 177.423C119.721 176.463 121.681 176.823 121.981 176.063C122.281 175.303 120.741 174.343 120.161 174.043ZM129.141 177.683C128.661 177.383 128.301 178.503 127.761 178.623C127.221 178.743 126.641 176.363 126.401 177.683C126.161 179.003 124.981 177.143 123.781 178.803C122.581 180.463 124.501 181.963 125.321 182.503C126.141 183.043 125.321 183.803 124.201 183.563C123.081 183.323 123.781 185.103 125.261 185.343C126.741 185.583 128.361 182.743 128.181 182.023C128.001 181.303 129.741 178.023 129.141 177.683Z" fill="#294F6E" stroke="#002F57" stroke-width="0.75"/>
<path fill-rule="evenodd" clip-rule="evenodd" d="M173.122 114.444C172.562 113.864 171.422 112.444 172.362 112.444C173.302 112.444 173.702 109.584 172.562 109.004C171.422 108.424 172.562 105.944 171.602 105.384C170.642 104.824 171.222 102.884 171.422 101.564C171.622 100.244 167.742 98.9839 165.742 98.0239C163.742 97.0639 162.682 95.5439 160.962 94.5839C159.242 93.6239 158.662 96.1039 158.662 97.6439C158.662 99.1839 157.142 99.3639 156.002 98.4039C154.862 97.4439 153.522 98.4039 151.802 97.6439C150.082 96.8839 150.842 99.3639 150.842 100.504C150.842 101.644 148.842 101.644 147.782 101.644C146.722 101.644 144.722 102.604 144.722 103.944C144.722 105.284 143.002 106.044 143.582 106.804C144.162 107.564 143.382 108.344 142.622 108.804C141.862 109.264 141.102 111.284 140.522 111.864C139.942 112.444 140.902 113.384 139.762 114.164C138.622 114.944 137.282 114.344 136.702 114.924C136.122 115.504 136.702 116.924 136.522 118.544C136.039 120.498 135.084 122.304 133.742 123.804C132.602 125.344 134.122 125.804 134.702 125.804C135.282 125.804 135.262 126.944 134.702 128.104C134.142 129.264 132.702 128.484 132.022 128.284C130.33 128.469 128.836 129.47 128.022 130.964C127.186 132.132 127.041 133.659 127.642 134.964C128.022 135.904 126.702 136.964 127.642 138.964C128.582 140.964 127.262 141.264 127.462 142.784C127.662 144.304 129.942 144.124 130.142 145.644C130.342 147.164 129.362 147.644 128.602 147.644C127.842 147.644 128.022 149.184 128.802 149.644C129.582 150.104 129.362 152.704 128.982 153.464C128.602 154.224 126.122 153.464 126.322 154.424C126.522 155.384 125.742 156.904 125.742 157.664C125.742 158.424 125.542 160.904 124.782 160.344C124.397 160.134 123.95 160.07 123.522 160.164C123.532 160.29 123.532 160.417 123.522 160.544C123.45 162.084 124.11 163.566 125.302 164.544C126.622 165.604 125.602 167.224 126.742 168.704C127.882 170.184 127.502 171.264 128.742 172.324C129.982 173.384 130.102 173.984 129.562 175.364C129.022 176.744 130.642 176.364 130.702 177.204C130.762 178.044 130.342 179.764 130.702 180.584C131.062 181.404 131.942 180.584 133.842 180.584C135.742 180.584 135.282 179.344 135.342 178.224C135.402 177.104 136.342 177.624 136.582 176.904C136.822 176.184 138.582 176.024 139.922 176.604C141.262 177.184 141.922 176.184 142.242 174.764C142.562 173.344 143.242 175.064 143.662 175.364C144.082 175.664 145.322 173.164 145.922 171.564C146.522 169.964 145.922 170.244 144.482 171.784C143.042 173.324 143.902 170.244 144.482 169.004C144.856 167.118 145.077 165.205 145.142 163.284C145.267 162.062 146.191 161.073 147.402 160.864C149.122 160.504 151.402 158.364 151.042 157.464C150.682 156.564 153.402 155.084 153.402 154.204C153.402 153.324 150.602 150.744 149.742 150.104C148.882 149.464 146.722 149.984 146.882 149.324C146.896 147.805 146.742 146.289 146.422 144.804C146.182 143.504 147.902 142.124 147.902 140.804C147.902 139.484 147.902 138.124 148.962 137.704C150.022 137.284 149.382 136.224 150.962 135.864C152.542 135.504 152.142 133.364 153.742 132.724C155.342 132.084 155.462 131.524 157.562 130.524C159.922 129.424 162.027 127.844 163.742 125.884C164.322 124.624 161.602 123.324 163.322 122.024C165.042 120.724 163.622 119.224 164.862 118.744C165.896 118.32 166.8 117.63 167.482 116.744C168.362 115.804 169.482 116.744 171.702 116.324C172.422 116.182 173.162 116.182 173.882 116.324C173.794 115.642 173.532 114.995 173.122 114.444ZM153.022 166.744C150.782 166.744 149.722 171.244 150.302 171.984C150.882 172.724 155.282 166.744 153.022 166.744Z" fill="#294F6E" stroke="#002F57" stroke-width="0.75"/>
<path fill-rule="evenodd" clip-rule="evenodd" d="M188.281 159.164C188.781 158.104 190.061 157.924 189.101 156.524C188.838 156.715 188.538 156.851 188.221 156.924C186.501 157.404 182.761 155.744 180.621 156.164C178.481 156.584 174.141 156.584 173.121 157.644C172.101 158.704 169.561 159.004 170.681 159.964C171.801 160.924 170.681 161.384 171.521 162.524C172.361 163.664 172.761 164.124 173.901 163.884C175.041 163.644 175.901 164.244 174.721 165.484C176.161 165.283 177.621 165.283 179.061 165.484C179.521 165.844 182.381 168.104 183.061 167.864C184.34 167.82 185.62 167.907 186.881 168.124C186.692 167.754 186.756 167.305 187.041 167.004C187.561 166.564 188.721 166.564 188.101 165.664C187.551 165.085 187.237 164.322 187.221 163.524C187.059 162.76 186.965 161.984 186.941 161.204C187.041 160.504 187.741 160.324 188.281 159.164ZM167.241 162.044C165.101 162.644 164.781 165.604 165.641 165.564C167.188 164.916 168.584 163.956 169.741 162.744C170.441 162.164 169.381 161.444 167.241 162.044ZM169.021 160.324C169.501 159.424 165.581 159.824 166.461 160.624C166.834 160.94 167.321 161.088 167.807 161.031C168.292 160.974 168.732 160.718 169.021 160.324Z" fill="#294F6E" stroke="#002F57" stroke-width="0.75"/>
<path fill-rule="evenodd" clip-rule="evenodd" d="M198.741 89.0441C198.501 89.9441 196.901 89.7641 196.961 88.8641C197.021 87.9641 194.461 87.2641 194.341 86.8641C194.221 86.4641 195.421 86.5041 196.341 87.0441C197.261 87.5841 197.961 87.2241 199.021 86.2041C200.081 85.1841 201.581 86.0241 201.761 85.1441C201.941 84.2641 200.041 83.6441 199.761 83.1441C198.982 82.3176 197.842 81.9349 196.721 82.1241C195.421 82.3641 195.361 81.8241 194.581 81.1241C193.801 80.4241 191.441 81.5841 191.441 83.2641C191.441 84.9441 189.941 84.5041 190.481 83.6241C191.021 82.7441 189.761 81.6241 190.961 81.3641C192.161 81.1041 191.501 79.3641 189.301 79.1041C187.101 78.8441 186.261 80.7641 186.801 81.3641C187.341 81.9641 185.321 84.5041 184.421 84.5041C183.521 84.5041 184.541 82.3041 184.421 81.1241C184.301 79.9441 183.521 80.5841 181.861 82.4841C180.201 84.3841 178.961 86.1041 178.001 86.2841C177.041 86.4641 177.161 84.5641 178.721 83.7441C180.281 82.9241 180.321 80.6441 181.321 80.6441C182.321 80.6441 182.341 79.4441 180.861 79.1041C179.381 78.7641 179.121 80.4041 178.661 80.8841C178.201 81.3641 175.741 80.0441 175.801 80.5241C175.861 81.0041 174.501 81.1841 175.081 82.0641C175.661 82.9441 174.781 83.7441 174.201 82.6641C173.621 81.5841 172.201 82.4241 171.401 83.6241C170.601 84.8241 169.741 84.7441 170.441 85.1641C170.803 85.4808 170.973 85.9627 170.892 86.4362C170.81 86.9097 170.488 87.3066 170.041 87.4841C168.961 87.7841 169.381 84.5641 168.541 84.8641C167.701 85.1641 168.241 83.3241 169.381 83.3241C170.421 83.1266 171.254 82.3481 171.521 81.3241C171.321 80.6241 170.101 80.7841 170.101 81.6641C170.101 82.5441 168.301 82.3841 166.821 82.3241C165.341 82.2641 165.401 84.0441 167.061 85.0041C168.721 85.9641 166.761 86.5441 165.941 85.8441C165.006 85.284 163.837 85.284 162.901 85.8441C162.001 86.2641 165.041 87.3441 165.161 87.8441C165.281 88.3441 163.621 87.1841 163.261 87.6041C162.901 88.0241 161.261 87.3041 161.121 86.2841C160.981 85.2641 158.321 86.7041 159.801 87.0641C161.281 87.4241 160.761 88.3641 160.761 89.6841C160.761 91.0041 159.041 89.9841 159.401 88.8441C159.761 87.7041 158.321 87.9441 157.141 88.6641C155.961 89.3841 157.321 87.3641 156.841 86.3441C156.361 85.3241 155.281 86.3441 154.041 86.5841C152.801 86.8241 152.141 86.8841 152.921 87.7241C153.701 88.5641 153.561 89.7241 152.561 89.5641C151.561 89.4041 151.121 89.5641 151.241 90.5041C151.361 91.4441 149.941 91.5241 149.821 90.6841C149.701 89.8441 147.681 90.0841 147.081 91.0441C146.481 92.0041 144.821 92.7041 145.081 93.7841C145.341 94.8641 146.581 93.2441 147.641 93.6041C148.701 93.9641 147.641 94.4841 148.181 95.0241C148.721 95.5641 148.661 96.8641 147.821 96.1041C146.981 95.3441 145.921 95.0841 145.821 96.3441C145.721 97.6041 144.741 96.1641 144.041 95.2641C143.341 94.3641 142.601 96.9241 141.841 96.3441C141.081 95.7641 143.381 93.9041 142.781 93.0041C142.181 92.1041 141.781 93.5441 140.401 95.0041C139.021 96.4641 137.201 96.3241 137.861 97.0041C138.521 97.6841 136.481 98.0241 136.141 99.1441C135.801 100.264 132.981 100.704 131.201 101.884C129.421 103.064 131.561 103.144 132.561 102.004C133.561 100.864 133.941 101.524 135.541 100.524C137.141 99.5241 138.861 98.6841 139.541 99.0841C139.891 99.3835 140.353 99.5178 140.808 99.4527C141.264 99.3876 141.67 99.1294 141.921 98.7441C142.181 98.3196 142.629 98.0465 143.125 98.0107C143.621 97.975 144.104 98.1811 144.421 98.5641C145.181 99.2041 143.101 99.7441 144.061 100.704C145.021 101.664 142.921 102.184 142.921 101.344C142.921 100.504 141.741 99.8041 141.321 100.584C140.901 101.364 140.201 102.184 139.421 102.244C138.641 102.304 137.821 103.724 137.821 105.164C137.821 106.604 136.441 105.164 136.341 106.404C135.547 108.372 134.276 110.111 132.641 111.464C130.981 113.064 132.521 113.464 131.981 114.424C131.441 115.384 129.501 114.544 128.841 114.964C128.181 115.384 129.201 117.884 128.301 118.644C127.401 119.404 128.301 120.484 128.301 121.384C128.301 122.284 125.981 120.844 125.801 121.744C125.621 122.644 123.601 122.404 123.021 122.624C122.441 122.844 124.201 124.304 125.281 125.124C126.361 125.944 124.261 126.624 124.021 125.664C123.781 124.704 122.301 126.264 120.461 127.084C118.621 127.904 119.381 129.584 117.961 129.644C116.541 129.704 116.941 131.964 115.961 132.684C114.981 133.404 115.241 131.024 113.761 130.964C112.281 130.904 112.381 131.964 113.281 133.224C114.181 134.484 111.921 133.504 111.081 134.584C110.241 135.664 107.881 135.124 107.221 136.004C106.561 136.884 109.001 136.904 109.361 137.624C109.721 138.344 107.221 137.964 105.901 137.624C104.581 137.284 104.961 139.304 103.761 139.064C102.561 138.824 101.101 140.064 101.921 140.904C102.741 141.744 101.281 141.864 100.441 141.324C99.6015 140.784 98.9015 142.084 98.6015 143.104C98.3015 144.124 100.201 144.644 100.141 145.104C100.081 145.564 98.6015 146.344 99.6615 146.584C100.721 146.824 99.9615 147.784 99.2615 148.084C98.5615 148.384 98.5415 149.084 99.2615 150.084C99.9815 151.084 98.0015 151.144 98.9615 152.524C99.9215 153.904 100.621 152.164 100.961 153.164C101.301 154.164 102.501 153.284 103.801 152.104C105.101 150.924 105.601 153.404 104.521 153.344C103.441 153.284 102.201 153.944 102.521 155.004C102.841 156.064 100.861 155.904 100.921 154.604C100.981 153.304 98.7215 154.844 99.5415 155.784C100.361 156.724 99.2615 157.264 99.2615 158.164C99.2615 159.064 100.861 158.884 101.501 157.864C101.711 157.426 102.175 157.169 102.657 157.223C103.139 157.277 103.534 157.631 103.641 158.104C104.061 159.124 102.641 158.344 102.641 159.704C102.641 161.064 101.741 159.884 100.981 160.964C100.221 162.044 104.001 163.984 105.201 164.284C106.401 164.584 107.521 165.884 109.901 165.544C112.281 165.204 116.781 160.784 117.381 160.004C117.981 159.224 119.281 160.124 120.181 159.404C121.081 158.684 120.541 156.864 121.181 156.504C121.821 156.144 122.201 158.504 122.801 158.704C123.401 158.904 123.721 159.344 123.741 160.524C124.169 160.43 124.617 160.494 125.001 160.704C125.761 161.264 125.961 158.704 125.961 158.024C125.961 157.344 126.721 155.744 126.541 154.784C126.361 153.824 128.821 154.584 129.201 153.824C129.581 153.064 129.781 150.384 129.021 150.004C128.261 149.624 128.061 148.004 128.821 148.004C129.581 148.004 130.541 147.444 130.361 146.004C130.181 144.564 127.861 144.684 127.681 143.144C127.501 141.604 128.821 141.144 127.861 139.324C126.901 137.504 128.241 136.264 127.861 135.324C127.261 134.019 127.406 132.492 128.241 131.324C129.056 129.83 130.55 128.829 132.241 128.644C133.001 128.844 134.241 129.604 134.921 128.464C135.601 127.324 135.481 126.464 134.921 126.164C134.361 125.864 132.821 125.604 133.961 124.164C135.226 122.59 136.085 120.728 136.461 118.744C136.641 117.024 136.081 115.684 136.641 115.124C137.201 114.564 138.641 115.124 139.701 114.364C140.761 113.604 139.901 112.644 140.461 112.064C141.021 111.484 141.801 109.584 142.561 109.004C143.321 108.424 144.101 107.664 143.521 107.004C142.941 106.344 144.661 105.484 144.661 104.144C144.661 102.804 146.661 101.844 147.721 101.844C148.781 101.844 150.781 101.844 150.781 100.704C150.781 99.5641 150.021 97.0641 151.741 97.8441C153.461 98.6241 154.781 97.6441 155.941 98.6041C157.101 99.5641 158.601 99.3641 158.601 97.8441C158.601 96.3241 159.181 93.8441 160.901 94.7841L161.301 95.0241C161.664 93.8533 162.736 93.047 163.961 93.0241C165.481 93.2241 166.441 95.8841 168.361 96.2641C170.281 96.6441 172.181 97.4241 172.741 96.4641C173.301 95.5041 174.741 97.0241 175.801 96.6441C176.861 96.2641 176.941 98.7641 178.101 97.2241C179.261 95.6841 177.901 94.7441 179.821 94.9441C181.741 95.1441 180.581 92.8241 180.581 91.5041C180.581 90.1841 183.061 89.9641 183.061 88.8241C183.061 87.6841 186.501 88.6241 187.061 87.8641C187.621 87.1041 189.541 86.5241 190.301 87.8641C191.061 89.2041 194.301 89.5841 194.501 90.7241C194.552 91.4699 194.552 92.2183 194.501 92.9641C194.978 92.4408 195.636 92.119 196.341 92.0641C197.541 92.0641 198.601 90.2841 199.681 90.5041C200.761 90.7241 201.441 90.5041 201.681 89.0641C200.781 88.3041 198.961 88.2241 198.741 89.0441ZM126.841 12.7441C128.541 13.1041 125.061 14.9841 124.521 16.7441C123.981 18.5041 127.201 19.9641 128.521 21.2041C130.239 22.2787 132.383 22.4141 134.221 21.5641C135.381 20.8641 135.021 18.3641 136.541 18.4441C138.061 18.5241 137.261 17.1041 138.541 16.6641C139.821 16.2241 139.981 17.8241 138.901 19.0641C137.821 20.3041 140.781 20.2241 142.381 18.7241C143.981 17.2241 144.381 18.7241 143.981 20.0441C143.581 21.3641 140.321 20.6841 139.161 22.2841C138.001 23.8841 134.441 22.6441 132.841 24.4241C131.241 26.2041 134.261 26.3041 136.501 25.8441C139.138 25.3498 141.831 25.2286 144.501 25.4841C146.101 25.8441 143.521 26.3841 140.841 26.3841C138.161 26.3841 137.281 27.1841 137.361 27.9041C137.441 28.6241 133.621 27.1041 133.361 28.7041C133.101 30.3041 136.941 30.9241 137.361 31.9041C137.781 32.8841 140.301 32.0041 141.361 32.3641C142.421 32.7241 139.761 33.4241 139.361 33.8641C138.961 34.3041 142.121 34.9441 142.661 35.8641C143.201 36.7841 145.421 36.3041 145.321 35.0441C145.221 33.7841 147.321 28.8041 149.961 27.8241C152.601 26.8441 151.121 25.9641 151.481 24.4441C151.841 22.9241 153.981 24.1841 153.361 22.9241C152.741 21.6641 153.081 21.1441 154.781 19.5441C156.481 17.9441 157.541 19.0841 159.601 18.1041C161.661 17.1241 162.621 18.8241 160.401 19.0041C158.181 19.1841 159.421 21.4041 161.021 22.0441C162.621 22.6841 161.201 23.1841 162.461 23.4641C163.721 23.7441 163.341 25.6041 161.741 27.3041C160.141 29.0041 162.181 29.3041 165.581 28.1041C168.981 26.9041 166.821 29.1641 167.801 30.1041C168.781 31.0441 171.461 29.4041 172.881 27.7041C174.301 26.0041 176.441 26.2841 176.361 25.3841C176.281 24.4841 174.761 24.1441 173.501 24.6641C172.241 25.1841 169.141 24.8441 170.201 23.8641C171.261 22.8841 171.101 22.0841 169.501 22.2641C167.901 22.4441 165.041 21.6441 166.381 21.1041C167.721 20.5641 165.401 18.7841 164.141 18.8641C162.881 18.9441 163.261 17.5441 163.341 16.5641C163.421 15.5841 159.781 15.1241 160.481 14.7641C161.181 14.4041 158.981 13.6041 158.481 14.3241C158.278 14.6823 157.849 14.8458 157.459 14.7141C157.068 14.5824 156.826 14.1923 156.881 13.7841C156.881 12.7241 154.201 12.9841 153.121 13.0841C152.041 13.1841 152.601 10.7641 151.521 9.96408C150.441 9.16408 149.021 11.5641 148.221 11.3841C147.421 11.2041 148.841 9.60408 149.301 8.52408C149.761 7.44408 145.541 6.02408 145.101 7.10408C144.661 8.18408 143.861 5.50408 142.961 5.22408C142.061 4.94408 142.781 7.00408 141.981 7.22408C141.181 7.44408 140.101 8.20408 141.441 9.10408C142.862 10.8053 143.734 12.8973 143.941 15.1041C143.761 15.8241 139.661 11.9041 139.481 10.0241C139.301 8.14408 137.261 6.64408 136.721 8.02408C136.181 9.40408 134.721 9.88408 135.121 11.2241C135.521 12.5641 134.041 13.0041 134.041 11.9441C134.041 10.8841 131.821 9.62408 131.021 9.52408C130.221 9.42408 133.021 8.90408 134.401 8.28408C135.781 7.66408 133.241 6.76408 132.081 7.48408C130.921 8.20408 129.421 7.02408 128.701 8.02408C127.981 9.02408 127.101 8.02408 125.841 7.74408C124.581 7.46408 123.521 9.52408 122.641 9.16408C121.761 8.80408 121.201 10.9641 122.641 13.1641C124.081 15.3641 125.161 12.4641 126.841 12.7441ZM123.181 19.9641C124.261 20.2441 125.061 21.9641 126.041 21.9641C126.481 21.9641 124.521 19.7241 123.361 18.4841C122.201 17.2441 122.301 15.9841 120.701 16.4841C119.101 16.9841 122.121 19.7841 123.181 20.0441V19.9641ZM151.541 5.52408C152.341 6.14408 150.221 6.16408 151.101 7.04408C153.781 9.72408 164.301 6.68408 165.721 7.48408C167.141 8.28408 156.901 9.26408 157.341 10.3441C157.781 11.4241 166.161 12.3441 166.801 11.5841C167.441 10.8241 168.801 13.0241 171.601 13.2041C174.401 13.3841 174.101 12.1241 176.161 12.0441C178.221 11.9641 181.241 10.9641 181.321 9.80408C181.401 8.64408 187.321 7.22408 186.861 5.26408C186.401 3.30408 180.521 4.64408 178.861 3.82408C177.201 3.00408 173.501 1.96408 172.861 3.20408C172.221 4.44408 171.181 4.80408 170.641 4.28408C170.101 3.76408 170.901 0.884083 168.321 1.68408C165.741 2.48408 168.141 5.26408 167.601 5.68408C167.061 6.10408 164.581 5.14408 164.401 3.88408C164.221 2.62408 161.441 5.22408 161.101 3.72408C160.761 2.22408 157.441 1.12408 156.721 1.22408C156.001 1.32408 157.441 2.28408 157.001 3.00408C156.561 3.72408 154.761 2.28408 154.041 2.20408C153.321 2.12408 154.501 3.72408 154.141 4.42408C153.781 5.12408 152.361 2.28408 151.101 2.28408C149.841 2.28408 150.301 3.72408 149.421 3.80408C148.541 3.88408 150.741 4.98408 151.541 5.60408V5.52408Z" fill="#294F6E" stroke="#002F57" stroke-width="0.75"/>
<path fill-rule="evenodd" clip-rule="evenodd" d="M166.162 182.523C165.26 182.654 164.355 182.315 163.762 181.623C163.402 181.123 162.302 181.323 161.322 181.403C161.58 181.552 161.794 181.766 161.942 182.023C162.482 182.963 159.802 183.083 160.642 184.223C161.482 185.363 158.742 185.403 158.742 184.223C158.742 183.043 155.882 183.623 156.002 184.403C156.033 184.735 155.948 185.067 155.762 185.343L157.762 186.083C161.211 186.657 164.717 186.805 168.202 186.523C168.188 185.634 168.241 184.745 168.362 183.863C168.402 183.143 166.702 182.263 166.162 182.523Z" fill="#294F6E" stroke="#002F57" stroke-width="0.75"/>
<path fill-rule="evenodd" clip-rule="evenodd" d="M136.922 269.583C134.482 270.123 133.482 270.303 132.042 269.583C130.602 268.863 128.302 270.243 128.662 271.183C129.022 272.123 129.842 272.683 132.822 273.443C135.802 274.203 136.142 276.243 137.402 276.303C138.662 276.363 138.762 275.183 138.462 273.563C138.162 271.943 139.962 270.123 140.122 269.823C140.282 269.523 139.362 269.043 136.922 269.583ZM113.922 256.083C112.602 257.223 111.522 255.903 111.002 256.803C110.482 257.703 113.002 259.663 112.482 261.983C111.962 264.303 112.782 267.203 114.162 265.843C115.542 264.483 116.162 265.123 116.942 264.123C117.722 263.123 117.062 259.363 117.602 257.583C118.142 255.803 115.222 254.963 113.922 256.083ZM143.042 254.183C141.502 253.243 142.502 251.703 140.082 251.803C137.662 251.903 134.722 248.903 133.842 245.383C132.962 241.863 129.142 241.703 128.182 239.623C127.222 237.543 129.082 237.303 128.182 235.623C127.722 234.663 128.742 233.823 129.962 233.343C129.897 231.561 129.964 229.776 130.162 228.003C129.48 227.961 128.807 227.826 128.162 227.603C127.722 227.323 127.622 225.903 127.362 225.903C127.102 225.903 124.602 225.903 124.142 226.343C123.682 226.783 122.362 227.603 121.662 227.143L121.162 226.883L120.382 227.603C120.382 227.603 120.262 228.543 119.782 228.543C119.302 228.543 118.602 228.203 118.602 229.023C118.602 229.843 117.282 229.623 116.602 229.503C115.922 229.383 115.182 229.623 115.182 230.323C115.182 231.023 115.062 232.583 114.122 231.763C113.182 230.943 112.122 228.783 111.862 229.023C111.602 229.263 110.662 231.883 109.862 231.883C109.062 231.883 107.642 232.003 106.422 232.123C106.102 233.143 106.422 233.763 106.882 234.123C107.342 234.483 106.622 235.463 106.082 235.723C105.542 235.983 104.642 235.723 105.282 236.703C105.922 237.683 107.062 237.763 106.442 238.703C106.128 239.054 106.048 239.556 106.238 239.987C106.427 240.417 106.851 240.698 107.322 240.703C108.222 240.703 109.462 240.703 109.202 241.323C108.998 241.758 108.843 242.214 108.742 242.683C109.426 242.567 110.096 242.379 110.742 242.123C112.002 241.463 111.462 240.343 113.542 239.743C115.712 239.472 117.862 240.379 119.182 242.123C120.022 243.363 120.262 243.483 120.442 244.503C120.971 246.59 122.349 248.359 124.242 249.383C127.102 251.223 128.242 253.383 129.702 254.063C131.162 254.743 132.682 254.663 133.582 255.743C134.558 256.771 135.755 257.564 137.082 258.063C138.502 258.703 138.562 260.263 139.942 260.443C141.322 260.623 140.402 261.803 141.242 262.803C142.159 264.093 142.229 265.802 141.422 267.163C140.522 268.343 141.002 270.363 141.602 270.363C142.202 270.363 143.442 268.223 143.602 267.023C143.762 265.823 144.962 265.903 145.922 264.663C146.882 263.423 144.482 263.103 144.082 261.503C143.682 259.903 145.862 258.463 147.942 259.783C150.022 261.103 150.862 261.983 150.962 259.963C151.062 257.943 144.582 255.143 143.042 254.183Z" fill="#294F6E" stroke="#002F57" stroke-width="0.75"/>
<path fill-rule="evenodd" clip-rule="evenodd" d="M152.782 244.403C152.044 245.263 151.516 246.284 151.242 247.383C151.258 247.803 151.203 248.222 151.082 248.623C151.97 249.405 152.92 250.114 153.922 250.743L154.142 250.863C154.382 249.543 155.282 248.163 155.942 248.003C155.022 246.883 153.742 245.283 152.782 244.403Z" fill="#294F6E" stroke="#002F57" stroke-width="0.75"/>
<path fill-rule="evenodd" clip-rule="evenodd" d="M166.881 243.424C166.473 243.082 166.237 242.577 166.237 242.044C166.237 241.511 166.473 241.006 166.881 240.664C167.681 240.124 166.881 239.424 166.881 238.524C166.881 237.624 163.061 237.364 162.441 237.184C161.821 237.004 162.881 234.684 161.901 234.684C161.526 234.704 161.16 234.558 160.902 234.284C160.644 234.011 160.52 233.638 160.561 233.264C160.561 232.544 159.041 231.384 159.141 230.944C159.15 230.873 159.186 230.809 159.241 230.764L158.121 230.584C157.531 230.439 156.95 230.259 156.381 230.044C156.381 230.044 153.921 230.844 152.201 231.364C152.321 232.424 152.581 233.564 153.241 233.804C154.521 234.284 154.041 235.564 154.521 236.684C155.001 237.804 154.841 242.904 154.201 242.904C153.941 242.904 153.321 243.584 152.701 244.404C153.581 245.284 154.941 246.884 155.861 248.004H155.981C157.315 248.533 158.567 249.246 159.701 250.124C159.701 250.124 163.841 249.264 166.641 248.864C166.677 248.458 166.677 248.05 166.641 247.644C166.62 246.856 167.184 246.173 167.961 246.044C168.941 246.024 167.741 244.224 166.881 243.424Z" fill="#294F6E" stroke="#002F57" stroke-width="0.75"/>
</svg>
