<?xml version="1.0" encoding="UTF-8"?>
<svg width="117px" height="108px" viewBox="0 0 117 108" version="1.1" xmlns="http://www.w3.org/2000/svg" xmlns:xlink="http://www.w3.org/1999/xlink">
    <title>european-union</title>
    <g id="Symbols" stroke="none" stroke-width="1" fill="none" fill-rule="evenodd">
        <g id="icons-/-x-large-/-light-/-eu" fill-rule="nonzero">
            <g id="european-union">
                <path d="M1.71386719,102.377285 C1.39897266,102.377285 1.0852207,102.290678 0.809173828,102.119062 C0.305982422,101.806225 0,101.25573 0,100.663418 L0,7.19595703 C0,6.54377344 0.370195313,5.9480332 0.954966797,5.65918945 C20.44575,-3.96566016 40.0009746,0.862417969 58.9120137,5.53144922 C68.1435879,7.81066406 77.6895996,10.1675742 86.9990977,10.742291 C97.4491172,11.3871621 106.197152,9.77224219 114.527461,5.65918945 C115.05876,5.39685352 115.687863,5.42747461 116.190826,5.7403125 C116.694018,6.05315039 117,6.60341602 117,7.19595703 L117,17.7945117 C117,18.7410234 116.232645,19.5083789 115.286133,19.5083789 C114.339621,19.5083789 113.572266,18.7410234 113.572266,17.7945117 L113.572266,9.87690234 C94.9027676,17.9473887 76.2008203,13.3306875 58.0905,8.85909375 C48.8584688,6.57965039 39.312,4.22274023 30.0022734,3.64825195 C19.9503281,3.02783203 11.473084,4.49901562 3.42773438,8.27272266 L3.42773438,97.9806445 C8.52271875,95.7727266 13.8107988,94.4180859 19.5113496,93.8547949 C20.453291,93.7624746 21.2921719,94.4498496 21.3854062,95.391791 C21.4784121,96.3337324 20.7903516,97.1728418 19.8484102,97.2658477 C13.638041,97.8796406 7.95440039,99.493418 2.47253906,102.199957 C2.23282617,102.318557 1.97300391,102.377285 1.71386719,102.377285 Z" id="Path" fill="#FFFFFF"></path>
                <path d="M91.2869648,107.762027 C80.0965547,107.762027 68.9868105,105.018926 58.0886719,102.328154 C47.7030937,99.7639805 36.964002,97.1125137 26.5032422,96.9866016 C25.5567305,96.9751758 24.7987441,96.1986797 24.8100424,95.252168 C24.8215957,94.3056563 25.5921504,93.5467559 26.5446035,93.5590957 C37.4013809,93.6900352 48.3358535,96.3897188 58.9104141,99.0005098 C68.1424453,101.279953 77.6886855,103.636863 86.9984121,104.211352 C97.0512715,104.831543 105.527602,103.360588 113.572723,99.5866523 L113.572723,24.6499805 C113.572723,23.7034688 114.340078,22.9361133 115.28659,22.9361133 C116.233102,22.9361133 117.000457,23.7034688 117.000457,24.6499805 L117.000457,100.663418 C117.000457,101.315602 116.630262,101.911342 116.04549,102.200186 C107.786479,106.278275 99.5144414,107.762027 91.2869648,107.762027 Z" id="Path" fill="#FFFFFF"></path>
                <g id="Group" transform="translate(17.595703, 11.882812)" fill="#B6E8FB">
                    <g transform="translate(30.621094, 0.000000)" id="Shape">
                        <path d="M14.6853281,21.0261797 C13.7420156,21.0261797 12.7575703,20.6660391 11.912748,19.9699805 C11.3585977,19.5145488 10.8028477,19.056375 10.2468691,18.5979727 C9.91597852,18.3248965 9.65409961,18.3059297 9.60679688,18.3152988 C9.05378906,18.4405254 8.50055273,18.566209 7.94754492,18.6932637 C6.63289453,18.9923906 5.18319141,18.5335312 4.06666406,17.4663633 C2.88386719,16.336125 2.33177344,14.808041 2.58931055,13.3793613 L2.9074043,11.6149922 C2.93299805,11.4728555 2.87312695,11.1383086 2.60279297,10.7996484 C2.15535938,10.2390996 1.70769727,9.68037891 1.26026367,9.12417188 C0.106488281,7.69686328 -0.135052734,5.86873828 0.64715625,4.47022266 C1.31853516,3.27005859 2.63044336,2.64072656 4.07191992,2.82765234 C4.70262305,2.91106055 5.32898438,2.99789648 5.95580273,3.08770313 C5.96837109,3.08953125 5.97956836,3.09067383 5.98939453,3.09135938 L6.76771875,1.74540234 C7.39339453,0.663380859 8.54351367,0.0623847656 9.84193945,0.139394531 C11.532498,0.239027344 13.1593008,1.44581836 13.8894082,3.14231836 L13.8894082,3.14254688 L14.7216621,5.07578906 C14.8795664,5.44232813 15.1992598,5.7739043 15.5358633,5.91992578 C16.1514844,6.18706055 16.766877,6.45122461 17.382498,6.71173242 C18.9935332,7.38905273 20.1580488,8.92284961 20.3463457,10.61775 C20.4939668,11.9479395 19.97775,13.1725547 18.9654258,13.89375 C18.5262188,14.2043027 18.0918105,14.5089141 17.6576309,14.8114688 C17.6526035,14.8457461 17.6500898,14.9056172 17.6638008,14.9892539 L17.981666,16.9325508 C18.2339473,18.4738887 17.6251816,19.8714902 16.3932539,20.5798887 C15.8722383,20.8794727 15.2870098,21.0259512 14.6853281,21.0261797 L14.6853281,21.0261797 Z M9.62279297,14.8871074 C10.5843867,14.8871074 11.5898555,15.261873 12.4282793,15.9535898 C12.9824297,16.4108496 13.5365801,16.8674238 14.090502,17.3228555 C14.3194746,17.5113809 14.5029727,17.5762793 14.610375,17.5945605 C14.6092324,17.564625 14.6058047,17.528291 14.5989492,17.4855586 L14.2808555,15.5422617 C14.0491406,14.1263789 14.5717559,12.7829355 15.6446367,12.035918 C16.0769883,11.7347344 16.5095684,11.4314941 16.9421484,11.1257402 C16.9878516,10.8862559 16.7341992,10.156834 16.050709,9.86958984 C15.4220625,9.60382617 14.7968437,9.33532031 14.1713965,9.06384375 C13.0269902,8.5672793 12.0800215,7.60774219 11.5734023,6.43111523 L10.7406914,4.49695898 C10.4767559,3.88430859 9.93380273,3.59249414 9.67672266,3.56141602 L8.9022832,4.90051758 C8.22039258,6.08080078 6.90551367,6.68613867 5.46906445,6.48024609 C4.85481445,6.39226758 4.24056445,6.30703125 3.62631445,6.22567969 C3.62494336,6.22545117 3.62357227,6.22545117 3.62220117,6.22522266 C3.61420312,6.36827344 3.66767578,6.64957617 3.92795508,6.9717832 C4.38064453,7.53438867 4.83104883,8.09676562 5.28145312,8.6609707 C6.11964844,9.71145703 6.49304297,11.0427891 6.28029492,12.2226152 L5.96242969,13.9867559 C5.92038281,14.2198418 6.06914648,14.6384824 6.43454297,14.9878828 C6.74555273,15.2851816 7.05861914,15.3793301 7.18316016,15.3512227 C7.73639648,15.224168 8.29306055,15.0975703 8.84995312,14.9714297 C9.10177734,14.9149863 9.36068555,14.8871074 9.62279297,14.8871074 L9.62279297,14.8871074 Z"></path>
                        <path d="M14.6853281,82.8481113 C13.7420156,82.8481113 12.7575703,82.4879707 11.912748,81.7919121 C11.3585977,81.3364805 10.8028477,80.8783066 10.2468691,80.4199043 C9.91575,80.1465996 9.65387109,80.1274043 9.60702539,80.1372305 C9.05401758,80.262457 8.50078125,80.3881406 7.94754492,80.5151953 C6.63289453,80.8143223 5.18319141,80.3554629 4.06666406,79.2882949 C2.88386719,78.1580566 2.33177344,76.6302012 2.58931055,75.201293 L2.9074043,73.4369238 C2.93299805,73.2947871 2.87312695,72.9602402 2.60279297,72.6215801 C2.15535938,72.0610313 1.70769727,71.5023105 1.26026367,70.9461035 C0.106488281,69.5187949 -0.135052734,67.6906699 0.64715625,66.2921543 C1.31853516,65.0919902 2.63044336,64.4624297 4.07191992,64.649584 C4.70239453,64.7329922 5.32898438,64.8198281 5.95580273,64.9096348 C5.96837109,64.9114629 5.97956836,64.9126055 5.98939453,64.913291 L6.76771875,63.567334 C7.39339453,62.4853125 8.54168555,61.885002 9.84193945,61.9613262 C11.532498,62.060959 13.1593008,63.26775 13.8894082,64.96425 L13.8894082,64.9644785 L14.7216621,66.8977207 C14.8795664,67.2644883 15.1992598,67.5958359 15.5358633,67.7418574 C16.1514844,68.0089922 16.766877,68.2733848 17.382498,68.5336641 C18.9937617,69.2109844 20.1582773,70.7447812 20.3463457,72.4399102 C20.4939668,73.7700996 19.97775,74.9947148 18.9654258,75.7159102 C18.5262188,76.0264629 18.0918105,76.3313027 17.6576309,76.6338574 C17.6526035,76.6681348 17.6500898,76.7280059 17.6638008,76.8114141 L17.981666,78.7547109 C18.2339473,80.2960488 17.6251816,81.6936504 16.3932539,82.4020488 C15.8722383,82.7014043 15.2870098,82.8481113 14.6853281,82.8481113 L14.6853281,82.8481113 Z M9.62279297,76.7092676 C10.5843867,76.7092676 11.589627,77.0840332 12.4282793,77.77575 C12.9824297,78.2330098 13.5365801,78.6898125 14.090502,79.1450156 C14.3194746,79.333541 14.5029727,79.3984395 14.610375,79.4167207 C14.6092324,79.3867852 14.6058047,79.3504512 14.5989492,79.3077188 L14.2808555,77.3644219 C14.0491406,75.9485391 14.5717559,74.6050957 15.6446367,73.8580781 C16.0769883,73.5568945 16.5095684,73.2536543 16.9421484,72.9479004 C16.9878516,72.708416 16.7341992,71.9789941 16.050709,71.69175 C15.4220625,71.4259863 14.7966152,71.1574805 14.171168,70.8860039 C13.0269902,70.389668 12.0800215,69.4301309 11.5731738,68.2532754 L10.7404629,66.3191191 C10.4767559,65.7064688 9.93357422,65.4146543 9.67649414,65.3835762 L8.90205469,66.7229063 C8.22016406,67.9029609 6.90551367,68.5085273 5.46883594,68.3028633 C4.85458594,68.2148848 4.24033594,68.1296484 3.62608594,68.0482969 C3.62471484,68.0480684 3.62334375,68.0480684 3.62197266,68.0478398 C3.61397461,68.1908906 3.66744727,68.4721934 3.92772656,68.7944004 C4.38041602,69.3570059 4.83082031,69.9193828 5.28122461,70.4835879 C6.11941992,71.5340742 6.49281445,72.8656348 6.28006641,74.0452324 L5.96220117,75.809373 C5.9201543,76.042459 6.06891797,76.4610996 6.43431445,76.8105 C6.74555273,77.1077988 7.05930469,77.2021758 7.18293164,77.1738398 C7.73616797,77.0467852 8.29283203,76.9201875 8.84972461,76.7940469 C9.10177734,76.7371465 9.36068555,76.7092676 9.62279297,76.7092676 L9.62279297,76.7092676 Z"></path>
                    </g>
                    <g transform="translate(8.226562, 14.167969)" id="Shape">
                        <path d="M53.2674492,20.2528828 C53.0542441,20.2528828 52.8387539,20.2352871 52.6225781,20.1991816 C51.0599883,19.9389023 49.7528789,18.7689023 49.2924199,17.2188809 L48.7348418,15.355793 C48.6546328,15.0870586 48.4338867,14.8404902 48.1587539,14.7116074 C47.5605,14.4314473 46.9437363,14.1332344 46.3256016,13.8254238 C44.773752,13.0416152 43.7787949,11.4612012 43.781759,9.79486523 C43.7842793,8.40457617 44.496334,7.21880859 45.6864434,6.62261133 C46.1839219,6.36873047 46.6907695,6.10410937 47.1813926,5.84177344 C47.2035586,5.82989062 47.2346367,5.76339258 47.2332656,5.65347656 L47.2092715,3.76913672 C47.1905332,2.30755078 47.9741133,1.01780859 49.2544863,0.403330078 C50.6456895,-0.264621094 52.3643555,-0.0219375 53.6328457,1.02146484 C54.1380937,1.44170508 54.6362578,1.84754883 55.1204824,2.23419727 C55.2660469,2.35051172 55.4346914,2.38753125 55.5836836,2.33657227 C56.1625137,2.14096289 56.7390586,1.93255664 57.2996074,1.71660937 C58.7890723,1.14989062 60.3868535,1.44307617 61.4766445,2.47916602 C62.5305586,3.48120703 62.8920703,5.00951953 62.419957,6.46767773 C62.419957,6.46813477 62.4197285,6.4685918 62.4195,6.46927734 C62.2179492,7.0901543 62.0161699,7.70920312 61.8143906,8.32619531 C61.7508633,8.52043359 61.7821699,8.68039453 61.8413555,8.75260547 C62.2099512,9.2020957 62.5796895,9.64655859 62.9496562,10.0843945 C63.846123,11.1268828 64.0584141,12.6485684 63.4939805,14.0441133 C62.8767598,15.5701406 61.5200625,16.6078301 59.9529023,16.752709 C59.2966055,16.8096094 58.6334531,16.8491426 57.9714434,16.8713086 C57.7520684,16.8788496 57.5500605,16.9819102 57.4330605,17.1468984 C57.0681211,17.6612871 56.7031816,18.171334 56.3380137,18.6763535 C55.6243594,19.678166 54.4849805,20.2528828 53.2674492,20.2528828 L53.2674492,20.2528828 Z M47.2243535,9.68449219 C47.2069863,9.73133789 47.1932754,9.86730469 47.2504043,10.0501172 C47.2951934,10.193625 47.4444141,10.5505664 47.8623691,10.7617148 C48.4473691,11.0530723 49.0389961,11.3389453 49.6123418,11.6074512 C50.7800566,12.1542891 51.6573281,13.162957 52.0190684,14.3747754 L52.576875,16.2385488 C52.6874766,16.6108008 52.9738066,16.7826445 53.1860977,16.8178359 C53.4248965,16.8573691 53.5117324,16.7360273 53.5533223,16.6775273 C53.9194043,16.1711367 54.2781738,15.6697734 54.6374004,15.1636113 C55.369793,14.1314062 56.5729277,13.4892773 57.856043,13.4454023 C58.4588672,13.425293 59.0610059,13.389416 59.647377,13.3386855 C59.9563301,13.3101211 60.2081543,13.0267617 60.3164707,12.7591699 C60.3916523,12.5731582 60.4021641,12.3789199 60.3406934,12.3073945 C59.9506172,11.8455645 59.5703672,11.3885332 59.1903457,10.9251035 C58.3702031,9.92329102 58.1334609,8.55379687 58.5566719,7.26062695 C58.7575371,6.64591992 58.9586309,6.02892773 59.1597246,5.41010742 C59.2259941,5.20467187 59.2109121,5.05408008 59.1151641,4.96313086 C59.0173594,4.86989648 58.8107812,4.80911133 58.5255937,4.91742773 C57.9275684,5.148 57.3055488,5.37263086 56.6837578,5.58286523 C55.4257793,6.00973242 54.0409746,5.75905078 52.9815762,4.91194336 C52.4804414,4.51204102 51.9639961,4.09111523 51.4482363,3.66219141 C51.1406543,3.40922461 50.8563809,3.43596094 50.7382383,3.49286133 C50.689793,3.51616992 50.6347207,3.54267773 50.6370059,3.72480469 L50.661,5.60960156 C50.6785957,6.99326367 49.9647129,8.24027344 48.7981406,8.86434961 C48.2878652,9.13719727 47.7613652,9.41210156 47.2330371,9.68175 C47.2275527,9.68426367 47.2252676,9.6847207 47.2243535,9.68449219 L47.2243535,9.68449219 Z"></path>
                        <path d="M9.40204688,54.6815039 C9.17581641,54.6815039 8.9475293,54.6627656 8.71878516,54.6246035 C7.23777539,54.3771211 6.03806836,53.3499434 5.58812109,51.9436582 C5.40028125,51.3492891 5.21449805,50.7626895 5.02848633,50.1772324 C5.00860547,50.1143906 4.95696094,50.0053887 4.83493359,49.9809375 C4.2661582,49.8673652 3.69601172,49.7691035 3.14026172,49.688666 C1.74357422,49.5031113 0.660867187,48.6036738 0.242455078,47.2803398 C-0.238798828,45.7588828 0.286787109,44.0100527 1.58155664,42.8249707 C2.11308398,42.3494297 2.64186914,41.8896562 3.16791211,41.4449648 C3.38705859,41.2598672 3.52096875,41.0046152 3.51822656,40.7781562 L3.49423242,38.9002148 C3.47435156,37.3236855 4.3772168,35.8406191 5.79492773,35.1214805 C7.1296875,34.4443887 8.68702148,34.5712148 9.85884961,35.4521426 C10.3508437,35.8145684 10.8691172,36.2067012 11.3864766,36.6077461 C11.561291,36.7430273 11.7918633,36.796043 11.9870156,36.7448555 C12.5843555,36.5883223 13.2034043,36.4377305 13.8249668,36.2981074 C15.2394785,35.9781855 16.7613926,36.5051426 17.7938262,37.674 C18.8413418,38.8597676 19.1836582,40.4529785 18.6870937,41.8318418 L18.083584,43.5130313 C18.0381094,43.6398574 18.0646172,43.8775137 18.2264063,44.1206543 C18.6036855,44.6878301 18.9802793,45.257748 19.3571016,45.8308652 C20.2892168,47.2595449 20.3420039,48.9457617 19.4983242,50.2359609 C18.713373,51.4363535 17.2958906,52.0272949 15.7975137,51.7766133 C15.187377,51.677209 14.5747266,51.5880879 13.9826426,51.5126777 C13.8544453,51.4964531 13.7573262,51.5311875 13.6935703,51.6164238 C13.3338867,52.0979063 12.9748887,52.5830449 12.6158906,53.0727539 C11.8499063,54.1006172 10.6618535,54.6815039 9.40204688,54.6815039 L9.40204688,54.6815039 Z M3.52576758,46.2780703 C3.53102344,46.2780703 3.55478906,46.2858398 3.59409375,46.2908672 C3.60254883,46.2920098 3.61100391,46.2931523 3.61923047,46.2942949 C4.23873633,46.3836445 4.87355273,46.4931035 5.5063125,46.6194727 C6.81593555,46.881123 7.88470313,47.8468301 8.2953457,49.139543 C8.48181445,49.7265996 8.66805469,50.3150273 8.85452344,50.9045977 C8.92879102,51.1367695 9.1289707,51.2176641 9.28321875,51.2434863 C9.39610547,51.2622246 9.67763672,51.2793633 9.8602207,51.0343945 C10.2171621,50.5474277 10.5821016,50.054291 10.9472695,49.5654961 C11.7564434,48.4809609 13.0548691,47.9373223 14.4172793,48.1121367 C15.0475254,48.1923457 15.7003945,48.2874082 16.3562344,48.3943535 C16.4140488,48.4039512 16.5856641,48.4270312 16.6299961,48.3596191 C16.6873535,48.2718691 16.6974082,48.0259863 16.489916,47.7081211 C16.1199492,47.1450586 15.7465547,46.5803965 15.3733887,46.0193906 C14.6295703,44.9024063 14.4360176,43.5329121 14.8567148,42.3571992 L15.4615957,40.6712109 C15.4618242,40.6707539 15.4618242,40.6702969 15.4620527,40.6698398 C15.5310645,40.4781152 15.4334883,40.1792168 15.2248535,39.9429316 C15.0726621,39.7708594 14.8119258,39.5882754 14.5786113,39.6415195 C13.9938398,39.772916 13.4145527,39.9136816 12.8537754,40.0606172 C11.6323594,40.3789395 10.3003418,40.1008359 9.28756055,39.3174844 C8.79076758,38.932207 8.29466016,38.5569844 7.81180664,38.2011855 C7.74599414,38.1518262 7.60591406,38.0460234 7.34517773,38.1781055 C7.14705469,38.2786523 6.91693945,38.5165371 6.92150977,38.8561113 L6.94550391,40.7340527 C6.9615,41.9961445 6.39089648,43.2095625 5.37994336,44.0630684 C4.87880859,44.4867363 4.37424609,44.9254863 3.88110938,45.3665215 C3.45424219,45.7572832 3.46201172,46.1953477 3.524625,46.2792129 C3.52439648,46.2785273 3.524625,46.2780703 3.52576758,46.2780703 L3.52576758,46.2780703 Z"></path>
                    </g>
                    <g transform="translate(0.000000, 26.507812)" id="Shape">
                        <path d="M72.6341484,28.1837461 C71.8402852,28.1837461 71.084584,27.9225527 70.4753613,27.4154766 C70.032041,27.0537363 69.5818652,26.6771426 69.1371738,26.29575 C69.0864434,26.2521035 68.9269395,26.208 68.7036797,26.2694707 C68.0704629,26.4454277 67.4187363,26.6088164 66.7690664,26.7546094 C65.2766309,27.0873281 63.7739121,26.5347773 62.8452246,25.3135898 C61.8909434,24.058582 61.7556621,22.4203535 62.4923965,21.038291 C62.7800977,20.4939668 63.070541,19.9411875 63.3607559,19.385209 C63.4466777,19.2206777 63.4487344,19.0287246 63.3657832,18.8724199 C63.0721406,18.3173555 62.7791836,17.7602344 62.485998,17.1999141 C61.7887969,15.8553281 61.8831738,14.3210742 62.7362227,13.0905176 C63.6000117,11.8441934 65.080793,11.1833262 66.5981367,11.3661387 C67.1881641,11.4360645 67.7816191,11.4909082 68.3590781,11.5283848 C68.5082988,11.5384395 68.7448125,11.444748 68.9385937,11.2132617 C69.3732305,10.6940742 69.8087812,10.1650605 70.2335918,9.63993164 C71.4118184,8.21216602 73.2365156,7.54787109 74.784252,7.97268164 C76.0449727,8.31888281 76.919959,9.31475391 77.1249375,10.6364883 L77.3664785,12.2137031 C77.7951738,12.2463809 78.2247832,12.2674043 78.6463945,12.2763164 C79.8824355,12.2806582 80.8924746,12.9438105 81.351334,14.0539395 C81.9930059,15.6062461 81.3691582,17.7520078 79.8342187,19.2720938 C79.8294199,19.2768926 79.8243926,19.2816914 79.8195937,19.2864902 C79.2501328,19.8369844 78.667418,20.380623 78.0874453,20.9018672 C77.7195352,21.2325293 77.4496582,21.6795059 77.3998418,22.0407891 L77.1292793,23.9982539 C76.8943652,25.717377 75.6514687,27.2927637 74.0370059,27.9154687 C73.570377,28.0955391 73.09575,28.1837461 72.6341484,28.1837461 L72.6341484,28.1837461 Z M72.6430605,24.7603535 L72.6437461,24.7603535 C72.9261914,24.7603535 73.6339043,24.2576191 73.7330801,23.531625 L74.0038711,21.572332 C74.1649746,20.4048457 74.8180723,19.231418 75.7956621,18.3527754 C76.3418145,17.8616953 76.891166,17.3493633 77.4286348,16.8301758 C77.8491035,16.4115352 78.0495117,15.9862676 78.1313203,15.6903398 C77.6870859,15.6734297 77.2380527,15.6450938 76.7913047,15.6057891 C75.3523418,15.4782773 74.2342148,14.4010547 74.0077559,12.9253008 L73.7547891,11.2740469 C73.5541523,11.2966699 73.1953828,11.4358359 72.8880293,11.8083164 C72.4618477,12.3357305 72.0137285,12.8800547 71.5669805,13.4134102 C70.6917656,14.4597832 69.4063652,15.0338145 68.1328477,14.9488066 C67.4982598,14.9074453 66.844248,14.8471172 66.1918359,14.7696504 C65.8061016,14.7241758 65.6059219,14.9673164 65.5535918,15.0431836 C65.4301934,15.2209688 65.4210527,15.4140645 65.5261699,15.6167578 C65.8140996,16.1670234 66.104543,16.7193457 66.3949863,17.2684688 C67.0058086,18.4206445 67.0078652,19.8054492 66.3997852,20.9713359 C66.1063711,21.5330273 65.8134141,22.090834 65.5202285,22.6454414 C65.3678086,22.9310859 65.5227422,23.1719414 65.5739297,23.2388965 C65.7496582,23.4699258 65.9539512,23.4242227 66.0213633,23.4093691 C66.6127617,23.2766016 67.208502,23.1271523 67.7891602,22.9660488 C69.081873,22.6091074 70.419375,22.8808125 71.3679434,23.692957 C71.7925254,24.057668 72.2212207,24.416209 72.6430605,24.7603535 L72.6430605,24.7603535 Z"></path>
                        <path d="M10.953668,20.3600566 C10.1289551,20.3600566 9.33989062,20.102748 8.69296289,19.6002422 C8.68679297,19.5954434 8.68085156,19.5906445 8.67468164,19.5860742 C8.26792383,19.261125 7.85682422,18.9418887 7.45189453,18.6363633 C7.40801953,18.6409336 7.32575391,18.6599004 7.21469531,18.7174863 C6.61964062,19.0252969 6.02367187,19.3548164 5.44095703,19.6978184 C3.92269922,20.5926855 2.31120703,20.5709766 1.23604102,19.6404609 C0.136423828,18.6886934 -0.102603516,17.1016523 0.596654297,15.3948691 C0.891896484,14.6814434 1.18485352,13.9789863 1.47758203,13.2817852 C1.58886914,13.0176211 1.60715039,12.8302383 1.60417969,12.7486582 C1.33430273,12.3649805 1.0632832,11.9840449 0.792263672,11.6081367 C0.129111328,10.7041289 0.0205664063,9.41598633 0.502962891,8.08579687 C0.988558594,6.74760937 2.23785352,5.01660352 4.16104102,4.54243359 C4.80979687,4.38292969 5.47203516,4.2442207 6.1308457,4.12927734 C6.45122461,4.07283398 6.8225625,3.82558008 7.07392969,3.49948828 C7.51016602,2.93299805 7.95805664,2.36148047 8.40434766,1.80207422 C9.46420312,0.450404297 11.1458496,-0.166587891 12.6796465,0.2413125 C14.0831895,0.614707031 15.0891152,1.76459766 15.3050625,3.24195117 L15.575168,5.07396094 C15.5948203,5.20741406 15.6702305,5.30339062 15.7988848,5.35891992 C16.3722305,5.60663086 16.9595156,5.87422266 17.5449727,6.15392578 C18.9316055,6.83695898 19.7821406,8.20348242 19.7828269,9.72882422 C19.7837402,11.2516523 18.9382324,12.6174902 17.5751367,13.2957246 C17.0303555,13.5731426 16.4837461,13.8638145 15.9503906,14.1597422 C15.7552383,14.2680586 15.6083027,14.4835488 15.5758535,14.7084082 L15.3055195,16.5964043 C15.0843164,18.1256309 14.0278887,19.4450801 12.5475645,20.0421914 C12.0206074,20.255168 11.4797109,20.3600566 10.953668,20.3600566 L10.953668,20.3600566 Z M10.7987344,16.8955312 C10.8677461,16.9444336 11.0521582,16.9496895 11.2653633,16.8637676 C11.5290703,16.7572793 11.8567617,16.4958574 11.912748,16.108752 L12.1828535,14.2223555 C12.3674941,12.9353555 13.1540449,11.7918633 14.2872539,11.1629883 C14.8587715,10.8458086 15.444457,10.5345703 16.0283145,10.2372715 C16.0342559,10.2343008 16.0404258,10.2311016 16.0463672,10.2281309 C16.3151016,10.0953633 16.3553203,9.85976367 16.3550928,9.73133789 C16.3550928,9.60359766 16.3151016,9.36959766 16.0481953,9.23797266 C15.5198672,8.98569141 14.9723438,8.73615234 14.4389883,8.50558008 C13.2198574,7.97885156 12.3768633,6.88266211 12.1839961,5.57372461 L11.9134336,3.74011523 C11.8898965,3.57832617 11.8412227,3.5655293 11.7982617,3.55410352 C11.671207,3.5202832 11.3803066,3.56141602 11.0926055,3.92864062 C10.6497422,4.48393359 10.2139629,5.03968359 9.78892383,5.59177734 C9.00922852,6.60250195 7.89201563,7.29970312 6.72224414,7.5055957 C6.13747266,7.60774219 5.55224414,7.73045508 4.98026953,7.87076367 C4.26135938,8.0480918 3.60871875,9.21534961 3.62814258,9.68060742 C3.91013086,10.0725117 4.18526367,10.4596172 4.460625,10.8515215 C5.15942578,11.8496777 5.22318164,13.2191719 4.63749609,14.610375 C4.34750977,15.3007207 4.05683789,15.9976934 3.76639453,16.6999219 C3.76525195,16.7026641 3.76410938,16.7054062 3.7629668,16.7079199 C4.3801875,16.3459512 5.01020508,15.9983789 5.63770898,15.6738867 C6.94573242,14.9951953 8.4123457,15.0662637 9.46397461,15.860127 C9.90455273,16.1921602 10.3542715,16.540875 10.7987344,16.8955312 L10.7987344,16.8955312 Z"></path>
                    </g>
                    <g transform="translate(8.226562, 3.427734)" id="Shape">
                        <path d="M51.4438945,73.0614727 C50.7967383,73.0614727 50.1365566,72.8941992 49.5152227,72.5575957 C48.0943125,71.7877266 47.1891621,70.273582 47.209043,68.700252 L47.2330371,66.8232246 C47.2362363,66.5841973 47.0888438,66.2987813 46.8575859,66.0954023 C46.339541,65.6395137 45.8219531,65.1774551 45.3043652,64.7094551 C43.9938281,63.5120332 43.4702988,61.7536055 43.9638926,60.2236934 C44.3921309,58.8971602 45.4862637,58.0075488 46.8911777,57.8437031 C47.4709219,57.7719492 48.0584355,57.6908262 48.6251543,57.6035332 C48.6726855,57.5962207 48.7172461,57.5822813 48.7462676,57.4927031 L49.3040742,55.7674102 C49.7517363,54.3942598 50.8812891,53.4482051 52.3271074,53.2318008 C53.8890117,52.9984863 55.4310352,53.6675801 56.3517246,54.9790313 C56.7173496,55.5071309 57.0763477,56.0210625 57.4355742,56.5301953 C57.5292656,56.6634199 57.6684316,56.7335742 57.8119395,56.7255762 C58.4154492,56.6899277 59.0178164,56.6387402 59.6037305,56.5729277 C61.0993652,56.3965137 62.5022227,57.0470977 63.2570098,58.2714844 C64.0533867,59.5628262 63.9820898,61.2236777 63.0707695,62.6057402 C62.6861777,63.1809141 62.3077559,63.7403203 61.929334,64.2933281 C61.7951953,64.4889375 61.7453789,64.7179102 61.8018223,64.8780996 C62.002459,65.447332 62.2035527,66.0158789 62.404418,66.5825977 C62.9126367,68.0096777 62.543584,69.6197988 61.4409961,70.7824863 C60.3767988,71.9042695 58.8400313,72.3409629 57.4298613,71.9225508 C56.8231523,71.7447656 56.2015898,71.5475566 55.582084,71.3368652 C55.3892168,71.2715098 55.1757832,71.2941328 55.0274766,71.3969648 C54.5222285,71.7477363 54.0039551,72.0989648 53.4881953,72.4394531 C52.8716602,72.8532949 52.1657754,73.0614727 51.4438945,73.0614727 Z M47.231666,61.2597832 C47.1855059,61.358502 47.1713379,61.7725723 47.6096309,62.1729316 C48.109166,62.6244785 48.6150996,63.0762539 49.1212617,63.5216309 C50.1155332,64.3957031 50.6767676,65.615291 50.6603145,66.8673281 L50.6363203,68.744127 C50.63175,69.102668 50.8899727,69.4040801 51.1479668,69.5439316 C51.2519414,69.600375 51.4477793,69.681041 51.589459,69.586207 C52.0926504,69.2539453 52.5887578,68.9177988 53.0734395,68.5811953 C54.1134141,67.860457 55.4627988,67.677873 56.6839863,68.0917148 C57.2603027,68.2877813 57.8361621,68.4703652 58.397168,68.634668 C58.3994531,68.6353535 58.4017383,68.6360391 58.4040234,68.6367246 C58.6485352,68.7096211 58.8699668,68.5121836 58.953832,68.4239766 C59.1229336,68.2457344 59.2568438,67.9621465 59.1743496,67.7306602 C58.9718848,67.1598281 58.7701055,66.5892246 58.5685547,66.016793 C58.1487715,64.8230273 58.3480371,63.4551328 59.1014531,62.3566582 C59.4721055,61.8153047 59.8436719,61.2659531 60.2152383,60.7102031 C60.4113047,60.4126758 60.4058203,60.1784473 60.3395508,60.0710449 C60.2764805,59.9686699 60.1174336,59.9640996 59.9956348,59.9784961 C59.340252,60.0520781 58.6768711,60.10875 58.0148613,60.1475977 C56.679873,60.2273496 55.4152676,59.6137852 54.6344297,58.5059414 C54.2697188,57.9892676 53.9050078,57.4668809 53.5398398,56.9396953 C53.3430879,56.6595352 53.0352773,56.592123 52.8341836,56.6220586 C52.620293,56.6540508 52.583959,56.7653379 52.5645352,56.825209 L52.0071855,58.5489023 C51.5862598,59.8493848 50.4896133,60.7853848 49.1454844,60.9917344 C48.5460879,61.0838262 47.9249824,61.169748 47.2997637,61.2469863 C47.2643437,61.2515566 47.2430918,61.2563555 47.231666,61.2597832 L47.231666,61.2597832 Z"></path>
                        <path d="M7.36231641,20.2661367 C6.73869727,20.2661367 6.11667773,20.1210293 5.54196094,19.8267012 C4.24079297,19.1608066 3.47526562,17.8802051 3.49423242,16.4010234 L3.51822656,14.5175977 C3.51982617,14.4005977 3.48257812,14.3002793 3.42590625,14.2678301 C2.9352832,13.988584 2.44100391,13.7193926 1.95860742,13.4680254 C0.769869141,12.8677148 0.0630703125,11.678291 0.0667124463,10.2822891 C0.0710683594,8.61069727 1.07242383,7.03919531 2.61741797,6.27823828 C3.24926367,5.97659766 3.87768164,5.69415234 4.5045,5.42953125 C4.75381055,5.32441406 4.95239062,5.1157793 5.02254492,4.88520703 C5.20878516,4.27301367 5.39525391,3.66241992 5.58149414,3.05319727 C6.03509766,1.55162109 7.26931055,0.472570313 8.80036523,0.242226563 C10.311082,0.0148535156 11.7895781,0.674806641 12.6565664,1.96432031 C13.0141934,2.48784961 13.3786758,3.02600391 13.7431582,3.56872852 C13.886209,3.78170508 14.128207,3.93001172 14.3740898,3.95537695 C15.0041074,4.01958984 15.6569766,4.09774219 16.313502,4.18800586 C17.8994004,4.4124082 19.2407871,5.51842383 19.8207598,7.07530078 C20.3392617,8.46696094 20.1134883,9.91163672 19.2170215,10.9401855 C18.8504824,11.3647676 18.478459,11.7991758 18.1064355,12.2370117 C18.0696445,12.2802012 18.0351387,12.4264512 18.1014082,12.6318867 L18.7060605,14.5134844 C19.1859434,16.0127754 18.8040937,17.5488574 17.710418,18.5239336 C16.5870352,19.5252891 14.9718867,19.7327813 13.4947617,19.0650586 C13.4940762,19.0648301 13.4933906,19.064373 13.4924766,19.0641445 C12.9093047,18.7995234 12.3265898,18.5458711 11.7607852,18.3105 C11.6058516,18.2458301 11.4516035,18.2561133 11.3371172,18.3386074 C10.8416953,18.6939492 10.3460449,19.0588887 9.86182031,19.4245137 C9.10886133,19.9825488 8.23410352,20.2661367 7.36231641,20.2661367 L7.36231641,20.2661367 Z M3.50885742,10.4111719 C3.51639844,10.4150566 3.52439648,10.4193984 3.52965234,10.4221406 C4.05341016,10.6947598 4.5892793,10.9863457 5.1217207,11.2893574 C6.26452734,11.9408555 6.96287109,13.1942637 6.94550391,14.5614727 L6.92150977,16.445127 C6.91945313,16.6126289 6.97201172,16.708377 7.1034082,16.7755605 C7.26793945,16.8598828 7.53987305,16.8790781 7.80860742,16.6798125 C8.30220117,16.306875 8.82070313,15.9252539 9.33714844,15.5546016 C10.4216836,14.7746777 11.8213418,14.6215723 13.0790918,15.1467012 C13.6764316,15.3953262 14.2925098,15.663375 14.9081309,15.9426211 C15.159041,16.0555078 15.3505371,16.0353984 15.429375,15.9652441 C15.5107266,15.8925762 15.4890176,15.7081641 15.4417148,15.5598574 L14.8384336,13.6832871 C14.4152227,12.3704648 14.6599629,11.0005137 15.4931309,10.0188105 C15.8715527,9.57320508 16.2495176,9.13216992 16.6274824,8.69433398 C16.6777559,8.63674805 16.6807266,8.46718945 16.6082871,8.27249414 C16.4983711,7.97748047 16.2108984,7.63584961 15.8395605,7.58329102 C15.2294238,7.49942578 14.6167734,7.42584375 14.025375,7.36574414 C12.7733379,7.23731836 11.6044805,6.53280469 10.8974531,5.48094727 C10.537541,4.94507812 10.1780859,4.41423633 9.81840234,3.88773633 C9.68152148,3.68412891 9.51287695,3.60163477 9.30926953,3.63225586 C9.18312891,3.65122266 8.95689844,3.73074609 8.86023633,4.05066797 C8.672625,4.66400391 8.4868418,5.27299805 8.30083008,5.8835918 C7.93154883,7.09700977 7.03325391,8.08259766 5.83628906,8.58761719 C5.2576875,8.83167187 4.67771484,9.0924082 4.11213867,9.36251367 C3.72663281,9.55241016 3.57992578,9.90089648 3.53582227,10.0414336 C3.47915039,10.2237891 3.49149023,10.3606699 3.50885742,10.4111719 L3.50885742,10.4111719 Z"></path>
                    </g>
                </g>
            </g>
        </g>
    </g>
</svg>