<?xml version="1.0" encoding="utf-8"?>
<!-- Generator: Adobe Illustrator 23.0.4, SVG Export Plug-In . SVG Version: 6.00 Build 0)  -->
<svg version="1.1" id="图层_1" xmlns="http://www.w3.org/2000/svg" xmlns:xlink="http://www.w3.org/1999/xlink" x="0px" y="0px"
	 viewBox="0 0 1019.52 234.01" style="enable-background:new 0 0 1019.52 234.01;" xml:space="preserve">
<g>
	<defs>
		<rect id="SVGID_1_" x="-244" y="-2680.11" width="1920" height="4936"/>
	</defs>
	<clipPath id="SVGID_2_">
		<use xlink:href="#SVGID_1_"  style="overflow:visible;"/>
	</clipPath>
</g>
<g>
	<polygon points="0,233.07 157.94,233.07 157.94,190.24 49.51,190.24 49.51,139.52 143.52,139.52 143.52,96.38 49.51,96.38 
		49.51,43.47 157.94,43.47 157.94,0.64 0,0.64 	"/>
	<polygon points="438.78,233.64 493.62,233.64 555.04,107.45 616.15,233.64 670.67,233.64 555.04,0 	"/>
	<polygon points="726.75,126.47 665.65,0.17 611.12,0.17 726.75,234.01 843.01,0.17 788.17,0.17 	"/>
	<polygon points="1019.52,43.47 1019.52,0.64 861.58,0.64 861.58,233.07 1019.52,233.07 1019.52,190.24 911.09,190.24 
		911.09,139.52 1005.1,139.52 1005.1,96.38 911.09,96.38 911.09,43.47 	"/>
	<polygon points="445.97,0 357.55,179.01 385.39,233.07 500.52,0 	"/>
	<polygon points="337.93,33.5 293.34,123.76 232.2,0 177.65,0 292.79,233.07 365.77,87.56 	"/>
	<polygon points="337.93,33.5 384.22,124.32 445.36,0.55 499.91,0.55 384.77,233.62 311.79,88.11 	"/>
</g>
</svg>
