<?xml version="1.0" encoding="UTF-8"?>
<svg width="42px" height="39px" viewBox="0 0 42 39" version="1.1" xmlns="http://www.w3.org/2000/svg" xmlns:xlink="http://www.w3.org/1999/xlink">
    <title>experience</title>
    <defs>
        <linearGradient x1="50%" y1="0%" x2="50%" y2="100%" id="linearGradient-1">
            <stop stop-color="#005E91" offset="0%"></stop>
            <stop stop-color="#003058" offset="100%"></stop>
        </linearGradient>
        <linearGradient x1="50%" y1="0%" x2="50%" y2="100%" id="linearGradient-2">
            <stop stop-color="#005E91" offset="0%"></stop>
            <stop stop-color="#003058" offset="100%"></stop>
        </linearGradient>
        <linearGradient x1="50%" y1="0%" x2="50%" y2="100%" id="linearGradient-3">
            <stop stop-color="#005E91" offset="0%"></stop>
            <stop stop-color="#003058" offset="100%"></stop>
        </linearGradient>
        <linearGradient x1="50%" y1="0%" x2="50%" y2="100%" id="linearGradient-4">
            <stop stop-color="#005E91" offset="0%"></stop>
            <stop stop-color="#003058" offset="100%"></stop>
        </linearGradient>
        <linearGradient x1="50%" y1="0%" x2="50%" y2="100%" id="linearGradient-5">
            <stop stop-color="#005E91" offset="0%"></stop>
            <stop stop-color="#003058" offset="100%"></stop>
        </linearGradient>
        <linearGradient x1="50%" y1="0%" x2="50%" y2="100%" id="linearGradient-6">
            <stop stop-color="#005E91" offset="0%"></stop>
            <stop stop-color="#003058" offset="100%"></stop>
        </linearGradient>
    </defs>
    <g id="⏹️-Product-Wireframe" stroke="none" stroke-width="1" fill="none" fill-rule="evenodd">
        <g id="sections-/-Fraud-Icons" transform="translate(-937.000000, -844.000000)" fill-rule="nonzero">
            <g id="experience" transform="translate(937.000000, 844.000000)">
                <path d="M20.8798371,10.7186151 C22.2347862,10.7186151 23.533279,10.0357637 24.5360489,8.79641548 C25.4518941,7.66460285 25.9770265,6.23706721 25.9770265,4.8785336 C25.9770265,2.14175153 23.7859878,0.0779633401 20.8798371,0.0779633401 C17.9736864,0.0779633401 15.7826477,2.13906314 15.7826477,4.8785336 C15.7826477,6.23706721 16.30778,7.66460285 17.2236253,8.79641548 C18.2263951,10.0366599 19.524888,10.7186151 20.8798371,10.7186151 Z M20.8798371,1.55657841 C22.9767821,1.55657841 24.4984114,2.95364562 24.4984114,4.8785336 C24.4984114,7.29808554 22.5188595,9.24 20.8798371,9.24 C18.8751935,9.24 17.2612627,6.85360489 17.2612627,4.8785336 C17.2612627,2.95723014 18.7828921,1.55657841 20.8798371,1.55657841 Z" id="Shape" fill="url(#linearGradient-1)"></path>
                <path d="M14.8479837,17.8141752 L14.3291242,25.2153157 C14.3153295,25.4109192 14.379808,25.6039905 14.5083736,25.7520511 C14.6369392,25.9001116 14.8190591,25.9910313 15.014664,26.0048065 L15.0666395,26.0048065 C15.45462,26.0043884 15.7764421,25.7044643 15.8041548,25.3174745 L16.3230143,17.9226069 C16.3415833,17.6591181 16.2181723,17.4057379 15.9992688,17.2579122 C15.7803653,17.1100865 15.4992261,17.0902735 15.2617535,17.2059366 C15.0242809,17.3215997 14.8665528,17.555167 14.8479837,17.8186558 L14.8479837,17.8141752 Z" id="Path" fill="url(#linearGradient-2)"></path>
                <path d="M30.9066395,26.0039104 C31.3242762,25.9669142 31.6332666,25.5990113 31.597556,25.1812627 C31.597556,25.1812627 30.8161303,19.5777597 30.7014257,17.6976782 C30.4890428,14.3219552 28.4270468,11.6138493 25.2054582,11.1209776 C24.0727495,10.9471283 22.0152342,10.8162933 20.9398778,10.8153971 C19.4719371,10.8408292 18.0062967,10.9422276 16.5488391,11.1191853 C15.037844,11.326045 13.6539604,12.0762858 12.6560489,13.2295723 C11.6075764,14.4402444 11.1389002,15.9878615 11.0430143,17.7012627 C10.9354786,19.5831365 10.223055,25.1893279 10.223055,25.1893279 C10.1903902,25.4538356 10.3026206,25.7154511 10.5168003,25.8740649 C10.73098,26.0326788 11.0139531,26.0637368 11.2574373,25.9553544 C11.5009215,25.8469719 11.6672244,25.6159271 11.6927088,25.3506314 C11.6927088,25.3506314 12.4158859,19.6835031 12.5189409,17.7828106 C12.6659063,15.0890428 14.2601222,12.9239919 16.7504684,12.5852546 C18.1404108,12.416437 19.5381452,12.3195259 20.9380855,12.2949084 C21.9399593,12.2949084 23.9284725,12.4221589 24.9805295,12.5834623 C26.1372369,12.7585539 27.1948286,13.3368648 27.9664358,14.2162118 C28.7872912,15.1589409 29.143055,16.4251731 29.2210183,17.7872912 C29.3348269,19.6906721 30.1287984,25.3586965 30.1287984,25.3586965 C30.1882748,25.7391462 30.5217513,26.0157627 30.9066395,26.0039104 L30.9066395,26.0039104 Z" id="Path" fill="url(#linearGradient-3)"></path>
                <path d="M26.1006925,17.1286354 C25.9040917,17.1421542 25.7210243,17.2336043 25.5921399,17.3826795 C25.4632555,17.5317547 25.3992215,17.7261163 25.4142566,17.9226069 L25.9340122,25.3228513 C25.9608282,25.7100537 26.2825018,26.0105955 26.6706314,26.0110794 L26.7235031,26.0110794 C27.1305924,25.9819156 27.437262,25.6287445 27.4090428,25.2215886 L26.8892872,17.8204481 C26.8766308,17.6240665 26.7863881,17.4407819 26.638456,17.3110051 C26.4905239,17.1812283 26.2970504,17.1156164 26.1006925,17.1286354 L26.1006925,17.1286354 Z" id="Path" fill="url(#linearGradient-4)"></path>
                <path d="M25.5970672,32.6980041 L29.1529124,29.2317719 C29.3543116,29.0353588 29.426787,28.7416647 29.3398829,28.4741065 C29.2529788,28.2065482 29.0217565,28.0114966 28.7433809,27.9709165 L23.8298982,27.2540122 L21.6325866,22.8047251 C21.5081145,22.552181 21.2510026,22.3922595 20.9694501,22.3922595 C20.6878976,22.3922595 20.4307858,22.552181 20.3063136,22.8047251 L18.109002,27.2567006 L13.1955193,27.9736049 C12.9171437,28.0141849 12.6859214,28.2092366 12.5990173,28.4767949 C12.5121132,28.7443531 12.5845886,29.0380472 12.7859878,29.2344603 L16.341833,32.7006925 L15.503055,37.5908758 C15.4546186,37.8690472 15.5688548,38.1505157 15.7974539,38.3162501 C16.026053,38.4819844 16.3290896,38.5030387 16.5784114,38.3705092 L20.9694501,36.0602851 L25.3604888,38.3705092 C25.4666938,38.4261057 25.5847264,38.4553064 25.7046029,38.4556415 C25.9225056,38.4553196 26.1291965,38.3590018 26.2695928,38.1923568 C26.4099892,38.0257117 26.469826,37.8056712 26.4331568,37.5908758 L25.5970672,32.6980041 Z M20.625336,34.5709165 C19.7668432,35.0082281 17.2128717,36.3631772 17.2128717,36.3631772 L17.8643585,32.5626884 C17.9054804,32.3229701 17.8260663,32.0783611 17.6519756,31.9085132 L14.890998,29.2201222 L18.706721,28.6654175 C18.9473458,28.6302896 19.155368,28.4792138 19.2632179,28.2612627 L20.9658656,24.8030957 L22.6685132,28.2612627 C22.7763631,28.4792138 22.9843853,28.6302896 23.2250102,28.6654175 L27.0407332,29.2201222 L24.2797556,31.9085132 C24.1056649,32.0783611 24.0262507,32.3229701 24.0673727,32.5626884 L24.7188595,36.3631772 C24.7188595,36.3631772 22.164888,35.0064358 21.3063951,34.5709165 C21.0938679,34.4561982 20.8378633,34.4561982 20.625336,34.5709165 L20.625336,34.5709165 Z" id="Shape" fill="#B03478"></path>
                <path d="M41.2784521,30.2184114 L37.6858656,29.6959674 L36.0791039,26.441222 C35.9549298,26.1885879 35.6979171,26.0285336 35.4164155,26.0285336 C35.1349138,26.0285336 34.8779012,26.1885879 34.7537271,26.441222 L33.1469654,29.6959674 L29.5543788,30.2184114 C29.2760032,30.2589915 29.0447809,30.4540432 28.9578768,30.7216014 C28.8709726,30.9891596 28.9434481,31.2828537 29.1448473,31.4792668 L31.7436253,34.0135234 L31.129776,37.5908758 C31.0813395,37.8690472 31.1955758,38.1505157 31.4241749,38.3162501 C31.652774,38.4819844 31.9558106,38.5030387 32.2051324,38.3705092 L35.4177597,36.6813035 L38.6312831,38.3705092 C38.7374881,38.4261057 38.8555207,38.4553064 38.9753971,38.4556415 C39.1932999,38.4553196 39.3999908,38.3590018 39.5403871,38.1923568 C39.6807835,38.0257117 39.7406203,37.8056712 39.7039511,37.5908758 L39.0901018,34.0135234 L41.6888798,31.4792668 C41.890279,31.2828537 41.9627544,30.9891596 41.8758503,30.7216014 C41.7889462,30.4540432 41.5577239,30.2589915 41.2793483,30.2184114 L41.2784521,30.2184114 Z M35.0727495,35.1919348 C34.5090835,35.475112 32.8404888,36.3649695 32.8404888,36.3649695 L33.2670468,33.88 C33.3081688,33.6402817 33.2287547,33.3956728 33.054664,33.2258248 L31.2489613,31.4658248 L33.7437882,31.1073727 C33.9847795,31.0725023 34.1930271,30.9209276 34.3002851,30.7023218 L35.4159674,28.4422811 L36.5316497,30.7023218 C36.6395717,30.9207523 36.8479599,31.0721856 37.0890428,31.1073727 L39.5829735,31.4658248 L37.778167,33.2258248 C37.6038044,33.3955038 37.5243429,33.6402587 37.5657841,33.88 L37.9959267,36.3649695 C37.9959267,36.3649695 36.3282281,35.475112 35.7645621,35.1919348 C35.548623,35.0756278 35.2886886,35.0756278 35.0727495,35.1919348 L35.0727495,35.1919348 Z" id="Shape" fill="url(#linearGradient-5)"></path>
                <path d="M12.3845214,30.2184114 L8.79193483,29.6959674 L7.18517312,26.441222 C7.06099901,26.1885879 6.80398638,26.0285336 6.52248473,26.0285336 C6.24098307,26.0285336 5.98397044,26.1885879 5.85979633,26.441222 L4.25303462,29.6959674 L0.660448065,30.2184114 C0.382072426,30.2589915 0.150850159,30.4540432 0.0639460265,30.7216014 C-0.0229581056,30.9891596 0.0495173149,31.2828537 0.250916497,31.4792668 L2.8496945,34.0135234 L2.24032587,37.5908758 C2.19188944,37.8690472 2.30612568,38.1505157 2.53472479,38.3162501 C2.7633239,38.4819844 3.06636051,38.5030387 3.31568228,38.3705092 L6.5292057,36.6813035 L9.74183299,38.3705092 C9.848038,38.4261057 9.9660706,38.4553064 10.085947,38.4556415 C10.3038498,38.4553196 10.5105407,38.3590018 10.650937,38.1923568 C10.7913333,38.0257117 10.8511702,37.8056712 10.814501,37.5908758 L10.2006517,34.0135234 L12.7994297,31.4792668 C13.0008289,31.2828537 13.0733043,30.9891596 12.9864002,30.7216014 C12.8994961,30.4540432 12.6682738,30.2589915 12.3898982,30.2184114 L12.3845214,30.2184114 Z M6.18329939,35.1919348 L3.94745418,36.3649695 L4.37311609,33.88 C4.41455732,33.6402587 4.33509578,33.3955038 4.1607332,33.2258248 L2.35592668,31.4658248 L4.84985743,31.1073727 C5.09094027,31.0721856 5.29932849,30.9207523 5.40725051,30.7023218 L6.52293279,28.4422811 L7.63861507,30.7023218 C7.74587314,30.9209276 7.95412067,31.0725023 8.19511202,31.1073727 L10.6899389,31.4658248 L8.88423625,33.2258248 C8.71014551,33.3956728 8.63073138,33.6402817 8.67185336,33.88 L9.09841141,36.3649695 L6.86615071,35.1919348 C6.65659121,35.0637128 6.39285889,35.0637128 6.18329939,35.1919348 L6.18329939,35.1919348 Z" id="Shape" fill="url(#linearGradient-6)"></path>
            </g>
        </g>
    </g>
</svg>