<?xml version="1.0" encoding="UTF-8"?>
<svg width="46px" height="43px" viewBox="0 0 46 43" version="1.1" xmlns="http://www.w3.org/2000/svg" xmlns:xlink="http://www.w3.org/1999/xlink">
    <title>experience</title>
    <defs>
        <linearGradient x1="50%" y1="0%" x2="50%" y2="100%" id="linearGradient-1">
            <stop stop-color="#005E91" offset="0%"></stop>
            <stop stop-color="#003058" offset="100%"></stop>
        </linearGradient>
        <linearGradient x1="50%" y1="0%" x2="50%" y2="100%" id="linearGradient-2">
            <stop stop-color="#005E91" offset="0%"></stop>
            <stop stop-color="#003058" offset="100%"></stop>
        </linearGradient>
        <linearGradient x1="50%" y1="0%" x2="50%" y2="100%" id="linearGradient-3">
            <stop stop-color="#005E91" offset="0%"></stop>
            <stop stop-color="#003058" offset="100%"></stop>
        </linearGradient>
        <linearGradient x1="50%" y1="0%" x2="50%" y2="100%" id="linearGradient-4">
            <stop stop-color="#005E91" offset="0%"></stop>
            <stop stop-color="#003058" offset="100%"></stop>
        </linearGradient>
        <linearGradient x1="50%" y1="0%" x2="50%" y2="100%" id="linearGradient-5">
            <stop stop-color="#005E91" offset="0%"></stop>
            <stop stop-color="#003058" offset="100%"></stop>
        </linearGradient>
        <linearGradient x1="50%" y1="0%" x2="50%" y2="100%" id="linearGradient-6">
            <stop stop-color="#005E91" offset="0%"></stop>
            <stop stop-color="#003058" offset="100%"></stop>
        </linearGradient>
    </defs>
    <g id="⏹️-Product-Wireframe" stroke="none" stroke-width="1" fill="none" fill-rule="evenodd">
        <g id="sections-/-Tax-Icons-" transform="translate(-959.000000, -817.000000)" fill-rule="nonzero">
            <g id="experience" transform="translate(959.000000, 817.000000)">
                <path d="M22.868393,11.7394356 C24.3523848,11.7394356 25.7745437,10.9915508 26.8728154,9.63416933 C27.875884,8.39456503 28.451029,6.83107361 28.451029,5.34315585 C28.451029,2.34572786 26.0513199,0.0853884201 22.868393,0.0853884201 C19.685466,0.0853884201 17.285757,2.34278344 17.285757,5.34315585 C17.285757,6.83107361 17.8609019,8.39456503 18.8639705,9.63416933 C19.9622423,10.9925322 21.3844011,11.7394356 22.868393,11.7394356 Z M22.868393,1.70482397 C25.165047,1.70482397 26.8315934,3.2349452 26.8315934,5.34315585 C26.8315934,7.99314131 24.6635128,10.12 22.868393,10.12 C20.672831,10.12 18.9051925,7.50632916 18.9051925,5.34315585 C18.9051925,3.23887111 20.5717389,1.70482397 22.868393,1.70482397 Z" id="Shape" fill="url(#linearGradient-1)"></path>
                <path d="M16.2620774,19.5107633 L15.6938027,27.6167743 C15.6786942,27.8310067 15.7493136,28.0424658 15.8901235,28.2046273 C16.0309335,28.3667889 16.230398,28.4663676 16.4446319,28.4814548 L16.5015576,28.4814548 C16.9264886,28.4809968 17.2789604,28.1525085 17.3093124,27.7286626 L17.877587,19.6295219 C17.8979246,19.3409389 17.7627601,19.0634272 17.5230087,18.9015229 C17.2832572,18.7396185 16.9753428,18.7179186 16.7152538,18.8445972 C16.4551648,18.9712759 16.282415,19.2270876 16.2620774,19.5156706 L16.2620774,19.5107633 Z" id="Path" fill="url(#linearGradient-2)"></path>
                <path d="M33.850129,28.4804733 C34.3075406,28.4399537 34.6459586,28.0370124 34.6068471,27.5794782 C34.6068471,27.5794782 33.7509999,21.4423082 33.625371,19.3831714 C33.3927611,15.6859509 31.1343846,12.7199302 27.6059781,12.1801183 C26.3653923,11.989712 24.1119232,11.8464164 22.9341519,11.845435 C21.3264073,11.8732891 19.7211821,11.9843445 18.124919,12.1781554 C16.4700196,12.404716 14.9543376,13.2264082 13.8613869,14.4895316 C12.7130598,15.8155058 12.1997478,17.510515 12.0947299,19.3870973 C11.9769528,21.4481971 11.1966793,27.5883115 11.1966793,27.5883115 C11.1609035,27.8780104 11.2838226,28.1645417 11.5184004,28.3382616 C11.7529781,28.5119815 12.0629011,28.5459974 12.3295742,28.4272929 C12.5962474,28.3085883 12.7783887,28.0555392 12.8063001,27.7649772 C12.8063001,27.7649772 13.5983513,21.5581224 13.711221,19.4764116 C13.8721831,16.5260945 15.6182291,14.1548482 18.3457511,13.7838503 C19.8680689,13.5989549 21.3989209,13.492814 22.9321889,13.465852 C24.0294792,13.465852 26.2073746,13.6052216 27.3596276,13.7818873 C28.6264975,13.9736542 29.7848123,14.6070424 30.6299059,15.5701367 C31.528938,16.6026496 31.918584,17.9894753 32.0039725,19.481319 C32.1286199,21.5659742 32.9982077,27.7738105 32.9982077,27.7738105 C33.0633485,28.1904935 33.4285848,28.4934544 33.850129,28.4804733 L33.850129,28.4804733 Z" id="Path" fill="url(#linearGradient-3)"></path>
                <path d="M28.5864727,18.7599341 C28.3711481,18.7747403 28.1706457,18.8748999 28.0294865,19.0381728 C27.8883274,19.2014456 27.818195,19.4143179 27.834662,19.6295219 L28.4039181,27.7345514 C28.433288,28.1586303 28.7855972,28.4877951 29.2106915,28.4883251 L29.2685986,28.4883251 C29.7144584,28.4563838 30.0503346,28.0695773 30.0194278,27.6236447 L29.4501717,19.5176336 C29.4363099,19.302549 29.3374727,19.1018088 29.1754518,18.9596723 C29.013431,18.8175358 28.8015313,18.7456751 28.5864727,18.7599341 L28.5864727,18.7599341 Z" id="Path" fill="url(#linearGradient-4)"></path>
                <path d="M28.0348831,35.8120997 L31.9293803,32.0157502 C32.1499603,31.8006311 32.2293382,31.4789661 32.1341575,31.1859261 C32.0389767,30.8928862 31.7857333,30.6792581 31.4808457,30.6348133 L26.0994123,29.8496324 L23.6928329,24.9766036 C23.5565063,24.7000078 23.2749076,24.5248556 22.9665406,24.5248556 C22.6581736,24.5248556 22.3765749,24.7000078 22.2402483,24.9766036 L19.8336689,29.8525769 L14.4522355,30.6377577 C14.1473479,30.6822026 13.8941044,30.8958306 13.7989237,31.1888706 C13.703743,31.4819105 13.7831208,31.8035755 14.0037009,32.0186946 L17.898198,35.8150441 L16.9795364,41.1709592 C16.926487,41.4756231 17.0516029,41.7838982 17.3019733,41.9654168 C17.5523438,42.1469353 17.884241,42.1699948 18.1573077,42.0248434 L22.9665406,39.494598 L27.7757734,42.0248434 C27.8920932,42.0857348 28.021367,42.1177166 28.1526603,42.1180836 C28.3913156,42.117731 28.6176915,42.0122401 28.7714588,41.8297241 C28.9252262,41.6472081 28.9907618,41.4062113 28.9506003,41.1709592 L28.0348831,35.8120997 Z M22.5896538,37.8633847 C21.6493997,38.3423451 18.8521928,39.8263369 18.8521928,39.8263369 L19.5657259,35.6638968 C19.6107643,35.4013482 19.5237869,35.1334432 19.3331161,34.9474193 L16.3091882,32.002991 L20.4883135,31.3954573 C20.7518549,31.3569838 20.9796888,31.1915199 21.0978101,30.9528116 L22.9626147,27.1652953 L24.8274193,30.9528116 C24.9455406,31.1915199 25.1733744,31.3569838 25.4369159,31.3954573 L29.6160411,32.002991 L26.5921133,34.9474193 C26.4014425,35.1334432 26.3144651,35.4013482 26.3595034,35.6638968 L27.0730366,39.8263369 C27.0730366,39.8263369 24.2758297,38.3403821 23.3355756,37.8633847 C23.1028077,37.7377409 22.8224217,37.7377409 22.5896538,37.8633847 L22.5896538,37.8633847 Z" id="Shape" fill="#B03478"></path>
                <path d="M45.2097333,33.0963553 L41.2749956,32.5241548 L39.515209,28.9594336 C39.3792088,28.6827392 39.0977188,28.5074416 38.7894074,28.5074416 C38.4810961,28.5074416 38.1996061,28.6827392 38.0636059,28.9594336 L36.3038192,32.5241548 L32.3690816,33.0963553 C32.064194,33.1408002 31.8109505,33.3544282 31.7157698,33.6474682 C31.6205891,33.9405082 31.6999669,34.2621731 31.920547,34.4772922 L34.7668277,37.2529066 L34.0945165,41.1709592 C34.0414671,41.4756231 34.166583,41.7838982 34.4169535,41.9654168 C34.6673239,42.1469353 34.9992211,42.1699948 35.2722878,42.0248434 L38.7908796,40.1747609 L42.3104529,42.0248434 C42.4267727,42.0857348 42.5560465,42.1177166 42.6873397,42.1180836 C42.9259951,42.117731 43.1523709,42.0122401 43.3061383,41.8297241 C43.4599057,41.6472081 43.5254412,41.4062113 43.4852798,41.1709592 L42.8129687,37.2529066 L45.6592493,34.4772922 C45.8798294,34.2621731 45.9592072,33.9405082 45.8640265,33.6474682 C45.7688458,33.3544282 45.5156024,33.1408002 45.2107148,33.0963553 L45.2097333,33.0963553 Z M38.4130113,38.5435477 C37.7956629,38.8536941 35.9681544,39.8282999 35.9681544,39.8282999 L36.435337,37.1066667 C36.4803754,36.844118 36.393398,36.576213 36.2027272,36.3901891 L34.2250529,34.4625701 L36.9574823,34.0699796 C37.2214252,34.0317882 37.4495058,33.8657778 37.566979,33.6263524 L38.7889167,31.1510697 L40.0108544,33.6263524 C40.1290547,33.8655859 40.3572895,34.0314414 40.6213326,34.0699796 L43.3527805,34.4625701 L41.3760877,36.3901891 C41.1851191,36.5760279 41.0980898,36.8440929 41.1434778,37.1066667 L41.6145864,39.8282999 C41.6145864,39.8282999 39.7880594,38.8536941 39.1707109,38.5435477 C38.9342062,38.4161637 38.6495161,38.4161637 38.4130113,38.5435477 L38.4130113,38.5435477 Z" id="Shape" fill="url(#linearGradient-5)"></path>
                <path d="M13.5639996,33.0963553 L9.62926195,32.5241548 L7.86947532,28.9594336 C7.73347511,28.6827392 7.45198508,28.5074416 7.14367375,28.5074416 C6.83536241,28.5074416 6.55387238,28.6827392 6.41787218,28.9594336 L4.65808554,32.5241548 L0.723347881,33.0963553 C0.418460276,33.1408002 0.16521684,33.3544282 0.0700361243,33.6474682 C-0.0251445918,33.9405082 0.0542332497,34.2621731 0.274813306,34.4772922 L3.12109398,37.2529066 L2.45369023,41.1709592 C2.40064081,41.4756231 2.5257567,41.7838982 2.77612715,41.9654168 C3.0264976,42.1469353 3.35839484,42.1699948 3.63146155,42.0248434 L7.15103482,40.1747609 L10.6696266,42.0248434 C10.7859464,42.0857348 10.9152202,42.1177166 11.0465134,42.1180836 C11.2851688,42.117731 11.5115446,42.0122401 11.665312,41.8297241 C11.8190794,41.6472081 11.8846149,41.4062113 11.8444535,41.1709592 L11.1721424,37.2529066 L14.018423,34.4772922 C14.2390031,34.2621731 14.3183809,33.9405082 14.2232002,33.6474682 C14.1280195,33.3544282 13.8747761,33.1408002 13.5698885,33.0963553 L13.5639996,33.0963553 Z M6.77218505,38.5435477 L4.32340219,39.8282999 L4.78960334,37.1066667 C4.83499135,36.8440929 4.74796205,36.5760279 4.5569935,36.3901891 L2.58030065,34.4625701 L5.31174862,34.0699796 C5.57579172,34.0314414 5.80402645,33.8655859 5.92222675,33.6263524 L7.14416448,31.1510697 L8.36610222,33.6263524 C8.48357534,33.8657778 8.71165597,34.0317882 8.97559887,34.0699796 L11.7080283,34.4625701 L9.73035399,36.3901891 C9.53968318,36.576213 9.4527058,36.844118 9.49774416,37.1066667 L9.96492678,39.8282999 L7.52006983,38.5435477 C7.29055228,38.403114 7.00170259,38.403114 6.77218505,38.5435477 L6.77218505,38.5435477 Z" id="Shape" fill="url(#linearGradient-6)"></path>
            </g>
        </g>
    </g>
</svg>