<?xml version="1.0" encoding="UTF-8"?><svg xmlns="http://www.w3.org/2000/svg" width="48" height="48" viewBox="0 0 48 48">
  <g fill="none">
    <path fill="#FFF" d="M1.366,16 L46.634,16 C47.540917,18.5695934 48.0028754,21.2750595 48.0000133,24 C48.0000133,26.805 47.519,29.498 46.634,32 L1.366,32 C0.459082971,29.4304066 -0.00287537362,26.7249405 -1.33404768e-05,24 C-1.33404768e-05,21.195 0.481,18.502 1.366,16 L1.366,16 Z"/>
    <path fill="#227FBB" d="M1.366,32 L46.634,32 C43.34,41.322 34.45,48 24,48 C13.55,48 4.66,41.322 1.366,32 Z"/>
    <path fill="#E94B35" d="M46.634,16 L1.366,16 C4.66,6.678 13.55,0 24,0 C34.45,0 43.34,6.678 46.634,16 Z"/>
    <g transform="translate(12 7)">
      <g transform="translate(2 9)">
        <path fill="#FFF" d="M20,10.888 L20,0 L0,0 L0,10.888 C0,15.9 4.5,20 10,20 C15.5,20 20,15.9 20,10.888 Z"/>
        <path fill="#E94B35" d="M4,0 L4,4 L-3.38618023e-17,4 L-3.38618023e-17,0 L4,0 Z M8,0 L12,0 L12,4 L8,4 L8,0 Z M16,0 L20,0 L20,4 L16,4 L16,0 Z M0.075,12 C0.0251285151,11.6314309 7.2108393e-05,11.2599279 -9.22040222e-16,10.888 L-9.22040222e-16,8 L4,8 L4,12 L0.075,12 Z M12,19.816 C10.6781162,20.0631119 9.32188378,20.0631119 8,19.816 L8,16 L12,16 L12,19.816 Z M1.734,16 L4,16 L4,18.165 C3.13192392,17.5714043 2.36653244,16.8401278 1.734,16 L1.734,16 Z M18.266,16 C17.6334676,16.8401278 16.8680761,17.5714043 16,18.165 L16,16 L18.266,16 Z M20,8 L20,10.888 C20,11.264 19.975,11.635 19.925,12 L16,12 L16,8 L20,8 Z M4,4 L8,4 L8,8 L4,8 L4,4 Z M12,4 L16,4 L16,8 L12,8 L12,4 Z M8,8 L12,8 L12,12 L8,12 L8,8 Z M4,12 L8,12 L8,16 L4,16 L4,12 Z M12,12 L16,12 L16,16 L12,16 L12,12 Z"/>
      </g>
      <path fill="#2C97DE" d="M24,4.172 L22.214,1.552 L19.255,2.548 L17.178,0.39 L14.441,1.815 L12.001,0 L9.56,1.816 L6.823,0.39 L4.745,2.548 L1.786,1.553 L0,4.173 L2,9 C2,9 5.429,7.18 12,7.18 C18.572,7.18 22,8.999 22,8.999 L24,4.172 Z"/>
      <polygon fill="#E94B35" points="18.296 6.512 22.76 5.723 22.854 6.724 18.577 7.465" transform="rotate(28 20.575 6.594)"/>
      <path fill="#227FBB" d="M18.149 7.775L19.255 2.548 17.178.39 14.441 1.815 13.984 7.235C15.3836913 7.31268182 16.7757771 7.49316833 18.149 7.775L18.149 7.775zM10.048 7.235L9.56 1.815 6.823.392 4.745 2.548 6.041 7.737C7.36328246 7.47615962 8.70223667 7.30841442 10.048 7.235L10.048 7.235z"/>
      <path fill="#F2C500" d="M12 6.10001338C12.44 6.097 12.686 5.602 12.686 5.141L12.573 5.141 12.8 4.738 12.343 4.921 12 4.5 11.657 4.92 11.2 4.738 11.429 5.141 11.314 5.141C11.314 5.601 11.56 6.103 12 6.10001338L12 6.10001338zM10.8 3.6C11.24 3.597 11.486 3.102 11.486 2.641L11.373 2.641 11.6 2.238 11.143 2.421 10.8 2 10.457 2.42 10 2.239 10.229 2.642 10.114 2.642C10.114 3.102 10.36 3.604 10.8 3.60101338L10.8 3.6zM13.2 3.60001338C13.64 3.597 13.886 3.102 13.886 2.641L13.773 2.641 14 2.238 13.543 2.421 13.2 2 12.857 2.42 12.4 2.238 12.629 2.641 12.514 2.641C12.514 3.101 12.76 3.603 13.2 3.60001338L13.2 3.60001338z"/>
      <path fill="#E94B35" d="M15.6941957,3.30002029 C15.7641957,3.21802029 15.7701957,3.23502029 15.8121957,3.21802029 C15.8721957,3.18002029 15.9321957,3.15802029 15.9921957,3.15102029 C16.0547376,3.1387196 16.1187082,3.13535273 16.1821957,3.14102029 C16.2371843,3.14548391 16.289831,3.16522645 16.3341957,3.19802029 L16.4671957,3.28002029 C16.5131957,3.31202029 16.5601957,3.34102029 16.6071957,3.36602029 C16.7011327,3.40743458 16.8056222,3.41861741 16.9061957,3.39802029 C16.9331957,3.38902029 16.9501957,3.41002029 16.9201957,3.43302029 C16.7001957,3.60002029 16.5291957,3.45102029 16.3821957,3.38502029 C16.4361957,3.43002029 16.4831957,3.47702029 16.5231957,3.52502029 C16.5858613,3.60416171 16.6632934,3.67038651 16.7511957,3.72002029 C16.8516492,3.78160452 16.9716361,3.80303076 17.0871957,3.78002029 C17.1061957,3.77602029 17.1141957,3.77802029 17.1141957,3.79002029 C17.1141957,3.79902029 17.1131957,3.81502029 17.1021957,3.82402029 C17.0543736,3.86392413 16.9944605,3.88647966 16.9321957,3.88802029 C16.8085716,3.89005087 16.6877055,3.85140182 16.5881957,3.77802029 C16.5001957,3.71802029 16.4401957,3.64702029 16.3691957,3.58202029 C16.3146771,3.52724018 16.2472869,3.48701235 16.1731957,3.46502029 C16.0700611,3.45283125 15.9655508,3.46029627 15.8651957,3.48702029 C15.8821957,3.49202029 15.6031957,3.34702029 15.6151957,3.36802029 C15.6400193,3.3439655 15.6664106,3.32158307 15.6941957,3.30102029 L15.6941957,3.30002029 Z" transform="rotate(1 16.365 3.513)"/>
      <path fill="#F2C500" d="M16.636,5.642 C16.5985134,5.67685571 16.569153,5.71953074 16.55,5.767 C16.544,5.787 16.546,5.895 16.525,5.897 C16.515,5.897 16.455,5.927 16.448,5.954 C16.413,6.037 16.272,5.992 16.207,5.958 C16.177,5.943 16.127,5.855 16.131,5.848 C16.1781963,5.83084319 16.2266825,5.81746768 16.276,5.808 C16.345,5.736 16.353,5.726 16.448,5.688 C16.453,5.682 16.494,5.597 16.525,5.577 C16.538,5.496 16.578,5.453 16.638,5.399 C16.643,5.376 16.725,5.284 16.734,5.231 C16.5588528,5.21189504 16.3821472,5.21189504 16.207,5.231 C16.1121541,5.25170285 16.0223985,5.29114093 15.943,5.347 C15.927,5.347 15.903,5.474 15.869,5.518 C15.849,5.572 15.794,5.704 15.784,5.723 C15.79,5.768 15.79,5.789 15.746,5.809 C15.735,5.838 15.711,5.976 15.685,6.002 C15.654,6.021 15.603,6.058 15.563,6.056 C15.553,6.056 15.386,5.971 15.415,5.958 C15.45,5.943 15.565,5.808 15.605,5.798 C15.627,5.747 15.725,5.547 15.704,5.528 C15.6969745,5.50068786 15.7016879,5.47168227 15.717,5.448 C15.751,5.397 15.813,5.157 15.746,5.139 C15.679,5.122 15.628,5.15 15.605,5.18 C15.551,5.25 15.503,5.365 15.49,5.368 C15.481,5.37 15.457,5.461 15.462,5.505 C15.465,5.516 15.467,5.538 15.46,5.549 C15.405,5.563 15.385,5.612 15.382,5.663 C15.416,5.698 15.396,5.724 15.357,5.747 C15.331,5.763 15.243,5.77 15.18,5.747 C15.1381334,5.73122951 15.1023974,5.70250056 15.078,5.665 C15.081,5.647 15.118,5.638 15.133,5.633 C15.2101784,5.60619144 15.2769885,5.55582155 15.324,5.489 C15.328,5.435 15.318,5.375 15.383,5.36 C15.389,5.297 15.465,5.101 15.46,5.067 C15.442,5.056 15.323,4.99 15.324,4.797 C15.326,4.599 15.447,4.273 15.45,4.186 C15.453,4.084 15.364,4.059 15.369,4.022 C15.379,3.936 15.487,3.769 15.491,3.763 C15.549,3.709 15.29,3.832 15.224,3.815 C15.134,3.793 15.125,3.684 15.126,3.671 C15.128,3.659 15.301,3.453 15.352,3.411 C15.354,3.385 15.369,3.293 15.385,3.281 C15.403,3.268 15.432,3.263 15.483,3.261 C15.532,3.222 15.599,3.249 15.577,3.272 C15.573,3.276 15.813,3.276 15.813,3.282 C15.812,3.286 15.899,3.364 15.91,3.373 C15.95,3.353 16.098,3.363 16.114,3.381 C16.176,3.411 16.241,3.425 16.31,3.431 C16.298,3.444 16.039,3.567 16.01,3.554 C15.996,3.547 15.983,3.532 15.969,3.517 C15.96,3.508 15.915,3.54 15.905,3.59 C15.9030156,3.6769914 15.9251681,3.76283216 15.969,3.838 C16,3.889 16.099,4.054 16.229,4.126 C16.294,4.162 16.449,4.151 16.578,4.186 C16.745,4.231 16.885,4.317 16.897,4.315 C16.907,4.322 17.057,4.286 17.2,4.315 C17.337,4.342 17.47,4.434 17.47,4.434 C17.47,4.436 17.619,4.354 17.703,4.367 C17.7711429,4.37815471 17.8405612,4.37916566 17.909,4.37 C17.971,4.36 18.023,4.323 18.044,4.324 C18.061,4.325 18.121,4.368 18.084,4.404 C18.048,4.438 17.914,4.465 17.909,4.481 C17.903,4.503 17.889,4.631 17.862,4.646 L17.635,4.768 C17.621,4.775 17.652,4.973 17.618,5.157 C17.591,5.3 17.494,5.437 17.5,5.454 C17.515,5.48 17.465,5.555 17.46,5.577 C17.3891941,5.619939 17.320761,5.66667383 17.255,5.717 C17.2097722,5.78885434 17.1560518,5.85499765 17.095,5.914 C17.088,5.944 16.985,5.993 16.962,6.037 C16.937,6.085 16.993,6.127 16.989,6.137 C16.97,6.173 16.901,6.217 16.863,6.227 C16.835,6.234 16.684,6.236 16.671,6.182 C16.659,6.131 16.783,6.023 16.794,6.015 C16.807,5.951 16.834,5.92 16.896,5.897 C17.016,5.851 17.129,5.571 17.124,5.581 C17.122,5.576 17.184,5.394 17.048,5.331 C17.0397471,5.32746889 17.0314115,5.32413462 17.023,5.321 C16.896,5.422 16.686,5.588 16.636,5.641 L16.636,5.642 Z"/>
      <path fill="#FFF" d="M3.45584871,7.58102597 C2.67784871,7.58102597 2.03584871,6.92502597 1.95584871,6.08102597 C2.26184871,6.64802597 2.81884871,7.02802597 3.45584871,7.02802597 C4.09284871,7.02802597 4.64984871,6.64802597 4.95584871,6.08102597 C4.87584871,6.92502597 4.23384871,7.58102597 3.45584871,7.58102597 Z" transform="rotate(-20 3.456 6.831)"/>
      <polygon fill="#F2C500" points="2.255 2.934 2.785 3.413 3.45 3.177 3.481 3.167 3.475 3.199 3.341 3.914 3.87 4.394 3.894 4.416 3.864 4.426 3.199 4.664 3.063 5.38 3.057 5.412 3.033 5.39 2.503 4.912 1.838 5.148 1.807 5.158 1.813 5.125 1.947 4.41 1.419 3.93 1.394 3.908 1.424 3.898 2.089 3.66 2.225 2.945 2.231 2.912"/>
      <polygon fill="#F2C500" points="20.996 2.954 21.526 3.432 22.191 3.197 22.221 3.186 22.215 3.219 22.081 3.934 22.611 4.414 22.635 4.436 22.604 4.446 21.94 4.684 21.804 5.399 21.798 5.432 21.773 5.41 21.243 4.932 20.579 5.167 20.548 5.178 20.554 5.145 20.688 4.43 20.159 3.95 20.135 3.928 20.165 3.918 20.829 3.68 20.965 2.965 20.972 2.932" transform="rotate(43 21.385 4.182)"/>
      <polygon fill="#E94B35" points="4.968 3.439 9.632 2.616 9.722 3.616 5.21 4.411"/>
      <polygon fill="#E94B35" points="5.446 5.354 9.809 4.585 9.899 5.585 5.689 6.327"/>
    </g>
  </g>
</svg>
