<?xml version="1.0" encoding="UTF-8"?><svg xmlns="http://www.w3.org/2000/svg" width="48" height="48" viewBox="0 0 48 48">
  <g fill="none">
    <path fill="#FFF" d="M46.634,16 L1.366,16 C4.66,6.678 13.55,0 24,0 C34.45,0 43.34,6.678 46.634,16 Z"/>
    <path fill="#227FBB" d="M1.366,16 L46.634,16 C47.540917,18.5695934 48.0028754,21.2750595 48.0000133,24 C48.0000133,26.805 47.519,29.498 46.634,32 L1.366,32 C0.459082971,29.4304066 -0.00287537362,26.7249405 -1.33404768e-05,24 C-1.33404768e-05,21.195 0.481,18.502 1.366,16 L1.366,16 Z"/>
    <path fill="#E94B35" d="M1.366,32 L46.634,32 C43.34,41.322 34.45,48 24,48 C13.55,48 4.66,41.322 1.366,32 Z"/>
    <g transform="translate(6 11)">
      <path fill="#FFF" d="M10.295,24.698 C6.342,22.765 0.688,18.929 0.688,11.341 C0.688,3.753 1.045,0.302 1.045,0.302 L19.545,0.302 C19.545,0.302 19.902,3.753 19.902,11.342 C19.902,18.929 14.248,22.765 10.295,24.698 Z"/>
      <path fill="#E94B35" d="M10.295,23.69 C6.668,21.919 1.48,18.399 1.48,11.438 C1.48,4.476 1.808,1.31 1.808,1.31 L18.78,1.31 C18.78,1.31 19.108,4.476 19.108,11.438 C19.108,18.399 13.921,21.918 10.294,23.692 L10.295,23.69 Z"/>
      <path fill="#FFF" d="M15.674,9.087 C15.674,9.087 15.629,9.707 15.629,10.429 C15.629,11.151 15.674,11.77 15.674,11.77 C14.109,11.239 12.177,11.228 11.07,11.242 L11.07,15.087 L9.52,15.087 L9.52,11.242 C8.413,11.228 6.48,11.239 4.916,11.77 C4.916,11.77 4.961,11.15 4.961,10.429 C4.961,9.707 4.916,9.087 4.916,9.087 C6.622,9.667 8.537,9.627 9.519,9.612 L9.519,7.197 C8.624,7.189 7.335,7.232 5.876,7.727 C5.876,7.727 5.921,7.107 5.921,6.386 C5.921,5.664 5.876,5.044 5.876,5.044 C7.332,5.539 8.621,5.583 9.516,5.575 C9.469,4.045 9.03,2.118 9.03,2.118 C9.03,2.118 9.934,2.19 10.295,2.19 C10.656,2.19 11.559,2.118 11.559,2.118 C11.559,2.118 11.12,4.046 11.074,5.575 C11.969,5.583 13.257,5.539 14.714,5.045 C14.714,5.045 14.668,5.664 14.668,6.385 C14.668,7.108 14.713,7.727 14.713,7.727 C13.255,7.232 11.965,7.189 11.07,7.197 L11.07,9.61 C12.052,9.627 13.968,9.666 15.674,9.086 L15.674,9.087 Z"/>
      <path fill="#2C97DE" d="M10.294,14.67 C8.468,14.67 7.49,17.242 7.49,17.242 C7.49,17.242 6.947,16.022 5.457,16.022 C4.449,16.022 3.707,16.933 3.234,17.776 C5.068,20.738 7.994,22.566 10.294,23.691 C12.594,22.566 15.524,20.739 17.357,17.776 C16.885,16.933 16.142,16.023 15.134,16.023 C13.644,16.023 13.099,17.243 13.099,17.243 C13.099,17.243 12.121,14.671 10.294,14.671 L10.294,14.67 Z"/>
    </g>
  </g>
</svg>
