<?xml version="1.0" encoding="UTF-8"?><svg xmlns="http://www.w3.org/2000/svg" width="48" height="48" viewBox="0 0 48 48">
  <g fill="none">
    <path fill="#227FBB" d="M16,1.366 L16,46.634 C6.678,43.34 0,34.45 0,24 C0,13.55 6.678,4.66 16,1.366 Z"/>
    <path fill="#F2C500" d="M32,1.366 L32,46.634 C29.4304066,47.540917 26.7249405,48.0028754 24,48.0000133 C21.195,48.0000133 18.502,47.519 16,46.634 L16,1.366 C18.5695934,0.459082971 21.2750595,-0.00287537362 24,-1.33404768e-05 C26.805,-1.33404768e-05 29.498,0.481 32,1.366 Z"/>
    <path fill="#E94B35" d="M32,46.634 L32,1.366 C41.322,4.66 48,13.55 48,24 C48,34.45 41.322,43.34 32,46.634 Z"/>
    <path fill="#FFE7AA" d="M24.193,31.919 L25.808,31.242 C25.9564676,31.1797776 26.0658958,31.0498781 26.102,30.893 L26.218,30.388 C26.2701657,30.161035 26.4721173,30.0001372 26.705,30 L28.933,30 C29.0122858,30.0000031 29.0904357,29.9811512 29.161,29.945 L30.728,29.139 C30.8946557,29.0536109 30.9996291,28.8822573 30.9999999,28.695 L30.9999999,26.28 C31.0002322,26.1382141 30.9402566,26.0029965 30.835,25.908 L30.159,25.299 C29.9751919,25.1328958 29.9407347,24.8572383 30.078,24.651 L30.916,23.392 C30.9706986,23.3099683 30.9999999,23.2135958 30.9999999,23.115 L30.9999999,21.427 C30.9999999,21.2209879 30.8738795,21.0359884 30.682,20.961 L29.928,20.667 C29.7765488,20.608095 29.6631708,20.4792625 29.623992,20.3215531 C29.5848132,20.1638436 29.6247212,19.9969312 29.731,19.874 L30.607,18.86 C30.7042276,18.7474188 30.746279,18.5973919 30.72173,18.4506776 C30.697181,18.3039633 30.6085809,18.1757977 30.48,18.101 L28.858,17.157 C28.6930676,17.060923 28.4878243,17.0671307 28.329,17.173 L26.989,18.067 C26.8310696,18.1726012 26.6269357,18.1795745 26.4621672,18.0849969 C26.2973986,17.9904193 26.2004654,17.8106327 26.212,17.621 L26.259,16.811 C26.2691559,16.6376617 26.1886559,16.4714651 26.0463507,16.3719738 C25.9040455,16.2724824 25.7203124,16.2539431 25.561,16.323 L24.199,16.913 C24.0720496,16.9680764 23.9279504,16.9680764 23.801,16.913 L22.439,16.323 C22.2796876,16.2539431 22.0959545,16.2724824 21.9536493,16.3719738 C21.8113441,16.4714651 21.7308441,16.6376617 21.741,16.811 L21.788,17.621 C21.7992498,17.8102982 21.7024438,17.9896694 21.5380322,18.0841637 C21.3736206,18.178658 21.1699021,18.1720109 21.012,18.067 L19.671,17.173 C19.5121757,17.0671307 19.3069324,17.060923 19.142,17.157 L17.52,18.101 C17.3910856,18.1757621 17.3022387,18.3041313 17.2776765,18.4511177 C17.2531143,18.598104 17.2953972,18.7483857 17.393,18.861 L18.269,19.874 C18.3752788,19.9969312 18.4151868,20.1638436 18.376008,20.3215531 C18.3368292,20.4792625 18.2234512,20.608095 18.072,20.667 L17.318,20.961 C17.1261205,21.0359884 16.9999999,21.2209879 16.9999999,21.427 L16.9999999,23.115 C16.9999999,23.2135958 17.0293014,23.3099683 17.084,23.392 L17.922,24.651 C18.0592653,24.8572383 18.0248081,25.1328958 17.841,25.299 L17.165,25.909 C17.0602603,26.0035296 17.0003335,26.1379109 16.9999999,26.279 L16.9999999,28.695 C17.0003709,28.8822573 17.1053443,29.0536109 17.272,29.139 L18.839,29.945 C18.9095643,29.9811512 18.9877142,30.0000031 19.067,30 L21.295,30 C21.5278827,30.0001372 21.7298343,30.161035 21.782,30.388 L21.898,30.893 C21.9338154,31.0502556 22.0432868,31.1805786 22.192,31.243 L23.807,31.919 C23.9304798,31.9706675 24.0695202,31.9706675 24.193,31.919 L24.193,31.919 Z"/>
    <path fill="#D9D9D9" d="M29,27.723 C29,27.723 29,27.853 28.989,27.936 C28.959,28.176 28.922,28.313 28.819,28.529 C28.719,28.739 28.639,28.849 28.48,29.015 C28.32,29.182 28.21,29.258 28.008,29.365 C27.812,29.468 27.689,29.501 27.475,29.552 C27.262,29.603 27.137,29.614 26.918,29.625 C26.718,29.635 26.604,29.625 26.404,29.611 C26.19,29.595 26.071,29.564 25.857,29.544 C25.68,29.527 25.58,29.512 25.403,29.513 C25.0998754,29.5045124 24.7982581,29.5586401 24.517,29.672 C24.299,29.765 24.052,29.928 24,30 C23.948,29.928 23.701,29.765 23.483,29.672 C23.2017659,29.5585569 22.9001311,29.504426 22.597,29.513 C22.42,29.513 22.32,29.527 22.143,29.543 C21.929,29.563 21.81,29.595 21.596,29.611 C21.396,29.625 21.282,29.634 21.082,29.625 C20.8942321,29.620981 20.7074621,29.596503 20.525,29.552 C20.3390972,29.5162422 20.1594935,29.4532292 19.992,29.365 C19.8143365,29.2785915 19.6542842,29.1599087 19.52,29.015 C19.3773678,28.8756059 19.2620535,28.7107743 19.18,28.529 C19.0877139,28.3433945 19.0304238,28.1423706 19.011,27.936 C19.0038808,27.8652204 19.0002098,27.7941364 19,27.723 L19,19 L28.997,19 L28.997,27.723 L29,27.723 Z"/>
    <path fill="#E94B35" d="M24,29.376 C24.865,28.791 25.725,29.073 26.728,29.126 C27.538,29.167 28.497,28.73 28.497,27.833 L28.497,19.5 L19.5,19.5 L19.5,27.833 C19.5,28.73 20.46,29.167 21.269,29.125 C22.271,29.073 23.14,28.79 24,29.376 Z"/>
    <polygon fill="#F2C500" points="25 19.5 26 19.5 26 24 25 24"/>
    <polygon fill="#F2C500" points="27 19.5 28 19.5 28 24 27 24"/>
    <path fill="#F2C500" d="M21,24.5 L21,29.122 C20.64143,29.0996228 20.2957254,28.980009 20,28.776 L20,24.5 L21,24.5 L21,24.5 Z M23,24.5 L23,29.023 C22.676,28.993 22.345,29.023 22,29.06 L22,24.5 L23,24.5 Z"/>
    <path fill="#F2C500" d="M28.5,29.23 C27.72,28.843 26.924,29.078 26.019,29.125 C25.209,29.167 24.25,28.73 24.25,27.833 L24.25,24.5 L28.5,24.5 L28.5,29.23 Z" transform="matrix(-1 0 0 1 52.75 0)"/>
    <polygon fill="#F2C500" points="20.7 23.03 22.3 23.03 23 21.5 21.5 19.983 20 21.5"/>
    <path fill="#E94B35" d="M25.799 25.257L27.347 25.224C27.417 25.222 27.477 25.269 27.495 25.336L27.5 25.356C27.5153219 25.4143099 27.4963467 25.4762698 27.451 25.516L27.446 25.52C27.4028431 25.557914 27.3780727 25.6125546 27.378 25.67L27.378 25.795C27.3780623 25.830126 27.3873746 25.864616 27.405 25.895L27.425 25.93C27.4512061 25.9746287 27.4590919 26.0276784 27.447 26.078L27.351 26.47C27.3459693 26.4901446 27.3327068 26.507249 27.3144499 26.5171382 27.2961929 26.5270274 27.2746211 26.5287915 27.255 26.522 27.2357548 26.5154941 27.2202853 26.5009482 27.2126082 26.4821395 27.2049312 26.4633308 27.205804 26.4421146 27.215 26.424L27.259 26.333C27.277664 26.2941462 27.2832761 26.2503022 27.275 26.208L27.262 26.137C27.2581986 26.1124682 27.2399099 26.0926869 27.215751 26.0869766 27.191592 26.0812663 27.1663824 26.0907661 27.152 26.111L26.945 26.386C26.9108018 26.4311834 26.8486074 26.4443891 26.799 26.417 26.7780655 26.405702 26.7635284 26.3853621 26.7596176 26.3618971 26.7557067 26.3384321 26.7628613 26.3144769 26.779 26.297L26.875 26.195C26.9036558 26.1637803 26.9114053 26.1186867 26.8948161 26.0796915 26.878227 26.0406963 26.8403652 26.0150064 26.798 26.014L26.385 26.004C26.2841396 26.0013503 26.1970995 26.0742411 26.182 26.174L26.154 26.362C26.144678 26.4248723 26.0998673 26.4766969 26.039 26.495 26.0161452 26.5015673 25.9915239 26.496591 25.9730135 26.4816633 25.9545031 26.4667355 25.9444237 26.4437274 25.946 26.42L25.966 26.08C25.9684091 26.0335355 25.9342326 25.9932247 25.888 25.988L25.883 25.988C25.8330365 25.9826691 25.783092 25.9982315 25.745 26.031 25.729726 26.044391 25.7207222 26.0635405 25.7201529 26.0838454 25.7195836 26.1041503 25.7275003 26.1237742 25.742 26.138L25.745 26.141C25.7802312 26.1751364 25.7891473 26.2282275 25.767 26.272L25.755 26.296C25.7457366 26.3155263 25.7262268 26.3281341 25.7046188 26.3285577 25.6830108 26.3289814 25.6630217 26.3171481 25.653 26.298L25.563 26.128C25.5353164 26.0768059 25.5368386 26.0147746 25.567 25.965L25.569 25.963C25.5992866 25.9135054 25.6065846 25.8532971 25.589 25.798L25.566 25.725C25.5456205 25.6600775 25.4936301 25.6099708 25.428 25.592L25.136 25.512C25.0891081 25.498978 25.0505546 25.465565 25.031 25.421 25.012527 25.3787874 25.0234402 25.3294758 25.058 25.299L25.28 25.101C25.3237783 25.062427 25.3822183 25.0448951 25.44 25.053L25.712 25.089C25.7318221 25.0918705 25.7489048 25.1044425 25.7575393 25.1225146 25.7661737 25.1405867 25.7652212 25.1617755 25.755 25.179 25.744343 25.1947102 25.743502 25.2151004 25.7528291 25.2316349 25.7621562 25.2481693 25.7800424 25.2579955 25.799 25.257L25.799 25.257zM25.799 27.257L27.347 27.224C27.417 27.222 27.477 27.269 27.495 27.336L27.5 27.356C27.5153219 27.4143099 27.4963467 27.4762698 27.451 27.516L27.446 27.52C27.4028431 27.557914 27.3780727 27.6125546 27.378 27.67L27.378 27.795C27.3780623 27.830126 27.3873746 27.864616 27.405 27.895L27.425 27.93C27.4512061 27.9746287 27.4590919 28.0276784 27.447 28.078L27.351 28.47C27.3459693 28.4901446 27.3327068 28.507249 27.3144499 28.5171382 27.2961929 28.5270274 27.2746211 28.5287915 27.255 28.522 27.2357548 28.5154941 27.2202853 28.5009482 27.2126082 28.4821395 27.2049312 28.4633308 27.205804 28.4421146 27.215 28.424L27.259 28.333C27.277664 28.2941462 27.2832761 28.2503022 27.275 28.208L27.262 28.137C27.2581986 28.1124682 27.2399099 28.0926869 27.215751 28.0869766 27.191592 28.0812663 27.1663824 28.0907661 27.152 28.111L26.945 28.386C26.9108018 28.4311834 26.8486074 28.4443891 26.799 28.417 26.7780655 28.405702 26.7635284 28.3853621 26.7596176 28.3618971 26.7557067 28.3384321 26.7628613 28.3144769 26.779 28.297L26.875 28.195C26.9036558 28.1637803 26.9114053 28.1186867 26.8948161 28.0796915 26.878227 28.0406963 26.8403652 28.0150064 26.798 28.014L26.385 28.004C26.2841396 28.0013503 26.1970995 28.0742411 26.182 28.174L26.154 28.362C26.144678 28.4248723 26.0998673 28.4766969 26.039 28.495 26.0161452 28.5015673 25.9915239 28.496591 25.9730135 28.4816633 25.9545031 28.4667355 25.9444237 28.4437274 25.946 28.42L25.966 28.08C25.9684091 28.0335355 25.9342326 27.9932247 25.888 27.988L25.883 27.988C25.8330365 27.9826691 25.783092 27.9982315 25.745 28.031 25.729726 28.044391 25.7207222 28.0635405 25.7201529 28.0838454 25.7195836 28.1041503 25.7275003 28.1237742 25.742 28.138L25.745 28.141C25.7802312 28.1751364 25.7891473 28.2282275 25.767 28.272L25.755 28.296C25.7457366 28.3155263 25.7262268 28.3281341 25.7046188 28.3285577 25.6830108 28.3289814 25.6630217 28.3171481 25.653 28.298L25.563 28.128C25.5353164 28.0768059 25.5368386 28.0147746 25.567 27.965L25.569 27.963C25.5992866 27.9135054 25.6065846 27.8532971 25.589 27.798L25.566 27.725C25.5456205 27.6600775 25.4936301 27.6099708 25.428 27.592L25.136 27.512C25.0891081 27.498978 25.0505546 27.465565 25.031 27.421 25.012527 27.3787874 25.0234402 27.3294758 25.058 27.299L25.28 27.101C25.3237783 27.062427 25.3822183 27.0448951 25.44 27.053L25.712 27.089C25.7318221 27.0918705 25.7489048 27.1044425 25.7575393 27.1225146 25.7661737 27.1405867 25.7652212 27.1617755 25.755 27.179 25.744343 27.1947102 25.743502 27.2151004 25.7528291 27.2316349 25.7621562 27.2481693 25.7800424 27.2579955 25.799 27.257L25.799 27.257z"/>
    <polygon fill="#D9D9D9" points="19 24 29 24 29 25 19 25"/>
    <polygon fill="#D9D9D9" points="23.5 19.267 24.5 19.267 24.5 29.47 23.5 29.47"/>
  </g>
</svg>
