<?xml version="1.0" encoding="UTF-8"?><svg xmlns="http://www.w3.org/2000/svg" width="48" height="48" viewBox="0 0 48 48">
  <g fill="none">
    <path fill="#E94B35" d="M48,24 C48,37.255 37.255,48 24,48 C10.745,48 0,37.255 0,24 L48,24 Z"/>
    <path fill="#227FBB" d="M48,24 L0,24 C0,10.745 10.745,0 24,0 C37.255,0 48,10.745 48,24 Z"/>
    <g transform="translate(6 9)">
      <path fill="#F2C500" d="M6 2.134L6 .5C6 .223857625 6.22385763 0 6.5 0 6.77614237 0 7 .223857625 7 .5L7 2.134C7.39196802 2.36030284 7.5830688 2.82166093 7.46592583 3.25884445 7.34878286 3.69602796 6.95260568 4.0000254 6.5 4.0000254 6.04739432 4.0000254 5.65121714 3.69602796 5.53407417 3.25884445 5.4169312 2.82166093 5.60803198 2.36030284 6 2.134zM6.5 5C5.74 5 5.182 5.426 5.148 6.51 4.963 6.122 4.178 4.9 3.444 5.063 3.009 5.161 2.624 5.879 2.689 6.703 2.329 5.47 1.271 5.267.5 5.997 1.185 6.667 1.49 8.643 2.066 9.5L10.932 9.5C11.509 8.643 11.815 6.666 12.5 5.997 11.729 5.267 10.672 5.47 10.311 6.703 10.376 5.879 9.99 5.161 9.554 5.063 8.82 4.9 8.037 6.122 7.852 6.51 7.818 5.426 7.259 5 6.499 5L6.5 5z"/>
      <path fill="#F2C500" d="M10.353,3.234 C10.979,3.771 10.932,4.735 10.066,6.252 L9.818,6.686 L10.686,7.182 L10.934,6.748 C12.009,4.865 12.081,3.398 11.004,2.475 C9.952,1.573 8.559,1.722 6.932,2.811 C6.77508467,2.91607321 6.69075627,3.10058995 6.714,3.288 L7.137,6.688 L8.129,6.565 L7.745,3.477 C8.905,2.765 9.747,2.715 10.353,3.234 Z"/>
      <path fill="#F2C500" d="M2.25495235,3.438 C3.41495235,2.726 4.25695235,2.675 4.86295235,3.195 C5.48895235,3.732 5.44195235,4.695 4.57595235,6.213 L4.32795235,6.647 L5.19595235,7.143 L5.44395235,6.709 C6.51895235,4.825 6.59095235,3.359 5.51395235,2.436 C4.46095235,1.533 3.06895235,1.683 1.44195235,2.772 C1.28503703,2.87707321 1.20070863,3.06158995 1.22395235,3.249 L1.64595235,6.649 L2.63895235,6.526 L2.25495235,3.438 Z" transform="matrix(-1 0 0 1 7.507 0)"/>
      <path fill="#000" d="M11,9.63 C11,10.045 8.984,10.5 6.5,10.5 C4.016,10.5 2,10.045 2,9.63 C2,9.218 4.016,9 6.5,9 C8.984,9 11,9.217 11,9.63 Z"/>
    </g>
  </g>
</svg>
