<?xml version="1.0" encoding="UTF-8"?><svg xmlns="http://www.w3.org/2000/svg" width="48" height="48" viewBox="0 0 48 48">
  <g fill="none">
    <circle cx="24" cy="24" r="24" fill="#227FBB"/>
    <path fill="#227FBB" d="M24,0 L24,24 L0,24 C0,10.745 10.745,0 24,0 Z"/>
    <path fill="#FFF" d="M8.502,5.674 L12,9.172 L20.984,0.188 C21.9844438,0.0626559908 22.9917347,-2.09902892e-07 24,-2.09902892e-07 L24,2.828 L14.828,11.9999998 L24,21.172 L24,23.9999998 L21.172,23.9999998 L12,14.828 L2.828,23.9999998 L0,23.9999998 C0,22.978 0.064,21.972 0.188,20.984 L9.172,11.9999998 L5.674,8.502 C6.53684503,7.48275527 7.48275527,6.53684503 8.502,5.674 Z"/>
    <path fill="#E94B35" d="M21.777,0.102 C22.5160537,0.0340732816 23.2578312,0 24,0 L12.707,11.293 L11.647,10.233 L21.776,0.101 L21.777,0.102 Z M7.03,7.029 L11.294,11.293 L10.234,12.353 L6.003,8.123 C6.334,7.748 6.677,7.383 7.03,7.029 Z M12.708,12.707 L13.768,11.647 L24,21.878 L24,24 L12.707,12.707 L12.708,12.707 Z M12.355,13.767 L2.12,24 L0,24 L11.293,12.707 L12.353,13.767 L12.355,13.767 Z"/>
    <path fill="#FFF" d="M15,1.745 L15,9 L24,9 L24,15 L15,15 L15,24 L9,24 L9,15 L1.745,15 C2.62015684,12.8396008 3.80562521,10.8183419 5.264,9 L9,9 L9,5.264 C10.8182791,3.80527313 12.8395412,2.61946604 15,1.744 L15,1.745 Z"/>
    <path fill="#E94B35" d="M14,2.176 L14,10 L24,10 L24,14 L14,14 L14,24 L10,24 L10,14 L2.176,14 C2.82120654,12.5947205 3.6008372,11.2551489 4.504,10 L10,10 L10,4.504 C11.2551489,3.6008372 12.5947205,2.82120654 14,2.176 Z"/>
    <path fill="#FFF" d="M36.75,9 L37.195,10.42 L38.555,9.891 L37.75,11.133 L39,11.894 L37.552,12.024 L37.752,13.5 L36.75,12.42 L35.749,13.5 L35.949,12.023 L34.5,11.894 L35.75,11.134 L34.946,9.891 L36.305,10.419 L36.75,9 Z M42.75,15 L43.195,16.42 L44.555,15.891 L43.75,17.133 L45,17.894 L43.552,18.024 L43.752,19.5 L42.75,18.42 L41.749,19.5 L41.949,18.023 L40.5,17.894 L41.75,17.134 L40.946,15.891 L42.305,16.419 L42.75,15 Z M30.75,16.5 L31.195,17.92 L32.555,17.391 L31.75,18.633 L33,19.394 L31.552,19.524 L31.752,21 L30.75,19.92 L29.749,21 L29.949,19.523 L28.5,19.394 L29.75,18.634 L28.946,17.391 L30.305,17.919 L30.75,16.5 L30.75,16.5 Z M36.75,28.5 L37.195,29.92 L38.555,29.391 L37.75,30.633 L39,31.394 L37.552,31.524 L37.752,33 L36.75,31.92 L35.749,33 L35.949,31.523 L34.5,31.394 L35.75,30.634 L34.946,29.391 L36.305,29.919 L36.75,28.5 L36.75,28.5 Z M39,21 L39.337,22.161 L40.5,22.161 L39.582,22.871 L39.918,24 L39,23.29 L38.082,23.968 L38.418,22.871 L37.5,22.161 L38.633,22.161 L39,21 Z"/>
    <polygon fill="#FFF" points="14 32.5 14.89 35.339 17.609 34.283 16 36.766 18.5 38.288 15.604 38.546 16.003 41.5 14 39.339 11.997 41.5 12.397 38.546 9.5 38.288 12 36.766 10.391 34.283 13.11 35.339"/>
  </g>
</svg>
