<?xml version="1.0" encoding="UTF-8"?><svg xmlns="http://www.w3.org/2000/svg" width="48" height="48" viewBox="0 0 48 48">
  <g fill="none">
    <path fill="#000" d="M46.805,31.5 L1.195,31.5 C0.40078337,29.0793536 -0.00260823824,26.5476071 -1.25674536e-05,24 C-1.25674536e-05,10.745 10.745,0 24,0 C37.255,0 48,10.745 48,24 C48,26.62 47.58,29.14 46.805,31.5 Z"/>
    <polygon fill="#F2C500" points="22.467 10.028 24 4.5 25.533 10.028 29.4 5.714 28.315 11.215 33.572 8.948 30.128 13.588 36.001 13.801 30.818 16.5 36 19.2 30.127 19.412 33.571 24.052 28.314 21.785 29.399 27.285 25.533 22.972 24 28.5 22.467 22.972 18.601 27.286 19.686 21.785 14.429 24.052 17.873 19.412 12 19.199 17.183 16.5 12 13.8 17.873 13.588 14.429 8.948 19.686 11.215 18.601 5.715"/>
    <polygon fill="#227FBB" points="7 18 41 18 41 36 7 36"/>
    <polygon fill="#FFF" points="10 27 24 48 38 27"/>
    <path fill="#E94B35" d="M4.8 9.599L24 48C10.745 48 0 37.255 0 24 0 18.596 1.786 13.61 4.8 9.599zM24 48L43.2 9.599C46.3228298 13.7499668 48.0079002 18.805529 48.0000277 24 48.0000277 37.255 37.255 48 24 48L24 48z"/>
  </g>
</svg>
