<?xml version="1.0" encoding="UTF-8"?><svg xmlns="http://www.w3.org/2000/svg" width="48" height="48" viewBox="0 0 48 48">
  <g fill="none">
    <circle cx="24" cy="24" r="24" fill="#E94B35"/>
    <polygon fill="#F2C500" points="12.5 17.5 8.092 20.568 9.647 15.428 5.367 12.182 10.737 12.072 12.5 7 14.263 12.073 19.633 12.183 15.353 15.427 16.908 20.567"/>
    <polygon fill="#F2C500" points="21.065 8.812 19.89 9.63 20.304 8.259 19.164 7.393 20.595 7.364 21.065 6.012 21.535 7.364 22.967 7.394 21.827 8.259 22.241 9.629" transform="rotate(20 21.065 7.821)"/>
    <polygon fill="#F2C500" points="24.905 12.728 23.729 13.546 24.144 12.175 23.002 11.31 24.434 11.28 24.904 9.928 25.374 11.28 26.807 11.31 25.665 12.175 26.08 13.545" transform="rotate(-30 24.905 11.737)"/>
    <polygon fill="#F2C500" points="25.033 17.9 23.858 18.718 24.272 17.347 23.132 16.482 24.562 16.452 25.033 15.1 25.503 16.453 26.935 16.482 25.794 17.347 26.209 18.717" transform="rotate(10 25.033 16.91)"/>
    <polygon fill="#F2C500" points="21.065 21.812 19.89 22.63 20.304 21.259 19.164 20.393 20.595 20.364 21.065 19.012 21.535 20.364 22.967 20.394 21.827 21.259 22.241 22.629" transform="rotate(20 21.065 20.821)"/>
  </g>
</svg>
