<?xml version="1.0" encoding="UTF-8"?><svg xmlns="http://www.w3.org/2000/svg" width="48" height="48" viewBox="0 0 48 48">
  <g fill="none">
    <path fill="#E94B35" d="M24,48 C10.745,48 0,37.255 0,24 C0,10.745 10.745,0 24,0 C37.255,0 48,10.745 48,24 C48,37.255 37.255,48 24,48 Z"/>
    <path fill="#F2C500" d="M40.97,7.03 L7.03,40.97 C2.52205038,36.4740432 -0.00797052869,30.3667239 -1.87756743e-05,24 C-1.87756743e-05,10.745 10.745,-1.87756743e-05 24,-1.87756743e-05 C30.3667239,-0.00797052869 36.4740432,2.52205038 40.97,7.03 Z"/>
    <g fill="#FFF" transform="translate(6 11)">
      <path d="M8.994 18.746C8.94 19.282 8.034 20.374 7.216 20.434 6.399 20.494 6.106 21.596 5.403 21.288 6.061 21.149 6.061 20.315 6.577 20.057 6.203 19.907 6.007 20.851 5.527 20.851 5.047 20.851 4.817 21.705 4.23 21.645 3.644 21.586 3.582 22.685 2.408 22.698 1.511 22.708.4 23.879 4.4408921e-16 23.373.871 23.234 1.222 22.695 1.742 22.102 2.577 21.149 3.519 21.576 3.839 20.732 3.47730375 21.0091657 3.03262552 21.1560998 2.577 21.149 2.031 21.136 1.431 22.122.817 21.685 1.173 21.635 1.404 21.467 1.777 21.03 2.16 20.582 2.721 20.872 3.164 20.414 3.857 19.699 4.452 20.295 5.119 19.402 4.932 19.302 4.532 19.372 4.159 19.59 3.786 19.809 3.306 19.441 2.879 19.7 2.933 19.114 3.929 19.449 4.55 19.044 5.252 18.587 5.834 18.721 6.39 18.776 5.617 18.771 5.315 17.952 4.248 18.19 3.783 18.294 3.413 17.475 2.951 17.892 2.964 17.585 3.448 17.336 3.946 17.634 4.444 17.932 4.644 17.374 5.634 18.071 6.044 18.359 6.745 17.892 7.19 18.201 7.132 18.011 6.879 17.892 6.581 17.917 6.768 17.49 7.971 17.545 8.496 17.972 8.745 18.051 9.047 18.21 8.994 18.746L8.994 18.746zM16.5 19C17.3284271 19 18 18.3284271 18 17.5 18 16.6715729 17.3284271 16 16.5 16 15.6715729 16 15 16.6715729 15 17.5 15 18.3284271 15.6715729 19 16.5 19 16.5 19 15.672 19 16.5 19z"/>
      <path d="M13.274 17.946C13.462 18.296 14.234 18.214 14.367 18.184 14.478 18.604 14.834 18.594 14.987 18.824 15.14 19.054 15.662 19.034 15.815 18.904 15.676 18.884 15.495 18.764 15.321 18.554 15.111 18.301 16.338 16.204 16.498 16.474 16.35 15.159 14.945 15.914 14.82 16.044 14.82 15.334 15.607 14.894 15.718 14.934 15.537 14.594 15.126 14.604 14.82 14.634 14.503 14.66 14.005 15.214 14.256 16.084 14.148 16.079 12.899 16.574 12.749 16.574L13.274 17.946 13.274 17.946zM31.5 10C32.3284271 10 33 9.32842712 33 8.5 33 7.67157288 32.3284271 7 31.5 7 30.6715729 7 30 7.67157288 30 8.5 30 9.32842712 30.6715729 10 31.5 10 31.5 10 30.671 10 31.5 10L31.5 10z"/>
      <path d="M23.477 10.246C23.85 9.91 25.348 9.404 25.74 9.656 26.131 9.909 27.43 10.212 28.071 9.791 28.711 9.371 29.015 9.151 29.299 9.201 29.513 9.505 29.771 9.648 30.091 9.673 30.144 9.727 32.163 9.443 31.861 8.596 31.735 8.242 29.941 8.192 29.824 8.184 29.8246506 8.09216376 29.8097744 8.00087809 29.78 7.914 29.669 7.713 29.575 7.473 29.62 7.166 29.4177346 7.38643354 29.2495441 7.63585435 29.121 7.906 28.783 7.688 27.947 8.007 27.555 8.091 27.164 8.175 25.846 7.974 25.544 7.671 25.241 7.368 24.654 7.183 24.102 7.031 23.343 6.823 21.582 6.172 21.685 7.031 21.815 8.133 22.968 9.833 22.968 9.833L23.477 10.246 23.477 10.246zM13.5 25C14.0358984 25 14.531089 24.7141016 14.7990382 24.25 15.0669874 23.7858984 15.0669874 23.2141016 14.7990382 22.75 14.531089 22.2858984 14.0358984 22 13.5 22 12.6715729 22 12 22.6715729 12 23.5 12 24.3284271 12.6715729 25 13.5 25 13.5 25 12.672 25 13.5 25L13.5 25z"/>
      <path d="M23.653,9.26 C24.195,10.432 24.127,12.277 23.281,13.448 C23.147,13.633 22.289,14.372 22.692,14.92 C23.162,15.559 24.922,16.011 25.041,16.145 C25.159,15.896 27.003,14.153 27.985,14.92 C27.306,15.006 26.631,15.473 26.513,15.985 C26.707,15.887 28.551,15.985 28.408,17.209 C28.34,16.819 26.631,16.145 25.948,17.209 C25.264,18.274 26.211,19.458 26.631,19.604 C26.259,19.729 24.251,18.735 24.889,17.334 C24.707,17.39 22.509,16.999 21.395,15.985 C20.43,15.106 20.517,13.599 20.54,13.483 C19.728,13.413 19.111,13.753 16.779,13 C13.259,11.864 12.399,14.166 13.176,15.834 C13.68,16.914 13.054,19.294 13.542,20.509 C14.322,20.863 15.489,21.371 15.482,21.574 C15.718,22.018 15.634,22.559 15.38,22.904 C15.406,22.718 15.38,22.361 15.226,22.114 C15.072,21.869 14.256,21.583 14.111,21.53 C14.254,21.596 14.518,23.325 13.841,23.875 C13.786,23.065 13.093,22.36 12.936,22.115 C12.209,22.115 11.62,22.733 11.62,23.495 C11.586,23.211 11.244,22.931 11.286,22.692 C11.083,22.035 11.37,21.423 12.199,21.299 C12.098,21.051 12.453,20.793 12.318,20.509 C12.145,20.147 11.828,19.675 11.354,19.125 C11.641,18.611 11.557,17.919 11.387,17.493 C11.144,16.882 10.914,17.032 10.051,18.025 C8.645,19.645 6.769,19.196 5.111,20.261 C4.67,20.544 4.231,20.651 4.705,20.155 C5.178,19.658 6.43,19.161 7.242,18.735 C8.763,17.938 10.051,16.606 10.558,14.015 C11.751,7.928 16.141,9.935 18.916,11.07 C21.521,12.136 21.048,9.722 19.728,8.267 C18.142,6.518 18.609,3.77 21.954,4.289 C23.29,4.094 24.169,4.887 23.654,5.357 C23.552,5.464 22.967,7.775 23.654,9.26 L23.653,9.26 Z"/>
      <path d="M28.5 19C29.3284271 19 30 18.3284271 30 17.5 30 16.6715729 29.3284271 16 28.5 16 27.6715729 16 27 16.6715729 27 17.5 27 18.3284271 27.6715729 19 28.5 19 28.5 19 27.672 19 28.5 19zM18 2.906C18.042 2.794 19.362 2.396 21.112 2.716 21.68 2.82 22.375 2.736 22.98 3.108 22.593 1.781 21.343 2.452 18 .788 19.14 1.119 20.352 1.387 21.586 1.69 22.552 1.927 23.587 2.14 24.241 2.733 24.519 2.984 25.368 2.737 25.433 2.717 25.845 2.59 26.127 2.627 26.351 2.733 26.877 2.353 27.494 2.458 27.941 2.906 27.9846761 2.82077435 28.0600971 2.75612775 28.151 2.726 28.563 2.602 28.896 2.983 29.01 3.478 29.33 3.413 29.697 3.586 29.939 3.823 30.273 3.637 30.503 3.629 30.587 3.82 30.885 3.668 31.272 3.573 31.464 4.086 31.657 4.6 31.009 4.448 30.904 5.532 30.838 6.202 30.15 6.464 29.606 6.065 28.736 5.425 27.888 5.323 27.467 6.293 27.047 7.263 26.717 7.827 25.697 7.511 25.328 7.397 24.855 7.549 24.557 7.986 24.259 8.424 21.909 7.952 20.034 7.834 19.122 7.777 18.544 7.91 18 8.5 18.947 6.37 20.235 7.54 20.858 6.864 21.226 6.464 21.506 6.16 21.699 5.78 21.7497791 5.66261942 21.8508285 5.57443087 21.974 5.54 20.876 5.165 20.982 3.199 17.366 4.086 17.718 3.409 19.069 3.406 20.421 3.668 21.021 3.784 21.675 3.775 22.152 4.086 21.7 2.357 17.947 3.047 18 2.906z"/>
    </g>
  </g>
</svg>
