<?xml version="1.0" encoding="UTF-8"?><svg xmlns="http://www.w3.org/2000/svg" width="48" height="48" viewBox="0 0 48 48">
  <g fill="none">
    <path fill="#FFF" d="M46.634,16 L1.366,16 C4.66,6.678 13.55,0 24,0 C34.45,0 43.34,6.678 46.634,16 Z"/>
    <path fill="#227FBB" d="M1.366,16 L46.634,16 C47.540917,18.5695934 48.0028754,21.2750595 48.0000133,24 C48.0000133,26.805 47.519,29.498 46.634,32 L1.366,32 C0.459082971,29.4304066 -0.00287537362,26.7249405 -1.33404768e-05,24 C-1.33404768e-05,21.195 0.481,18.502 1.366,16 L1.366,16 Z"/>
    <path fill="#E94B35" d="M1.366,32 L46.634,32 C43.34,41.322 34.45,48 24,48 C13.55,48 4.66,41.322 1.366,32 Z"/>
    <g transform="translate(8 6)">
      <path fill="#E94B35" d="M15.244,11.514 L15.874,1.989 C10.9740882,-0.395755588 5.24991181,-0.395755588 0.35,1.989 L0.98,11.514 C1.263,15.794 4.103,19.448 8.112,20.688 C12.121,19.448 14.962,15.794 15.244,11.514"/>
      <path fill="#227FBB" d="M1.539,11.476 C1.802,15.454 4.406,18.866 8.112,20.086 C11.817,18.866 14.422,15.454 14.685,11.476 L15.329,1.736 C15.412,1.776 12.075,-0.001 8.112,-4.21902256e-07 C4.187,-4.21902256e-07 0.797,1.783 0.894,1.736 L1.539,11.476 Z"/>
      <path fill="#FFF" d="M2.29,12.805 C2.965,15.916 5.17,18.445 8.112,19.482 C11.054,18.445 13.259,15.916 13.934,12.805 L11.023,8.829 L9.858,10.419 L8.112,6.841 L6.365,10.419 L5.201,8.829 L2.291,12.805"/>
      <path fill="#227FBB" d="M2.55,13.799 C2.808,14.255 3.231,14.589 3.729,14.725 C4.22634181,14.8611588 4.75766505,14.7893291 5.201,14.526 C5.79894129,14.1709841 6.54305871,14.1709841 7.141,14.526 C7.73919103,14.8814119 8.48380897,14.8814119 9.082,14.526 C9.67994129,14.1709841 10.4240587,14.1709841 11.022,14.526 C11.4656054,14.7896057 11.9973486,14.8614434 12.495,14.725 C12.992,14.589 13.416,14.255 13.674,13.799 L13.674,14.373 C13.416,14.829 12.992,15.163 12.495,15.299 C11.9976582,15.4351588 11.466335,15.3633291 11.023,15.1 C10.4250587,14.7449841 9.68094129,14.7449841 9.083,15.1 C8.48480897,15.4554119 7.74019103,15.4554119 7.142,15.1 C6.54405871,14.7449841 5.79994129,14.7449841 5.202,15.1 C4.7583946,15.3636057 4.22665141,15.4354434 3.729,15.299 C3.22815483,15.1600747 2.80364748,14.8266618 2.55,14.373 L2.55,13.799 L2.55,13.799 Z"/>
      <path fill="#227FBB" d="M2.55,14.947 C2.808,15.403 3.231,15.737 3.729,15.873 C4.22634181,16.0091588 4.75766505,15.9373291 5.201,15.674 C5.79894129,15.3189841 6.54305871,15.3189841 7.141,15.674 C7.73919103,16.0294119 8.48380897,16.0294119 9.082,15.674 C9.67994129,15.3189841 10.4240587,15.3189841 11.022,15.674 C11.4656054,15.9376057 11.9973486,16.0094434 12.495,15.873 C12.992,15.736 13.416,15.403 13.674,14.947 L13.674,15.52 C13.416,15.977 12.992,16.31 12.495,16.447 C11.9976582,16.5831588 11.466335,16.5113291 11.023,16.248 C10.4250587,15.8929841 9.68094129,15.8929841 9.083,16.248 C8.48480897,16.6034119 7.74019103,16.6034119 7.142,16.248 C6.54405871,15.8929841 5.79994129,15.8929841 5.202,16.248 C4.7583946,16.5116057 4.22665141,16.5834434 3.729,16.447 C3.22798017,16.3078361 2.80344468,15.974041 2.55,15.52 L2.55,14.947 L2.55,14.947 Z"/>
      <polygon fill="#F2C500" points="8.112 4.108 8.257 4.595 8.742 4.481 8.403 4.853 8.743 5.226 8.257 5.112 8.112 5.599 7.966 5.112 7.482 5.226 7.821 4.853 7.481 4.481 7.966 4.595"/>
      <polygon fill="#F2C500" points="5.929 1.126 6.074 1.613 6.559 1.499 6.219 1.872 6.559 2.244 6.074 2.13 5.929 2.617 5.783 2.13 5.299 2.244 5.638 1.872 5.298 1.499 5.783 1.613"/>
      <polygon fill="#F2C500" points="10.295 1.126 10.441 1.613 10.925 1.499 10.586 1.872 10.926 2.244 10.441 2.13 10.295 2.617 10.149 2.13 9.665 2.244 10.004 1.872 9.664 1.499 10.149 1.613"/>
    </g>
  </g>
</svg>
