<?xml version="1.0" encoding="UTF-8"?><svg xmlns="http://www.w3.org/2000/svg" width="48" height="48" viewBox="0 0 48 48">
  <g fill="none">
    <path fill="#2C97DE" d="M46.634 16L1.366 16C4.66 6.678 13.55 0 24 0 34.45 0 43.34 6.678 46.634 16zM1.366 32L46.634 32C43.34 41.322 34.45 48 24 48 13.55 48 4.66 41.322 1.366 32z"/>
    <path fill="#FFF" d="M1.366,16 L46.634,16 C47.540917,18.5695934 48.0028754,21.2750595 48.0000133,24 C48.0000133,26.805 47.519,29.498 46.634,32 L1.366,32 C0.459082971,29.4304066 -0.00287537362,26.7249405 -1.33404768e-05,24 C-1.33404768e-05,21.195 0.481,18.502 1.366,16 L1.366,16 Z"/>
    <polygon fill="#E87E04" points="24 28.375 22.905 30.914 22.648 28.161 20.822 30.237 21.428 27.539 19.05 28.949 20.46 26.572 17.763 27.178 19.839 25.352 17.086 25.095 19.625 24 17.086 22.905 19.839 22.648 17.763 20.822 20.461 21.428 19.051 19.05 21.428 20.46 20.822 17.763 22.648 19.839 22.905 17.086 24 19.625 25.095 17.086 25.352 19.839 27.178 17.763 26.572 20.461 28.95 19.051 27.54 21.428 30.237 20.822 28.161 22.648 30.914 22.905 28.375 24 30.914 25.095 28.161 25.352 30.237 27.178 27.539 26.572 28.949 28.95 26.572 27.54 27.178 30.237 25.352 28.161 25.095 30.914"/>
    <path fill="#F2C500" d="M24,28 C21.790861,28 20,26.209139 20,24 C20,21.790861 21.790861,20 24,20 C26.209139,20 28,21.790861 28,24 C28,26.209139 26.209139,28 24,28 Z"/>
  </g>
</svg>
