<?xml version="1.0" encoding="UTF-8"?><svg xmlns="http://www.w3.org/2000/svg" width="48" height="48" viewBox="0 0 48 48">
  <g fill="none">
    <circle cx="24" cy="24" r="24" fill="#FFF"/>
    <path fill="#227FBB" d="M3.21,36 L44.79,36 C40.64,43.174 32.882,48 24,48 C15.118,48 7.36,43.174 3.21,36 Z"/>
    <path fill="#E94B35" d="M0.332,28 L47.668,28 C47.4397834,29.3607533 47.0938168,30.6991153 46.634,32 L1.366,32 C0.906183188,30.6991153 0.560216622,29.3607533 0.332,28 L0.332,28 Z"/>
    <path fill="#227FBB" d="M48,24 L0,24 C0,10.745 10.745,0 24,0 C37.255,0 48,10.745 48,24 Z"/>
    <path fill="#F2C500" d="M16.5,21.5 L15.03,22.523 L15.549,20.809 L14.122,19.727 L15.912,19.691 L16.5,18 L17.088,19.691 L18.878,19.727 L17.451,20.809 L17.969,22.523 L16.5,21.5 Z M21.496,23.123 L19.706,23.087 L21.133,22.005 L20.614,20.292 L22.084,21.314 L23.554,20.292 L23.035,22.005 L24.462,23.087 L22.672,23.123 L22.084,24.814 L21.496,23.124 L21.496,23.123 Z M24.584,27.373 L23.157,26.292 L24.947,26.255 L25.535,24.565 L26.123,26.255 L27.913,26.292 L26.486,27.373 L27.004,29.087 L25.535,28.064 L24.065,29.087 L24.584,27.373 Z M24.584,32.627 L24.066,30.913 L25.535,31.936 L27.005,30.913 L26.486,32.627 L27.913,33.708 L26.123,33.745 L25.535,35.435 L24.947,33.745 L23.157,33.708 L24.584,32.627 Z M21.496,36.877 L22.084,35.186 L22.672,36.876 L24.462,36.913 L23.035,37.995 L23.553,39.708 L22.084,38.686 L20.614,39.708 L21.133,37.995 L19.706,36.913 L21.496,36.877 L21.496,36.877 Z M16.5,38.5 L17.97,37.477 L17.451,39.191 L18.878,40.273 L17.088,40.309 L16.5,42 L15.912,40.309 L14.122,40.273 L15.549,39.191 L15.031,37.477 L16.5,38.5 Z M11.504,36.877 L13.294,36.913 L11.867,37.995 L12.386,39.708 L10.916,38.686 L9.446,39.708 L9.965,37.995 L8.538,36.913 L10.328,36.877 L10.916,35.186 L11.504,36.876 L11.504,36.877 Z M8.416,32.627 L9.843,33.708 L8.053,33.745 L7.465,35.435 L6.877,33.745 L5.087,33.708 L6.514,32.627 L5.995,30.913 L7.465,31.936 L8.935,30.913 L8.416,32.627 Z M8.416,27.373 L8.934,29.087 L7.465,28.064 L5.995,29.087 L6.514,27.373 L5.087,26.292 L6.877,26.255 L7.465,24.565 L8.053,26.255 L9.843,26.292 L8.416,27.373 Z M11.504,23.123 L10.916,24.814 L10.328,23.124 L8.538,23.087 L9.965,22.005 L9.447,20.292 L10.916,21.314 L12.386,20.292 L11.867,22.005 L13.294,23.087 L11.504,23.123 Z"/>
  </g>
</svg>
