<?xml version="1.0" encoding="UTF-8"?><svg xmlns="http://www.w3.org/2000/svg" width="48" height="48" viewBox="0 0 48 48">
  <g fill="none">
    <circle cx="24" cy="24" r="24" fill="#2C97DE"/>
    <path fill="#227FBB" d="M24,0 L24,24 L0,24 C0,10.745 10.745,0 24,0 Z"/>
    <path fill="#FFF" d="M8.502,5.674 L12,9.172 L20.984,0.188 C21.9844438,0.0626559908 22.9917347,-2.09902892e-07 24,-2.09902892e-07 L24,2.828 L14.828,11.9999998 L24,21.172 L24,23.9999998 L21.172,23.9999998 L12,14.828 L2.828,23.9999998 L0,23.9999998 C0,22.978 0.064,21.972 0.188,20.984 L9.172,11.9999998 L5.674,8.502 C6.53684503,7.48275527 7.48275527,6.53684503 8.502,5.674 Z"/>
    <path fill="#E94B35" d="M21.777,0.102 C22.5160537,0.0340732816 23.2578312,0 24,0 L12.707,11.293 L11.647,10.233 L21.776,0.101 L21.777,0.102 Z M7.03,7.029 L11.294,11.293 L10.234,12.353 L6.003,8.123 C6.334,7.748 6.677,7.383 7.03,7.029 Z M12.708,12.707 L13.768,11.647 L24,21.878 L24,24 L12.707,12.707 L12.708,12.707 Z M12.355,13.767 L2.12,24 L0,24 L11.293,12.707 L12.353,13.767 L12.355,13.767 Z"/>
    <path fill="#FFF" d="M15,1.745 L15,9 L24,9 L24,15 L15,15 L15,24 L9,24 L9,15 L1.745,15 C2.62015684,12.8396008 3.80562521,10.8183419 5.264,9 L9,9 L9,5.264 C10.8182791,3.80527313 12.8395412,2.61946604 15,1.744 L15,1.745 Z"/>
    <path fill="#E94B35" d="M14,2.176 L14,10 L24,10 L24,14 L14,14 L14,24 L10,24 L10,14 L2.176,14 C2.82120654,12.5947205 3.6008372,11.2551489 4.504,10 L10,10 L10,4.504 C11.2551489,3.6008372 12.5947205,2.82120654 14,2.176 Z"/>
    <g transform="translate(27.5 15)">
      <path fill="#FFF" d="M0,0 L0,12.818 C0,17.01 7.5,19.5 7.5,19.5 C7.5,19.5 15,17.01 15,12.818 L15,0 L0,0 Z"/>
      <polygon fill="#E94B35" points="6.46 5.047 6.46 10.239 0 10.239 0 12.347 6.46 12.347 6.46 19.1 7.5 19.501 8.54 19.1 8.54 12.348 15 12.348 15 10.24 8.54 10.24 8.54 5.047 15 5.047 15 0 0 0 0 5.047"/>
      <path fill="#F2C500" d="M5.247,2.168 L6.191,2.418 C6.27107082,2.43963344 6.35526565,2.44100805 6.436,2.422 L10.2,1.514 C10.2275802,1.50729021 10.2556818,1.50294116 10.284,1.501 L11.39,1.427 C11.4573895,1.4230248 11.51665,1.38106338 11.5427799,1.31881888 C11.5689099,1.25657439 11.5573588,1.18488661 11.513,1.134 L11.481,1.097 C11.3587323,0.954904245 11.1672544,0.893137168 10.985,0.937 L8.157,1.616 C8.06778765,1.63750724 7.97437698,1.63404759 7.887,1.606 L7.351,1.433 C7.17316365,1.3752411 6.97796093,1.42153423 6.845,1.553 L6.801,1.598 C6.7340628,1.66433416 6.64234528,1.69950903 6.54821781,1.69494527 C6.45409033,1.69038152 6.36620591,1.64649868 6.306,1.574 L6.032,1.245 C5.95745942,1.15504397 5.91677174,1.04182608 5.917,0.925 L5.917,0.73 C5.91739625,0.687510413 5.9465406,0.650692833 5.98780462,0.640553674 C6.02906864,0.630414514 6.07195717,0.649532587 6.092,0.687 L6.119,0.738 C6.23121704,0.95197678 6.48039068,1.05509763 6.711,0.983 L7.256,0.81 C7.34828964,0.78124138 7.44693703,0.779851981 7.54,0.806 L8.491,1.072 C8.57090442,1.09429326 8.65510011,1.0963552 8.736,1.078 L11.66,0.417 C11.8350151,0.377429658 12.0178147,0.434673782 12.139,0.567 L12.497,0.958 C12.6092589,1.08047471 12.6533512,1.25071077 12.6146623,1.41228205 C12.5759734,1.57385332 12.4595569,1.70565487 12.304,1.764 L11.804,1.951 C11.7241357,1.98112606 11.6670112,2.05234902 11.6549398,2.13684854 C11.6428684,2.22134807 11.6777656,2.30571698 11.746,2.357 L11.952,2.513 C12.0388217,2.5781167 12.1444729,2.61321677 12.253,2.613 L13.022,2.613 C13.2029496,2.61315269 13.3696967,2.71105924 13.458,2.869 L13.79,3.461 C13.8586108,3.58292784 13.8729987,3.72802448 13.8296696,3.8610524 C13.7863406,3.99408032 13.6892584,4.10286954 13.562,4.161 L13.235,4.31 C13.1231982,4.36117936 12.996458,4.36936763 12.879,4.333 L12.573,4.238 C12.5039128,4.21612173 12.456641,4.15240827 12.4557324,4.07994536 C12.4548238,4.00748245 12.5004831,3.94260371 12.569,3.919 L12.9,3.805 C12.9591551,3.78455012 13.0053254,3.73758628 13.0247643,3.67809132 C13.0442033,3.61859636 13.0346689,3.55343199 12.999,3.502 C12.9069515,3.37047284 12.7447488,3.30732826 12.588,3.342 L11.893,3.496 C11.8359148,3.5088266 11.7770213,3.51153435 11.719,3.504 L10.414,3.33 C10.3512826,3.32149277 10.2892676,3.34983423 10.2546543,3.40282255 C10.2200409,3.45581086 10.2190079,3.52398733 10.252,3.578 C10.2975754,3.65389518 10.3097839,3.74524302 10.2857386,3.8304429 C10.2616933,3.91564278 10.2035292,3.9871299 10.125,4.028 L8.983,4.623 C8.88092166,4.6760737 8.76366306,4.69232037 8.651,4.669 L8.144,4.563 C7.91156443,4.5150598 7.74485418,4.31032791 7.745,4.073 L7.745,3.998 C7.74486056,3.87789886 7.69194054,3.76392885 7.60027883,3.68632451 C7.50861713,3.60872016 7.38747878,3.57532564 7.269,3.595 L5.266,3.928 C5.23890546,3.93258268 5.21147925,3.93492394 5.184,3.935 L3.68,3.935 C3.58818276,3.93532614 3.4982282,3.96092859 3.42,4.009 L2.482,4.582 C2.35394168,4.66014928 2.19756019,4.67666845 2.056,4.627 L0.934,4.237 C0.819696787,4.19734743 0.726348803,4.11305484 0.675278558,4.00337631 C0.624208313,3.89369777 0.619778148,3.76800187 0.663,3.655 L0.723,3.499 C0.785662102,3.33414018 0.943633091,3.22511234 1.12,3.225 L1.211,3.225 C1.3404269,3.22499664 1.46481263,3.27518109 1.558,3.365 L1.936,3.727 C2.10255076,3.88727214 2.35725,3.91249398 2.552,3.788 L2.715,3.684 C2.87603834,3.58087848 2.9641562,3.39493814 2.942,3.205 L2.887,2.721 C2.8674911,2.55303089 2.76440554,2.40630327 2.613,2.331 L2.14,2.094 C2.00167956,2.0250505 1.83924775,2.02394301 1.7,2.091 L1.562,2.157 C1.36926693,2.24962304 1.13896623,2.20943095 0.989,2.057 L0.943,2.01 C0.872990405,1.93894376 0.840774185,1.83892661 0.856149435,1.74036731 C0.871524685,1.64180802 0.93267411,1.55635591 1.021,1.51 L1.418,1.301 C1.52808985,1.24331319 1.65571852,1.2286965 1.776,1.26 L2.884,1.548 C3.11024704,1.60667514 3.34695611,1.50077897 3.454,1.293 L3.663,0.887 C3.69930569,0.816134872 3.71816207,0.737623759 3.718,0.658 L3.718,0.483 C3.7179162,0.434565601 3.74743815,0.390998642 3.79245394,0.373124727 C3.83746972,0.355250811 3.8888364,0.366700228 3.922,0.402 L3.942,0.423 C4.075,0.563 4.284,0.602 4.458,0.517 L4.497,0.497 C4.56788949,0.46222294 4.65095093,0.462537049 4.72157537,0.497849266 C4.7921998,0.533161482 4.84228796,0.599422175 4.857,0.677 L4.862,0.703 C4.896,0.883 5.04,1.023 5.222,1.055 C5.26388063,1.0627664 5.29609903,1.09645049 5.30199579,1.138635 C5.30789255,1.1808195 5.28614568,1.22204713 5.248,1.241 L5.198,1.265 C5.02669344,1.34940946 4.91843037,1.52402731 4.919,1.715 L4.919,1.742 C4.919,1.942 5.054,2.117 5.247,2.168 Z"/>
    </g>
  </g>
</svg>
