<?xml version="1.0" encoding="UTF-8"?><svg xmlns="http://www.w3.org/2000/svg" width="48" height="48" viewBox="0 0 48 48">
  <g fill="none">
    <circle cx="24" cy="24" r="24" fill="#FFF"/>
    <path fill="#227FBB" d="M24,48 C10.745,48 0,37.255 0,24 L24,24 L24,48 Z"/>
    <polygon fill="#227FBB" points="15 17 12.061 19.045 13.098 15.618 10.245 13.455 13.825 13.382 15 10 16.176 13.382 19.756 13.455 16.902 15.618 17.939 19.045"/>
    <polygon fill="#E94B35" points="33 36 30.061 38.045 31.098 34.618 28.245 32.455 31.825 32.382 33 29 34.176 32.382 37.756 32.455 34.902 34.618 35.939 38.045"/>
    <path fill="#E94B35" d="M48,24 L24,24 L24,0 C37.255,0 48,10.745 48,24 Z"/>
  </g>
</svg>
