<?xml version="1.0" encoding="UTF-8"?><svg xmlns="http://www.w3.org/2000/svg" width="48" height="48" viewBox="0 0 48 48">
  <g fill="none">
    <circle cx="24" cy="24" r="24" fill="#FFF"/>
    <path fill="#E94B35" d="M9 5.264L9 42.736C3.513 38.338 0 31.58 0 24 0 16.42 3.513 9.662 9 5.264zM39 42.736L39 5.264C44.487 9.662 48 16.42 48 24 48 31.58 44.487 38.338 39 42.736L39 42.736zM24 13.5L22.297 16.667C22.103 17.011 21.757 16.979 21.411 16.787L20.178 16.151 21.097 21.015C21.29 21.904 20.67 21.904 20.364 21.52L18.213 19.118 17.863 20.338C17.823 20.498 17.646 20.666 17.38 20.626L14.66 20.056 15.374 22.646C15.527 23.223 15.647 23.461 15.22 23.613L14.25 24.068 18.934 27.861C19.1256387 28.0114409 19.2093804 28.2614867 19.147 28.497L18.737 29.837C20.349 29.653 21.794 29.374 23.407 29.202 23.55 29.187 23.789 29.422 23.787 29.586L23.574 34.5 24.358 34.5 24.235 29.596C24.234 29.432 24.45 29.186 24.592 29.202 26.206 29.374 27.651 29.652 29.263 29.838L28.853 28.497C28.7906196 28.2614867 28.8743613 28.0114409 29.066 27.861L33.75 24.068 32.78 23.613C32.353 23.461 32.473 23.223 32.626 22.646L33.34 20.056 30.62 20.626C30.354 20.666 30.177 20.498 30.137 20.338L29.787 19.118 27.636 21.52C27.33 21.904 26.71 21.904 26.903 21.015L27.822 16.151 26.589 16.787C26.243 16.979 25.897 17.011 25.703 16.667L24 13.5z"/>
  </g>
</svg>
