<?xml version="1.0" encoding="UTF-8"?><svg xmlns="http://www.w3.org/2000/svg" width="48" height="48" viewBox="0 0 48 48">
  <g fill="none">
    <circle cx="24" cy="24" r="24" fill="#1AAF5D"/>
    <polygon fill="#F2C500" points="24 10 4 24 24 38 44 24"/>
    <path fill="#227FBB" d="M33,24 C33,19.0294373 28.9705627,15 24,15 C19.0294373,15 15,19.0294373 15,24 C15,28.9705627 19.0294373,33 24,33 C28.9705627,33 33,28.9705627 33,24 Z"/>
    <path fill="#FFF" d="M32.94,25.045 C32.8732086,25.6225748 32.7502944,26.1922668 32.573,26.746 C29.2673303,23.5449842 24.8445125,21.7579219 20.243,21.764 C18.463,21.764 16.743,22.026 15.123,22.514 C15.219,21.934 15.371,21.372 15.573,20.834 C17.068,20.462 18.632,20.264 20.243,20.264 C25.107,20.264 29.551,22.069 32.94,25.045 L32.94,25.045 Z"/>
  </g>
</svg>
