<?xml version="1.0" encoding="UTF-8"?><svg xmlns="http://www.w3.org/2000/svg" width="48" height="48" viewBox="0 0 48 48">
  <g fill="none">
    <path fill="#F2C500" d="M32,1.366 L32,46.634 C29.4304066,47.540917 26.7249405,48.0028754 24,48.0000133 C21.195,48.0000133 18.502,47.519 16,46.634 L16,1.366 C18.5695934,0.459082971 21.2750595,-0.00287537362 24,-1.33404768e-05 C26.805,-1.33404768e-05 29.498,0.481 32,1.366 Z"/>
    <path fill="#000" d="M16,1.366 L16,46.634 C6.678,43.34 0,34.45 0,24 C0,13.55 6.678,4.66 16,1.366 Z"/>
    <path fill="#E94B35" d="M32,46.634 L32,1.366 C41.322,4.66 48,13.55 48,24 C48,34.45 41.322,43.34 32,46.634 Z"/>
  </g>
</svg>
