<?xml version="1.0" encoding="UTF-8"?><svg xmlns="http://www.w3.org/2000/svg" width="48" height="48" viewBox="0 0 48 48">
  <g fill="none">
    <circle cx="24" cy="24" r="24" fill="#227FBB"/>
    <path fill="#FFF" d="M19.9999986,0.332 L19.9999986,20 L47.668,20 C47.886,21.3 47.9999986,22.637 47.9999986,24 C47.9999986,25.363 47.886,26.7 47.668,28 L19.9999986,28 L19.9999986,47.668 C17.1823661,47.195446 14.4726145,46.2202741 11.9999986,44.789 L11.9999986,28 L0.332,28 C0.110587553,26.678182 -1.43664468e-06,25.3402336 -1.43664468e-06,24 C-1.43664468e-06,22.637 0.114,21.3 0.332,20 L11.9999986,20 L11.9999986,3.21 C14.4726832,1.77907529 17.1824312,0.804243422 19.9999986,0.332 Z"/>
    <path fill="#E94B35" d="M18,0.756 L18,22 L47.918,22 C48.0278261,23.3310718 48.0278261,24.6689282 47.918,26 L18,26 L18,47.244 C16.6270714,46.890627 15.2884262,46.4154079 14,45.824 L14,26 L0.082,26 C-0.0278260764,24.6689282 -0.0278260764,23.3310718 0.082,22 L14,22 L14,2.176 C15.2884262,1.58459211 16.6270714,1.10937304 18,0.756 Z"/>
  </g>
</svg>
