<?xml version="1.0" encoding="UTF-8"?><svg xmlns="http://www.w3.org/2000/svg" width="48" height="48" viewBox="0 0 48 48">
  <g fill="none">
    <circle cx="24" cy="24" r="24" fill="#FFF"/>
    <path fill="#2C97DE" d="M10.729 4L37.27 4C39.3381127 5.37550715 41.1814875 7.06203482 42.735 9L5.264 9C6.81751253 7.06203482 8.66088727 5.37550715 10.729 4zM5.264 39L42.736 39C41.1824875 40.9379652 39.3391127 42.6244928 37.271 44L10.73 44C8.66188727 42.6244928 6.81851253 40.9379652 5.265 39L5.264 39z"/>
    <g fill="#2C97DE" transform="translate(14 13.08)">
      <path d="M2.938,15.232 L17.062,15.232 L10,3 L2.938,15.232 Z M10,0 L19.66,16.732 L0.34,16.732 L10,0 Z"/>
      <path d="M2.938,6.5 L10,18.732 L17.062,6.5 L2.938,6.5 Z M19.66,5 L10,21.732 L0.34,5 L19.66,5 Z"/>
    </g>
  </g>
</svg>
