<?xml version="1.0" encoding="UTF-8"?><svg xmlns="http://www.w3.org/2000/svg" width="48" height="48" viewBox="0 0 48 48">
  <g fill="none">
    <path fill="#FFF" d="M1.366,16 L46.634,16 C47.540917,18.5695934 48.0028754,21.2750595 48.0000133,24 C48.0000133,26.805 47.519,29.498 46.634,32 L1.366,32 C0.459082971,29.4304066 -0.00287537362,26.7249405 -1.33404768e-05,24 C-1.33404768e-05,21.195 0.481,18.502 1.366,16 L1.366,16 Z"/>
    <path fill="#E94B35" d="M0.756,18 L47.244,18 C47.737,19.918 47.9999931,21.928 47.9999931,24 C47.9999931,26.072 47.737,28.082 47.244,30 L0.756,30 C0.252475854,28.0397899 -0.00153292135,26.0238473 -6.89682922e-06,24 C-6.89682922e-06,21.928 0.263,19.918 0.756,18 L0.756,18 Z"/>
    <path fill="#1AAF5D" d="M1.366,32 L46.634,32 C43.34,41.322 34.45,48 24,48 C13.55,48 4.66,41.322 1.366,32 Z"/>
    <path fill="#000" d="M46.634,16 L1.366,16 C4.66,6.678 13.55,0 24,0 C34.45,0 43.34,6.678 46.634,16 Z"/>
    <path fill="#E94B35" d="M24,38 C25.866,38 31,31.732 31,24 C31,16.268 25.866,10 24,10 C22.134,10 17,16.268 17,24 C17,31.732 22.134,38 24,38 Z"/>
    <path fill="#000" d="M29.836,30.448 C28.722,28.99 28,26.646 28,24 C28,21.354 28.722,19.009 29.836,17.552 C30.536,19.482 31,21.675 31,24 C31,26.325 30.536,28.518 29.836,30.448 Z M18.164,17.552 C19.278,19.01 20,21.354 20,24 C20,26.646 19.278,28.991 18.164,30.448 C17.464,28.518 17,26.325 17,24 C17,21.675 17.464,19.482 18.164,17.552 Z"/>
    <circle cx="24" cy="24" r="2" fill="#FFF"/>
    <path fill="#FFF" d="M24 22C25.333 20.21 26 18.21 26 16 26 13.79 25.333 11.79 24 10 22.667 11.79 22 13.79 22 16 22 18.21 22.667 20.21 24 22zM24 38C25.333 36.21 26 34.21 26 32 26 29.79 25.333 27.79 24 26 22.667 27.79 22 29.79 22 32 22 34.21 22.667 36.21 24 38z"/>
  </g>
</svg>
