<?xml version="1.0" encoding="UTF-8"?><svg xmlns="http://www.w3.org/2000/svg" width="48" height="48" viewBox="0 0 48 48">
  <g fill="none">
    <path fill="#227FBB" d="M32,46.634 L32,1.366 C41.322,4.66 48,13.55 48,24 C48,34.45 41.322,43.34 32,46.634 Z"/>
    <path fill="#F2C500" d="M32,1.366 L32,46.634 C29.4304066,47.540917 26.7249405,48.0028754 24,48.0000133 C21.195,48.0000133 18.502,47.519 16,46.634 L16,1.366 C18.5695934,0.459082971 21.2750595,-0.00287537362 24,-1.33404768e-05 C26.805,-1.33404768e-05 29.498,0.481 32,1.366 Z"/>
    <path fill="#227FBB" d="M16,1.366 L16,46.634 C6.678,43.34 0,34.45 0,24 C0,13.55 6.678,4.66 16,1.366 Z"/>
    <path fill="#000" d="M24,16.089 L24.034,16 L24.045,16.208 C24.592,17.652 25.176,19.135 26.365,20.283 C25.978,20.159 25.302,20.048 24.867,20.059 L24.867,26.406 L26.716,26.672 C26.782,26.666 26.804,26.566 26.804,26.43 C26.982,24.459 27.462,22.803 28.016,21.09 C28.056,20.855 28.756,19.961 28.216,20.119 C28.15,20.127 27.427,20.412 27.542,20.276 C28.525,19.289 29.964,18.578 31.36,18.366 C31.483,18.337 31.556,18.396 31.446,18.535 C29.593,21.3 28.042,24.563 28.056,28.435 C27.336,28.435 25.589,28.022 24.866,28.022 L24.866,32.5 L23.133,32.5 L23.133,28.022 C22.411,28.022 20.665,28.435 19.945,28.435 C19.958,24.563 18.407,21.3 16.554,18.535 C16.444,18.397 16.517,18.337 16.64,18.367 C18.036,18.577 19.475,19.289 20.458,20.277 C20.573,20.412 19.85,20.127 19.784,20.119 C19.244,19.961 19.944,20.855 19.984,21.089 C20.538,22.803 21.018,24.459 21.196,26.429 C21.196,26.566 21.218,26.666 21.284,26.672 L23.134,26.406 L23.134,20.06 C22.698,20.05 22.022,20.16 21.636,20.284 C22.824,19.136 23.408,17.654 23.955,16.209 L23.966,16.001 L24,16.09 C24,16.09 23.989,16.06 24,16.09 L24,16.089 Z"/>
  </g>
</svg>
