<?xml version="1.0" encoding="UTF-8"?><svg xmlns="http://www.w3.org/2000/svg" width="48" height="48" viewBox="0 0 48 48">
  <g fill="none">
    <circle cx="24" cy="24" r="24" fill="#E94B35"/>
    <path fill="#FFF" d="M24.614,18.56 C26.172,17.865 27.43,15.01 26.278,13.235 C25.249,11.65 25.51,9.939 27.312,9.022 C18.76,8.442 15.196,19.696 23.312,24 C22.217,22.264 22.269,19.605 24.614,18.56 Z M22.608,16.5 L23.206,15.57 L24.312,15.699 L23.604,14.847 L24.07,13.845 L23.034,14.25 L22.217,13.5 L22.285,14.601 L21.312,15.141 L22.392,15.417 L22.608,16.5 L22.608,16.5 Z M29.169,24.17 C30.311,25.437 33.415,25.752 34.747,24.107 C35.937,22.639 37.645,22.359 39.074,23.789 C36.983,15.476 25.178,15.564 23.593,24.613 C24.905,23.035 27.45,22.263 29.169,24.17 L29.169,24.17 Z M25.24,30.236 C24.388,31.713 25.049,34.763 27.024,35.522 C28.788,36.199 29.583,37.737 28.664,39.538 C35.924,34.98 32.192,23.781 23.096,25.07 C25.002,25.83 26.524,28.012 25.24,30.236 Z M18.257,28.374 C16.589,28.02 13.893,29.591 13.782,31.704 C13.682,33.591 12.465,34.822 10.469,34.504 C17.047,40.001 26.545,32.991 22.509,24.739 C22.375,26.786 20.769,28.907 18.257,28.374 L18.257,28.374 Z M17.87,21.158 C17.692,19.462 15.365,17.383 13.32,17.93 C11.495,18.419 9.948,17.642 9.633,15.645 C6.439,23.599 16.041,30.466 22.642,24.077 C20.653,24.583 18.14,23.712 17.87,21.157 L17.87,21.158 Z M30.508,21.626 L31.578,21.907 L31.797,22.999 L32.388,22.063 L33.485,22.196 L32.78,21.336 L33.24,20.326 L32.214,20.732 L31.4,19.973 L31.471,21.085 L30.508,21.625 L30.508,21.626 Z M28.074,30.723 L28.137,31.828 L27.167,32.373 L28.24,32.646 L28.452,33.731 L29.052,32.794 L30.154,32.921 L29.452,32.069 L29.922,31.061 L28.886,31.472 L28.074,30.723 L28.074,30.723 Z M18.67,31.22 L17.639,31.621 L16.82,30.867 L16.892,31.971 L15.926,32.508 L17.003,32.79 L17.223,33.877 L17.815,32.947 L18.919,33.081 L18.209,32.223 L18.669,31.22 L18.67,31.22 Z M15.291,22.43 L14.591,21.573 L15.056,20.561 L14.027,20.971 L13.218,20.218 L13.283,21.328 L12.317,21.874 L13.386,22.15 L13.598,23.242 L14.195,22.301 L15.291,22.429 L15.291,22.43 Z"/>
  </g>
</svg>
