<?xml version="1.0" encoding="UTF-8"?><svg xmlns="http://www.w3.org/2000/svg" width="48" height="48" viewBox="0 0 48 48">
  <g fill="none">
    <circle cx="24" cy="24" r="24" fill="#F2C500"/>
    <path fill="#FFF" d="M7.426,6.641 L46.871,31.295 C45.6477135,35.1239721 43.4825019,38.5844597 40.574,41.359 L1.129,16.705 C2.35228645,12.8760279 4.51749813,9.41554032 7.426,6.641 Z"/>
    <path fill="#000" d="M3.645,11.278 L44.355,36.722 C43.2920596,38.4186414 42.0219514,39.9762959 40.574,41.359 L1.129,16.705 C1.73694119,14.7977171 2.58223474,12.9744229 3.645,11.278 L3.645,11.278 Z"/>
    <g fill="#E94B35" transform="translate(14 17)">
      <path d="M13.384 15.116C13.614 14.991 12.958 15.748 13.834 16 14.712 16.252 15.528 14.55 16.911 15.329 17.186 15.107 16.833 14.674 16.349 14.643 16.547 14.226 16.519 14.043 16.469 13.971 15.996 13.296 14.851 14.12 14.951 14.035 15.2339659 13.7827652 15.264739 13.3511189 15.0204181 13.0612924 14.7760971 12.771466 14.3454657 12.7287794 14.049 12.965 12.743 14.065 11.4 14.602 10.001 14.6 8.598 14.602 7.255 14.065 5.948 12.965 5.65153427 12.7287794 5.22090291 12.771466 4.97658194 13.0612924 4.73226096 13.3511189 4.76303411 13.7827652 5.046 14.035 5.146 14.12 4.002 13.295 3.529 13.971 3.479 14.042 3.45 14.226 3.649 14.643 3.164 14.674 2.811 15.107 3.087 15.329 4.469 14.549 5.286 16.252 6.163 16 7.04 15.748 6.384 14.991 6.613 15.116 7.698 15.705 8.828 16.002 9.999 16 11.169 16.002 12.299 15.705 13.384 15.116L13.384 15.116zM17.122 6.86L17.997 5.846C18.024745 5.81378639 18.0482681 5.77816567 18.067 5.74L18.497 4.863C18.5657995 4.72302494 18.6959772 4.62317275 18.849 4.593L19.719 4.42C19.7840378 4.40727601 19.8511553 4.4275947 19.8982157 4.47425456 19.9452761 4.52091442 19.9661677 4.58785578 19.954 4.653L19.639 6.331C19.6231824 6.41373112 19.586721 6.49112556 19.533 6.556L18.614 7.673C18.5402578 7.76256409 18.4999562 7.87498434 18.5 7.991L18.5 10.417C18.5 10.497 18.52 10.577 18.556 10.647L18.912 11.33C18.9626545 11.4275168 18.9251451 11.5476362 18.828 11.599 18.468 11.791 18.109 11.887 17.75 11.887 17.39 11.887 17.031 11.791 16.672 11.599 16.5748549 11.5476362 16.5373455 11.4275168 16.588 11.33L16.944 10.648C16.9809636 10.5766208 17.000173 10.497382 17 10.417L17 7.187C16.9998281 7.06654016 17.0431502 6.95006761 17.122 6.859L17.122 6.86z"/>
      <path d="M0.606512426,6.86 L1.48151243,5.846 C1.50925743,5.81378639 1.53278055,5.77816567 1.55151243,5.74 L1.98251243,4.863 C2.05110631,4.72327045 2.18086312,4.62345751 2.33351243,4.593 L3.20351243,4.42 C3.2687021,4.40688759 3.33614578,4.4270323 3.38346487,4.47374988 C3.43078397,4.52046746 3.45178981,4.58764792 3.43951243,4.653 L3.12351243,6.331 C3.10798744,6.41363553 3.07187397,6.49102153 3.01851243,6.556 L2.09851243,7.673 C2.02477024,7.76256409 1.98446864,7.87498434 1.98451243,7.991 L1.98451243,10.417 C1.98451243,10.497 2.00451243,10.577 2.04151243,10.647 L2.39651243,11.33 C2.44732028,11.4272534 2.41028525,11.5472826 2.31351243,11.599 C1.95351243,11.791 1.59351243,11.887 1.23451243,11.887 C0.875512426,11.887 0.516512426,11.791 0.156512426,11.599 C0.0597396001,11.5472826 0.0227045678,11.4272534 0.0735124256,11.33 L0.428512426,10.648 C0.465475999,10.5766208 0.484685414,10.497382 0.484512426,10.417 L0.484512426,7.187 C0.484340504,7.06654016 0.527662611,6.95006761 0.606512426,6.859 L0.606512426,6.86 Z" transform="matrix(-1 0 0 1 3.494 0)"/>
      <circle cx="10" cy="1" r="1"/>
      <path d="M15.26,2.988 C14.604,4.238 12.632,5.352 11,5.002 L10.49,6.078 C10.442592,6.17836218 10.4299267,6.29164612 10.454,6.4 L10.776,7.853 C10.7955728,7.9427608 10.790037,8.03617904 10.76,8.123 L10.597,8.598 C10.5527674,8.72758174 10.563611,8.86963365 10.627,8.991 L11.471,10.611 C11.157,11.257 10.667,11.581 10.001,11.583 C9.334,11.581 8.843,11.257 8.529,10.611 L9.374,8.991 C9.43705875,8.86949363 9.44754062,8.72744628 9.403,8.598 L9.24,8.124 C9.21010886,8.03677757 9.20491759,7.94298849 9.225,7.853 L9.547,6.4 C9.57076261,6.2915358 9.55774501,6.17824749 9.51,6.078 L9,5.002 C7.369,5.352 5.397,4.239 4.74,2.988 C6.76,3.542 8.557,0.465 10,2.724 C11.444,0.464 13.24,3.542 15.26,2.988 Z"/>
      <path d="M4.725,5.14 C4.06081468,7.39015191 4.89710626,9.81389806 6.80756127,11.1756937 C8.71801629,12.5374894 11.2819837,12.5374894 13.1924387,11.1756937 C15.1028937,9.81389806 15.9391853,7.39015191 15.275,5.14 C16.6431634,7.66425465 16.031265,10.8040063 13.8153379,12.6297663 C11.5994108,14.4555264 8.40058918,14.4555264 6.1846621,12.6297663 C3.96873502,10.8040063 3.35683657,7.66425465 4.725,5.14 L4.725,5.14 Z"/>
    </g>
  </g>
</svg>
