<?xml version="1.0" encoding="UTF-8"?><svg xmlns="http://www.w3.org/2000/svg" width="48" height="48" viewBox="0 0 48 48">
  <g fill="none">
    <circle cx="24" cy="24" r="24" fill="#FFF"/>
    <path fill="#E94B35" d="M36.649,3.6 L24,3.6 L24,0 C28.642,0 32.976,1.318 36.649,3.6 Z M41.333,7.4 C42.3936431,8.50680951 43.346291,9.71226897 44.178,11 L24,11 L24,7.4 L41.333,7.4 Z M46.173,14.8 C46.654,15.957 47.047,17.16 47.343,18.4 L24,18.4 L24,14.8 L46.173,14.8 L46.173,14.8 Z M47.933,22.2 C48.0218645,23.3983548 48.0218645,24.6016452 47.933,25.8 L24,25.8 L24,22.2 L47.934,22.2 L47.933,22.2 Z M0.658,29.6 L47.344,29.6 C47.0501378,30.8291432 46.6589023,32.0329449 46.174,33.2 L1.827,33.2 C1.34209774,32.0329449 0.950862186,30.8291432 0.657,29.6 L0.658,29.6 Z M3.822,37 L44.178,37 C43.346291,38.287731 42.3936431,39.4931905 41.333,40.6 L6.667,40.6 C5.60635687,39.4931905 4.65370904,38.287731 3.822,37 Z M11.351,44.4 L36.649,44.4 C32.8727946,46.7473916 28.5163402,47.9941708 24.07,48 L23.932,48 C19.4853199,47.9943569 15.1284942,46.7475706 11.352,44.4 L11.351,44.4 Z"/>
    <path fill="#227FBB" d="M23.9999984,0 L23.9999984,25.8 L0.066,25.8 C0.02179932,25.2010198 -1.57039638e-06,24.6006088 -1.57039638e-06,24 C-1.57039638e-06,10.745 10.745,0 23.9999984,0 Z"/>
    <g fill="#FFF" transform="translate(2 1)">
      <polygon points="17 4.5 16.412 4.809 16.524 4.155 16.049 3.691 16.706 3.595 17 3 17.294 3.595 17.951 3.691 17.476 4.155 17.588 4.809"/>
      <polygon points="13 4.5 12.412 4.809 12.524 4.155 12.049 3.691 12.706 3.595 13 3 13.294 3.595 13.951 3.691 13.476 4.155 13.588 4.809"/>
      <polygon points="19 1.5 18.412 1.809 18.524 1.155 18.05 .69 18.707 .594 19 0 19.294 .595 19.951 .691 19.476 1.155 19.588 1.809"/>
      <polygon points="7 7.5 6.412 7.809 6.524 7.155 6.049 6.691 6.706 6.595 7 6 7.294 6.595 7.951 6.691 7.476 7.155 7.588 7.809"/>
      <polygon points="11 7.5 10.412 7.809 10.524 7.155 10.049 6.691 10.706 6.595 11 6 11.294 6.595 11.951 6.691 11.476 7.155 11.588 7.809"/>
      <polygon points="15 7.5 14.412 7.809 14.524 7.155 14.049 6.691 14.706 6.595 15 6 15.294 6.595 15.951 6.691 15.476 7.155 15.588 7.809"/>
      <polygon points="15 7.5 14.412 7.809 14.524 7.155 14.049 6.691 14.706 6.595 15 6 15.294 6.595 15.951 6.691 15.476 7.155 15.588 7.809"/>
      <polygon points="17 10.5 16.412 10.809 16.524 10.155 16.049 9.691 16.706 9.595 17 9 17.294 9.595 17.951 9.691 17.476 10.155 17.588 10.809"/>
      <polygon points="5 10.5 4.412 10.809 4.524 10.155 4.049 9.691 4.706 9.595 5 9 5.294 9.595 5.951 9.691 5.476 10.155 5.588 10.809"/>
      <polygon points="9 10.5 8.412 10.809 8.524 10.155 8.049 9.691 8.706 9.595 9 9 9.294 9.595 9.951 9.691 9.476 10.155 9.588 10.809"/>
      <polygon points="13 10.5 12.412 10.809 12.524 10.155 12.049 9.691 12.706 9.595 13 9 13.294 9.595 13.951 9.691 13.476 10.155 13.588 10.809"/>
      <polygon points="19 7.5 18.412 7.809 18.524 7.155 18.049 6.691 18.706 6.595 19 6 19.294 6.595 19.951 6.691 19.476 7.155 19.588 7.809"/>
      <polygon points="3 13.5 2.412 13.809 2.524 13.155 2.049 12.691 2.706 12.595 3 12 3.294 12.595 3.951 12.691 3.476 13.155 3.588 13.809"/>
      <polygon points="7 13.5 6.412 13.809 6.524 13.155 6.049 12.691 6.706 12.595 7 12 7.294 12.595 7.951 12.691 7.476 13.155 7.588 13.809"/>
      <polygon points="11 13.5 10.412 13.809 10.524 13.155 10.049 12.691 10.706 12.595 11 12 11.294 12.595 11.951 12.691 11.476 13.155 11.588 13.809"/>
      <polygon points="15 13.5 14.412 13.809 14.524 13.155 14.049 12.691 14.706 12.595 15 12 15.294 12.595 15.951 12.691 15.476 13.155 15.588 13.809"/>
      <polygon points="15 13.5 14.412 13.809 14.524 13.155 14.049 12.691 14.706 12.595 15 12 15.294 12.595 15.951 12.691 15.476 13.155 15.588 13.809"/>
      <polygon points="17 16.5 16.412 16.809 16.524 16.155 16.049 15.691 16.706 15.595 17 15 17.294 15.595 17.951 15.691 17.476 16.155 17.588 16.809"/>
      <polygon points="1 16.5 .412 16.809 .524 16.155 .049 15.691 .706 15.595 1 15 1.294 15.595 1.951 15.691 1.476 16.155 1.588 16.809"/>
      <polygon points="5 16.5 4.412 16.809 4.524 16.155 4.049 15.691 4.706 15.595 5 15 5.294 15.595 5.951 15.691 5.476 16.155 5.588 16.809"/>
      <polygon points="9 16.5 8.412 16.809 8.524 16.155 8.049 15.691 8.706 15.595 9 15 9.294 15.595 9.951 15.691 9.476 16.155 9.588 16.809"/>
      <polygon points="13 16.5 12.412 16.809 12.524 16.155 12.049 15.691 12.706 15.595 13 15 13.294 15.595 13.951 15.691 13.476 16.155 13.588 16.809"/>
      <polygon points="19 13.5 18.412 13.809 18.524 13.155 18.049 12.691 18.706 12.595 19 12 19.294 12.595 19.951 12.691 19.476 13.155 19.588 13.809"/>
      <polygon points="3 19.5 2.412 19.809 2.524 19.155 2.049 18.691 2.706 18.595 3 18 3.294 18.595 3.951 18.691 3.476 19.155 3.588 19.809"/>
      <polygon points="7 19.5 6.412 19.809 6.524 19.155 6.049 18.691 6.706 18.595 7 18 7.294 18.595 7.951 18.691 7.476 19.155 7.588 19.809"/>
      <polygon points="11 19.5 10.412 19.809 10.524 19.155 10.049 18.691 10.706 18.595 11 18 11.294 18.595 11.951 18.691 11.476 19.155 11.588 19.809"/>
      <polygon points="15 19.5 14.412 19.809 14.524 19.155 14.049 18.691 14.706 18.595 15 18 15.294 18.595 15.951 18.691 15.476 19.155 15.588 19.809"/>
      <polygon points="15 19.5 14.412 19.809 14.524 19.155 14.049 18.691 14.706 18.595 15 18 15.294 18.595 15.951 18.691 15.476 19.155 15.588 19.809"/>
      <polygon points="17 22.5 16.412 22.809 16.524 22.155 16.049 21.691 16.706 21.595 17 21 17.294 21.595 17.951 21.691 17.476 22.155 17.588 22.809"/>
      <polygon points="1 22.5 .412 22.809 .524 22.155 .049 21.691 .706 21.595 1 21 1.294 21.595 1.951 21.691 1.476 22.155 1.588 22.809"/>
      <polygon points="5 22.5 4.412 22.809 4.524 22.155 4.049 21.691 4.706 21.595 5 21 5.294 21.595 5.951 21.691 5.476 22.155 5.588 22.809"/>
      <polygon points="9 22.5 8.412 22.809 8.524 22.155 8.049 21.691 8.706 21.595 9 21 9.294 21.595 9.951 21.691 9.476 22.155 9.588 22.809"/>
      <polygon points="13 22.5 12.412 22.809 12.524 22.155 12.049 21.691 12.706 21.595 13 21 13.294 21.595 13.951 21.691 13.476 22.155 13.588 22.809"/>
      <polygon points="19 19.5 18.412 19.809 18.524 19.155 18.049 18.691 18.706 18.595 19 18 19.294 18.595 19.951 18.691 19.476 19.155 19.588 19.809"/>
    </g>
  </g>
</svg>
