<?xml version="1.0" encoding="UTF-8"?><svg xmlns="http://www.w3.org/2000/svg" width="48" height="48" viewBox="0 0 48 48">
  <g fill="none">
    <path fill="#2C97DE" d="M48,24 L0,24 C0,10.745 10.745,0 24,0 C37.255,0 48,10.745 48,24 Z"/>
    <path fill="#1AAF5D" d="M48,24 C48,37.255 37.255,48 24,48 C10.745,48 0,37.255 0,24 L48,24 Z"/>
    <path fill="#FFF" d="M7.03,7.03 L24,24 L7.03,40.97 C2.52205038,36.4740432 -0.00797052869,30.3667239 -1.87756743e-05,24 C-0.00797052869,17.6332761 2.52205038,11.5259568 7.03,7.03 Z"/>
    <polygon fill="#E94B35" points="9.783 26.513 6.209 29 7.469 24.832 4 22.202 8.353 22.112 9.783 18 11.213 22.113 15.566 22.202 12.096 24.832 13.357 29"/>
  </g>
</svg>
