<?xml version="1.0" encoding="UTF-8"?><svg xmlns="http://www.w3.org/2000/svg" width="48" height="48" viewBox="0 0 48 48">
  <g fill="none">
    <circle cx="24" cy="24" r="24" fill="#FFF"/>
    <path fill="#E94B35" d="M46.963,17 L31,17 L31,1.037 C38.6425481,3.37557742 44.6244226,9.3574519 46.963,17 L46.963,17 Z M1.037,31 L17,31 L17,46.963 C9.3574519,44.6244226 3.37557742,38.6425481 1.037,31 L1.037,31 Z"/>
    <path fill="#227FBB" d="M17,1.037 L17,17 L1.037,17 C3.37557742,9.3574519 9.3574519,3.37557742 17,1.037 Z M46.963,31 C44.6244226,38.6425481 38.6425481,44.6244226 31,46.963 L31,31 L46.963,31 Z"/>
    <g transform="translate(16 15)">
      <path fill="#1FCE6D" d="M3.333,3.783 C1.16992863,5.71795862 0.425206676,8.78700676 1.46087328,11.4981573 C2.49653989,14.2093079 5.09776937,16.0001938 8,16.0001938 C10.9022306,16.0001938 13.5034601,14.2093079 14.5391267,11.4981573 C15.5747933,8.78700676 14.8300714,5.71795862 12.667,3.783 C12.2548495,3.4208302 11.6278535,3.4583829 11.2618771,3.86715709 C10.8959008,4.27593128 10.9276373,4.90324857 11.333,5.273 C12.8783673,6.65496979 13.410605,8.84725592 12.6709416,10.7839796 C11.9312782,12.7207034 10.073162,14.0000781 8,14.0000781 C5.92683799,14.0000781 4.06872182,12.7207034 3.32905843,10.7839796 C2.58939503,8.84725592 3.12163267,6.65496979 4.667,5.273 C5.07236269,4.90324857 5.10409925,4.27593128 4.73812289,3.86715709 C4.37214654,3.4583829 3.74515054,3.4208302 3.333,3.783 L3.333,3.783 Z"/>
      <path fill="#227FBB" d="M2.712,1.623 C2.292,1.883 2.193,1.971 2.424,2.391 C2.37,2.428 1.987,2.545 1.892,2.579 C1.542,2.711 1.187,2.844 0.889,3.023 C0.709,3.132 0.633,3.213 0.494,3.357 L1.367,3.29 C1.339,3.347 1.277,3.428 1.241,3.482 C1.091,3.697 0.999,3.868 0.868,4.094 C1.115,3.926 1.338,3.77 1.623,3.63 C2.248,3.315 3.371,3.307 3.831,2.754 C3.949,2.614 3.877,2.531 3.779,2.304 C4.119,2.19 4.247,2.111 4.662,2.017 C5.662,1.794 6.352,2.059 6.836,1.94 C6.987,1.902 7.135,1.819 7.146,1.66 L7.074,1.155 L8.699,1.153 C8.701,1.439 8.426,1.806 8.93,1.938 C9.387,2.057 10.31,1.796 11.107,2.018 L11.99,2.303 C11.986,2.345 11.923,2.458 11.904,2.516 C11.866,2.618 11.87,2.672 11.935,2.746 C12.022,2.844 12.144,2.942 12.274,3.016 C12.533,3.165 12.871,3.259 13.191,3.336 C14.11,3.559 14.196,3.618 14.902,4.089 C14.856,3.952 14.52,3.461 14.408,3.289 L15.277,3.357 C15.127,3.129 14.669,2.889 14.404,2.785 L13.346,2.4 C13.443,2.216 13.523,2.062 13.426,1.91 C13.279,1.686 12.396,1.253 12.173,1.192 C11.7916878,1.08826707 11.4051456,1.00481669 11.015,0.942 C10.638,0.882 9.915,0.831 9.915,0.831 C9.863,0.776 10.015,0.489 9.782,0.288 C9.645,0.18 9.448,0.141 9.246,0.12 C8.438,0.043 7.339,0.066 6.523,0.12 C6.287,0.135 6.121,0.16 5.986,0.287 C5.822,0.442 5.801,0.536 5.816,0.826 C4.727,0.806 3.627,1.056 2.712,1.623 Z"/>
      <path fill="#E94B35" d="M4.35,13.616 C3.911,13.76 3.62,13.861 3.2,14.107 C3.04,13.867 2.82,13.51 2.665,13.303 C2.56811259,13.1760479 2.44541619,13.0710743 2.305,12.995 C2.068,12.884 1.98,12.918 1.83,13.048 L1.723,12.845 C1.509,12.47 1.286,12.296 1.048,11.993 L0.834,11.743 C0.805,11.709 0.795,11.685 0.757,11.666 C0.849,11.968 0.915,12.256 0.975,12.586 C0.844,12.513 0.723,12.441 0.587,12.383 C0.485,12.345 0.222,12.287 0.097,12.301 L0.252,12.441 C0.519,12.677 0.693,12.99 0.8,13.341 C0.917,13.721 1.189,14.126 1.475,14.406 C1.534,14.463 1.699,14.613 1.805,14.651 C2.126,14.767 2.112,14.646 2.228,14.589 C2.475,15.006 2.634,15.215 2.918,15.532 C3.224,15.855 3.705,15.942 4.142,15.841 C4.336,15.792 4.457,15.739 4.608,15.653 C5.176,15.325 4.904,15.07 4.836,14.81 C5.021,14.752 5.744,14.534 6.003,14.486 C6.918,14.316 8.615,14.294 9.699,14.452 C9.797,14.466 10.89,14.757 10.997,14.82 C10.92,15.001 10.889,15.091 10.9,15.29 C10.919,15.474 11.077,15.57 11.218,15.653 C11.5345739,15.8425802 11.9067468,15.9174385 12.272,15.865 C12.68,15.797 12.894,15.561 13.068,15.349 C13.359,15.018 13.449,14.817 13.598,14.584 C13.598,14.584 13.681,14.661 13.739,14.68 C13.795,14.698 13.977,14.666 14.025,14.646 C14.166,14.593 14.253,14.487 14.351,14.396 C14.6638973,14.1014125 14.8962588,13.7316995 15.026,13.322 C15.171,12.841 15.37,12.614 15.725,12.302 C15.267,12.317 15.109,12.442 14.851,12.585 L14.948,12.113 C14.978,11.983 15.05,11.791 15.064,11.666 C14.856,11.887 14.671,12.12 14.487,12.326 C14.399,12.441 14.302,12.537 14.215,12.662 C14.031,12.946 14.065,12.955 13.996,13.048 C13.351,12.689 13.062,13.562 12.626,14.098 C11.818,13.643 11.115,13.501 10.164,13.327 C9.951,13.305 9.761,13.274 9.586,13.255 C8.35593496,13.1104328 7.11237305,13.124885 5.886,13.298 C5.271,13.376 4.891,13.488 4.351,13.616 L4.35,13.616 Z"/>
      <path fill="#FFF" d="M4.43,4.508 C4.44,4.569 4.435,9.681 4.435,10.21 C4.435,10.716 4.441,11.037 4.682,11.357 C4.88,11.634 5.212,11.862 5.536,11.937 C5.766,11.985 6.61,11.966 6.903,11.966 C7.555,11.936 7.633,12.08 7.88,12.403 C8.16,11.95 8.469,11.943 9.045,11.966 C9.339,11.966 9.967,11.989 10.229,11.933 C10.541,11.859 10.784,11.71 10.986,11.46 C11.316,11.081 11.298,10.608 11.298,10.112 L11.298,4.723 C11.298,4.48 11.27,4.54 11.394,4.414 L12.206,3.562 L3.532,3.567 L4.431,4.507 L4.431,4.508 L4.43,4.508 Z"/>
      <polygon fill="#227FBB" points="7.14 7.046 7.14 3.562 3.552 3.562 4.442 4.502 4.451 7.046"/>
      <polygon fill="#E94B35" points="8.577 7.046 8.577 3.562 12.233 3.562 11.3 4.562 11.3 7.046"/>
      <path fill="#E94B35" d="M7.14,8.485 L4.425,8.485 L4.417,10.679 C4.54,11.638 5.249,11.964 5.885,11.961 C6.315,11.965 6.461,11.958 7.14,11.953 L7.14,8.485 Z"/>
      <path fill="#227FBB" d="M8.577,8.485 L11.309,8.485 L11.299,10.679 C11.236,11.629 10.469,11.964 9.832,11.9610199 L8.577,11.953 L8.577,8.485 L8.577,8.485 Z"/>
    </g>
  </g>
</svg>
