<?xml version="1.0" encoding="UTF-8"?><svg xmlns="http://www.w3.org/2000/svg" width="48" height="48" viewBox="0 0 48 48">
  <g fill="none">
    <circle cx="24" cy="24" r="24" fill="#FFF"/>
    <path fill="#CA4738" d="M7.059,41 L40.94,41 C39.6431147,42.292672 38.2031606,43.4333626 36.648,44.4 L11.351,44.4 C9.79583943,43.4333626 8.35588527,42.292672 7.059,41 L7.059,41 Z M2.253,34.167 L45.747,34.167 C45.1918669,35.3515644 44.5406922,36.4886954 43.8,37.567 L4.2,37.567 C3.4593078,36.4886954 2.80813308,35.3515644 2.253,34.167 Z M0.23,27.333 L47.77,27.333 C47.6106556,28.482502 47.3676776,29.6188502 47.043,30.733 L0.957,30.733 C0.632322366,29.6188502 0.389344376,28.482502 0.23,27.333 L0.23,27.333 Z M47.747,20.5 C47.914,21.643 48,22.811 48,24 L24,24 L24,20.5 L47.747,20.5 Z M45.667,13.667 C46.189,14.757 46.63,15.893 46.983,17.067 L24,17.067 L24,13.667 L45.668,13.667 L45.667,13.667 Z M40.772,6.833 C41.8382952,7.87462424 42.8057653,9.01282435 43.662,10.233 L24,10.233 L24,6.833 L40.772,6.833 L40.772,6.833 Z M36.322,3.4 L24,3.4 L24,0 C28.505,0 32.72,1.241 36.321,3.4 L36.322,3.4 Z"/>
    <path fill="#227FBB" d="M24,0 L24,24 L0,24 C0,10.745 10.745,0 24,0 Z"/>
    <path fill="#F2C500" d="M16.247,9.435 C13.7414429,8.42515067 10.8699794,9.21422916 9.2323118,11.3626371 C7.59464417,13.511045 7.59464417,16.488955 9.2323118,18.6373629 C10.8699794,20.7857708 13.7414429,21.5748493 16.247,20.565 C13.3653769,22.763767 9.2819088,22.3990754 6.8355232,19.724468 C4.38913759,17.0498605 4.38913759,12.9501395 6.8355232,10.275532 C9.2819088,7.60092456 13.3653769,7.23623304 16.247,9.435 L16.247,9.435 Z"/>
    <polygon fill="#F2C500" points="17.925 12.573 18.5 10.5 19.075 12.573 20.525 10.955 20.118 13.018 22.089 12.168 20.798 13.908 23 13.988 21.056 15 23 16.012 20.798 16.092 22.089 17.832 20.118 16.982 20.525 19.045 19.075 17.427 18.5 19.5 17.925 17.427 16.475 19.045 16.882 16.982 14.911 17.832 16.202 16.092 14 16.012 15.944 15 14 13.988 16.202 13.908 14.911 12.168 16.882 13.018 16.475 10.955"/>
  </g>
</svg>
