<?xml version="1.0" encoding="UTF-8"?><svg xmlns="http://www.w3.org/2000/svg" width="48" height="48" viewBox="0 0 48 48">
  <g fill="none">
    <circle cx="24" cy="24" r="24" fill="#227FBB"/>
    <path fill="#FFF" d="M1.366,16 C2.02713676,14.1301564 2.91831289,12.3498196 4.019,10.7 L11,10.7 L11,3.822 C12.6544416,2.7535556 14.4346042,1.89370347 16.3,1.262 L16.3,10.7 L27,10.7 L27,16 L16.3,16 L16.3,26.9 L47.827,26.9 C47.6095142,28.7091517 47.1854141,30.4874198 46.563,32.2 L1.437,32.2 C0.81458594,30.4874198 0.390485774,28.7091517 0.173,26.9 L11,26.9 L11,16 L1.366,16 Z M39.045,5.3 C40.9237778,6.81337819 42.5650229,8.59990491 43.914,10.6 L27,10.6 L27,5.3 L39.045,5.3 Z M46.669,16.1 C47.2667836,17.8155333 47.6667077,19.5937192 47.861,21.4 L27,21.4 L27,16.1 L46.67,16.1 L46.669,16.1 Z M4.292,37.7 L43.708,37.7 C42.3060556,39.7126379 40.6055269,41.4998285 38.665,43 L9.335,43 C7.39447309,41.4998285 5.6939444,39.7126379 4.292,37.7 Z"/>
  </g>
</svg>
