<?xml version="1.0" encoding="UTF-8"?><svg xmlns="http://www.w3.org/2000/svg" width="48" height="48" viewBox="0 0 48 48">
  <g fill="none">
    <path fill="#E94B35" d="M48,24 L0,24 C0,10.745 10.745,0 24,0 C37.255,0 48,10.745 48,24 Z"/>
    <path fill="#FFF" d="M48 24C48 37.255 37.255 48 24 48 10.745 48 0 37.255 0 24L48 24zM17.859 6.503C13.787 6.61 10.519 9.926 10.519 14 10.519 18.074 13.787 21.39 17.859 21.497 16.9584119 21.8308071 16.0054607 22.0011463 15.045 22 10.602 22 7 18.418 7 14 7 9.582 10.602 6 15.045 6 16.035 6 16.983 6.178 17.859 6.503z"/>
    <path fill="#FFF" d="M18.565,10.6 L17.679,11.214 L17.991,10.185 L17.131,9.536 L18.211,9.515 L18.565,8.5 L18.92,9.515 L20,9.536 L19.14,10.186 L19.452,11.214 L18.565,10.6 L18.565,10.6 Z M14.509,13.6 L13.622,14.214 L13.935,13.185 L13.074,12.536 L14.154,12.515 L14.509,11.5 L14.863,12.515 L15.943,12.536 L15.083,13.186 L15.395,14.214 L14.509,13.6 L14.509,13.6 Z M16.009,18.1 L15.122,18.714 L15.435,17.685 L14.574,17.036 L15.654,17.015 L16.009,16 L16.363,17.015 L17.443,17.036 L16.583,17.686 L16.895,18.714 L16.009,18.1 L16.009,18.1 Z M21.009,18.1 L20.122,18.714 L20.435,17.685 L19.574,17.036 L20.654,17.015 L21.009,16 L21.363,17.015 L22.443,17.036 L21.583,17.686 L21.895,18.714 L21.009,18.1 L21.009,18.1 Z M22.509,13.6 L21.622,14.214 L21.935,13.185 L21.074,12.536 L22.154,12.515 L22.509,11.5 L22.863,12.515 L23.943,12.536 L23.083,13.186 L23.395,14.214 L22.509,13.6 Z"/>
  </g>
</svg>
