<?xml version="1.0" encoding="UTF-8"?><svg xmlns="http://www.w3.org/2000/svg" width="48" height="48" viewBox="0 0 48 48">
  <g fill="none">
    <circle cx="24" cy="24" r="24" fill="#227FBB"/>
    <path fill="#FFF" d="M10.094,4.437 L24,18.343 L37.906,4.437 C40.0932161,5.99486072 42.0051393,7.9067839 43.563,10.094 L29.657,24 L43.563,37.906 C42.0051393,40.0932161 40.0932161,42.0051393 37.906,43.563 L24,29.657 L10.094,43.563 C7.9067839,42.0051393 5.99486072,40.0932161 4.437,37.906 L18.343,24 L4.437,10.094 C5.99486072,7.9067839 7.9067839,5.99486072 10.094,4.437 Z"/>
    <path fill="#E94B35" d="M38.717,5.04 C39.509,5.656 40.262,6.32 40.971,7.03 L25.414,22.585 L23.293,20.463 L38.717,5.04 Z M7.029,7.03 L22.586,22.586 L20.464,24.707 L5.04,9.283 C5.65587902,8.49138367 6.3205009,7.73892483 7.03,7.03 L7.029,7.03 Z M42.959,38.717 C42.3437986,39.5089002 41.6798451,40.2616924 40.971,40.971 L25.414,25.414 L27.536,23.293 L42.96,38.717 L42.959,38.717 Z M9.284,42.96 C8.4920407,42.3441538 7.73924714,41.6795313 7.03,40.97 L22.587,25.414 L24.708,27.536 L9.283,42.96 L9.284,42.96 Z"/>
    <path fill="#FFF" d="M29.9999931,0.756 L29.9999931,17.9999931 L47.244,17.9999931 C47.737,19.918 47.9999931,21.928 47.9999931,23.9999931 C47.9999931,26.072 47.737,28.082 47.244,29.9999931 L29.9999931,29.9999931 L29.9999931,47.244 C28.0397899,47.7475241 26.0238473,48.0015329 23.9999931,48.0000069 C21.928,48.0000069 19.918,47.737 17.9999931,47.244 L17.9999931,29.9999931 L0.756,29.9999931 C0.252475854,28.0397899 -0.00153292135,26.0238473 -6.89682922e-06,23.9999931 C-6.89682922e-06,21.928 0.263,19.918 0.756,17.9999931 L17.9999931,17.9999931 L17.9999931,0.756 C19.9602101,0.252475854 21.9761527,-0.00153292135 23.9999931,-6.89682922e-06 C26.072,-6.89682922e-06 28.082,0.263 29.9999931,0.756 Z"/>
    <path fill="#E94B35" d="M27.9999986,0.332 L27.9999986,20 L47.668,20 C47.886,21.3 47.9999986,22.637 47.9999986,24 C47.9999986,25.363 47.886,26.7 47.668,28 L27.9999986,28 L27.9999986,47.668 C26.7,47.886 25.363,48 23.9999986,48 C22.637,48 21.3,47.886 19.9999986,47.668 L19.9999986,28 L0.332,28 C0.110587553,26.678182 -1.43664468e-06,25.3402336 -1.43664468e-06,24 C-1.43664468e-06,22.637 0.114,21.3 0.332,20 L19.9999986,20 L19.9999986,0.332 C21.3,0.114 22.637,0 23.9999986,0 C25.363,0 26.7,0.114 27.9999986,0.332 Z"/>
  </g>
</svg>
