<?xml version="1.0" encoding="UTF-8"?><svg xmlns="http://www.w3.org/2000/svg" width="48" height="48" viewBox="0 0 48 48">
  <g fill="none">
    <path fill="#1AAF5D" d="M32,46.634 L32,1.366 C41.322,4.66 48,13.55 48,24 C48,34.45 41.322,43.34 32,46.634 Z"/>
    <path fill="#FFF" d="M32,1.366 L32,46.634 C29.4304066,47.540917 26.7249405,48.0028754 24,48.0000133 C21.195,48.0000133 18.502,47.519 16,46.634 L16,1.366 C18.5695934,0.459082971 21.2750595,-0.00287537362 24,-1.33404768e-05 C26.805,-1.33404768e-05 29.498,0.481 32,1.366 Z"/>
    <path fill="#E94B35" d="M16,1.366 L16,46.634 C6.678,43.34 0,34.45 0,24 C0,13.55 6.678,4.66 16,1.366 Z"/>
    <g transform="translate(17 17)">
      <path fill="#78742A" d="M3.296,1.987 C2.771,2.33 2.617,2.82 2.866,3.374 C2.974,3.613 3.1,3.631 3.674,3.637 L3.884,3.641 C4.27,3.654 4.431,3.713 4.447,3.813 C4.454,3.852 4.429,3.908 4.347,4.001 C4.3037805,4.04871758 4.25839968,4.09443208 4.211,4.138 L4.04,4.295 C3.537,4.762 3.346,5.134 3.537,5.675 C3.659,6.021 3.911,6.158 4.344,6.242 L4.457,6.262 C4.712,6.309 4.782,6.339 4.795,6.378 C4.872,6.611 4.047,7.201 3.732,7.09 C3.659,7.064 3.635,7.03 3.583,6.876 C3.4,6.327 3.257,6.091 2.758,5.756 C2.671,5.698 2.666,5.661 2.712,5.42 C2.732,5.31 2.742,5.253 2.747,5.181 C2.774,4.781 2.571,4.484 2.06,4.279 C1.97622826,4.24003828 1.87779772,4.25045389 1.80403552,4.30608534 C1.73027332,4.36171679 1.69320566,4.45349394 1.70764263,4.54474795 C1.72207959,4.63600196 1.78566738,4.71185477 1.873,4.742 C2.19,4.87 2.26,4.972 2.248,5.147 C2.245,5.192 2.238,5.235 2.221,5.327 C2.14,5.747 2.17,5.965 2.48,6.172 C2.867,6.432 2.957,6.581 3.11,7.035 C3.205,7.321 3.313,7.472 3.565,7.561 C4.235,7.798 5.493,6.897 5.27,6.221 C5.174,5.931 4.987,5.851 4.546,5.771 L4.439,5.751 C4.164,5.698 4.054,5.638 4.009,5.509 C3.903,5.211 4.009,5.007 4.379,4.662 L4.553,4.502 C4.621,4.438 4.674,4.385 4.721,4.332 C4.893,4.138 4.977,3.95 4.941,3.732 C4.868,3.292 4.514,3.162 3.901,3.142 C3.82735543,3.139469 3.75368369,3.13780222 3.68,3.137 C3.438,3.135 3.298,3.115 3.322,3.168 C3.176,2.843 3.247,2.616 3.57,2.405 C3.64748954,2.35728308 3.69292953,2.27122807 3.68863529,2.18032651 C3.68434104,2.08942496 3.63099094,2.00803685 3.54934818,1.96783743 C3.46770542,1.92763801 3.37066736,1.93497771 3.296,1.987 L3.296,1.987 Z"/>
      <path fill="#F2C500" d="M4.84,7.36 C5.393,7.36 5.888,7.635 5.888,7.36 C5.888,7.083 5.496,5.869 4.944,5.869 C4.392,5.869 4.336,6.324 4.336,6.599 C4.336,6.876 4.288,7.359 4.84,7.359 L4.84,7.36 Z"/>
      <rect width="3" height="1.5" x="5.5" y="10" fill="#E87E04" rx=".5"/>
      <path fill="#4BB7C0" d="M7,9.789 C6.89,10.25 6.897,10.616 7,10.631 C7.116,10.759 7.487,10.673 7.671,10.671 C7.75,10.049 8.277,9.856 8.449,9.859 C10.461,10.265 11.244,9.608 10.851,8.976 C10.515,8.436 10.344,8.904 9.066,8.976 C8.641,8.999 7.896,8.807 7.212,8.751 C4.475,8.529 3.122,7.645 2.768,7.394 C2.161,6.964 1.995,7.611 1.995,7.888 C1.995,8.164 4.128,10.191 7,9.789 L7,9.789 Z"/>
      <path fill="#F2C500" d="M8.14,9.009 C9.047,9.009 9.186,9.785 9.553,9.491 C9.92,9.196 9.047,8.163 8.14,8.163 C7.232,8.163 6.812,8.733 6.812,9.009 C6.812,9.285 7.232,9.009 8.14,9.009 Z"/>
      <path fill="#9C3900" d="M8.092,8.516 C8.182,8.516 8.731,8.395 8.792,8.182 C9.616,8.599 11.142,8.417 11.219,8.112 C11.326,7.687 8.816,6.776 8.792,6.323 C8.768,5.866 8.608,5.488 8.403,5.046 C8.387,5.01 10.978,6.001 11.945,8.112 C12.861,5.48 11.245,2.974 10.978,2.547 C10.364,1.562 6.878,0.193 6.221,1.056 C5.751,1.809 7.549,1.542 7.157,2.465 C5.132,0.564 4.244,2.352 4.174,2.723 C3.642,3.213 3.816,3.584 4.174,3.628 C4.335,3.648 4.334,3.421 4.571,3.279 C5.076,3.459 5.526,2.907 5.549,2.998 C5.689,3.553 4.575,4.818 5.434,5.973 C6.099,6.867 4.786,7.253 5.698,7.651 C6.61,8.05 6.738,7.21 7,7.402 C7.202,7.552 7.862,8.516 8.092,8.516 Z"/>
      <path fill="#1FCE6D" d="M-2.22044605e-16,6 C-2.22044605e-16,9.86599325 3.13400675,13 7,13 C10.8659932,13 14,9.86599325 14,6 C14,5.72385763 13.7761424,5.5 13.5,5.5 C13.2238576,5.5 13,5.72385763 13,6 C13,8.14359356 11.8564065,10.1243557 10,11.1961525 C8.14359355,12.2679493 5.85640645,12.2679493 4,11.1961525 C2.1435935,10.1243557 1,8.14359356 1,6 C1,5.72385763 0.776142375,5.5 0.5,5.5 C0.223857625,5.5 -2.22044605e-16,5.72385763 -2.22044605e-16,6 L-2.22044605e-16,6 Z"/>
    </g>
  </g>
</svg>
