<?xml version="1.0" encoding="UTF-8"?><svg xmlns="http://www.w3.org/2000/svg" width="48" height="48" viewBox="0 0 48 48">
  <g fill="none">
    <path fill="#E94B35" d="M24,48 C10.745,48 0,37.255 0,24 C0,10.745 10.745,0 24,0 C37.255,0 48,10.745 48,24 C48,37.255 37.255,48 24,48 Z"/>
    <path fill="#000" d="M7.03,7.03 L40.97,40.97 C36.4740432,45.4779496 30.3667239,48.0079705 24,48.0000188 C10.745,48.0000188 -1.87756743e-05,37.255 -1.87756743e-05,24 C-0.00797052869,17.6332761 2.52205038,11.5259568 7.03,7.03 L7.03,7.03 Z"/>
    <path fill="#F2C500" d="M36.991,18.406 C36.971,18.516 36.93,18.592 36.853,18.592 C36.573,18.592 35.449,17.757 35.347,17.887 C35.245,18.017 35.755,19.114 35.653,19.166 C35.551,19.218 35.219,18.879 35.219,19.166 C35.219,19.453 36.292,20.68 36.419,20.888 C36.317,21.018 36.189,20.836 35.909,20.862 C35.832,21.071 37.058,22.611 36.956,22.637 C36.854,22.663 36.317,22.402 36.164,22.376 C36.189,22.585 36.521,22.976 36.674,23.42 C34.376,22.715 33.201,21.175 32.793,20.784 C32.588,20.784 32.843,21.41 32.691,21.41 C32.537,21.41 31.873,20.836 31.516,20.445 C31.388,20.419 31.592,21.019 31.439,21.305 C31.312,21.305 30.111,20.288 29.319,19.401 C28.528,18.513 28.681,16.843 28.604,17 C28.528,17.156 27.813,18.148 27.532,18.357 C27.43,18.357 27.685,17.182 27.455,17.287 C27.225,17.391 26.51,18.227 26.28,18.383 C26.152,18.305 26.536,17.339 26.28,17.443 C26.025,17.548 25.259,18.461 25.13,18.435 C24.952,18.148 25.284,17.705 25.233,17.47 C24.927,17.6 24.467,18.226 24.365,18.122 C24.288,17.809 24.518,17.6 24.441,17.392 C24.161,17.417 23.343,18.148 23.267,18.044 C23.19,17.939 23.497,17.574 23.471,17.261 C23.216,17.417 22.526,18.305 22.501,18.07 C22.475,17.835 23.624,15.643 23.981,15.225 C24.339,14.808 25.208,13.581 26.433,13.607 C27.659,13.633 28.683,14.778 29.115,14.207 C29.728,13.398 29.115,14.207 29.115,14.207 C29.728,13.398 27.813,12.824 27.608,12.694 C27.404,12.564 27.378,12.354 27.098,12.198 C26.817,12.041 25.565,11.572 25.642,11.493 C25.718,11.415 26.919,11.676 27.225,11.65 C27.532,11.624 28.349,11.31 28.706,11.415 C29.064,11.519 29.115,11.702 29.37,11.963 C29.626,12.224 30.392,12.746 30.724,12.746 C31.056,12.746 31.184,12.25 31.286,11.754 C31.388,11.258 30.776,10.084 31.566,8.623 C32.358,7.161 34.504,5.856 34.657,6.013 C34.81,6.169 34.019,7.292 34.147,7.318 C34.351,7.266 34.555,7.213 34.606,7.292 C34.67,7.474 34.3,8.101 34.402,8.022 C34.504,7.944 34.925,7.983 34.964,8.101 C35.014,8.309 34.44,8.792 34.478,8.988 C34.632,9.04 34.912,8.962 35.066,9.171 C35.04,9.405 34.402,9.719 34.427,9.823 C34.453,9.927 34.849,10.123 34.836,10.214 C34.798,10.567 33.636,11.389 33.763,11.494 C35.96,10.136 38.411,11.494 38.233,11.467 C38.13,11.493 37.083,11.911 37.415,11.911 C37.747,11.911 39.714,13.529 39.535,13.529 C39.356,13.529 38.743,13.659 39.075,13.659 C39.407,13.659 40.965,16.139 40.812,16.086 C40.659,16.034 40.199,15.826 40.429,15.982 C40.659,16.139 41.425,18.357 41.195,18.279 C40.965,18.2 40.045,17.313 40.122,17.6 C40.199,17.887 40.532,18.54 40.25,18.435 C39.97,18.331 39.637,17.835 39.765,18.226 C39.893,18.618 40.735,18.983 40.915,21.593 L40.925,21.788 C41.557,22.751 42,23.803 42,24.855 C42,28.769 38.322,28.925 37.352,28.091 C38.22,28.195 41.234,28.3 41.234,24.855 C41.234,24.195 41.082,23.557 40.832,22.954 C40.483,24.586 39.254,25.318 38.207,25.612 C36.905,25.977 35.704,24.96 35.577,24.751 C37.824,25.586 39.357,24.568 40.122,22.663 C40.199,22.396 40.246,22.133 40.268,21.876 C39.288,20.321 37.804,19.084 36.991,18.406 C36.991,18.406 37.804,19.084 36.991,18.406 L36.991,18.406 Z M37.501,18.333 C37.498,18.163 37.499,18.021 37.544,18.003 C37.664,17.956 38.544,18.496 38.734,18.496 C38.924,18.496 38.9,18.096 38.972,18.144 C39.026,18.18 40.239,19.374 40.4999975,21 C39.441,19.752 38.147,18.763 37.4999975,18.333 C37.4999975,18.333 38.147,18.763 37.4999975,18.333 L37.501,18.333 Z"/>
    <path fill="#FFF" d="M18,25.5 L18.673,27.823 L21,27.823 L19.163,29.242 L19.837,31.5 L18,30.08 L16.163,31.435 L16.837,29.242 L15,27.822 L17.265,27.822 L18,25.5 Z M12,36 L12.673,38.323 L15,38.323 L13.163,39.742 L13.837,42 L12,40.58 L10.163,41.935 L10.837,39.742 L9,38.322 L11.265,38.322 L12,36 Z M15,33 L15.337,34.161 L16.5,34.161 L15.582,34.871 L15.918,36 L15,35.29 L14.082,35.968 L14.418,34.871 L13.5,34.161 L14.633,34.161 L15,33 Z M12,18 L12.673,20.323 L15,20.323 L13.163,21.742 L13.837,24 L12,22.58 L10.163,23.935 L10.837,21.742 L9,20.322 L11.265,20.322 L12,18 Z M6,25.5 L6.673,27.823 L9,27.823 L7.163,29.242 L7.837,31.5 L6,30.08 L4.163,31.435 L4.837,29.242 L3,27.822 L5.265,27.822 L6,25.5 Z"/>
  </g>
</svg>
