<?xml version="1.0" encoding="UTF-8"?><svg xmlns="http://www.w3.org/2000/svg" width="48" height="48" viewBox="0 0 48 48">
  <g fill="none">
    <path fill="#E94B35" d="M39.875 6L8.125 6C12.355 2.266 17.913-.0000254918535 24-.0000254918535 29.8473294-.00853425138 35.4950684 2.12604427 39.875 6zM8.125 42L39.875 42C35.645 45.734 30.087 48.0000255 24 48.0000255 18.1526706 48.0085343 12.5049316 45.8739557 8.125 42L8.125 42z"/>
    <path fill="#227FBB" d="M8.125,6 L39.875,6 C44.857,10.398 48,16.832 48,24 C48,31.168 44.857,37.602 39.875,42 L8.125,42 C3.143,37.602 0,31.168 0,24 C0,16.832 3.143,10.398 8.125,6 Z"/>
    <path fill="#FFF" d="M24,38 C31.732,38 38,31.732 38,24 C38,16.268 31.732,10 24,10 C16.268,10 10,16.268 10,24 C10,31.732 16.268,38 24,38 Z"/>
    <path fill="#1AAF5D" d="M24,35.75 C24.719,35.75 25.43,35.685 26.127,35.558 C26.5345861,35.4834416 26.8045584,35.0925861 26.73,34.685 C26.6554415,34.2774139 26.2645861,34.0074416 25.857,34.082 C25.249,34.194 24.628,34.25 24,34.25 C23.5857864,34.25 23.25,34.5857864 23.25,35 C23.25,35.4142136 23.5857864,35.75 24,35.75 Z M29.202,34.538 C29.842,34.222 30.452,33.848 31.023,33.421 C31.3471826,33.1708239 31.410777,32.7068677 31.1658698,32.3786866 C30.9209626,32.0505055 30.4580941,31.9794255 30.126,32.219 C29.62705,32.5915934 29.0951841,32.9179429 28.537,33.194 C28.1770475,33.3835804 28.0338682,33.8255632 28.2142849,34.1901949 C28.3947017,34.5548267 28.8329222,34.7091377 29.202,34.538 L29.202,34.538 Z M33.327,31.148 C33.761,30.581 34.144,29.977 34.468,29.341 C34.6447572,28.974133 34.4964674,28.5332492 34.133931,28.3477718 C33.7713946,28.1622944 33.3270917,28.3000015 33.133,28.658 C32.8495306,29.2124794 32.5161538,29.7399912 32.137,30.234 C31.9699894,30.4462986 31.930041,30.7320047 32.0324162,30.9819697 C32.1347915,31.2319348 32.3636735,31.4075392 32.6316221,31.4416966 C32.8995708,31.475854 33.1651881,31.3632871 33.327,31.147 L33.327,31.148 Z M35.517,26.342 C35.657,25.647 35.735,24.937 35.748,24.219 C35.755732,23.8047864 35.4262136,23.462732 35.012,23.455 C34.5977864,23.447268 34.255732,23.7767864 34.248,24.191 C34.237,24.819 34.168,25.438 34.046,26.045 C33.9869456,26.3100072 34.0757269,26.5862383 34.2781215,26.7672152 C34.4805161,26.9481922 34.7649172,27.0056528 35.0216976,26.917448 C35.2784779,26.8292431 35.4675375,26.6091472 35.516,26.342 L35.517,26.342 Z M35.364,21.002 C35.1822566,20.3117191 34.9375644,19.6395686 34.633,18.994 C34.4562689,18.6192748 34.0092252,18.4587689 33.6345,18.6355 C33.2597748,18.8122311 33.0992689,19.2592748 33.276,19.634 C33.541,20.195 33.755,20.781 33.913,21.384 C34.0269204,21.774192 34.4309398,22.0026132 34.8240102,21.8990595 C35.2170805,21.7955058 35.4561145,21.3976733 35.363,21.002 L35.364,21.002 Z M32.868,16.292 C32.4000325,15.7534932 31.8842595,15.2584716 31.327,14.813 C31.1174637,14.6457997 30.8346439,14.6030865 30.5850761,14.7009501 C30.3355083,14.7988137 30.1571077,15.0223862 30.1170761,15.2874501 C30.0770445,15.552514 30.1814637,15.8187997 30.391,15.986 C30.877,16.374 31.328,16.806 31.737,17.276 C32.0125706,17.5718671 32.4730689,17.5960413 32.7781031,17.3306535 C33.0831372,17.0652657 33.1229002,16.6058509 32.868,16.292 L32.868,16.292 Z M28.516,13.149 C27.8569561,12.8743555 27.1740907,12.6607927 26.476,12.511 C26.0708991,12.4240152 25.6719849,12.6818992 25.585,13.087 C25.4980152,13.4921009 25.7558992,13.8910151 26.161,13.978 C26.771,14.108 27.366,14.295 27.939,14.534 C28.3214572,14.6933341 28.7606658,14.5124572 28.92,14.13 C29.0793341,13.7475428 28.8984572,13.3083342 28.516,13.149 L28.516,13.149 Z M23.296,12.271 C22.579,12.313 21.873,12.421 21.183,12.59 C20.917437,12.6490539 20.7046749,12.8472841 20.6270124,13.1080131 C20.5493498,13.3687421 20.6189655,13.6510833 20.8089315,13.8458242 C20.9988974,14.0405652 21.2794237,14.1171673 21.542,14.046 C22.146275,13.897544 22.7628271,13.8044922 23.384,13.768 C23.6559911,13.7584294 23.9014531,13.6022642 24.0253724,13.3599529 C24.1492917,13.1176416 24.1322191,12.8272148 23.9807633,12.6010912 C23.8293075,12.3749677 23.5672391,12.2486372 23.296,12.271 L23.296,12.271 Z M18.157,13.804 C17.538,14.159 16.953,14.57 16.409,15.031 C16.2006874,15.2031224 16.1010721,15.4739978 16.1482362,15.7400726 C16.1954002,16.0061474 16.3820508,16.2262796 16.636833,16.3163146 C16.8916152,16.4063495 17.175133,16.3523655 17.379,16.175 C17.854,15.773 18.364,15.415 18.904,15.105 C19.1364013,14.9715613 19.2799602,14.7242743 19.2806017,14.4562895 C19.2812389,14.1883048 19.1388615,13.9403356 18.9070995,13.8057895 C18.6753376,13.6712435 18.3894013,13.6705613 18.157,13.804 L18.157,13.804 Z M14.25,17.44 C13.8513996,18.0317902 13.5076406,18.6587236 13.223,19.313 C13.1158203,19.5586201 13.147819,19.8427621 13.3069424,20.0583925 C13.4660658,20.2740229 13.7281393,20.3883822 13.9944424,20.3583925 C14.2607455,20.3284028 14.4908203,20.1586201 14.598,19.913 C14.846,19.341 15.147,18.795 15.494,18.279 C15.6438729,18.0567808 15.6638087,17.7714855 15.5462977,17.5305822 C15.4287866,17.2896788 15.1916816,17.1297664 14.9242977,17.1110822 C14.6569137,17.092398 14.3998729,17.2177808 14.25,17.44 L14.25,17.44 Z M12.364,22.363 C12.2643289,23.0777239 12.2301869,23.8000614 12.262,24.521 C12.2736111,24.7887706 12.4271942,25.0300063 12.6648958,25.153836 C12.9025975,25.2776658 13.1883053,25.2652769 13.4143958,25.121336 C13.6404864,24.9773952 13.7726111,24.7237706 13.761,24.456 C13.7330756,23.8259347 13.7628664,23.1946358 13.85,22.57 C13.9071615,22.1596524 13.6208476,21.7806615 13.2105,21.7235 C12.8001524,21.6663385 12.4211615,21.9526524 12.364,22.363 L12.364,22.363 Z M12.839,27.68 C13.063,28.36 13.349,29.015 13.691,29.64 C13.8197942,29.8750808 14.0642191,30.0235935 14.3322022,30.0295948 C14.6001852,30.0355961 14.8510134,29.8981742 14.9902022,29.6690947 C15.129391,29.4400153 15.1357943,29.1540808 15.007,28.919 C14.7076948,28.3735507 14.4589888,27.8018282 14.264,27.211 C14.1800426,26.9564483 13.966661,26.7660235 13.704234,26.7114569 C13.4418071,26.6568903 13.1702036,26.7464718 12.991734,26.9464569 C12.8132645,27.146442 12.7550426,27.4264483 12.839,27.681 L12.839,27.68 Z M15.619,32.234 C16.119,32.742 16.664,33.205 17.248,33.615 C17.586382,33.8378577 18.0405903,33.7516693 18.2738136,33.4203463 C18.5070368,33.0890234 18.4349464,32.6323653 18.111,32.389 C17.601,32.03 17.126,31.627 16.689,31.182 C16.3984982,30.8865277 15.9234723,30.8824982 15.628,31.173 C15.3325277,31.4635018 15.3284982,31.9385277 15.619,32.234 L15.619,32.234 Z M20.084,35.08 C20.755,35.317 21.448,35.493 22.156,35.605 C22.4207338,35.6468001 22.687658,35.5441911 22.8562248,35.335825 C23.0247917,35.1274588 23.0693918,34.8449912 22.9732248,34.594825 C22.8770579,34.3446587 22.6547338,34.1648001 22.39,34.123 C21.7752909,34.0262182 21.1707573,33.8732438 20.584,33.666 C20.3301317,33.571523 20.0450459,33.6212795 19.8381902,33.7961673 C19.6313346,33.9710552 19.5348566,34.243895 19.5857951,34.5099407 C19.6367337,34.7759863 19.8271725,34.9938915 20.084,35.08 Z"/>
  </g>
</svg>
