<?xml version="1.0" encoding="UTF-8"?><svg xmlns="http://www.w3.org/2000/svg" width="48" height="48" viewBox="0 0 48 48">
  <g fill="none">
    <path fill="#E94B35" d="M1.366,16 L46.634,16 C47.540917,18.5695934 48.0028754,21.2750595 48.0000133,24 C48.0000133,26.805 47.519,29.498 46.634,32 L1.366,32 C0.459082971,29.4304066 -0.00287537362,26.7249405 -1.33404768e-05,24 C-1.33404768e-05,21.195 0.481,18.502 1.366,16 L1.366,16 Z"/>
    <path fill="#2C97DE" d="M46.634,16 L1.366,16 C4.66,6.678 13.55,0 24,0 C34.45,0 43.34,6.678 46.634,16 Z"/>
    <path fill="#1AAF5D" d="M1.366,32 L46.634,32 C43.34,41.322 34.45,48 24,48 C13.55,48 4.66,41.322 1.366,32 Z"/>
    <polygon fill="#FFF" points="32.33 26.826 30.267 25.847 29.503 28 28.736 25.848 26.674 26.83 27.653 24.767 25.5 24.003 27.652 23.236 26.67 21.174 28.733 22.153 29.497 20 30.264 22.152 32.326 21.17 31.347 23.233 33.5 23.997 31.348 24.764"/>
    <path fill="#FFF" d="M25.247,18.435 C22.7414429,17.4251507 19.8699794,18.2142292 18.2323118,20.3626371 C16.5946442,22.511045 16.5946442,25.488955 18.2323118,27.6373629 C19.8699794,29.7857708 22.7414429,30.5748493 25.247,29.565 C22.3653769,31.763767 18.2819088,31.3990754 15.8355232,28.724468 C13.3891376,26.0498605 13.3891376,21.9501395 15.8355232,19.275532 C18.2819088,16.6009246 22.3653769,16.236233 25.247,18.435 L25.247,18.435 Z"/>
  </g>
</svg>
