<?xml version="1.0" encoding="UTF-8"?><svg xmlns="http://www.w3.org/2000/svg" width="48" height="48" viewBox="0 0 48 48">
  <g fill="none">
    <circle cx="24" cy="24" r="24" fill="#FFF"/>
    <path fill="#1AAF5D" d="M10.974,29.034 C10.6960161,28.7406311 10.7004807,28.2797532 10.9840957,27.9918246 C11.2677107,27.7038961 11.7284688,27.6924757 12.026,27.966 C12.387,28.322 12.743,28.662 13.094,28.988 C13.3974805,29.2699414 13.4149413,29.7445195 13.133,30.048 C12.8510586,30.3514805 12.3764805,30.3689414 12.073,30.087 C11.701189,29.7414136 11.3344827,29.3903756 10.973,29.034 L10.974,29.034 Z M13.597,31.439 C13.2916477,31.1693554 13.2573657,30.7052722 13.5197824,30.3936864 C13.7821991,30.0821006 14.2453517,30.0369553 14.563,30.292 C14.951,30.618 15.331,30.925 15.705,31.212 C15.9212871,31.3738119 16.033854,31.6394292 15.9996966,31.9073779 C15.9655392,32.1753265 15.7899348,32.4042085 15.5399697,32.5065838 C15.2900047,32.608959 15.0042986,32.5690106 14.792,32.402 C14.4,32.101 14.002,31.78 13.597,31.439 L13.597,31.439 Z M16.482,33.598 C16.939,33.893 17.387,34.158 17.826,34.393 C18.0623312,34.5192934 18.3480869,34.5099121 18.5756258,34.36839 C18.8031647,34.2268679 18.9379181,33.9747055 18.9291258,33.70689 C18.9203335,33.4390745 18.7693312,33.1962934 18.533,33.07 C18.1108066,32.8430602 17.6981246,32.5988539 17.296,32.338 C16.9480606,32.1132201 16.4837799,32.2130606 16.259,32.561 C16.0342201,32.9089394 16.1340606,33.3732201 16.482,33.598 L16.482,33.598 Z M19.77,35.254 C20.2839615,35.4337342 20.8126362,35.5682451 21.35,35.656 C21.6172944,35.7042244 21.8897742,35.6041663 22.0623383,35.3944199 C22.2349024,35.1846736 22.2805812,34.8980199 22.1817554,34.6450271 C22.0829296,34.3920343 21.8550445,34.2122421 21.586,34.175 C21.1346147,34.1005017 20.6905955,33.9867364 20.259,33.835 C20.0055201,33.7474699 19.7245982,33.8018187 19.522055,33.9775738 C19.3195117,34.1533288 19.2261183,34.4237887 19.277055,34.6870738 C19.3279917,34.9503589 19.5155201,35.1664699 19.769,35.254 L19.77,35.254 Z M23.633,35.659 C24.1706723,35.5721036 24.6996957,35.4382583 25.214,35.259 C25.605846,35.1245187 25.8144813,34.697846 25.68,34.306 C25.5455187,33.914154 25.118846,33.7055187 24.727,33.84 C24.2956796,33.990808 23.8519863,34.1035717 23.401,34.177 C22.991757,34.241065 22.711935,34.624757 22.776,35.034 C22.840065,35.443243 23.223757,35.723065 23.633,35.659 L23.633,35.659 Z M27.19,34.384 C27.629,34.149 28.076,33.884 28.533,33.588 C28.8809394,33.3632201 28.9807799,32.8989394 28.756,32.551 C28.5312201,32.2030606 28.0669394,32.1032201 27.719,32.328 C27.295,32.602 26.883,32.847 26.481,33.062 C26.2448474,33.1886507 26.0942008,33.4316666 26.0858072,33.699506 C26.0774136,33.9673454 26.2125482,34.2193172 26.4403072,34.360506 C26.6680662,34.5016948 26.9538474,34.5106507 27.19,34.384 L27.19,34.384 Z M30.206,32.404 C30.598,32.103 30.996,31.782 31.401,31.441 C31.6060705,31.2682621 31.7034088,30.9992419 31.6563486,30.7352767 C31.6092884,30.4713115 31.4249792,30.252504 31.1728486,30.1612767 C30.9207179,30.0700494 30.6390704,30.1202621 30.434,30.293 C30.047,30.62 29.666,30.927 29.294,31.213 C29.0718836,31.3725609 28.9542289,31.6403761 28.9869652,31.9118971 C29.0197016,32.1834182 29.1976387,32.4155949 29.4513143,32.5177912 C29.7049898,32.6199874 29.994183,32.5759998 30.206,32.403 L30.206,32.404 Z M32.947,30.069 C33.299,29.741 33.656,29.399 34.017,29.044 C34.3121962,28.7532221 34.3157779,28.2781962 34.025,27.983 C33.7342221,27.6878038 33.2591962,27.6842221 32.964,27.975 C32.614,28.321 32.267,28.653 31.925,28.97 C31.6215195,29.2522175 31.6042825,29.7270195 31.8865,30.0305 C32.1687175,30.3339805 32.6435195,30.3512175 32.947,30.069 L32.947,30.069 Z"/>
    <path fill="#E87E04" d="M17.922,27.5 C17.922,27.5 18.321,25.734 16.252,26.027 C15.728,26.101 15.244,26.347 14.752,26.311 C14.075,26.261 13.482,25.805 12.924,25.55 C12.289,25.26 11.713,25.153 11.352,24.825 C10.963,24.473 10.75,23.859 10.43,23.287 C10.232,22.933 9.556,22.825 9.556,21.617 C9.556,20.41 8.846,19.474 9.03,19.115 C9.345,18.5 10.354,21.754 12.198,18.774 C13.068,17.369 13.891,17.391 16.253,18.254 C18.614,19.115 17.705,14.128 17.705,14.128 C17.705,14.128 23.117,15.708 25.889,15.143 C26.562,15.006 28.489,14.955 29.493,14.128 C30.316,14.128 31.66,14.128 33.573,12.922 C34.249,12.497 34.484,12.388 35.073,11.74 C36.084,11.74 37.006,11.177 37.291,10.955 C38.729,9.835 38.972,10.34 39.356,10.161 C39.982,9.871 40.404,9.5 40.404,9.5 C40.404,9.5 41.022,10.248 39.127,10.804 C38.427,11.009 38.26,11.67 37.659,12.103 C36.633,12.843 35.262,13.483 34.484,14.128 C33.378,15.045 33.47,15.644 33.062,15.561 C31.852,15.315 31.589,16.151 31.352,16.744 C30.536,18.774 34.396,20.428 33.574,21.21 C30.671,20.357 30.965,22.018 30.316,21.477 C29.148,20.505 27.686,21.191 27.686,22.027 C27.686,23.774 26.896,23.504 25.681,23.955 C24.136,24.529 23.485,25.245 22.801,25.245 C20.695,25.245 20.087,25.533 19.314,26.027 C18.592,26.49 19.494,27.5 19.494,27.5 L17.922,27.5 L17.922,27.5 Z"/>
  </g>
</svg>
