<?xml version="1.0" encoding="UTF-8"?><svg xmlns="http://www.w3.org/2000/svg" width="48" height="48" viewBox="0 0 48 48">
  <g fill="none">
    <path fill="#FFF" d="M1.366,16 L46.634,16 C47.540917,18.5695934 48.0028754,21.2750595 48.0000133,24 C48.0000133,26.805 47.519,29.498 46.634,32 L1.366,32 C0.459082971,29.4304066 -0.00287537362,26.7249405 -1.33404768e-05,24 C-1.33404768e-05,21.195 0.481,18.502 1.366,16 L1.366,16 Z"/>
    <path fill="#E94B35" d="M46.634,16 L1.366,16 C4.66,6.678 13.55,0 24,0 C34.45,0 43.34,6.678 46.634,16 Z"/>
    <path fill="#000" d="M1.366,32 L46.634,32 C43.34,41.322 34.45,48 24,48 C13.55,48 4.66,41.322 1.366,32 Z"/>
    <g transform="translate(17.5 16)">
      <path fill="#C09300" d="M11.768,13 L11.934,12.92 L11.555,4.367 C11.527,3.719 11.223,3.38 10.715,3.344 C10.321,3.316 9.82,3.474 9.31,3.752 C8.503,4.244 7.56,4.288 6.477,3.925 C5.33,4.288 4.387,4.245 3.585,3.755 C3.07,3.474 2.569,3.316 2.175,3.345 C1.667,3.38 1.363,3.719 1.335,4.367 L0.955,12.92 L1.121,13 L4.267,10.282 L5.827,10.282 L5.452,12.394 L5.697,12.627 L5.954,12.447 L6.271,10.282 L6.333,10.282 L6.199,12.447 L6.445,12.744 L6.69,12.447 L6.556,10.282 L6.618,10.282 L6.936,12.447 L7.192,12.627 L7.438,12.394 L7.062,10.282 L8.695,10.282 L11.768,12.999 L11.768,13 Z"/>
      <path fill="#FFF" d="M2.19,3.544 C2.538,3.519 3.004,3.666 3.485,3.928 C4.338,4.448 5.341,4.495 6.477,4.115 C7.549,4.495 8.552,4.448 9.409,3.925 C9.885,3.666 10.352,3.519 10.7,3.544 C11.09,3.571 11.316,3.809 11.352,4.32 C11.172,4.208 10.924,4.073 10.818,4.073 L8.324,5.7 L4.542,5.7 L2.048,4.073 C1.947,4.073 1.717,4.196 1.539,4.305 C1.579,3.805 1.804,3.571 2.189,3.544 L2.19,3.544 Z"/>
      <polygon fill="#C09300" points="4.675 7.7 4.844 7.66 6.296 9.292 5.426 13.064 5.314 13.141 3.272 12.843 3.191 12.716"/>
      <polygon fill="#C09300" points="8.214 7.7 9.698 12.716 9.617 12.843 7.575 13.141 7.463 13.064 6.617 9.202 8.045 7.66"/>
      <polygon fill="#FFF" points="3.415 12.662 5.253 12.93 6.126 9.338 4.816 7.926"/>
      <polygon fill="#FFF" points="6.787 9.247 7.637 12.929 9.474 12.662 8.071 7.922"/>
      <path fill="#C09300" d="M10.62,13.169 C10.737,13.178 10.827,13.25 10.94,13.387 L10.97,13.425 C11.047,13.518 11.083,13.54 11.13,13.529 L11.153,13.726 C11.117,13.726 11.109,13.736 11.084,13.834 C11.0758338,13.86864 11.0664951,13.9029931 11.056,13.937 C11.0231754,14.0640311 10.9356115,14.1699138 10.817,14.226 C10.807,14.543 10.713,14.674 10.376,14.732 C9.528,14.96 8.072,15.086 6.444,15.086 C4.815,15.086 3.361,14.959 2.534,14.734 C2.179,14.674 2.083,14.544 2.072,14.226 C1.95338851,14.1699138 1.86582461,14.0640311 1.833,13.937 C1.82250563,13.9029929 1.81316693,13.8686398 1.805,13.834 C1.78,13.737 1.772,13.726 1.735,13.726 L1.76,13.529 C1.806,13.54 1.842,13.518 1.92,13.425 L1.95,13.387 C2.062,13.25 2.152,13.177 2.27,13.169 C2.29542497,13.0052571 2.40934549,12.8690143 2.566,12.815 C2.51632963,12.718306 2.52643488,12.601707 2.592,12.515 C2.68521003,12.3841678 2.84637691,12.320014 3.004,12.351 C3.421,12.479 3.902,12.587 4.349,12.645 C4.995,12.727 5.454,12.753 5.831,12.707 C6.051,12.707 6.209,12.915 6.169,13.1 L6.444,13.112 L6.724,13.111 C6.677,12.923 6.841,12.708 7.082,12.708 C7.438,12.753 7.895,12.727 8.541,12.645 C8.99934551,12.5830673 9.45185519,12.4837359 9.894,12.348 C10.0494399,12.3205234 10.2067833,12.3851744 10.298,12.514 C10.3636535,12.6011278 10.37338,12.7182349 10.323,12.815 C10.483,12.875 10.589,12.995 10.62,13.169 L10.62,13.169 Z"/>
      <path fill="#FFF" d="M10.816 13.552L10.785 13.514C10.683 13.39 10.631 13.356 10.549 13.374L10.429 13.275C10.429 13.09 10.323 12.993 10.124 12.974L10.079 12.791C10.162 12.736 10.172 12.684 10.134 12.629 10.091 12.567 10.004 12.529 9.944 12.542 9.49364075 12.6795047 9.03276252 12.779841 8.566 12.842 7.905 12.927 7.434 12.954 7.07 12.907 6.935 12.907 6.865 13.058 6.97 13.124L6.918 13.309C6.765 13.311 6.608 13.312 6.44 13.311 6.29002096 13.3047915 6.14001998 13.2991248 5.99 13.294L5.933 13.114C6.02 13.049 5.95 12.907 5.843 12.907 5.457 12.954 4.985 12.927 4.323 12.843 3.8589169 12.7810126 3.40070963 12.6810097 2.953 12.544 2.886 12.529 2.799 12.567 2.756 12.629 2.717 12.684 2.727 12.736 2.81 12.791L2.765 12.974C2.567 12.994 2.461 13.09 2.461 13.275L2.341 13.373C2.258 13.356 2.206 13.39 2.104 13.514L2.074 13.552C2.04002382 13.5944252 2.00182796 13.6332912 1.96 13.668 1.97586544 13.7055445 1.98857605 13.7443453 1.998 13.784 2.01 13.832 2.016 13.853 2.023 13.876 2.055 13.976 2.102 14.03 2.201 14.062L2.271 14.157C2.271 14.437 2.302 14.492 2.577 14.539 3.392 14.761 4.832 14.886 6.444 14.886 8.056 14.886 9.497 14.761 10.333 14.536 10.588 14.493 10.618 14.438 10.618 14.157L10.688 14.062C10.788 14.03 10.834 13.976 10.866 13.876 10.873 13.853 10.879 13.832 10.891 13.784 10.900424 13.7443453 10.9131346 13.7055445 10.929 13.668 10.8875206 13.63324 10.8496615 13.5943757 10.816 13.552L10.816 13.552zM6.443 10.054C8.982 8.194 8.764 5.47 8.764 5.47 8.697 5.483 8.634 5.49 8.566 5.49 8.034 5.49 6.764 5.2 6.467 4.83 6.15 5.164 4.852 5.49 4.323 5.49 4.256 5.49 4.189 5.483 4.125 5.47 4.125 5.47 3.904 8.194 6.443 10.054L6.443 10.054z"/>
      <path fill="#C09300" d="M5.618 5.447C5.162 5.583 4.668 5.671 4.393 5.671 4.37117248 5.67053824 4.34942535 5.66819625 4.328 5.664 4.33289474 6.13245202 4.40152459 6.59805843 4.532 7.048 4.74343649 7.78125565 5.11427542 8.45873672 5.618 9.032L5.618 5.447 5.618 5.447zM7.222 5.44L7.222 9.088C8.00109371 8.22654805 8.46870256 7.12865318 8.55 5.97 8.557 5.875 8.563 5.77 8.562 5.67 8.54035789 5.67130945 8.51868168 5.67197641 8.497 5.672 8.207 5.672 7.687 5.585 7.223 5.44L7.222 5.44zM7.511 4.505C7.526 4.591 7.508 4.668 7.396 4.662 7.215 4.646 6.882 4.558 6.747 4.399 6.712 4.432 6.519 4.773 6.5 4.797L6.118 4.401C6.03 4.546 5.787 4.678 5.389 4.797L5.49 4.427C5.47 4.437 5.237 4.534 5.147 4.558 5.058 4.582 4.655 4.618 4.58 4.618 5.12 4.06 5.453 3.571 5.58 3.153 5.762 2.58 5.784 2.058 5.665 1.893 5.495 1.659 5.335 1.589 5.166 1.717 5.076 1.786 4.983 1.734 4.955 1.639 4.94050468 1.57843199 4.93745232 1.51568902 4.946 1.454 4.964 1.29 5.023 1.14 5.122 1.077 5.282.976 5.575.979 5.942 1.058 5.982.981 6.065.94 6.182.945 6.56.965 7.062 1.11 7.23 1.269 7.425 1.455 7.531 1.867 7.502 2.563 7.467 3.305 7.764 4.261 8.026 4.371L8.388 4.619C8.222 4.662 7.51 4.5 7.511 4.505z"/>
      <path fill="#FFF" d="M7.188,1.555 C7.275,1.743 7.323,2.067 7.302,2.554 C7.272,3.187 7.457,3.947 7.712,4.329 C7.695,4.327 7.277,4.123 7.241,4.149 C7.223,4.161 7.265,4.395 7.281,4.433 L7.284,4.443 C7.18412928,4.41904033 7.08840371,4.38027821 7,4.328 C6.91,4.277 6.757,4.103 6.734,4.102 C6.711,4.101 6.433,4.426 6.429,4.429 L6.115,4.064 C5.839,4.317 5.697,4.446 5.689,4.451 L5.77,4.064 C5.512,4.219 5.303,4.314 5.144,4.35 C5.226,4.24 5.318,4.108 5.41,3.96 C5.57,3.703 5.695,3.45 5.77,3.212 C5.933,2.7 5.979,2.221 5.9,1.937 C5.968,1.907 6.154,1.947 6.154,1.947 C5.861,1.471 5.529,1.358 5.382,1.367 C5.30854194,1.37429236 5.24164649,1.4124664 5.198,1.472 C5.17887259,1.47849303 5.1601695,1.48617466 5.142,1.495 L5.144,1.475 C5.156,1.365 5.195,1.265 5.228,1.245 C5.268,1.219 5.443,1.217 5.651,1.225 C5.71517168,1.25677402 5.77555357,1.2956868 5.831,1.341 C6.005,1.471 6.141,1.535 6.227,1.521 C6.255,1.518 6.27,1.564 6.297,1.596 C6.319,1.619 6.313,1.64 6.395,1.64 C6.447,1.64 6.475,1.544 6.508,1.518 C6.55,1.486 6.63,1.471 6.682,1.46 C6.792,1.434 6.843,1.437 6.926,1.428 C6.95191155,1.42536795 6.97796283,1.42436597 7.004,1.425 C7.106,1.476 7.174,1.527 7.187,1.554 L7.188,1.555 Z"/>
    </g>
  </g>
</svg>
