<?xml version="1.0" encoding="UTF-8"?><svg xmlns="http://www.w3.org/2000/svg" width="48" height="48" viewBox="0 0 48 48">
  <g fill="none">
    <circle cx="24" cy="24" r="24" fill="#227FBB"/>
    <path fill="#227FBB" d="M24,0 L24,24 L0,24 C0,10.745 10.745,0 24,0 Z"/>
    <path fill="#FFF" d="M8.502,5.674 L12,9.172 L20.984,0.188 C21.9844438,0.0626559908 22.9917347,-2.09902892e-07 24,-2.09902892e-07 L24,2.828 L14.828,11.9999998 L24,21.172 L24,23.9999998 L21.172,23.9999998 L12,14.828 L2.828,23.9999998 L0,23.9999998 C0,22.978 0.064,21.972 0.188,20.984 L9.172,11.9999998 L5.674,8.502 C6.53684503,7.48275527 7.48275527,6.53684503 8.502,5.674 Z"/>
    <path fill="#E94B35" d="M21.777,0.102 C22.5160537,0.0340732816 23.2578312,0 24,0 L12.707,11.293 L11.647,10.233 L21.776,0.101 L21.777,0.102 Z M7.03,7.029 L11.294,11.293 L10.234,12.353 L6.003,8.123 C6.334,7.748 6.677,7.383 7.03,7.029 Z M12.708,12.707 L13.768,11.647 L24,21.878 L24,24 L12.707,12.707 L12.708,12.707 Z M12.355,13.767 L2.12,24 L0,24 L11.293,12.707 L12.353,13.767 L12.355,13.767 Z"/>
    <path fill="#FFF" d="M15,1.745 L15,9 L24,9 L24,15 L15,15 L15,24 L9,24 L9,15 L1.745,15 C2.62015684,12.8396008 3.80562521,10.8183419 5.264,9 L9,9 L9,5.264 C10.8182791,3.80527313 12.8395412,2.61946604 15,1.744 L15,1.745 Z"/>
    <path fill="#E94B35" d="M14,2.176 L14,10 L24,10 L24,14 L14,14 L14,24 L10,24 L10,14 L2.176,14 C2.82120654,12.5947205 3.6008372,11.2551489 4.504,10 L10,10 L10,4.504 C11.2551489,3.6008372 12.5947205,2.82120654 14,2.176 Z"/>
    <path fill="#E94B35" stroke="#FFF" stroke-width=".3" d="M42.75,18 L43.255,19.742 L45,19.742 L43.622,20.807 L44.128,22.5 L42.75,21.435 L41.372,22.452 L41.878,20.807 L40.5,19.742 L42.199,19.742 L42.75,18 Z M36.75,30 L37.255,31.742 L39,31.742 L37.622,32.807 L38.128,34.5 L36.75,33.435 L35.372,34.452 L35.878,32.807 L34.5,31.742 L36.199,31.742 L36.75,30 Z M36.75,12 L37.255,13.742 L39,13.742 L37.622,14.807 L38.128,16.5 L36.75,15.435 L35.372,16.452 L35.878,14.807 L34.5,13.742 L36.199,13.742 L36.75,12 Z M30.75,19.5 L31.255,21.242 L33,21.242 L31.622,22.307 L32.128,24 L30.75,22.935 L29.372,23.952 L29.878,22.307 L28.5,21.242 L30.199,21.242 L30.75,19.5 Z"/>
  </g>
</svg>
