<?xml version="1.0" encoding="UTF-8"?><svg xmlns="http://www.w3.org/2000/svg" width="48" height="48" viewBox="0 0 48 48">
  <g fill="none">
    <path fill="#E94B35" d="M46,16 L1,16 C4.275,6.678 13.112,0 23.5,0 C33.888,0 42.725,6.678 46,16 Z"/>
    <path fill="#227FBB" d="M1.366,16 L46.634,16 C47.540917,18.5695934 48.0028754,21.2750595 48.0000133,24 C48.0000133,26.805 47.519,29.498 46.634,32 L1.366,32 C0.459082971,29.4304066 -0.00287537362,26.7249405 -1.33404768e-05,24 C-1.33404768e-05,21.195 0.481,18.502 1.366,16 L1.366,16 Z"/>
    <path fill="#F2C500" d="M1,32 L46,32 C42.725,41.322 33.888,48 23.5,48 C13.112,48 4.275,41.322 1,32 Z"/>
  </g>
</svg>
