<?xml version="1.0" encoding="UTF-8"?><svg xmlns="http://www.w3.org/2000/svg" width="48" height="48" viewBox="0 0 48 48">
  <g fill="none">
    <circle cx="24" cy="24" r="24" fill="#E94B35"/>
    <path fill="#FFF" d="M20.9999973,0.186 L20.9999973,19 L47.478,19 C47.82,20.613 47.9999973,22.285 47.9999973,24 C47.9999973,25.715 47.82,27.387 47.478,29 L20.9999973,29 L20.9999973,47.814 C17.4354191,47.3703895 14.0170502,46.1274705 10.9999973,44.178 L10.9999973,29 L0.522,29 C0.174155619,27.3560905 -0.000796119354,25.6803076 -2.70478604e-06,24 C-2.70478604e-06,22.285 0.18,20.613 0.522,19 L10.9999973,19 L10.9999973,3.822 C14.0170502,1.87252947 17.4354191,0.629610544 20.9999973,0.186 Z"/>
    <path fill="#227FBB" d="M19,0.522 L19,21 L47.814,21 C48.0625109,22.9922803 48.0625109,25.0077197 47.814,27 L19,27 L19,47.478 C16.9131419,47.0357707 14.8951118,46.3153339 13,45.336 L13,27 L0.186,27 C-0.0625109184,25.0077197 -0.0625109184,22.9922803 0.186,21 L13,21 L13,2.664 C14.8951118,1.68466608 16.9131419,0.964229344 19,0.522 Z"/>
  </g>
</svg>
