<?xml version="1.0" encoding="UTF-8"?><svg xmlns="http://www.w3.org/2000/svg" width="48" height="48" viewBox="0 0 48 48">
  <g fill="none">
    <path fill="#FFF" d="M1.366,16 L46.634,16 C47.540917,18.5695934 48.0028754,21.2750595 48.0000133,24 C48.0000133,26.805 47.519,29.498 46.634,32 L1.366,32 C0.459082971,29.4304066 -0.00287537362,26.7249405 -1.33404768e-05,24 C-1.33404768e-05,21.195 0.481,18.502 1.366,16 L1.366,16 Z"/>
    <path fill="#AA3751" d="M46.634 16L1.366 16C4.66 6.678 13.55 0 24 0 34.45 0 43.34 6.678 46.634 16zM1.366 32L46.634 32C43.34 41.322 34.45 48 24 48 13.55 48 4.66 41.322 1.366 32z"/>
  </g>
</svg>
