<?xml version="1.0" encoding="UTF-8"?><svg xmlns="http://www.w3.org/2000/svg" width="48" height="48" viewBox="0 0 48 48">
  <g fill="none">
    <circle cx="24" cy="24" r="24" fill="#FFF"/>
    <path fill="#2C97DE" d="M7.059,41 L40.94,41 C36.4465261,45.489672 30.3520388,48.0080552 24,48.0000193 C17.388,48.0000193 11.4,45.326 7.059,41 Z"/>
    <path fill="#E94B35" d="M1.366,16 L46.634,16 C47.540917,18.5695934 48.0028754,21.2750595 48.0000133,24 C48.0000133,26.805 47.519,29.498 46.634,32 L1.366,32 C0.459082971,29.4304066 -0.00287537362,26.7249405 -1.33404768e-05,24 C-1.33404768e-05,21.195 0.481,18.502 1.366,16 L1.366,16 Z"/>
    <path fill="#2C97DE" d="M40.941,7 L7.06,7 C11.399,2.674 17.388,0 24,0 C30.612,0 36.6,2.674 40.941,7 Z"/>
    <g transform="translate(9 16.5)">
      <ellipse cx="6.5" cy="7.5" fill="#FFF" rx="6.5" ry="7.5"/>
      <path fill="#C2E7FF" d="M6.5,3 L9,3 L9,2.5 C9,1.948 7.88,1.5 6.5,1.5 C5.12,1.5 4,1.948 4,2.5 L4,3 L6.5,3 Z"/>
      <path fill="#C2E7FF" d="M1.618,4.276 C3.139,3.626 4.766,3.3 6.5,3.3 C8.234,3.3 9.86,3.625 11.382,4.276 C11.4806053,4.31815734 11.594211,4.30450703 11.680023,4.24019101 C11.765835,4.17587498 11.8108163,4.07066437 11.798023,3.964191 C11.7852297,3.85771763 11.7166053,3.76615734 11.618,3.724 C10.02,3.041 8.314,2.7 6.5,2.7 C4.686,2.7 2.979,3.041 1.382,3.724 C1.22956941,3.7891696 1.1588304,3.96556941 1.224,4.118 C1.2891696,4.27043059 1.46556941,4.3411696 1.618,4.276 Z"/>
      <path fill="#DCA842" d="M8.706,12.213 C9.26,11.667 11.273,10.58 11.5,9 C11.56,8.586 11.5,7.377 10.942,7.273 C10.594,7.208 10.234,7.55 9.892,7.332 C9.549,7.114 9.554,6.572 9.892,6.34 C10.228,6.107 10.52,6.34 10.512,5.996 C10.334,5.175 9.649,4.93 10.082,4.936 C10.571,4.796 8.395,4.264 9.072,4.149 C9.197,3.975 7.842,3.5 7.275,3.465 C7.555,3.105 7.2,3 6.5,3 C5.798,3 5.443,3.105 5.723,3.465 C5.157,3.5 3.801,3.975 3.927,4.149 C4.603,4.264 2.427,4.795 2.917,4.935 C3.349,4.93 2.664,5.175 2.487,5.996 C2.479,6.34 2.77,6.107 3.107,6.34 C3.444,6.572 3.45,7.114 3.107,7.332 C2.765,7.55 2.404,7.208 2.057,7.272 C1.498,7.377 1.439,8.586 1.498,9 C1.725,10.58 3.738,11.667 4.293,12.213 C4.848,12.759 4.95,13.498 6.498,13.5 C8.048,13.498 8.151,12.759 8.706,12.213 L8.706,12.213 Z"/>
      <path fill="#C2E7FF" d="M3.505,7.51 C3.649,7.031 3.721,6.416 3.517,5.616 C4.413,5.038 5.043,4.51 6.502,4.51 C7.959,4.51 8.646,4.911 9.488,5.616 C9.287,6.416 9.358,7.029 9.5,7.51 L3.5,7.51"/>
      <path fill="#2C97DE" d="M3.504,7.5 C3.423,7.816 3.234,8.084 3.146,8.314 C2.914,8.919 2.866,10.325 3.722,11.319 C4.994,12.791 5.962,12.199 6.45,13 L6.55,13 C7.036,12.198 8.005,12.79 9.277,11.32 C10.134,10.325 10.087,8.919 9.853,8.314 C9.767,8.087 9.576,7.816 9.495,7.5 L3.505,7.5 L3.504,7.5 Z"/>
      <path fill="#1AAF5D" d="M9.71,7.982 C9.804,8.212 9.998,8.513 9.998,9 L3,9 C3.018,8.904 3.024,8.815 3.046,8.703 C3.667,8.529 3.858,8.078 4.121,8.108 C4.263,7.893 4.955,6.241 5.305,6.001 C5.581,6.348 6.125,7.501 6.375,8.094 C6.548,7.954 7.325,6.412 7.419,6.241 C7.513,6.073 7.568,5.993 7.694,6.241 C7.821,6.489 8.132,7.731 8.328,7.982 C8.328,7.982 8.808,6.241 8.906,6.241 C9.106,6.241 9.647,7.948 9.708,7.982 L9.71,7.982 Z"/>
    </g>
  </g>
</svg>
