<?xml version="1.0" encoding="UTF-8"?><svg xmlns="http://www.w3.org/2000/svg" width="48" height="48" viewBox="0 0 48 48">
  <g fill="none">
    <circle cx="24" cy="24" r="24" fill="#E94B35"/>
    <path fill="#227FBB" d="M24,0 L24,24 L0,24 C0,10.745 10.745,0 24,0 Z"/>
    <polygon fill="#FFF" points="14 18.5 11.67 22.693 11.75 17.897 7.636 20.364 10.103 16.25 5.307 16.33 9.5 14 5.307 11.67 10.103 11.75 7.636 7.636 11.75 10.103 11.67 5.307 14 9.5 16.33 5.307 16.25 10.103 20.364 7.636 17.897 11.75 22.693 11.67 18.5 14 22.693 16.33 17.897 16.25 20.364 20.364 16.25 17.897 16.33 22.693" transform="rotate(15 14 14)"/>
    <circle cx="14" cy="14" r="5" fill="#227FBB"/>
    <circle cx="14" cy="14" r="4" fill="#FFF"/>
  </g>
</svg>
