<?xml version="1.0" encoding="UTF-8"?><svg xmlns="http://www.w3.org/2000/svg" width="48" height="48" viewBox="0 0 48 48">
  <g fill="none">
    <circle cx="24" cy="24" r="24" fill="#2C97DE"/>
    <path fill="#FFF" d="M1.366,16 L46.634,16 C47.540917,18.5695934 48.0028754,21.2750595 48.0000133,24 C48.0000133,26.805 47.519,29.498 46.634,32 L1.366,32 C0.459082971,29.4304066 -0.00287537362,26.7249405 -1.33404768e-05,24 C-1.33404768e-05,21.195 0.481,18.502 1.366,16 L1.366,16 Z"/>
    <path fill="#000" d="M0.756,18 L47.244,18 C47.737,19.918 47.9999931,21.928 47.9999931,24 C47.9999931,26.072 47.737,28.082 47.244,30 L0.756,30 C0.252475854,28.0397899 -0.00153292135,26.0238473 -6.89682922e-06,24 C-6.89682922e-06,21.928 0.263,19.918 0.756,18 L0.756,18 Z"/>
  </g>
</svg>
