<?xml version="1.0" encoding="UTF-8"?><svg xmlns="http://www.w3.org/2000/svg" width="48" height="48" viewBox="0 0 48 48">
  <g fill="none">
    <path fill="#F2C500" d="M2.664,13 L45.336,13 C47.0920108,16.4004489 48.005633,20.172913 48.0000259,24 C48.0000259,27.965 47.039,31.705 45.336,35 L2.664,35 C0.907989173,31.5995511 -0.00563302305,27.827087 -2.58907905e-05,24 C-2.58907905e-05,20.035 0.961,16.295 2.664,13 L2.664,13 Z"/>
    <path fill="#E94B35" d="M45.336 13L2.664 13C6.653 5.279 14.71 0 24 0 33.29 0 41.347 5.279 45.336 13zM2.664 35L45.336 35C41.347 42.721 33.29 48 24 48 14.71 48 6.653 42.721 2.664 35z"/>
    <g transform="translate(4 15)">
      <path fill="#D9D9D9" d="M2 5C2.55228475 5 3 5.44771525 3 6L3 17 4 17 4 18 0 18 0 17 1 17 1 6C1 5.44771525 1.44771525 5 2 5zM4.5 5.5L15.5 5.5 15.5 14.167C15.5 17.158 13.038 18.5 10 18.5 6.962 18.5 4.5 17.158 4.5 14.167L4.5 5.5z"/>
      <ellipse cx="10" cy="2.5" fill="#E94B35" rx="5" ry="2.5"/>
      <circle cx="2" cy="5.5" r="1" fill="#E94B35"/>
      <polygon fill="#E94B35" points="5 6 10 6 10 11 5 11"/>
      <path fill="#F2C500" d="M5,11 L10,11 L10,14.5 C10,15.8807119 8.88071187,17 7.5,17 C6.11928813,17 5,15.8807119 5,14.5 L5,11 Z"/>
      <path fill="#E94B35" d="M10,11 L15,11 L15,14.5 C15,15.8807119 13.8807119,17 12.5,17 C11.1192881,17 10,15.8807119 10,14.5 L10,11 Z"/>
      <path fill="#D9D9D9" d="M18,5 C18.5522847,5 19,5.44771525 19,6 L19,17 L20,17 L20,18 L16,18 L16,17 L17,17 L17,6 C17,5.44771525 17.4477153,5 18,5 Z"/>
      <circle cx="18" cy="5.5" r="1" fill="#E94B35"/>
      <ellipse cx="12.5" cy="8.5" fill="#E94B35" rx="1.5" ry="2"/>
    </g>
  </g>
</svg>
