<?xml version="1.0" encoding="UTF-8"?><svg xmlns="http://www.w3.org/2000/svg" width="48" height="48" viewBox="0 0 48 48">
  <g fill="none">
    <circle cx="24" cy="24" r="24" fill="#FFF"/>
    <g fill="#000" transform="translate(6 9)">
      <path d="M1,2 L8,2 L8,3 L1,3 L1,2 Z M1,4 L8,4 L8,5 L1,5 L1,4 Z M1,6 L8,6 L8,7 L1,7 L1,6 Z" transform="rotate(-56 4.5 4.5)"/>
      <path d="M1,23 L8,23 L8,24 L1,24 L1,23 Z M1,25 L4,25 L4,26 L1,26 L1,25 Z M5,25 L8,25 L8,26 L5,26 L5,25 Z M1,27 L8,27 L8,28 L1,28 L1,27 Z" transform="rotate(56 4.5 25.5)"/>
      <path d="M28,2 L31,2 L31,3 L28,3 L28,2 Z M32,2 L35,2 L35,3 L32,3 L32,2 Z M28,4 L35,4 L35,5 L28,5 L28,4 Z M28,6 L31,6 L31,7 L28,7 L28,6 Z M32,6 L35,6 L35,7 L32,7 L32,6 Z" transform="rotate(56 31.5 4.5)"/>
      <path d="M28,23 L31,23 L31,24 L28,24 L28,23 Z M32,23 L35,23 L35,24 L32,24 L32,23 Z M28,25 L31,25 L31,26 L28,26 L28,25 Z M32,25 L35,25 L35,26 L32,26 L32,25 Z M28,27 L31,27 L31,28 L28,28 L28,27 Z M32,27 L35,27 L35,28 L32,28 L32,27 Z" transform="rotate(-56 31.5 25.5)"/>
    </g>
    <circle cx="24" cy="24" r="8" fill="#E94B35"/>
    <path fill="#227FBB" d="M32,24 C32,28.418278 28.418278,32 24,32 C19.581722,32 16,28.418278 16,24 C16,26.209139 17.790861,28 20,28 C22.209139,28 24,26.209139 24,24 C24,21.790861 25.790861,20 28,20 C30.209139,20 32,21.790861 32,24 Z"/>
  </g>
</svg>
