<?xml version="1.0" encoding="UTF-8"?><svg xmlns="http://www.w3.org/2000/svg" width="48" height="48" viewBox="0 0 48 48">
  <g fill="none">
    <circle cx="24" cy="24" r="24" fill="#FFF"/>
    <path fill="#2C97DE" d="M4.086,37.4 L43.914,37.4 C42.5650229,39.4000951 40.9237778,41.1866218 39.045,42.7 L8.955,42.7 C7.07622216,41.1866218 5.43497715,39.4000951 4.086,37.4 L4.086,37.4 Z M39.045,5.3 C40.9237778,6.81337819 42.5650229,8.59990491 43.914,10.6 L24,10.6 L24,5.3 L39.045,5.3 Z M0.15,26.7 L47.85,26.7 C47.6479696,28.5072345 47.2399873,30.285447 46.634,32 L1.366,32 C0.760012736,30.285447 0.352030396,28.5072345 0.15,26.7 Z M46.634,16 C47.2399873,17.714553 47.6479696,19.4927655 47.85,21.3 L24,21.3 L24,16 L46.634,16 Z"/>
    <polygon fill="#F2C500" points="13.904 18.933 12.332 22.808 12.362 18.627 9.427 21.605 11.055 17.753 7.203 19.381 10.181 16.446 6 16.476 9.875 14.904 6 13.332 10.181 13.362 7.203 10.427 11.055 12.055 9.427 8.203 12.362 11.181 12.332 7 13.904 10.875 15.476 7 15.446 11.181 18.381 8.203 16.753 12.055 20.605 10.427 17.627 13.362 21.807 13.332 17.933 14.904 21.808 16.476 17.627 16.446 20.605 19.381 16.753 17.753 18.381 21.605 15.446 18.627 15.476 22.807"/>
  </g>
</svg>
