<?xml version="1.0" encoding="UTF-8"?><svg xmlns="http://www.w3.org/2000/svg" width="48" height="48" viewBox="0 0 48 48">
  <g fill="none">
    <circle cx="24" cy="24" r="24" fill="#FFF"/>
    <path fill="#E94B35" d="M45.824,14 L28.369,14 L11.798,3.33 C15.4922736,1.14386236 19.7073536,-0.0064585877 24,-2.70475576e-05 C33.686,-2.70475576e-05 42.032,5.738 45.824,14 Z"/>
    <path fill="#227FBB" d="M11.798,44.67 L28.369,34 L45.824,34 C42.032,42.262 33.686,48.000027 24,48.000027 C19.7073536,48.0064586 15.4922736,46.8561376 11.798,44.67 L11.798,44.67 Z"/>
    <path fill="#1AAF5D" d="M9.966,4.529 L27.781,16 L46.634,16 C47.540917,18.5695934 48.0028754,21.2750595 48.0000133,24 C48.0000133,26.805 47.519,29.498 46.634,32 L27.781,32 L9.966,43.471 C3.93,39.113 0,32.015 0,24 C0,15.985 3.929,8.887 9.966,4.529 Z"/>
    <path fill="#F2C500" d="M2.545,13.232 L19.774,24 L2.545,34.768 C0.866054241,31.427155 -0.00563698455,27.7389935 -2.71662698e-05,24 C-0.00563698455,20.2610065 0.866054241,16.572845 2.545,13.232 L2.545,13.232 Z"/>
    <path fill="#000" d="M1.715,15.072 L16,24 L1.715,32.928 C0.578182223,30.0889015 -0.00398489767,27.0582379 -2.03194427e-05,24 C-2.03194427e-05,20.845 0.609,17.832 1.715,15.072 L1.715,15.072 Z"/>
  </g>
</svg>
