<?xml version="1.0" encoding="UTF-8"?><svg xmlns="http://www.w3.org/2000/svg" width="48" height="48" viewBox="0 0 48 48">
  <g fill="none">
    <path fill="#FFF" d="M24,48 C10.745,48 0,37.255 0,24 C0,10.745 10.745,0 24,0 C37.255,0 48,10.745 48,24 C48,37.255 37.255,48 24,48 Z"/>
    <path fill="#E94B35" d="M27,0.186 L27,21 L47.814,21 C48.0625109,22.9922803 48.0625109,25.0077197 47.814,27 L27,27 L27,47.814 C25.0077197,48.0625109 22.9922803,48.0625109 21,47.814 L21,27 L0.186,27 C-0.0625109184,25.0077197 -0.0625109184,22.9922803 0.186,21 L21,21 L21,0.186 C22.9922803,-0.0625109184 25.0077197,-0.0625109184 27,0.186 Z"/>
    <path fill="#E94B35" d="M35.764 10.264C35.7180541 9.33614362 35.6077894 8.41259286 35.434 7.5 36.308 7.609 35.434 7.5 35.434 7.5 36.308 7.609 37.192 7.609 38.065 7.5 37.8915463 8.4126164 37.7816157 9.33616698 37.736 10.264 38.662 10.218 39.586 10.109 40.5 9.934 40.3909667 10.8076111 40.3909667 11.6913889 40.5 12.565 39.5873836 12.3915463 38.663833 12.2816157 37.736 12.236 37.782 13.162 37.891 14.086 38.066 15 37.1923889 14.8909667 36.3086111 14.8909667 35.435 15 35.609 14.086 35.718 13.162 35.764 12.236 34.838 12.282 33.914 12.391 33 12.566 33.109 11.692 33 12.566 33 12.566 33.109 11.692 33.109 10.808 33 9.935 33.914 10.109 34.838 10.218 35.764 10.264 35.764 10.264 34.838 10.218 35.764 10.264zM10.264 35.764C10.2180541 34.8361436 10.1077894 33.9125929 9.934 33 10.808 33.109 9.934 33 9.934 33 10.808 33.109 11.692 33.109 12.565 33 12.3915463 33.9126164 12.2816157 34.836167 12.236 35.764 13.162 35.718 14.086 35.609 15 35.434 14.8909667 36.3076111 14.8909667 37.1913889 15 38.065 14.0873836 37.8915463 13.163833 37.7816157 12.236 37.736 12.282 38.662 12.391 39.586 12.566 40.5 11.6923889 40.3909667 10.8086111 40.3909667 9.935 40.5 10.109 39.586 10.218 38.662 10.264 37.736 9.338 37.782 8.414 37.891 7.5 38.066 7.609 37.192 7.5 38.066 7.5 38.066 7.609 37.192 7.609 36.308 7.5 35.435 8.414 35.609 9.338 35.718 10.264 35.764 10.264 35.764 9.338 35.718 10.264 35.764L10.264 35.764zM35.764 35.764C35.7180541 34.8361436 35.6077894 33.9125929 35.434 33 36.308 33.109 35.434 33 35.434 33 36.308 33.109 37.192 33.109 38.065 33 37.8915463 33.9126164 37.7816157 34.836167 37.736 35.764 38.662 35.718 39.586 35.609 40.5 35.434 40.3909667 36.3076111 40.3909667 37.1913889 40.5 38.065 39.5873836 37.8915463 38.663833 37.7816157 37.736 37.736 37.782 38.662 37.891 39.586 38.066 40.5 37.1923889 40.3909667 36.3086111 40.3909667 35.435 40.5 35.609 39.586 35.718 38.662 35.764 37.736 34.838 37.782 33.914 37.891 33 38.066 33.109 37.192 33 38.066 33 38.066 33.109 37.192 33.109 36.308 33 35.435 33.914 35.609 34.838 35.718 35.764 35.764 35.764 35.764 34.838 35.718 35.764 35.764L35.764 35.764zM10.264 10.264C10.2180541 9.33614362 10.1077894 8.41259286 9.934 7.5 10.808 7.609 9.934 7.5 9.934 7.5 10.808 7.609 11.692 7.609 12.565 7.5 12.3915463 8.4126164 12.2816157 9.33616698 12.236 10.264 13.162 10.218 14.086 10.109 15 9.934 14.8909667 10.8076111 14.8909667 11.6913889 15 12.565 14.0873836 12.3915463 13.163833 12.2816157 12.236 12.236 12.282 13.162 12.391 14.086 12.566 15 11.6923889 14.8909667 10.8086111 14.8909667 9.935 15 10.109 14.086 10.218 13.162 10.264 12.236 9.338 12.282 8.414 12.391 7.5 12.566 7.609 11.692 7.5 12.566 7.5 12.566 7.609 11.692 7.609 10.808 7.5 9.935 8.414 10.109 9.338 10.218 10.264 10.264 10.264 10.264 9.338 10.218 10.264 10.264L10.264 10.264z"/>
  </g>
</svg>
