<?xml version="1.0" encoding="UTF-8"?><svg xmlns="http://www.w3.org/2000/svg" width="48" height="48" viewBox="0 0 48 48">
  <g fill="none">
    <path fill="#E94B35" d="M16,46.634 L16,1.366 C18.5695934,0.459082971 21.2750595,-0.00287537362 24,-1.33404768e-05 C37.255,-1.33404768e-05 48,10.745 48,24 C48,37.255 37.255,48 24,48 C21.195,48 18.502,47.519 16,46.634 Z"/>
    <path fill="#1AAF5D" d="M16,1.366 L16,46.634 C6.678,43.34 0,34.45 0,24 C0,13.55 6.678,4.66 16,1.366 Z"/>
    <path fill="#F2C500" d="M16,33 C10.477,33 6,28.523 6,23 C6,17.477 10.477,13 16,13 C21.523,13 26,17.477 26,23 C26,28.523 21.523,33 16,33 Z M16,31 C20.418278,31 24,27.418278 24,23 C24,18.581722 20.418278,15 16,15 C11.581722,15 8,18.581722 8,23 C8,27.418278 11.581722,31 16,31 Z"/>
    <path fill="#F2C500" d="M21.5,17.5 L21.5,24 C21.5,27.0375661 19.0375661,29.5 16,29.5 C12.9624339,29.5 10.5,27.0375661 10.5,24 L10.5,17.5 L21.5,17.5 Z"/>
    <path fill="#E94B35" d="M11,18 L21,18 L21,24 C21,26.7614237 18.7614237,29 16,29 C13.2385763,29 11,26.7614237 11,24 L11,18 L11,18 Z"/>
    <path fill="#FFF" d="M13,24 C13,25.6568542 14.3431458,27 16,27 C17.6568542,27 19,25.6568542 19,24 L19,20 L13,20 L13,24 Z"/>
    <polygon fill="#2C97DE" points="15.5 21 16.5 21 16.5 22 15.5 22"/>
    <polygon fill="#2C97DE" points="14 23 15 23 15 24 14 24"/>
    <polygon fill="#2C97DE" points="17 23 18 23 18 24 17 24"/>
    <polygon fill="#2C97DE" points="15.5 25 16.5 25 16.5 26 15.5 26"/>
    <polygon fill="#2C97DE" points="15.5 23 16.5 23 16.5 24 15.5 24"/>
  </g>
</svg>
