<?xml version="1.0" encoding="utf-8"?>
<!-- Generator: Adobe Illustrator 23.0.2, SVG Export Plug-In . SVG Version: 6.00 Build 0)  -->
<svg version="1.1" id="圖層_1" xmlns="http://www.w3.org/2000/svg" xmlns:xlink="http://www.w3.org/1999/xlink" x="0px" y="0px"
	 viewBox="0 0 999 546.8" style="enable-background:new 0 0 999 546.8;" xml:space="preserve">
<style type="text/css">
	.st0{fill:url(#SVGID_1_);}
	.st1{fill:url(#SVGID_2_);}
	.st2{clip-path:url(#SVGID_4_);}
	.st3{fill:#FFFFFF;}
	.st4{fill:url(#SVGID_5_);}
	.st5{fill:#373C38;}
</style>
<g>
	<g>
		<linearGradient id="SVGID_1_" gradientUnits="userSpaceOnUse" x1="143.8656" y1="264.8383" x2="326.0077" y2="288.3381">
			<stop  offset="0.1571" style="stop-color:#1E4CC4"/>
			<stop  offset="0.1835" style="stop-color:#2356C7"/>
			<stop  offset="0.3007" style="stop-color:#377CD2"/>
			<stop  offset="0.4229" style="stop-color:#479BDB"/>
			<stop  offset="0.5496" style="stop-color:#54B3E2"/>
			<stop  offset="0.6827" style="stop-color:#5DC4E7"/>
			<stop  offset="0.8265" style="stop-color:#62CFEA"/>
			<stop  offset="1" style="stop-color:#64D2EB"/>
		</linearGradient>
		<path class="st0" d="M407.8,222.9c0,16.3-7.1,30.9-18.5,40.8c-2.8,2.6-11.3,7.8-12.4,8.3c-8.2,4-16.7,7.5-25.5,10.3
			c-9.7,3-19.9,5.3-30.3,6.6c-2.1,0.2-4.1,0.4-6,0.7c-35.8,4.6-68.8,17.7-97,37.4c-0.4,0.3-13.4,9.9-19,14.9
			c-0.2,0.1-7.2,6.5-7.2,6.6c-13.2,12.6-24.8,26.7-34.5,42.2c-0.6-4.6-1-9.3-1.3-13.9c0-0.1,0-0.1,0-0.1c-0.2-3.6-0.3-7.3-0.3-11
			c0-13.4,1.4-26.5,3.9-39.1c4-20,11-38.9,20.6-56.3c3.2-5.7,6.7-11.3,10.4-16.7c2-2.8,4-5.6,6-8.3c5.4-7,11.3-13.7,17.6-19.9
			c0.4-0.4,0.8-0.8,1.1-1.1c0.7-0.7,1.4-1.4,2.1-2c31.1-29.6,71.9-48.9,117.1-53.1c0.3,0,0.5-0.1,0.7-0.1c4.6-0.2,9.1-0.3,13.7-0.3
			c4.5,0,8.9,0.1,13.4,0.3C388.2,173.5,407.8,195.9,407.8,222.9z"/>
		<linearGradient id="SVGID_2_" gradientUnits="userSpaceOnUse" x1="176.6244" y1="499.6918" x2="204.5923" y2="238.6578">
			<stop  offset="0" style="stop-color:#59E0D1"/>
			<stop  offset="0.1975" style="stop-color:#5AE0CE"/>
			<stop  offset="0.3668" style="stop-color:#5DDFC3"/>
			<stop  offset="0.5256" style="stop-color:#62DDB1"/>
			<stop  offset="0.6781" style="stop-color:#69DB99"/>
			<stop  offset="0.8261" style="stop-color:#72D878"/>
			<stop  offset="0.9688" style="stop-color:#7CD452"/>
			<stop  offset="1" style="stop-color:#7FD348"/>
		</linearGradient>
		<path class="st1" d="M219.3,489.4c-0.5-0.5-1.1-0.9-1.8-1.2c-26-17.9-45.7-44.1-55.2-74.9c-1.8-5.8-4.8-21.2-5-22.6
			c-0.7-4.6-1-9.3-1.2-14c0-0.1,0-0.1,0-0.1c-0.2-3.6-0.3-7.3-0.3-11c0-13.4,1.4-26.5,3.9-39.1c4-20,11-38.9,20.6-56.3
			c3.2-5.8,6.6-11.4,10.4-16.8c1.9-2.8,3.9-5.5,6-8.2c5.4-7,11.3-13.7,17.6-19.9c0.4-0.4,0.8-0.8,1.1-1.1c0.7-0.7,1.4-1.4,2.1-2
			c31.1-29.6,71.9-48.9,117.1-53.1c-55,2.4-106.3,18.8-150.6,45.7c-3.7,12.1-14.9,21-28.3,21c-0.7,0-1.3-0.1-2-0.1
			c-13.7,10.6-26.5,22.2-38.2,34.9c-6.9,7.3-13.4,15-19.5,23c-18.2,26.1-28.9,57.8-28.9,92c0,41.3,15.5,78.8,41,107.3
			c0.9,1,1.9,2,2.9,3c0.5,0.5,1,1.1,1.5,1.6c0.5,0.5,1,1.1,1.5,1.6c0.2,0.2,0.3,0.3,0.5,0.5c1.7,1.7,3.4,3.3,5.1,4.9
			c0.4,0.3,0.8,0.6,1.1,0.9c0.5,0.5,1.1,0.9,1.6,1.4c0.5,0.4,1.1,0.8,1.5,1.1c17.2,13,38.6,20.7,61.8,20.7c9.3,0,18.3-1.3,26.9-3.6
			c5.2-1.5,9.6-5.1,12.2-9.7c0.2-0.3,0.3-0.6,0.5-0.9c1.3-2.7,2.1-5.7,2.1-8.9C227.4,498.9,224.3,493.1,219.3,489.4z"/>
		<g>
			<defs>
				<path id="SVGID_3_" d="M101.4,152.7v133.9h133.9V152.7H101.4z M155.8,235.8c-16.3,0-29.5-13.2-29.5-29.5s13.2-29.5,29.5-29.5
					s29.5,13.2,29.5,29.5S172.1,235.8,155.8,235.8z"/>
			</defs>
			<clipPath id="SVGID_4_">
				<use xlink:href="#SVGID_3_"  style="overflow:visible;"/>
			</clipPath>
			<g class="st2">
				
					<image style="overflow:visible;opacity:0.16;" width="90" height="90" xlink:href="69E42EC2883B5793.html"  transform="matrix(1 0 0 1 115.8628 166.7399)">
				</image>
				<g>
					<circle class="st3" cx="155.8" cy="206.2" r="29.5"/>
				</g>
			</g>
		</g>
		<linearGradient id="SVGID_5_" gradientUnits="userSpaceOnUse" x1="331.8627" y1="79.2651" x2="36.9732" y2="371.5217">
			<stop  offset="0.3887" style="stop-color:#FFC800"/>
			<stop  offset="0.4913" style="stop-color:#FFC100"/>
			<stop  offset="0.6426" style="stop-color:#FEAD00"/>
			<stop  offset="0.8231" style="stop-color:#FC8D00"/>
			<stop  offset="1" style="stop-color:#FA6600"/>
		</linearGradient>
		<path class="st4" d="M352.3,20.5c-0.1-0.1-0.2-0.1-0.4-0.1c-1.7-0.2-25.4-2.2-35.6-2.2c-74.6,0-142.4,28.8-192.9,76.1
			c-55.4,51.6-90.1,125.2-90.1,207c0,29.9,4.6,58.7,13.2,85.7c12.3,38.8,32.8,74,59.4,103.6l0.1,0.1c0.7,0.8,1.4,1.6,2.2,2.3
			c-25.5-28.5-41-66.1-41-107.3c0-34.2,10.7-65.9,28.9-92c5.8-8.3,12.3-16,19.5-23c11.7-12.7,24.6-24.3,38.2-34.9
			c-15.4-1-27.5-13.8-27.5-29.4c0-16.3,13.2-29.5,29.5-29.5s29.5,13.2,29.5,29.5c0,3-0.5,5.9-1.3,8.6
			c44.3-26.9,95.6-43.2,150.6-45.7c0.3,0,0.5-0.1,0.7-0.1c1.7-0.2,3.4-0.3,5.1-0.4c0.4,0,5.9-0.3,6.2-0.3
			c38.3-3.2,68.4-35.2,68.4-74.3C415.1,56.9,387.9,26.1,352.3,20.5z"/>
	</g>
	<g>
		<polygon class="st5" points="320.8,415.4 370.7,415.4 373,402.7 335.9,402.7 339.4,382.9 371.8,382.9 376.8,382.9 379,370 
			374.1,370 341.6,370 345.1,350.3 382.2,350.3 384.5,337.5 334.6,337.5 		"/>
		<polygon class="st5" points="483.9,415.4 533.8,415.4 536.1,402.7 499,402.7 502.5,382.9 534.9,382.9 539.9,382.9 542.1,370 
			537.2,370 504.7,370 508.2,350.3 545.3,350.3 547.6,337.5 497.7,337.5 		"/>
		<polygon class="st5" points="427.9,337.6 415.1,337.6 401.4,415.4 453.9,415.4 456.1,402.7 416.5,402.7 		"/>
		<path class="st5" d="M620,344.3c-1.7-2.1-3.9-3.8-6.5-5c-2.6-1.2-5.4-1.8-8.6-1.8h-26.9l-13.7,77.9h12.8l5.7-32.5h14.8
			c3.1,0,6.1-0.6,9-1.8c2.9-1.1,5.5-2.7,7.9-4.7c2.4-2,4.4-4.4,6-7.1c1.6-2.7,2.8-5.7,3.3-8.7c0.6-3.2,0.5-6.2-0.2-8.9
			C623,348.9,621.7,346.4,620,344.3z M599.2,370h-14.1l3.5-19.7h14.8c1.3,0,2.6,0.2,3.6,0.7c1.1,0.5,1.9,1.1,2.6,2
			c0.7,0.9,1.2,1.9,1.5,3.1c0.3,1.2,0.3,2.4,0.1,3.8c-0.2,1.4-0.7,2.7-1.5,3.9c-0.8,1.3-1.7,2.4-2.8,3.3c-1.1,0.9-2.3,1.7-3.6,2.2
			C602,369.8,600.6,370,599.2,370z"/>
		<polygon class="st5" points="687.9,370 663.6,370 669.3,337.5 656.5,337.5 642.8,415.4 655.6,415.4 661.3,382.9 685.6,382.9 
			679.9,415.4 692.7,415.4 706.4,337.5 693.6,337.5 		"/>
		<path class="st5" d="M785.3,345.3c-2.2-2.6-4.9-4.8-8.2-6.3c-3.3-1.5-7-2.3-11-2.3c-4,0-8,0.8-11.7,2.3c-3.7,1.5-7.1,3.5-10.1,6.1
			c-3,2.6-5.6,5.6-7.7,9c-2.1,3.5-3.5,7.2-4.2,11.2l-8.8,50.1h12.9l4.7-26.8h32.3l-4.7,26.8h12.8l8.7-49.5c0.7-4,0.6-7.8-0.3-11.3
			C789,351.1,787.4,347.9,785.3,345.3z M770.5,350.6c1.8,0.8,3.2,2,4.4,3.4c1.2,1.4,2,3.1,2.5,5c0.5,1.9,0.5,4,0.1,6.2l-1.9,10.6
			h-32.3l1.8-10c0.4-2.3,1.2-4.4,2.4-6.4c1.2-2,2.7-3.8,4.5-5.3c1.8-1.5,3.8-2.7,5.9-3.6C762.2,349,766.9,349,770.5,350.6z"/>
		<path class="st5" d="M875.6,345.3c-2.2-2.6-4.9-4.8-8.2-6.3c-6.5-3.1-15-3.1-22.5,0c-3.7,1.5-7.1,3.5-10.1,6.1
			c-3,2.6-5.6,5.6-7.7,9c-2.1,3.5-3.5,7.2-4.2,11.2l-8.8,50.1h12.8l8.7-49.5c0.4-2.3,1.2-4.4,2.4-6.4c1.2-2,2.7-3.8,4.5-5.3
			c1.8-1.5,3.8-2.7,5.9-3.6c4.2-1.7,9-1.7,12.5,0c1.8,0.8,3.2,2,4.4,3.4c1.2,1.4,2,3.1,2.5,5c0.5,1.9,0.5,4,0.1,6.2l-8.8,50.1h12.8
			l8.7-49.5c0.7-4,0.6-7.8-0.3-11.3C879.3,351.1,877.8,347.9,875.6,345.3z"/>
		<polygon class="st5" points="911.5,337.9 909.3,350.6 929.9,350.6 918.5,415.4 931.4,415.4 942.8,350.6 963.5,350.6 965.8,337.9 
					"/>
	</g>
	<g>
		<polygon class="st5" points="573.2,291.1 595.7,291.1 605.9,233.7 662.9,233.7 671.2,233.7 675.2,211 666.9,211 609.9,211 
			616,176.3 681.3,176.3 685.3,153.6 597.4,153.6 		"/>
		<polygon class="st5" points="760.5,153.8 737.9,153.8 713.7,291.1 806.2,291.1 810.2,268.6 740.3,268.6 		"/>
		<path class="st5" d="M938.3,155.1c-1.1,1.5-2.4,3.3-4,5.4c-1.6,2.1-3,3.9-4.3,5.5c-6.2,8.3-12.6,16.8-19,25.3
			c-5.2,6.9-10.3,13.7-15.4,20.4c-2.3-5.7-4.7-11.7-7.1-17.7c-3.2-8.1-6.3-15.9-9.3-23.4l-6.5-16.9h-25.4l29.6,74.2
			c0.7,1.5,1.3,3,1.9,4.6c0.5,1.3,1,2.6,1.6,3.9l-9.6,54.7h22.6l9.5-53.7l63-83.8h-26.4L938.3,155.1z"/>
	</g>
	<g>
		<path class="st5" d="M577.1,499.8l-4.8-5.6c-4.4,3.2-9.8,5.9-16.4,8.1c-1.7-3-4-5.7-6.9-8.4l0.6-0.4h25.6v-17.3h-16.6
			c1.7-1.4,3.4-3,5.2-4.7v-4.7h-21.3c1-1,2-2.1,3-3l-0.1,0c0.7-0.7,1.3-1.4,1.7-1.8h-9.4l0,0c0,0,0,0,0,0h0
			c-6.4,6.2-13.9,11.1-22.6,14.5l0,0c0,0,0,0,0,0l4.6,5.6c1.1-0.5,2.2-1,3.3-1.6v13h16.7c-5.4,2.4-13,4.4-22.6,6l3.8,6.2
			c9.2-2.3,16.7-5.1,22.6-8.3c0.7,0.6,1.3,1.2,2,1.9c-6.7,4.1-15.9,7.4-27.7,10.1l3.6,6.2c11.4-3.1,20.5-7.1,27.5-11.9
			c0.6,0.8,1.1,1.8,1.5,2.9c-7.9,5.5-19,10-33.3,13.5l3.8,6.3c12.7-3.5,23.1-7.9,31.1-13.2c0,0.3,0.1,0.7,0.1,1.1
			c0,2.8-0.6,4.7-1.7,5.7c-1.3,0.9-2.9,1.4-4.8,1.6c-1.7,0.1-3.9,0.1-6.5,0.1l2.3,6.7c1.8,0,3.5-0.1,5.1-0.2c4.8-0.5,8.1-1.6,10-3.2
			c2.1-2,3.2-5.6,3.2-10.7c0-0.2-0.1-0.4-0.1-0.6c4.9,4.3,10.8,8.1,17.7,11.5l3.7-6.3c-7.9-3.3-14.5-7.2-19.9-11.6
			C566.9,505.2,572.4,502.7,577.1,499.8z M567.9,482.3v5.1h-15.4v-5.1H567.9z M545.2,487.4h-14.9v-5.1h14.9V487.4z M530.5,476.2
			c1.8-1.2,3.7-2.5,5.5-3.8h18.4c-1.7,1.4-3.4,2.7-5.1,3.8H530.5z"/>
		<path class="st5" d="M383.2,482l-0.8-0.4l0.1-0.1l3.9-5.9c-0.1,0-0.1-0.1-0.2-0.1c-2.1-1-4.2-1.9-6.5-2.8c2-1.9,3.7-3.7,5-5.3
			l-6.2-3.9c-0.7,1-1.6,2.2-2.8,3.6c-0.8,0.9-1.8,2-2.9,3.1c-0.4-0.1-0.8-0.2-1.2-0.4c-0.5-0.1-1-0.3-1.5-0.4
			c-0.1,0-0.2-0.1-0.3-0.1c-0.1-2.2-0.1-4.6-0.1-7.3h-41.4v0h-5.9h-1.4v7.3h1.4H362l0.2,0c0,2.3,0.2,4.4,0.5,6.4
			c0.5,3.9,1.4,7.2,2.7,9.7c0.1,0.2,0.2,0.4,0.3,0.6c0.9,1.7,2.1,3.2,3.4,4.5h-13.8v-15.2h-7.6v15.2h-8.1v-10.2l0-4.9h-7.1h-0.3
			h-11.4v7.3h11.4v7.8h-10h-1.4v7h1.4h9.8c-0.2,2.4-0.5,4.7-0.9,6.8c-1.6,8.1-5,14.4-10.2,18.8l0,0c0,0,0,0,0,0l6,5.3c0,0,0,0,0,0h0
			c0.8-0.7,1.6-1.5,2.3-2.3c6.1-6.7,9.5-16.2,10.3-28.5h8.2v30.5h7.6v-30.5h6.9c0.1,8.3,1.3,14.8,3.2,19.6
			c3.3,6.8,7.7,10.5,13.5,10.8c2.1-0.1,3.8-0.7,5.2-1.9c1.9-1.9,3.7-4.5,5.2-8l-7-3.9c-1.3,3.8-2.7,5.7-4.4,5.8
			c-2.7-0.6-4.8-3-6.4-7.1c-0.4-1.3-0.8-3-1.1-5.1c4.6,1.9,9.2,4.4,13.7,7.2l4.2-6.4c-2.6-1.5-5.3-2.9-8.1-4.2
			c2.7-2.3,4.9-4.5,6.6-6.5l-6-3.7c-1.4,1.9-3.8,4.5-7.1,7.4c-1.3-0.6-2.6-1-3.9-1.5c-0.1-2.7-0.2-5.7-0.2-9.1l0,0
			c0.2,0.2,0.5,0.4,0.8,0.6c2.1,1.6,4.6,2.5,7.6,2.7c1.3,0,2.5-0.3,3.5-0.6c0.8-0.3,1.6-0.7,2.3-1.2c2-1.5,3.8-3.7,5.4-6.5
			c0.1-0.2,0.2-0.4,0.3-0.6h0c0,0,0,0,0,0L383.2,482z M370.3,476.5c3.9,1.3,7.8,3,11.6,5c-1.5,3-3.2,4.6-5.1,4.7
			c-2.4-0.4-4.2-2.4-5.6-5.9c-0.4-0.8-0.7-1.9-0.9-3.2C370.4,476.8,370.4,476.7,370.3,476.5z"/>
		<path class="st5" d="M742.9,472.1h20.5l0.1,0v4.6h7.5v-5.6v-5V466h-24.6c0.4-1,0.8-2,1.2-3.1l-6.8-0.8c-1.8,5-5.1,9.1-10.1,12.4
			l4,5.3C738,477.5,740.7,474.9,742.9,472.1z"/>
		<path class="st5" d="M765.8,489.4c1.6,0.4,3.3,0.8,5.1,1.1l3-6.2c-7.4-0.8-13.7-3.5-18.8-8c0.3-0.9,0.6-1.8,0.9-2.7l-6.2-1.3
			c-1.7,6.4-7.2,10.3-16.6,12l2.7,4.2h-17.3v29.7h12c-4.8,1.8-11.4,3.3-19.8,4.6l3.3,5.7c9.8-1.7,17.3-3.9,22.5-6.6l-2.8-3.8h15.9
			l-2.2,4.3c8.2,1.4,16.1,3.4,23.6,6l2.4-5.9c-6.2-1.8-12.8-3.3-19.7-4.5h12V489.4z M758.6,512.5h-32.8v-3.1h32.8V512.5z
			 M758.6,504.7h-32.8v-2.8h32.8V504.7z M758.6,497.2h-32.8v-3h32.8V497.2z M740.7,488.7c5-1.6,8.8-4,11.5-7.4
			c3.3,3.3,7.1,5.7,11.3,7.4H740.7z"/>
		<rect x="710.9" y="478.8" class="st5" width="19.1" height="6.3"/>
		<rect x="901.9" y="489.9" class="st5" width="21.1" height="7"/>
		<path class="st5" d="M901.9,528.6h7.3h6.7h7.2v-27.5h-21.1V528.6z M909.2,508.3h6.7v13.3h-6.7V508.3z"/>
		<rect x="901.9" y="479.3" class="st5" width="21.1" height="6.9"/>
		<polygon class="st5" points="916.4,467.9 916.4,461.9 908.4,461.9 908.4,467.9 901.9,467.9 901.9,475.2 923.1,475.2 923.1,467.9 
			916.6,467.9 		"/>
		<path class="st5" d="M962.6,521.5c-1.7,0-3.1-1.4-3.1-3.1v-31.8v-24.8h-7.7h-24.7v7.6h7.9v20h-7.9v7.5h7.9v31.7h7.7V497h8.2h1v24
			c0,4.2,3.4,7.7,7.7,7.7h6.3v-7.1H962.6z M950.9,489.5h-8.2v-20h9.2v17.2v2.8H950.9z"/>
		<polygon class="st5" points="730,466.1 728.5,466.1 728.5,466.1 710.8,466.1 710.8,466.1 710.7,466.1 710.7,472.3 730,472.3 		"/>
	</g>
</g>
</svg>
