<?xml version="1.0" encoding="UTF-8"?>
<svg width="46px" height="43px" viewBox="0 0 46 43" version="1.1" xmlns="http://www.w3.org/2000/svg" xmlns:xlink="http://www.w3.org/1999/xlink">
    <title>04A24E57-A2EC-40BF-B734-1C162D6B1C76</title>
    <defs>
        <linearGradient x1="50%" y1="0%" x2="50%" y2="100%" id="linearGradient-1">
            <stop stop-color="#B03478" offset="0%"></stop>
            <stop stop-color="#9E79BB" offset="99.9918051%"></stop>
        </linearGradient>
        <linearGradient x1="50%" y1="0%" x2="50%" y2="100%" id="linearGradient-2">
            <stop stop-color="#B03478" offset="0%"></stop>
            <stop stop-color="#9E79BB" offset="99.9918051%"></stop>
        </linearGradient>
        <linearGradient x1="26.1022482%" y1="0%" x2="26.1022482%" y2="77.6488069%" id="linearGradient-3">
            <stop stop-color="#EAF9FF" stop-opacity="0.995001093" offset="0%"></stop>
            <stop stop-color="#FFFFFF" offset="99.9836101%"></stop>
        </linearGradient>
        <linearGradient x1="50%" y1="0%" x2="50%" y2="100%" id="linearGradient-4">
            <stop stop-color="#002F57" offset="0%"></stop>
            <stop stop-color="#0075D7" offset="99.9918051%"></stop>
        </linearGradient>
    </defs>
    <g id="High-fidelity" stroke="none" stroke-width="1" fill="none" fill-rule="evenodd">
        <g id="Digital-River---Terms---Landing" transform="translate(-380.000000, -876.000000)" fill-rule="nonzero">
            <g id="Benefits" transform="translate(-2.000000, 414.000000)">
                <g id="cards" transform="translate(340.000000, 40.000000)">
                    <g id="elements-/-card-/-icon+h3+p-copy-2" transform="translate(0.000000, 389.000000)">
                        <g id="icons-/-folder" transform="translate(42.000000, 33.000000)">
                            <g transform="translate(0.958333, 2.687500)">
                                <path d="M42.5750982,31.7986349 C42.0273132,31.7986349 41.5831002,31.3834292 41.5831002,30.8712586 L41.5831002,5.54016684 C41.5831002,4.64830246 41.1876688,3.78747874 40.4694645,3.11622468 C39.7946655,2.48543434 38.8306952,2.12366296 37.8247032,2.12366296 L5.68146244,2.12366296 C4.69274555,2.12366296 3.80305454,2.46684691 3.10845039,3.11622468 C2.4269311,3.75329707 2.06660347,4.59154242 2.06660347,5.54016684 L2.06660347,30.8712586 C2.06660347,31.3834292 1.62243,31.7986349 1.07464502,31.7986349 C0.526860059,31.7986349 0.0826470497,31.3834292 0.0826470497,30.8712586 L0.0826470497,5.54016684 C0.0826470497,4.10971024 0.659013133,2.78305505 1.70548522,1.80475724 C2.76480497,0.814449651 4.17678328,0.268910233 5.68146244,0.268910233 L37.8247427,0.268910233 C39.3531802,0.268910233 40.8284876,0.828787475 41.8724692,1.80475724 C42.965351,2.82629023 43.5670961,4.15290848 43.5670961,5.54016684 L43.5670961,30.8712586 C43.5670961,31.3834292 43.1230808,31.7986349 42.5750982,31.7986349 L42.5750982,31.7986349 Z" id="Path" fill="#002F57"></path>
                                <path d="M38.4413121,18.5066962 C37.9846467,18.5066962 37.6145549,18.1607038 37.6145549,17.7339318 L37.6145549,10.7177841 L32.614757,5.67844555 L7.23496273,5.67844555 C6.76813784,5.67844555 6.58914019,5.77906899 6.4651701,5.88785907 C6.16354642,6.15266538 6.03479303,6.32882106 6.03479303,6.47641196 L6.03479303,11.242482 C6.03479303,11.669254 5.66466164,12.0152463 5.20803581,12.0152463 C4.75137045,12.0152463 4.3812786,11.669254 4.3812786,11.242482 L4.3812786,6.47641196 C4.3812786,5.69710689 4.89012525,5.15042193 5.33334998,4.76119435 C5.97517986,4.19799132 6.72595796,4.13291682 7.23500226,4.13291682 L32.9755195,4.13291682 C33.2055915,4.13291682 33.4252668,4.22249126 33.5816526,4.38017037 L39.0474848,9.88907272 C39.1892834,10.0320075 39.2681484,10.2197296 39.2681484,10.4145835 L39.2681484,17.7339318 C39.2681484,18.1607038 38.8979775,18.5066962 38.4413121,18.5066962 Z" id="Path" fill="url(#linearGradient-1)"></path>
                                <path d="M34.9165844,11.5392963 C34.9159915,11.5392963 34.9154381,11.5392963 34.9148451,11.5392963 C34.217197,11.5392963 33.5676981,11.304422 33.0859303,10.8779087 C32.5889826,10.4380183 32.3136472,9.83243008 32.309615,9.17104251 L32.1495924,5.23826611 C32.1355983,4.91433476 32.3393425,4.61671405 32.6599807,4.49284708 C32.9802236,4.36927573 33.3495644,4.44551009 33.5842221,4.68422747 L39.0421876,10.2358847 C39.2639976,10.4614097 39.3223062,10.7879647 39.1909042,11.06855 C39.0596604,11.3491723 38.7634129,11.5307601 38.4358963,11.5315731 L34.9165844,11.5392963 L34.9165844,11.5392963 Z M33.8912616,7.28051914 L33.9624574,9.12799207 C33.9628527,9.13723035 33.9630504,9.14654254 33.9630504,9.15578082 C33.9630504,9.39775015 34.0528259,9.60516818 34.22285,9.75564139 C34.3959179,9.90888614 34.6413281,9.99347189 34.9135801,9.9937306 L36.5556305,9.99051564 L33.8912616,7.28051914 Z" id="Shape" fill="url(#linearGradient-2)"></path>
                                <path d="M13.3640903,11.5110199 L2.51777399,11.5110199 C2.11452273,11.5110199 1.74735922,11.6653705 1.44976077,11.9434468 C1.16957081,12.2052252 1.03127845,12.5786475 1.03127845,12.9830495 L1.03127845,33.3690701 C1.03127845,34.5733959 1.51552011,35.7293774 2.37627274,36.5340866 C3.28937133,37.3876045 4.4608118,37.8666392 5.68134385,37.8666392 L37.8246241,37.8666392 C39.0685316,37.8666392 40.2983286,37.3782604 41.2014312,36.534025 C42.100331,35.69378 42.618188,34.540783 42.618188,33.369144 L42.618188,20.6663863 C42.618188,19.977016 42.2992683,19.2928131 41.7556992,18.7845556 C41.2228126,18.2864225 40.4792501,18.0024327 39.7170656,18.0024327 L15.0063786,18.0024327 L15.0063786,12.9830495 C15.0063786,12.6006165 14.821576,12.2345366 14.5100409,11.9433189 C14.2176412,11.6699655 13.7880397,11.5110199 13.3640903,11.5110199 Z" id="Shape" stroke="url(#linearGradient-4)" stroke-width="1.97999999" fill="url(#linearGradient-3)"></path>
                            </g>
                        </g>
                    </g>
                </g>
            </g>
        </g>
    </g>
</svg>