<?xml version="1.0" encoding="UTF-8"?>
<svg width="117px" height="117px" viewBox="0 0 117 117" version="1.1" xmlns="http://www.w3.org/2000/svg" xmlns:xlink="http://www.w3.org/1999/xlink">
    <title>fraud</title>
    <g id="Symbols" stroke="none" stroke-width="1" fill="none" fill-rule="evenodd">
        <g id="icons-/-x-large-/-light-/-fraud" fill-rule="nonzero">
            <g id="fraud">
                <path d="M113.225806,98.1290323 L113.225806,32.0806452 C113.225806,26.8782288 108.992739,22.6451613 103.790323,22.6451613 L81.1451613,22.6451613 C81.1451613,10.1578881 70.9872732,0 58.5,0 C46.0127268,0 35.8548387,10.1578881 35.8548387,22.6451613 L13.2096774,22.6451613 C8.0072611,22.6451613 3.77419355,26.8782288 3.77419355,32.0806452 L3.77419355,98.1290323 L0,98.1290323 L0,107.564516 C0,112.766932 4.23306755,117 9.43548387,117 L107.564516,117 C112.766932,117 117,112.766932 117,107.564516 L117,98.1290323 L113.225806,98.1290323 Z M81.1451613,26.4193548 L103.790323,26.4193548 C106.91122,26.4193548 109.451613,28.9597482 109.451613,32.0806452 L109.451613,98.1290323 L105.677419,98.1290323 L105.677419,33.9677419 C105.677419,31.8862225 103.984745,30.1935484 101.903226,30.1935484 L81.1451613,30.1935484 L81.1451613,26.4193548 Z M81.1451613,33.9677419 L101.903226,33.9677419 L101.903226,98.1290323 L15.0967742,98.1290323 L15.0967742,33.9677419 L35.8548387,33.9677419 L35.8548387,47.7929372 L32.0806452,49.8246991 L32.0806452,51.3966656 C32.0806452,69.2789345 41.8616668,85.6518949 57.6052876,94.1300088 L58.5,94.6119188 L59.3947124,94.1300088 C75.1383332,85.6518949 84.9193548,69.2770917 84.9193548,51.3948226 L84.9193548,49.8228563 L58.5,35.5959158 L47.1774194,41.6939657 L47.1774194,33.9677419 L69.8225806,33.9677419 L69.8225806,37.7419355 L81.1451613,37.7419355 L81.1451613,33.9677419 Z M45.2903226,101.903226 L71.7096774,101.903226 L71.7096774,103.790323 C71.7096774,104.8297 70.8619582,105.677419 69.8225806,105.677419 L47.1774194,105.677419 C46.1380418,105.677419 45.2903226,104.8297 45.2903226,103.790323 L45.2903226,101.903226 Z M58.5,39.8861124 L81.1396326,52.0766837 C80.90006,67.9603626 72.2984738,82.473869 58.5,90.3106651 C44.7015262,82.473869 36.09994,67.9585197 35.8603674,52.074841 L58.5,39.8861124 Z M69.8225806,26.4193548 L69.8225806,30.1935484 L47.1774194,30.1935484 L47.1774194,26.4193548 L69.8225806,26.4193548 Z M47.1774194,22.6451613 C47.1774194,16.4006033 52.255442,11.3225806 58.5,11.3225806 C64.744558,11.3225806 69.8225806,16.4006033 69.8225806,22.6451613 L47.1774194,22.6451613 Z M58.5,3.77419355 C68.9057538,3.77419355 77.3709677,12.2394075 77.3709677,22.6451613 L77.3709677,33.9677419 L73.5967742,33.9677419 L73.5967742,22.6451613 C73.5967742,14.3209269 66.8242344,7.5483871 58.5,7.5483871 C50.1757656,7.5483871 43.4032258,14.3209269 43.4032258,22.6451613 L43.4032258,43.7275706 L39.6290323,45.760254 L39.6290323,22.6451613 C39.6290323,12.2394075 48.0942462,3.77419355 58.5,3.77419355 Z M7.5483871,32.0806452 C7.5483871,28.9597482 10.0887805,26.4193548 13.2096774,26.4193548 L35.8548387,26.4193548 L35.8548387,30.1935484 L15.0967742,30.1935484 C13.0152548,30.1935484 11.3225806,31.8862225 11.3225806,33.9677419 L11.3225806,98.1290323 L7.5483871,98.1290323 L7.5483871,32.0806452 Z M113.225806,107.564516 C113.225806,110.685413 110.685413,113.225806 107.564516,113.225806 L9.43548387,113.225806 C6.31458695,113.225806 3.77419355,110.685413 3.77419355,107.564516 L3.77419355,101.903226 L41.516129,101.903226 L41.516129,103.790323 C41.516129,106.91122 44.0565224,109.451613 47.1774194,109.451613 L69.8225806,109.451613 C72.9434776,109.451613 75.483871,106.91122 75.483871,103.790323 L75.483871,101.903226 L113.225806,101.903226 L113.225806,107.564516 Z" id="Shape" fill="#F1F4F9"></path>
                <path d="M54.7258065,64.1612903 L62.2741935,64.1612903 C64.3557129,64.1612903 66.0483871,65.8539645 66.0483871,67.9354839 C66.0483871,70.0170033 64.3557129,71.7096774 62.2741935,71.7096774 L54.7258065,71.7096774 C52.6442871,71.7096774 50.9516129,70.0170033 50.9516129,67.9354839 L47.1774194,67.9354839 C47.1774194,72.0985227 50.5627676,75.483871 54.7258065,75.483871 L56.6129032,75.483871 L56.6129032,79.2580645 L60.3870968,79.2580645 L60.3870968,75.483871 L62.2741935,75.483871 C66.4372324,75.483871 69.8225806,72.0985227 69.8225806,67.9354839 C69.8225806,63.7724451 66.4372324,60.3870968 62.2741935,60.3870968 L54.7258065,60.3870968 C52.6442871,60.3870968 50.9516129,58.6944226 50.9516129,56.6129032 C50.9516129,54.5313838 52.6442871,52.8387097 54.7258065,52.8387097 L62.2741935,52.8387097 C64.3557129,52.8387097 66.0483871,54.5313838 66.0483871,56.6129032 L69.8225806,56.6129032 C69.8225806,52.4498644 66.4372324,49.0645161 62.2741935,49.0645161 L60.3870968,49.0645161 L60.3870968,45.2903226 L56.6129032,45.2903226 L56.6129032,49.0645161 L54.7258065,49.0645161 C50.5627676,49.0645161 47.1774194,52.4498644 47.1774194,56.6129032 C47.1774194,60.775942 50.5627676,64.1612903 54.7258065,64.1612903 Z" id="Path" fill="#B03478"></path>
            </g>
        </g>
    </g>
</svg>