<?xml version="1.0" encoding="UTF-8"?>
<svg width="44px" height="44px" viewBox="0 0 44 44" version="1.1" xmlns="http://www.w3.org/2000/svg" xmlns:xlink="http://www.w3.org/1999/xlink">
    <title>fraud</title>
    <defs>
        <linearGradient x1="50%" y1="0%" x2="50%" y2="100%" id="linearGradient-1">
            <stop stop-color="#005E91" offset="0%"></stop>
            <stop stop-color="#003058" offset="100%"></stop>
        </linearGradient>
        <linearGradient x1="50%" y1="0%" x2="50%" y2="100%" id="linearGradient-2">
            <stop stop-color="#005E91" offset="0%"></stop>
            <stop stop-color="#003058" offset="100%"></stop>
        </linearGradient>
        <linearGradient x1="50%" y1="0%" x2="50%" y2="100%" id="linearGradient-3">
            <stop stop-color="#005E91" offset="0%"></stop>
            <stop stop-color="#003058" offset="100%"></stop>
        </linearGradient>
        <linearGradient x1="50%" y1="0%" x2="50%" y2="100%" id="linearGradient-4">
            <stop stop-color="#005E91" offset="0%"></stop>
            <stop stop-color="#003058" offset="100%"></stop>
        </linearGradient>
    </defs>
    <g id="â¹ï¸-Product-Wireframe" stroke="none" stroke-width="1" fill="none" fill-rule="evenodd">
        <g id="sections-/-Fraud-Copy" transform="translate(-573.000000, -59.000000)" fill-rule="nonzero">
            <g id="fraud" transform="translate(573.000000, 59.000000)">
                <path d="M19.0010657,37.8316163 C22.7675578,37.8362026 26.4486765,36.7098674 29.5677272,34.5984682 L37.6011254,42.6049478 C38.5504406,43.5643753 39.9577739,43.9100646 41.2435677,43.4996563 C42.5293614,43.0892481 43.4761751,41.9921465 43.6940989,40.6601519 C43.9120227,39.3281573 43.3642034,37.986523 42.2762401,37.1877513 L33.670275,30.8414977 C39.2400831,23.9806432 39.3142195,14.1766824 33.8488044,7.23238072 C28.3833894,0.28807909 18.8365761,-1.94384838 10.8589297,1.85763091 C2.88128326,5.65911019 -1.3987886,14.4797751 0.552001784,23.098853 C2.50279217,31.7179309 10.1639809,37.8358825 19.0010657,37.8316163 Z M41.4148433,38.3605314 C41.9146061,38.7267669 42.2291438,39.2933013 42.2757333,39.9111368 C42.3223228,40.5289723 42.0963009,41.136269 41.6571112,41.5733087 C40.8069977,42.3771756 39.4770577,42.3771756 38.6269442,41.5733087 L30.7506927,33.7239758 C31.4417574,33.174333 32.0941951,32.5778046 32.7033861,31.9386146 L41.4148433,38.3605314 Z M19.0010657,1.45506217 C28.6443695,1.45506217 36.4618117,9.27250443 36.4618117,18.9158082 C36.4618117,28.5591119 28.6443695,36.3765542 19.0010657,36.3765542 C9.35776198,36.3765542 1.54031972,28.5591119 1.54031972,18.9158082 C1.55154517,9.277158 9.36241555,1.46628763 19.0010657,1.45506217 Z" id="Shape" fill="url(#linearGradient-1)"></path>
                <path d="M8.81562339,11.6754188 L8.81562339,22.7135204 C8.81562339,25.1239799 10.1389907,27.339834 12.2612178,28.4828419 L18.656216,31.9247915 C18.8715096,32.0406873 19.1306218,32.0406873 19.3459155,31.9247915 L25.7423687,28.4821144 C27.863918,27.3389626 29.186508,25.1234514 29.186508,22.7135204 L29.186508,11.6754188 C29.189359,10.5518201 28.336292,9.61079832 27.2178018,9.50373854 C25.5488455,9.33858899 22.4466529,8.80312611 20.3921052,7.05705151 C19.5903921,6.37360445 18.4110118,6.37360445 17.6092988,7.05705151 C15.5554785,8.80312611 12.4518309,9.33858899 10.7843297,9.50373854 C9.66583939,9.61079832 8.81277242,10.5518201 8.81562339,11.6754188 Z M18.550724,8.16726394 C18.8113736,7.95000718 19.1900303,7.95000718 19.4506799,8.16726394 C21.8064256,10.1665194 25.2381897,10.7703702 27.0744782,10.9522529 C27.4459631,10.9895884 27.7288874,11.3020626 27.7292561,11.6754188 L27.7292561,22.7135204 C27.7292561,24.5885978 26.6997657,26.3122822 25.0490316,27.2016597 L19.0010657,30.4573613 L12.9523723,27.2023872 C11.3009603,26.3131536 10.2710148,24.5891264 10.2706927,22.7135204 L10.2706927,11.6754188 C10.2710614,11.3020626 10.5539857,10.9895884 10.9254707,10.9522529 C12.7639417,10.76746 16.1957059,10.1665194 18.550724,8.16726394 Z" id="Shape" fill="url(#linearGradient-2)"></path>
                <path d="M13.6398892,25.9197499 L13.6398892,25.9197499 L18.3113663,28.4340973 C18.7415692,28.6653672 19.2591072,28.6653672 19.6893101,28.4340973 L24.3571496,25.921205 C25.5385378,25.2867369 26.2758115,24.0545006 26.2763766,22.7135204 L26.2763766,13.5691822 C26.2741797,12.8657807 25.7707937,12.2639194 25.0788604,12.1374011 C23.2034233,11.8230879 21.4026057,11.1634459 19.7678835,10.1919829 C19.2965762,9.8979943 18.6990074,9.8979943 18.2277002,10.1919829 C16.5943311,11.1629878 14.7950297,11.8226165 12.9210885,12.1374011 C12.2300225,12.2648471 11.7277566,12.8664656 11.7257538,13.5691822 L11.7257538,22.7135204 C11.7247269,24.0531958 12.460127,25.2850119 13.6398892,25.9197499 Z M13.1910025,13.5677272 C15.2430254,13.2187427 17.2128276,12.4933247 19.0010657,11.4280583 C20.7916149,12.4964578 22.765259,13.2225122 24.8213144,13.5691822 L24.8213144,22.7135204 C24.8210144,23.5192234 24.3780212,24.2595949 23.6681776,24.6407503 L19.0010657,27.1529151 L14.3303162,24.6392952 C13.6214203,24.2583786 13.1796507,23.5182747 13.1808147,22.7135204 L13.1910025,13.5677272 Z" id="Shape" fill="url(#linearGradient-3)"></path>
                <path d="M19.0010657,19.6433393 C19.3540425,19.6436834 19.6558487,19.8973469 19.7169167,20.2450011 C19.7779846,20.5926552 19.5806938,20.9339888 19.2489648,21.0546063 C18.9172359,21.1752239 18.5467849,21.0403228 18.3702963,20.7346359 C18.1633955,20.4002029 17.7281853,20.2907182 17.3876639,20.4874377 C17.0471425,20.6841572 16.9245808,21.115867 17.11094,21.462167 C17.3747123,21.9053307 17.7872149,22.2404891 18.2749897,22.4079574 L18.2749897,22.5534636 C18.2749897,22.9552679 18.6007165,23.2809947 19.0025208,23.2809947 C19.4043251,23.2809947 19.7300519,22.9552679 19.7300519,22.5534636 L19.7300519,22.4195979 C20.7317973,22.0667647 21.3328627,21.0427168 21.1525428,19.9960699 C20.972223,18.9494229 20.0631287,18.1855504 19.0010657,18.1882771 C18.648089,18.187933 18.3462827,17.9342694 18.2852148,17.5866153 C18.2241469,17.2389611 18.4214376,16.8976276 18.7531666,16.77701 C19.0848956,16.6563925 19.4553465,16.7912936 19.6318352,17.0969805 C19.838736,17.4314135 20.2739461,17.5408981 20.6144675,17.3441787 C20.9549889,17.1474592 21.0775506,16.7157493 20.8911915,16.3694494 C20.6277795,15.9265524 20.2158317,15.5914259 19.7285968,15.423659 L19.7285968,15.2781528 C19.7285968,14.8763484 19.40287,14.5506217 19.0010657,14.5506217 C18.5992614,14.5506217 18.2735346,14.8763484 18.2735346,15.2781528 L18.2735346,15.4120185 C17.2720536,15.7647636 16.6710065,16.7883939 16.8509296,17.8348265 C17.0308527,18.8812591 17.9392798,19.6453512 19.0010657,19.6433393 L19.0010657,19.6433393 Z" id="Path" fill="#B03478"></path>
                <path d="M19.0010657,34.9214929 C27.8407607,34.9214929 35.0067493,27.7555032 35.0067493,18.9158082 C35.0067493,10.0761132 27.8407607,2.91012433 19.0010657,2.91012433 C18.5992614,2.91012433 18.2735346,3.23585109 18.2735346,3.63765542 C18.2735346,4.03945974 18.5992614,4.3651865 19.0010657,4.3651865 C26.6048545,4.3682744 32.9231951,10.2274067 33.4989324,17.8093682 C34.0746697,25.3913297 28.7135029,32.137347 21.1973668,33.2885685 C13.6812306,34.43979 6.54668368,29.6076995 4.82665848,22.2010048 C3.10663327,14.7943101 7.38160689,7.31263516 14.6358792,5.03378757 C15.0192005,4.91324626 15.2322258,4.50478491 15.1116845,4.12146359 C14.9911432,3.73814227 14.5826819,3.52511697 14.1993606,3.64565826 C6.65869698,6.01414947 1.97591899,13.5323185 3.17533029,21.3446658 C4.37474159,29.1570131 11.0971837,34.9241655 19.0010657,34.9214929 Z" id="Path" fill="url(#linearGradient-4)"></path>
            </g>
        </g>
    </g>
</svg>