<?xml version="1.0" encoding="UTF-8"?>
<svg width="1920px" height="1080px" viewBox="0 0 1920 1080" version="1.1" xmlns="http://www.w3.org/2000/svg" xmlns:xlink="http://www.w3.org/1999/xlink">
    <!-- Generator: Sketch 61 (89581) - https://sketch.com -->
    <title>GENAlpha</title>
    <desc>Created with Sketch.</desc>
    <g id="GENAlpha" stroke="none" stroke-width="1" fill="none" fill-rule="evenodd">
        <g id="GenAlphaLogo-01" transform="translate(1.000000, 341.000000)" fill-rule="nonzero">
            <path d="M582.322056,107.590228 C570.767285,97.3266022 555.858361,91.6715339 540.422251,91.6973142 C506.428757,91.6973142 484.167209,111.207237 484.167209,150.409758 C484.167209,175.984563 498.230969,208.099211 540.422251,208.099211 C554.218155,208.631068 567.74474,204.170245 578.532856,195.531021 L578.532856,166.814169 L535.83149,166.814169 L535.83149,133.493852 L613,133.493852 L613,211.679683 C597.661028,233.600944 573.140534,245 540.130774,245 C471.087183,245 445,197.065509 445,150.409758 C445,99.9177871 474.694209,55.0522728 540.385817,55.0522728 C565.559217,54.1791215 589.876397,64.279356 607.061158,82.7461326 L582.322056,107.590228 Z" id="Path" fill="#000000"></path>
            <polygon id="Path" fill="#000000" points="784 239 647 239 647 60 780.373529 60 780.373529 96.4413681 686.30508 96.4413681 686.30508 130.951344 774.98877 130.951344 774.98877 165.971498 686.30508 165.971498 686.30508 202.048453 784 202.048453"></polygon>
            <polygon id="Path" fill="#000000" points="941.014841 176.357288 938.433326 120.091816 938.433326 60 979 60 979 239 944.333933 239 854.349674 124.428339 855.898583 183.281148 855.898583 239 815 239 815 60 849.702946 60"></polygon>
            <path d="M1145.54795,201.392508 L1048.30594,201.392508 L1031.50228,239 L1001,239 L1081.3653,60 L1112.6347,60 L1193,239 L1162.46119,239 L1145.54795,201.392508 Z M1097.10959,90.10057 L1059.26484,175.33693 L1135.13699,175.33693 L1097.10959,90.10057 Z" id="Shape" fill="#828282"></path>
            <polygon id="Path" fill="#828282" points="1246.85003 60 1246.85003 212.397801 1342 212.397801 1342 239 1218 239 1218 60"></polygon>
            <path d="M1397.83777,184.088229 L1397.83777,239 L1369,239 L1369,60.2547266 C1396.51696,60.2547266 1424.87777,60 1452.43142,60 C1538.3944,60 1538.65122,183.724334 1452.43142,184.088229 L1397.83777,184.088229 Z M1397.83777,157.778614 L1452.43142,157.778614 C1500.12748,157.778614 1499.79728,86.3096158 1452.43142,86.3096158 L1397.83777,86.3096158 L1397.83777,157.778614 Z" id="Shape" fill="#828282"></path>
            <polygon id="Path" fill="#828282" points="1670.41354 239 1670.41354 164.586726 1574.8804 164.586726 1574.8804 239 1546 239 1546 60 1574.8804 60 1574.8804 137.984528 1670.41354 137.984528 1670.41354 60 1699 60 1699 239"></polygon>
            <path d="M1868.37436,201.392508 L1771.26041,201.392508 L1754.49648,239 L1724,239 L1804.35001,60 L1835.64999,60 L1916,239 L1885.54004,239 L1868.37436,201.392508 Z M1819.94522,90.10057 L1782.03462,175.33693 L1857.85581,175.33693 L1819.94522,90.10057 Z" id="Shape" fill="#828282"></path>
            <polygon id="Path" fill="#0D71BA" points="497 344 456 344 456 289 496.776364 289 496.776364 297.56951 464.870909 297.56951 464.870909 312.344527 495.509091 312.344527 495.509091 320.507723 464.870909 320.507723 464.870909 335.28274 497 335.28274"></polygon>
            <path d="M552,336.848057 C546.559607,342.207552 539.225627,345.141232 531.633836,344.994768 C511.923469,344.994768 503.106632,331.24489 503.033766,316.831479 C502.65041,309.057474 505.54545,301.484022 510.999055,295.994208 C516.452659,290.504395 523.952515,287.613935 531.633836,288.04152 C539.088864,288.012247 546.243097,291.013949 551.489935,296.372546 L545.660621,302.012576 C541.894577,298.347884 536.858715,296.323014 531.633836,296.372546 C526.219434,296.078622 520.938477,298.137027 517.118352,302.030372 C513.298227,305.923718 511.302208,311.281766 511.632003,316.757753 C511.325893,322.191456 513.343895,327.495969 517.171802,331.319643 C520.999708,335.143317 526.267847,337.116888 531.633836,336.737468 C537.064891,336.727536 542.283653,334.602208 546.20712,330.802535 L552,336.848057 Z" id="Path" fill="#0D71BA"></path>
            <path d="M612,316.671479 C612,331.387594 603.193573,345 584.534053,345 C565.874533,345 557.032014,331.130062 557.032014,316.74506 C556.666552,309.113011 559.443147,301.671913 564.69204,296.216681 C569.940933,290.761449 577.185568,287.787372 584.678421,288.011846 C603.013113,288.085427 612,301.881784 612,316.671479 Z M584.534053,336.942927 C597.888061,336.942927 603.482308,327.303872 603.482308,316.818641 C603.482308,306.333409 597.815878,296.21608 584.678421,295.995339 C572.22671,295.995339 565.549706,304.825007 565.549706,316.818641 C565.694074,326.531276 571.252228,336.942927 584.534053,336.942927 L584.534053,336.942927 Z" id="Shape" fill="#0D71BA"></path>
            <polygon id="Path" fill="#0D71BA" points="671.156454 301.817327 652.354628 327.673606 650.459583 327.673606 631.880704 301.817327 631.880704 344 623 344 623 289 633.292699 289 651.537158 314.856279 669.744459 289 680 289 680 344 671.156454 344"></polygon>
            <polygon id="Path" fill="#0D71BA" points="742.156454 301.817327 723.317471 327.673606 721.422425 327.673606 702.843546 301.817327 702.843546 344 694 344 694 289 704.292699 289 722.537158 314.856279 740.707301 289 751 289 751 344 742.156454 344"></polygon>
            <polygon id="Path" fill="#0D71BA" points="803.962761 344 763 344 763 289 803.739328 289 803.739328 297.56951 771.900091 297.56951 771.900091 312.344527 802.473206 312.344527 802.473206 320.507723 771.900091 320.507723 771.900091 335.28274 804 335.28274"></polygon>
            <path d="M862,344 L851.795331,344 L835.226459,325.015416 L823.705058,325.015416 L823.705058,344 L815,344 L815,289 C823.485603,289 831.861479,289 840.347082,289 C852.965759,289 859.585992,297.699732 859.585992,306.952413 C860.09495,315.701203 853.616474,323.275285 844.955642,324.056971 L861.085603,342.414879 L862,344 Z M823.705058,297.10992 L823.705058,317.163539 L840.27393,317.163539 C843.000254,317.479741 845.726967,316.57459 847.733214,314.68738 C849.73946,312.80017 850.823247,310.120909 850.698054,307.357909 C850.797831,304.590768 849.727751,301.910948 847.753927,299.98488 C845.780104,298.058812 843.087993,297.067465 840.347082,297.257373 L823.705058,297.10992 Z" id="Shape" fill="#0D71BA"></path>
            <path d="M917,336.847705 C911.552467,342.212815 904.210512,345.1466 896.612561,344.994357 C876.953245,344.994357 868.106553,331.244578 868.033741,316.831271 C867.65067,309.057322 870.543559,301.483924 875.993112,295.994151 C881.442664,290.504377 888.936948,287.613937 896.612561,288.04152 C904.06205,288.012247 911.210968,291.013927 916.453908,296.372485 L910.628925,302.012475 C906.869992,298.341033 901.835016,296.315028 896.612561,296.372485 C891.202182,296.078564 885.925149,298.136954 882.107862,302.030271 C878.290575,305.923588 876.29604,311.281598 876.62559,316.757546 C876.319707,322.19121 878.33621,327.495685 882.161273,331.319331 C885.986335,335.142977 891.250559,337.116534 896.612561,336.737117 C902.041775,336.73863 907.260714,334.611665 911.175017,330.802226 L917,336.847705 Z" id="Path" fill="#0D71BA"></path>
            <polygon id="Path" fill="#0D71BA" points="966 344 925 344 925 289 965.776364 289 965.776364 297.56951 933.908182 297.56951 933.908182 312.344527 964.509091 312.344527 964.509091 320.507723 933.908182 320.507723 933.908182 335.28274 966 335.28274"></polygon>
            <polygon id="Path" fill="#0D71BA" points="1004 344 1004 289 1043 289 1043 297.581036 1012.85185 297.581036 1012.85185 314.336247 1041.51852 314.336247 1041.51852 322.510424 1012.85185 322.510424 1012.85185 344"></polygon>
            <path d="M1106,316.671479 C1106,331.387594 1097.16328,345 1078.516,345 C1059.86871,345 1051.03199,331.130062 1051.03199,316.74506 C1050.66677,309.113011 1053.44155,301.671913 1058.687,296.216681 C1063.93245,290.761449 1071.17233,287.787372 1078.66027,288.011846 C1097.01901,288.085427 1106,301.881784 1106,316.671479 Z M1078.516,336.942927 C1091.86125,336.942927 1097.48789,327.303872 1097.48789,316.818641 C1097.48789,306.333409 1091.78911,296.21608 1078.66027,295.995339 C1066.25279,295.995339 1059.58017,304.825007 1059.58017,316.818641 C1059.61624,326.531276 1065.24288,336.942927 1078.516,336.942927 L1078.516,336.942927 Z" id="Shape" fill="#0D71BA"></path>
            <path d="M1164,344 L1153.79533,344 L1137.22646,325.015416 L1125.70506,325.015416 L1125.70506,344 L1117,344 L1117,289 C1125.4856,289 1133.89805,289 1142.34708,289 C1154.96576,289 1161.58599,297.699732 1161.58599,306.952413 C1162.09495,315.701203 1155.61647,323.275285 1146.95564,324.056971 L1163.19533,342.30429 L1164,344 Z M1125.70506,297.10992 L1125.70506,317.163539 L1142.27393,317.163539 C1145.00025,317.479741 1147.72697,316.57459 1149.73321,314.68738 C1151.73946,312.80017 1152.82325,310.120909 1152.69805,307.357909 C1152.79783,304.590768 1151.72775,301.910948 1149.75393,299.98488 C1147.7801,298.058812 1145.08799,297.067465 1142.34708,297.257373 L1125.70506,297.10992 Z" id="Shape" fill="#0D71BA"></path>
            <polygon id="Path" fill="#0D71BA" points="1247.15645 301.817327 1228.31747 327.673606 1226.42243 327.673606 1207.84355 301.817327 1207.84355 344 1199 344 1199 289 1209.25554 289 1227.53716 314.856279 1245.7073 289 1256 289 1256 344 1247.15645 344"></polygon>
            <path d="M1307.60902,332.438549 L1278.3183,332.438549 L1273.19424,344 L1264,344 L1288.27569,289 L1297.72431,289 L1322,344 L1312.80576,344 L1307.60902,332.438549 Z M1293.07268,298.271323 L1281.55263,324.496978 L1304.37469,324.496978 L1293.07268,298.271323 Z" id="Shape" fill="#0D71BA"></path>
            <polygon id="Path" fill="#0D71BA" points="1366.35229 328.190732 1366.35229 289 1375 289 1375 344 1368.42338 344 1337.75671 305.178643 1337.75671 344 1329 344 1329 289 1335.64929 289"></polygon>
            <path d="M1435,289 L1435,320.57441 C1435,336.470492 1424.47427,344.418534 1411.36263,343.983024 C1399.30721,343.656393 1389,335.926106 1389,320.57441 L1389,289 L1397.59541,289 L1397.59541,320.57441 C1397.59541,330.373365 1403.31354,335.708351 1411.36263,336.034983 C1420.0673,336.470492 1426.40459,330.845166 1426.40459,320.57441 L1426.40459,289 L1435,289 Z" id="Path" fill="#0D71BA"></path>
            <polygon id="Path" fill="#0D71BA" points="1448 344 1448 289 1487 289 1487 297.581036 1456.81481 297.581036 1456.81481 314.336247 1485.48148 314.336247 1485.48148 322.510424 1456.81481 322.510424 1456.81481 344"></polygon>
            <path d="M1530.5,332.438549 L1501.5,332.438549 L1496.38875,344 L1487,344 L1511.215,289 L1520.64,289 L1545,344 L1535.82875,344 L1530.5,332.438549 Z M1516,298.271323 L1504.545,324.496978 L1527.3825,324.496978 L1516,298.271323 Z" id="Shape" fill="#0D71BA"></path>
            <path d="M1597,336.847705 C1591.55247,342.212815 1584.21051,345.1466 1576.61256,344.994357 C1556.95325,344.994357 1548.10655,331.244578 1548.03374,316.831271 C1547.65067,309.057322 1550.54356,301.483924 1555.99311,295.994151 C1561.44266,290.504377 1568.93695,287.613937 1576.61256,288.04152 C1584.06205,288.012247 1591.21097,291.013927 1596.45391,296.372485 L1590.62893,302.012475 C1586.86999,298.341033 1581.83502,296.315028 1576.61256,296.372485 C1571.2051,296.07748 1565.93096,298.136844 1562.11919,302.031629 C1558.30742,305.926414 1556.32154,311.285179 1556.662,316.757546 C1556.34514,322.187657 1558.35297,327.492957 1562.17255,331.318091 C1565.99213,335.143225 1571.25351,337.117709 1576.61256,336.737117 C1582.04178,336.73863 1587.26071,334.611665 1591.17502,330.802226 L1597,336.847705 Z" id="Path" fill="#0D71BA"></path>
            <polygon id="Path" fill="#0D71BA" points="1617.71569 296.904634 1600 296.904634 1600 289 1644 289 1644 296.904634 1626.39277 296.904634 1626.39277 344 1617.71569 344"></polygon>
            <path d="M1699,289 L1699,320.57441 C1699,336.470492 1688.48259,344.418534 1675.38133,343.983024 C1663.29905,343.656393 1653,335.926106 1653,320.57441 L1653,289 L1661.625,289 L1661.625,320.57441 C1661.625,330.373365 1667.33861,335.708351 1675.38133,336.034983 C1684.07911,336.470492 1690.41139,330.845166 1690.41139,320.57441 L1690.41139,289 L1699,289 Z" id="Path" fill="#0D71BA"></path>
            <path d="M1759,344 L1748.83191,344 L1732.26304,325.015416 L1720.74163,325.015416 L1720.74163,344 L1712,344 L1712,289 C1720.4856,289 1728.89805,289 1737.38366,289 C1750.00233,289 1756.62257,297.699732 1756.62257,306.952413 C1757.12703,315.7671 1750.54323,323.369287 1741.80934,324.056971 L1758.0856,342.30429 L1759,344 Z M1720.74163,297.10992 L1720.74163,317.163539 L1737.31051,317.163539 C1740.03683,317.479741 1742.76354,316.57459 1744.76979,314.68738 C1746.77604,312.80017 1747.85982,310.120909 1747.73463,307.357909 C1747.83441,304.590768 1746.76433,301.910948 1744.7905,299.98488 C1742.81668,298.058812 1740.12457,297.067465 1737.38366,297.257373 L1720.74163,297.10992 Z" id="Shape" fill="#0D71BA"></path>
            <polygon id="Path" fill="#0D71BA" points="1809 344 1768 344 1768 289 1808.77636 289 1808.77636 297.56951 1776.90818 297.56951 1776.90818 312.344527 1807.50909 312.344527 1807.50909 320.507723 1776.90818 320.507723 1776.90818 335.28274 1809 335.28274"></polygon>
            <path d="M1868,344 L1857.79533,344 L1841.22646,325.015416 L1829.70506,325.015416 L1829.70506,344 L1821,344 L1821,289 C1829.44903,289 1837.86148,289 1846.34708,289 C1858.96576,289 1865.58599,297.699732 1865.58599,306.952413 C1866.09045,315.7671 1859.50665,323.369287 1850.77276,324.056971 L1867.04903,342.30429 L1868,344 Z M1829.70506,297.10992 L1829.70506,317.163539 L1846.27393,317.163539 C1849.00025,317.479741 1851.72697,316.57459 1853.73321,314.68738 C1855.73946,312.80017 1856.82325,310.120909 1856.69805,307.357909 C1856.79783,304.590768 1855.72775,301.910948 1853.75393,299.98488 C1851.7801,298.058812 1849.08799,297.067465 1846.34708,297.257373 L1829.70506,297.10992 Z" id="Shape" fill="#0D71BA"></path>
            <path d="M1908.85851,301.446154 C1905.5844,297.425462 1900.62408,295.156505 1895.43879,295.307692 C1888.1256,295.307692 1882.82353,298.340385 1882.82353,303.565385 C1882.82353,308.790385 1888.89348,310.325 1896.06041,311.348077 C1907.2496,312.882692 1918,315.988462 1918,328.192308 C1918,340.396154 1906.77424,345 1895.43879,345 C1884.98092,345 1877.1558,341.821154 1872,332.65 L1878.54531,328.301923 C1882.15632,334.136982 1888.65432,337.551461 1895.51192,337.217308 C1902.05723,337.217308 1909.26073,335.061538 1909.26073,328.192308 C1909.26073,322.309615 1902.97138,320.263462 1895.36566,319.276923 C1884.39587,317.778846 1874.26709,315.075 1874.26709,303.419231 C1874.26709,291.763462 1885.38315,288 1895.18283,288 C1903.04452,288 1910.9062,289.863462 1915.51351,297.171154 L1908.85851,301.446154 Z" id="Path" fill="#0D71BA"></path>
            <path d="M166.907495,397.890126 L149.769999,347.12837 C142.97783,344.899583 136.34651,342.207458 129.922728,339.070949 L82.0988601,363.169964 L35.62988,317.059538 L59.3587209,269.227754 C56.1656967,262.830453 53.4129076,256.222666 51.11954,249.450446 L0,232.60311 L0,167.044999 L50.7899728,149.904666 C53.0058479,143.106781 55.6978766,136.473503 58.8460607,130.054109 L34.751034,82.2223245 L80.8172097,35.745652 L128.934026,59.5150456 C135.328499,56.3176265 141.935462,53.5642696 148.70806,51.2745008 L165.442752,0 L230.80692,0 L247.981035,50.7617558 C254.758565,53.0124665 261.377055,55.7165854 267.791688,58.855802 L315.688792,34.8300359 L362.194391,81.0137112 L313.16211,177.666145 L295.62181,146.31545 L325.795521,86.8004049 L309.903057,71.0151836 L267.315646,92.6237232 L260.394734,88.7048864 C251.528527,83.7927754 242.113396,79.9449634 232.344901,77.241373 L224.728236,75.1171436 L209.494906,29.9223337 L186.937859,29.9223337 L172.034097,75.3735161 L164.417432,77.5343701 C154.665162,80.2820264 145.283018,84.2052235 136.477454,89.2176314 L129.59316,93.1730928 L86.8226571,71.9674243 L71.0034298,87.9723935 L92.3154444,130.530229 L88.6535862,137.379037 C83.7348399,146.238768 79.8989806,155.657853 77.2285887,165.433514 L75.104711,173.088065 L29.8075255,188.43379 L29.8075255,210.921321 L75.2511853,225.827551 L77.4116816,233.482102 C80.1601989,243.247174 84.0826082,252.642838 89.0930092,261.463329 L93.0111974,268.312138 L71.8456572,311.053097 L87.8479774,326.911567 L130.398769,305.412901 L137.319681,309.295114 C146.160488,314.224238 155.567087,318.061289 165.332896,320.722002 L172.98618,322.809607 L188.292747,368.114291 L210.776556,368.114291 L225.680319,322.663108 L233.296984,320.502255 C243.06175,317.757046 252.456304,313.833801 261.27358,308.818993 L268.084636,304.863532 L310.818521,326.032576 L326.674367,310.064231 L308.767881,274.574952 L244.831837,159.976442 C236.263089,145.033588 214.731363,136.939542 198.80228,136.939542 C172.129915,136.915581 148.42443,153.937553 139.918679,179.221528 C131.412927,204.505503 140.008932,232.397578 161.270856,248.504473 C182.53278,264.611367 211.706116,265.331321 233.736407,250.292813 L215.427116,216.708015 L170.422879,216.708015 L170.422879,186.968805 L233.296984,186.968805 L271.123979,256.555627 L263.104509,264.429925 C233.563195,293.525342 188.194341,299.216836 152.38358,278.319797 C116.572819,257.422758 99.2014307,215.119774 109.98938,175.081004 C120.777329,135.042234 157.049141,107.19753 198.509331,107.127082 C222.933925,107.127082 255.780793,119.10334 270.757793,145.326585 L335.133259,260.584338 L363,315.8143 L316.897206,362.290973 L268.890245,338.484954 C262.504013,341.70035 255.895769,344.45424 249.116211,346.725499 L232.344901,398 L166.907495,397.890126 Z" id="Path" fill="#0D71BA"></path>
        </g>
    </g>
</svg>