<?xml version="1.0" encoding="UTF-8"?>
<svg width="44px" height="44px" viewBox="0 0 44 44" version="1.1" xmlns="http://www.w3.org/2000/svg" xmlns:xlink="http://www.w3.org/1999/xlink">
    <title>geo-location</title>
    <defs>
        <linearGradient x1="50%" y1="0%" x2="50%" y2="100%" id="linearGradient-1">
            <stop stop-color="#005E91" offset="0%"></stop>
            <stop stop-color="#003058" offset="100%"></stop>
        </linearGradient>
        <linearGradient x1="50%" y1="0%" x2="50%" y2="100%" id="linearGradient-2">
            <stop stop-color="#005E91" offset="0%"></stop>
            <stop stop-color="#003058" offset="100%"></stop>
        </linearGradient>
        <linearGradient x1="50%" y1="0%" x2="50%" y2="100%" id="linearGradient-3">
            <stop stop-color="#005E91" offset="0%"></stop>
            <stop stop-color="#003058" offset="100%"></stop>
        </linearGradient>
    </defs>
    <g id="⏹️-Product-Wireframe" stroke="none" stroke-width="1" fill="none" fill-rule="evenodd">
        <g id="sections-/-Fraud-Copy" transform="translate(-193.000000, -376.000000)" fill-rule="nonzero">
            <g id="geo-location" transform="translate(193.000000, 376.000000)">
                <path d="M12.3886039,21.7089591 C12.3886039,19.5460406 10.6352453,17.7925684 8.47232681,17.7925684 C6.30940831,17.7925684 4.55594795,19.5458133 4.55582239,21.7087318 C4.55569683,23.8716503 6.30895362,25.6251616 8.47187211,25.6253499 C10.633722,25.6225322 12.385598,23.8708088 12.3886039,21.7089591 L12.3886039,21.7089591 Z M8.47187211,24.4317442 C6.96816384,24.4315559 5.74930252,23.2124401 5.74942807,21.7087318 C5.74955363,20.2050235 6.96861853,18.9861113 8.47232681,18.9861741 C9.97603509,18.9862369 11.1949982,20.2052509 11.1949982,21.7089591 C11.193494,23.2122215 9.9751346,24.4304283 8.47187211,24.4317442 L8.47187211,24.4317442 Z" id="Shape" fill="url(#linearGradient-1)"></path>
                <path d="M8.47221314,37.5498117 C8.67795145,37.5498117 8.86920187,37.4439138 8.97830195,37.2694849 C9.08777265,37.0941954 11.6260604,33.0110409 12.7835169,28.9667638 C16.0530394,27.0252645 17.6215158,23.1378892 16.6148491,19.471035 C15.6081825,15.8041809 12.2747383,13.2625368 8.47221314,13.2625368 C4.66968802,13.2625368 1.33624384,15.8041809 0.329577152,19.471035 C-0.677089531,23.1378892 0.891386852,27.0252645 4.16090941,28.9667638 C5.32007105,33.0117229 7.85699467,37.0945364 7.96646536,37.2694849 C8.07540848,37.4439086 8.26656241,37.5498117 8.47221314,37.5498117 L8.47221314,37.5498117 Z M4.95960213,28.0493925 C2.06766274,26.4478962 0.625102809,23.0930591 1.45215251,19.8924197 C2.2792022,16.6917803 5.16644487,14.4557702 8.47221314,14.4557702 C11.7779814,14.4557702 14.6652241,16.6917803 15.4922738,19.8924197 C16.3193235,23.0930591 14.8767635,26.4478962 11.9848242,28.0493925 C11.8442909,28.1276375 11.7411666,28.2591548 11.6986998,28.4142948 C10.9122842,31.2994103 9.29580107,34.3373073 8.47221314,35.7805471 C7.64896625,34.3386714 6.0321421,31.3007744 5.24572647,28.4142948 C5.20325968,28.2591548 5.1001354,28.1276375 4.95960213,28.0493925 L4.95960213,28.0493925 Z" id="Shape" fill="url(#linearGradient-2)"></path>
                <path d="M35.1793108,4.52717584 C33.0164367,4.52736419 31.2632611,6.28080617 31.2632611,8.44368027 C31.2632611,10.6065544 33.0166641,12.3599574 35.1795382,12.3599574 C37.3424123,12.3599574 39.0958543,10.6067817 39.0960426,8.44390764 C39.0932245,6.28192479 37.3412937,4.52999399 35.1793108,4.52717584 L35.1793108,4.52717584 Z M35.1793108,11.1663517 C33.6755582,11.1661633 32.4566785,9.94697825 32.4568668,8.44322559 C32.4570552,6.93947293 33.6762403,5.72059323 35.1799929,5.72078157 C36.6837456,5.72096991 37.9026253,6.94015498 37.9024369,8.44390764 C37.9007448,9.94703676 36.6824403,11.1650361 35.1793108,11.1663517 L35.1793108,11.1663517 Z" id="Shape" fill="#B03478"></path>
                <path d="M35.1796519,0 C31.3775333,-0.000484253921 28.0441756,2.54059718 27.0373926,6.20699787 C26.0306096,9.87339856 27.598824,13.7604375 30.8680071,15.7017123 C32.0275098,19.7456483 34.5644334,23.8294849 34.6739041,24.0044334 C34.782996,24.1787726 34.9741644,24.2846603 35.1798224,24.2846603 C35.3854804,24.2846603 35.5766488,24.1787726 35.6857407,24.0044334 C35.7952114,23.8294849 38.3334991,19.7456483 39.4912966,15.7017123 C42.7604798,13.7604375 44.3286942,9.87339856 43.3219111,6.20699787 C42.3151281,2.54059718 38.9817705,-0.000484253921 35.1796519,0 L35.1796519,0 Z M38.6922629,14.7846821 C38.5516529,14.8628372 38.4484998,14.9943912 38.4061385,15.1495844 C37.6197229,18.0346998 36.0028988,21.0722558 35.1796519,22.5158366 C34.356405,21.074302 32.7406039,18.0387922 31.9528242,15.1495844 C31.9105688,14.994338 31.8073867,14.862747 31.6666998,14.7846821 C28.7747604,13.1831857 27.3322005,9.82834862 28.1592502,6.62770919 C28.9862999,3.42706977 31.8735426,1.19105969 35.1793108,1.19105969 C38.4850791,1.19105969 41.3723218,3.42706977 42.1993715,6.62770919 C43.0264212,9.82834862 41.5838612,13.1831857 38.6919218,14.7846821 L38.6922629,14.7846821 Z" id="Shape" fill="#B03478"></path>
                <path d="M24.485968,29.8114956 L35.1796519,29.8114956 C36.2626401,29.8114956 37.1405755,28.9335601 37.1405755,27.8505719 C37.1405755,26.7675837 36.2626401,25.8896483 35.1796519,25.8896483 L24.4146927,25.8896483 C22.9430588,25.8910338 21.5362614,26.4953373 20.5221168,27.5617421 C19.5079722,28.6281469 18.9750595,30.0635093 19.0475595,31.533357 C19.2272624,34.431399 21.6508485,36.6777227 24.5541741,36.6372149 L31.7669627,36.6372149 C32.568439,36.637967 33.2179762,37.2875042 33.2187282,38.0889805 L33.2187282,38.2785933 C33.2177883,39.0799363 32.568306,39.7292661 31.7669627,39.7300178 L9.83633393,39.7300178 C8.75334571,39.7300178 7.8754103,40.6079532 7.8754103,41.6909414 C7.8754103,42.7739296 8.75334571,43.651865 9.83633393,43.651865 L31.7669627,43.651865 C34.7334026,43.6486697 37.1373802,41.2446921 37.1405755,38.2782522 L37.1405755,38.0886394 C37.1368169,35.1223554 34.7329062,32.7187497 31.7666217,32.7153677 L24.4146927,32.7153677 C23.9957072,32.7145133 23.5974114,32.5331449 23.3216965,32.2176597 C23.0459816,31.9021745 22.9195931,31.4831758 22.9748632,31.0678508 C23.0932492,30.3299566 23.7388618,29.7931847 24.485968,29.8114956 L24.485968,29.8114956 Z M22.4285329,33.0093357 C22.9305217,33.5807287 23.6541124,33.9084814 24.4146927,33.9089734 L31.7666217,33.9089734 C34.0741405,33.9116041 35.9441508,35.7814618 35.9469698,38.0889805 L35.9469698,38.2785933 C35.9443384,40.5860013 34.074371,42.4558161 31.7669627,42.4582593 L9.83633393,42.4582593 C9.41255593,42.4582593 9.06901599,42.1147194 9.06901599,41.6909414 C9.06901599,41.2671634 9.41255593,40.9236234 9.83633393,40.9236234 L31.7669627,40.9236234 C33.2273375,40.9221196 34.4108301,39.7386271 34.4123339,38.2782522 L34.4123339,38.0886394 C34.4108301,36.6282646 33.2273375,35.444772 31.7669627,35.4432682 L24.5541741,35.4432682 C22.2877223,35.4829433 20.389179,33.7365716 20.2398011,31.4746998 C20.1833586,30.3312144 20.5978307,29.2145278 21.3866642,28.384777 C22.1754978,27.5550261 23.269816,27.0846606 24.4146927,27.083254 L35.1796519,27.083254 C35.6034299,27.083254 35.9469698,27.4267939 35.9469698,27.8505719 C35.9469698,28.2743499 35.6034299,28.6178899 35.1796519,28.6178899 L24.485968,28.6178899 C23.1385028,28.6008339 21.9866008,29.5840333 21.7918295,30.9174565 C21.6937303,31.6738355 21.9256703,32.4358709 22.4285329,33.0093357 L22.4285329,33.0093357 Z" id="Shape" fill="url(#linearGradient-3)"></path>
            </g>
        </g>
    </g>
</svg>