<?xml version="1.0" encoding="UTF-8"?>
<svg width="48px" height="48px" viewBox="0 0 48 48" version="1.1" xmlns="http://www.w3.org/2000/svg" xmlns:xlink="http://www.w3.org/1999/xlink">
    <title>icons / global </title>
    <defs>
        <linearGradient x1="50%" y1="0%" x2="50%" y2="100%" id="linearGradient-1">
            <stop stop-color="#005E91" offset="0%"></stop>
            <stop stop-color="#003058" offset="100%"></stop>
        </linearGradient>
    </defs>
    <g id="icons-/-global-" stroke="none" stroke-width="1" fill="none" fill-rule="evenodd">
        <g id="worldwide" transform="translate(2.000000, 2.000000)">
            <path d="M39.5556661,9.0957016 C39.9867282,8.5044405 40.2419893,7.77719361 40.2419893,6.99111901 C40.2419893,5.01663943 38.6356519,3.41030195 36.6611723,3.41030195 C35.8750977,3.41030195 35.1478508,3.66556306 34.5565897,4.09662522 C30.8334778,1.41476377 26.4472327,0 21.8259325,0 C17.2925329,0 12.9453357,1.37707993 9.25411012,3.98229485 C8.86942806,4.25384014 8.77769094,4.78576199 9.04923623,5.17052931 C9.32078153,5.55521137 9.85278863,5.64694849 10.2374707,5.3754032 C12.703119,3.63512611 15.4870337,2.49003197 18.42373,1.99119005 C18.0819325,2.42549201 17.7385151,2.94820604 17.3996163,3.57774778 C16.3652718,5.49936767 15.5116732,8.14567673 14.9166607,11.2643979 C13.3513321,11.3769378 12.0618117,12.4992682 11.698103,13.982238 L3.29153819,13.982238 C3.78705506,12.8125897 4.3951119,11.6865933 5.11280995,10.6185719 C5.3754032,10.2277513 5.27138899,9.69804618 4.88056838,9.43545293 C4.48974778,9.17277442 3.96004263,9.27678863 3.69744938,9.66760924 C1.2785222,13.267524 0,17.4718295 0,21.8259325 C0,26.4456128 1.41484902,30.8329663 4.09636945,34.5565044 C3.6654778,35.1476803 3.41030195,35.8748419 3.41030195,36.660746 C3.41030195,38.6352256 5.01663943,40.2415631 6.99111901,40.2415631 C7.77710835,40.2415631 8.50426998,39.9863872 9.09544583,39.5554103 C12.8188135,42.2371012 17.2058259,43.651865 21.8259325,43.651865 C27.6558437,43.651865 33.1367957,41.3815417 37.259254,37.2591687 C41.3815417,33.136881 43.651865,27.6558437 43.651865,21.8259325 C43.651865,17.2051439 42.2372718,12.8188988 39.5556661,9.0957016 Z M40.9879076,27.964476 L31.8962984,27.964476 C31.6042913,26.7738544 30.7155666,25.8159005 29.5663801,25.4259325 C29.6336483,24.2415346 29.669627,23.034714 29.669627,21.8259325 C29.669627,19.7178544 29.5674885,17.6551332 29.3706288,15.6874742 L40.9984796,15.6874742 C41.6248668,17.6479716 41.946714,19.7102664 41.946714,21.8259325 C41.946714,23.965897 41.6096057,26.0283623 40.9879076,27.964476 L40.9879076,27.964476 Z M21.8259325,41.946714 C20.3974423,41.946714 18.8518082,39.8682202 17.6912824,36.3867282 C17.0408526,34.4352682 16.5376625,32.1556519 16.1980817,29.6697123 L24.9413286,29.6697123 C25.2143233,30.7826643 26.0084121,31.6928739 27.0496625,32.1253854 C25.7526394,38.9020817 23.5161634,41.946714 21.8259325,41.946714 L21.8259325,41.946714 Z M6.99111901,33.079929 C6.42100178,33.079929 5.88191829,33.2145506 5.40302664,33.4525897 C4.55522558,32.2590693 3.84801421,30.9926536 3.28667851,29.669627 L14.4789485,29.669627 C14.8332789,32.3524263 15.3709982,34.8180746 16.0736057,36.925897 C16.7491865,38.9528099 17.5359432,40.5383446 18.4123055,41.6603339 C15.4590693,41.1594458 12.6724263,40.0057407 10.1992753,38.2489236 C10.4373144,37.7699467 10.5719361,37.2308632 10.5719361,36.660746 C10.5719361,34.6862664 8.96559858,33.079929 6.99111901,33.079929 L6.99111901,33.079929 Z M15.687389,21.8259325 C15.687389,20.6625933 15.721492,19.5018117 15.7854352,18.3626004 C17.1900533,18.1203837 18.3168171,17.0579041 18.6529023,15.687389 L27.6572931,15.687389 C27.8594387,17.6476306 27.964476,19.71146 27.964476,21.8259325 C27.964476,22.9854352 27.9305435,24.1427211 27.8669414,25.2788632 C26.4352966,25.5013002 25.282103,26.5750337 24.9413286,27.964476 L15.9944867,27.964476 C15.7925115,26.0043197 15.687389,23.9404902 15.687389,21.8259325 Z M28.4188135,30.6927176 C27.3845542,30.6927176 26.5431474,29.8513108 26.5431474,28.8170515 C26.5431474,27.7827922 27.3845542,26.9413854 28.4188135,26.9413854 C29.4530728,26.9413854 30.2944796,27.7827922 30.2944796,28.8170515 C30.2944796,29.8513108 29.4530728,30.6927176 28.4188135,30.6927176 Z M27.5782593,6.72596803 C26.9025933,4.6989698 26.1158366,3.11334991 25.239389,1.99136057 C28.1931368,2.49224867 30.9797798,3.6457833 33.453016,5.40294139 C33.2149769,5.88191829 33.0803552,6.42100178 33.0803552,6.99111901 C33.0803552,8.96559858 34.6866927,10.5719361 36.6611723,10.5719361 C37.2312895,10.5719361 37.7702877,10.4373144 38.2492647,10.1993606 C39.097151,11.3927957 39.8041066,12.6593819 40.365357,13.9823233 L29.1729165,13.9823233 C28.8185861,11.2994387 28.2807815,8.83379041 27.5782593,6.72596803 Z M38.5368384,6.99111901 C38.5368384,8.02537833 37.6954316,8.86678508 36.6611723,8.86678508 C35.626913,8.86678508 34.7855062,8.02537833 34.7855062,6.99111901 C34.7855062,5.95685968 35.626913,5.11545293 36.6611723,5.11545293 C37.6954316,5.11545293 38.5368384,5.95685968 38.5368384,6.99111901 Z M21.8259325,1.70515098 C23.2544227,1.70515098 24.8000568,3.78364476 25.9605826,7.26513677 C26.6110124,9.2165968 27.1142025,11.4962984 27.4537833,13.982238 L18.6529876,13.982238 C18.3846821,12.8882984 17.6128455,11.9904512 16.5978544,11.5493286 C17.8937691,4.7570302 20.1323766,1.70515098 21.8259325,1.70515098 Z M15.1755027,12.9592327 C16.209762,12.9592327 17.0511687,13.8006394 17.0511687,14.8348988 C17.0511687,15.8691581 16.209762,16.7105648 15.1755027,16.7105648 C14.1412433,16.7105648 13.2998366,15.8691581 13.2998366,14.8348988 C13.2998366,13.8006394 14.1412433,12.9592327 15.1755027,12.9592327 Z M11.698103,15.6874742 C11.9948845,16.8975346 12.9078224,17.8677655 14.0843766,18.2451155 C14.0178757,19.4232043 13.982238,20.62346 13.982238,21.8259325 C13.982238,23.9340959 14.0843766,25.9968171 14.2812362,27.964476 L2.65381172,27.964476 C2.027254,26.0036377 1.70515098,23.9412575 1.70515098,21.8259325 C1.70515098,19.7214352 2.02955595,17.6553037 2.65892718,15.6874742 L11.698103,15.6874742 Z M5.11545293,36.660746 C5.11545293,35.6264867 5.95685968,34.7850799 6.99111901,34.7850799 C8.02537833,34.7850799 8.86678508,35.6264867 8.86678508,36.660746 C8.86678508,37.6950053 8.02537833,38.5364121 6.99111901,38.5364121 C5.95685968,38.5364121 5.11545293,37.6950053 5.11545293,36.660746 Z M25.2308632,41.6571794 C25.5696767,41.2262025 25.9101101,40.7084334 26.2461101,40.0857123 C27.2836092,38.1625577 28.1399361,35.5101101 28.7362274,32.3830337 C30.2752114,32.2471332 31.5371936,31.1340959 31.8962984,29.669627 L40.3546146,29.669627 C37.7188774,35.8722842 32.0559005,40.4888952 25.2308632,41.6571794 L25.2308632,41.6571794 Z" id="XMLID_196_" fill="url(#linearGradient-1)" fill-rule="nonzero"></path>
            <path d="M6.82571936,8.01932504 C7.05088455,8.01932504 7.26991119,7.92895204 7.42934281,7.76952043 C7.58792185,7.61094139 7.67829485,7.39097691 7.67829485,7.16674956 C7.67829485,6.9425222 7.58792185,6.7234103 7.42934281,6.56397869 C7.26991119,6.40539964 7.05088455,6.31417407 6.82571936,6.31417407 C6.60149201,6.31417407 6.38152753,6.40539964 6.22303375,6.56397869 C6.06445471,6.7234103 5.97314387,6.9425222 5.97314387,7.16674956 C5.97314387,7.39097691 6.06436945,7.61094139 6.22303375,7.76952043 C6.38152753,7.92895204 6.60149201,8.01932504 6.82571936,8.01932504 Z" id="XMLID_1702_" fill="#B03478" fill-rule="nonzero"></path>
            <circle id="Oval" stroke="#B03478" stroke-width="1.5" cx="15.5" cy="14.5" r="2.75"></circle>
            <circle id="Oval-Copy" stroke="#B03478" stroke-width="1.5" cx="28.5" cy="28.5" r="2.75"></circle>
        </g>
    </g>
</svg>