<?xml version="1.0" encoding="UTF-8"?>
<svg width="348px" height="398px" viewBox="0 0 348 398" version="1.1" xmlns="http://www.w3.org/2000/svg" xmlns:xlink="http://www.w3.org/1999/xlink">
    <title>global</title>
    <defs>
        <linearGradient x1="50%" y1="0%" x2="50%" y2="100%" id="linearGradient-1">
            <stop stop-color="#005E91" offset="0%"></stop>
            <stop stop-color="#003058" offset="100%"></stop>
        </linearGradient>
        <linearGradient x1="50%" y1="0%" x2="50%" y2="100%" id="linearGradient-2">
            <stop stop-color="#005E91" offset="0%"></stop>
            <stop stop-color="#003058" offset="100%"></stop>
        </linearGradient>
    </defs>
    <g id="⏹️-Product-Wireframe" stroke="none" stroke-width="1" fill="none" fill-rule="evenodd">
        <g id="DR---Global-Seller-Services" transform="translate(-945.000000, -4482.000000)" fill-rule="nonzero">
            <g id="imagery-/-illustration-/-global" transform="translate(945.000000, 4482.000000)">
                <path d="M260.989999,0.8625 C284.661097,0.8625 306.125533,10.4919609 321.672334,26.0387623 C337.219135,41.5855636 346.848596,63.0499994 346.848596,86.7210975 C346.848596,107.372226 331.012432,136.83472 313.31016,163.4186 C313.209677,163.569497 313.109085,163.720375 313.012626,163.871881 C313.103351,164.025381 313.193815,164.179054 313.284019,164.332899 C327.096152,187.88987 334.404532,214.81327 334.404532,242.275388 C334.404532,284.816732 317.099319,323.392048 289.1592,351.332167 C261.219081,379.272286 222.643765,396.5775 180.10242,396.5775 C137.783684,396.5775 99.3924256,379.452592 71.4907453,351.769245 C43.5647986,324.061821 26.1463379,285.777328 25.8158061,243.498225 C11.8534419,220.441227 0.91140375,197.204622 0.91140375,180.05274 C0.91140375,156.381642 10.5408647,134.917206 26.087666,119.370405 C41.6344673,103.823603 63.0989032,94.1941425 86.7700012,94.1941425 C98.071627,94.1941425 108.869158,96.3942046 118.761366,100.380445 C136.859367,92.9057719 155.292005,88.7846391 174.313578,88.0899141 C174.592214,88.0797374 174.870778,88.0703033 175.148849,88.0586124 C175.146166,87.7819435 175.144747,87.504912 175.144597,87.2275226 C175.131532,63.0533305 184.759699,41.586727 200.307664,26.0387623 C215.854465,10.4919609 237.318901,0.8625 260.989999,0.8625 Z M224.878276,247.24563 L145.248729,247.24563 L144.115685,249.035947 C143.357224,250.22869 142.592874,251.420961 141.824483,252.619545 C139.859541,255.68458 137.868277,258.790804 135.756073,262.539229 C136.589582,280.755432 138.47007,297.314137 141.096001,311.969527 L141.096001,311.969527 L161.177445,311.969528 L161.433245,311.975995 C162.704114,312.040415 163.849154,312.582126 164.692555,313.425527 C165.59207,314.325043 166.148464,315.567732 166.148464,316.940546 C166.148464,318.313361 165.59207,319.55605 164.692555,320.455565 C163.792927,321.355193 162.550101,321.911565 161.177445,321.911565 L161.177445,321.911565 L143.054123,321.911565 L143.271212,322.911733 C147.564163,342.513276 153.240216,358.073863 159.407647,368.873286 C162.682312,374.60736 166.102368,379.008693 169.526121,381.983124 C173.08478,385.074757 176.662781,386.636239 180.10242,386.636239 C183.60259,386.636239 187.181823,385.082959 190.707421,382.04701 C194.143903,379.087801 197.542324,374.708982 200.779017,369.04147 C207.117165,357.943249 212.861067,341.867927 217.150531,321.912341 L217.150531,321.912341 L190.213852,321.912341 L189.958053,321.905873 C188.687184,321.841454 187.542144,321.299743 186.698743,320.456342 C185.799227,319.556826 185.242834,318.314137 185.242834,316.941322 C185.242834,315.568508 185.799227,314.325819 186.698743,313.426303 C187.598371,312.526676 188.841196,311.970304 190.213852,311.970304 L190.213852,311.970304 L219.106343,311.970304 L219.320899,310.760784 C222.584252,292.153633 224.624287,270.737468 224.878276,247.24563 L224.878276,247.24563 Z M132.916339,321.911565 L96.077149,321.911565 L96.4947171,322.806018 C110.340625,352.233876 130.72386,372.832155 153.905082,381.715149 C154.795449,382.056336 155.694295,382.381907 156.601354,382.691842 C156.016767,381.927888 155.454078,381.167428 154.917132,380.410659 C150.4424,374.103989 146.316319,366.025164 142.606384,356.241345 C138.794139,346.188234 135.539523,334.597486 132.916339,321.911565 L132.916339,321.911565 Z M264.15445,321.911565 L227.304274,321.911565 L226.994882,323.386335 C225.016789,332.696542 222.685392,341.433938 220.016347,349.441075 C215.728213,362.303936 210.815419,372.64507 205.378073,380.348748 C204.842436,381.107643 204.280978,381.870315 203.69377,382.636636 C204.601589,382.324989 205.50177,381.995707 206.39397,381.65049 C230.312135,372.39589 250.763461,350.811863 264.15445,321.911565 L264.15445,321.911565 Z M85.1763304,321.911565 L59.7500211,321.911565 L60.269852,322.689094 C74.7195102,344.151705 94.7771945,361.535816 118.325269,372.731551 C120.086762,373.569038 121.862781,374.369518 123.652084,375.132861 C122.156358,373.888064 120.695927,372.615379 119.278226,371.316631 C105.445758,358.644783 93.7293737,341.703737 85.1763304,321.911565 L85.1763304,321.911565 Z M300.453195,321.911565 L275.045106,321.911565 L274.50348,323.150008 C270.135919,333.031723 264.939678,342.291064 258.953361,350.742158 C253.439899,358.525008 247.432642,365.378408 241.031569,371.268228 C239.627427,372.560221 238.178653,373.829479 236.685693,375.07498 C238.466225,374.315405 240.233619,373.516811 241.986578,372.681556 C265.772075,361.348181 285.989666,343.698807 300.453195,321.911565 L300.453195,321.911565 Z M36.8743397,260.35811 C37.0237637,261.56885 37.1915216,262.78115 37.3752147,263.993647 C39.9585864,281.045618 45.5407176,297.126903 53.5579209,311.68532 C53.6694884,311.887915 53.7815573,312.090269 53.894127,312.292381 C54.0987729,312.217769 54.3043351,312.157437 54.5108987,312.108856 C54.8798039,312.022094 55.2625551,311.970304 55.6586775,311.970304 L55.6586775,311.970304 L76.0094096,311.970304 L75.6957973,311.594367 C67.2580776,301.472138 52.8690929,283.591742 38.9381959,263.37506 C38.2443081,262.368082 37.5562414,261.362106 36.8743397,260.35811 Z M324.367805,247.24563 L290.786133,247.24563 L290.753924,248.513098 C290.1208,270.889537 286.091907,292.437125 279.001553,311.970304 L279.001553,311.970304 L304.546162,311.970304 L304.84046,311.979752 C305.132423,311.998384 305.417262,312.043784 305.693941,312.108856 C305.90073,312.15749 306.106702,312.217993 306.310148,312.292823 C306.422929,312.090892 306.535173,311.888232 306.646914,311.68533 C317.244538,292.441733 323.574824,270.535103 324.367805,247.24563 L324.367805,247.24563 Z M280.840453,247.24563 L234.819326,247.24563 L234.796453,249.048028 C234.471169,271.255257 232.549486,292.624957 229.191283,311.970304 L229.191283,311.970304 L268.366158,311.970304 L268.762891,310.933406 C275.983521,291.876505 280.29415,270.235795 280.840453,247.24563 L280.840453,247.24563 Z M126.528226,274.788246 C126.072706,275.412576 125.612846,276.043776 125.149493,276.677268 C114.288881,291.525812 104.047191,304.164311 97.5297035,311.970304 L97.5297035,311.970304 L131.028992,311.970304 L130.731,310.225128 C128.965861,299.720323 127.612061,288.612086 126.705479,277.118633 C126.644093,276.340392 126.585009,275.563573 126.528226,274.788246 Z M86.7700013,104.13618 C65.8397152,104.13618 46.8601675,112.65001 33.1133313,126.396846 C19.3664952,140.143682 10.852665,159.12323 10.852665,180.053516 C10.852665,197.189277 24.4500459,225.638906 50.3291456,262.300899 C64.6286403,282.558646 79.0788416,300.173874 86.1104518,308.518227 C86.3228936,308.77033 86.5425274,309.030541 86.7692085,309.298624 C86.9965876,309.031593 87.2166797,308.770839 87.4295507,308.518227 C94.4611609,300.173874 108.911362,282.558646 123.210859,262.300896 C149.089957,225.638906 162.687338,197.189277 162.687337,180.053516 C162.687337,159.12323 154.173507,140.143682 140.426671,126.396846 C126.679835,112.65001 107.700287,104.13618 86.7700013,104.13618 Z M306.767933,173.004746 C306.501118,173.38246 306.234339,173.763089 305.96663,174.144046 C299.400532,183.487751 292.830525,192.237614 286.754973,200.522875 C289.151151,212.467384 290.503613,224.813955 290.78789,237.304369 L290.78789,237.304369 L324.364139,237.304369 L324.324269,236.252522 C323.42157,214.522612 317.640275,193.312665 307.432816,174.233084 C307.213143,173.822476 306.991512,173.413026 306.767933,173.004746 Z M232.482128,196.493125 C232.587517,197.494884 232.68987,198.49536 232.788248,199.493878 C233.993825,211.730245 234.671278,224.371561 234.808342,237.304369 L234.808342,237.304369 L280.839608,237.304369 L280.793126,235.626881 C280.544786,227.803291 279.85666,220.04704 278.73449,212.429404 C278.639751,211.786287 278.541765,211.143116 278.440541,210.499934 C278.040521,210.991773 277.631007,211.496264 277.212314,212.010586 C270.297121,220.505199 265.500042,226.003789 264.725832,226.886497 C263.751052,227.998547 262.369084,228.550037 260.989514,228.550037 C259.609868,228.550037 258.227676,227.998492 257.252686,226.88658 C256.130214,225.606745 246.562742,214.63673 234.327829,198.880327 C233.702044,198.074427 233.086662,197.278389 232.482128,196.493125 Z M214.916758,172.579695 L172.304672,172.579695 L172.403119,173.813989 C172.552555,175.87506 172.628599,177.955567 172.628599,180.053516 C172.628599,195.75228 163.45079,216.552079 151.29377,237.303593 L151.29377,237.303593 L224.866712,237.303593 L224.840014,235.270062 C224.548833,216.313542 223.079609,198.00125 220.267225,180.11867 C218.489765,177.654814 216.701182,175.13793 214.916758,172.579695 L214.916758,172.579695 Z M260.989999,10.8037613 C240.059713,10.8037613 221.080165,19.3175915 207.333329,33.0644276 C193.586493,46.8112637 185.072663,65.7908114 185.072663,86.7210975 C185.072663,103.856859 198.670043,132.306487 224.549143,168.96848 C238.848638,189.226227 253.298839,206.841455 260.330449,215.185808 C260.542891,215.437911 260.762525,215.698122 260.989206,215.966205 C261.216585,215.699174 261.436677,215.438421 261.649548,215.185808 C268.681158,206.841455 283.13136,189.226227 297.430856,168.968477 C323.309954,132.306487 336.907335,103.856859 336.907335,86.7210975 C336.907335,65.7908114 328.393505,46.8112637 314.646669,33.0644276 C300.899833,19.3175915 281.920285,10.8037613 260.989999,10.8037613 Z M176.561513,98.4513452 C176.242967,98.5445453 175.932454,98.6493665 175.629962,98.7626295 C168.298568,101.50775 160.670917,111.087015 154.176541,126.203031 L154.176541,126.203031 L153.974762,126.67535 L154.132849,126.875908 L154.132849,126.875908 L154.290981,127.076603 C162.342835,137.317166 168.114569,149.429016 170.847173,162.63921 L170.847173,162.63921 L208.150468,162.63921 L207.562405,161.750194 C193.663856,140.686795 181.141307,117.991315 176.772093,99.3733085 C176.700428,99.0679337 176.63024,98.7606006 176.561513,98.4513452 Z M156.561871,101.938985 C155.649688,102.253755 154.746205,102.584567 153.852008,102.93056 C148.773834,104.89547 143.803749,107.42407 139.000879,110.504402 C138.654383,110.726628 138.310133,110.950843 137.968144,111.177028 C138.293557,111.420858 138.618261,111.666584 138.941313,111.914575 C141.336282,113.753076 143.634432,115.711452 145.82188,117.786683 C146.110665,118.060653 146.397517,118.336657 146.682429,118.614664 C146.849923,118.255981 147.020255,117.895336 147.193515,117.53325 C149.615608,112.471461 152.177439,108.031879 154.86715,104.233374 C155.406109,103.472236 155.971054,102.707393 156.561871,101.938985 Z" id="Shape" stroke="#FFFFFF" stroke-width="1.725" fill="url(#linearGradient-1)"></path>
                <path d="M260.989999,22.6401938 C278.657189,22.6401937 294.677203,29.827183 306.280558,41.4305383 C317.883913,53.0338937 325.070903,69.0539074 325.070903,86.7210975 C325.070903,104.388288 317.883913,120.408301 306.280558,132.011657 C294.677203,143.615012 278.657189,150.802001 260.989999,150.802001 C243.322809,150.802001 227.302795,143.615012 215.69944,132.011657 C204.096084,120.408301 196.909095,104.388288 196.909095,86.7210975 C196.909095,69.0539074 204.096084,53.0338937 215.69944,41.4305383 C227.302795,29.827183 243.322809,22.6401938 260.989999,22.6401938 Z M260.989999,32.581455 C246.063616,32.581455 232.528493,38.6528158 222.725105,48.4562037 C212.921717,58.2595916 206.850356,71.7947143 206.850356,86.7210975 C206.850356,101.647481 212.921717,115.182603 222.725105,124.985991 C232.528493,134.789379 246.063616,140.86074 260.989999,140.86074 C275.916382,140.86074 289.451505,134.789379 299.254893,124.985991 C309.05828,115.182603 315.129641,101.647481 315.129641,86.7210975 C315.129641,71.7947143 309.05828,58.2595916 299.254893,48.4562037 C289.451505,38.6528158 275.916382,32.581455 260.989999,32.581455 Z" id="Shape" stroke="#FFFFFF" stroke-width="1.725" fill="url(#linearGradient-2)"></path>
                <path d="M260.989999,80.888355 C257.344729,80.888355 254.378677,77.92308 254.378677,74.2770337 C254.378677,70.6309875 257.343952,67.6657125 260.989999,67.6657125 L273.434062,67.6657125 C276.6555,67.6657125 279.267581,65.0544075 279.267581,61.8321938 C279.267581,58.60998 276.6555,55.998675 273.434062,55.998675 L266.822741,55.998675 L266.822741,49.3873538 C266.822741,46.16514 264.21066,43.553835 260.989222,43.553835 C257.767785,43.553835 255.155704,46.16514 255.155704,49.3873538 L255.155704,56.95812 C247.930369,59.39865 242.71164,66.2366363 242.71164,74.2762575 C242.71164,84.3543113 250.911169,92.553835 260.989222,92.553835 C264.634493,92.553835 267.600544,95.519115 267.600544,99.1651612 C267.600544,102.811207 264.635269,105.776482 260.989222,105.776482 L248.545159,105.776482 C245.323721,105.776482 242.71164,108.387788 242.71164,111.610001 C242.71164,114.832215 245.323721,117.44352 248.545159,117.44352 L255.15648,117.44352 L255.15648,124.054841 C255.15648,127.277055 257.768561,129.88836 260.989999,129.88836 C264.211436,129.88836 266.823517,127.277055 266.823517,124.054841 L266.823517,116.484075 C274.048852,114.043545 279.267581,107.205559 279.267581,99.1659375 C279.267581,89.0871075 271.068829,80.888355 260.989999,80.888355 Z" id="Path" fill="#B03478"></path>
                <path d="M86.7700012,115.972612 C104.437191,115.972612 120.457205,123.159602 132.06056,134.762957 C143.663916,146.366312 150.850905,162.386326 150.850905,180.053516 C150.850905,197.720706 143.663916,213.74072 132.06056,225.344075 C120.457205,236.947431 104.437191,244.13442 86.7700012,244.13442 C69.1028111,244.13442 53.0827974,236.947431 41.4794421,225.344075 C29.8760868,213.74072 22.6890975,197.720706 22.6890975,180.053516 C22.6890975,162.386326 29.8760868,146.366312 41.4794421,134.762957 C53.0827974,123.159602 69.1028111,115.972612 86.7700012,115.972612 Z M86.7700012,125.913874 C71.843618,125.913874 58.3084953,131.985235 48.5051074,141.788622 C38.7017196,151.59201 32.6303588,165.127133 32.6303588,180.053516 C32.6303588,194.979899 38.7017196,208.515022 48.5051074,218.31841 C58.3084953,228.121798 71.843618,234.193159 86.7700012,234.193159 C101.696384,234.193159 115.231507,228.121798 125.034895,218.31841 C134.838283,208.515022 140.909644,194.979899 140.909644,180.053516 C140.909644,165.127133 134.838283,151.59201 125.034895,141.788622 C115.231507,131.985235 101.696384,125.913874 86.7700012,125.913874 Z" id="Shape" stroke="#FFFFFF" stroke-width="1.725" fill="url(#linearGradient-2)"></path>
                <path d="M86.7700013,174.219997 C83.1247312,174.219997 80.15868,171.254722 80.15868,167.608676 C80.15868,163.96263 83.123955,160.997355 86.7700013,160.997355 L99.214065,160.997355 C102.435503,160.997355 105.047584,158.38605 105.047584,155.163836 C105.047584,151.941622 102.435502,149.330317 99.214065,149.330317 L92.6027438,149.330317 L92.6027438,142.718996 C92.6027438,139.496782 89.9906625,136.885478 86.769225,136.885478 C83.5477875,136.885478 80.9357063,139.496783 80.9357063,142.718996 L80.9357063,150.289762 C73.7103713,152.730292 68.4916425,159.568279 68.4916425,167.6079 C68.4916425,177.685954 76.6911713,185.885478 86.769225,185.885478 C90.414495,185.885478 93.3805463,188.850757 93.3805463,192.496804 C93.3805463,196.14285 90.4152713,199.108125 86.769225,199.108125 L74.3259375,199.108125 C71.1045,199.108125 68.4924187,201.71943 68.4924187,204.941644 C68.4924187,208.163857 71.1045,210.775162 74.3259375,210.775162 L80.9372587,210.775162 L80.9372587,217.386484 C80.9372587,220.608697 83.54934,223.220002 86.7707775,223.220002 C89.992215,223.220002 92.6042962,220.608697 92.6042962,217.386484 L92.6042962,209.815717 C99.8296312,207.375187 105.04836,200.537201 105.04836,192.49758 C105.047584,182.419526 96.848055,174.219997 86.7700013,174.219997 Z" id="Path" fill="#B03478"></path>
            </g>
        </g>
    </g>
</svg>