<?xml version="1.0" encoding="UTF-8"?>
<svg width="427px" height="425px" viewBox="0 0 427 425" version="1.1" xmlns="http://www.w3.org/2000/svg" xmlns:xlink="http://www.w3.org/1999/xlink">
    <title>04E0B397-93D7-4420-8B57-CE382CA4467E</title>
    <defs>
        <linearGradient x1="50%" y1="0%" x2="50%" y2="100%" id="linearGradient-1">
            <stop stop-color="#005E91" offset="0%"></stop>
            <stop stop-color="#003058" offset="100%"></stop>
        </linearGradient>
    </defs>
    <g id="CB,-Sub,-MOR" stroke="none" stroke-width="1" fill="none" fill-rule="evenodd">
        <g id="Subscriptions" transform="translate(-151.000000, -4364.000000)" fill-rule="nonzero">
            <g id="Stacked-Group" transform="translate(-4.000000, -6.359504)">
                <g id="Section-:-Checkout" transform="translate(2.000000, 4309.000000)">
                    <g id="global-complexity" transform="translate(153.000000, 62.321537)">
                        <path d="M296,376 L288,376 L288,352 C287.999785,347.581811 284.418189,344.000215 280,344 L272,344 L272,209.88867 L287.15527,179.57812 L287.14893,179.57495 C287.707844,178.466092 287.999316,177.241754 288,176 L288,120 C287.999785,115.581811 284.418189,112 280,112 L24,112 C19.5818112,112 16.0002154,115.581811 16,120 L16,176 C16.0006759,177.24177 16.2921479,178.466126 16.85107,179.575 L16.84473,179.57817 L32,209.88867 L32,344 L24,344 C19.5818112,344.000215 16.0002154,347.581811 16,352 L16,376 L8,376 C3.58181121,376.000215 0,379.581811 0,384 L0,416 C0,420.418189 3.58181121,424 8,424 L296,424 C300.418189,424 304,420.418189 304,416 L304,384 C304,379.581811 300.418189,376.000215 296,376 Z M184,344 L184,209.88867 L196,185.88867 L208,209.88867 L208,344 L184,344 Z M96,344 L96,209.88867 L108,185.88867 L120,209.88867 L120,344 L96,344 Z M36.94434,184 L91.05566,184 L83.05566,200 L44.94434,200 L36.94434,184 Z M259.05566,200 L220.94434,200 L212.94434,184 L267.05566,184 L259.05566,200 Z M171.05566,200 L132.94434,200 L124.94434,184 L179.05566,184 L171.05566,200 Z M136,216 L168,216 L168,344 L136,344 L136,216 Z M224,216 L256,216 L256,344 L224,344 L224,216 Z M32,128 L272,128 L272,168 L32,168 L32,128 Z M48,216 L80,216 L80,344 L48,344 L48,216 Z M32,360 L272,360 L272,376 L32,376 L32,360 Z M288,408 L16,408 L16,392 L288,392 L288,408 Z" id="Shape" fill="url(#linearGradient-1)"></path>
                        <path d="M317.730371,0 C261.610639,0 214.614645,42.6006366 209,98.5565179 L219.355834,99.5863393 C222.727036,66.1358158 242.782093,36.6753872 272.631367,21.3257768 L307.323739,44.5047433 L307.323739,65.3873449 L278.788106,89.898053 L285.560293,97.8162327 L315.913184,71.7448041 C317.066569,70.7541919 317.730378,69.3079578 317.730371,67.7857143 L317.730371,41.7142857 C317.730389,39.9708786 316.860871,38.3428279 315.413269,37.3758371 L283.969476,16.3673626 C307.877557,7.67899252 334.206325,8.55133873 357.489498,18.8032879 L340.496119,32.4288682 C339.261984,33.4182595 338.543581,34.9162025 338.543633,36.5 L338.543633,65.6260354 L319.254142,84.9555554 C318.278503,85.9336191 317.730409,87.2599263 317.730371,88.6428571 L317.730371,114.714286 C317.730409,116.097217 318.278503,117.423524 319.254142,118.401587 L340.067405,139.25873 C341.043411,140.236426 342.366928,140.785676 343.746949,140.785714 L364.560212,140.785714 L364.560212,156.428571 C364.560118,158.672954 365.993133,160.665609 368.117803,161.375521 L395.549209,170.538552 C387.235915,181.160449 376.858384,189.981565 365.044673,196.468042 L331.816533,163.169841 C330.062354,161.412755 327.314602,161.140257 325.250775,162.518707 L310.951829,172.071429 L302.120424,172.071429 L302.120424,182.5 L312.527055,182.5 C313.554295,182.499871 314.558526,182.195132 315.413269,181.624163 L327.473905,173.566592 L355.073917,201.225471 C343.222242,206.087839 330.536826,208.583224 317.730371,208.571429 C312.764564,208.571906 307.80562,208.201706 302.894697,207.463901 L301.346151,217.776631 C306.76971,218.591163 312.246242,219 317.730371,219 C377.981996,219 427,169.878652 427,109.5 C427,49.121348 377.981996,0 317.730371,0 Z M375.117464,153.022444 L375.117464,135.874491 C375.117323,132.986567 372.773494,130.645477 369.88219,130.645336 L345.874193,130.645336 L328,112.792036 L328,90.9779644 L347.407965,71.5933255 C348.389602,70.6124665 348.941064,69.2823666 348.941095,67.8954832 L348.941095,39.0336425 L367.751683,24 C390.89964,37.5049845 407.602292,59.7792459 414.067069,85.7651067 C420.531847,111.750967 416.210195,139.243447 402.083404,162 L375.117464,153.022444 Z" id="Shape" fill="#B03478"></path>
                    </g>
                </g>
            </g>
        </g>
    </g>
</svg>