<?xml version="1.0" encoding="UTF-8"?>
<svg width="1920px" height="1080px" viewBox="0 0 1920 1080" version="1.1" xmlns="http://www.w3.org/2000/svg" xmlns:xlink="http://www.w3.org/1999/xlink">
    <!-- Generator: Sketch 61 (89581) - https://sketch.com -->
    <title>Gorilla Group</title>
    <desc>Created with Sketch.</desc>
    <g id="Gorilla-Group" stroke="none" stroke-width="1" fill="none" fill-rule="evenodd">
        <g id="Gorilla-Group-Logo-(1)" transform="translate(0.000000, 180.000000)" fill-rule="nonzero">
            <rect id="Fill" fill="#FFFFFF" x="78" y="108" width="1731" height="327"></rect>
            <path d="M28.4307692,630.434867 L0,718.487013 L11.3846154,718.487013 L18.4615385,695.431576 L48.3076923,695.431576 L55.3846154,718.487013 L66.4615385,718.487013 L37.9692308,630.434867 L28.4307692,630.434867 Z M33.1692308,645.948233 L45.4769231,685.927341 L21.1692308,685.927341 L33.1692308,645.948233 Z M175.076923,630.434867 L159.323077,718.487013 L141.538462,718.487013 L131.2,666.612281 L120.984615,718.487013 L103.015385,718.487013 L87.2,630.434867 L104.984615,630.434867 L113.292308,685.620752 L123.692308,630.434867 L138.646154,630.434867 L149.046154,685.620752 L157.415385,630.434867 L175.076923,630.434867 Z M244.615385,630.434867 L244.615385,691.384611 C245.068938,699.12937 242.335726,706.723905 237.046154,712.416565 C231.098931,717.637945 223.288582,720.246792 215.384615,719.652048 C207.465144,720.199327 199.657924,717.547325 193.723077,712.29393 C188.395041,706.50468 185.681537,698.792292 186.215385,690.955388 L186.215385,630.434867 L204.184615,630.434867 L204.184615,691.016706 C203.868139,694.753711 204.705546,698.497826 206.584615,701.747294 C208.85563,704.123624 212.112159,705.303567 215.384615,704.935812 C218.638806,705.303215 221.876583,704.121804 224.123077,701.747294 C225.985168,698.60333 226.823629,694.961614 226.523077,691.323294 L226.523077,630.434867 L244.615385,630.434867 Z M320,718.487013 L302.153846,718.487013 L276.061538,660.725786 L276.061538,718.487013 L258.461538,718.487013 L258.461538,630.434867 L276.307692,630.434867 L302.461538,688.257411 L302.461538,630.434867 L320,630.434867 L320,718.487013 Z M352.123077,645.273739 L352.123077,703.709459 L357.476923,703.709459 C362.080697,704.126681 366.620723,702.407661 369.784615,699.049318 C372.663631,694.15941 373.99348,688.517149 373.6,682.861458 L373.6,667.593363 C374.103379,661.641139 372.908779,655.668314 370.153846,650.363104 C367.307032,646.853341 362.917505,644.952695 358.4,645.273739 L352.123077,645.273739 Z M334.276923,718.487013 L334.276923,630.434867 L357.661538,630.434867 C366.900173,630.029602 375.867377,633.603613 382.276923,640.245691 C388.768566,647.656328 392.14113,657.276475 391.692308,667.102822 L391.692308,681.328517 C392.275789,691.252996 388.965927,701.015033 382.461538,708.553553 C375.826462,715.441973 366.487026,719.074648 356.923077,718.487013 L334.276923,718.487013 Z M450.092308,680.408752 L422.276923,680.408752 L422.276923,703.709459 L455.384615,703.709459 L455.384615,718.487013 L404.430769,718.487013 L404.430769,630.434867 L455.015385,630.434867 L455.015385,645.273739 L422.276923,645.273739 L422.276923,666.060422 L450.030769,666.060422 L450.092308,680.408752 Z M485.846154,671.517693 L495.938462,671.517693 C499.029921,671.71576 502.021348,670.385912 503.938462,667.961269 C505.860082,665.196652 506.811906,661.877221 506.646154,658.518351 C506.646154,649.688609 503.2,645.273739 496.246154,645.273739 L485.846154,645.273739 L485.846154,671.517693 Z M494.646154,686.295246 L485.846154,686.295246 L485.846154,718.487013 L467.692308,718.487013 L467.692308,630.434867 L496.123077,630.434867 C503.677919,629.963668 511.118917,632.449768 516.861538,637.363762 C521.954688,642.613799 524.591013,649.759763 524.123077,657.046727 C525.057957,667.017126 520.051544,676.610299 511.323077,681.573787 L526.830769,717.628566 L526.830769,718.487013 L507.630769,718.487013 L494.646154,686.295246 Z M560,630.434867 L576.676923,694.082588 L593.292308,630.434867 L616.615385,630.434867 L616.615385,718.487013 L598.707692,718.487013 L598.707692,694.634447 L600.369231,657.843857 L582.707692,718.364378 L570.4,718.364378 L552.738462,657.843857 L554.338462,694.634447 L554.338462,718.487013 L536.553846,718.487013 L536.553846,630.434867 L560,630.434867 Z M653.723077,685.620752 L670.215385,685.620752 L661.969231,654.287433 L653.723077,685.620752 Z M674.153846,700.459624 L649.846154,700.459624 L645.107692,718.487013 L626.215385,718.487013 L653.846154,630.434867 L670.153846,630.434867 L697.969231,718.487013 L678.892308,718.487013 L674.153846,700.459624 Z M767.938462,718.487013 L750.092308,718.487013 L724.061538,660.725786 L724.061538,718.487013 L706.215385,718.487013 L706.215385,630.434867 L724.061538,630.434867 L750.153846,688.257411 L750.153846,630.434867 L767.938462,630.434867 L767.938462,718.487013 Z M857.046154,645.273739 L835.2,645.273739 L835.2,718.487013 L817.230769,718.487013 L817.230769,645.273739 L795.753846,645.273739 L795.753846,630.434867 L856.984615,630.434867 L857.046154,645.273739 Z M931.692308,718.487013 L913.969231,718.487013 L913.969231,680.776658 L887.630769,680.776658 L887.630769,718.487013 L869.784615,718.487013 L869.784615,630.434867 L887.630769,630.434867 L887.630769,666.060422 L913.969231,666.060422 L913.969231,630.434867 L931.692308,630.434867 L931.692308,718.487013 Z M990.338462,667.654681 C990.724461,661.55162 989.538185,655.451557 986.892308,649.93388 C984.796825,646.141213 980.708064,643.877829 976.369231,644.108703 C972.095812,643.886374 968.048238,646.032617 965.846154,649.688609 C963.250816,654.984329 962.044054,660.84882 962.338462,666.734916 L962.338462,682.370917 C961.945556,688.257264 963.135144,694.14153 965.784615,699.417224 C968.097337,703.035652 972.19421,705.12366 976.492308,704.874494 C980.656493,705.105844 984.617373,703.062034 986.830769,699.539859 C989.462947,694.410451 990.673828,688.674114 990.338462,682.922776 L990.338462,667.654681 Z M1008.18462,682.370917 C1008.81042,692.252584 1005.83892,702.0277 999.815385,709.902542 C993.64337,716.114937 985.23457,719.610329 976.461538,719.610329 C967.688507,719.610329 959.279707,716.114937 953.107692,709.902542 C947.036772,702.182383 943.976368,692.533139 944.492308,682.738823 L944.492308,667.715999 C943.875937,657.579501 946.860661,647.550342 952.923077,639.387244 C958.962154,632.955238 967.406491,629.304793 976.246154,629.304793 C985.085817,629.304793 993.530154,632.955238 999.569231,639.387244 C1005.69438,647.433235 1008.74812,657.387507 1008.18462,667.470728 L1008.18462,682.370917 Z M1044.43077,630.434867 L1061.10769,694.082588 L1077.72308,630.434867 L1101.04615,630.434867 L1101.04615,718.487013 L1083.07692,718.487013 L1083.07692,694.634447 L1084.67692,657.843857 L1067.01538,718.364378 L1054.70769,718.364378 L1037.04615,657.843857 L1038.70769,694.634447 L1038.70769,718.487013 L1020.86154,718.487013 L1020.86154,630.434867 L1044.43077,630.434867 Z M1133.16923,672.682728 L1145.47692,672.682728 C1148.47482,672.850095 1151.38215,671.627965 1153.35385,669.371575 C1155.43846,666.587677 1156.44373,663.147185 1156.18462,659.683386 C1156.35985,655.971209 1155.34704,652.299528 1153.29231,649.198068 C1151.55138,646.718944 1148.69811,645.251573 1145.66154,645.273491 L1133.35385,645.273491 L1133.16923,672.682728 Z M1133.16923,687.521599 L1133.16923,718.487013 L1115.32308,718.487013 L1115.32308,630.434867 L1145.41538,630.434867 C1153.22363,630.069486 1160.82316,633.009307 1166.33846,638.528797 C1171.63191,644.254801 1174.42166,651.843939 1174.09231,659.622069 C1174.50343,667.200194 1171.71416,674.60414 1166.4,680.040846 C1160.57197,685.278652 1152.88155,687.972784 1145.04615,687.521599 L1133.16923,687.521599 Z M1220.73846,695.124988 C1220.94368,692.158007 1219.97133,689.229387 1218.03077,686.969741 C1215.03049,684.490735 1211.61374,682.56014 1207.93846,681.267199 C1200.72102,678.961234 1194.17416,674.941998 1188.86154,669.555528 C1185.0119,665.138286 1182.93062,659.462591 1183.01538,653.612939 C1182.76372,646.764595 1185.69206,640.182507 1190.95385,635.769503 C1196.59945,631.129409 1203.76461,628.727757 1211.07692,629.024561 C1216.10479,628.924487 1221.07737,630.084108 1225.53846,632.397032 C1229.69442,634.584928 1233.10113,637.958065 1235.32308,642.085221 C1237.69226,646.404111 1238.88067,651.26758 1238.76923,656.18828 L1220.98462,656.18828 C1221.21538,652.859552 1220.30402,649.551493 1218.4,646.80668 C1214.38278,642.664117 1207.79072,642.44698 1203.50769,646.316139 C1201.66246,648.335436 1200.70898,651.008863 1200.86154,653.735574 C1200.90962,656.21924 1201.95077,658.581016 1203.75385,660.296563 C1206.80405,662.940366 1210.30572,665.017213 1214.09231,666.428328 C1221.22766,668.561326 1227.6916,672.489121 1232.86154,677.833411 C1236.86377,682.668769 1238.94421,688.800423 1238.70769,695.06367 C1239.22144,702.007059 1236.52458,708.804061 1231.38462,713.520283 C1225.7657,718.048438 1218.66254,720.342126 1211.44615,719.958636 C1206.03366,720.024028 1200.68083,718.827114 1195.81538,716.46353 C1191.26648,714.240467 1187.44602,710.773991 1184.8,706.468753 C1182.07652,701.780826 1180.71305,696.431405 1180.86154,691.016706 L1198.76923,691.016706 C1198.43615,694.945251 1199.48001,698.867381 1201.72308,702.1152 C1204.30311,704.623232 1207.85687,705.87827 1211.44615,705.548989 C1217.6,705.548989 1220.73846,702.237836 1220.73846,695.676847 M1292.30769,667.654681 C1292.69369,661.55162 1291.50742,655.451557 1288.86154,649.93388 C1286.76606,646.141213 1282.67729,643.877829 1278.33846,644.108703 C1274.06504,643.886374 1270.01747,646.032617 1267.81538,649.688609 C1265.22005,654.984329 1264.01328,660.84882 1264.30769,666.734916 L1264.30769,682.370917 C1263.91479,688.257264 1265.10438,694.14153 1267.75385,699.417224 C1270.06657,703.035652 1274.16344,705.12366 1278.46154,704.874494 C1282.62861,705.119318 1286.59598,703.072158 1288.8,699.539859 C1291.44296,694.392242 1292.65414,688.633284 1292.30769,682.861458 L1292.30769,667.654681 Z M1310.15385,682.370917 C1310.77965,692.252584 1307.80815,702.0277 1301.78462,709.902542 C1295.6126,716.114937 1287.2038,719.610329 1278.43077,719.610329 C1269.65774,719.610329 1261.24894,716.114937 1255.07692,709.902542 C1249.006,702.182383 1245.9456,692.533139 1246.46154,682.738823 L1246.46154,667.715999 C1245.84517,657.579501 1248.82989,647.550342 1254.89231,639.387244 C1260.93138,632.955238 1269.37572,629.304793 1278.21538,629.304793 C1287.05505,629.304793 1295.49938,632.955238 1301.53846,639.387244 C1307.66361,647.433235 1310.71735,657.387507 1310.15385,667.470728 L1310.15385,682.370917 Z M1384.61538,718.487013 L1366.76923,718.487013 L1340.67692,660.725786 L1340.67692,718.487013 L1323.07692,718.487013 L1323.07692,630.434867 L1340.92308,630.434867 L1367.07692,688.257411 L1367.07692,630.434867 L1384.61538,630.434867 L1384.61538,718.487013 Z M1475.44615,690.464847 C1475.52901,698.430948 1472.68342,706.151902 1467.44615,712.171295 C1461.95881,717.399333 1454.53203,720.11049 1446.95385,719.652048 C1438.68914,719.949503 1430.80282,716.192316 1425.84615,709.595954 C1420.26879,701.619295 1417.51875,692.017891 1418.03077,682.309599 L1418.03077,666.36701 C1417.50578,656.658452 1420.3526,647.065957 1426.09231,639.203291 C1431.39246,632.607202 1439.52712,628.918759 1448,629.269832 C1455.40088,628.810165 1462.6355,631.586172 1467.81538,636.87322 C1472.87923,643.016135 1475.58415,650.754013 1475.44615,658.702304 L1464.61538,658.702304 C1464.69129,653.231667 1463.10375,647.866225 1460.06154,643.311574 C1457.11211,640.061554 1452.81417,638.362141 1448.43077,638.71275 C1442.88078,638.498683 1437.61642,641.167839 1434.52308,645.76428 C1430.90048,652.026866 1429.20959,659.214007 1429.66154,666.428328 L1429.66154,682.861458 C1429.24167,689.977039 1430.81851,697.068564 1434.21538,703.341553 C1436.93859,707.972766 1442.00205,710.731176 1447.38462,710.515718 C1451.92399,710.890874 1456.40643,709.305317 1459.69231,706.162165 C1462.8286,701.64241 1464.48385,696.266095 1464.43077,690.771435 L1475.44615,690.464847 Z M1536.98462,666.796234 C1537.42691,659.585859 1535.80502,652.398588 1532.30769,646.070868 C1528.97709,641.740723 1523.81371,639.201705 1518.33846,639.201705 C1512.86321,639.201705 1507.69983,641.740723 1504.36923,646.070868 C1500.85972,652.239855 1499.21422,659.287989 1499.63077,666.36701 L1499.63077,682.125646 C1499.16869,689.278943 1500.79293,696.412732 1504.30769,702.667059 C1507.3865,707.382985 1512.76276,710.096555 1518.4,709.779906 C1523.83225,710.156062 1529.06448,707.665706 1532.18462,703.218918 C1535.61519,697.13275 1537.2373,690.199716 1536.86154,683.229364 L1536.98462,666.796234 Z M1548.12308,682.186964 C1548.76002,692.052669 1546.02714,701.84276 1540.36923,709.963859 C1535.06911,716.498901 1526.9434,720.102436 1518.52308,719.652048 C1510.24083,720.024056 1502.25669,716.533612 1496.92308,710.20913 C1491.18996,702.497954 1488.27982,693.063109 1488.67692,683.474635 L1488.67692,666.918869 C1488.11364,657.081201 1490.88807,647.340728 1496.55385,639.264609 C1501.75085,632.599776 1509.87741,628.871313 1518.33846,629.269832 C1526.71256,628.82996 1534.79834,632.380399 1540.12308,638.835385 C1545.80517,646.793144 1548.62409,656.429513 1548.12308,666.183057 L1548.12308,682.186964 Z M1579.56923,630.434867 L1602.64615,702.299153 L1625.66154,630.434867 L1640,630.434867 L1640,718.487013 L1628.92308,718.487013 L1628.92308,684.210446 L1629.90769,649.872562 L1606.83077,718.487013 L1598.33846,718.487013 L1575.38462,650.117833 L1576.43077,684.210446 L1576.43077,718.487013 L1565.35385,718.487013 L1565.35385,630.434867 L1579.56923,630.434867 Z M1667.69231,674.522258 L1684.8,674.522258 C1689.04339,674.788447 1693.18793,673.17249 1696.12308,670.107387 C1698.96224,666.5291 1700.36588,662.027358 1700.06154,657.475951 C1700.29817,652.875335 1698.85544,648.344878 1696,644.72188 C1693.20358,641.496126 1689.07287,639.732174 1684.8,639.939103 L1667.69231,639.939103 L1667.69231,674.522258 Z M1667.69231,684.026493 L1667.69231,718.487013 L1656.61538,718.487013 L1656.61538,630.434867 L1684.8,630.434867 C1691.99673,630.046648 1699.02047,632.721248 1704.12308,637.792985 C1708.9699,643.129539 1711.49306,650.164614 1711.13846,657.353316 C1711.61176,664.416279 1709.26747,671.379838 1704.61538,676.729693 C1699.5467,681.555531 1692.72802,684.122722 1685.72308,683.84254 L1667.69231,684.026493 Z M1731.38462,685.927341 L1755.44615,685.927341 L1743.13846,645.948233 L1731.38462,685.927341 Z M1758.27692,695.431576 L1728.43077,695.431576 L1721.6,718.487013 L1710.15385,718.487013 L1738.64615,630.434867 L1748.18462,630.434867 L1776.67692,718.487013 L1765.29231,718.487013 L1758.27692,695.431576 Z M1846.15385,718.487013 L1835.01538,718.487013 L1799.63077,650.669692 L1799.63077,718.487013 L1788.49231,718.487013 L1788.49231,630.434867 L1799.63077,630.434867 L1835.13846,698.558777 L1835.13846,630.434867 L1846.15385,630.434867 L1846.15385,718.487013 Z M1920,630.434867 L1920,630.434867 L1894.89231,685.620752 L1894.89231,718.487013 L1883.81538,718.487013 L1883.81538,685.620752 L1858.64615,630.434867 L1871.32308,630.434867 L1889.35385,674.644893 L1907.44615,630.434867 L1920,630.434867 Z" id="WT" fill="#000000"></path>
            <path d="M1655.81538,240.765639 L1677.16923,290.912329 L1634.58462,290.912329 L1655.81538,240.765639 Z M783.876923,210.000799 C780.389744,210.000799 777.005128,210.000799 773.723077,210.000799 C771.224895,210.125285 768.737532,210.413038 766.276923,210.862215 L766.276923,265.746689 L772.430769,266.238927 C775.261538,266.238927 778.030769,266.238927 780.8,266.238927 C790.674118,267.088822 800.519475,264.310639 808.492308,258.424658 C814.543137,252.92374 817.797388,244.992635 817.353846,236.82774 C817.631994,229.312639 814.458565,222.082786 808.738462,217.199772 C801.616861,211.813739 792.784411,209.190614 783.876923,209.81621 L783.876923,210.000799 Z M574.646154,226.736872 C570.037839,221.482535 564.349271,217.284928 557.969231,214.430936 C551.23669,211.411914 543.932238,209.879877 536.553846,209.939269 C529.115408,209.874513 521.74965,211.406204 514.953846,214.430936 C508.518592,217.250675 502.782912,221.452038 498.153846,226.736872 C493.387743,232.409376 489.677735,238.890545 487.2,245.872603 C481.946988,261.481345 481.946988,278.38007 487.2,293.988813 C489.664725,300.958202 493.376379,307.421397 498.153846,313.063014 C502.842649,318.308972 508.589166,322.502911 515.015385,325.36895 C521.773496,328.449266 529.127107,330.003807 536.553846,329.922146 C551.146575,330.085891 565.074507,323.831589 574.646154,312.816895 C579.468047,307.206571 583.184701,300.734672 585.6,293.742694 C590.853012,278.133952 590.853012,261.235226 585.6,245.626484 C583.219139,238.658022 579.567792,232.190844 574.830769,226.552283 L574.646154,226.736872 Z M1920,0 L1920,539 L0,539 L0,0 L1920,0 Z M337.046154,262.670205 L265.353846,262.670205 L265.353846,292.204452 L305.230769,292.204452 L305.230769,322.969292 C300.815688,325.343657 296.123591,327.16236 291.261538,328.383904 C285.208136,329.767798 279.008518,330.408333 272.8,330.291324 C264.92105,330.389991 257.106601,328.86084 249.846154,325.799658 C242.9695,322.901642 236.704956,318.725875 231.384615,313.493721 C226.02531,308.040362 221.837071,301.549517 219.076923,294.419521 C216.008209,286.710142 214.481952,278.473711 214.584615,270.176826 C214.540254,262.21439 215.872687,254.304197 218.523077,246.795548 C220.841883,239.767888 224.522159,233.2656 229.353846,227.659817 C234.50872,222.138205 240.810076,217.811892 247.815385,214.984703 C255.813848,211.705397 264.403569,210.113384 273.046154,210.308447 C280.858343,210.336306 288.620163,211.56059 296.061538,213.938699 C303.751085,216.39897 311.077431,219.875384 317.846154,224.275685 L319.569231,225.321689 L334.769231,198.617808 L333.230769,197.694863 C324.474941,192.226149 315.095259,187.826177 305.292308,184.589041 C294.364102,181.168823 282.957001,179.527598 271.507692,179.728196 C259.537041,179.612318 247.64709,181.697977 236.430769,185.881164 C214.221759,194.196945 196.269483,211.060813 186.584615,232.705251 C181.346096,244.296932 178.74011,256.90474 178.953846,269.623059 C178.594582,294.224913 188.626526,317.837944 206.584615,334.659932 C215.118796,342.667612 225.130723,348.937236 236.061538,353.118836 C247.267967,357.454672 259.183835,359.666409 271.2,359.640982 L271.507692,359.640982 C283.427636,359.800912 295.300821,358.119809 306.707692,354.657078 C317.064578,351.265004 326.948758,346.571722 336.123077,340.68984 L337.046154,340.074543 L337.046154,262.670205 Z M624.861538,269.807648 C624.992399,257.498453 622.757019,245.278729 618.276923,233.812785 C610.084969,212.366522 593.475823,195.203964 572.307692,186.311872 C561.206933,181.734179 549.299629,179.432568 537.292308,179.543607 C525.24784,179.462308 513.306111,181.762488 502.153846,186.311872 C491.56773,190.658593 481.946915,197.057612 473.846154,205.139954 C465.834987,213.365777 459.557089,223.116053 455.384615,233.812785 C450.756392,245.264913 448.435083,257.518005 448.553846,269.869178 C448.467948,282.094546 450.702318,294.225239 455.138462,305.617922 C459.30446,316.281586 465.584157,325.992798 473.6,334.167694 C481.48041,342.258415 490.922661,348.663995 501.353846,352.995776 C512.405689,357.599362 524.273982,359.922453 536.246154,359.825571 L536.246154,359.825571 C548.213027,359.930151 560.078829,357.628472 571.138462,353.057306 C581.705013,348.673842 591.31906,342.279323 599.446154,334.229224 C607.54402,326.035628 613.925043,316.308571 618.215385,305.617922 C622.770425,294.236031 625.029144,282.065782 624.861538,269.807648 Z M866.584615,359.456393 L819.569231,285.620776 C829.037681,281.442992 837.171387,274.736835 843.076923,266.238927 C849.114954,257.13167 852.228088,246.398259 852,235.474087 C852.088072,227.945952 850.665139,220.476619 847.815385,213.507991 C844.863882,206.606961 840.306707,200.510499 834.523077,195.725913 C827.936413,190.454726 820.392976,186.505956 812.307692,184.096804 C801.935665,181.083689 791.168344,179.652399 780.369231,179.851256 C771.630769,179.851256 763.630769,179.851256 756.307692,180.651142 C748.984615,181.451027 742.030769,181.820205 735.138462,182.620091 L733.415385,182.620091 L733.415385,359.210274 L766.461538,359.210274 L766.461538,293.988813 C768.615385,293.988813 770.769231,293.988813 772.984615,293.988813 C775.2,293.988813 778.707692,293.988813 781.538462,293.988813 L786.215385,293.988813 C787.341792,294.078873 788.473593,294.078873 789.6,293.988813 L826.523077,355.518493 L829.169231,359.333333 L866.584615,359.456393 Z M1018.27692,179.851256 L985.230769,179.851256 L985.230769,359.456393 L1018.27692,359.456393 L1018.27692,179.851256 Z M1260.55385,329.060731 L1185.53846,329.060731 L1185.53846,179.851256 L1152.55385,179.851256 L1152.55385,359.456393 L1260.55385,359.456393 L1260.55385,329.060731 Z M1480.73846,329.060731 L1405.72308,329.060731 L1405.72308,180.035845 L1372.67692,180.035845 L1372.67692,359.456393 L1480.73846,359.456393 L1480.73846,329.060731 Z M1741.04615,359.456393 L1659.63077,180.035845 L1652.98462,180.035845 L1571.32308,359.456393 L1605.72308,359.456393 L1623.38462,317.800799 L1688.36923,317.800799 L1706.03077,359.456393 L1741.04615,359.456393 L1741.04615,359.456393 Z" id="GG" fill="#E86D20"></path>
        </g>
    </g>
</svg>