<?xml version="1.0" encoding="UTF-8"?>
<svg width="46px" height="44px" viewBox="0 0 46 44" version="1.1" xmlns="http://www.w3.org/2000/svg" xmlns:xlink="http://www.w3.org/1999/xlink">
    <title>growth</title>
    <defs>
        <linearGradient x1="50%" y1="0%" x2="50%" y2="100%" id="linearGradient-1">
            <stop stop-color="#005E91" offset="0%"></stop>
            <stop stop-color="#003058" offset="100%"></stop>
        </linearGradient>
        <linearGradient x1="50%" y1="0%" x2="50%" y2="100%" id="linearGradient-2">
            <stop stop-color="#005E91" offset="0%"></stop>
            <stop stop-color="#003058" offset="100%"></stop>
        </linearGradient>
        <linearGradient x1="50%" y1="0%" x2="50%" y2="100%" id="linearGradient-3">
            <stop stop-color="#005E91" offset="0%"></stop>
            <stop stop-color="#003058" offset="100%"></stop>
        </linearGradient>
    </defs>
    <g id="⏹️-Product-Wireframe" stroke="none" stroke-width="1" fill="none" fill-rule="evenodd">
        <g id="sections-/-Fraud-Icons" transform="translate(-181.000000, -839.000000)" fill-rule="nonzero">
            <g id="growth" transform="translate(181.000000, 839.000000)">
                <path d="M12.4817814,31.4042308 C12.3632532,31.4042308 12.2428133,31.3812899 12.1261969,31.335408 C5.9225852,28.8539633 1.91174474,22.9313781 1.91174474,16.2498303 C1.91174474,7.28948269 9.20122743,-2.54695563e-15 18.161575,-2.54695563e-15 C27.1219226,-2.54695563e-15 34.4114053,7.28948269 34.4114053,16.2498303 C34.4114053,21.6199212 31.7540801,26.6497217 27.3054501,29.7085132 C26.8676606,30.0105689 26.2750197,29.897776 25.9767875,29.4618982 C25.6785553,29.0260204 25.7875248,28.4314678 26.2234026,28.1332356 C30.152038,25.433852 32.4996606,20.9890455 32.4996606,16.2498303 C32.4996606,8.34285404 26.0685513,1.91174474 18.161575,1.91174474 C10.2545988,1.91174474 3.82348948,8.34285404 3.82348948,16.2498303 C3.82348948,22.1456511 7.36212899,27.3685377 12.8373659,29.5613089 C13.3286843,29.7582186 13.5657407,30.3145363 13.368831,30.8020312 C13.2197149,31.1767332 12.8622186,31.4042308 12.4817814,31.4042308 Z" id="Path" fill="url(#linearGradient-1)"></path>
                <path d="M19.1174474,22.9409369 L14.3380855,22.9409369 C13.810444,22.9409369 13.3822132,22.512706 13.3822132,21.9850645 C13.3822132,21.4574229 13.810444,21.0291921 14.3380855,21.0291921 L19.1174474,21.0291921 C20.1727305,21.0291921 21.0291921,20.1708187 21.0291921,19.1174474 C21.0291921,18.064076 20.1727305,17.2057026 19.1174474,17.2057026 L17.2057026,17.2057026 C15.0970482,17.2057026 13.3822132,15.4908676 13.3822132,13.3822132 C13.3822132,11.2735587 15.0970482,9.55872369 17.2057026,9.55872369 L21.9850645,9.55872369 C22.512706,9.55872369 22.9409369,9.98695451 22.9409369,10.5145961 C22.9409369,11.0422376 22.512706,11.4704684 21.9850645,11.4704684 L17.2057026,11.4704684 C16.1504196,11.4704684 15.2939579,12.3288418 15.2939579,13.3822132 C15.2939579,14.4355845 16.1504196,15.2939579 17.2057026,15.2939579 L19.1174474,15.2939579 C21.2261018,15.2939579 22.9409369,17.0087929 22.9409369,19.1174474 C22.9409369,21.2261018 21.2261018,22.9409369 19.1174474,22.9409369 Z" id="Path" fill="#B03478"></path>
                <path d="M18.161575,11.4704684 C17.6339335,11.4704684 17.2057026,11.0422376 17.2057026,10.5145961 L17.2057026,6.69110659 C17.2057026,6.16346504 17.6339335,5.73523422 18.161575,5.73523422 C18.6892166,5.73523422 19.1174474,6.16346504 19.1174474,6.69110659 L19.1174474,10.5145961 C19.1174474,11.0422376 18.6892166,11.4704684 18.161575,11.4704684 Z" id="Path" fill="#B03478"></path>
                <path d="M18.161575,26.7644263 C17.6339335,26.7644263 17.2057026,26.3361955 17.2057026,25.808554 L17.2057026,21.9850645 C17.2057026,21.4574229 17.6339335,21.0291921 18.161575,21.0291921 C18.6892166,21.0291921 19.1174474,21.4574229 19.1174474,21.9850645 L19.1174474,25.808554 C19.1174474,26.3361955 18.6892166,26.7644263 18.161575,26.7644263 Z" id="Path" fill="#B03478"></path>
                <path d="M0.955872369,43.970129 C0.640434487,43.970129 0.332643585,43.8133659 0.14911609,43.528516 C-0.133822132,43.0830794 -0.00191174474,42.4923503 0.441613035,42.2094121 L21.4708052,28.8271989 C21.8493306,28.5863191 22.3425608,28.6398479 22.6599104,28.9571976 L29.6301317,35.9274189 L44.247332,21.3102186 C44.6201222,20.9374284 45.2261453,20.9374284 45.5989355,21.3102186 C45.9717257,21.6830088 45.9717257,22.2890319 45.5989355,22.6618221 L30.3049776,37.95578 C29.9321874,38.3285703 29.3261643,38.3285703 28.9533741,37.95578 L21.8474189,30.8498248 L1.4701317,43.8210129 C1.31145689,43.9223354 1.13366463,43.970129 0.955872369,43.970129 Z" id="Path" fill="url(#linearGradient-2)"></path>
                <path d="M44.9260014,30.5879158 C44.3983598,30.5879158 43.970129,30.159685 43.970129,29.6320434 L43.970129,22.9409369 L37.2790224,22.9409369 C36.7513809,22.9409369 36.32315,22.512706 36.32315,21.9850645 C36.32315,21.4574229 36.7513809,21.0291921 37.2790224,21.0291921 L44.9260014,21.0291921 C45.4536429,21.0291921 45.8818737,21.4574229 45.8818737,21.9850645 L45.8818737,29.6320434 C45.8818737,30.159685 45.4536429,30.5879158 44.9260014,30.5879158 Z" id="Path" fill="url(#linearGradient-3)"></path>
            </g>
        </g>
    </g>
</svg>