<?xml version="1.0" encoding="UTF-8"?> <!-- Generator: Adobe Illustrator 23.1.1, SVG Export Plug-In . SVG Version: 6.00 Build 0) --> <svg xmlns="http://www.w3.org/2000/svg" xmlns:xlink="http://www.w3.org/1999/xlink" id="Layer_1" x="0px" y="0px" viewBox="0 0 100 100" style="enable-background:new 0 0 100 100;" xml:space="preserve"> <style type="text/css"> .st0{fill:#AF3478;} </style> <title>digital-river-new-icons-v1</title> <g> <title>digital-river-new-icons-v1</title> <path class="st0" d="M85.3,86.8H14.7c-0.8,0-1.5-0.7-1.5-1.5V20.9c0-0.8,0.7-1.5,1.5-1.5H27c0.8,0.1,1.5,0.8,1.4,1.7 c-0.1,0.8-0.7,1.4-1.4,1.4H16.3v61.3h67.5V22.4H73c-0.8-0.1-1.5-0.8-1.4-1.7c0.1-0.8,0.7-1.4,1.4-1.4h12.3c0.8,0,1.5,0.7,1.5,1.5 v64.4C86.8,86.1,86.1,86.8,85.3,86.8z"></path> <path class="st0" d="M36.2,28.5H27c-0.8,0-1.5-0.7-1.5-1.5c0,0,0,0,0,0V14.7c0-0.8,0.7-1.5,1.5-1.5l0,0h9.2c0.8,0,1.5,0.7,1.5,1.5 V27C37.7,27.8,37.1,28.5,36.2,28.5C36.2,28.5,36.2,28.5,36.2,28.5z M28.5,25.5h6.1v-9.2h-6.1V25.5z"></path> <path class="st0" d="M73,28.5h-9.2c-0.8,0-1.5-0.7-1.5-1.5c0,0,0,0,0,0V14.7c0-0.8,0.7-1.5,1.5-1.5H73c0.8,0,1.5,0.7,1.5,1.5V27 C74.5,27.8,73.9,28.5,73,28.5C73,28.5,73,28.5,73,28.5z M65.3,25.5h6.1v-9.2h-6.1V25.5z"></path> <path class="st0" d="M63.8,22.4H36.2c-0.8-0.1-1.5-0.8-1.4-1.7c0.1-0.8,0.7-1.4,1.4-1.4h27.6c0.8,0.1,1.5,0.8,1.4,1.7 C65.2,21.7,64.6,22.3,63.8,22.4z"></path> <path class="st0" d="M85.3,37.7H14.7c-0.8,0-1.5-0.7-1.5-1.5c0-0.8,0.7-1.5,1.5-1.5h70.5c0.8,0,1.5,0.7,1.5,1.5 C86.8,37,86.1,37.7,85.3,37.7z"></path> <path class="st0" d="M33.1,80.7c-0.8,0-1.5-0.7-1.5-1.5V42.3c0.1-0.8,0.8-1.5,1.7-1.4c0.8,0.1,1.4,0.7,1.4,1.4v36.8 C34.7,80,34,80.7,33.1,80.7C33.1,80.7,33.1,80.7,33.1,80.7z"></path> <path class="st0" d="M48.5,80.7c-0.9,0-1.5-0.7-1.5-1.5l0,0V42.3c0.1-0.8,0.8-1.5,1.7-1.4c0.8,0.1,1.4,0.7,1.4,1.4v36.8 C50,80,49.3,80.7,48.5,80.7z"></path> <path class="st0" d="M63.8,80.7c-0.8,0-1.5-0.7-1.5-1.5c0,0,0,0,0,0V42.3c0-0.8,0.7-1.5,1.5-1.5c0.8,0,1.5,0.7,1.5,1.5v36.8 C65.3,80,64.7,80.7,63.8,80.7C63.8,80.7,63.8,80.7,63.8,80.7z"></path> <path class="st0" d="M79.1,50H20.9c-0.8,0.1-1.6-0.6-1.7-1.4c-0.1-0.8,0.6-1.6,1.4-1.7c0.1,0,0.2,0,0.2,0h58.3 c0.8-0.1,1.6,0.6,1.7,1.4c0.1,0.8-0.6,1.6-1.4,1.7C79.3,50,79.2,50,79.1,50z"></path> <path class="st0" d="M79.1,62.3H20.9c-0.8,0.1-1.6-0.6-1.7-1.4c-0.1-0.8,0.6-1.6,1.4-1.7c0.1,0,0.2,0,0.2,0h58.3 c0.8-0.1,1.6,0.6,1.7,1.4c0.1,0.8-0.6,1.6-1.4,1.7C79.3,62.3,79.2,62.3,79.1,62.3z"></path> <path class="st0" d="M79.1,74.5H20.9c-0.8,0-1.5-0.7-1.5-1.5c0-0.8,0.7-1.5,1.5-1.5c0,0,0,0,0,0h58.3c0.8,0,1.5,0.7,1.5,1.5 C80.7,73.8,80,74.5,79.1,74.5C79.1,74.5,79.1,74.5,79.1,74.5z"></path> </g> </svg> 