<?xml version="1.0" encoding="UTF-8"?>
<svg width="65px" height="57px" viewBox="0 0 65 57" version="1.1" xmlns="http://www.w3.org/2000/svg" xmlns:xlink="http://www.w3.org/1999/xlink">
    <title>ico-transactions</title>
    <g id="CB,-Sub,-MOR" stroke="none" stroke-width="1" fill="none" fill-rule="evenodd">
        <g id="Subscriptions" transform="translate(-782.000000, -1950.000000)" fill="#003058" fill-rule="nonzero">
            <g id="Stacked-Group" transform="translate(-2.000000, -6.359504)">
                <g id="Cards" transform="translate(0.000000, 1767.000000)">
                    <g id="components-/-card-/-old-stylee-copy" transform="translate(742.000000, 97.000000)">
                        <g id="ico-transactions" transform="translate(42.000000, 92.359504)">
                            <g id="Group" transform="translate(0.000000, -0.000000)">
                                <path d="M59.4,51.2 L5.4,51.2 C2.4,51.2 -1.77635684e-15,48.7 -1.77635684e-15,45.6 L-1.77635684e-15,5.6 C-1.77635684e-15,2.5 2.4,-1.77635684e-15 5.4,-1.77635684e-15 L59.4,-1.77635684e-15 C62.4,-1.77635684e-15 64.8,2.5 64.8,5.6 L64.8,45.6 C64.8,48.6 62.4,51.2 59.4,51.2 Z M5.4,2.6 C3.9,2.6 2.7,3.9 2.7,5.5 L2.7,45.5 C2.7,47.1 3.9,48.4 5.4,48.4 L59.4,48.4 C60.9,48.4 62.1,47.1 62.1,45.5 L62.1,5.5 C62.1,3.9 60.9,2.6 59.4,2.6 L5.4,2.6 Z" id="Shape"></path>
                                <path d="M51.3,56.6 L13.5,56.6 C12.8,56.6 12.1,56 12.1,55.3 C12.1,54.6 12.7,54 13.5,54 L51.3,54 C52,54 52.6,54.6 52.6,55.3 C52.6,56 52,56.6 51.3,56.6 Z" id="Path"></path>
                                <path d="M32.4,56.6 C31.7,56.6 31.1,56 31.1,55.3 L31.1,49.9 C31.1,49.2 31.7,48.6 32.4,48.6 C33.1,48.6 33.8,49.2 33.8,49.9 L33.8,55.3 C33.7,56 33.1,56.6 32.4,56.6 Z" id="Path"></path>
                                <path d="M32.4,47.1 C30.9,47.1 29.7,45.9 29.7,44.4 C29.7,42.9 30.9,41.7 32.4,41.7 C33.9,41.7 35.1,42.9 35.1,44.4 C35.1,45.9 33.9,47.1 32.4,47.1 Z M32.4,44.4 C32.4,44.4 32.4,44.4 32.4,44.4 L33.8,44.4 L32.4,44.4 Z" id="Shape"></path>
                                <rect id="Rectangle" x="1.3" y="37.7" width="62.1" height="2.7"></rect>
                            </g>
                            <path d="M31,26.9 C30.7,26.9 30.3,26.8 30,26.5 L24.6,21.1 C24.1,20.6 24.1,19.7 24.6,19.2 C25.1,18.7 26,18.7 26.5,19.2 L30.9,23.6 L40.7,13.8 C41.2,13.3 42.1,13.3 42.6,13.8 C43.1,14.3 43.1,15.2 42.6,15.7 L32,26.5 C31.7,26.7 31.4,26.9 31,26.9 Z" id="Path"></path>
                            <path d="M32.4,33.6 C25,33.6 18.9,27.5 18.9,20.1 C18.9,12.7 25,6.6 32.4,6.6 C34.6,6.6 36.7,7.1 38.6,8.1 C39.3,8.4 39.5,9.3 39.2,9.9 C38.9,10.6 38,10.8 37.4,10.5 C35.9,9.7 34.2,9.3 32.4,9.3 C26.4,9.3 21.6,14.1 21.6,20.1 C21.6,26.1 26.4,30.9 32.4,30.9 C38.4,30.9 43.2,26.1 43.2,20.1 C43.2,19.4 43.8,18.8 44.6,18.8 C45.3,18.8 45.9,19.4 45.9,20.1 C45.9,27.6 39.8,33.6 32.4,33.6 Z" id="Path"></path>
                        </g>
                    </g>
                </g>
            </g>
        </g>
    </g>
</svg>