<?xml version="1.0" encoding="UTF-8"?> <!-- Generator: Adobe Illustrator 23.1.1, SVG Export Plug-In . SVG Version: 6.00 Build 0) --> <svg xmlns="http://www.w3.org/2000/svg" xmlns:xlink="http://www.w3.org/1999/xlink" id="Layer_1" x="0px" y="0px" viewBox="0 0 100 100" style="enable-background:new 0 0 100 100;" xml:space="preserve"> <style type="text/css"> .st0{enable-background:new ;} .st1{fill:#AF3478;} </style> <title>digital-river-new-icons-v1</title> <g class="st0"> <path class="st1" d="M5.1,66.8V32.5L1.3,33v-1.5l5.9-1.5v36.9H5.1z"></path> <path class="st1" d="M26.6,29.6c5.8,0,12.1,3.7,12.1,16.9c0,13.3-4.9,21.2-14.5,21.2c-2.9,0-5.9-0.9-7.3-1.9v-2.1 c1.7,1,4.5,2,7.2,2c10,0,12.4-8.9,12.8-20.3c-1.2,4.3-5.2,7.5-10.6,7.5c-6.5,0-11.2-4.7-11.2-11.8C15.1,34.1,20.3,29.6,26.6,29.6z M26.6,51.1c5.2,0,9.4-3.6,9.4-9.6c0-5.8-3.8-10.1-9.3-10.1c-5.5,0-9.6,3.7-9.6,9.8C17.2,47.1,20.8,51.1,26.6,51.1z"></path> <path class="st1" d="M55.8,29.6c5.8,0,12.1,3.7,12.1,16.9c0,13.3-4.9,21.2-14.5,21.2c-2.9,0-5.9-0.9-7.3-1.9v-2.1 c1.7,1,4.5,2,7.2,2c10,0,12.4-8.9,12.8-20.3c-1.2,4.3-5.2,7.5-10.6,7.5c-6.5,0-11.2-4.7-11.2-11.8C44.3,34.1,49.5,29.6,55.8,29.6z M55.8,51.1c5.2,0,9.4-3.6,9.4-9.6c0-5.8-3.8-10.1-9.3-10.1c-5.5,0-9.6,3.7-9.6,9.8C46.4,47.1,50,51.1,55.8,51.1z"></path> <path class="st1" d="M92.7,57.1v9.8h-2v-9.8H72.8v-1.5L91.5,30h1.2v25.3h6.6v1.8H92.7z M90.7,34L75.3,55.2h15.4V34z"></path> </g> </svg> 