<?xml version="1.0" encoding="UTF-8"?> <!-- Generator: Adobe Illustrator 23.1.1, SVG Export Plug-In . SVG Version: 6.00 Build 0) --> <svg xmlns="http://www.w3.org/2000/svg" xmlns:xlink="http://www.w3.org/1999/xlink" id="Layer_1" x="0px" y="0px" viewBox="0 0 100 100" style="enable-background:new 0 0 100 100;" xml:space="preserve"> <style type="text/css"> .st0{fill:#003058;} .st1{fill:none;stroke:#003058;stroke-width:2.7875;stroke-miterlimit:10;} </style> <title>digital-river-new-icons-v1</title> <g> <g> <g> <path class="st0" d="M38.3,74.7c0,3.4,2.8,6.2,6.2,6.2h9.4c3.4,0,6.2-2.8,6.2-6.2V65v-1.6l1.3-0.9c8.9-6.7,10.7-19.4,4-28.3 c-3.8-5.1-9.9-8.1-16.2-8.1C38,26.1,29,35.2,29,46.3c0,6.3,3,12.4,8.1,16.2l1.3,0.9V65L38.3,74.7L38.3,74.7z M32,46.3 c0-9.5,7.7-17.2,17.2-17.2s17.2,7.7,17.2,17.2c0,6.1-3.3,11.8-8.6,14.8c-0.5,0.3-0.8,0.8-0.8,1.3v12.2v3.1h-3.1h-9.4h-3.1v-3.1 V62.5c0-0.6-0.3-1.1-0.8-1.3C35.3,58.1,32,52.4,32,46.3z"></path> <path class="st0" d="M50.7,13.6V4.2c0-0.8-0.7-1.5-1.5-1.5s-1.5,0.7-1.5,1.5v9.4c0,0.8,0.7,1.5,1.5,1.5S50.7,14.4,50.7,13.6z"></path> <path class="st0" d="M91.3,47.8c0.8,0,1.5-0.7,1.5-1.5s-0.7-1.5-1.5-1.5h-9.4c-0.8,0-1.5,0.7-1.5,1.5s0.7,1.5,1.5,1.5H91.3z"></path> <path class="st0" d="M16.4,44.8H7.1c-0.8,0-1.5,0.7-1.5,1.5s0.7,1.5,1.5,1.5h9.4c0.8,0,1.5-0.7,1.5-1.5S17.3,44.8,16.4,44.8z"></path> <path class="st0" d="M26.7,22.5L26.7,22.5L26.7,22.5L20,15.8c-0.3-0.3-0.7-0.4-1.1-0.4c-0.3,0-0.7,0.1-1.2,0.5 c-0.4,0.4-0.4,0.9-0.4,1.1c0,0.2,0.1,0.7,0.5,1.1l6.8,6.5c0.3,0.3,0.7,0.4,1.1,0.4h0.1l0,0l0,0c0.4,0,0.8-0.2,1.1-0.5 C27.4,24,27.4,23.1,26.7,22.5z"></path> <path class="st0" d="M73.9,24.7l6.7-6.5c0.4-0.4,0.4-0.8,0.4-1s0-0.8-0.4-1.2c-0.4-0.4-0.9-0.5-1.1-0.5s-0.7,0.1-1.1,0.4l0,0l0,0 l-6.7,6.4c-0.6,0.6-0.6,1.5,0,2.1l0,0l0,0c0.3,0.3,0.7,0.5,1.1,0.5C73.2,25.1,73.6,24.9,73.9,24.7z"></path> </g> </g> </g> <g> <path class="st0" d="M57,75C57.1,75,57.1,75,57,75v9.1l0,0H41.1l0,0V75l0,0H57 M57,72.2H41.1c-1.6,0-2.8,1.3-2.8,2.8v9.1 c0,1.6,1.3,2.8,2.8,2.8H57c1.6,0,2.8-1.3,2.8-2.8V75C59.9,73.5,58.6,72.2,57,72.2L57,72.2z"></path> </g> <path class="st1" d="M36.9,47.3c0,0-0.8-11.8,12.2-13.7"></path> </svg> 