<?xml version="1.0" encoding="UTF-8"?>
<svg width="65px" height="62px" viewBox="0 0 65 62" version="1.1" xmlns="http://www.w3.org/2000/svg" xmlns:xlink="http://www.w3.org/1999/xlink">
    <title>ico-optimize</title>
    <g id="CB,-Sub,-MOR" stroke="none" stroke-width="1" fill="none" fill-rule="evenodd">
        <g id="Subscriptions" transform="translate(-194.000000, -1948.000000)" fill="#003058" fill-rule="nonzero">
            <g id="Stacked-Group" transform="translate(-2.000000, -6.359504)">
                <g id="Cards" transform="translate(0.000000, 1767.000000)">
                    <g id="components-/-card-/-old-stylee" transform="translate(150.000000, 97.000000)">
                        <g id="ico-optimize" transform="translate(46.000000, 90.359504)">
                            <path d="M12.1,59.5 L1.3,59.5 C0.6,59.5 0,58.9 0,58.2 L0,36.5 C0,35.8 0.6,35.2 1.3,35.2 L12.1,35.2 C12.8,35.2 13.5,35.8 13.5,36.5 L13.5,58.2 C13.4,58.9 12.8,59.5 12.1,59.5 Z M2.6,56.8 L10.7,56.8 L10.7,37.8 L2.6,37.8 L2.6,56.8 Z" id="Shape"></path>
                            <path d="M34.2,61.8 C30.6,61.8 26.7,60.5 19.6,58 C17.3,57.2 14.8,56.3 11.7,55.3 C11,55.1 10.6,54.3 10.8,53.6 C11,52.9 11.8,52.5 12.5,52.7 C15.5,53.7 18.1,54.6 20.4,55.4 C35.2,60.5 35.2,60.5 49.4,52.9 C52.5,51.3 56.3,49.3 60.9,46.9 C58.9,45.3 57.3,45.3 55.6,45.8 L43.7,49.8 C43,50 42.2,49.6 42,48.9 C41.8,48.2 42.1,47.4 42.9,47.2 L54.9,43.2 C58.5,42.2 61.2,43.1 64.4,46.2 C64.7,46.5 64.8,46.9 64.8,47.4 C64.7,47.8 64.5,48.2 64.1,48.4 C58.6,51.1 54.3,53.4 50.8,55.3 C42.4,59.8 38.6,61.8 34.2,61.8 Z" id="Path"></path>
                            <path d="M40.4,51.3 L25.6,51.3 C24.9,51.3 24.3,50.7 24.3,49.9 C24.3,49.2 24.9,48.6 25.6,48.6 L40.5,48.6 C41.9,48.6 42.4,47.9 42.4,47.3 C42.4,46.7 41.9,45.9 40.5,45.9 L32.4,45.9 C32,45.9 31.7,45.8 31.4,45.5 C29.9,44 25.8,40.5 20.2,40.5 L12.1,40.5 C11.4,40.5 10.8,39.9 10.8,39.1 C10.8,38.4 11.4,37.8 12.1,37.8 L20.2,37.8 C26.3,37.8 30.9,41.3 32.9,43.2 L40.5,43.2 C43.5,43.2 45.1,45.2 45.1,47.3 C45,49.3 43.5,51.3 40.4,51.3 Z" id="Path"></path>
                            <path d="M47.2,18.9 C42,18.9 37.7,14.7 37.7,9.4 C37.7,4.1 42,0 47.2,0 C52.4,0 56.7,4.2 56.7,9.5 C56.7,14.8 52.4,18.9 47.2,18.9 Z M47.2,2.7 C43.5,2.7 40.4,5.7 40.4,9.5 C40.4,13.3 43.4,16.3 47.2,16.3 C50.9,16.3 54,13.3 54,9.5 C54,5.7 50.9,2.7 47.2,2.7 Z" id="Shape"></path>
                            <path d="M33.7,37.8 C28.5,37.8 24.3,33.6 24.3,28.3 C24.3,23 28.5,18.9 33.7,18.9 C38.9,18.9 43.2,23.1 43.2,28.3 C43.2,33.5 38.9,37.8 33.7,37.8 Z M33.7,21.6 C30,21.6 26.9,24.6 26.9,28.4 C26.9,32.2 29.9,35.2 33.7,35.2 C37.4,35.2 40.5,32.2 40.5,28.4 C40.5,24.6 37.4,21.6 33.7,21.6 Z" id="Shape"></path>
                            <path d="M33.7,32.4 C33,32.4 32.4,31.8 32.4,31.1 L32.4,25.7 C32.4,25 33,24.4 33.7,24.4 C34.4,24.4 35.1,25 35.1,25.7 L35.1,31.1 C35,31.8 34.4,32.4 33.7,32.4 Z" id="Path"></path>
                            <path d="M47.2,13.5 C46.5,13.5 45.9,12.9 45.9,12.2 L45.9,6.8 C45.9,6.1 46.5,5.4 47.2,5.4 C47.9,5.4 48.6,6 48.6,6.8 L48.6,12.2 C48.5,12.9 47.9,13.5 47.2,13.5 Z" id="Path"></path>
                        </g>
                    </g>
                </g>
            </g>
        </g>
    </g>
</svg>