<?xml version="1.0" encoding="UTF-8"?> <!-- Generator: Adobe Illustrator 23.1.1, SVG Export Plug-In . SVG Version: 6.00 Build 0) --> <svg xmlns="http://www.w3.org/2000/svg" xmlns:xlink="http://www.w3.org/1999/xlink" id="Layer_1" x="0px" y="0px" viewBox="0 0 100 100" style="enable-background:new 0 0 100 100;" xml:space="preserve"> <style type="text/css"> .st0{fill:none;stroke:#003058;stroke-width:3;stroke-miterlimit:10;} </style> <title>digital-river-new-icons-v1</title> <path class="st0" d="M61.7,75.7"></path> <g> <path class="st0" d="M19.9,92.9l1.8-30.5c0,0,0.1-5.2,7.4-10c2.2-1.4,4.5-2.7,6.8-3.6l10.7,9.8L41.9,67L29.7,52"></path> <line class="st0" x1="48.4" y1="58.9" x2="48.4" y2="92.4"></line> <path class="st0" d="M37.7,50.3l1.5-6.6c0,0-5.2-2.3-6.2-10.9c0,0-1.8,0.3-1.8-2.6c-0.1-0.9-2-3.6,2.5-4.4c0,0-4.2-12.7,6.7-16.7 C45.2,7.4,49.1,8,49.1,8"></path> <path class="st0" d="M33.2,23.5c0,0,4.7-13.6,15.9-9.3"></path> </g> <g> <path class="st0" d="M77,92.9l-1.8-30.5c0,0-0.1-5.2-7.4-10c-2.2-1.4-4.5-2.7-6.8-3.6l-10.7,9.8L55,67l12.2-15"></path> <line class="st0" x1="48.4" y1="58.9" x2="48.4" y2="92.4"></line> <path class="st0" d="M59.2,50.3l-1.5-6.6c0,0,5.2-2.3,6.2-10.9c0,0,1.8,0.3,1.8-2.6c0.1-0.9,2-3.6-2.5-4.4c0,0,4.2-12.7-6.7-16.7 C51.7,7.4,47.8,8,47.8,8"></path> <path class="st0" d="M63.1,22.2c-7.2,8.2-15.1-4.7-15.3-9.9"></path> </g> </svg> 