<?xml version="1.0" encoding="UTF-8"?> <!-- Generator: Adobe Illustrator 23.1.1, SVG Export Plug-In . SVG Version: 6.00 Build 0) --> <svg xmlns="http://www.w3.org/2000/svg" xmlns:xlink="http://www.w3.org/1999/xlink" id="Layer_1" x="0px" y="0px" viewBox="0 0 100 100" style="enable-background:new 0 0 100 100;" xml:space="preserve"> <style type="text/css"> .st0{fill:#AF3478;} </style> <title>digital-river-new-icons-v1</title> <g> <path class="st0" d="M32.4,62.3v6.8h-1.9v-6.8c-6.5-0.2-11.8-2.6-14.4-5.2l0.5-2.7c3.2,2.8,8,5.2,13.9,5.4V36.5 c-8.3-2.3-13.2-6.7-13.2-13.4c0-6.5,5.2-11.5,13.2-11.9V4.3h1.9v6.8c4.2,0.2,8.5,2,11.1,3.9l-0.6,2.4c-3-2.1-6.8-3.6-10.5-3.7v20.5 c8.7,2.7,13.8,7,13.8,14.6C46.2,57.6,39.5,61.9,32.4,62.3z M30.6,13.7c-6.6,0.3-10.4,4-10.4,9.4c0,4.5,2.4,8.1,10.4,10.6V13.7z M32.4,37v22.8c6.2-0.4,11-4.4,11-10.9C43.4,43.6,40.9,39.8,32.4,37z"></path> <path class="st0" d="M66.1,63.3c-4.9,0-10.1-1.9-12.8-4.2v-2.9c3,2.4,7.5,4.4,12.8,4.4c8,0,13.9-4.9,13.9-13.7 c0-7.9-5.1-12.8-12.8-12.8c-3.5,0-6.3,1-7.9,2.5l-1.5-1.9L77.9,14H53.4v-2.6h28.8V13l-19,19.3c1-0.3,2.6-0.7,4.1-0.7 c10.4,0,15.5,7.4,15.5,15.3C82.8,57.1,75.4,63.3,66.1,63.3z"></path> </g> <g> <path class="st0" d="M16.8,73.7h1.1v8.8c1-2.4,3.4-3.8,5.9-3.8c3.8,0,6.7,3,6.7,7.3c0,4.3-3,7.3-6.7,7.3c-2.5,0-5-1.4-5.9-3.9 l0,3.5h-1V73.7z M23.6,92.4c3.2,0,5.8-2.4,5.8-6.4c0-4-2.6-6.4-5.8-6.4c-3.2,0-5.8,2.4-5.8,6.4C17.8,90,20.4,92.4,23.6,92.4z"></path> <path class="st0" d="M33.8,75.4v-1.7h1.1v1.7H33.8z M33.8,92.9V79.1h1.1v13.9H33.8z"></path> <path class="st0" d="M39.1,92.9V73.7h1.1v19.3H39.1z"></path> <path class="st0" d="M44.3,92.9V73.7h1.1v19.3H44.3z"></path> <path class="st0" d="M49.6,75.4v-1.7h1.1v1.7H49.6z M49.6,92.9V79.1h1.1v13.9H49.6z"></path> <path class="st0" d="M61,93.4c-4,0-7.1-3.1-7.1-7.4c0-4.2,3.1-7.4,7.1-7.4c4,0,7.1,3.1,7.1,7.4C68.1,90.2,65,93.4,61,93.4z M61,79.6c-3.4,0-6.1,2.6-6.1,6.4s2.7,6.4,6.1,6.4c3.4,0,6.1-2.6,6.1-6.4S64.4,79.6,61,79.6z"></path> <path class="st0" d="M82,92.9v-8c0-4-1.6-5.3-4.1-5.3c-2.6,0-5.4,2.4-5.4,5.2v8.1h-1.1V79.1h1v3.4c1-2.2,3.4-3.8,5.7-3.8 c3.1,0,5,1.8,5,6.2v8.1H82z"></path> </g> </svg> 