<?xml version="1.0" encoding="UTF-8"?> <!-- Generator: Adobe Illustrator 23.1.1, SVG Export Plug-In . SVG Version: 6.00 Build 0) --> <svg xmlns="http://www.w3.org/2000/svg" xmlns:xlink="http://www.w3.org/1999/xlink" id="Layer_1" x="0px" y="0px" viewBox="0 0 75 75" style="enable-background:new 0 0 75 75;" xml:space="preserve"> <style type="text/css"> .st0{fill:#003058;} .st1{fill:none;stroke:#003058;stroke-width:2.7;stroke-miterlimit:10;} </style> <g> <g> <path class="st0" d="M49,48.2c-11.9,0-21.6-9.7-21.6-21.6S37.1,5,49,5s21.6,9.7,21.6,21.6S61,48.2,49,48.2z M49,7.7 c-10.4,0-18.9,8.5-18.9,18.9S38.6,45.5,49,45.5S67.9,37,67.9,26.6S59.5,7.7,49,7.7z"></path> </g> <g> <path class="st0" d="M49,38.7c-0.7,0-1.4-0.6-1.4-1.3v-2.7c0-0.7,0.6-1.3,1.4-1.3c0.7,0,1.3,0.6,1.3,1.3v2.7 C50.4,38.1,49.8,38.7,49,38.7z"></path> </g> <g> <path class="st0" d="M49,19.8c-0.7,0-1.4-0.6-1.4-1.4v-2.7c0-0.7,0.6-1.3,1.4-1.3c0.7,0,1.3,0.6,1.3,1.3v2.7 C50.4,19.2,49.8,19.8,49,19.8z"></path> </g> <g> <path class="st0" d="M49,36c-3,0-5.4-2.4-5.4-5.4c0-0.7,0.6-1.3,1.4-1.3c0.7,0,1.3,0.6,1.3,1.3c0,1.5,1.2,2.7,2.7,2.7 c1.5,0,2.7-1.2,2.7-2.7c0-1.5-1.2-2.7-2.7-2.7c-3,0-5.4-2.4-5.4-5.4s2.4-5.4,5.4-5.4c3,0,5.4,2.4,5.4,5.4c0,0.7-0.6,1.3-1.3,1.3 s-1.3-0.6-1.3-1.3c0-1.5-1.2-2.7-2.7-2.7c-1.5,0-2.7,1.2-2.7,2.7s1.2,2.7,2.7,2.7c3,0,5.4,2.4,5.4,5.4C54.4,33.6,52,36,49,36z"></path> </g> <g> <path class="st0" d="M27.4,69.8c-11.9,0-21.6-9.7-21.6-21.6c0-6,2.5-11.7,6.9-15.8c4.4-4.1,10.2-6.1,16.3-5.7 c0.7,0.1,1.3,0.7,1.3,1.4c-0.1,0.7-0.7,1.3-1.4,1.3c-5.3-0.4-10.4,1.4-14.2,5c-3.8,3.6-6,8.6-6,13.8c0,10.4,8.5,18.9,18.9,18.9 c5.2,0,10.2-2.2,13.8-6c3.6-3.8,5.4-8.9,5.1-14.3c0-0.7,0.5-1.4,1.3-1.4c0.8,0,1.4,0.5,1.4,1.3c0.4,6.1-1.7,11.9-5.8,16.3 C39.1,67.3,33.4,69.8,27.4,69.8z"></path> </g> <g> <path class="st0" d="M27.4,60.3c-6,0-10.8-4.8-10.8-10.8s4.8-10.8,10.8-10.8c0.7,0,1.4,0.6,1.4,1.4c0,0.7-0.6,1.3-1.4,1.3 c-4.5,0-8.1,3.6-8.1,8.1s3.6,8.1,8.1,8.1c0.7,0,1.4,0.6,1.4,1.3C28.8,59.7,28.2,60.3,27.4,60.3z"></path> </g> <g> <path class="st0" d="M26.1,48.2H15.3c-0.7,0-1.3-0.6-1.3-1.3c0-0.7,0.6-1.4,1.3-1.4h10.8c0.7,0,1.4,0.6,1.4,1.4 C27.4,47.6,26.8,48.2,26.1,48.2z"></path> </g> <g> <path class="st0" d="M26.1,53.6H15.3c-0.7,0-1.3-0.6-1.3-1.4c0-0.7,0.6-1.3,1.3-1.3h10.8c0.7,0,1.4,0.6,1.4,1.3 C27.4,53,26.8,53.6,26.1,53.6z"></path> </g> </g> </svg> 