<?xml version="1.0" encoding="UTF-8"?>
<svg width="54px" height="48px" viewBox="0 0 54 48" version="1.1" xmlns="http://www.w3.org/2000/svg" xmlns:xlink="http://www.w3.org/1999/xlink">
    <!-- Generator: Sketch 64 (93537) - https://sketch.com -->
    <title>icon-2</title>
    <desc>Created with Sketch.</desc>
    <g id="Page-1" stroke="none" stroke-width="1" fill="none" fill-rule="evenodd">
        <g id="Artboard" transform="translate(-162.000000, -74.000000)" fill="#00A7E1" fill-rule="nonzero">
            <g id="icon-2" transform="translate(162.000000, 74.000000)">
                <path d="M47.09,35.25 L53.84,15 C53.9478572,14.6587525 53.8845634,14.286436 53.67,14 C53.4602786,13.6965321 53.1187233,13.5109043 52.75,13.5 L13,13.5 L10,0.83 C9.88531976,0.330333264 9.43234967,-0.0177826376 8.92,1.99840144e-15 L1.08,1.99840144e-15 C0.488008071,0.010669104 0.010669104,0.488008071 9.27426538e-16,1.08 C-0.0135323765,1.37878649 0.0930045004,1.67057342 0.295873186,1.89034783 C0.498741872,2.11012224 0.781087234,2.23962441 1.08,2.25 L8.08,2.25 L11,14.44 C10.9935531,14.5165311 10.9935531,14.5934689 11,14.67 C10.9995443,14.9348309 11.0955213,15.1907695 11.27,15.39 L15.85,34.82 C15.85,34.82 15.85,34.88 15.85,34.92 C15.8572294,35.1057657 15.9160993,35.2858384 16.02,35.44 L16.74,38.44 C14.576907,39.0524922 13.2002148,41.1703473 13.518503,43.3958384 C13.8367911,45.6213295 15.7519386,47.268388 18,47.2501524 C20.4784732,47.2336399 22.4836399,45.2284732 22.5,42.75 C22.4986504,41.9579977 22.2845187,41.1809068 21.88,40.5 L38.88,40.5 C37.8659121,42.2616923 38.1618714,44.4849182 39.6015144,45.919966 C41.0411573,47.3550139 43.265318,47.6438642 45.0237594,46.6241495 C46.7822007,45.6044348 47.6362222,43.5305562 47.1057644,41.5682747 C46.5753066,39.6059932 44.7927095,38.244864 42.76,38.25 L18.83,38.25 L18.3,36 L46.09,36 C46.5577664,36.0148006 46.973234,35.7031999 47.09,35.25 Z M20.25,42.75 C20.25,43.9926407 19.2426407,45 18,45 C16.7573593,45 15.75,43.9926407 15.75,42.75 C15.75,41.5073593 16.7573593,40.5 18,40.5 C19.2336817,40.5213672 20.2286328,41.5163183 20.25,42.75 L20.25,42.75 Z M45,42.75 C45,43.9926407 43.9926407,45 42.75,45 C41.5073593,45 40.5,43.9926407 40.5,42.75 C40.5,41.5073593 41.5073593,40.5 42.75,40.5 C43.9836817,40.5213672 44.9786328,41.5163183 45,42.75 Z M17.79,33.84 L13.54,15.84 L51.25,15.84 L45.25,33.84 L17.79,33.84 Z" id="Shape"></path>
            </g>
        </g>
    </g>
</svg>