<?xml version="1.0" encoding="UTF-8"?> <!-- Generator: Adobe Illustrator 23.1.1, SVG Export Plug-In . SVG Version: 6.00 Build 0) --> <svg xmlns="http://www.w3.org/2000/svg" xmlns:xlink="http://www.w3.org/1999/xlink" id="Layer_1" x="0px" y="0px" viewBox="0 0 75 75" style="enable-background:new 0 0 75 75;" xml:space="preserve"> <style type="text/css"> .st0{fill:#003058;} .st1{fill:none;stroke:#003058;stroke-width:2.7;stroke-miterlimit:10;} </style> <g> <g> <g> <g> <path class="st0" d="M64.4,60.9h-54c-3,0-5.4-2.5-5.4-5.6v-40c0-3.1,2.4-5.6,5.4-5.6h54c3,0,5.4,2.5,5.4,5.6v40 C69.8,58.3,67.4,60.9,64.4,60.9z M10.4,12.3c-1.5,0-2.7,1.3-2.7,2.9v40c0,1.6,1.2,2.9,2.7,2.9h54c1.5,0,2.7-1.3,2.7-2.9v-40 c0-1.6-1.2-2.9-2.7-2.9H10.4z"></path> </g> <g> <path class="st0" d="M56.3,66.3H18.5c-0.7,0-1.4-0.6-1.4-1.3s0.6-1.3,1.4-1.3h37.8c0.7,0,1.3,0.6,1.3,1.3S57,66.3,56.3,66.3z"></path> </g> <g> <path class="st0" d="M37.4,66.3c-0.7,0-1.3-0.6-1.3-1.3v-5.4c0-0.7,0.6-1.3,1.3-1.3c0.7,0,1.4,0.6,1.4,1.3v5.4 C38.7,65.7,38.1,66.3,37.4,66.3z"></path> </g> <g> <path class="st0" d="M37.4,56.8c-1.5,0-2.7-1.2-2.7-2.7c0-1.5,1.2-2.7,2.7-2.7c1.5,0,2.7,1.2,2.7,2.7 C40.1,55.6,38.9,56.8,37.4,56.8z M37.4,54.1C37.4,54.1,37.4,54.1,37.4,54.1l1.4,0L37.4,54.1z"></path> </g> <g> <rect x="6.3" y="47.4" class="st0" width="62.1" height="2.7"></rect> </g> </g> </g> <g> <path class="st0" d="M43.5,36.2H27.3c-0.7,0-1.4-0.6-1.4-1.4V21.3c0-0.7,0.6-1.3,1.4-1.3h16.2c0.7,0,1.3,0.6,1.3,1.3v13.5 C44.8,35.6,44.2,36.2,43.5,36.2z M28.6,33.5h13.5V22.7H28.6V33.5z"></path> </g> <g> <path class="st0" d="M47.5,41.8H31.3c-0.7,0-1.4-0.6-1.4-1.4V27c0-0.7,0.6-1.4,1.4-1.4h16.2c0.7,0,1.4,0.6,1.4,1.4v13.5 C48.9,41.2,48.3,41.8,47.5,41.8z M32.7,39.1h13.5V28.3H32.7V39.1z"></path> </g> </g> </svg> 