<?xml version="1.0" encoding="UTF-8"?> <!-- Generator: Adobe Illustrator 23.1.1, SVG Export Plug-In . SVG Version: 6.00 Build 0) --> <svg xmlns="http://www.w3.org/2000/svg" xmlns:xlink="http://www.w3.org/1999/xlink" id="Layer_1" x="0px" y="0px" viewBox="0 0 75 75" style="enable-background:new 0 0 75 75;" xml:space="preserve"> <style type="text/css"> .st0{fill:#003058;} .st1{fill:none;stroke:#003058;stroke-width:2.7;stroke-miterlimit:10;} </style> <g> <g> <path class="st0" d="M69.3,69.1L7.2,69c-0.7,0-1.3-0.6-1.3-1.4c0-0.7,0.6-1.3,1.4-1.3l62.1,0.1c0.7,0,1.3,0.6,1.3,1.4 C70.6,68.5,70,69.1,69.3,69.1z"></path> </g> <g> <path class="st0" d="M18,69c-0.7,0-1.3-0.6-1.3-1.4l0-6.7l-5.4,0l0,6.7c0,0.7-0.6,1.3-1.4,1.3c-0.7,0-1.3-0.6-1.3-1.4l0-8.1 c0-0.7,0.6-1.3,1.4-1.3l8.1,0c0.7,0,1.3,0.6,1.3,1.4l0,8.1C19.3,68.4,18.7,69,18,69z"></path> </g> <g> <path class="st0" d="M34.2,69c-0.7,0-1.3-0.6-1.3-1.4l0-17.5l-5.4,0l0,17.5c0,0.7-0.6,1.3-1.4,1.3s-1.3-0.6-1.3-1.4l0-18.9 c0-0.7,0.6-1.3,1.4-1.3l8.1,0c0.7,0,1.3,0.6,1.3,1.4l0,18.9C35.5,68.4,34.9,69,34.2,69z"></path> </g> <g> <path class="st0" d="M50.4,69.1c-0.7,0-1.3-0.6-1.3-1.4l0.1-28.3l-5.4,0l-0.1,28.3c0,0.7-0.6,1.3-1.4,1.3s-1.3-0.6-1.3-1.4L41,38 c0-0.7,0.6-1.3,1.4-1.3l8.1,0c0.7,0,1.3,0.6,1.3,1.4l-0.1,29.7C51.7,68.5,51.1,69.1,50.4,69.1z"></path> </g> <g> <path class="st0" d="M66.6,69.1c-0.7,0-1.3-0.6-1.3-1.4l0.1-39.1l-5.4,0l-0.1,39.1c0,0.7-0.6,1.3-1.4,1.3c-0.7,0-1.3-0.6-1.3-1.4 l0.1-40.5c0-0.7,0.6-1.3,1.4-1.3l8.1,0c0.7,0,1.3,0.6,1.3,1.4l-0.1,40.5C67.9,68.5,67.3,69.1,66.6,69.1z"></path> </g> <g> <path class="st0" d="M14,42c-0.4,0-0.9-0.2-1.1-0.6c-0.4-0.6-0.2-1.5,0.4-1.9L61.9,7.2c0.6-0.4,1.5-0.2,1.9,0.4 c0.4,0.6,0.2,1.5-0.4,1.9L14.8,41.8C14.5,41.9,14.3,42,14,42z"></path> </g> <g> <path class="st0" d="M61.3,20.5c-0.1,0-0.1,0-0.2,0c-0.7-0.1-1.3-0.8-1.2-1.5l1.2-9.5l-9.5-1.2c-0.7-0.1-1.3-0.8-1.2-1.5 c0.1-0.7,0.8-1.3,1.5-1.2L62.9,7c0.7,0.1,1.3,0.8,1.2,1.5l-1.4,10.8C62.6,20,62,20.5,61.3,20.5z"></path> </g> </g> </svg> 