<?xml version="1.0" encoding="UTF-8"?>
<svg width="22px" height="22px" viewBox="0 0 22 22" version="1.1" xmlns="http://www.w3.org/2000/svg" xmlns:xlink="http://www.w3.org/1999/xlink">
    <title>icons / globe / icon-asia</title>
    <g id="icons-/-globe-/-icon-asia" stroke="none" stroke-width="1" fill="none" fill-rule="evenodd">
        <g id="Globe-Asia" fill="#000000" fill-rule="nonzero">
            <path d="M17.6699476,13.8541704 L17.158294,13.3425168 L17.158294,13.3425168 C17.093854,13.2776472 17.057338,13.1904384 17.057338,13.0993632 L17.057338,12.54432 C17.057338,12.4493784 16.9804396,12.37248 16.885498,12.37248 L16.6251604,12.37248 C16.5486916,12.37248 16.4812444,12.4231728 16.460194,12.4962048 L16.279762,13.117836 L16.279762,13.1174064 C16.258282,13.1904384 16.1908348,13.2411312 16.1147956,13.2411312 L15.9515476,13.2411312 L15.9515476,13.2410882 C15.8819524,13.2410882 15.8192308,13.199417 15.7930252,13.1354066 L15.5631892,12.5833706 L15.5627596,12.582941 C15.5090596,12.4544906 15.384046,12.3707186 15.2452852,12.3711466 L14.7258988,12.3711466 C14.6545852,12.3711466 14.5845604,12.3934874 14.5265644,12.434729 L13.5079828,13.1603234 L13.5079828,13.1598938 C13.4332324,13.2127346 13.3524676,13.2569834 13.2678364,13.2909218 L11.57779,13.9671122 L11.57779,13.9666826 C11.4471916,14.0186642 11.3612716,14.1449666 11.3612716,14.2854458 L11.3612716,14.7240674 C11.3612716,14.8151426 11.397358,14.902781 11.461798,14.967221 L11.9734516,15.4788746 C12.1023316,15.6077546 12.2771788,15.680357 12.4593292,15.680357 L12.9035356,15.680357 C12.9598132,15.680357 13.0156612,15.6734834 13.0702204,15.6597362 L13.9839796,15.431189 C14.3757748,15.3332402 14.7903388,15.4479434 15.0760228,15.7336274 L15.6349324,16.292537 C15.7638124,16.421417 15.9386596,16.4940194 16.12081,16.4940194 L16.7720836,16.4940194 C16.954234,16.4940194 17.1290812,16.421417 17.2579612,16.292537 L17.6690884,15.8814098 C17.7979684,15.7525298 17.8705708,15.5776826 17.8705708,15.3955322 L17.8705708,14.337857 C17.8701412,14.1557066 17.7975388,13.9808594 17.6686588,13.8519794 L17.6699476,13.8541704 Z M10.99783,0.34368 C5.1140284,0.34368 0.34375,5.1135288 0.34375,10.99776 C0.34375,16.8819912 5.1140284,21.65184 10.99783,21.65184 C16.8816316,21.65184 21.65191,16.8819912 21.65191,10.99776 C21.65191,5.1135288 16.8816316,0.34368 10.99783,0.34368 Z M10.99783,19.58976 C6.7288948,19.58976 3.187702,16.4575464 2.5265476,12.37248 L5.2145548,12.37248 C5.3967052,12.37248 5.5715524,12.2998776 5.7004324,12.1709976 L6.5368636,11.334996 C6.7026892,11.1691704 6.9823588,11.214708 7.0871812,11.4243528 L8.0589364,13.3674336 C8.175358,13.6002768 8.4133564,13.7476296 8.673694,13.7476296 L8.93575,13.7476296 C9.3155164,13.7476296 9.62311,13.440036 9.62311,13.0602696 L9.62311,12.6577344 C9.62311,12.475584 9.5505076,12.3007368 9.4216276,12.1718568 L9.178474,11.9287032 C9.0444388,11.794668 9.0444388,11.5768608 9.178474,11.4428256 L9.4216276,11.199672 C9.5505076,11.070792 9.7253548,10.9981896 9.9075052,10.9981896 L9.9208228,10.9981896 C10.162258,10.9981896 10.3860796,10.8714576 10.510234,10.6643904 L11.2564492,9.4206984 C11.3337772,9.2918184 11.5228012,9.2991216 11.5898188,9.4335864 L11.5893892,9.4331568 C11.6473852,9.5491488 11.7663844,9.6226104 11.8961236,9.62304 L12.0280108,9.62304 C12.217894,9.62304 12.3716908,9.4692432 12.3716908,9.27936 L12.3716908,5.9237544 C12.3716908,5.6634168 12.2247676,5.4254184 11.9919244,5.3089968 L11.5266676,5.0765832 C11.2908172,4.9584432 11.2701964,4.6297992 11.489722,4.4833056 L13.6445956,2.8280568 C17.0899876,3.9467352 19.5889708,7.1837712 19.5889708,10.9973304 C19.5889708,15.7349592 15.7345996,19.5893304 10.9969708,19.5893304 L10.99783,19.58976 Z" id="Shape"></path>
        </g>
    </g>
</svg>