<?xml version="1.0" encoding="UTF-8"?>
<svg width="22px" height="22px" viewBox="0 0 22 22" version="1.1" xmlns="http://www.w3.org/2000/svg" xmlns:xlink="http://www.w3.org/1999/xlink">
    <title>icons / globe / icon-europe</title>
    <g id="icons-/-globe-/-icon-europe" stroke="none" stroke-width="1" fill="none" fill-rule="evenodd">
        <g id="Globe-Europe" fill="#000000" fill-rule="nonzero">
            <path d="M7.994926,5.314152 C7.994926,5.0478 7.77583,4.828704 7.509478,4.828704 C7.380598,4.828704 7.256014,4.880256 7.165798,4.970472 L6.074614,6.061656 C5.984398,6.151872 5.932846,6.276456 5.932846,6.405336 C5.932846,6.671688 6.151942,6.890784 6.418294,6.890784 L7.105654,6.890784 C7.234534,6.890784 7.359118,6.839232 7.449334,6.749016 L7.853158,6.345192 C7.943374,6.254976 7.994926,6.130392 7.994926,6.001512 L7.994926,5.314152 L7.994926,5.314152 Z M10.99783,0.34368 C5.11231,0.34368 0.34375,5.11224 0.34375,10.99776 C0.34375,16.88328 5.11231,21.65184 10.99783,21.65184 C16.88335,21.65184 21.65191,16.88328 21.65191,10.99776 C21.65191,5.11224 16.88335,0.34368 10.99783,0.34368 Z M18.520126,15.139104 L17.944462,15.139104 C17.738254,15.139104 17.536342,15.05748 17.390278,14.911416 L16.64707,14.168208 C16.38931,13.910448 16.041334,13.764384 15.676174,13.764384 L14.890006,13.764384 L13.034134,12.170568 C12.681862,11.865552 12.230782,11.702304 11.762518,11.702304 L10.422166,11.702304 C10.069894,11.702304 9.721918,11.796816 9.416902,11.981544 L7.573918,13.085616 C6.985366,13.437888 6.624502,14.073696 6.624502,14.761056 L6.624502,15.7878 C6.624502,16.402128 6.912334,16.982088 7.406374,17.351544 L8.360086,18.068976 C8.729542,18.348216 9.416902,18.575904 9.88087,18.575904 L10.748662,18.575904 C11.12671,18.575904 11.436022,18.885216 11.436022,19.263264 L11.436022,19.56828 C11.289958,19.576872 11.14819,19.58976 11.002126,19.58976 C6.263638,19.58976 2.410126,15.736248 2.410126,10.99776 C2.410126,6.345192 6.134758,2.551824 10.757254,2.418648 L9.507118,3.35088 C9.421198,3.41532 9.369646,3.518424 9.369646,3.625824 L9.369646,4.485024 C9.369646,4.674048 9.524302,4.828704 9.713326,4.828704 L10.400686,4.828704 C10.58971,4.828704 10.744366,4.674048 10.744366,4.485024 L10.744366,4.141344 L11.431726,3.453984 L12.320998,3.453984 C12.58735,3.453984 12.806446,3.668784 12.806446,3.939432 C12.806446,4.068312 12.754894,4.192896 12.664678,4.283112 L11.51335,5.43444 C11.461798,5.485992 11.397358,5.528952 11.324326,5.550432 L9.605926,6.1218 C9.464158,6.169056 9.369646,6.297936 9.369646,6.448296 C9.369646,6.731832 9.25795,6.998184 9.060334,7.200096 L8.196838,8.063592 C8.067958,8.192472 7.994926,8.368608 7.994926,8.54904 L7.994926,9.640224 C7.994926,10.018272 8.304238,10.327584 8.682286,10.327584 L9.631702,10.327584 C9.893758,10.327584 10.130038,10.18152 10.24603,9.949536 L10.649854,9.146184 C10.709998,9.030192 10.82599,8.95716 10.959166,8.95716 L11.092342,8.95716 C11.281366,8.95716 11.436022,9.111816 11.436022,9.30084 C11.436022,9.489864 11.590678,9.64452 11.779702,9.64452 L12.467062,9.64452 C12.656086,9.64452 12.810742,9.489864 12.810742,9.30084 L12.810742,9.206328 C12.810742,9.060264 12.905254,8.927088 13.047022,8.879832 L14.404558,8.428752 C14.683798,8.33424 14.872822,8.072184 14.872822,7.77576 L14.872822,7.58244 C14.872822,7.204392 15.182134,6.89508 15.560182,6.89508 L17.136814,6.89508 C17.403166,6.89508 17.622262,7.114176 17.622262,7.380528 L17.622262,7.784352 C17.622262,8.050704 17.403166,8.2698 17.136814,8.2698 L15.762094,8.2698 C15.633214,8.2698 15.50863,8.321352 15.418414,8.411568 L15.01459,8.815392 C14.924374,8.905608 14.872822,9.030192 14.872822,9.159072 C14.872822,9.425424 15.091918,9.64452 15.35827,9.64452 L16.04563,9.64452 C16.17451,9.64452 16.299094,9.696072 16.38931,9.786288 L16.793134,10.190112 C16.88335,10.280328 16.934902,10.404912 16.934902,10.533792 L16.934902,10.907544 L16.397902,11.444544 C16.200286,11.64216 16.200286,11.960064 16.393606,12.161976 L17.76403,13.562472 C17.89291,13.695648 18.069046,13.76868 18.253774,13.76868 L19.125862,13.76868 C18.962614,14.24124 18.760702,14.700912 18.520126,15.139104 L18.520126,15.139104 Z" id="Shape"></path>
        </g>
    </g>
</svg>