<?xml version="1.0" encoding="UTF-8"?> <!-- Generator: Adobe Illustrator 23.1.1, SVG Export Plug-In . SVG Version: 6.00 Build 0) --> <svg xmlns="http://www.w3.org/2000/svg" xmlns:xlink="http://www.w3.org/1999/xlink" id="Layer_1" x="0px" y="0px" viewBox="0 0 75 75" style="enable-background:new 0 0 75 75;" xml:space="preserve"> <style type="text/css"> .st0{fill:#003058;} .st1{fill:none;stroke:#003058;stroke-width:2.7;stroke-miterlimit:10;} </style> <g> <g> <path class="st0" d="M64.8,60.3h-54c-3,0-5.4-2.5-5.4-5.6v-40c0-3.1,2.4-5.6,5.4-5.6h54c3,0,5.4,2.5,5.4,5.6v40 C70.2,57.8,67.8,60.3,64.8,60.3z M10.8,11.7c-1.5,0-2.7,1.3-2.7,2.9v40c0,1.6,1.2,2.9,2.7,2.9h54c1.5,0,2.7-1.3,2.7-2.9v-40 c0-1.6-1.2-2.9-2.7-2.9H10.8z"></path> </g> <g> <path class="st0" d="M56.7,65.7H18.9c-0.7,0-1.4-0.6-1.4-1.3s0.6-1.4,1.4-1.4h37.8c0.7,0,1.3,0.6,1.3,1.4S57.4,65.7,56.7,65.7z"></path> </g> <g> <path class="st0" d="M37.8,65.7c-0.7,0-1.3-0.6-1.3-1.3V59c0-0.7,0.6-1.3,1.3-1.3c0.7,0,1.4,0.6,1.4,1.3v5.4 C39.1,65.1,38.5,65.7,37.8,65.7z"></path> </g> <g> <path class="st0" d="M37.8,56.3c-1.5,0-2.7-1.2-2.7-2.7c0-1.5,1.2-2.7,2.7-2.7c1.5,0,2.7,1.2,2.7,2.7 C40.5,55.1,39.3,56.3,37.8,56.3z M37.8,53.6C37.8,53.6,37.8,53.6,37.8,53.6l1.4,0L37.8,53.6z"></path> </g> <g> <rect x="6.7" y="46.8" class="st0" width="62.1" height="2.7"></rect> </g> <g> <path class="st0" d="M25.6,40.1c-3,0-5.4-2.4-5.4-5.4s2.4-5.4,5.4-5.4s5.4,2.4,5.4,5.4S28.6,40.1,25.6,40.1z M25.6,32 c-1.5,0-2.7,1.2-2.7,2.7s1.2,2.7,2.7,2.7c1.5,0,2.7-1.2,2.7-2.7S27.1,32,25.6,32z"></path> </g> <g> <path class="st0" d="M37.8,29.3c-3,0-5.4-2.4-5.4-5.4s2.4-5.4,5.4-5.4c3,0,5.4,2.4,5.4,5.4S40.8,29.3,37.8,29.3z M37.8,21.2 c-1.5,0-2.7,1.2-2.7,2.7c0,1.5,1.2,2.7,2.7,2.7c1.5,0,2.7-1.2,2.7-2.7C40.5,22.4,39.3,21.2,37.8,21.2z"></path> </g> <g> <path class="st0" d="M25.6,42.8c-0.7,0-1.4-0.6-1.4-1.3v-2.7c0-0.7,0.6-1.3,1.4-1.3c0.7,0,1.3,0.6,1.3,1.3v2.7 C27,42.2,26.4,42.8,25.6,42.8z"></path> </g> <g> <path class="st0" d="M37.8,21.2c-0.7,0-1.3-0.6-1.3-1.4v-2.7c0-0.7,0.6-1.3,1.3-1.3c0.7,0,1.4,0.6,1.4,1.3v2.7 C39.1,20.6,38.5,21.2,37.8,21.2z"></path> </g> <g> <path class="st0" d="M25.6,32L25.6,32c-0.7,0-1.4-0.6-1.4-1.4l0-13.5c0-0.7,0.6-1.3,1.4-1.3l0,0c0.7,0,1.4,0.6,1.4,1.3l0,13.5 C27,31.4,26.4,32,25.6,32z"></path> </g> <g> <path class="st0" d="M49.9,40.1c-3,0-5.4-2.4-5.4-5.4s2.4-5.4,5.4-5.4s5.4,2.4,5.4,5.4S52.9,40.1,49.9,40.1z M49.9,32 c-1.5,0-2.7,1.2-2.7,2.7s1.2,2.7,2.7,2.7s2.7-1.2,2.7-2.7S51.4,32,49.9,32z"></path> </g> <g> <path class="st0" d="M49.9,42.8c-0.7,0-1.3-0.6-1.3-1.3v-2.7c0-0.7,0.6-1.3,1.3-1.3s1.3,0.6,1.3,1.3v2.7 C51.3,42.2,50.7,42.8,49.9,42.8z"></path> </g> <g> <path class="st0" d="M49.9,32L49.9,32c-0.7,0-1.3-0.6-1.3-1.4l0-13.5c0-0.7,0.6-1.3,1.4-1.3l0,0c0.7,0,1.3,0.6,1.3,1.3l0,13.5 C51.3,31.4,50.7,32,49.9,32z"></path> </g> <g> <path class="st0" d="M37.8,42.8L37.8,42.8c-0.7,0-1.4-0.6-1.4-1.3l0-13.5c0-0.7,0.6-1.4,1.3-1.4l0,0c0.7,0,1.4,0.6,1.4,1.4l0,13.5 C39.1,42.2,38.5,42.8,37.8,42.8z"></path> </g> </g> </svg> 