<?xml version="1.0" encoding="UTF-8"?>
<svg width="52px" height="46px" viewBox="0 0 52 46" version="1.1" xmlns="http://www.w3.org/2000/svg" xmlns:xlink="http://www.w3.org/1999/xlink">
    <!-- Generator: Sketch 64 (93537) - https://sketch.com -->
    <title>icon-3</title>
    <desc>Created with Sketch.</desc>
    <g id="Page-1" stroke="none" stroke-width="1" fill="none" fill-rule="evenodd">
        <g id="Artboard" transform="translate(-69.000000, -74.000000)" fill="#00A7E1" fill-rule="nonzero">
            <g id="icon-3" transform="translate(69.000000, 74.000000)">
                <path d="M47.58,0 L4.33,0 C3.15766368,0.0236279702 2.0427587,0.512121888 1.23067457,1.35796472 C0.418590431,2.20380754 -0.0241140314,3.33767358 -1.54086813e-15,4.51 L-1.54086813e-15,36.58 C-0.0241140314,37.7523264 0.418590431,38.8861925 1.23067457,39.7320353 C2.0427587,40.5778781 3.15766368,41.066372 4.33,41.09 L24.87,41.09 L24.87,43.26 L10.81,43.26 C10.2135325,43.26 9.73,43.7435325 9.73,44.34 C9.73,44.9364675 10.2135325,45.42 10.81,45.42 L41.09,45.42 C41.4758469,45.42 41.8323841,45.2141532 42.0253075,44.88 C42.218231,44.5458469 42.218231,44.1341531 42.0253075,43.8 C41.8323841,43.4658468 41.4758469,43.26 41.09,43.26 L27,43.26 L27,41.09 L47.58,41.09 C48.7523363,41.066372 49.8672413,40.5778781 50.6793254,39.7320353 C51.4914096,38.8861925 51.934114,37.7523264 51.91,36.58 L51.91,4.51 C51.934114,3.33767358 51.4914096,2.20380754 50.6793254,1.35796472 C49.8672413,0.512121888 48.7523363,0.0236279702 47.58,0 Z M4.33,2.16 L47.58,2.16 C48.8236472,2.21943766 49.7896453,3.26556456 49.75,4.51 L49.75,30.28 L2.16,30.28 L2.16,4.51 C2.11486748,3.2635255 3.0838838,2.21412994 4.33,2.16 Z M47.58,38.93 L4.33,38.93 C3.73044619,38.9066001 3.16480613,38.6457435 2.7577532,38.2049258 C2.35070027,37.7641081 2.13564932,37.1795159 2.16,36.58 L2.16,32.44 L49.75,32.44 L49.75,36.58 C49.7951325,37.8264745 48.8261162,38.8758701 47.58,38.93 L47.58,38.93 Z" id="Shape"></path>
                <path d="M26,33.52 C24.8015421,33.52 23.83,34.4915421 23.83,35.69 C23.83,36.8884579 24.8015421,37.86 26,37.86 C27.1984579,37.86 28.17,36.8884579 28.17,35.69 C28.17,34.4915421 27.1984579,33.52 26,33.52 Z" id="Shape"></path>
                <path d="M15.14,24.72 L15.14,26 C15.14,26.5964675 15.6235325,27.08 16.22,27.08 C16.8164675,27.08 17.3,26.5964675 17.3,26 L17.3,24.72 C19.2064862,24.2312689 20.5397313,22.5131331 20.5397313,20.545 C20.5397313,18.5768669 19.2064862,16.8587311 17.3,16.37 L17.3,6.49 C17.3,5.89353247 16.8164675,5.41 16.22,5.41 C15.6235325,5.41 15.14,5.89353247 15.14,6.49 L15.14,16.37 C13.2335138,16.8587311 11.9002687,18.5768669 11.9002687,20.545 C11.9002687,22.5131331 13.2335138,24.2312689 15.14,24.72 L15.14,24.72 Z M16.22,18.3799768 C17.0985817,18.3759512 17.8929064,18.9020799 18.2319343,19.7126244 C18.5709621,20.5231689 18.3877826,21.4581601 17.7679613,22.0808509 C17.14814,22.7035417 16.214005,22.8910379 15.4019032,22.5557575 C14.5898014,22.2204771 14.06,21.4285911 14.06,20.55 C14.06,19.3554365 15.0254492,18.3855049 16.22,18.3799768 Z" id="Shape"></path>
                <path d="M24.87,16.07 L24.87,26 C24.7750921,26.4354703 24.9548622,26.8848516 25.3239298,27.1347135 C25.6929975,27.3845754 26.1770025,27.3845754 26.5460702,27.1347135 C26.9151378,26.8848516 27.0949079,26.4354703 27,26 L27,16.07 C28.9064862,15.5812689 30.2397313,13.8631331 30.2397313,11.895 C30.2397313,9.92686692 28.9064862,8.20873112 27,7.72 L27,6.49 C26.9462706,5.9309802 26.4765959,5.50428327 25.915,5.50428327 C25.3534041,5.50428327 24.8837294,5.9309802 24.83,6.49 L24.83,7.72 C22.9235138,8.20873112 21.5902687,9.92686692 21.5902687,11.895 C21.5902687,13.8631331 22.9235138,15.5812689 24.83,16.07 L24.87,16.07 Z M26,9.7299768 C26.8785817,9.72595119 27.6729064,10.2520799 28.0119343,11.0626244 C28.3509621,11.8731689 28.1677826,12.8081601 27.5479613,13.4308509 C26.92814,14.0535417 25.994005,14.2410379 25.1819032,13.9057575 C24.3698014,13.5704771 23.84,12.7785911 23.84,11.9 C23.84,10.7054365 24.8054492,9.7355049 26,9.7299768 L26,9.7299768 Z" id="Shape"></path>
                <path d="M34.61,24.72 L34.61,26 C34.61,26.5964675 35.0935325,27.08 35.69,27.08 C36.2864675,27.08 36.77,26.5964675 36.77,26 L36.77,24.72 C38.6764862,24.2312689 40.0097313,22.5131331 40.0097313,20.545 C40.0097313,18.5768669 38.6764862,16.8587311 36.77,16.37 L36.77,6.49 C36.77,5.89353247 36.2864675,5.41 35.69,5.41 C35.0935325,5.41 34.61,5.89353247 34.61,6.49 L34.61,16.37 C32.7035138,16.8587311 31.3702687,18.5768669 31.3702687,20.545 C31.3702687,22.5131331 32.7035138,24.2312689 34.61,24.72 L34.61,24.72 Z M35.69,18.38 C36.8884579,18.38 37.86,19.3515421 37.86,20.55 C37.86,21.7484579 36.8884579,22.72 35.69,22.72 C34.4915421,22.72 33.52,21.7484579 33.52,20.55 C33.52,19.3515421 34.4915421,18.38 35.69,18.38 Z" id="Shape"></path>
            </g>
        </g>
    </g>
</svg>