<?xml version="1.0" encoding="UTF-8"?>
<svg width="22px" height="22px" viewBox="0 0 22 22" version="1.1" xmlns="http://www.w3.org/2000/svg" xmlns:xlink="http://www.w3.org/1999/xlink">
    <title>icons / globe / icon-africa</title>
    <g id="icons-/-globe-/-icon-africa" stroke="none" stroke-width="1" fill="none" fill-rule="evenodd">
        <g id="Globe-Africa" fill="#000000" fill-rule="nonzero">
            <path d="M10.99783,0.34368 C5.1140284,0.34368 0.34375,5.1135288 0.34375,10.99776 C0.34375,16.8819912 5.1140284,21.65184 10.99783,21.65184 C16.8816316,21.65184 21.65191,16.8819912 21.65191,10.99776 C21.65191,5.1135288 16.8816316,0.34368 10.99783,0.34368 Z M10.99783,19.58976 C6.2602012,19.58976 2.40583,15.7353888 2.40583,10.99776 C2.40583,6.2601312 6.2602012,2.40576 10.99783,2.40576 C11.4669532,2.40576 11.923618,2.4538752 12.37255,2.5264776 L12.37255,3.4587096 C12.37255,3.8264472 12.0744076,4.1245896 11.70667,4.1245896 L10.6666084,4.1245896 C10.4440756,4.1245896 10.2361492,4.235856 10.112854,4.4210136 L9.7657372,4.9412592 C9.6738028,5.0791608 9.5337532,5.1775392 9.3730828,5.2179216 L8.7523108,5.3730072 L8.7518812,5.3730072 C8.4550276,5.4468984 8.2471012,5.7132504 8.2475308,6.0191256 L8.2475308,6.2081496 C8.2475308,6.5758872 8.5456732,6.8740296 8.9134108,6.8740296 L12.7836772,6.8740296 C12.9602428,6.8740296 13.1295052,6.9440544 13.2545188,7.069068 L13.551802,7.3663512 C13.6768156,7.4913648 13.846078,7.5613896 14.0226436,7.5613896 L14.45611,7.5613896 C14.8238476,7.5613896 15.12199,7.859532 15.12199,8.2272696 C15.12199,8.5138128 14.9385508,8.768136 14.666614,8.8587816 L12.6341764,9.5362608 C12.4666324,9.5921088 12.2840524,9.5792208 12.1259596,9.5001744 L11.4935884,9.1839888 L11.4935884,9.1839888 C11.167522,9.0207408 10.8083764,8.9361096 10.4440756,8.93568 L10.4058412,8.93568 C9.898054,8.93568 9.404014,9.1002168 8.9976124,9.4052328 L7.8127756,10.2940752 L7.8127756,10.2936456 C7.2212164,10.735704 6.8728108,11.4312264 6.8728108,12.1701384 L6.8728108,12.774156 C6.8728108,13.3966464 7.1202604,13.9933608 7.5601708,14.4337008 L7.5601708,14.4337008 C8.0000812,14.8736112 8.5972252,15.1206312 9.2197156,15.1206312 L10.3315204,15.1206312 C10.699258,15.1206312 10.9974004,15.4187736 10.9974004,15.7865112 L10.9974004,17.070156 C10.9974004,17.596416 11.1198364,18.1153728 11.3552572,18.5862144 C11.5571692,18.9900384 11.9700148,19.2452208 12.4215244,19.2452208 C12.8201932,19.2452208 13.1922268,19.0458864 13.4134708,18.7142352 L13.9732396,17.8743672 L13.97281,17.8743672 C14.2786852,17.4146952 14.6395492,16.9941168 15.04681,16.6216536 C15.1529212,16.524564 15.2246644,16.395684 15.2512996,16.253916 L15.4360276,15.2731392 C15.45493,15.1730424 15.4966012,15.0785304 15.5576044,14.9969064 L16.3626748,13.9237656 C16.4490244,13.8086328 16.4958508,13.6681536 16.4958508,13.5242376 L16.4958508,13.0366416 C16.4958508,12.668904 16.1977084,12.3707616 15.8299708,12.3707616 L15.4772692,12.3707616 C15.2547364,12.3707616 15.04681,12.2594952 14.9235148,12.0743376 L14.3547244,11.221152 C14.1111412,10.855992 14.2816924,10.3589448 14.6979748,10.220184 L14.8118188,10.1823792 C15.0068572,10.1175096 15.220798,10.1458632 15.3917788,10.2601368 L16.1740804,10.7816712 L16.1736508,10.7812416 C16.372126,10.9135584 16.6268788,10.929024 16.8408196,10.8229128 L17.501974,10.4921208 C17.727514,10.3795656 17.8701412,10.1488704 17.8701412,9.8966952 L17.8701412,9.5989824 C17.8701412,9.2312448 18.1682836,8.9331024 18.5360212,8.9331024 L19.3282036,8.9331024 C19.4923108,9.595116 19.5889708,10.2833352 19.5889708,10.9951824 C19.5881116,15.7332408 15.7337404,19.587612 10.9961116,19.587612 L10.99783,19.58976 Z" id="Shape"></path>
        </g>
    </g>
</svg>