<?xml version="1.0" encoding="UTF-8"?> <!-- Generator: Adobe Illustrator 23.1.1, SVG Export Plug-In . SVG Version: 6.00 Build 0) --> <svg xmlns="http://www.w3.org/2000/svg" xmlns:xlink="http://www.w3.org/1999/xlink" id="Layer_1" x="0px" y="0px" viewBox="0 0 75 75" style="enable-background:new 0 0 75 75;" xml:space="preserve"> <style type="text/css"> .st0{fill:#003058;} .st1{fill:none;stroke:#003058;stroke-width:2.7;stroke-miterlimit:10;} </style> <g> <g> <g> <path class="st0" d="M34.4,52.4c-12.7,0-22.9-10.3-22.9-22.9s10.3-23,22.9-23s23,10.3,23,23S47,52.4,34.4,52.4z M34.4,9.2 c-11.2,0-20.2,9.1-20.2,20.2s9.1,20.2,20.2,20.2s20.2-9.1,20.2-20.2S45.6,9.2,34.4,9.2z"></path> </g> <g> <path class="st0" d="M33,64.6c-0.7,0-1.4-0.6-1.4-1.4v-4c0-0.7,0.6-1.3,1.4-1.3c0.7,0,1.3,0.6,1.3,1.3v4 C34.4,64,33.8,64.6,33,64.6z"></path> </g> <g> <path class="st0" d="M35.7,64.6c-0.7,0-1.4-0.6-1.4-1.4v-4c0-0.7,0.6-1.3,1.4-1.3c0.7,0,1.3,0.6,1.3,1.3v4 C37.1,64,36.5,64.6,35.7,64.6z"></path> </g> <g> <path class="st0" d="M50.5,70H18.2c-0.6,0-1.1-0.4-1.3-0.9c-0.2-0.6,0-1.2,0.5-1.5c4.9-3.7,10.8-5.7,17-5.7c6.1,0,12,2,17,5.7 c0.5,0.3,0.7,1,0.5,1.5C51.6,69.6,51.1,70,50.5,70z M23,67.3h22.8C38.7,63.7,30,63.7,23,67.3z"></path> </g> <g> <path class="st0" d="M34.4,60.5L34.4,60.5c-8.3,0-16.1-3.2-22-9.1c-0.5-0.5-0.5-1.4,0-1.9s1.4-0.5,1.9,0c5.4,5.4,12.5,8.3,20,8.3 c7.6,0,14.7-2.9,20-8.3c5.4-5.4,8.3-12.5,8.3-20c0-7.6-2.9-14.7-8.3-20c-0.5-0.5-0.5-1.4,0-1.9s1.4-0.5,1.9,0 c5.9,5.9,9.1,13.7,9.1,22c0,8.3-3.2,16.1-9.1,22S42.7,60.5,34.4,60.5z"></path> </g> <g> <path class="st0" d="M53.5,11.7c-0.3,0-0.7-0.1-1-0.4c-0.5-0.5-0.5-1.4,0-1.9l3.8-3.8c0.5-0.5,1.4-0.5,1.9,0s0.5,1.4,0,1.9 l-3.8,3.8C54.2,11.6,53.8,11.7,53.5,11.7z"></path> </g> <g> <path class="st0" d="M11.5,53.7c-0.3,0-0.7-0.1-1-0.4c-0.5-0.5-0.5-1.4,0-1.9l3.8-3.8c0.5-0.5,1.4-0.5,1.9,0s0.5,1.4,0,1.9 l-3.8,3.8C12.2,53.6,11.8,53.7,11.5,53.7z"></path> </g> </g> <g> <path class="st0" d="M43.2,27.4c0-4.9-4-8.8-8.8-8.8c-4.9,0-8.8,4-8.8,8.8c0,3.9,2.5,7.2,6,8.3c-0.3,0.2-0.6,0.5-0.6,1 c0,0.4,0.2,0.7,0.5,0.9c-0.3,0.2-0.5,0.5-0.5,0.9c0,0.4,0.2,0.7,0.5,0.9C31.2,39.6,31,40,31,40.3c0,0.6,0.5,1.1,1.1,1.1h4.5 c0.6,0,1.1-0.5,1.1-1.1c0-0.4-0.2-0.7-0.5-0.9c0.3-0.2,0.5-0.5,0.5-0.9c0-0.4-0.2-0.7-0.5-0.9c0.3-0.2,0.5-0.5,0.5-0.9 c0-0.4-0.2-0.8-0.6-1C40.7,34.6,43.2,31.3,43.2,27.4z M34.4,34c-3.6,0-6.6-3-6.6-6.6s3-6.6,6.6-6.6c3.6,0,6.6,3,6.6,6.6 S38,34,34.4,34z"></path> <path class="st0" d="M36,29l-0.3,0.3L35.5,29c-0.6-0.6-1.6-0.6-2.2,0L33,29.3L32.8,29c-0.4-0.4-1.1-0.4-1.6,0 c-0.4,0.4-0.4,1.1,0,1.6l1,1c0.4,0.4,1.1,0.4,1.6,0l0.6-0.6l0.6,0.6c0.2,0.2,0.5,0.3,0.8,0.3c0.3,0,0.6-0.1,0.8-0.3l1-1 c0.4-0.4,0.4-1.1,0-1.6C37.1,28.6,36.4,28.6,36,29z"></path> </g> </g> </svg> 