<?xml version="1.0" encoding="UTF-8"?> <!-- Generator: Adobe Illustrator 23.1.1, SVG Export Plug-In . SVG Version: 6.00 Build 0) --> <svg xmlns="http://www.w3.org/2000/svg" xmlns:xlink="http://www.w3.org/1999/xlink" id="Layer_1" x="0px" y="0px" viewBox="0 0 75 75" style="enable-background:new 0 0 75 75;" xml:space="preserve"> <style type="text/css"> .st0{fill:#003058;} .st1{fill:none;stroke:#003058;stroke-width:2.7;stroke-miterlimit:10;} </style> <g> <g> <path class="st0" d="M56.6,66.3c-3,0-5.4-2.4-5.4-5.4c0-3,2.4-5.4,5.4-5.4c3,0,5.4,2.4,5.4,5.4C62,63.9,59.5,66.3,56.6,66.3z M56.6,58.2c-1.5,0-2.7,1.2-2.7,2.7c0,1.5,1.2,2.7,2.7,2.7s2.7-1.2,2.7-2.7C59.3,59.4,58,58.2,56.6,58.2z"></path> </g> <g> <path class="st0" d="M26.9,66.3c-3,0-5.4-2.4-5.4-5.4c0-3,2.4-5.4,5.4-5.4s5.4,2.4,5.4,5.4C32.3,63.9,29.8,66.3,26.9,66.3z M26.9,58.2c-1.5,0-2.7,1.2-2.7,2.7c0,1.5,1.2,2.7,2.7,2.7s2.7-1.2,2.7-2.7C29.6,59.4,28.3,58.2,26.9,58.2z"></path> </g> <g> <path class="st0" d="M56.6,58.2H26.9c-0.6,0-1.2-0.4-1.3-1L15,12.3H6.6c-0.7,0-1.3-0.6-1.3-1.4c0-0.7,0.6-1.3,1.3-1.3h9.4 c0.6,0,1.2,0.4,1.3,1l10.6,44.9h28.6c0.7,0,1.3,0.6,1.3,1.4C57.9,57.6,57.3,58.2,56.6,58.2z"></path> </g> <g> <path class="st0" d="M60.6,52.8h-35c-0.7,0-1.4-0.6-1.4-1.3s0.6-1.3,1.4-1.3h34l7.2-21.6h-47c-0.7,0-1.4-0.6-1.4-1.4 s0.6-1.4,1.4-1.4h48.8c0.4,0,0.8,0.2,1.1,0.6c0.3,0.4,0.3,0.8,0.2,1.2l-8.1,24.3C61.7,52.4,61.2,52.8,60.6,52.8z"></path> </g> </g> </svg> 