<?xml version="1.0" encoding="UTF-8"?>
<svg width="63px" height="64px" viewBox="0 0 63 64" version="1.1" xmlns="http://www.w3.org/2000/svg" xmlns:xlink="http://www.w3.org/1999/xlink">
    <!-- Generator: Sketch 64 (93537) - https://sketch.com -->
    <title>icon-2</title>
    <desc>Created with Sketch.</desc>
    <g id="Page-1" stroke="none" stroke-width="1" fill="none" fill-rule="evenodd">
        <g id="RiverDigitals_Salesforce" transform="translate(-732.000000, -1092.000000)" fill="#00A7E1" fill-rule="nonzero">
            <g id="Group-11" transform="translate(0.000000, 985.000000)">
                <g id="Group-7" transform="translate(128.000000, 67.000000)">
                    <g id="Group-10" transform="translate(571.000000, 0.000000)">
                        <path d="M94.8025691,104 L34.2854934,104 C33.5933047,104 33,103.407469 33,102.716183 C33,102.518673 33,96.889628 35.7687551,91.2605835 C37.7464373,87.3103769 44.2727886,84.8414977 53.3701268,81.483822 C54.457852,81.0888014 55.5455772,80.6937807 56.6333024,80.29876 L56.6333024,73.8796742 C55.4466931,72.8921225 52.9745903,70.3244882 52.677938,66.078016 C52.0846334,65.5842402 51.5902128,64.6954437 51.2935605,63.5103817 C50.898024,61.6340336 51.0957922,59.3626647 52.4801698,57.9800924 C52.4801698,57.8813372 52.3812857,57.6838269 52.3812857,57.4863166 C51.4913287,54.5236616 49.8102988,48.9933722 52.0846334,45.8332069 C52.8757062,44.7469001 54.1611997,44.0556139 55.6444613,43.8581036 C57.2266071,40.8954486 62.5663491,39.9078969 66.8183658,40.0066521 C71.8614555,40.1054072 77.9922703,41.8830002 78.8822273,46.2282276 C79.6733002,49.9809239 77.7945021,54.8199271 76.7067769,57.3875614 C76.7067769,57.6838269 76.6078928,57.8813372 76.6078928,58.0788476 C77.8933862,59.3626647 78.0911544,61.6340336 77.695618,63.5103817 C77.3989657,64.6954437 76.9045451,65.5842402 76.3112405,66.078016 C76.0145881,70.3244882 73.5424854,72.8921225 72.355876,73.8796742 L72.355876,80.29876 C73.4436012,80.6937807 74.5313265,81.0888014 75.6190517,81.483822 C84.7163899,84.8414977 91.3416253,87.3103769 93.2204234,91.2605835 C95.9891785,96.7908728 95.9891785,102.419917 95.9891785,102.716183 C96.0880626,103.407469 95.4947579,104 94.8025691,104 Z M35.669871,101.333611 L93.4181916,101.333611 C93.2204234,99.4572623 92.7260028,95.9020763 91.0449729,92.4456455 C89.5617113,89.4829905 82.7387076,86.9153562 74.8279788,83.9527012 C73.5424854,83.4589254 72.1581078,82.9651495 70.6748462,82.3726185 C70.1804256,82.1751082 69.7848892,81.6813324 69.7848892,81.0888014 L69.7848892,73.0896329 C69.7848892,72.595857 69.9826574,72.2008364 70.3781938,72.003326 C70.4770779,71.9045709 73.7402536,69.633202 73.7402536,65.0904644 C73.7402536,64.4979334 74.13579,64.0041576 74.7290947,63.8066472 C75.025747,63.4116266 75.4212835,62.1278094 75.2235152,60.9427474 C75.1246311,60.2514612 74.8279788,59.7576854 74.4324424,59.5601751 C73.9380218,59.3626647 73.7402536,58.8688889 73.7402536,58.3751131 C73.7402536,57.8813372 73.9380218,57.3875614 74.4324424,56.3012546 C75.3223993,54.0298857 77.0034292,49.6846584 76.4101246,46.7220034 C75.915704,44.4506346 72.0592237,42.7717967 66.9172499,42.5742864 C61.7752762,42.4755312 58.3143323,43.9568587 57.9187959,45.4381862 C57.8199118,46.0307172 57.2266071,46.4257379 56.6333024,46.4257379 C55.4466931,46.4257379 54.6556202,46.7220034 54.2600838,47.3145344 C52.7768221,49.3883929 54.2600838,54.4249064 54.9522726,56.5975201 C55.2489249,57.5850717 55.347809,57.9800924 55.347809,58.3751131 C55.347809,58.8688889 55.0511567,59.3626647 54.6556202,59.5601751 C54.2600838,59.7576854 53.9634315,60.2514612 53.8645473,60.9427474 C53.6667791,62.1278094 54.0623156,63.4116266 54.3589679,63.8066472 C54.9522726,64.0041576 55.347809,64.4979334 55.347809,65.0904644 C55.347809,69.633202 58.7098688,72.003326 58.7098688,72.003326 C59.1054052,72.2995915 59.3031734,72.6946122 59.3031734,73.0896329 L59.3031734,81.0888014 C59.3031734,81.6813324 59.0065211,82.1751082 58.4132164,82.3726185 C57.0288389,82.8663944 55.6444613,83.4589254 54.2600838,83.9527012 C46.3493549,86.9153562 39.5263513,89.4829905 38.0430896,92.4456455 C36.3620598,95.9020763 35.8676392,99.5560175 35.669871,101.333611 Z" id="icon-2"></path>
                    </g>
                </g>
            </g>
        </g>
    </g>
</svg>