<?xml version="1.0" encoding="UTF-8"?> <!-- Generator: Adobe Illustrator 23.1.1, SVG Export Plug-In . SVG Version: 6.00 Build 0) --> <svg xmlns="http://www.w3.org/2000/svg" xmlns:xlink="http://www.w3.org/1999/xlink" id="Layer_1" x="0px" y="0px" viewBox="0 0 75 79.8" style="enable-background:new 0 0 75 79.8;" xml:space="preserve"> <style type="text/css"> .st0{fill:#003058;} .st1{fill:none;stroke:#003058;stroke-width:2.7;stroke-miterlimit:10;} </style> <g> <g> <path class="st0" d="M25.9,21.4c-1.4,1.3-1.6,3.6-1.2,5.6c0.3,1.2,0.8,2.1,1.4,2.6c0.3,4.3,2.8,6.9,4,7.9v6.1l2.3,2.3 c0.3-0.2,0.4-0.6,0.4-0.9v-8.1c0-0.5-0.2-0.9-0.6-1.1c0,0-3.4-2.4-3.4-7c0-0.6-0.4-1.1-1-1.3c-0.3-0.4-0.7-1.7-0.5-2.9 c0.1-0.7,0.4-1.2,0.8-1.4c0.5-0.2,0.7-0.7,0.7-1.2c0-0.4-0.1-0.7-0.4-1.8c-0.7-2.2-2.2-7.3-0.7-9.4c0.5-0.6,1.3-0.9,2.5-0.9 c0.6,0,1.2-0.4,1.3-1c0.4-1.5,4-3,9.2-2.9C46,6,50,7.8,50.4,10.1c0.6,3-1.1,7.4-2.1,9.7c-0.5,1.2-0.7,1.7-0.7,2.1 c0,0.5,0.3,1,0.7,1.2c0.4,0.2,0.7,0.7,0.8,1.4c0.2,1.2-0.2,2.5-0.5,2.9c-0.6,0.2-1,0.7-1,1.3c0,4.6-3.3,6.9-3.4,7 c-0.4,0.3-0.6,0.7-0.6,1.1v8.1c0,0.4,0.2,0.7,0.4,0.9l2.3-2.3v-6.1c1.2-1,3.7-3.6,4-7.9c0.6-0.5,1.1-1.4,1.4-2.6 c0.4-1.9,0.2-4.2-1.1-5.5c0.1-0.2,0.2-0.4,0.3-0.6c1-2.6,3-7.5,2.2-11.3c-0.9-4.5-7.2-6.2-12.3-6.3c-4.5-0.1-9.9,0.9-11.5,3.9 c-1.6,0.2-2.9,0.8-3.7,2c-2.3,3.2-0.6,8.8,0.3,11.8C25.8,21.1,25.9,21.3,25.9,21.4z"></path> <polygon class="st0" points="42.3,65.3 34.2,65.3 31.5,68 45,68 "></polygon> <path class="st0" d="M24.6,65.3h-16c0.2-1.9,0.7-5.5,2.5-9c1.4-2.7,7.3-5.1,14.5-7.8l-2.1-2.1c-7.6,2.8-13,5.2-14.8,8.7 c-2.8,5.6-2.8,11.3-2.8,11.6c0,0.7,0.6,1.3,1.3,1.3h14.7L24.6,65.3z"></path> <path class="st0" d="M67.8,55.1c-1.7-3.5-7.2-5.8-14.8-8.7l-2.1,2.1c7.2,2.7,13.1,5,14.5,7.8c1.7,3.5,2.3,7.1,2.5,9h-16l2.7,2.7 h14.7c0.7,0,1.3-0.6,1.3-1.3C70.6,66.4,70.6,60.7,67.8,55.1z"></path> </g> <g> <path class="st0" d="M59.5,75.8L40.2,56.5l18.1-18.1c0.5-0.5,0.5-1.4,0-1.9s-1.4-0.5-1.9,0L38.2,54.5L20.1,36.4 c-0.5-0.5-1.4-0.5-1.9,0s-0.5,1.4,0,1.9l18.1,18.1L17,75.8c-0.5,0.5-0.5,1.4,0,1.9c0.3,0.3,0.6,0.4,1,0.4c0.3,0,0.7-0.1,1-0.4 l19.4-19.4l19.4,19.4c0.3,0.3,0.6,0.4,1,0.4c0.3,0,0.7-0.1,1-0.4C60,77.2,60,76.3,59.5,75.8z"></path> <path class="st0" d="M57.3,36c0.3,0,0.7,0.1,1,0.4c0.5,0.5,0.5,1.4,0,1.9L40.2,56.5l19.4,19.4c0.5,0.5,0.5,1.4,0,1.9 c-0.3,0.3-0.6,0.4-1,0.4c-0.3,0-0.7-0.1-1-0.4L38.2,58.4L18.9,77.7c-0.3,0.3-0.6,0.4-1,0.4c-0.3,0-0.7-0.1-1-0.4 c-0.5-0.5-0.5-1.4,0-1.9l19.4-19.4L18.2,38.3c-0.5-0.5-0.5-1.4,0-1.9c0.3-0.3,0.6-0.4,1-0.4c0.3,0,0.7,0.1,1,0.4l18.1,18.1 l18.1-18.1C56.7,36.1,57,36,57.3,36"></path> </g> </g> </svg> 