<?xml version="1.0" encoding="UTF-8"?> <!-- Generator: Adobe Illustrator 23.1.1, SVG Export Plug-In . SVG Version: 6.00 Build 0) --> <svg xmlns="http://www.w3.org/2000/svg" xmlns:xlink="http://www.w3.org/1999/xlink" id="Layer_1" x="0px" y="0px" viewBox="0 0 75 75" style="enable-background:new 0 0 75 75;" xml:space="preserve"> <style type="text/css"> .st0{fill:#003058;} .st1{fill:none;stroke:#003058;stroke-width:2.7;stroke-miterlimit:10;} </style> <g> <g> <path class="st0" d="M61.2,70.3H15.3c-0.7,0-1.3-0.6-1.3-1.3V6.9c0-0.7,0.6-1.3,1.3-1.3H45c0.4,0,0.7,0.1,1,0.4l16.2,16.2 c0.3,0.3,0.4,0.6,0.4,1V69C62.5,69.7,61.9,70.3,61.2,70.3z M16.6,67.6h43.2v-44L44.4,8.2H16.6V67.6z"></path> </g> <g> <path class="st0" d="M61.2,24.4H45c-0.7,0-1.4-0.6-1.4-1.4V6.9c0-0.7,0.6-1.3,1.4-1.3c0.7,0,1.3,0.6,1.3,1.3v14.9h14.8 c0.7,0,1.4,0.6,1.4,1.3C62.5,23.8,61.9,24.4,61.2,24.4z"></path> </g> <g> <path class="st0" d="M50.4,35.2H39.6c-0.7,0-1.3-0.6-1.3-1.3c0-0.7,0.6-1.4,1.3-1.4h10.8c0.7,0,1.4,0.6,1.4,1.4 C51.7,34.6,51.1,35.2,50.4,35.2z"></path> </g> <g> <path class="st0" d="M50.4,46H39.6c-0.7,0-1.3-0.6-1.3-1.3s0.6-1.3,1.3-1.3h10.8c0.7,0,1.4,0.6,1.4,1.3S51.1,46,50.4,46z"></path> </g> <g> <path class="st0" d="M50.4,56.8H39.6c-0.7,0-1.3-0.6-1.3-1.4c0-0.7,0.6-1.3,1.3-1.3h10.8c0.7,0,1.4,0.6,1.4,1.3 C51.7,56.2,51.1,56.8,50.4,56.8z"></path> </g> <g> <path class="st0" d="M27.4,36.6c-0.3,0-0.7-0.1-1-0.4l-4-4.1c-0.5-0.5-0.5-1.4,0-1.9s1.4-0.5,1.9,0l3.1,3.1l5.8-5.8 c0.5-0.5,1.4-0.5,1.9,0s0.5,1.4,0,1.9l-6.8,6.8C28.1,36.4,27.8,36.6,27.4,36.6z"></path> </g> <g> <path class="st0" d="M27.4,47.4c-0.3,0-0.7-0.1-1-0.4l-4-4c-0.5-0.5-0.5-1.4,0-1.9s1.4-0.5,1.9,0l3.1,3.1l5.8-5.8 c0.5-0.5,1.4-0.5,1.9,0s0.5,1.4,0,1.9L28.4,47C28.1,47.2,27.8,47.4,27.4,47.4z"></path> </g> <g> <path class="st0" d="M27.4,58.2c-0.3,0-0.7-0.1-1-0.4l-4-4c-0.5-0.5-0.5-1.4,0-1.9s1.4-0.5,1.9,0l3.1,3.1l5.8-5.8 c0.5-0.5,1.4-0.5,1.9,0s0.5,1.4,0,1.9l-6.8,6.8C28.1,58,27.8,58.2,27.4,58.2z"></path> </g> </g> </svg> 