<?xml version="1.0" encoding="UTF-8"?>
<svg width="64px" height="64px" viewBox="0 0 64 64" version="1.1" xmlns="http://www.w3.org/2000/svg" xmlns:xlink="http://www.w3.org/1999/xlink">
    <!-- Generator: Sketch 64 (93537) - https://sketch.com -->
    <title>icon-1</title>
    <desc>Created with Sketch.</desc>
    <g id="Page-1" stroke="none" stroke-width="1" fill="none" fill-rule="evenodd">
        <g id="RiverDigitals_Salesforce" transform="translate(-159.000000, -1092.000000)" fill="#00A7E1" fill-rule="nonzero">
            <g id="Group-11" transform="translate(0.000000, 985.000000)">
                <g id="Group-7" transform="translate(128.000000, 67.000000)">
                    <g id="Group-10">
                        <path d="M90.4285714,40 C91.1142857,40 91.5714286,40.4571429 91.5714286,41.1428571 C91.5714286,41.8285714 91.1142857,42.2857143 90.4285714,42.2857143 L90.4285714,42.2857143 L89.2857143,42.2857143 L89.2857143,94.8571429 L93.8571429,94.8571429 C94.5428571,94.8571429 95,95.3142857 95,96 L95,96 L95,102.857143 C95,103.542857 94.5428571,104 93.8571429,104 L93.8571429,104 L32.1428571,104 C31.4571429,104 31,103.542857 31,102.857143 L31,102.857143 L31,96 C31,95.3142857 31.4571429,94.8571429 32.1428571,94.8571429 L32.1428571,94.8571429 L36.7142857,94.8571429 L36.7142857,42.2857143 L35.5714286,42.2857143 C34.8857143,42.2857143 34.4285714,41.8285714 34.4285714,41.1428571 C34.4285714,40.4571429 34.8857143,40 35.5714286,40 L35.5714286,40 Z M92.71392,97.1428571 L33.2853486,97.1428571 L33.2853486,101.714286 L92.71392,101.714286 L92.71392,97.1428571 Z M87,42.2857143 L39,42.2857143 L38.9992686,94.8571429 L51.5710629,94.8571429 L51.5710629,80.0003657 C51.5710629,79.3146514 52.0282057,78.8575086 52.71392,78.8575086 L52.71392,78.8575086 L73.2853486,78.8575086 C73.9710629,78.8575086 74.4282057,79.3146514 74.4282057,80.0003657 L74.4282057,80.0003657 L74.4282057,94.8571429 L87,94.8571429 L87,42.2857143 Z M61.8575086,81.1428571 L53.8571429,81.1428571 L53.8571429,94.8571429 L72.1428571,94.8571429 L72.1428571,81.1428571 L64.1424914,81.1428571 L64.1424914,86.8571429 C64.1424914,87.5428571 63.6853486,88 62.9996343,88 C62.3146514,88 61.8575086,87.5428571 61.8575086,86.8571429 L61.8575086,86.8571429 L61.8575086,81.1428571 Z M53.3346939,60.8979592 C54.04,60.8979592 54.5102041,61.3681633 54.5102041,62.0734694 L54.5102041,62.0734694 L54.5102041,71.477551 C54.5102041,72.1828571 54.04,72.6530612 53.3346939,72.6530612 L53.3346939,72.6530612 L43.9306122,72.6530612 C43.2253061,72.6530612 42.755102,72.1828571 42.755102,71.477551 L42.755102,71.477551 L42.755102,62.0734694 C42.755102,61.3681633 43.2253061,60.8979592 43.9306122,60.8979592 L43.9306122,60.8979592 Z M82.0693878,60.8979592 C82.7746939,60.8979592 83.244898,61.3681633 83.244898,62.0734694 L83.244898,62.0734694 L83.244898,71.477551 C83.244898,72.1828571 82.7746939,72.6530612 82.0693878,72.6530612 L82.0693878,72.6530612 L72.6653061,72.6530612 C71.96,72.6530612 71.4897959,72.1828571 71.4897959,71.477551 L71.4897959,71.477551 L71.4897959,62.0734694 C71.4897959,61.3681633 71.96,60.8979592 72.6653061,60.8979592 L72.6653061,60.8979592 Z M67.7020408,60.8979592 C68.4073469,60.8979592 68.877551,61.3681633 68.877551,62.0734694 L68.877551,62.0734694 L68.877551,71.477551 C68.877551,72.1828571 68.4073469,72.6530612 67.7020408,72.6530612 L67.7020408,72.6530612 L58.2979592,72.6530612 C57.5926531,72.6530612 57.122449,72.1828571 57.122449,71.477551 L57.122449,71.477551 L57.122449,62.0734694 C57.122449,61.3681633 57.5926531,60.8979592 58.2979592,60.8979592 L58.2979592,60.8979592 Z M52.1588075,63.2489796 L45.1057463,63.2489796 L45.1057463,70.3020408 L52.1588075,70.3020408 L52.1588075,63.2489796 Z M80.8938776,63.2489796 L73.8408163,63.2489796 L73.8408163,70.3020408 L80.8938776,70.3020408 L80.8938776,63.2489796 Z M66.5265306,63.2489796 L59.4734694,63.2489796 L59.4734694,70.3020408 L66.5265306,70.3020408 L66.5265306,63.2489796 Z M53.3346939,45.2244898 C54.04,45.2244898 54.5102041,45.6946939 54.5102041,46.4 L54.5102041,46.4 L54.5102041,55.8040816 C54.5102041,56.5093878 54.04,56.9795918 53.3346939,56.9795918 L53.3346939,56.9795918 L43.9306122,56.9795918 C43.2253061,56.9795918 42.755102,56.5093878 42.755102,55.8040816 L42.755102,55.8040816 L42.755102,46.4 C42.755102,45.6946939 43.2253061,45.2244898 43.9306122,45.2244898 L43.9306122,45.2244898 Z M82.0693878,45.2244898 C82.7746939,45.2244898 83.244898,45.6946939 83.244898,46.4 L83.244898,46.4 L83.244898,55.8040816 C83.244898,56.5093878 82.7746939,56.9795918 82.0693878,56.9795918 L82.0693878,56.9795918 L72.6653061,56.9795918 C71.96,56.9795918 71.4897959,56.5093878 71.4897959,55.8040816 L71.4897959,55.8040816 L71.4897959,46.4 C71.4897959,45.6946939 71.96,45.2244898 72.6653061,45.2244898 L72.6653061,45.2244898 Z M67.7020408,45.2244898 C68.4073469,45.2244898 68.877551,45.6946939 68.877551,46.4 L68.877551,46.4 L68.877551,55.8040816 C68.877551,56.5093878 68.4073469,56.9795918 67.7020408,56.9795918 L67.7020408,56.9795918 L58.2979592,56.9795918 C57.5926531,56.9795918 57.122449,56.5093878 57.122449,55.8040816 L57.122449,55.8040816 L57.122449,46.4 C57.122449,45.6946939 57.5926531,45.2244898 58.2979592,45.2244898 L58.2979592,45.2244898 Z M52.1591837,47.5755102 L45.1061224,47.5755102 L45.1061224,54.6285714 L52.1591837,54.6285714 L52.1591837,47.5755102 Z M80.8938776,47.5755102 L73.8408163,47.5755102 L73.8408163,54.6285714 L80.8938776,54.6285714 L80.8938776,47.5755102 Z M66.5265306,47.5755102 L59.4734694,47.5755102 L59.4734694,54.6285714 L66.5265306,54.6285714 L66.5265306,47.5755102 Z" id="icon-1"></path>
                    </g>
                </g>
            </g>
        </g>
    </g>
</svg>