<?xml version="1.0" encoding="UTF-8"?>
<svg width="86px" height="88px" viewBox="0 0 86 88" version="1.1" xmlns="http://www.w3.org/2000/svg" xmlns:xlink="http://www.w3.org/1999/xlink">
    <title>icon-4</title>
    <defs>
        <linearGradient x1="50%" y1="0%" x2="50%" y2="100%" id="linearGradient-1">
            <stop stop-color="#005E91" offset="0%"></stop>
            <stop stop-color="#003058" offset="100%"></stop>
        </linearGradient>
        <linearGradient x1="50%" y1="0%" x2="50%" y2="100%" id="linearGradient-2">
            <stop stop-color="#005E91" offset="0%"></stop>
            <stop stop-color="#003058" offset="100%"></stop>
        </linearGradient>
        <linearGradient x1="50%" y1="0%" x2="50%" y2="100%" id="linearGradient-3">
            <stop stop-color="#005E91" offset="0%"></stop>
            <stop stop-color="#003058" offset="100%"></stop>
        </linearGradient>
        <linearGradient x1="50%" y1="0%" x2="50%" y2="100%" id="linearGradient-4">
            <stop stop-color="#005E91" offset="0%"></stop>
            <stop stop-color="#003058" offset="100%"></stop>
        </linearGradient>
        <linearGradient x1="50%" y1="0%" x2="50%" y2="100%" id="linearGradient-5">
            <stop stop-color="#005E91" offset="0%"></stop>
            <stop stop-color="#003058" offset="100%"></stop>
        </linearGradient>
        <linearGradient x1="50%" y1="0%" x2="50%" y2="100%" id="linearGradient-6">
            <stop stop-color="#005E91" offset="0%"></stop>
            <stop stop-color="#003058" offset="100%"></stop>
        </linearGradient>
        <linearGradient x1="50%" y1="0%" x2="50%" y2="100%" id="linearGradient-7">
            <stop stop-color="#005E91" offset="0%"></stop>
            <stop stop-color="#003058" offset="100%"></stop>
        </linearGradient>
        <linearGradient x1="50%" y1="0%" x2="50%" y2="100%" id="linearGradient-8">
            <stop stop-color="#005E91" offset="0%"></stop>
            <stop stop-color="#003058" offset="100%"></stop>
        </linearGradient>
    </defs>
    <g id="⏹️-Product-Wireframe" stroke="none" stroke-width="1" fill="none" fill-rule="evenodd">
        <g id="DR---Payments---Update" transform="translate(-237.000000, -1763.000000)" fill-rule="nonzero">
            <g id="Stats-Row" transform="translate(114.000000, 1743.000000)">
                <g id="icons-/-location" transform="translate(123.000000, 20.000000)">
                    <path d="M39.4569891,40.4597701 L39.4569891,40.4597701 C38.9139895,40.4597701 38.3966724,40.2170115 38.0481254,39.8013793 C36.6392617,38.1094253 24.2823529,23.0363218 24.2823529,15.2128736 C24.2823529,6.82666667 31.0918608,0 39.4569891,0 C47.8257862,0 54.6352941,6.82666667 54.6352941,15.2128736 C54.6352941,23.0363218 42.2747165,38.1094253 40.8658528,39.8013793 C40.5173058,40.2170115 39.9999886,40.4597701 39.4569891,40.4597701 M39.4569891,3.67816092 C33.1134335,3.67816092 27.9512688,8.84965517 27.9512688,15.2128736 C27.9512688,20.1048276 35.2927695,30.4257471 39.4569891,35.7002299 C43.6212086,30.422069 50.9663782,20.0974713 50.9663782,15.2128736 C50.9663782,8.84965517 45.8005446,3.67816092 39.4569891,3.67816092" id="Fill-1" fill="url(#linearGradient-1)"></path>
                    <path d="M39.4569232,22.2528736 C35.553743,22.2528736 32.3764706,19.0764505 32.3764706,15.170514 C32.3764706,11.2683771 35.553743,8.09195402 39.4569232,8.09195402 C43.3639041,8.09195402 46.5411765,11.2683771 46.5411765,15.170514 C46.5411765,19.0764505 43.3639041,22.2528736 39.4569232,22.2528736 M39.4569232,11.8915031 C37.6478543,11.8915031 36.1770356,13.3619286 36.1770356,15.170514 C36.1770356,16.9828989 37.6478543,18.4533245 39.4569232,18.4533245 C41.2697928,18.4533245 42.7406114,16.9828989 42.7406114,15.170514 C42.7406114,13.3619286 41.2697928,11.8915031 39.4569232,11.8915031" id="Fill-3" fill="url(#linearGradient-2)"></path>
                    <path d="M72.3393662,62.7126437 L72.3393662,62.7126437 C71.803513,62.7126437 71.296625,62.4723126 70.9490446,62.0608368 C69.6963069,60.546023 58.6823529,47.0802023 58.6823529,40.0377747 C58.6823529,32.4637057 64.8084575,26.2988506 72.3393662,26.2988506 C79.8738955,26.2988506 86,32.4637057 86,40.0377747 C86,47.0802023 74.9860461,60.546023 73.7296878,62.0608368 C73.385728,62.4723126 72.8752193,62.7126437 72.3393662,62.7126437 M72.3393662,29.9402299 C66.8034242,29.9402299 62.3029821,34.4664644 62.3029821,40.0377747 C62.3029821,43.9231264 67.9801286,52.4548782 72.3393662,57.9970575 C76.0432698,53.2669057 82.3793708,44.2945471 82.3793708,40.0377747 C82.3793708,34.4664644 77.8753082,29.9402299 72.3393662,29.9402299" id="Fill-5" fill="url(#linearGradient-3)"></path>
                    <path d="M72.339273,46.5287356 C68.7150762,46.5287356 65.7647059,43.5783 65.7647059,39.954023 C65.7647059,36.329746 68.7150762,33.3793103 72.339273,33.3793103 C75.9672768,33.3793103 78.9176471,36.329746 78.9176471,39.954023 C78.9176471,43.5783 75.9672768,46.5287356 72.339273,46.5287356 M72.339273,37.186324 C70.8165012,37.186324 69.5716353,38.4274105 69.5716353,39.954023 C69.5716353,41.4806355 70.8165012,42.7217219 72.339273,42.7217219 C73.8658517,42.7217219 75.1107176,41.4806355 75.1107176,39.954023 C75.1107176,38.4274105 73.8658517,37.186324 72.339273,37.186324" id="Fill-7" fill="url(#linearGradient-4)"></path>
                    <path d="M17.2086964,88 C16.191452,88 15.3658623,87.1783054 15.3658623,86.1576355 C15.3658623,82.4213202 11.7723357,77.0416158 8.30043623,71.8350936 C4.81747971,66.6138325 1.21289614,61.2230739 0.320964413,56.3408079 C-0.640995006,51.0863842 0.582646861,45.9388177 3.67860821,42.2282956 C6.80405491,38.4809261 11.6101663,36.4137931 17.2086964,36.4137931 C22.7703699,36.4137931 27.5396246,38.4293399 30.635586,42.0882759 C33.790518,45.8135369 35.0215312,50.8653005 34.1037998,56.3186995 C33.4145798,60.4419113 30.1085354,65.4678818 26.6108362,70.7849458 C22.8956826,76.4410049 19.0515306,82.2813005 19.0515306,86.1576355 C19.0515306,87.1783054 18.2259409,88 17.2086964,88 M17.2086964,40.0985222 C12.6568961,40.0985222 8.95648518,41.6497931 6.50920145,44.5865222 C4.11720274,47.4569261 3.18104299,51.4990739 3.94766199,55.6812414 C4.69953832,59.8081379 8.09035313,64.8820099 11.3632266,69.790069 C13.5893702,73.1173793 15.7418005,76.3415172 17.1976394,79.3887882 C18.7824768,75.9804138 21.1818468,72.3362167 23.5296175,68.7657143 C26.6624356,63.9976749 29.9058236,59.0675074 30.4697309,55.7107192 L30.4697309,55.7070345 C31.2031789,51.3406305 30.2633335,47.350069 27.8234211,44.4722956 C25.4056227,41.6092611 21.7346971,40.0985222 17.2086964,40.0985222" id="Fill-9" fill="url(#linearGradient-5)"></path>
                    <path d="M16.6941176,61.7011494 C11.9501648,61.7011494 8.09411765,57.8453205 8.09411765,53.1016363 C8.09411765,48.3579521 11.9501648,44.5057471 16.6941176,44.5057471 C21.4380704,44.5057471 25.2941176,48.3579521 25.2941176,53.1016363 C25.2941176,57.8453205 21.4380704,61.7011494 16.6941176,61.7011494 M16.6941176,48.1296465 C13.9506705,48.1296465 11.7182222,50.3619684 11.7182222,53.1016363 C11.7182222,55.8449281 13.9506705,58.0772501 16.6941176,58.0772501 C19.4375648,58.0772501 21.6700131,55.8449281 21.6700131,53.1016363 C21.6700131,50.3619684 19.4375648,48.1296465 16.6941176,48.1296465" id="Fill-11" fill="url(#linearGradient-6)"></path>
                    <path d="M59.9158527,57.6551724 C59.5741341,57.6551724 59.2288185,57.5592324 58.9194732,57.3566925 L41.2724061,45.7372939 C40.4450875,45.193634 40.2220711,44.0921008 40.7724179,43.2748342 C41.3227647,42.4575677 42.4378464,42.237261 43.2687621,42.780921 L60.9158292,54.4003195 C61.7431478,54.9439794 61.9661642,56.0526193 61.4158174,56.8627792 C61.0669048,57.3815658 60.4985728,57.6551724 59.9158527,57.6551724" id="Fill-13" fill="url(#linearGradient-7)"></path>
                    <path d="M24.4545785,81.9099873 C24.0257618,81.013684 24.4250049,79.9417052 25.3491789,79.5294057 L62.1202115,62.8796754 C63.0443854,62.4637906 64.1460007,62.8509937 64.5785141,63.747297 C65.0110275,64.6436003 64.6117844,65.7084086 63.6839138,66.1314638 L26.9128812,82.7740237 C26.6578092,82.8851653 26.3953438,82.9425287 26.1328784,82.9425287 C25.4342029,82.9425287 24.7687976,82.5589109 24.4545785,81.9099873 Z" id="Fill-15" fill="url(#linearGradient-8)"></path>
                </g>
            </g>
        </g>
    </g>
</svg>