<?xml version="1.0" encoding="UTF-8"?>
<svg width="403px" height="361px" viewBox="0 0 403 361" version="1.1" xmlns="http://www.w3.org/2000/svg" xmlns:xlink="http://www.w3.org/1999/xlink">
    <title>icons_payments-and-risk-billing-optimization-box--lage</title>
    <defs>
        <linearGradient x1="50%" y1="0%" x2="50%" y2="100%" id="linearGradient-1">
            <stop stop-color="#005E91" offset="0%"></stop>
            <stop stop-color="#003058" offset="100%"></stop>
        </linearGradient>
        <linearGradient x1="50%" y1="0%" x2="50%" y2="100%" id="linearGradient-2">
            <stop stop-color="#005E91" offset="0%"></stop>
            <stop stop-color="#003058" offset="100%"></stop>
        </linearGradient>
        <linearGradient x1="50%" y1="0%" x2="50%" y2="100%" id="linearGradient-3">
            <stop stop-color="#005E91" offset="0%"></stop>
            <stop stop-color="#003058" offset="100%"></stop>
        </linearGradient>
        <linearGradient x1="50%" y1="0%" x2="50%" y2="100%" id="linearGradient-4">
            <stop stop-color="#005E91" offset="0%"></stop>
            <stop stop-color="#003058" offset="100%"></stop>
        </linearGradient>
    </defs>
    <g id="⏹️-Product-Wireframe" stroke="none" stroke-width="1" fill="none" fill-rule="evenodd">
        <g id="DR---Payments---Update" transform="translate(-820.000000, -3794.000000)" fill-rule="nonzero" stroke="#FFFFFF">
            <g id="icons_payments-and-risk-billing-optimization-box--lage" transform="translate(820.000000, 3794.000000)">
                <g id="Group">
                    <path d="M269.554118,2.24637188 C281.107614,2.24637188 291.717711,6.93847311 299.407336,14.589571 C306.863197,22.0080753 311.572543,32.2101947 311.73004,43.616475 L311.734118,44.2075208 L311.734118,156.6952 C311.734118,158.621999 310.860855,160.539677 309.444541,161.948895 C308.120338,163.266463 306.307679,164.143084 304.241176,164.143084 C302.378917,164.143084 300.656779,163.328817 299.408782,161.991554 C298.228635,160.726994 297.473213,158.996567 297.396964,157.025836 L297.390588,156.695194 L297.390229,68.0153719 L16.8932236,68.0153719 L16.8941176,182.260582 C16.8941176,189.74481 19.9847396,196.546333 25.047604,201.460965 C29.9363105,206.206538 36.6661452,209.194053 44.225419,209.321703 L44.7305882,209.325964 L192.471765,209.325964 C194.316976,209.325964 196.025022,210.121975 197.275242,211.365931 C198.522682,212.607121 199.322353,214.302404 199.322353,216.134713 C199.322353,218.543331 198.55416,220.572302 197.217365,221.997406 C195.943175,223.35577 194.16484,224.144302 192.135641,224.21632 L191.829412,224.221731 L44.0882353,224.221731 C32.5347391,224.221731 21.9246421,219.52963 14.2350167,211.878532 C6.77915611,204.460028 2.06981009,194.257908 1.91231312,182.851628 L1.90823529,182.260582 L1.90823529,44.2075208 C1.90823529,32.7156629 6.62358669,22.1628652 14.3104606,14.5145051 C21.7689968,7.09333862 32.0265165,2.40715153 43.4940178,2.25042963 L44.0882353,2.24637188 L269.554118,2.24637188 Z M270.196471,16.5030045 L44.7305882,16.5030045 L44.2389965,16.5073937 C36.8765839,16.6388949 30.039807,19.7174408 25.0450749,24.6871477 C20.0476787,29.6595052 16.8941176,36.5209617 16.8941176,44.2075208 L16.8941176,44.2075208 L16.893076,54.0153719 L297.390172,54.0153719 L297.390588,44.2075845 L297.386223,43.7208297 C297.255454,36.4307819 294.19485,29.6576559 289.327547,24.693667 C284.401842,19.6701152 277.632642,16.5030045 270.196471,16.5030045 L270.196471,16.5030045 Z" id="Combined-Shape" stroke-width="3" fill="url(#linearGradient-1)"></path>
                    <path d="M148.791765,104.925302 L62.0741176,104.925302 C57.5776471,104.925302 53.7235294,101.090495 53.7235294,95.9774187 C53.7235294,90.8643424 57.5776471,87.0295351 62.0741176,87.0295351 L148.791765,87.0295351 C153.288235,87.0295351 157.784706,90.8643424 157.784706,95.9774187 C157.784706,101.090495 153.288235,104.925302 148.791765,104.925302 Z" id="Path" stroke-width="4" fill="url(#linearGradient-2)"></path>
                    <path d="M270.196471,104.925302 L235.509412,104.925302 C231.012941,104.925302 227.158824,101.090495 227.158824,95.9774187 C227.158824,90.8643424 231.012941,87.0295351 235.509412,87.0295351 L270.196471,87.0295351 C274.692941,87.0295351 278.547059,90.8643424 278.547059,95.9774187 C278.547059,101.090495 274.692941,104.925302 270.196471,104.925302 Z" id="Path" stroke-width="4" fill="url(#linearGradient-3)"></path>
                    <path d="M114.104706,139.438568 L62.0741176,139.438568 C57.5776471,139.438568 53.7235294,135.60376 53.7235294,130.490684 C53.7235294,126.016742 57.5776471,122.181935 62.0741176,122.181935 L114.104706,122.181935 C118.601176,122.181935 123.097647,126.016742 123.097647,130.490684 C122.455294,135.60376 118.601176,139.438568 114.104706,139.438568 Z" id="Path" stroke-width="4" fill="url(#linearGradient-4)"></path>
                </g>
                <g id="Group" transform="translate(227.000000, 184.000000)" fill="#B03478" stroke-width="4">
                    <g id="Combined-Shape">
                        <path d="M122.013274,69.9336283 C117.522124,69.9336283 113.672566,66.0840708 113.672566,61.5929204 C113.672566,57.1017699 117.522124,52.6106195 122.013274,52.6106195 L151.570395,52.6107528 C138.637956,32.2459368 113.463295,17.9646018 87.3672566,17.9646018 C56.5707965,17.9646018 27.0575221,37.8539823 17.4336283,64.159292 C15.5088496,68.6504425 11.0176991,71.2168142 6.52654867,69.2920354 C2.03539823,68.0088496 -0.530973451,62.8761062 1.39380531,58.3849558 C12.9424779,25.0221239 49.5132743,0.64159292 87.3672566,0.64159292 C113.776734,0.64159292 139.561635,12.5085571 156.660641,31.0135231 L156.659292,17.9646018 C156.659292,13.4734513 160.50885,8.98230088 165,8.98230088 C169.49115,8.98230088 173.340708,12.8318584 173.340708,17.9646018 L173.340708,58.3849558 L173.340708,58.3849558 C173.965752,60.5726094 173.829644,62.9124935 173.006535,64.8855445 C171.978925,67.7434687 169.116507,69.8311404 165.881555,69.929964 L165.641593,69.9336283 L165.641593,69.9336283 L122.013274,69.9336283 Z"></path>
                    </g>
                    <g transform="translate(0.000000, 104.203540)" id="Combined-Shape">
                        <path d="M168.207965,1.01769912 C172.699115,2.30088496 175.265487,7.43362832 173.340708,11.9247788 C161.792035,45.2876106 125.862832,69.6681416 87.3672566,69.6681416 C60.9582564,69.6681416 35.1738107,57.8016064 18.0747992,39.2972149 L18.0752212,52.3451327 C18.0752212,56.8362832 14.2256637,60.6858407 9.73451327,60.6858407 C5.24336283,60.6858407 0.752212389,56.8362832 0.752212389,52.3451327 L0.752212389,8.71681416 C0.752212389,4.22566372 4.60176991,0.376106195 9.73451327,0.376106195 L53.3628319,0.376106195 C57.8539823,0.376106195 61.7035398,4.22566372 61.7035398,8.71681416 C61.7035398,13.2079646 57.8539823,17.699115 52.7212389,17.699115 L23.1641181,17.6989817 C36.0965571,38.0637977 61.2712186,52.3451327 87.3672566,52.3451327 C118.163717,52.3451327 147.676991,32.4557522 157.300885,6.15044248 C159.225664,1.65929204 163.716814,-0.907079646 168.207965,1.01769912 Z"></path>
                    </g>
                </g>
            </g>
        </g>
    </g>
</svg>