<?xml version="1.0" encoding="UTF-8"?> <!-- Generator: Adobe Illustrator 23.1.1, SVG Export Plug-In . SVG Version: 6.00 Build 0) --> <svg xmlns="http://www.w3.org/2000/svg" xmlns:xlink="http://www.w3.org/1999/xlink" id="Layer_1" x="0px" y="0px" viewBox="0 0 75 75" style="enable-background:new 0 0 75 75;" xml:space="preserve"> <style type="text/css"> .st0{fill:#003058;} .st1{fill:none;stroke:#003058;stroke-width:2.7;stroke-miterlimit:10;} </style> <g> <g> <path class="st0" d="M40.5,63.6H20.2c-8.2,0-14.8-6.7-14.8-14.9v-9c0-18.4,14.6-19.3,17.5-19.3H31c3.4,0,6.7,1.9,6.7,5.4v1.4 c0,3.5-3.4,5.4-6.7,5.4h-4.4c-0.9,2.6-3.8,9.5-9.1,9.5c-0.7,0-1.4-0.6-1.4-1.3c0-0.7,0.6-1.4,1.4-1.4c3.6,0,6.1-6.1,6.8-8.5 c0.2-0.6,0.7-1,1.3-1H31c1.4,0,4.1-0.6,4.1-2.7v-1.4c0-2-2.4-2.7-4.1-2.7h-8.1c-3.5,0-14.9,1.2-14.9,16.6v9 c0,6.7,5.5,12.2,12.1,12.2h20.2c0.7,0,1.4,0.6,1.4,1.3C41.8,63,41.2,63.6,40.5,63.6z"></path> </g> <g> <path class="st0" d="M51.3,55.5H40.5c-0.7,0-1.3-0.6-1.3-1.3c0-0.7,0.6-1.4,1.3-1.4h10.8c1.5,0,2.7-1.2,2.7-2.7s-1.2-2.7-2.7-2.7 H33.7c-0.7,0-1.3-0.6-1.3-1.4c0-0.7,0.6-1.3,1.3-1.3h17.5c3,0,5.4,2.4,5.4,5.4C56.7,53,54.3,55.5,51.3,55.5z"></path> </g> <g> <path class="st0" d="M40.5,63.6h-4c-0.7,0-1.3-0.6-1.3-1.4c0-0.7,0.6-1.3,1.3-1.3h4c1.5,0,2.7-1.2,2.7-2.7s-1.2-2.7-2.7-2.7h-6.8 c-0.7,0-1.3-0.6-1.3-1.3c0-0.7,0.6-1.4,1.3-1.4h6.8c3,0,5.4,2.4,5.4,5.4S43.5,63.6,40.5,63.6z"></path> </g> <g> <path class="st0" d="M68.8,25.8H36.2c-0.7,0-1.4-0.6-1.4-1.4s0.6-1.4,1.4-1.4h32.7c0.7,0,1.3,0.6,1.3,1.4S69.6,25.8,68.8,25.8z"></path> </g> <g> <path class="st0" d="M64.8,47.4H24.3c-3,0-5.4-2.4-5.4-5.4v-2.2c0-0.7,0.6-1.4,1.3-1.4c0.7,0,1.4,0.6,1.4,1.4V42 c0,1.5,1.2,2.7,2.7,2.7h40.5c1.5,0,2.7-1.2,2.7-2.7V17.7c0-1.5-1.2-2.7-2.7-2.7H24.3c-1.5,0-2.7,1.2-2.7,2.7v4.3 c0,0.7-0.6,1.4-1.4,1.4c-0.7,0-1.3-0.6-1.3-1.4v-4.3c0-3,2.4-5.4,5.4-5.4h40.5c3,0,5.4,2.4,5.4,5.4V42 C70.2,44.9,67.8,47.4,64.8,47.4z"></path> </g> <g> <path class="st0" d="M63.4,31.2h-8.1c-0.7,0-1.4-0.6-1.4-1.4c0-0.7,0.6-1.3,1.4-1.3h8.1c0.7,0,1.3,0.6,1.3,1.3 C64.8,30.6,64.2,31.2,63.4,31.2z"></path> </g> </g> </svg> 