<?xml version="1.0" encoding="UTF-8"?> <!-- Generator: Adobe Illustrator 23.1.1, SVG Export Plug-In . SVG Version: 6.00 Build 0) --> <svg xmlns="http://www.w3.org/2000/svg" xmlns:xlink="http://www.w3.org/1999/xlink" id="Layer_1" x="0px" y="0px" viewBox="0 0 75 75" style="enable-background:new 0 0 75 75;" xml:space="preserve"> <style type="text/css"> .st0{fill:#003058;} .st1{fill:none;stroke:#003058;stroke-width:2.7;stroke-miterlimit:10;} </style> <g> <g> <path class="st0" d="M46.3,39.9c-0.4,0-0.9-0.2-1.1-0.6c-0.4-0.6-0.2-1.5,0.4-1.9c4.7-3,7.5-8.1,7.5-13.6 c0-8.9-7.3-16.2-16.2-16.2s-16.2,7.3-16.2,16.2c0,5.5,2.8,10.6,7.5,13.6c0.6,0.4,0.8,1.2,0.4,1.9c-0.4,0.6-1.2,0.8-1.9,0.4 c-5.5-3.5-8.7-9.4-8.7-15.9c0-10.4,8.5-18.9,18.9-18.9s18.9,8.5,18.9,18.9c0,6.5-3.3,12.4-8.7,15.9C46.8,39.8,46.5,39.9,46.3,39.9 z"></path> </g> <g> <path class="st0" d="M52.7,69.7H31.2c-0.5,0-0.9-0.2-1.1-0.6L19.2,52.9c-1-1.5-1.5-4-0.5-5.7c0.6-1.1,1.7-1.8,3.1-1.8 c2.9,0,5.6,1.2,9.6,6.5V26.4c0-3,2.4-5.4,5.4-5.4c3,0,5.4,2.4,5.4,5.4v15.2l11.1,3.7c3.5,1.1,4.3,5.1,3.5,8.3l-2.7,14.8 C53.9,69.2,53.4,69.7,52.7,69.7z M31.9,67h19.7l2.5-13.7c0.5-2.1,0.1-4.6-1.7-5.2l-12-4.1c-0.5-0.2-0.9-0.7-0.9-1.3V26.5 c0-1.5-1.2-2.7-2.7-2.7c-1.5,0-2.7,1.2-2.7,2.7v29.7c0,0.6-0.4,1.1-1,1.3c-0.6,0.2-1.2-0.1-1.5-0.6c-5.3-8.2-7.9-8.8-9.9-8.8 c-0.5,0-0.6,0.2-0.7,0.4c-0.4,0.7-0.2,2.1,0.4,3L31.9,67z"></path> </g> </g> </svg> 