<?xml version="1.0" encoding="UTF-8"?>
<svg width="65px" height="65px" viewBox="0 0 65 65" version="1.1" xmlns="http://www.w3.org/2000/svg" xmlns:xlink="http://www.w3.org/1999/xlink">
    <title>FCD623A5-9CBE-4CCD-84FF-C1B1156F1AEC</title>
    <g id="CB,-Sub,-MOR" stroke="none" stroke-width="1" fill="none" fill-rule="evenodd">
        <g id="Subscriptions" transform="translate(-781.000000, -4019.000000)" fill="#003058" fill-rule="nonzero">
            <g id="Stacked-Group" transform="translate(-4.000000, -6.359504)">
                <g id="Cards" transform="translate(2.000000, 3880.000000)">
                    <g id="components-/-card-/-old-stylee-copy" transform="translate(742.000000, 64.942382)">
                        <g id="icon-chart-up" transform="translate(41.000000, 81.287385)">
                            <path d="M63.4,63.454646 L1.3,63.3547346 C0.6,63.3547346 0,62.7552665 0,61.9559756 C0,61.2565961 0.6,60.657128 1.4,60.657128 L63.5,60.7570393 C64.2,60.7570393 64.8,61.3565075 64.8,62.1557983 C64.7,62.8551778 64.1,63.454646 63.4,63.454646 Z" id="Path"></path>
                            <path d="M12.1,63.3547346 C11.4,63.3547346 10.8,62.7552665 10.8,61.9559756 L10.8,55.2619146 L5.4,55.2619146 L5.4,61.9559756 C5.4,62.6553551 4.8,63.2548233 4,63.2548233 C3.3,63.2548233 2.7,62.6553551 2.7,61.8560642 L2.7,53.7632443 C2.7,53.0638648 3.3,52.4643966 4.1,52.4643966 L12.2,52.4643966 C12.9,52.4643966 13.5,53.0638648 13.5,53.8631556 L13.5,61.9559756 C13.4,62.7552665 12.8,63.3547346 12.1,63.3547346 Z" id="Path"></path>
                            <path d="M28.3,63.3547346 C27.6,63.3547346 27,62.7552665 27,61.9559756 L27,44.471488 L21.6,44.471488 L21.6,61.9559756 C21.6,62.6553551 21,63.2548233 20.2,63.2548233 C19.4,63.2548233 18.9,62.6553551 18.9,61.8560642 L18.9,42.9728177 C18.9,42.2734382 19.5,41.67397 20.3,41.67397 L28.4,41.67397 C29.1,41.67397 29.7,42.2734382 29.7,43.072729 L29.7,61.9559756 C29.6,62.7552665 29,63.3547346 28.3,63.3547346 Z" id="Path"></path>
                            <path d="M44.5,63.454646 C43.8,63.454646 43.2,62.8551778 43.2,62.055887 L43.3,33.7809728 L37.9,33.7809728 L37.8,62.055887 C37.8,62.7552665 37.2,63.3547346 36.4,63.3547346 C35.6,63.3547346 35.1,62.7552665 35.1,61.9559756 L35.1,32.3822138 C35.1,31.6828343 35.7,31.0833661 36.5,31.0833661 L44.6,31.0833661 C45.3,31.0833661 45.9,31.6828343 45.9,32.4821251 L45.8,62.1557983 C45.8,62.8551778 45.2,63.454646 44.5,63.454646 Z" id="Path"></path>
                            <path d="M60.7,63.454646 C60,63.454646 59.4,62.8551778 59.4,62.055887 L59.5,22.9905462 L54.1,22.9905462 L54,62.055887 C54,62.7552665 53.4,63.3547346 52.6,63.3547346 C51.9,63.3547346 51.3,62.7552665 51.3,61.9559756 L51.4,21.4918758 C51.4,20.7924963 52,20.1930282 52.8,20.1930282 L60.9,20.1930282 C61.6,20.1930282 62.2,20.7924963 62.2,21.5917872 L62.1,62.055887 C62,62.8551778 61.4,63.454646 60.7,63.454646 Z" id="Path"></path>
                            <path d="M8.1,36.3786681 C7.7,36.3786681 7.2,36.1788454 7,35.7791999 C6.6,35.1797318 6.8,34.2805296 7.4,33.8808841 L56,1.60951567 C56.6,1.20987024 57.5,1.40969295 57.9,2.0091611 C58.3,2.60862924 58.1,3.50783146 57.5,3.90747689 L8.9,36.1788454 C8.6,36.2787567 8.4,36.3786681 8.1,36.3786681 Z" id="Path"></path>
                            <path d="M55.4,14.8977262 C55.3,14.8977262 55.3,14.8977262 55.2,14.8977262 C54.5,14.7978149 53.9,14.0984354 54,13.3990559 L55.2,3.90747689 L45.7,2.7085406 C45,2.60862924 44.4,1.90924974 44.5,1.20987024 C44.6,0.510490734 45.3,-0.0889774108 46,0.0109339468 L57,1.40969295 C57.7,1.50960431 58.3,2.20898381 58.2,2.90836331 L56.8,13.6987899 C56.7,14.3981694 56.1,14.8977262 55.4,14.8977262 Z" id="Path"></path>
                        </g>
                    </g>
                </g>
            </g>
        </g>
    </g>
</svg>