<?xml version="1.0" encoding="UTF-8"?> <!-- Generator: Adobe Illustrator 23.1.1, SVG Export Plug-In . SVG Version: 6.00 Build 0) --> <svg xmlns="http://www.w3.org/2000/svg" xmlns:xlink="http://www.w3.org/1999/xlink" id="Layer_1" x="0px" y="0px" viewBox="0 0 75 75" style="enable-background:new 0 0 75 75;" xml:space="preserve"> <style type="text/css"> .st0{fill:#003058;} .st1{fill:none;stroke:#003058;stroke-width:2.7;stroke-miterlimit:10;} </style> <g> <g> <path class="st0" d="M21.4,50.9c-8.6,0-15-5.8-15-13.5s6.5-13.5,15-13.5c8.8,0,16.7,12.3,17.1,12.8c0.3,0.4,0.3,1,0,1.5 C38.1,38.6,30.2,50.9,21.4,50.9z M21.4,26.6c-7.1,0-12.3,4.5-12.3,10.8s5.2,10.8,12.3,10.8c6.3,0,12.5-8.3,14.3-10.8 C33.9,34.9,27.7,26.6,21.4,26.6z"></path> </g> <g> <path class="st0" d="M53.6,50.9c-8.8,0-16.9-12.2-17.3-12.8c-0.3-0.5-0.3-1,0-1.5c0.3-0.5,8.5-12.8,17.3-12.8 c8.6,0,14.8,5.7,14.8,13.5S62.2,50.9,53.6,50.9z M39.1,37.4c1.8,2.5,8.3,10.8,14.5,10.8c7,0,12.1-4.5,12.1-10.8 s-5.1-10.8-12.1-10.8C47.3,26.6,40.9,34.8,39.1,37.4z"></path> </g> </g> </svg> 