<?xml version="1.0" encoding="UTF-8"?> <!-- Generator: Adobe Illustrator 23.1.1, SVG Export Plug-In . SVG Version: 6.00 Build 0) --> <svg xmlns="http://www.w3.org/2000/svg" xmlns:xlink="http://www.w3.org/1999/xlink" id="Layer_1" x="0px" y="0px" viewBox="0 0 75 75" style="enable-background:new 0 0 75 75;" xml:space="preserve"> <style type="text/css"> .st0{fill:#003058;} .st1{fill:none;stroke:#003058;stroke-width:2.7;stroke-miterlimit:10;} </style> <g> <g> <path class="st0" d="M24.2,69.8c-9.5,0-17.3-7.9-17.3-17.6V27.9c0-5.2,4.2-9.4,9.3-9.4h16c5.1,0,9.3,4.2,9.3,9.4v24.3 C41.5,61.9,33.7,69.8,24.2,69.8z M16.2,21.2c-3.7,0-6.6,3-6.6,6.8v24.3c0,8.2,6.6,14.8,14.6,14.8s14.6-6.7,14.6-14.8V27.9 c0-3.7-3-6.8-6.6-6.8H16.2z"></path> </g> <g> <rect x="8.2" y="32" class="st0" width="31.9" height="2.7"></rect> </g> <g> <path class="st0" d="M60.1,39.4c-5.3,0-10.6-4.4-10.6-12.8v-6.8c0-3.7-1.3-6.8-3.8-8.9c-2.2-1.9-5.3-3-8.5-3 c-5.6,0-11.6,3.3-11.6,10.5v14.9c0,0.7-0.6,1.3-1.3,1.3c-0.7,0-1.3-0.6-1.3-1.3V18.5c0-8.7,7.2-13.2,14.3-13.2 c3.9,0,7.5,1.3,10.2,3.6c3.1,2.7,4.8,6.5,4.8,11v6.8c0,6.9,4.1,10.1,8,10.1s8-3.2,8-10.1V10.4c0-0.7,0.6-1.4,1.3-1.4 s1.3,0.6,1.3,1.4v16.2C70.7,35,65.4,39.4,60.1,39.4z"></path> </g> </g> </svg> 