<?xml version="1.0" encoding="UTF-8"?>
<svg width="44px" height="44px" viewBox="0 0 44 44" version="1.1" xmlns="http://www.w3.org/2000/svg" xmlns:xlink="http://www.w3.org/1999/xlink">
    <title>icon-dr</title>
    <g id="Page-1" stroke="none" stroke-width="1" fill="none" fill-rule="evenodd">
        <g id="icon-dr" fill-rule="nonzero">
            <path d="M18.9599735,37.8112791 C22.7275378,37.8192437 26.4103996,36.693828 29.5299735,34.5812791 L37.5299735,42.5812791 C38.475728,43.5538017 39.8889002,43.9101723 41.1827286,43.5024227 C42.4765571,43.0946731 43.4300532,41.9924479 43.6473173,40.6534004 C43.8645813,39.3143529 43.308504,37.9671953 42.2099735,37.1712791 L33.5999735,30.8212791 C39.1667464,23.9560094 39.2353251,14.1503628 33.7651208,7.20790272 C28.2949164,0.265442595 18.7452942,-1.96169089 10.7682871,1.84465197 C2.79127995,5.65099483 -1.48497087,14.4753411 0.470473507,23.0949191 C2.42591788,31.7144972 10.0913754,37.8297379 18.9299735,37.8212791 L18.9599735,37.8112791 Z M41.3699735,38.3412791 C41.8728501,38.7042353 42.1905834,39.2700468 42.2387381,39.8883535 C42.2868928,40.5066602 42.0605921,41.114842 41.6199735,41.5512791 C40.7769742,42.3437453 39.4629728,42.3437453 38.6199735,41.5512791 L30.7399735,33.7012791 C31.4469999,33.154909 32.1152708,32.5601478 32.7399735,31.9212791 L41.3699735,38.3412791 Z M18.9599735,1.44127913 C28.6028652,1.44127913 36.4199735,9.25838739 36.4199735,18.9012791 C36.4199735,28.5441709 28.6028652,36.3612791 18.9599735,36.3612791 C9.31708178,36.3612791 1.49997351,28.5441709 1.49997351,18.9012791 C1.49997351,9.25838739 9.31708178,1.44127913 18.9599735,1.44127913 Z" id="Shape" fill="#FFFFFF"></path>
            <path d="M8.77992534,11.6612791 L8.77992534,22.6612791 C8.77798055,25.0709592 10.09924,27.2871414 12.2199735,28.4312791 L18.6199735,31.8712791 C18.83451,31.9905536 19.095437,31.9905536 19.3099735,31.8712791 L25.6999735,28.4312791 C27.8229996,27.2881575 29.1477891,25.0724951 29.1499864,22.6612791 L29.1499864,11.6612791 C29.1538556,10.5242275 28.2831497,9.57515804 27.1499735,9.48127913 C25.4799735,9.32127913 22.3799735,8.78127913 20.3199735,7.04127913 C19.5210376,6.35319817 18.3389094,6.35319817 17.5399735,7.04127913 C15.5399735,8.78127913 12.3799735,9.32127913 10.7099735,9.48127913 C9.60454371,9.60886598 8.77263494,10.548535 8.77992534,11.6612791 Z M18.5099735,8.15127913 C18.77022,7.93286615 19.149727,7.93286615 19.4099735,8.15127913 C21.7699735,10.1512791 25.1999735,10.7512791 27.0299735,10.9312791 C27.4055806,10.9674589 27.691712,11.2839376 27.6899814,11.6612791 L27.6899814,22.6612791 C27.6902397,24.5368873 26.6609781,26.2612847 25.0099735,27.1512791 L18.9599735,30.4412791 L12.9599735,27.1812791 C11.308969,26.2912847 10.2797073,24.5668873 10.2799656,22.6912791 L10.2799656,11.6912791 C10.2782351,11.3139376 10.5643665,10.9974589 10.9399735,10.9612791 C12.7199735,10.7512791 16.1599735,10.1512791 18.5099735,8.15127913 Z" id="Shape" fill="#FFFFFF"></path>
            <path d="M13.5999735,25.9012791 L18.2699735,28.4112791 C18.6985418,28.651767 19.2214053,28.651767 19.6499735,28.4112791 L24.3199735,25.9012791 C25.5028268,25.2670793 26.2407145,24.0334232 26.2399741,22.6912791 L26.2399741,13.5512791 C26.2328064,12.8492026 25.7301486,12.2502021 25.0399735,12.1212791 C23.1616819,11.7881411 21.3613258,11.1100409 19.7299735,10.1212791 C19.2577118,9.83087655 18.6622353,9.83087655 18.1899735,10.1212791 C16.5579158,11.1085893 14.7578376,11.7865849 12.8799735,12.1212791 C12.1894978,12.2471261 11.6882794,12.8494307 11.6899217,13.5512791 L11.6899217,22.6912791 C11.6828175,24.0324899 12.4178069,25.2677338 13.5999735,25.9012791 L13.5999735,25.9012791 Z M13.1499735,13.5512791 C15.2013092,13.1996107 17.1706319,12.4742492 18.9599735,11.4112791 C20.7512807,12.4776756 22.72453,13.2032347 24.7799908,13.5512791 L24.7799908,22.6912791 C24.7831786,23.4978134 24.3408159,24.2402135 23.6299735,24.6212791 L18.9599735,27.1312791 L14.2899735,24.6212791 C13.5791312,24.2402135 13.1367684,23.4978134 13.1399562,22.6912791 L13.1499735,13.5512791 Z" id="Shape" fill="#FFFFFF"></path>
            <path d="M18.9599735,19.6212791 C19.3153066,19.6253611 19.6175695,19.8814449 19.6799735,20.2312791 C19.7389217,20.5767998 19.5404843,20.9145656 19.2099735,21.0312791 C18.8778625,21.1559672 18.5044196,21.0201697 18.3299735,20.7112791 C18.1147119,20.3948245 17.6915907,20.2983488 17.3604274,20.4902133 C17.0292641,20.6820777 16.9025067,21.0971339 17.0699735,21.4412791 C17.3314822,21.8857144 17.7427132,22.2224984 18.2299735,22.3912791 L18.2299735,22.5312791 C18.2299735,22.934447 18.5568056,23.2612791 18.9599735,23.2612791 C19.3631414,23.2612791 19.6899735,22.934447 19.6899735,22.5312791 L19.6899735,22.4012791 C20.6835854,22.0419028 21.2764384,21.0217262 21.0967489,19.9805117 C20.9170594,18.9392973 20.0165647,18.1768379 18.9599735,18.1712791 C18.610097,18.1672816 18.3122615,17.9155897 18.2499735,17.5712791 C18.1800094,17.2243699 18.3761994,16.8789049 18.7099735,16.7612791 C19.0420845,16.6365911 19.4155274,16.7723885 19.5899735,17.0812791 C19.8052352,17.3977337 20.2283563,17.4942094 20.5595196,17.302345 C20.8906829,17.1104805 21.0174403,16.6954244 20.8499735,16.3512791 C20.5969761,15.8886219 20.1848579,15.5333476 19.6899735,15.3512791 L19.6899735,15.2112791 C19.6899735,14.8081113 19.3631414,14.4812791 18.9599735,14.4812791 C18.5568056,14.4812791 18.2299735,14.8081113 18.2299735,15.2112791 L18.2299735,15.3412791 C17.1410407,15.631328 16.4526412,16.7035034 16.6421099,17.814361 C16.8315786,18.9252186 17.836461,19.7085866 18.9599735,19.6212791 L18.9599735,19.6212791 Z" id="Path" fill="#B03478"></path>
            <path d="M18.9599735,34.9012791 C27.7965295,34.9012791 34.9599735,27.7378351 34.9599735,18.9012791 C34.9599735,10.0647231 27.7965295,2.90127913 18.9599735,2.90127913 C18.5568056,2.90127913 18.2299735,3.22811126 18.2299735,3.63127913 C18.2299735,4.03444699 18.5568056,4.36127913 18.9599735,4.36127913 C26.5503957,4.44463054 32.795647,10.3605004 33.289745,17.9352824 C33.783843,25.5100645 28.3600184,32.1871003 20.8447429,33.2557863 C13.3294674,34.3244723 6.25931452,29.4241029 4.62222943,22.0118557 C2.98514434,14.5996086 7.33367983,7.17728279 14.5999735,4.98127913 C14.98105,4.85977648 15.1914762,4.4523556 15.0699735,4.07127913 C14.9484709,3.69020265 14.54105,3.47977648 14.1599735,3.60127913 C6.56155392,5.9250968 1.81973577,13.473049 3.02418401,21.3270552 C4.22863224,29.1810614 11.0143762,34.9612085 18.9599735,34.9012791 Z" id="Path" fill="#FFFFFF"></path>
        </g>
    </g>
</svg>