<?xml version="1.0" encoding="UTF-8"?> <!-- Generator: Adobe Illustrator 23.1.1, SVG Export Plug-In . SVG Version: 6.00 Build 0) --> <svg xmlns="http://www.w3.org/2000/svg" xmlns:xlink="http://www.w3.org/1999/xlink" id="Layer_1" x="0px" y="0px" viewBox="0 0 75 75" style="enable-background:new 0 0 75 75;" xml:space="preserve"> <style type="text/css"> .st0{fill:#003058;} .st1{fill:none;stroke:#003058;stroke-width:2.7;stroke-miterlimit:10;} </style> <g> <g> <path class="st0" d="M32.9,45.3c-0.3,0-0.7-0.1-1-0.4l-6.8-6.8c-0.5-0.5-0.5-1.4,0-1.9s1.4-0.5,1.9,0l5.8,5.8l19.3-18 c0.5-0.5,1.4-0.5,1.9,0.1c0.5,0.5,0.5,1.4-0.1,1.9L33.8,45C33.5,45.2,33.2,45.3,32.9,45.3z"></path> </g> <g> <path class="st0" d="M38.2,71c-0.2,0-0.4-0.1-0.6-0.2c-16.3-8.6-26.4-25.3-26.4-43.7V7.5c0-0.7,0.6-1.3,1.3-1.3h51.3 c0.7,0,1.4,0.6,1.4,1.3v19.6c0,18.4-10.1,35.1-26.4,43.7C38.7,70.9,38.5,71,38.2,71z M13.9,8.9v18.3c0,17.1,9.3,32.8,24.3,41 c15-8.2,24.3-23.8,24.3-41V8.9H13.9z"></path> </g> </g> </svg> 