<?xml version="1.0" encoding="UTF-8"?> <!-- Generator: Adobe Illustrator 23.1.1, SVG Export Plug-In . SVG Version: 6.00 Build 0) --> <svg xmlns="http://www.w3.org/2000/svg" xmlns:xlink="http://www.w3.org/1999/xlink" id="Layer_1" x="0px" y="0px" viewBox="0 0 75 75" style="enable-background:new 0 0 75 75;" xml:space="preserve"> <style type="text/css"> .st0{fill:#003058;} .st1{fill:none;stroke:#003058;stroke-width:2.7;stroke-miterlimit:10;} </style> <g> <g> <path class="st0" d="M41.8,46c-6.7,0-12.1-5.5-12.1-12.1s5.5-12.1,12.1-12.1S54,27.2,54,33.9S48.5,46,41.8,46z M41.8,24.4 c-5.2,0-9.4,4.2-9.4,9.5s4.2,9.5,9.4,9.5s9.5-4.2,9.5-9.5S47,24.4,41.8,24.4z"></path> </g> <g> <path class="st0" d="M10.8,25.8c-3,0-5.4-2.4-5.4-5.4S7.8,15,10.8,15s5.4,2.4,5.4,5.4S13.8,25.8,10.8,25.8z M10.8,17.7 c-1.5,0-2.7,1.2-2.7,2.7s1.2,2.7,2.7,2.7s2.7-1.2,2.7-2.7S12.3,17.7,10.8,17.7z"></path> </g> <g> <path class="st0" d="M64.8,16.3c-3,0-5.4-2.4-5.4-5.4s2.4-5.4,5.4-5.4c3,0,5.4,2.4,5.4,5.4S67.8,16.3,64.8,16.3z M64.8,8.2 c-1.5,0-2.7,1.2-2.7,2.7s1.2,2.7,2.7,2.7s2.7-1.2,2.7-2.7S66.3,8.2,64.8,8.2z"></path> </g> <g> <path class="st0" d="M10.8,70.3c-3,0-5.4-2.4-5.4-5.4c0-3,2.4-5.4,5.4-5.4s5.4,2.4,5.4,5.4C16.2,67.9,13.8,70.3,10.8,70.3z M10.8,62.2c-1.5,0-2.7,1.2-2.7,2.7s1.2,2.7,2.7,2.7s2.7-1.2,2.7-2.7S12.3,62.2,10.8,62.2z"></path> </g> <g> <path class="st0" d="M41.8,70.3c-3,0-5.4-2.4-5.4-5.4c0-3,2.4-5.4,5.4-5.4c3,0,5.4,2.4,5.4,5.4C47.2,67.9,44.8,70.3,41.8,70.3z M41.8,62.2c-1.5,0-2.7,1.2-2.7,2.7s1.2,2.7,2.7,2.7s2.7-1.2,2.7-2.7S43.3,62.2,41.8,62.2z"></path> </g> <g> <polygon class="st0" points="14.6,63 12.7,61.1 33.3,40.6 35.2,42.5 "></polygon> </g> <g> <polygon class="st0" points="50.4,27.2 48.5,25.3 61,12.8 62.9,14.7 "></polygon> </g> <g> <rect x="21.8" y="16.4" transform="matrix(0.394 -0.9191 0.9191 0.394 -9.7398 36.9759)" class="st0" width="2.7" height="19"></rect> </g> <g> <rect x="54.7" y="36.1" transform="matrix(0.382 -0.9242 0.9242 0.382 -3.6237 77.3471)" class="st0" width="2.7" height="10.6"></rect> </g> <g> <rect x="40.5" y="44.7" class="st0" width="2.7" height="16.2"></rect> </g> <g> <path class="st0" d="M64.8,50.1c-3,0-5.4-2.4-5.4-5.4s2.4-5.4,5.4-5.4c3,0,5.4,2.4,5.4,5.4S67.8,50.1,64.8,50.1z M64.8,42 c-1.5,0-2.7,1.2-2.7,2.7s1.2,2.7,2.7,2.7s2.7-1.2,2.7-2.7S66.3,42,64.8,42z"></path> </g> </g> </svg> 