<?xml version="1.0" encoding="UTF-8"?> <!-- Generator: Adobe Illustrator 23.1.1, SVG Export Plug-In . SVG Version: 6.00 Build 0) --> <svg xmlns="http://www.w3.org/2000/svg" xmlns:xlink="http://www.w3.org/1999/xlink" id="Layer_1" x="0px" y="0px" viewBox="0 0 75 75" style="enable-background:new 0 0 75 75;" xml:space="preserve"> <style type="text/css"> .st0{fill:#003058;} .st1{fill:none;stroke:#003058;stroke-width:2.7;stroke-miterlimit:10;} </style> <g> <g> <path class="st0" d="M61.2,70.3H15.3c-0.7,0-1.3-0.6-1.3-1.3V6.9c0-0.7,0.6-1.3,1.3-1.3H45c0.4,0,0.7,0.1,1,0.4l16.2,16.2 c0.3,0.3,0.4,0.6,0.4,1V69C62.5,69.7,61.9,70.3,61.2,70.3z M16.6,67.6h43.2v-44L44.4,8.2H16.6V67.6z"></path> </g> <g> <path class="st0" d="M61.2,24.4H45c-0.7,0-1.4-0.6-1.4-1.4V6.9c0-0.7,0.6-1.3,1.4-1.3c0.7,0,1.3,0.6,1.3,1.3v14.9h14.8 c0.7,0,1.4,0.6,1.4,1.3C62.5,23.8,61.9,24.4,61.2,24.4z"></path> </g> <g> <path class="st0" d="M38.2,27.1H26.1c-0.7,0-1.4-0.6-1.4-1.4s0.6-1.4,1.4-1.4h12.2c0.7,0,1.3,0.6,1.3,1.4S39,27.1,38.2,27.1z"></path> </g> <g> <path class="st0" d="M50.4,35.2H26.1c-0.7,0-1.4-0.6-1.4-1.3c0-0.7,0.6-1.4,1.4-1.4h24.3c0.7,0,1.4,0.6,1.4,1.4 C51.7,34.6,51.1,35.2,50.4,35.2z"></path> </g> <g> <path class="st0" d="M50.4,43.3H26.1c-0.7,0-1.4-0.6-1.4-1.4c0-0.7,0.6-1.3,1.4-1.3h24.3c0.7,0,1.4,0.6,1.4,1.3 C51.7,42.7,51.1,43.3,50.4,43.3z"></path> </g> <g> <path class="st0" d="M50.4,51.4H26.1c-0.7,0-1.4-0.6-1.4-1.3c0-0.7,0.6-1.4,1.4-1.4h24.3c0.7,0,1.4,0.6,1.4,1.4 C51.7,50.8,51.1,51.4,50.4,51.4z"></path> </g> <g> <path class="st0" d="M50.4,59.5H26.1c-0.7,0-1.4-0.6-1.4-1.3s0.6-1.3,1.4-1.3h24.3c0.7,0,1.4,0.6,1.4,1.3S51.1,59.5,50.4,59.5z"></path> </g> </g> </svg> 