<?xml version="1.0" encoding="UTF-8"?> <!-- Generator: Adobe Illustrator 23.1.1, SVG Export Plug-In . SVG Version: 6.00 Build 0) --> <svg xmlns="http://www.w3.org/2000/svg" xmlns:xlink="http://www.w3.org/1999/xlink" id="Layer_1" x="0px" y="0px" viewBox="0 0 75 75" style="enable-background:new 0 0 75 75;" xml:space="preserve"> <style type="text/css"> .st0{fill:#003058;} .st1{fill:none;stroke:#003058;stroke-width:2.7;stroke-miterlimit:10;} </style> <g> <g> <path class="st0" d="M18,66.5H7.2c-0.7,0-1.3-0.6-1.3-1.3V43.5c0-0.7,0.6-1.3,1.3-1.3H18c0.7,0,1.4,0.6,1.4,1.3v21.7 C19.3,65.9,18.7,66.5,18,66.5z M8.5,63.8h8.1v-19H8.5V63.8z"></path> </g> <g> <path class="st0" d="M40.1,68.8c-3.6,0-7.5-1.3-14.6-3.8c-2.3-0.8-4.8-1.7-7.9-2.7c-0.7-0.2-1.1-1-0.9-1.7c0.2-0.7,1-1.1,1.7-0.9 c3,1,5.6,1.9,7.9,2.7c14.8,5.1,14.8,5.1,29-2.5c3.1-1.6,6.9-3.6,11.5-6c-2-1.6-3.6-1.6-5.3-1.1l-11.9,4c-0.7,0.2-1.5-0.2-1.7-0.9 c-0.2-0.7,0.1-1.5,0.9-1.7l12-4c3.6-1,6.3-0.1,9.5,3c0.3,0.3,0.4,0.7,0.4,1.2c-0.1,0.4-0.3,0.8-0.7,1c-5.5,2.7-9.8,5-13.3,6.9 C48.3,66.8,44.5,68.8,40.1,68.8z"></path> </g> <g> <path class="st0" d="M46.3,58.3H31.5c-0.7,0-1.3-0.6-1.3-1.4c0-0.7,0.6-1.3,1.3-1.3h14.9c1.4,0,1.9-0.7,1.9-1.3 c0-0.6-0.5-1.4-1.9-1.4h-8.1c-0.4,0-0.7-0.1-1-0.4c-1.5-1.5-5.6-5-11.2-5H18c-0.7,0-1.3-0.6-1.3-1.4c0-0.7,0.6-1.3,1.3-1.3h8.1 c6.1,0,10.7,3.5,12.7,5.4h7.6c3,0,4.6,2,4.6,4.1C50.9,56.3,49.4,58.3,46.3,58.3z"></path> </g> <g> <path class="st0" d="M53.1,25.9c-5.2,0-9.5-4.2-9.5-9.5S47.9,7,53.1,7s9.5,4.2,9.5,9.5S58.3,25.9,53.1,25.9z M53.1,9.7 c-3.7,0-6.8,3-6.8,6.8s3,6.8,6.8,6.8c3.7,0,6.8-3,6.8-6.8S56.8,9.7,53.1,9.7z"></path> </g> <g> <path class="st0" d="M39.6,44.8c-5.2,0-9.4-4.2-9.4-9.5s4.2-9.4,9.4-9.4s9.5,4.2,9.5,9.4S44.8,44.8,39.6,44.8z M39.6,28.6 c-3.7,0-6.8,3-6.8,6.8s3,6.8,6.8,6.8c3.7,0,6.8-3,6.8-6.8S43.3,28.6,39.6,28.6z"></path> </g> <g> <path class="st0" d="M39.6,39.4c-0.7,0-1.3-0.6-1.3-1.3v-5.4c0-0.7,0.6-1.3,1.3-1.3c0.7,0,1.4,0.6,1.4,1.3v5.4 C40.9,38.8,40.3,39.4,39.6,39.4z"></path> </g> <g> <path class="st0" d="M53.1,20.5c-0.7,0-1.3-0.6-1.3-1.3v-5.4c0-0.7,0.6-1.4,1.3-1.4c0.7,0,1.4,0.6,1.4,1.4v5.4 C54.4,19.9,53.8,20.5,53.1,20.5z"></path> </g> </g> </svg> 