<?xml version="1.0" encoding="UTF-8"?> <!-- Generator: Adobe Illustrator 23.1.1, SVG Export Plug-In . SVG Version: 6.00 Build 0) --> <svg xmlns="http://www.w3.org/2000/svg" xmlns:xlink="http://www.w3.org/1999/xlink" id="Layer_1" x="0px" y="0px" viewBox="0 0 75 75" style="enable-background:new 0 0 75 75;" xml:space="preserve"> <style type="text/css"> .st0{fill:#003058;} .st1{fill:none;stroke:#003058;stroke-width:2.7;stroke-miterlimit:10;} </style> <g> <g> <path class="st0" d="M22.9,70.3c-5.2,0-9.4-4.2-9.4-9.5s4.2-9.5,9.4-9.5s9.5,4.2,9.5,9.5S28.1,70.3,22.9,70.3z M22.9,54.1 c-3.7,0-6.8,3-6.8,6.8s3,6.7,6.8,6.7s6.8-3,6.8-6.7S26.7,54.1,22.9,54.1z"></path> </g> <g> <path class="st0" d="M25.6,54.6c-0.7,0-1.3-0.6-1.3-1.3V8.2h-6.8c-0.7,0-1.4-0.6-1.4-1.3s0.6-1.3,1.4-1.3h8.1 c0.7,0,1.4,0.6,1.4,1.3v46.4C27,54,26.4,54.6,25.6,54.6z"></path> </g> <g> <path class="st0" d="M61,70.3c-0.3,0-0.7-0.1-0.9-0.4l-5.2-5H30.5c-0.7,0-1.4-0.6-1.4-1.3s0.6-1.4,1.4-1.4h24.8 c0.3,0,0.7,0.1,0.9,0.4l5.6,5.4c0.5,0.5,0.6,1.4,0,1.9C61.7,70.2,61.3,70.3,61,70.3z"></path> </g> <g> <path class="st0" d="M58,59.5H31c-0.7,0-1.4-0.6-1.4-1.3V33.9c0-0.7,0.6-1.3,1.4-1.3h27c0.7,0,1.4,0.6,1.4,1.3v24.3 C59.4,58.9,58.8,59.5,58,59.5z M32.4,56.8h24.3V35.2H32.4V56.8z"></path> </g> <g> <path class="st0" d="M49.9,35.2H31c-0.7,0-1.4-0.6-1.4-1.3V20.4c0-0.7,0.6-1.4,1.4-1.4h18.9c0.7,0,1.3,0.6,1.3,1.4v13.5 C51.3,34.6,50.7,35.2,49.9,35.2z M32.4,32.5h16.2V21.7H32.4V32.5z"></path> </g> <g> <path class="st0" d="M52.6,54.1h-5.4c-0.7,0-1.3-0.6-1.3-1.4c0-0.7,0.6-1.3,1.3-1.3h5.4c0.7,0,1.3,0.6,1.3,1.3 C54,53.5,53.4,54.1,52.6,54.1z"></path> </g> <g> <path class="st0" d="M39.1,29.8h-2.7c-0.7,0-1.3-0.6-1.3-1.3c0-0.7,0.6-1.4,1.3-1.4h2.7c0.7,0,1.3,0.6,1.3,1.4 C40.5,29.2,39.9,29.8,39.1,29.8z"></path> </g> </g> </svg> 