<?xml version="1.0" encoding="UTF-8"?>
<svg width="22px" height="22px" viewBox="0 0 22 22" version="1.1" xmlns="http://www.w3.org/2000/svg" xmlns:xlink="http://www.w3.org/1999/xlink">
    <title>icons / globe / Globe Americas</title>
    <g id="icons-/-globe-/-Globe-Americas" stroke="none" stroke-width="1" fill="none" fill-rule="evenodd">
        <g id="Globe-Americas" fill="#000000" fill-rule="nonzero">
            <path d="M10.99783,0.34368 C5.11231,0.34368 0.34375,5.11224 0.34375,10.99776 C0.34375,16.88328 5.11231,21.65184 10.99783,21.65184 C16.88335,21.65184 21.65191,16.88328 21.65191,10.99776 C21.65191,5.11224 16.88335,0.34368 10.99783,0.34368 Z M9.62311,2.526048 L9.62311,3.011496 C9.62311,3.52272 9.08611,3.853512 8.626438,3.625824 L7.595398,3.110304 C8.235502,2.83536 8.91427,2.64204 9.62311,2.526048 L9.62311,2.526048 Z M10.99783,18.412656 L10.99783,19.58976 C6.259342,19.58976 2.40583,15.736248 2.40583,10.99776 C2.40583,9.747624 2.680774,8.561928 3.161926,7.487928 C3.58723,8.11944 4.244518,9.094632 4.648342,9.683184 C4.871734,10.00968 5.129494,10.3104 5.425918,10.572456 L5.460286,10.602528 C5.868406,10.971984 6.328078,11.289888 6.817822,11.539056 C7.419262,11.839776 8.295646,12.320928 8.91427,12.660312 C9.352462,12.900888 9.62311,13.36056 9.62311,13.863192 L9.62311,15.237912 C9.62311,15.603072 9.769174,15.951048 10.026934,16.208808 C10.671334,16.857504 11.070862,17.87136 10.99783,18.412656 Z M12.832222,19.387848 L13.579726,17.373024 C13.665646,17.136744 13.721494,16.891872 13.785934,16.647 C13.83319,16.47516 13.923406,16.316208 14.052286,16.187328 L14.537734,15.70188 C14.915782,15.328128 15.126286,14.816904 15.126286,14.2842 C15.126286,13.936224 14.988814,13.601136 14.743942,13.356264 L14.15539,12.767712 C13.89763,12.509952 13.549654,12.363888 13.184494,12.363888 L10.31047,12.363888 C9.906646,12.161976 9.38683,10.989168 8.93575,10.989168 C8.48467,10.989168 8.037886,10.881768 7.634062,10.679856 L7.157206,10.443576 C6.985366,10.357656 6.87367,10.177224 6.87367,9.983904 C6.87367,9.764808 7.015438,9.567192 7.225942,9.498456 L8.566294,9.051672 C8.798278,8.974344 9.051742,9.025896 9.232174,9.184848 L9.631702,9.532824 C9.696142,9.588672 9.77347,9.618744 9.855094,9.618744 L10.09567,9.618744 C10.35343,9.618744 10.516678,9.348096 10.404982,9.120408 L9.734806,7.780056 C9.66607,7.64688 9.696142,7.483632 9.803542,7.380528 L10.228846,6.968112 C10.293286,6.903672 10.379206,6.869304 10.469422,6.869304 L10.856062,6.869304 C10.946278,6.869304 11.036494,6.834936 11.100934,6.770496 L11.444614,6.426816 C11.57779,6.29364 11.57779,6.074544 11.444614,5.941368 L11.242702,5.739456 C11.109526,5.60628 11.109526,5.387184 11.242702,5.254008 L11.68519,4.81152 L11.887102,4.609608 C12.153454,4.343256 12.153454,3.905064 11.887102,3.638712 L10.671334,2.422944 C10.778734,2.418648 10.886134,2.40576 10.99783,2.40576 C14.357302,2.40576 17.261398,4.347552 18.674782,7.161432 L18.116302,7.440672 C17.95735,7.522296 17.819878,7.642584 17.72107,7.788648 L16.879054,9.051672 C16.64707,9.399648 16.64707,9.850728 16.879054,10.194408 L17.652334,11.354328 C17.794102,11.569128 18.013198,11.719488 18.25807,11.783928 L19.512502,12.097536 C19.048534,15.706176 16.337758,18.62316 12.832222,19.387848 L12.832222,19.387848 Z" id="Shape"></path>
        </g>
    </g>
</svg>