<?xml version="1.0" encoding="UTF-8"?> <!-- Generator: Adobe Illustrator 23.1.1, SVG Export Plug-In . SVG Version: 6.00 Build 0) --> <svg xmlns="http://www.w3.org/2000/svg" xmlns:xlink="http://www.w3.org/1999/xlink" id="Layer_1" x="0px" y="0px" viewBox="0 0 75 75" style="enable-background:new 0 0 75 75;" xml:space="preserve"> <style type="text/css"> .st0{fill:#003058;} .st1{fill:none;stroke:#003058;stroke-width:2.7;stroke-miterlimit:10;} </style> <g> <g> <g> <g> <path class="st0" d="M35.5,42.8h-23c-3.7,0-6.8-3-6.8-6.8V14.4c0-3.7,3-6.8,6.8-6.8h35.1c3.7,0,6.8,3,6.8,6.8V32 c0,0.7-0.6,1.4-1.4,1.4c-0.7,0-1.3-0.6-1.3-1.4V14.4c0-2.2-1.8-4.1-4-4.1H12.6c-2.2,0-4.1,1.8-4.1,4.1V36c0,2.2,1.8,4,4.1,4h23 c0.7,0,1.3,0.6,1.3,1.3C36.9,42.2,36.3,42.8,35.5,42.8z"></path> </g> <g> <path class="st0" d="M53.1,18.5H7.2c-0.7,0-1.3-0.6-1.3-1.4s0.6-1.4,1.3-1.4h45.9c0.7,0,1.4,0.6,1.4,1.4S53.8,18.5,53.1,18.5z"></path> </g> <g> <path class="st0" d="M28.8,23.9H15.3c-0.7,0-1.3-0.6-1.3-1.4s0.6-1.4,1.3-1.4h13.5c0.7,0,1.4,0.6,1.4,1.4S29.5,23.9,28.8,23.9z"></path> </g> <g> <path class="st0" d="M47.7,23.9h-5.4c-0.7,0-1.3-0.6-1.3-1.4s0.6-1.4,1.3-1.4h5.4c0.7,0,1.3,0.6,1.3,1.4S48.4,23.9,47.7,23.9z"></path> </g> <g> <path class="st0" d="M23.4,29.3h-8.1c-0.7,0-1.3-0.6-1.3-1.4c0-0.7,0.6-1.3,1.3-1.3h8.1c0.7,0,1.4,0.6,1.4,1.3 C24.7,28.7,24.1,29.3,23.4,29.3z"></path> </g> </g> </g> <g> <g> <g> <path class="st0" d="M69.3,50.9h-6.8c-0.7,0-1.3-0.6-1.3-1.3c0-0.7,0.6-1.4,1.3-1.4h5.4v-5.4c0-0.7,0.6-1.4,1.3-1.4 s1.3,0.6,1.3,1.4v6.8C70.6,50.3,70,50.9,69.3,50.9z"></path> </g> <g> <path class="st0" d="M69.3,50.9c-0.6,0-1.1-0.3-1.3-0.9c-1.5-4.1-6.1-7.2-10.9-7.2s-9.4,3.1-10.9,7.2c-0.3,0.7-1,1.1-1.7,0.8 c-0.7-0.2-1.1-1-0.8-1.7c1.8-5.2,7.5-9,13.4-9s11.6,3.8,13.4,9c0.2,0.7-0.1,1.5-0.8,1.7C69.6,50.8,69.4,50.9,69.3,50.9z"></path> </g> </g> <g> <g> <path class="st0" d="M45,65.7c-0.7,0-1.4-0.6-1.4-1.3v-6.8c0-0.7,0.6-1.3,1.4-1.3h6.8c0.7,0,1.3,0.6,1.3,1.3S52.5,59,51.7,59 h-5.4v5.4C46.3,65.1,45.7,65.7,45,65.7z"></path> </g> <g> <path class="st0" d="M57.1,67.1c-5.9,0-11.6-3.8-13.4-9c-0.2-0.7,0.1-1.5,0.8-1.7c0.7-0.2,1.5,0.1,1.7,0.8 c1.5,4.1,6.1,7.2,10.9,7.2s9.4-3.1,10.9-7.2c0.3-0.7,1-1.1,1.7-0.8c0.7,0.2,1.1,1,0.8,1.7C68.7,63.3,63.1,67.1,57.1,67.1z"></path> </g> </g> </g> </g> </svg> 