<?xml version="1.0" encoding="UTF-8"?>
<svg width="80px" height="80px" viewBox="0 0 80 80" version="1.1" xmlns="http://www.w3.org/2000/svg" xmlns:xlink="http://www.w3.org/1999/xlink">
    <title>icon-1</title>
    <defs>
        <linearGradient x1="50%" y1="0%" x2="50%" y2="100%" id="linearGradient-1">
            <stop stop-color="#005E91" offset="0%"></stop>
            <stop stop-color="#003058" offset="100%"></stop>
        </linearGradient>
    </defs>
    <g id="⏹️-Product-Wireframe" stroke="none" stroke-width="1" fill="none" fill-rule="evenodd">
        <g id="DR---Payments---Update" transform="translate(-569.000000, -1774.000000)">
            <g id="Stats-Row" transform="translate(114.000000, 1743.000000)">
                <g id="stat" transform="translate(326.000000, 0.000000)">
                    <g id="icon-1" transform="translate(129.000000, 31.000000)">
                        <path d="M78.3333333,76.6663333 C79.2533333,76.6663333 80,77.413 80,78.333 C80,79.2045789 79.3298615,79.92059 78.4770725,79.9935453 L78.3333333,79.9996667 L1.66666667,79.9996667 C0.746666667,79.9996667 0,79.253 0,78.333 C0,77.413 0.746666667,76.6663333 1.66666667,76.6663333 L78.3333333,76.6663333 Z M78.3333333,69.9996667 C79.2533333,69.9996667 80,70.7463333 80,71.6663333 C80,72.5379123 79.3298615,73.2539234 78.4770725,73.3268786 L78.3333333,73.333 L1.66666667,73.333 C0.746666667,73.333 0,72.5863333 0,71.6663333 C0,70.7463333 0.746666667,69.9996667 1.66666667,69.9996667 L78.3333333,69.9996667 Z M21.6666667,36.6663333 C22.5866667,36.6663333 23.3333333,37.413 23.3333333,38.333 C23.3333333,39.2045789 22.6631948,39.92059 21.8104058,39.9935453 L21.6666667,39.9996667 L19.9999056,39.9992489 L19.9999056,63.3322489 L21.6666667,63.333 C22.5866667,63.333 23.3333333,64.0796667 23.3333333,64.9996667 C23.3333333,65.8712456 22.6631948,66.5872567 21.8104058,66.6602119 L21.6666667,66.6663333 L5,66.6663333 C4.08,66.6663333 3.33333333,65.9196667 3.33333333,64.9996667 C3.33333333,64.0796667 4.08,63.333 5,63.333 L6.66590562,63.3322489 L6.66590562,39.9992489 L5,39.9996667 C4.08,39.9996667 3.33333333,39.253 3.33333333,38.333 C3.33333333,37.413 4.08,36.6663333 5,36.6663333 L21.6666667,36.6663333 Z M48.3333333,36.6663333 C49.2533333,36.6663333 50,37.413 50,38.333 C50,39.2045789 49.3298615,39.92059 48.4770725,39.9935453 L48.3333333,39.9996667 L46.6659056,39.9992489 L46.6659056,63.3322489 L48.3333333,63.333 C49.2533333,63.333 50,64.0796667 50,64.9996667 C50,65.8712456 49.3298615,66.5872567 48.4770725,66.6602119 L48.3333333,66.6663333 L31.6666667,66.6663333 C30.7466667,66.6663333 30,65.9196667 30,64.9996667 C30,64.0796667 30.7466667,63.333 31.6666667,63.333 L33.3329056,63.3322489 L33.3329056,39.9992489 L31.6666667,39.9996667 C30.7466667,39.9996667 30,39.253 30,38.333 C30,37.413 30.7466667,36.6663333 31.6666667,36.6663333 L48.3333333,36.6663333 Z M75,36.6663333 C75.92,36.6663333 76.6666667,37.413 76.6666667,38.333 C76.6666667,39.2045789 75.9965282,39.92059 75.1437391,39.9935453 L75,39.9996667 L73.3329056,39.9992489 L73.3329056,63.3322489 L75,63.333 C75.92,63.333 76.6666667,64.0796667 76.6666667,64.9996667 C76.6666667,65.8712456 75.9965282,66.5872567 75.1437391,66.6602119 L75,66.6663333 L58.3333333,66.6663333 C57.4133333,66.6663333 56.6666667,65.9196667 56.6666667,64.9996667 C56.6666667,64.0796667 57.4133333,63.333 58.3333333,63.333 L59.9999056,63.3322489 L59.9999056,39.9992489 L58.3333333,39.9996667 C57.4133333,39.9996667 56.6666667,39.253 56.6666667,38.333 C56.6666667,37.413 57.4133333,36.6663333 58.3333333,36.6663333 L75,36.6663333 Z M69.9999056,39.9992489 L63.3329056,39.9992489 L63.3329056,63.3322489 L69.9999056,63.3322489 L69.9999056,39.9992489 Z M43.3329056,39.9992489 L36.6659056,39.9992489 L36.6659056,63.3322489 L43.3329056,63.3322489 L43.3329056,39.9992489 Z M16.6659056,39.9992489 L9.99990562,39.9992489 L9.99990562,63.3322489 L16.6659056,63.3322489 L16.6659056,39.9992489 Z M41.1333333,0.353 L79.3633333,30.353 C79.9233333,30.793 80.14,31.5396667 79.91,32.2096667 C79.6922222,32.8381111 79.126,33.2720074 78.4742153,33.3270672 L78.3333333,33.333 L1.66666667,33.333 C0.953333333,33.333 0.323333333,32.8796667 0.09,32.2096667 C-0.14,31.5363333 0.08,30.7896667 0.64,30.353 L39.08,0.353 C39.6866667,-0.120333333 40.53,-0.117 41.1333333,0.353 Z M40.1,3.783 L6.51,29.9996667 L73.51,29.9996667 L40.1,3.783 Z" id="Combined-Shape" fill="url(#linearGradient-1)" fill-rule="nonzero"></path>
                        <g id="Group-30" transform="translate(0.000000, 0.000333)"></g>
                    </g>
                </g>
            </g>
        </g>
    </g>
</svg>