<?xml version="1.0" encoding="UTF-8"?> <!-- Generator: Adobe Illustrator 23.1.1, SVG Export Plug-In . SVG Version: 6.00 Build 0) --> <svg xmlns="http://www.w3.org/2000/svg" xmlns:xlink="http://www.w3.org/1999/xlink" id="Layer_1" x="0px" y="0px" viewBox="0 0 75 94.5" style="enable-background:new 0 0 75 94.5;" xml:space="preserve"> <style type="text/css"> .st0{fill:#003058;} .st1{fill:none;stroke:#003058;stroke-width:2.7;stroke-miterlimit:10;} </style> <g> <g> <g> <path class="st0" d="M38.2,41.7c-0.7,0-1.4-0.4-1.8-1c-1.2-1.9-12.1-18.5-12.1-25.4c0-7.6,6.2-13.9,13.9-13.9s13.9,6.2,13.9,13.9 c0,7-10.9,23.6-12.1,25.4C39.6,41.3,39,41.7,38.2,41.7z M37.8,39.2C37.8,39.2,37.8,39.2,37.8,39.2C37.8,39.2,37.8,39.2,37.8,39.2 z M38.2,4.1c-6.2,0-11.2,5-11.2,11.2c0,5,7.7,17.8,11.2,23.2c3.5-5.4,11.2-18.3,11.2-23.2C49.4,9.1,44.4,4.1,38.2,4.1z"></path> </g> <g> <path class="st0" d="M38.2,22.1c-3.8,0-6.8-3.1-6.8-6.8s3.1-6.8,6.8-6.8c3.8,0,6.8,3.1,6.8,6.8S42,22.1,38.2,22.1z M38.2,11.1 c-2.3,0-4.1,1.9-4.1,4.1s1.9,4.1,4.1,4.1c2.3,0,4.1-1.9,4.1-4.1S40.5,11.1,38.2,11.1z"></path> </g> </g> <g> <g> <path class="st0" d="M58.5,82.5H7.2c-0.7,0-1.4-0.6-1.4-1.3V48.7c0-0.7,0.6-1.3,1.4-1.3h51.3c0.7,0,1.3,0.6,1.3,1.3v32.4 C59.8,81.9,59.2,82.5,58.5,82.5z M8.5,79.8h48.6V50.1H8.5V79.8z"></path> </g> <g> <path class="st0" d="M63.9,87.9H12.6c-0.7,0-1.3-0.6-1.3-1.3c0-0.7,0.6-1.4,1.3-1.4h50v-31c0-0.7,0.6-1.4,1.3-1.4 s1.4,0.6,1.4,1.4v32.4C65.2,87.3,64.6,87.9,63.9,87.9z"></path> </g> <g> <path class="st0" d="M69.3,93.3H18c-0.7,0-1.3-0.6-1.3-1.4c0-0.7,0.6-1.3,1.3-1.3h49.9v-31c0-0.7,0.6-1.3,1.3-1.3 c0.7,0,1.4,0.6,1.4,1.3v32.4C70.6,92.7,70,93.3,69.3,93.3z"></path> </g> <g> <path class="st0" d="M32.8,74.4c-5.2,0-9.4-4.2-9.4-9.5c0-5.2,4.2-9.4,9.4-9.4s9.5,4.2,9.5,9.4C42.3,70.2,38.1,74.4,32.8,74.4z M32.8,58.2c-3.7,0-6.8,3-6.8,6.7c0,3.7,3,6.8,6.8,6.8s6.8-3,6.8-6.8C39.6,61.2,36.6,58.2,32.8,58.2z"></path> </g> <g> <path class="st0" d="M18,77.1h-5.4c-0.7,0-1.3-0.6-1.3-1.3s0.6-1.3,1.3-1.3H18c0.7,0,1.4,0.6,1.4,1.3S18.7,77.1,18,77.1z"></path> </g> <g> <path class="st0" d="M53.1,55.5h-5.4c-0.7,0-1.3-0.6-1.3-1.3c0-0.7,0.6-1.4,1.3-1.4h5.4c0.7,0,1.3,0.6,1.3,1.4 C54.4,54.9,53.8,55.5,53.1,55.5z"></path> </g> </g> </g> </svg> 