<?xml version="1.0" encoding="UTF-8"?> <!-- Generator: Adobe Illustrator 23.1.1, SVG Export Plug-In . SVG Version: 6.00 Build 0) --> <svg xmlns="http://www.w3.org/2000/svg" xmlns:xlink="http://www.w3.org/1999/xlink" id="Layer_1" x="0px" y="0px" viewBox="0 0 75 104.1" style="enable-background:new 0 0 75 104.1;" xml:space="preserve"> <style type="text/css"> .st0{fill:#003058;} .st1{fill:none;stroke:#003058;stroke-width:2.7;stroke-miterlimit:10;} </style> <g> <g> <g> <path class="st0" d="M68.4,98.7H7.2c-0.7,0-1.3-0.6-1.3-1.3c0-0.2,0-5.9,2.8-11.6c2-4,8.6-6.5,17.8-9.9c1.1-0.4,2.2-0.8,3.3-1.2 v-6.5c-1.2-1-3.7-3.6-4-7.9c-0.6-0.5-1.1-1.4-1.4-2.6c-0.4-1.9-0.2-4.2,1.2-5.6c0-0.1-0.1-0.3-0.1-0.5c-0.9-3-2.6-8.6-0.3-11.8 c0.8-1.1,2.1-1.8,3.6-2c1.6-3,7-4,11.3-3.9c5.1,0.1,11.3,1.9,12.2,6.3c0.8,3.8-1.1,8.7-2.2,11.3C50.1,51.8,50,52,50,52.2 c1.3,1.3,1.5,3.6,1.1,5.5c-0.3,1.2-0.8,2.1-1.4,2.6c-0.3,4.3-2.8,6.9-4,7.9v6.5c1.1,0.4,2.2,0.8,3.3,1.2 c9.2,3.4,15.9,5.9,17.8,9.9c2.8,5.6,2.8,11.3,2.8,11.6C69.7,98.1,69.1,98.7,68.4,98.7z M8.6,96H67c-0.2-1.9-0.7-5.5-2.4-9 c-1.5-3-8.4-5.6-16.4-8.6c-1.3-0.5-2.7-1-4.2-1.6c-0.5-0.2-0.9-0.7-0.9-1.3v-8.1c0-0.5,0.2-0.9,0.6-1.1c0.1-0.1,3.4-2.4,3.4-7 c0-0.6,0.4-1.1,1-1.3c0.3-0.4,0.7-1.7,0.5-2.9c-0.1-0.7-0.4-1.2-0.8-1.4c-0.5-0.2-0.7-0.7-0.7-1.2c0-0.5,0.2-1,0.7-2.1 c0.9-2.3,2.6-6.7,2-9.7c-0.5-2.3-4.4-4-9.6-4.2c-5.2-0.1-8.7,1.4-9.1,2.9c-0.1,0.6-0.7,1-1.3,1c-1.2,0-2,0.3-2.4,0.9 c-1.5,2.1,0,7.2,0.7,9.4c0.3,1,0.4,1.4,0.4,1.8c0,0.5-0.3,1-0.7,1.2c-0.4,0.2-0.7,0.7-0.8,1.4c-0.2,1.2,0.2,2.5,0.5,2.9 c0.6,0.2,1,0.7,1,1.3c0,4.6,3.4,7,3.4,7c0.4,0.3,0.6,0.7,0.6,1.1v8.1c0,0.6-0.3,1.1-0.9,1.3c-1.4,0.5-2.8,1.1-4.2,1.6 c-8,3-14.9,5.6-16.4,8.6C9.3,90.5,8.8,94.2,8.6,96z"></path> </g> </g> <path class="st0" d="M48.5,15.9c-0.6-0.5-1.4-0.4-1.9,0.1l-7.5,8.6v-18c0-0.7-0.6-1.3-1.3-1.3s-1.3,0.6-1.3,1.3v18L29,16 c-0.5-0.6-1.3-0.6-1.9-0.1c-0.6,0.5-0.6,1.3-0.1,1.9l9.8,11.3c0,0,0,0,0,0c0.1,0.1,0.2,0.2,0.3,0.2c0,0,0.1,0.1,0.1,0.1 c0.2,0.1,0.3,0.1,0.5,0.1c0.2,0,0.4,0,0.5-0.1c0,0,0.1-0.1,0.1-0.1c0.1-0.1,0.2-0.1,0.3-0.2c0,0,0,0,0,0l9.8-11.3 C49.1,17.2,49,16.4,48.5,15.9z"></path> </g> </svg> 