<?xml version="1.0" encoding="UTF-8"?> <!-- Generator: Adobe Illustrator 23.1.1, SVG Export Plug-In . SVG Version: 6.00 Build 0) --> <svg xmlns="http://www.w3.org/2000/svg" xmlns:xlink="http://www.w3.org/1999/xlink" id="Layer_1" x="0px" y="0px" viewBox="0 0 75 75" style="enable-background:new 0 0 75 75;" xml:space="preserve"> <style type="text/css"> .st0{fill:#003058;} .st1{fill:none;stroke:#003058;stroke-width:2.7;stroke-miterlimit:10;} </style> <g> <g> <path class="st0" d="M22.6,35.2H7.7c-0.7,0-1.3-0.6-1.3-1.3v-1.4c0-2.1,1.6-4.2,3.6-4.7l5.9-1.7v-2.7h2.7v3.8c0,0.6-0.4,1.1-1,1.3 l-6.9,2c-0.8,0.2-1.6,1.3-1.6,2.1h13.5V35.2z"></path> </g> <g> <path class="st0" d="M34.7,35.2H19.9v-2.7h13.5c0-0.9-0.8-1.9-1.6-2.1l-6.9-2c-0.6-0.2-1-0.7-1-1.3v-3.8h2.7v2.8l5.9,1.7 c2,0.6,3.6,2.7,3.6,4.7v1.4C36.1,34.6,35.5,35.2,34.7,35.2z"></path> </g> <g> <path class="st0" d="M21.2,25.9c-5.2,0-9.4-4.6-9.4-10.2S16,5.5,21.2,5.5s9.5,4.6,9.5,10.2S26.5,25.9,21.2,25.9z M21.2,8.2 c-3.7,0-6.7,3.4-6.7,7.5s3,7.5,6.7,7.5s6.8-3.4,6.8-7.5S25,8.2,21.2,8.2z"></path> </g> <g> <path class="st0" d="M26.7,16.4c-0.3,0-0.6,0-1-0.1c-1.3-0.2-2.5-0.8-3.4-1.6c-3.2,2.2-7.4,2-9.8,0.3l1.6-2.2 c1.6,1.1,5.2,1.3,7.5-1c0.3-0.3,0.7-0.4,1.2-0.4c0.4,0.1,0.8,0.3,1,0.7c0.6,1.1,1.7,1.4,2.4,1.5c1,0.1,1.9-0.1,2.2-0.4l1.9,1.9 C29.4,15.9,28.1,16.4,26.7,16.4z"></path> </g> <g> <path class="st0" d="M57.7,35.2H42.8c-0.7,0-1.3-0.6-1.3-1.3v-1.4c0-2.1,1.6-4.2,3.6-4.7l5.9-1.7v-2.7h2.7v3.8 c0,0.6-0.4,1.1-1,1.3l-6.9,2c-0.8,0.2-1.6,1.3-1.6,2.1h13.5V35.2z"></path> </g> <g> <path class="st0" d="M69.8,35.2H55v-2.7h13.5c0-0.9-0.8-1.9-1.6-2.1l-6.9-2c-0.6-0.2-1-0.7-1-1.3v-3.8h2.7v2.8l5.9,1.7 c2,0.6,3.6,2.7,3.6,4.7v1.4C71.2,34.6,70.6,35.2,69.8,35.2z"></path> </g> <g> <path class="st0" d="M56.3,25.9c-5.2,0-9.5-4.6-9.5-10.2s4.2-10.2,9.5-10.2s9.5,4.6,9.5,10.2S61.6,25.9,56.3,25.9z M56.3,8.2 c-3.7,0-6.8,3.4-6.8,7.5s3,7.5,6.8,7.5s6.8-3.4,6.8-7.5S60.1,8.2,56.3,8.2z"></path> </g> <g> <path class="st0" d="M61.8,16.4c-0.3,0-0.6,0-1-0.1c-1.3-0.2-2.5-0.8-3.3-1.6c-3.2,2.2-7.4,2-9.8,0.3l1.6-2.2 c1.6,1.1,5.2,1.3,7.5-1c0.3-0.3,0.7-0.4,1.2-0.4c0.4,0.1,0.8,0.3,1,0.7c0.6,1.1,1.7,1.4,2.3,1.5c1,0.1,1.8-0.1,2.2-0.4l1.9,1.9 C64.5,15.9,63.2,16.4,61.8,16.4z"></path> </g> <g> <path class="st0" d="M40.1,70.3H25.3c-0.7,0-1.4-0.6-1.4-1.3v-1.4c0-2.1,1.6-4.2,3.6-4.7l5.9-1.7v-2.7h2.7v3.8 c0,0.6-0.4,1.1-1,1.3l-6.9,2c-0.8,0.2-1.6,1.3-1.6,2.1h13.5V70.3z"></path> </g> <g> <path class="st0" d="M52.3,70.3H37.4v-2.7h13.5c0-0.9-0.8-1.9-1.6-2.1l-6.9-2c-0.6-0.2-1-0.7-1-1.3v-3.8h2.7v2.7l5.9,1.7 c2,0.6,3.6,2.7,3.6,4.7V69C53.6,69.7,53,70.3,52.3,70.3z"></path> </g> <g> <path class="st0" d="M38.8,61c-5.2,0-9.5-4.6-9.5-10.2s4.2-10.2,9.5-10.2s9.5,4.6,9.5,10.2S44,61,38.8,61z M38.8,43.3 c-3.7,0-6.8,3.4-6.8,7.5s3,7.5,6.8,7.5s6.8-3.4,6.8-7.5S42.5,43.3,38.8,43.3z"></path> </g> <g> <path class="st0" d="M44.2,51.4c-0.3,0-0.6,0-0.9-0.1c-1.3-0.2-2.4-0.7-3.3-1.6c-3.2,2.2-7.4,2-9.8,0.3l1.6-2.2 c1.6,1.1,5.2,1.3,7.5-1c0.3-0.3,0.7-0.4,1.2-0.4c0.4,0.1,0.8,0.3,1,0.7c0.6,1.1,1.7,1.4,2.3,1.5c1,0.1,1.9-0.1,2.2-0.5l1.9,1.9 C46.9,51,45.6,51.4,44.2,51.4z"></path> </g> <g> <path class="st0" d="M23.9,47.4c-0.3,0-0.7-0.1-1-0.4l-6.8-6.8c-0.5-0.5-0.5-1.4,0-1.9s1.4-0.5,1.9,0l6.8,6.8 c0.5,0.5,0.5,1.4,0,1.9C24.6,47.2,24.3,47.4,23.9,47.4z"></path> </g> <g> <path class="st0" d="M53.6,47.4c-0.3,0-0.7-0.1-1-0.4c-0.5-0.5-0.5-1.4,0-1.9l6.8-6.8c0.5-0.5,1.4-0.5,1.9,0s0.5,1.4,0,1.9 L54.6,47C54.3,47.2,54,47.4,53.6,47.4z"></path> </g> </g> </svg> 