<?xml version="1.0" encoding="UTF-8"?>
<svg width="70px" height="64px" viewBox="0 0 70 64" version="1.1" xmlns="http://www.w3.org/2000/svg" xmlns:xlink="http://www.w3.org/1999/xlink">
    <title>icon-lock</title>
    <g id="icon-lock" stroke="none" stroke-width="1" fill="none" fill-rule="evenodd">
        <g id="Group" transform="translate(10.000000, 0.000000)" fill="#00A7E1" fill-rule="nonzero">
            <path d="M25.756277,0.115118581 C36.1272836,0.115118581 44.5645077,8.52465724 44.5645077,18.8615318 L44.5640959,26.9981186 L50.7810739,26.979406 L50.9360837,56.504182 C50.9360837,58.3652979 50.1669418,60.1111219 48.8343577,61.3985799 C47.4963119,62.6913147 45.68849,63.4291224 43.7684205,63.4291224 L43.7684205,63.4291224 L7.62021091,63.4291224 C5.7054668,63.4291224 3.90282477,62.6910937 2.56881249,61.3985504 C1.23980922,60.1108604 0.473095933,58.3649836 0.473095933,56.504182 L0.473095933,56.504182 L0.473095933,27.1357209 L6.84409593,27.1151186 L6.84467192,18.8615318 C6.84467192,8.52465724 15.2913356,0.115118581 25.6734508,0.115118581 L25.756277,0.115118581 Z M48.032093,29.7502326 L43.9163203,29.7628978 C43.6673064,29.9387044 43.3634142,30.0419791 43.0353594,30.0419791 L8.37382023,30.0419791 C8.12475194,30.0419791 7.88961159,29.9824538 7.68184159,29.8768545 L3.23581395,29.8897674 L3.23581395,56.504182 C3.23581395,57.5119385 3.61769136,58.4653227 4.29833887,59.2150548 L4.29833887,59.2150548 L4.491317,59.4143658 C5.31260875,60.2101269 6.42689325,60.6663317 7.62021091,60.6663317 L7.62021091,60.6663317 L43.7684205,60.6663317 C44.9688315,60.6663317 46.0893779,60.2090147 46.9147019,59.4116392 C47.7179217,58.6356192 48.173312,57.6020022 48.173312,56.5114354 L48.173312,56.5114354 L48.032093,29.7502326 Z M25.694287,34.138913 C29.7896669,34.138913 33.1215375,37.4707838 33.1215375,41.5661637 C33.1215375,45.1337168 30.5932113,48.1218855 27.234238,48.8328763 L27.2337381,54.7639102 C27.2337381,55.6084616 26.5492561,56.2930587 25.7045898,56.2930587 C24.8599235,56.2930587 24.1754415,55.6084616 24.1754415,54.7639102 L24.1754213,48.8373061 C20.8059844,48.1343847 18.2670363,45.1412223 18.2670363,41.5661637 C18.2670363,37.4707261 21.5989069,34.138913 25.694287,34.138913 Z M25.694287,37.1972097 C23.2853618,37.1972097 21.3253328,39.1571234 21.3253328,41.5661637 C21.3253328,43.8271554 23.0517731,45.6924445 25.2554414,45.9132469 C25.3973516,45.8671203 25.548226,45.8436579 25.7045898,45.8436579 C25.8593185,45.8436579 26.008672,45.8666302 26.1494276,45.9093501 C28.3447659,45.6838199 30.063241,43.8218799 30.063241,41.5661637 C30.063241,39.1571234 28.103212,37.1972097 25.694287,37.1972097 Z M25.7562195,3.17335764 L25.6733933,3.17335764 C16.9774451,3.17335764 9.90285342,10.2111121 9.90285342,18.8615318 L9.90285342,26.9836824 L41.5062112,26.9836824 L41.5062112,18.8615318 C41.5062112,10.2111121 34.4407712,3.17335764 25.7562195,3.17335764 Z" id="Combined-Shape"></path>
        </g>
    </g>
</svg>