<?xml version="1.0" encoding="UTF-8"?> <!-- Generator: Adobe Illustrator 23.1.1, SVG Export Plug-In . SVG Version: 6.00 Build 0) --> <svg xmlns="http://www.w3.org/2000/svg" xmlns:xlink="http://www.w3.org/1999/xlink" id="Layer_1" x="0px" y="0px" viewBox="0 0 75 75" style="enable-background:new 0 0 75 75;" xml:space="preserve"> <style type="text/css"> .st0{fill:#003058;} .st1{fill:none;stroke:#003058;stroke-width:2.7;stroke-miterlimit:10;} </style> <g> <g> <g> <path class="st0" d="M64.6,60.9h-54c-3,0-5.4-2.5-5.4-5.6v-40c0-3.1,2.4-5.6,5.4-5.6h54c3,0,5.4,2.5,5.4,5.6v40 C70,58.3,67.6,60.9,64.6,60.9z M10.6,12.3c-1.5,0-2.7,1.3-2.7,2.9v40c0,1.6,1.2,2.9,2.7,2.9h54c1.5,0,2.7-1.3,2.7-2.9v-40 c0-1.6-1.2-2.9-2.7-2.9H10.6z"></path> </g> <g> <path class="st0" d="M56.5,66.3H18.7c-0.7,0-1.4-0.6-1.4-1.3s0.6-1.3,1.4-1.3h37.8c0.7,0,1.3,0.6,1.3,1.3S57.2,66.3,56.5,66.3z"></path> </g> <g> <path class="st0" d="M37.6,66.3c-0.7,0-1.3-0.6-1.3-1.3v-5.4c0-0.7,0.6-1.3,1.3-1.3c0.7,0,1.4,0.6,1.4,1.3v5.4 C38.9,65.7,38.3,66.3,37.6,66.3z"></path> </g> <g> <path class="st0" d="M37.6,56.8c-1.5,0-2.7-1.2-2.7-2.7c0-1.5,1.2-2.7,2.7-2.7c1.5,0,2.7,1.2,2.7,2.7 C40.3,55.6,39.1,56.8,37.6,56.8z M37.6,54.1C37.6,54.1,37.6,54.1,37.6,54.1l1.4,0L37.6,54.1z"></path> </g> <g> <rect x="6.5" y="47.4" class="st0" width="62.1" height="2.7"></rect> </g> </g> <g> <path class="st0" d="M36.2,36.6c-0.3,0-0.7-0.1-1-0.4l-5.4-5.4c-0.5-0.5-0.5-1.4,0-1.9s1.4-0.5,1.9,0l4.4,4.4l9.8-9.8 c0.5-0.5,1.4-0.5,1.9,0s0.5,1.4,0,1.9L37.2,36.2C36.9,36.4,36.6,36.6,36.2,36.6z"></path> </g> <g> <path class="st0" d="M37.6,43.3c-7.4,0-13.5-6.1-13.5-13.5s6.1-13.5,13.5-13.5c2.2,0,4.3,0.5,6.2,1.5c0.7,0.3,0.9,1.2,0.6,1.8 c-0.3,0.7-1.2,0.9-1.8,0.6c-1.5-0.8-3.2-1.2-5-1.2c-6,0-10.8,4.8-10.8,10.8s4.8,10.8,10.8,10.8s10.8-4.8,10.8-10.8 c0-0.7,0.6-1.3,1.4-1.3c0.7,0,1.3,0.6,1.3,1.3C51.1,37.3,45,43.3,37.6,43.3z"></path> </g> </g> </svg> 