<?xml version="1.0" encoding="UTF-8"?>
<svg width="205px" height="267px" viewBox="0 0 205 267" version="1.1" xmlns="http://www.w3.org/2000/svg" xmlns:xlink="http://www.w3.org/1999/xlink">
    <title>img-sheild</title>
    <defs>
        <polygon id="path-1" points="0 0.190022177 204.568278 0.190022177 204.568278 266.461478 0 266.461478"></polygon>
        <linearGradient x1="50%" y1="0%" x2="50%" y2="100%" id="linearGradient-3">
            <stop stop-color="#005E91" offset="0%"></stop>
            <stop stop-color="#003058" offset="100%"></stop>
        </linearGradient>
        <linearGradient x1="50%" y1="0%" x2="50%" y2="100%" id="linearGradient-4">
            <stop stop-color="#005E91" offset="0%"></stop>
            <stop stop-color="#003058" offset="100%"></stop>
        </linearGradient>
        <linearGradient x1="67.5724115%" y1="-65.4573881%" x2="29.659828%" y2="126.913821%" id="linearGradient-5">
            <stop stop-color="#073357" offset="0%"></stop>
            <stop stop-color="#0C3358" offset="1.15547549%"></stop>
            <stop stop-color="#B03478" offset="38.3100423%"></stop>
            <stop stop-color="#9E79BB" offset="73.7837976%"></stop>
            <stop stop-color="#083357" offset="100%"></stop>
        </linearGradient>
    </defs>
    <g id="â¹ï¸-Product-Wireframe" stroke="none" stroke-width="1" fill="none" fill-rule="evenodd">
        <g id="DR---Payments---Update" transform="translate(-1006.000000, -4970.000000)">
            <g id="Compliance-Section" transform="translate(116.000000, 4945.000000)">
                <g id="img-sheild" transform="translate(890.000000, 25.000000)">
                    <g id="Group-3">
                        <mask id="mask-2" fill="white">
                            <use xlink:href="#path-1"></use>
                        </mask>
                        <g id="Clip-2"></g>
                        <path d="M8.22195658,45.5405105 C8.19768026,65.2672887 8.09194342,152.050902 8.09194342,166.088319 C8.09194342,187.347117 19.5735618,213.183674 102.351483,257.838347 C137.432378,238.904494 161.902904,221.880553 177.124154,205.827716 C190.122233,192.118127 196.176207,179.491073 196.176207,166.088319 C196.176207,148.889966 196.410338,64.934077 196.464825,45.5399722 C165.64793,44.7271294 141.43797,34.8023734 126.324614,26.419327 C114.483707,19.8525266 106.368943,13.3056435 102.351483,9.75174435 C98.3345618,13.3056435 90.2197987,19.8525266 78.3788908,26.419327 C63.2622987,34.8039883 39.0469434,44.7308976 8.22195658,45.5405105 M102.351483,266.461478 C101.693864,266.461478 101.035167,266.301601 100.43797,265.981309 C61.9837461,245.376015 35.6741539,227.25339 20.0056803,210.578271 C6.35699605,196.052609 -0.000161842105,181.915605 -0.000161842105,166.088319 C-0.000161842105,150.307327 0.133627632,42.6368855 0.134706579,41.5511214 C0.137403947,39.3236093 1.94841711,37.519206 4.18075921,37.519206 C35.0618513,37.519206 59.2896145,27.7268734 74.1758513,19.5123169 C90.3805618,10.5699702 99.3676539,1.49573831 99.4566671,1.40476452 C100.217864,0.628526613 101.262286,0.189806855 102.349864,0.189806855 L102.35472,0.189806855 C103.444457,0.189806855 104.489417,0.629064919 105.249536,1.40853266 C105.335851,1.49573831 114.322404,10.5699702 130.527654,19.5123169 C145.413891,27.7268734 169.641114,37.519206 200.522207,37.519206 C201.597378,37.519206 202.627772,37.9460831 203.387351,38.7056335 C204.146391,39.4651839 204.571496,40.4949641 204.568278,41.5678089 C204.565022,42.6169681 204.268312,146.722744 204.268312,166.088319 C204.268312,181.470426 197.312338,196.284081 183.00172,211.376579 C166.901667,228.357994 141.146654,246.219002 104.265536,265.981309 C103.668338,266.301601 103.009641,266.461478 102.351483,266.461478" id="Fill-1" fill="url(#linearGradient-3)" mask="url(#mask-2)"></path>
                    </g>
                    <path d="M102,55 C116.898617,55 129.628995,66.3090497 130.982727,80.7467302 C130.994063,80.8716385 131,80.9970852 131,81.122532 L131,107 L132.82462,107 C143.949649,107 153,116.11363 153,127.315903 L153,185.683556 C153,196.885828 143.949649,206 132.82462,206 L70.1753798,206 C59.0508891,206 50,196.885828 50,185.683556 L50,127.315903 C50,116.11363 59.0508891,107 70.1753798,107 L73,107 L73,81.122532 C73,80.9970852 73.0059374,80.8716385 73.0178123,80.7467302 C74.3704655,66.3090497 87.1013829,55 102,55 Z M132.82462,115.127011 L70.1753798,115.127011 C63.5010082,115.127011 58.0705823,120.594864 58.0705823,127.315903 L58.0705823,185.683556 C58.0705823,192.404594 63.5010082,197.872989 70.1753798,197.872989 L132.82462,197.872989 C139.49953,197.872989 144.929418,192.404594 144.929418,185.683556 L144.929418,127.315903 C144.929418,120.594864 139.49953,115.127011 132.82462,115.127011 Z M102,63.0759698 C91.299142,63.0759698 82.1538891,71.0754871 81.0964878,81.3195856 L81.096,107 L122.903,107 L122.903512,81.3195856 C121.84719,71.0749487 112.701938,63.0759698 102,63.0759698 Z" id="Combined-Shape" fill="url(#linearGradient-4)"></path>
                    <path d="M101.999733,135 C108.616673,135 114,140.383447 114,147 C114,152.214483 110.656436,156.663088 106.000526,158.314291 L106,173.945187 C106,176.185066 104.2096,178 102,178 C99.7904,178 98,176.185066 98,173.945187 L98.0002082,158.314644 C93.3440405,156.663722 90,152.214855 90,147 C90,140.383447 95.383327,135 101.999733,135 Z M101.999733,142.996801 C99.7921322,142.996801 97.9966236,144.79235 97.9966236,147 C97.9966236,149.207117 99.7921322,151.003199 101.999733,151.003199 C104.207335,151.003199 106.003376,149.207117 106.003376,147 C106.003376,144.79235 104.207335,142.996801 101.999733,142.996801 Z" id="Combined-Shape" fill="url(#linearGradient-5)"></path>
                </g>
            </g>
        </g>
    </g>
</svg>