<?xml version="1.0" encoding="UTF-8"?>
<svg width="1920px" height="596px" viewBox="0 0 1920 596" version="1.1" xmlns="http://www.w3.org/2000/svg" xmlns:xlink="http://www.w3.org/1999/xlink">
    <!-- Generator: Sketch 61 (89581) - https://sketch.com -->
    <title>inpsyde_logo</title>
    <desc>Created with Sketch.</desc>
    <g id="Page-1" stroke="none" stroke-width="1" fill="none" fill-rule="evenodd">
        <g id="inpsyde" transform="translate(0.000000, -242.000000)" fill-rule="nonzero">
            <g id="inpsyde_logo" transform="translate(0.000000, 242.000000)">
                <path d="M1848.98035,23.6884601 C1844.49875,28.8102894 1840.65738,33.9321186 1836.17578,39.0539478 C1831.69418,44.1757771 1827.85281,49.9378349 1823.3712,55.6998928 C1815.04823,67.8642372 1805.4448,79.3883528 1797.12183,92.192926 C1792.64023,99.2354415 1788.79885,105.637728 1784.31726,111.399786 C1779.83566,118.442301 1775.99429,124.844587 1772.15291,132.527331 C1763.82994,145.972133 1756.14719,161.337621 1749.10468,175.422651 C1742.06217,190.788138 1735.65988,204.873169 1729.89782,220.238657 C1724.13577,235.604145 1717.73347,249.689175 1713.8921,265.054662 C1708.77028,279.139693 1704.28867,293.864952 1701.08753,307.309753 C1697.88639,320.754555 1694.04502,334.199357 1690.84387,346.363701 C1688.92318,353.406217 1687.64273,359.808503 1685.72205,366.851018 C1964.22151,288.102894 1951.41693,298.346552 1866.26653,1.92068596 C1860.50447,9.6034298 1854.74241,16.0057163 1848.98035,23.6884601" id="Path" fill="#9DC75F"></path>
                <path d="M1647.30833,291.304037 C1653.07038,277.859236 1659.47267,262.493748 1665.87495,248.408717 C1672.91747,233.043229 1679.95999,218.958199 1688.92318,203.592712 C1697.24616,188.227224 1705.56913,172.861736 1715.17256,158.776706 C1724.77599,144.691675 1733.73919,129.966417 1744.62308,116.521615 C1749.74491,109.4791 1754.86674,103.076813 1759.98857,96.034298 C1765.1104,88.9917826 1770.87245,83.2297247 1775.99429,77.4676668 C1786.23794,64.663094 1797.12183,53.7792069 1807.36549,42.8953197 C1812.48732,37.7734906 1817.60914,32.6516613 1821.45052,27.5298321 C1826.57235,22.4080029 1831.69418,17.9264023 1835.53555,14.0850303 C1840.65738,8.96320117 1845.77921,4.48160057 1849.62058,0.640228653 C1564.0786,81.9492678 1560.23723,69.1446945 1634.50375,326.516613 C1638.98535,313.071811 1643.46695,302.187924 1647.30833,291.304037" id="Path" fill="#9DC75F"></path>
                <path d="M32.0114327,309.870668 L2.56091461,309.870668 C1.92068596,306.669525 0.640228653,302.187924 0.640228653,297.706324 C0,293.224723 0,289.383351 0,285.54198 C0,277.859236 0.640228653,270.176492 2.56091461,262.493748 L92.192926,262.493748 L92.192926,487.854234 C81.9492678,489.77492 71.7056089,490.415148 61.4619507,490.415148 C51.8585209,490.415148 42.2550911,489.77492 30.7309753,487.854234 L30.7309753,309.870668 L32.0114327,309.870668 Z M23.0482315,224.080029 C21.1275456,213.83637 20.4873169,204.873169 20.4873169,194.62951 C20.4873169,185.026081 21.1275456,176.06288 23.0482315,165.178992 C28.1700608,164.538764 33.2918899,163.258307 39.0539478,163.258307 C44.8160057,162.618078 49.9378349,162.618078 54.4194355,162.618078 C59.5412647,162.618078 64.663094,162.618078 70.4251521,163.258307 C76.1872099,163.898535 81.3090387,163.898535 86.4308682,165.178992 C87.0710966,170.300822 88.3515541,175.422651 88.3515541,179.264023 C88.3515541,184.385852 88.3515541,188.867452 88.3515541,193.349053 C88.3515541,197.830654 88.3515541,202.952483 88.3515541,207.434084 C88.3515541,212.555913 87.7113257,217.677742 86.4308682,222.799571 C81.3090387,224.720257 76.1872099,225.360486 70.4251521,225.360486 C64.663094,225.360486 59.5412647,226.000715 54.4194355,226.000715 C49.2976063,226.000715 44.1757771,226.000715 38.4137192,225.360486 C33.2918899,226.000715 28.1700608,225.360486 23.0482315,224.080029" id="Shape" fill="#3E3C3D"></path>
                <path d="M153.014648,262.493748 C157.496249,261.853519 161.337621,260.573062 165.178992,260.573062 C169.660593,259.932833 173.501965,259.932833 178.623794,259.932833 C183.745624,259.932833 188.227224,259.932833 191.428368,260.573062 C194.62951,261.21329 199.111111,261.21329 203.592712,262.493748 C204.23294,264.414434 205.513398,265.694891 206.153626,268.255806 C206.793855,270.81672 208.074312,274.017864 208.074312,276.578778 C208.714541,279.779922 208.714541,282.340836 209.994998,286.182208 C210.635227,288.743122 210.635227,291.304037 210.635227,293.864952 C213.196141,289.383351 217.677742,285.54198 220.878885,281.060378 C225.360486,276.578778 229.201858,272.737406 234.963915,268.896034 C240.085745,265.694891 245.847803,263.133976 252.890318,260.573062 C259.932833,258.012147 266.975348,257.371919 274.658092,257.371919 C300.267238,257.371919 319.474098,264.414434 332.278671,278.499464 C345.083244,291.944266 351.485531,314.352269 351.485531,344.443015 L351.485531,488.494462 C341.241872,490.415148 330.357985,491.055377 320.114327,491.055377 C309.870668,491.055377 299.62701,490.415148 288.743122,488.494462 L288.743122,361.729189 C288.743122,345.723473 286.182208,333.559128 281.700608,325.236156 C276.578778,316.913183 268.255806,312.431583 256.091461,312.431583 C250.969632,312.431583 245.847803,313.071811 240.725973,314.992497 C235.604145,316.913183 230.482315,319.474098 226.640943,323.31547 C222.159343,327.797071 218.958199,333.559128 216.397285,341.241872 C213.83637,348.924616 211.915684,359.168274 211.915684,370.69239 L211.915684,489.134691 C201.672026,491.055377 190.788138,491.695606 180.54448,491.695606 C170.300822,491.695606 160.057163,491.055377 149.173276,489.134691 L149.173276,262.493748 L153.014648,262.493748 Z" id="Path" fill="#3E3C3D"></path>
                <path d="M407.825652,261.853519 C412.307253,261.21329 416.148625,259.932833 419.989997,259.932833 C424.471597,259.932833 428.312969,259.932833 433.434798,259.932833 C441.757771,259.932833 449.440514,260.573062 457.763487,262.493748 C458.403716,264.414434 459.684173,265.694891 460.324402,268.255806 C460.96463,270.81672 462.245088,274.017864 462.885316,277.859236 C463.525545,281.060378 464.806002,283.621294 464.806002,287.462665 C465.446231,290.663808 465.446231,293.224723 465.446231,295.145409 C468.007146,290.02358 471.208288,285.54198 475.04966,281.700608 C478.250804,277.219007 483.372633,273.377635 488.494462,269.536263 C493.616292,266.33512 499.378349,263.774205 506.420865,261.21329 C513.46338,258.652376 520.505895,258.012147 528.188639,258.012147 C540.993212,258.012147 552.517328,260.573062 562.760986,265.054662 C573.644873,270.176492 583.248303,277.219007 591.571275,286.182208 C599.894248,295.785638 605.656306,307.309753 610.137907,322.035013 C614.619507,336.120043 617.180421,353.406217 617.180421,372.613076 C617.180421,391.179707 614.619507,408.465881 608.857449,423.191139 C603.095391,438.556627 595.412647,451.3612 585.168989,461.604859 C574.92533,471.848518 562.120758,480.17149 546.75527,485.933548 C531.389782,491.695606 514.743837,494.25652 494.896749,494.25652 C489.77492,494.25652 484.65309,494.25652 480.811718,493.616292 C475.689889,492.976063 472.488746,492.976063 468.647374,491.695606 L468.647374,591.571275 C462.885316,592.211504 457.763487,593.491961 452.641658,593.491961 C447.519829,593.491961 442.397999,594.13219 437.27617,594.13219 C432.154341,594.13219 427.032511,594.13219 421.910683,593.491961 C416.788853,593.491961 411.667024,592.851733 405.904966,591.571275 L405.904966,261.853519 L407.825652,261.853519 Z M469.927832,439.196856 C477.610575,441.757771 486.573776,442.397999 496.817435,442.397999 C514.743837,442.397999 528.828867,436.635941 538.432297,424.471597 C548.035727,412.307253 552.517328,395.661308 552.517328,371.972848 C552.517328,362.369418 551.877099,355.326902 549.956413,346.363701 C548.035727,338.680957 545.474812,332.278671 542.273669,327.156842 C539.072526,321.394784 534.590925,316.913183 528.828867,314.352269 C523.707038,311.151125 516.664523,309.230439 509.622008,309.230439 C501.939264,309.230439 496.177206,311.151125 491.055377,313.71204 C485.933548,316.272955 481.451947,320.754555 478.250804,324.595927 C475.04966,329.717757 472.488746,334.839585 471.208288,341.241872 C469.287602,348.284387 468.647374,354.686674 468.647374,361.729189 L468.647374,438.556627 L469.927832,438.556627 L469.927832,439.196856 Z" id="Shape" fill="#3E3C3D"></path>
                <path d="M710.013579,389.259021 C694.007858,384.137192 681.203287,377.094676 671.599857,368.771704 C661.996428,359.168274 658.155056,345.723473 658.155056,327.156842 C658.155056,305.389068 665.837799,288.102894 681.843516,275.298321 C697.84923,262.493748 718.976775,256.73169 745.866379,256.73169 C756.750268,256.73169 768.91461,257.371919 779.798499,259.932833 C790.682389,261.853519 801.566271,265.054662 813.73062,269.536263 C813.090387,277.219007 811.809934,284.90175 809.249015,293.224723 C806.688103,301.547696 804.127191,308.590211 800.926045,314.352269 C793.883528,311.791354 786.841017,309.230439 777.877814,306.669525 C769.554843,304.10861 761.231866,303.468382 751.628436,303.468382 C741.38478,303.468382 733.702036,305.389068 728.580205,307.949982 C722.818147,311.151125 720.257235,315.632726 720.257235,322.035013 C720.257235,329.077527 722.177921,332.918899 726.019293,335.479814 C730.500891,338.040729 735.622722,340.601643 742.66524,343.162558 L766.993924,350.845302 C775.316901,353.406217 782.359412,355.967131 788.761703,359.168274 C795.804214,362.369418 800.926045,366.851018 805.407643,371.972848 C809.889248,377.094676 813.73062,382.856734 816.291533,390.539478 C818.852445,398.222222 820.773131,406.545195 820.773131,416.788853 C820.773131,427.67274 818.212219,437.916399 813.73062,447.519829 C809.249015,457.123258 802.846731,465.446231 794.523761,471.848518 C786.200784,478.891032 775.957128,484.012862 763.152552,487.854234 C750.98821,492.335834 736.903182,493.616292 721.537694,493.616292 C714.495177,493.616292 708.092893,493.616292 702.330835,492.976063 C696.568777,492.335834 691.446945,492.335834 685.684887,490.415148 C680.563058,489.77492 674.801,487.854234 669.679171,487.214005 C664.557342,485.293319 658.795284,484.012862 653.033226,481.451947 C653.673455,473.769204 654.953912,465.446231 657.514826,457.763487 C660.075742,450.080743 662.636656,441.757771 665.837799,434.075027 C675.441229,437.27617 684.40443,441.117542 692.727405,442.397999 C701.050375,443.678457 710.653805,444.958914 719.617008,444.958914 C724.098607,444.958914 727.939979,444.958914 733.06181,444.318685 C738.183635,443.678457 742.66524,442.397999 746.506612,439.837085 C750.98821,437.916399 754.189356,435.355484 756.750268,432.154341 C759.31118,428.953197 761.231866,425.111825 761.231866,419.989997 C761.231866,412.947481 758.670954,407.825652 755.469808,404.624509 C750.98821,401.423365 745.226152,398.862451 737.543408,396.301536 L710.013579,389.259021 Z" id="Path" fill="#3E3C3D"></path>
                <path d="M841.26045,262.493748 C848.302968,260.573062 854.065026,259.932833 859.18685,259.932833 C864.308682,259.932833 869.430513,259.932833 873.271885,259.932833 C879.033943,259.932833 885.436227,259.932833 891.198285,259.932833 C896.960343,259.932833 903.362627,260.573062 907.844232,262.493748 L955.221148,459.043944 L1008.36013,262.493748 C1017.96356,260.573062 1027.56699,259.932833 1037.81064,259.932833 C1042.29225,259.932833 1047.41407,259.932833 1051.25545,259.932833 C1056.37728,259.932833 1062.13934,260.573062 1069.82208,262.493748 L985.952123,540.993212 C982.750985,551.877099 978.26938,561.480529 973.147555,567.882816 C968.025723,575.565559 962.903892,580.687388 957.141834,584.52876 C951.379776,589.010361 944.337266,591.571275 936.654522,592.851733 C928.971778,594.772419 920.648801,595.412647 912.325831,595.412647 C904.00286,595.412647 896.960343,594.772419 890.558059,593.491961 C883.515541,592.851733 877.753483,590.931047 871.351199,589.010361 C871.351199,587.089675 871.351199,586.449446 871.351199,585.809218 L871.351199,582.608074 C871.351199,575.565559 871.991426,569.163272 873.912111,563.401214 C875.832797,557.639157 877.113257,551.23687 879.674169,545.474812 C882.235082,546.115041 885.436227,547.395498 889.917826,548.035727 C894.399431,548.675956 898.240803,548.675956 902.722401,548.675956 C905.923546,548.675956 909.764918,548.675956 912.966057,548.035727 C916.167203,547.395498 920.008574,546.115041 923.20972,543.554126 C926.410859,540.993212 930.252231,537.792069 932.81315,533.310468 C935.374062,528.828867 938.575208,522.426581 940.495894,514.103609 L948.178638,487.214005 C944.977492,487.214005 941.13612,487.854234 937.294748,487.854234 C933.453376,487.854234 929.612004,487.854234 925.130406,487.854234 L915.526976,487.854234 C912.966057,487.854234 909.764918,487.854234 907.844232,487.214005 L841.26045,262.493748 Z" id="Path" fill="#3E3C3D"></path>
                <path d="M1232.44016,169.020364 C1237.56198,168.380136 1242.68382,167.099678 1247.80565,167.099678 C1252.92747,167.099678 1258.0493,166.45945 1263.17113,166.45945 C1268.29296,166.45945 1273.41479,166.45945 1278.53662,167.099678 C1283.65845,167.099678 1288.78028,167.739907 1294.54234,169.020364 L1294.54234,480.17149 C1281.09753,484.65309 1266.37227,487.214005 1252.92747,489.77492 C1238.84244,492.335834 1221.55627,492.976063 1201.06895,492.976063 C1185.70346,492.976063 1170.33798,491.055377 1156.89317,487.214005 C1142.80815,482.732404 1130.6438,476.330118 1119.75991,466.726688 C1108.87602,457.123258 1100.55305,445.599143 1094.15077,430.873883 C1088.38871,416.788853 1084.54734,398.862451 1084.54734,377.734906 C1084.54734,361.08896 1087.10825,345.723473 1092.87031,330.998213 C1097.99214,316.913183 1105.67489,304.10861 1115.91854,292.584494 C1126.1622,281.700608 1137.68631,273.377635 1152.41158,266.975348 C1166.4966,261.21329 1181.86209,257.371919 1199.7885,257.371919 C1204.91032,257.371919 1210.67238,257.371919 1215.79421,258.012147 C1221.55627,258.012147 1226.6781,259.932833 1231.79993,260.573062 L1231.79993,169.020364 L1232.44016,169.020364 Z M1232.44016,309.230439 C1226.6781,307.309753 1222.1965,306.669525 1218.35512,306.669525 C1215.15399,306.669525 1210.03215,306.029296 1204.91032,306.029296 C1195.30689,306.029296 1186.98392,307.949982 1179.30118,311.791354 C1172.25866,316.272955 1166.4966,321.394784 1161.37478,327.797071 C1156.25295,334.199357 1153.0518,341.882101 1151.13112,350.845302 C1148.5702,359.168274 1147.92998,368.771704 1147.92998,379.015362 C1147.92998,391.179707 1149.85066,400.783137 1152.41158,409.746338 C1154.97249,418.709539 1159.45409,425.111825 1164.57592,428.953197 C1169.69775,434.075027 1175.45981,437.27617 1182.50232,439.837085 C1189.54484,442.397999 1196.58735,443.038228 1205.55056,443.038228 C1210.67238,443.038228 1215.15399,443.038228 1218.99536,442.397999 C1223.47696,442.397999 1227.31833,440.477313 1232.44016,439.837085 L1232.44016,309.230439 L1232.44016,309.230439 Z" id="Shape" fill="#3E3C3D"></path>
                <path d="M1396.33869,393.740622 C1396.97892,411.667024 1404.02144,424.471597 1414.90533,432.154341 C1425.78921,439.837085 1440.51447,444.318685 1459.0811,444.318685 C1469.32476,444.318685 1479.56842,443.678457 1489.81208,441.757771 C1500.05573,439.837085 1510.29939,437.27617 1519.26259,433.434798 C1522.46374,439.196856 1525.02465,446.239371 1527.58556,454.562344 C1530.14648,462.885316 1530.78671,471.208288 1532.06717,480.811718 C1509.01894,489.134691 1484.05002,493.616292 1455.23973,493.616292 C1434.11219,493.616292 1416.18578,491.055377 1400.82029,485.293319 C1385.4548,479.531261 1373.93069,471.848518 1364.32726,460.96463 C1354.72383,450.720972 1348.32154,437.916399 1343.19971,423.831369 C1338.71811,409.746338 1336.1572,394.38085 1336.1572,377.094676 C1336.1572,359.808503 1338.71811,345.083244 1343.19971,330.357985 C1348.32154,316.272955 1355.36406,303.468382 1363.68703,291.944266 C1373.29046,281.060378 1384.17435,272.737406 1397.61915,266.33512 C1411.06395,259.932833 1427.06967,256.73169 1444.99607,256.73169 C1461.00179,256.73169 1474.44659,259.292605 1486.61093,265.054662 C1498.77527,270.81672 1509.65916,277.859236 1517.98213,288.102894 C1526.30511,297.706324 1533.34762,309.230439 1537.18899,322.035013 C1541.6706,335.479814 1544.23151,348.924616 1544.23151,364.290104 C1544.23151,370.052162 1544.23151,375.17399 1543.59128,380.29582 C1543.59128,385.417649 1542.95105,389.89925 1541.6706,393.100393 L1396.97892,393.100393 L1396.97892,393.740622 L1396.33869,393.740622 Z M1484.69025,350.205073 C1484.05002,336.760271 1480.20865,324.595927 1472.5259,316.272955 C1465.48339,307.949982 1455.87996,303.468382 1443.07538,303.468382 C1428.99035,303.468382 1417.46624,307.949982 1409.78349,315.632726 C1402.10075,323.955699 1397.61915,334.839585 1396.33869,350.205073 L1484.69025,350.205073 Z" id="Shape" fill="#3E3C3D"></path>
                <path d="M1585.84638,489.134691 C1583.92569,478.891032 1583.28546,469.927832 1583.28546,460.324402 C1583.28546,450.720972 1583.92569,441.757771 1585.84638,430.873883 C1590.9682,430.233655 1596.09003,428.953197 1601.85209,428.953197 C1607.61415,428.953197 1612.73598,428.312969 1617.21758,428.312969 C1622.33941,428.312969 1627.46123,428.312969 1633.22329,428.953197 C1638.98535,429.593426 1644.10718,429.593426 1649.22901,430.873883 C1649.86924,435.995713 1651.1497,441.117542 1651.1497,444.958914 C1651.1497,450.080743 1651.78992,454.562344 1651.78992,459.043944 C1651.78992,463.525545 1651.78992,468.647374 1651.1497,473.128974 C1651.1497,478.250804 1650.50947,483.372633 1649.22901,488.494462 C1644.10718,489.134691 1638.98535,490.415148 1633.22329,490.415148 C1627.46123,490.415148 1622.33941,491.055377 1617.21758,491.055377 C1612.09575,491.055377 1606.97392,491.055377 1601.21186,490.415148 C1596.09003,490.415148 1589.68775,490.415148 1585.84638,489.134691" id="Path" fill="#3E3C3D"></path>
            </g>
        </g>
    </g>
</svg>