<?xml version="1.0" encoding="UTF-8"?>
<svg width="64px" height="64px" viewBox="0 0 64 64" version="1.1" xmlns="http://www.w3.org/2000/svg" xmlns:xlink="http://www.w3.org/1999/xlink">
    <title>integration</title>
    <g id="⏹️-Product-Wireframe" stroke="none" stroke-width="1" fill="none" fill-rule="evenodd">
        <g id="DR---Global-Seller-Services" transform="translate(-157.000000, -3233.000000)" fill="#003058" fill-rule="nonzero">
            <g id="components-/-card-/-old-stylee" transform="translate(116.000000, 3136.000000)">
                <g id="icons/dark/integration" transform="translate(41.000000, 97.000000)">
                    <path d="M44.627375,40.08275 L42.333125,37.788375 C42.715625,37.10625 43.028125,36.39 43.267625,35.64725 L46.636625,35.64725 C47.1545,35.64725 47.574125,35.227625 47.574125,34.70975 L47.574125,29.29025 C47.574125,28.772375 47.1545,28.35275 46.636625,28.35275 L43.2675,28.35275 C43.028,27.610125 42.7155,26.893875 42.333,26.21175 L44.62725,23.917375 C44.993375,23.55125 44.993375,22.95775 44.62725,22.59175 L41.104,19.06825 C40.928125,18.8925 40.68975,18.79375 40.441,18.79375 C40.19225,18.79375 39.954,18.8925 39.778,19.06825 L37.395,21.451375 C36.82875,21.160875 36.24075,20.917 35.636375,20.721875 L35.636375,17.35275 C35.636375,16.834875 35.21675,16.41525 34.698875,16.41525 L29.71625,16.41525 C29.198375,16.41525 28.77875,16.834875 28.77875,17.35275 L28.77875,20.59675 C28.0275,20.808625 27.300375,21.094375 26.60475,21.451375 L24.22175,19.06825 C24.045875,18.8925 23.8075,18.79375 23.55875,18.79375 C23.31,18.79375 23.07175,18.8925 22.89575,19.06825 L19.3725,22.59175 C19.006375,22.957875 19.006375,23.551375 19.3725,23.917375 L21.66675,26.21175 C21.28425,26.893875 20.97175,27.610125 20.73225,28.35275 L17.36325,28.35275 C16.845375,28.35275 16.42575,28.772375 16.42575,29.29025 L16.42575,34.70975 C16.42575,35.227625 16.845375,35.64725 17.36325,35.64725 L20.73225,35.64725 C20.97175,36.39 21.28425,37.10625 21.66675,37.788375 L19.3725,40.08275 C19.006375,40.448875 19.006375,41.042375 19.3725,41.4085 L22.89575,44.93175 C23.261875,45.297625 23.8555,45.297875 24.2215,44.93175 L26.604625,42.54875 C27.300125,42.905625 28.027375,43.1915 28.778625,43.403375 L28.778625,46.647375 C28.778625,47.16525 29.19825,47.584875 29.716125,47.584875 L34.69875,47.584875 C35.216625,47.584875 35.63625,47.16525 35.63625,46.647375 L35.63625,43.27825 C36.240625,43.083125 36.828625,42.83925 37.394875,42.54875 L39.778,44.93175 C40.144,45.29775 40.737625,45.29775 41.10375,44.93175 L44.627,41.4085 C44.993375,41.042375 44.993375,40.448875 44.627375,40.08275 L44.627375,40.08275 Z M40.441125,42.943 L38.222125,40.724125 C37.919,40.421125 37.448875,40.361875 37.080375,40.581125 C36.26325,41.066625 35.384125,41.43125 34.4675,41.664875 C34.052125,41.77075 33.7615,42.14475 33.7615,42.573375 L33.7615,45.709875 L30.65375,45.709875 L30.65375,42.67 C30.65375,42.2275 30.344375,41.84525 29.911625,41.753125 C28.85625,41.528125 27.8495,41.133875 26.919375,40.58125 C26.550875,40.362 26.080625,40.421125 25.777625,40.72425 L23.558625,42.943125 L21.36125,40.74575 L23.51125,38.595625 C23.824,38.282875 23.875625,37.794 23.634875,37.42275 C23.04575,36.514 22.611875,35.523375 22.34575,34.478375 C22.239875,34.063 21.865875,33.772375 21.43725,33.772375 L18.30075,33.772375 L18.30075,30.227875 L21.4375,30.227875 C21.866125,30.227875 22.240125,29.93725 22.346,29.521875 C22.612375,28.477 23.046125,27.486375 23.635125,26.577625 C23.875875,26.206375 23.82425,25.7175 23.5115,25.40475 L21.3615,23.254625 L23.558875,21.057125 L25.77775,23.276125 C26.080875,23.579125 26.550875,23.638125 26.919625,23.419125 C27.849625,22.8665 28.856375,22.47225 29.911875,22.24725 C30.344625,22.155125 30.654,21.772875 30.654,21.330375 L30.654,18.2905 L33.761625,18.2905 L33.761625,21.427 C33.761625,21.855625 34.05225,22.229625 34.467625,22.3355 C35.38425,22.569125 36.263375,22.93375 37.0805,23.41925 C37.44875,23.638375 37.919,23.57925 38.222375,23.27625 L40.44125,21.05725 L42.638625,23.25475 L40.488625,25.404875 C40.175875,25.717625 40.12425,26.2065 40.365,26.57775 C40.954125,27.4865 41.387875,28.477 41.654125,29.522 C41.76,29.937375 42.134,30.228 42.562625,30.228 L45.699125,30.228 L45.699125,33.7725 L42.5625,33.7725 C42.133875,33.7725 41.759875,34.063125 41.654,34.4785 C41.38775,35.523375 40.953875,36.514125 40.364875,37.422875 C40.124125,37.794125 40.17575,38.283 40.4885,38.59575 L42.6385,40.745875 L40.441125,42.943 Z" id="Shape"></path>
                    <path d="M32,27.274375 C31.7595,27.274375 31.518125,27.292625 31.282625,27.328625 C30.77075,27.40675 30.41925,27.885 30.497375,28.396875 C30.5755,28.908875 31.054125,29.26025 31.565625,29.182125 C31.707875,29.160375 31.854,29.149375 32.000125,29.149375 C33.571875,29.149375 34.85075,30.428125 34.85075,32 C34.85075,33.571875 33.572,34.850625 32.000125,34.850625 C30.42825,34.850625 29.1495,33.571875 29.1495,32 C29.1495,31.853 29.160625,31.70575 29.18275,31.562625 C29.261375,31.050875 28.91025,30.57225 28.398625,30.4935 C27.887,30.414375 27.40825,30.76575 27.3295,31.277625 C27.293,31.51475 27.274625,31.757875 27.274625,31.999875 C27.274625,34.605625 29.3945,36.7255 32.00025,36.7255 C34.606,36.7255 36.725875,34.605625 36.725875,31.999875 C36.725875,29.394125 34.60575,27.274375 32,27.274375 L32,27.274375 Z" id="Path"></path>
                    <path d="M55.486375,5.682125 C53.925125,5.682125 52.654875,6.952375 52.654875,8.513625 C52.654875,10.074875 53.925125,11.345125 55.486375,11.345125 C57.047625,11.345125 58.317875,10.074875 58.317875,8.513625 C58.317875,6.952375 57.047625,5.682125 55.486375,5.682125 Z M55.486375,9.47025 C54.958875,9.47025 54.529875,9.041125 54.529875,8.51375 C54.529875,7.986375 54.959,7.55725 55.486375,7.55725 C56.01375,7.55725 56.442875,7.986375 56.442875,8.51375 C56.442875,9.041125 56.01375,9.47025 55.486375,9.47025 Z" id="Shape"></path>
                    <path d="M63.0625,5.682125 L61.468875,5.682125 C60.813625,4.295125 59.704875,3.186375 58.317875,2.531125 L58.317875,0.9375 C58.317875,0.419625 57.89825,0 57.380375,0 L53.59225,0 C53.074375,0 52.65475,0.419625 52.65475,0.9375 L52.65475,2.531 C51.267625,3.186375 50.159,4.295 49.503625,5.682125 L47.91,5.682125 C47.392125,5.682125 46.9725,6.10175 46.9725,6.619625 L46.9725,10.40775 C46.9725,10.925625 47.392125,11.34525 47.91,11.34525 L49.5035,11.34525 C50.158875,12.732375 51.267625,13.841125 52.65475,14.4965 L52.65475,16.09 C52.65475,16.607875 53.074375,17.0275 53.59225,17.0275 L57.380375,17.0275 C57.89825,17.0275 58.317875,16.607875 58.317875,16.09 L58.317875,14.496375 C59.705,13.841 60.813625,12.732375 61.469,11.34525 L63.0625,11.34525 C63.580375,11.34525 64,10.925625 64,10.40775 L64,6.619625 C64,6.10175 63.580375,5.682125 63.0625,5.682125 L63.0625,5.682125 Z M62.125,9.47025 L60.842625,9.47025 C60.445625,9.47025 60.09175,9.72025 59.959125,10.094375 C59.485,11.431125 58.403875,12.5125 57.067,12.986625 C56.692875,13.119375 56.442875,13.47325 56.442875,13.870125 L56.442875,15.1525 L54.52975,15.1525 L54.52975,13.870125 C54.52975,13.473125 54.27975,13.11925 53.905625,12.986625 C52.568875,12.5125 51.4875,11.43125 51.013375,10.094375 C50.880625,9.72025 50.52675,9.47025 50.129875,9.47025 L48.8475,9.47025 L48.8475,7.557125 L50.129875,7.557125 C50.526875,7.557125 50.88075,7.307125 51.013375,6.933 C51.4875,5.59625 52.56875,4.515 53.905625,4.040875 C54.27975,3.908125 54.52975,3.55425 54.52975,3.157375 L54.52975,1.875 L56.442875,1.875 L56.442875,3.157375 C56.442875,3.554375 56.692875,3.90825 57.067,4.040875 C58.40375,4.515 59.485,5.596125 59.959125,6.933 C60.091875,7.307125 60.44575,7.557125 60.842625,7.557125 L62.125,7.557125 L62.125,9.47025 Z" id="Shape"></path>
                    <path d="M58.317875,55.486375 C58.317875,53.925125 57.047625,52.654875 55.486375,52.654875 C53.925125,52.654875 52.654875,53.925125 52.654875,55.486375 C52.654875,57.047625 53.925125,58.317875 55.486375,58.317875 C57.047625,58.317875 58.317875,57.047625 58.317875,55.486375 Z M54.52975,55.486375 C54.52975,54.958875 54.958875,54.529875 55.48625,54.529875 C56.013625,54.529875 56.44275,54.959 56.44275,55.486375 C56.44275,56.01375 56.013625,56.442875 55.48625,56.442875 C54.958875,56.442875 54.52975,56.01375 54.52975,55.486375 Z" id="Shape"></path>
                    <path d="M63.0625,52.65475 L61.469,52.65475 C60.813625,51.267625 59.705,50.159 58.317875,49.503625 L58.317875,47.91 C58.317875,47.392125 57.89825,46.9725 57.380375,46.9725 L53.59225,46.9725 C53.074375,46.9725 52.65475,47.392125 52.65475,47.91 L52.65475,49.577 C52.401125,49.837 52.31175,50.232875 52.459375,50.59 C52.657,51.0685 53.205125,51.296 53.68375,51.0985 C53.75675,51.068375 53.8305,51.04 53.90525,51.0135 C54.2795,50.880875 54.52975,50.526875 54.52975,50.129875 L54.52975,48.8475 L56.442875,48.8475 L56.442875,50.129875 C56.442875,50.526875 56.692875,50.88075 57.067,51.013375 C58.40375,51.4875 59.485,52.56875 59.959125,53.905625 C60.091875,54.27975 60.44575,54.52975 60.842625,54.52975 L62.125,54.52975 L62.125,56.442875 L60.842625,56.442875 C60.445625,56.442875 60.09175,56.692875 59.959125,57.067 C59.485,58.40375 58.403875,59.485 57.067,59.959125 C56.692875,60.091875 56.442875,60.44575 56.442875,60.842625 L56.442875,62.125 L54.52975,62.125 L54.52975,60.842625 C54.52975,60.445625 54.27975,60.09175 53.905625,59.959125 C52.568875,59.485 51.4875,58.403875 51.013375,57.067 C50.880625,56.692875 50.52675,56.442875 50.129875,56.442875 L48.8475,56.442875 L48.8475,54.52975 L50.129875,54.52975 C50.527125,54.52975 50.881125,54.2795 51.013625,53.905125 C51.0415,53.826375 51.0715,53.748625 51.103375,53.672 C51.301875,53.19375 51.075125,52.645125 50.596875,52.446625 C50.23375,52.295625 49.829375,52.390625 49.569,52.65475 L47.91,52.65475 C47.392125,52.65475 46.9725,53.074375 46.9725,53.59225 L46.9725,57.380375 C46.9725,57.89825 47.392125,58.317875 47.91,58.317875 L49.503625,58.317875 C50.159,59.705 51.267625,60.813625 52.65475,61.469 L52.65475,63.0625 C52.65475,63.580375 53.074375,64 53.59225,64 L57.380375,64 C57.89825,64 58.317875,63.580375 58.317875,63.0625 L58.317875,61.468875 C59.704875,60.813625 60.813625,59.704875 61.468875,58.317875 L63.0625,58.317875 C63.580375,58.317875 64,57.89825 64,57.380375 L64,53.59225 C64,53.0745 63.580375,52.65475 63.0625,52.65475 L63.0625,52.65475 Z" id="Path"></path>
                    <path d="M11.34525,8.513625 C11.34525,6.952375 10.075,5.682125 8.51375,5.682125 C6.9525,5.682125 5.682125,6.952375 5.682125,8.513625 C5.682125,10.074875 6.952375,11.345125 8.513625,11.345125 C10.074875,11.345125 11.34525,10.075 11.34525,8.513625 Z M7.557125,8.513625 C7.557125,7.986125 7.98625,7.557125 8.513625,7.557125 C9.041,7.557125 9.470125,7.98625 9.470125,8.513625 C9.470125,9.041 9.041,9.470125 8.513625,9.470125 C7.98625,9.470125 7.557125,9.041125 7.557125,8.513625 L7.557125,8.513625 Z" id="Shape"></path>
                    <path d="M0.9375,11.34525 L2.531,11.34525 C3.186375,12.732375 4.295,13.841 5.682125,14.496375 L5.682125,16.09 C5.682125,16.607875 6.10175,17.0275 6.619625,17.0275 L10.40775,17.0275 C10.925625,17.0275 11.34525,16.607875 11.34525,16.09 L11.34525,14.4965 C12.732375,13.841125 13.841125,12.732375 14.4965,11.34525 L16.09,11.34525 C16.607875,11.34525 17.0275,10.925625 17.0275,10.40775 L17.0275,6.619625 C17.0275,6.10175 16.607875,5.682125 16.09,5.682125 L14.496375,5.682125 C13.841,4.295 12.732375,3.186375 11.34525,2.531 L11.34525,0.9375 C11.34525,0.419625 10.925625,0 10.40775,0 L6.619625,0 C6.10175,0 5.682125,0.419625 5.682125,0.9375 L5.682125,2.604625 C5.4285,2.86475 5.33925,3.26075 5.486875,3.617875 C5.68475,4.09625 6.233,4.3235 6.711625,4.12575 C6.784375,4.095625 6.85825,4.06725 6.933,4.04075 C7.307125,3.908 7.557125,3.554125 7.557125,3.15725 L7.557125,1.875 L9.47025,1.875 L9.47025,3.157375 C9.47025,3.554375 9.72025,3.90825 10.094375,4.040875 C11.431125,4.515 12.5125,5.59625 12.986625,6.933 C13.119375,7.307125 13.47325,7.557125 13.870125,7.557125 L15.1525,7.557125 L15.1525,9.47025 L13.870125,9.47025 C13.473125,9.47025 13.11925,9.72025 12.986625,10.094375 C12.5125,11.431125 11.431125,12.5125 10.094375,12.986625 C9.72025,13.119375 9.47025,13.47325 9.47025,13.870125 L9.47025,15.1525 L7.557125,15.1525 L7.557125,13.870125 C7.557125,13.473125 7.307125,13.11925 6.933,12.986625 C5.59625,12.5125 4.515,11.431125 4.040875,10.094375 C3.908125,9.72025 3.55425,9.47025 3.157375,9.47025 L1.875,9.47025 L1.875,7.557125 L3.157375,7.557125 C3.554375,7.557125 3.908375,7.307 4.041,6.932875 C4.06875,6.854375 4.098625,6.776875 4.1305,6.7005 C4.3295,6.2225 4.103375,5.673625 3.6255,5.4745 C3.261625,5.323 2.85725,5.41775 2.59675,5.682125 L0.9375,5.682125 C0.419625,5.682125 0,6.10175 0,6.619625 L0,10.40775 C0,10.9255 0.419625,11.34525 0.9375,11.34525 Z" id="Path"></path>
                    <path d="M16.09,52.65475 L14.4965,52.65475 C13.841125,51.267625 12.732375,50.158875 11.34525,49.5035 L11.34525,47.91 C11.34525,47.392125 10.925625,46.9725 10.40775,46.9725 L6.619625,46.9725 C6.10175,46.9725 5.682125,47.392125 5.682125,47.91 L5.682125,49.503625 C4.295,50.159 3.186375,51.267625 2.531,52.65475 L0.9375,52.65475 C0.419625,52.65475 0,53.074375 0,53.59225 L0,57.380375 C0,57.89825 0.419625,58.317875 0.9375,58.317875 L2.531125,58.317875 C3.186375,59.704875 4.295125,60.813625 5.682125,61.468875 L5.682125,63.0625 C5.682125,63.580375 6.10175,64 6.619625,64 L10.40775,64 C10.925625,64 11.34525,63.580375 11.34525,63.0625 L11.34525,61.469 C12.732375,60.813625 13.841,59.705 14.496375,58.317875 L16.09,58.317875 C16.607875,58.317875 17.0275,57.89825 17.0275,57.380375 L17.0275,53.59225 C17.0275,53.0745 16.60775,52.65475 16.09,52.65475 L16.09,52.65475 Z M15.1525,56.442875 L13.870125,56.442875 C13.473125,56.442875 13.11925,56.692875 12.986625,57.067 C12.5125,58.40375 11.43125,59.485 10.094375,59.959125 C9.72025,60.091875 9.47025,60.44575 9.47025,60.842625 L9.47025,62.125 L7.557125,62.125 L7.557125,60.842625 C7.557125,60.445625 7.307125,60.09175 6.933,59.959125 C5.59625,59.485 4.515,58.40375 4.040875,57.067 C3.908125,56.692875 3.55425,56.442875 3.157375,56.442875 L1.875,56.442875 L1.875,54.52975 L3.157375,54.52975 C3.554375,54.52975 3.90825,54.27975 4.040875,53.905625 C4.515,52.568875 5.596125,51.4875 6.933,51.013375 C7.307125,50.880625 7.557125,50.52675 7.557125,50.129875 L7.557125,48.8475 L9.47025,48.8475 L9.47025,50.129875 C9.47025,50.526875 9.72025,50.88075 10.094375,51.013375 C11.431125,51.4875 12.5125,52.56875 12.986625,53.905625 C13.119375,54.27975 13.47325,54.52975 13.870125,54.52975 L15.1525,54.52975 L15.1525,56.442875 Z" id="Shape"></path>
                    <path d="M8.513625,52.65475 C6.952375,52.65475 5.682125,53.925 5.682125,55.48625 C5.682125,57.0475 6.952375,58.31775 8.513625,58.31775 C10.074875,58.31775 11.345125,57.0475 11.345125,55.48625 C11.345125,53.925 10.075,52.65475 8.513625,52.65475 Z M8.513625,56.442875 C7.986125,56.442875 7.557125,56.01375 7.557125,55.486375 C7.557125,54.959 7.98625,54.529875 8.513625,54.529875 C9.041,54.529875 9.470125,54.959 9.470125,55.486375 C9.470125,56.01375 9.041125,56.442875 8.513625,56.442875 Z" id="Shape"></path>
                    <path d="M15.49025,14.16425 C15.124,13.79825 14.5305,13.79825 14.164375,14.16425 C13.79825,14.5305 13.79825,15.124 14.164375,15.490125 L16.857125,18.182875 L16.09,18.182875 C15.572125,18.182875 15.1525,18.6025 15.1525,19.120375 C15.1525,19.63825 15.572125,20.057875 16.09,20.057875 L19.1205,20.057875 C19.630875,20.057875 20.0585,19.63025 20.0580004,19.11975 L20.0580004,16.09 C20.0580004,15.572125 19.638375,15.1525 19.1205,15.1525 C18.602625,15.1525 18.183,15.572125 18.183,16.09 L18.183,16.857125 L15.49025,14.16425 Z" id="Path"></path>
                    <path d="M43.94675,19.21325 C43.993375,19.686 44.40475,20.058 44.879625,20.058 L47.910125,20.058 C48.428,20.058 48.847625,19.638375 48.847625,19.1205 C48.847625,18.602625 48.428,18.183 47.910125,18.183 L47.143,18.183 L49.83575,15.49025 C50.201875,15.124 50.201875,14.5305 49.83575,14.164375 C49.4695,13.798375 48.876,13.798375 48.509875,14.164375 L45.817125,16.857125 L45.817125,16.09 C45.817125,15.572125 45.3975,15.1525 44.879625,15.1525 C44.36175,15.1525 43.9421183,15.572125 43.9421183,16.09 L43.9421183,19.119875 C43.942,19.151 43.943625,19.18225 43.94675,19.21325 L43.94675,19.21325 Z" id="Path"></path>
                    <path d="M20.053375,44.5345 C20.006875,44.061 19.594875,43.689625 19.1205,43.689625 L16.09,43.689625 C15.572125,43.689625 15.1525,44.10925 15.1525,44.627125 C15.1525,45.145 15.572125,45.564625 16.09,45.564625 L16.857125,45.564625 L14.164375,48.25725 C13.798125,48.6235 13.798125,49.217 14.16425,49.583 C14.347375,49.766125 14.58725,49.857625 14.82725,49.857625 C15.067125,49.857625 15.307125,49.766125 15.490125,49.583125 L18.183,46.890375 L18.183,47.6575 C18.183,48.175375 18.602625,48.595 19.1205,48.595 C19.638375,48.595 20.058,48.175375 20.058,47.6575 L20.058,44.6275 C20.058,44.596375 20.056375,44.565375 20.053375,44.5345 L20.053375,44.5345 Z" id="Path"></path>
                    <path d="M48.509875,49.583125 C48.692875,49.766125 48.932875,49.857625 49.17275,49.857625 C49.412625,49.857625 49.652625,49.766125 49.83575,49.583 C50.201875,49.216875 50.201875,48.623375 49.835625,48.25725 L47.142875,45.564625 L47.91,45.564625 C48.427875,45.564625 48.8475,45.145 48.8475,44.627125 C48.8475,44.10925 48.427875,43.689625 47.91,43.689625 L44.8795,43.689625 C44.37,43.689625 43.94175,44.1165 43.9419999,44.6275 L43.9419999,47.6575 C43.9419999,48.175375 44.361625,48.595 44.8795,48.595 C45.397375,48.595 45.817,48.175375 45.817,47.6575 L45.817,46.890375 L48.509875,49.583125 Z" id="Path"></path>
                </g>
            </g>
        </g>
    </g>
</svg>