<?xml version="1.0" encoding="UTF-8"?>
<svg width="38px" height="45px" viewBox="0 0 38 45" version="1.1" xmlns="http://www.w3.org/2000/svg" xmlns:xlink="http://www.w3.org/1999/xlink">
    <title>investment</title>
    <defs>
        <linearGradient x1="50%" y1="0%" x2="50%" y2="100%" id="linearGradient-1">
            <stop stop-color="#005E91" offset="0%"></stop>
            <stop stop-color="#003058" offset="100%"></stop>
        </linearGradient>
    </defs>
    <g id="â¹ï¸-Product-Wireframe" stroke="none" stroke-width="1" fill="none" fill-rule="evenodd">
        <g id="sections-/-Tax-Icons-" transform="translate(-200.000000, -810.000000)" fill-rule="nonzero">
            <g id="investment" transform="translate(201.000000, 811.000000)">
                <path d="M16.4278711,3.61046993 L13.5090091,1.19970746 C13.220578,0.961493504 13.1798454,0.534435926 13.418144,0.246004812 C13.6564427,-0.0424263031 14.0833309,-0.0832436247 14.3719314,0.155055012 L18.6383577,3.6788093 C18.7967153,3.80956022 18.887157,4.00517851 18.8843445,4.21062005 C18.8813986,4.41606159 18.7855371,4.60897001 18.6235381,4.7353174 L14.2604035,8.13856744 C14.1366813,8.23510634 13.9899253,8.28185148 13.8442701,8.28185148 C13.6426393,8.28185148 13.4432103,8.19225662 13.3096648,8.02102711 C13.0794957,7.7259907 13.132084,7.30028805 13.4272051,7.07011901 L16.0641565,5.01333248 C7.73344282,6.06806223 1.37669543,13.1744257 1.37669543,21.7088872 C1.37669543,29.6858791 7.0418348,36.6231301 14.8472584,38.2039968 C15.2139368,38.278264 15.4510499,38.6357966 15.3767827,39.0024751 C15.3116613,39.323848 15.029158,39.5456334 14.7135435,39.5456334 C14.6689155,39.5456334 14.6236946,39.5411451 14.5783044,39.5319994 C10.5261267,38.7113341 6.83529238,36.4945809 4.18572318,33.2902518 C1.50050233,30.0428189 0.0216789094,25.9298387 0.0216789094,21.7088872 C0.0216789094,12.305745 7.16445613,4.50768885 16.4278711,3.61046993 L16.4278711,3.61046993 Z M31.3295808,34.2986598 C34.5942043,30.8965953 36.3921142,26.4254897 36.3921142,21.7089719 C36.3921142,17.5157119 34.9305662,13.4237331 32.2767628,10.1867163 C29.6595426,6.99441219 26.0066464,4.7681745 21.9910518,3.91812414 C21.6242887,3.84063897 21.2654858,4.07461877 21.1880006,4.44061973 C21.1105155,4.80662069 21.3444106,5.16618573 21.7104115,5.24367089 C29.4325068,6.87839615 35.0371824,13.8030294 35.0371824,21.7089719 C35.0371824,30.2804401 28.6774711,37.3673264 20.3237235,38.4072366 L22.9046993,36.2755901 C23.1931304,36.0373761 23.233863,35.6104032 22.9955644,35.3218027 C22.7573504,35.0333716 22.3303775,34.992639 22.0417771,35.2309376 L17.7753508,38.7546072 C17.6169931,38.8854428 17.5265514,39.0809764 17.5293639,39.2863333 C17.5323099,39.4917748 17.6281713,39.6847679 17.7901703,39.8110306 L22.1533896,43.2142807 C22.2771118,43.3109043 22.4238678,43.3575647 22.569523,43.3575647 C22.7711538,43.3575647 22.9705828,43.2679698 23.1041283,43.0967403 C23.3342974,42.8017886 23.2817091,42.3760013 22.986588,42.1459169 L19.9880391,39.8070505 C24.3042592,39.3882919 28.3011387,37.4546348 31.3295808,34.2986598 L31.3295808,34.2986598 Z M18.2068966,9.77261524 C24.7719647,9.77261524 30.1131907,15.1137565 30.1131907,21.6789094 C30.1131907,28.2439775 24.7720494,33.5852035 18.2068966,33.5852035 C11.6417437,33.5852035 6.30060241,28.2439775 6.30060241,21.6789094 C6.30060241,15.1137565 11.6418284,9.77261524 18.2068966,9.77261524 Z M18.2068966,11.1275471 C12.3889039,11.1275471 7.65553424,15.8608321 7.65553424,21.6789094 C7.65553424,27.496902 12.3889039,32.2302717 18.2068966,32.2302717 C24.0248892,32.2302717 28.7582589,27.496902 28.7582589,21.6789094 C28.7582589,15.8608321 24.0248892,11.1275471 18.2068966,11.1275471 Z" id="Shape" stroke="url(#linearGradient-1)" stroke-width="0.5" fill="url(#linearGradient-1)"></path>
                <path d="M17.5294306,13.9497854 L17.5294306,15.1555901 C15.8492305,15.473999 14.5743243,16.952399 14.5743243,18.7238877 C14.5743243,21.5103897 16.5831801,21.9887654 18.0499785,22.337999 C19.6497296,22.7189889 20.484537,22.9941248 20.484537,24.6341004 C20.484537,25.8899528 19.4628337,26.9117408 18.2068966,26.9117408 C16.9510441,26.9117408 15.9292561,25.8900375 15.9292561,24.6341004 C15.9292561,24.2599698 15.6259208,23.9566345 15.2517902,23.9566345 C14.8776597,23.9566345 14.5743243,24.2599698 14.5743243,24.6341004 C14.5743243,26.4055044 15.8492305,27.8839044 17.5294306,28.2023134 L17.5294306,29.408118 C17.5294306,29.7822486 17.832766,30.085584 18.2068966,30.085584 C18.5810271,30.085584 18.8843625,29.7822486 18.8843625,29.408118 L18.8843625,28.2023134 C20.5646473,27.8839044 21.8394688,26.4055044 21.8394688,24.6341004 C21.8394688,21.8475984 19.830613,21.3692228 18.3638146,21.0199044 C16.7639788,20.6389145 15.9292561,20.3637787 15.9292561,18.723803 C15.9292561,17.4678659 16.9509594,16.4461626 18.2068966,16.4461626 C19.4628337,16.4461626 20.484537,17.4678659 20.484537,18.723803 C20.484537,19.0979336 20.7878723,19.401269 21.1620029,19.401269 C21.5361334,19.401269 21.8394688,19.0979336 21.8394688,18.723803 C21.8394688,16.9523144 20.5645626,15.4739144 18.8843625,15.1555054 L18.8843625,13.9497007 C18.8843625,13.5755702 18.5810271,13.2722348 18.2068966,13.2722348 C17.832766,13.2722348 17.5294306,13.5755702 17.5294306,13.9497854 Z" id="Path" fill="#B03478"></path>
            </g>
        </g>
    </g>
</svg>