<?xml version="1.0" encoding="UTF-8"?>
<svg width="47px" height="45px" viewBox="0 0 47 45" version="1.1" xmlns="http://www.w3.org/2000/svg" xmlns:xlink="http://www.w3.org/1999/xlink">
    <title>invoice</title>
    <defs>
        <linearGradient x1="50%" y1="0%" x2="50%" y2="100%" id="linearGradient-1">
            <stop stop-color="#005E91" offset="0%"></stop>
            <stop stop-color="#003058" offset="100%"></stop>
        </linearGradient>
        <linearGradient x1="50%" y1="0%" x2="50%" y2="100%" id="linearGradient-2">
            <stop stop-color="#005E91" offset="0%"></stop>
            <stop stop-color="#003058" offset="100%"></stop>
        </linearGradient>
        <linearGradient x1="50%" y1="0%" x2="50%" y2="100%" id="linearGradient-3">
            <stop stop-color="#005E91" offset="0%"></stop>
            <stop stop-color="#003058" offset="100%"></stop>
        </linearGradient>
        <linearGradient x1="50%" y1="0%" x2="50%" y2="100%" id="linearGradient-4">
            <stop stop-color="#005E91" offset="0%"></stop>
            <stop stop-color="#003058" offset="100%"></stop>
        </linearGradient>
    </defs>
    <g id="⏹️-Product-Wireframe" stroke="none" stroke-width="1" fill="none" fill-rule="evenodd">
        <g id="sections-/-Tax-Icons-" transform="translate(-947.000000, -366.000000)" fill-rule="nonzero">
            <g id="invoice" transform="translate(947.000000, 366.000000)">
                <path d="M35.414428,6.59637504 C35.4345378,6.59783757 35.4546476,6.5993001 35.475123,6.5993001 C35.5098581,6.5993001 35.5445932,6.59637504 35.578597,6.59162185 C36.4886562,6.61026912 37.216996,7.35250296 37.218093,8.2625622 C37.218093,8.67609243 37.5533779,9.01137746 37.9669082,9.01137746 C38.3804384,9.01137746 38.7157235,8.67609243 38.7157235,8.2625622 C38.7138952,6.77407246 37.6776929,5.48631492 36.2239383,5.16602089 L36.2239383,4.44645623 C36.2239383,4.03292599 35.8886534,3.69764096 35.475123,3.69764096 C35.0615927,3.69764096 34.7263078,4.03292599 34.7263078,4.44645623 L34.7263078,5.20002478 C33.1891889,5.61099556 32.1946687,7.09802277 32.4019823,8.67572682 C32.6092958,10.2534309 33.954092,11.4329611 35.5453245,11.4329611 C36.4692777,11.4329611 37.218093,12.1821421 37.218093,13.1060952 C37.218093,14.0296828 36.4692777,14.7788637 35.5453245,14.7788637 C34.6213712,14.7788637 33.872556,14.0296828 33.872556,13.1060952 C33.872556,12.6925649 33.537271,12.35728 33.1237407,12.35728 C32.7102105,12.35728 32.3749254,12.6925649 32.3749254,13.1060952 C32.3767537,14.540837 33.3405607,15.7960531 34.7263078,16.1686326 L34.7263078,16.9891119 C34.7263078,17.4026422 35.0615927,17.7379271 35.475123,17.7379271 C35.8886534,17.7379271 36.2239383,17.4026422 36.2239383,16.9891119 L36.2239383,16.2030021 C37.8052986,15.8567482 38.8718485,14.3744742 38.6974418,12.7649602 C38.5234008,11.1554462 37.164345,9.9356963 35.5453245,9.93606191 C34.6469655,9.93642752 33.9087536,9.22710056 33.8732873,8.32947287 C33.8381866,7.43184527 34.5186285,6.66657648 35.414428,6.59674065 L35.414428,6.59637504 Z" id="Path" fill="#B03478"></path>
                <path d="M35.5881034,0.0365632452 C30.9815002,0.0365632452 27.0502201,3.04242761 25.5774525,7.06730964 L6.9919894,7.06730964 C6.58028722,7.06730964 6.2460992,7.43842661 6.24317414,7.84976309 L6.06620804,34.118261 L0.768559461,34.118261 C0.355029134,34.118261 -5.32907052e-15,34.417714 -5.32907052e-15,34.8319755 L-5.32907052e-15,38.1654467 C0.00950639695,41.3036699 2.48118177,43.8817444 5.61611446,44.0236098 L5.61611446,44.0400632 L28.7357857,44.0400632 L28.7357857,44.0181252 C28.9229895,44.0250723 29.000138,44.0400632 29.1186029,44.0400632 L29.1346907,44.0400632 C32.379313,44.0349444 35.0071135,41.403122 35.0071135,38.1584996 L35.0071135,21.3043061 C35.1943173,21.3145438 35.3924901,21.3200283 35.5862753,21.3200283 C41.4484604,21.3200283 46.218867,16.5404809 46.218867,10.6779301 C46.218867,4.81574505 41.4506542,0.0365632452 35.5881034,0.0365632452 Z M5.90094217,42.5424327 L5.89618897,42.5424327 C3.4738739,42.539142 1.50859954,40.580449 1.49763052,38.1577683 L1.49763052,35.6158915 L23.2132731,35.6158915 L23.2132731,38.147165 C23.21437,39.7098781 23.8385047,41.2078743 24.9471023,42.3095248 C25.0257132,42.3881358 25.123337,42.4488308 25.2056043,42.5424327 L5.90094217,42.5424327 Z M33.509483,38.1577683 C33.5098486,40.5760614 31.5518869,42.5376795 29.1339594,42.5424327 L29.1196997,42.5424327 C26.6919002,42.5380451 24.7229695,40.5753301 24.7109036,38.1478963 L24.7109036,34.8319755 C24.7171194,34.6403841 24.6439929,34.4550084 24.5083433,34.3197245 C24.3726936,34.1844405 24.187318,34.1116796 23.9960922,34.118261 L7.56383856,34.118261 L7.73568577,8.56494017 L25.1617284,8.56494017 C25.0290039,9.25050104 24.9602649,9.94666523 24.9566086,10.6446576 C24.9551461,12.1207158 25.2630087,13.5803206 25.8604521,14.9298699 L18.7876579,14.9298699 C18.373762,14.9298699 18.0388427,15.2651549 18.0388427,15.6786852 C18.0388427,16.0922155 18.373762,16.4275004 18.7876579,16.4275004 L26.6728874,16.4275004 C28.2176845,18.8567624 30.687166,20.5503719 33.509483,21.1171023 L33.509483,38.1577683 Z M35.5881034,19.8227634 C30.5438381,19.8227634 26.4542392,15.7335301 26.4546048,10.6888991 C26.4546048,5.64426814 30.5438381,1.5550348 35.5884691,1.5550348 C40.6327344,1.5550348 44.7219677,5.64463384 44.7219677,10.6888991 C44.7164833,15.7309706 40.6305406,19.8172789 35.5881034,19.8227634 Z" id="Shape" fill="url(#linearGradient-1)"></path>
                <path d="M13.9810537,19.9134403 C12.6592924,19.9134403 11.584333,20.9543959 11.584333,22.2341094 C11.584333,23.513823 12.6592924,24.5547786 13.9810537,24.5547786 C15.302815,24.5547786 16.37814,23.513823 16.37814,22.2341094 C16.37814,20.9543959 15.302815,19.9134403 13.9810537,19.9134403 L13.9810537,19.9134403 Z M13.9810537,23.057148 C13.4848904,23.057148 13.0819635,22.6878593 13.0819635,22.2341094 C13.0819635,21.7799939 13.4852561,21.4110708 13.9810537,21.4110708 C14.4768513,21.4110708 14.8805095,21.7803595 14.8805095,22.2341094 C14.8805095,22.6878593 14.4768513,23.057148 13.9810537,23.057148 Z" id="Shape" fill="url(#linearGradient-2)"></path>
                <path d="M18.0388427,22.2308187 C18.0388427,22.644349 18.373762,22.979634 18.7876579,22.979634 L28.7708864,22.979634 C29.1844167,22.979634 29.5197017,22.644349 29.5197017,22.2308187 C29.5197017,21.8172885 29.1844167,21.4820034 28.7708864,21.4820034 L18.7876579,21.4820034 C18.373762,21.4820034 18.0388427,21.8172885 18.0388427,22.2308187 Z" id="Path" fill="url(#linearGradient-3)"></path>
                <path d="M13.9810537,13.4040857 C12.6592924,13.4040857 11.584333,14.4454069 11.584333,15.7251205 C11.584333,17.0048341 12.6592924,18.0457897 13.9810537,18.0457897 C15.302815,18.0457897 16.37814,17.0048341 16.37814,15.7251205 C16.37814,14.4454069 15.302815,13.4040857 13.9810537,13.4040857 Z M13.9810537,16.5481592 C13.4848904,16.5481592 13.0819635,16.1788703 13.0819635,15.7251205 C13.0819635,15.2713706 13.4852561,14.9017162 13.9810537,14.9017162 C14.4768513,14.9017162 14.8805095,15.271005 14.8805095,15.7251205 C14.8805095,16.1788703 14.4768513,16.5485248 13.9810537,16.5485248 L13.9810537,16.5481592 Z" id="Shape" fill="url(#linearGradient-4)"></path>
                <path d="M13.9810537,26.4220635 C12.6592924,26.4220635 11.584333,27.4630191 11.584333,28.7427327 C11.584333,30.0224463 12.6592924,31.0634019 13.9810537,31.0634019 C15.302815,31.0634019 16.37814,30.0224463 16.37814,28.7427327 C16.37814,27.4630191 15.302815,26.4220635 13.9810537,26.4220635 Z M13.9810537,29.5657714 C13.4848904,29.5657714 13.0819635,29.1968482 13.0819635,28.7427327 C13.0819635,28.2889828 13.4852561,27.919694 13.9810537,27.919694 C14.4768513,27.919694 14.8805095,28.2889828 14.8805095,28.7427327 C14.8805095,29.1964826 14.4768513,29.5657714 13.9810537,29.5657714 L13.9810537,29.5657714 Z" id="Shape" fill="url(#linearGradient-2)"></path>
                <path d="M28.7708864,28.034137 L18.7876579,28.034137 C18.373762,28.034137 18.0388427,28.369422 18.0388427,28.7829522 C18.0388427,29.1964826 18.373762,29.5317675 18.7876579,29.5317675 L28.7708864,29.5317675 C29.1844167,29.5317675 29.5197017,29.1964826 29.5197017,28.7829522 C29.5197017,28.369422 29.1844167,28.034137 28.7708864,28.034137 Z" id="Path" fill="url(#linearGradient-3)"></path>
            </g>
        </g>
    </g>
</svg>