<?xml version="1.0" encoding="UTF-8"?>
<svg width="1920px" height="1080px" viewBox="0 0 1920 1080" version="1.1" xmlns="http://www.w3.org/2000/svg" xmlns:xlink="http://www.w3.org/1999/xlink">
    <!-- Generator: Sketch 61 (89581) - https://sketch.com -->
    <title>Klarna</title>
    <desc>Created with Sketch.</desc>
    <g id="Klarna" stroke="none" stroke-width="1" fill="none" fill-rule="evenodd">
        <g id="Klarna_Logo_Primary_Black" transform="translate(1.000000, 326.000000)" fill="#000105">
            <g id="Group-4">
                <path d="M371.844669,421.357299 L238.673981,239.518954 C301.798175,176.575471 337.225909,91.8989885 337.225909,0.868252874 L242.946526,0.868252874 C242.946526,78.2446207 207.414643,149.266736 145.47,195.727966 L108.116714,223.740034 L252.847981,421.357299 L371.844669,421.357299" id="Fill-1"></path>
                <polygon id="Fill-3" points="0 421.337897 96.5973117 421.337897 96.5973117 0.868252874 0 0.868252874"></polygon>
            </g>
            <polygon id="Fill-5" points="400 422 492 422 492 1 400 1"></polygon>
            <path d="M1326.13296,268.38521 L1326.13296,422 L1413,422 L1413,236.839294 C1413,169.07885 1359.25575,123 1289.18878,123 C1254.4473,123 1221.57168,133.811648 1199.59079,163.635376 L1199.59079,130.848222 L1113,130.848222 L1113,422 L1200.65458,422 L1200.65458,268.987611 C1200.65458,224.711107 1230.27341,203.029514 1265.94056,203.029514 C1304.16177,203.029514 1326.13296,225.918339 1326.13296,268.38521" id="Fill-6"></path>
            <path d="M608.473987,275.998791 C608.473987,234.797412 643.704607,201.401872 687.165144,201.401872 C730.63052,201.401872 765.861141,234.797412 765.861141,275.998791 C765.861141,317.19775 730.63052,350.602966 687.165144,350.602966 C643.704607,350.602966 608.473987,317.19775 608.473987,275.998791 Z M766.151523,402.437895 L766.151523,420.969202 L853,420.969202 L853,131.013865 L766.151523,131.013865 L766.151523,149.559686 C741.616647,132.83047 712.002502,123 680.058039,123 C595.52778,123 527,191.496415 527,275.998791 C527,360.496328 595.52778,429 680.058039,429 C712.002502,429 741.616647,419.167111 766.151523,402.437895 L766.151523,402.437895 Z" id="Fill-7"></path>
            <path d="M1074,214.401685 L1074,130.019354 C1038.53281,130.019354 1005.91741,145.113289 988.412542,167.774756 L988.412542,130 L899,130 L899,420 L988.609636,420 L988.609636,284.602152 C988.609636,238.918745 1038.40872,214.362977 1072.961,214.362977 C1073.31382,214.362977 1073.64718,214.399266 1074,214.401685" id="Fill-8"></path>
            <path d="M1605.16633,350.602966 C1561.70547,350.602966 1526.47459,317.19775 1526.47459,275.998791 C1526.47459,234.797412 1561.70547,201.401872 1605.16633,201.401872 C1648.63203,201.401872 1683.86291,234.797412 1683.86291,275.998791 C1683.86291,317.19775 1648.63203,350.602966 1605.16633,350.602966 Z M1684.15088,420.969202 L1771,420.969202 L1771,131.013865 L1684.15088,131.013865 L1684.15088,149.559686 C1659.61824,132.83047 1630.00145,123 1598.05918,123 C1513.52829,123 1445,191.496415 1445,275.998791 C1445,360.496328 1513.52829,429 1598.05918,429 C1630.00145,429 1659.61824,419.167111 1684.15088,402.437895 L1684.15088,420.969202 L1684.15088,420.969202 Z" id="Fill-9"></path>
            <path d="M1918,373 C1918,342.623768 1893.37434,318 1863.00122,318 C1832.62566,318 1808,342.623768 1808,373 C1808,403.37379 1832.62566,428 1863.00122,428 C1893.37434,428 1918,403.37379 1918,373" id="Fill-10"></path>
        </g>
    </g>
</svg>