<?xml version="1.0" encoding="utf-8"?>
<!-- Generator: Adobe Illustrator 24.1.1, SVG Export Plug-In . SVG Version: 6.00 Build 0)  -->
<svg version="1.1" id="Layer_1" xmlns="http://www.w3.org/2000/svg" xmlns:xlink="http://www.w3.org/1999/xlink" x="0px" y="0px"
	 viewBox="0 0 841.89 595.28" style="enable-background:new 0 0 841.89 595.28;" xml:space="preserve">
<style type="text/css">
	.st0{fill:#F05025;}
	.st1{fill:#96989A;}
</style>
<path class="st0" d="M635.75,375.32c0,2.16,1.44,3.59,3.59,3.59h56.46c2.16,0,3.59-1.44,3.59-3.59V236.88c0-1.8,0.72-3.24,3.24-3.59
	c4.32-0.72,10.07-1.44,17.26-1.44c19.06,0,23.73,6.47,23.73,25.17v118.3c0,2.16,1.44,3.59,3.59,3.59h57.17c2.16,0,3.6-1.44,3.6-3.59
	v-121.9c0-52.5-17.62-70.48-67.96-70.48c-9.71,0-23.02,1.44-36.68,4.31c-2.88,0-3.96-0.72-3.96-2.88v-66.16
	c0-2.16-1.44-3.59-3.59-3.59h-56.46c-2.16,0-3.59,1.44-3.59,3.59V375.32z M467.83,377.83c12.23,2.87,32.01,4.67,56.09,4.67
	c45.31,0,78.75-7.55,78.75-58.61c0-23.73-6.11-35.96-39.56-55.02c-26.61-15.82-30.2-17.98-30.2-26.25c0-9.71,5.04-10.79,23.02-10.79
	c8.27,0,25.89,1.8,38.83,3.96c1.44,0.36,2.51-0.36,2.51-1.44l2.88-43.15c0-1.8-0.72-2.16-1.8-2.52
	c-12.58-2.87-39.19-5.75-57.89-5.75c-45.67,0-74.08,12.22-74.08,57.17c0,25.53,8.99,36.68,37.4,54.3
	c26.61,16.54,31.28,20.14,31.28,27.33c0,11.87-3.23,13.3-20.85,13.3c-12.22,0-33.08-1.8-43.51-4.31c-1.44-0.36-3.24,0.72-3.24,1.8
	l-1.8,42.43C465.67,376.75,466.75,377.47,467.83,377.83z M428.99,162.45c2.16,0,3.6-1.44,3.6-3.6v-42.79c0-2.16-1.44-3.59-3.6-3.59
	H371.1c-2.16,0-3.6,1.44-3.6,3.59v42.79c0,2.16,1.44,3.6,3.6,3.6H428.99z M428.63,378.91c2.16,0,3.59-1.44,3.59-3.59V190.13
	c0-2.16-1.44-3.6-3.59-3.6h-57.17c-2.16,0-3.59,1.44-3.59,3.6v185.18c0,2.16,1.44,3.59,3.59,3.59H428.63z M341.97,235.08
	c1.8,0.36,2.16-0.72,2.16-1.8l1.8-46.39c0-1.8-0.36-2.16-1.44-2.52c-11.51-1.08-20.14-1.44-32.72-1.44
	c-25.53,0-51.78,3.59-72.64,7.55c-2.16,0.36-3.6,1.8-3.6,3.95v180.87c0,2.16,1.44,3.59,3.6,3.59h56.46c2.16,0,3.95-1.44,3.95-3.59
	V239.03c0-2.52,0.36-3.24,1.8-3.59c5.04-1.44,12.59-1.8,17.26-1.8C326.15,233.64,334.42,234,341.97,235.08z M93.5,118.21
	c0-2.16-1.44-3.59-3.6-3.59H33.81c-2.16,0-3.59,1.44-3.59,3.59v257.1c0,2.16,1.44,3.59,3.59,3.59h56.09c2.16,0,3.6-1.44,3.6-3.59
	v-74.8c0-2.16,0.72-3.24,6.11-3.24c3.96,0,6.11,1.44,7.19,3.59c8.63,16.18,28.41,58.97,35.96,75.15c1.08,1.44,2.52,2.88,5.39,2.88
	h61.85c3.6,0,5.04-2.52,4.32-3.95c-3.95-7.55-44.23-79.83-53.22-93.85c-1.08-1.8-1.44-3.59-1.44-4.67c0-1.44,0.72-2.88,1.8-4.31
	c16.54-25.89,40.99-65.8,50.7-82.34c0.72-1.08-0.36-3.24-2.87-3.24h-61.85c-2.88,0-3.96,1.08-5.04,3.24
	c-7.91,16.18-24.45,45.67-35.6,64c-0.72,1.08-2.88,1.44-6.83,1.44c-4.68,0-6.47-0.72-6.47-2.87V118.21z"/>
<path class="st1" d="M793.77,408.86c4.35,0,9.84,0.57,13.28,1.6c0.57,0.23,0.91-0.23,0.91-0.57l0.46-3.32
	c0-0.69-0.12-0.91-0.57-1.03c-3.44-1.03-8.24-1.6-13.62-1.6c-10.76,0-20.38,3.32-20.38,17.75c0,3.09,0.57,6.75,2.63,10.3
	c2.17,3.66,7.78,8.7,14.2,13.16c6.98,4.92,11.1,8.82,12.82,11.56c1.6,2.52,1.83,4.69,1.83,7.9c0,10.3-6.75,13.74-16.02,13.74
	c-5.84,0-10.3-0.8-16.14-2.06c-0.57-0.11-0.92,0.23-0.92,0.57l-0.45,3.32c0,0.69,0.11,0.92,0.57,1.03
	c5.61,1.38,11.56,2.06,16.94,2.06c12.02,0,21.4-4.58,21.4-18.66c0-3.66-0.57-7.32-2.86-10.76c-2.52-3.78-6.3-7.56-12.71-12.02
	c-6.98-4.92-11.91-9.62-13.74-12.48c-1.37-2.17-1.83-5.84-1.83-8.02C779.57,412.64,783.92,408.86,793.77,408.86 M721.3,477.66
	c-0.8,0-1.15-0.34-1.15-1.14v-30.57c0-0.8,0.34-1.03,1.03-1.03h11.1c10.53,0,20.38,3.43,20.38,16.37c0,12.36-7.78,16.37-17.97,16.37
	H721.3z M721.19,440.45c-0.69,0-1.03-0.12-1.03-1.03v-29.08c0-0.46,0.34-0.91,1.03-0.91h12.59c10.19,0,17.4,3.32,17.4,14.31
	c0,12.59-9.27,16.71-19.35,16.71H721.19z M715.81,404.62c-0.69,0-1.14,0.46-1.14,1.14v75.55c0,0.69,0.46,1.14,1.14,1.14h19.92
	c11.1,0,22.55-5.84,22.55-20.95c0-11.67-7.21-16.03-12.02-18.2c-0.69-0.34-1.03-0.57-1.03-1.03c0-0.57,0.23-0.8,1.37-1.37
	c3.78-1.95,10.07-6.75,10.07-17.29c0-13.39-8.35-19-21.98-19H715.81z M660.97,455.11c-0.8,0-1.03-0.23-1.03-0.92
	c2.17-7.9,9.16-32.17,12.71-43.84c0.23-0.69,0.46-0.8,1.95-0.8c1.6,0,1.72,0.11,1.94,0.8c3.44,11.91,10.07,36.4,11.91,43.84
	c0,0.69-0.23,0.92-1.03,0.92H660.97z M690.05,460.48c1.6,5.27,4.24,15.11,5.61,20.83c0.23,1.03,0.69,1.14,1.26,1.14h3.89
	c0.69,0,1.03-0.46,0.8-1.14c-2.52-10.07-16.37-58.5-21.41-75.55c-0.23-0.69-0.57-1.14-1.37-1.14h-8.13c-0.69,0-1.14,0.46-1.37,1.14
	c-5.04,15.34-18.89,61.82-22.67,75.55c-0.23,0.69,0.11,1.14,0.8,1.14h3.43c0.69,0,1.14-0.23,1.49-1.14
	c1.49-5.72,4.24-15.57,5.84-20.83c0.23-0.69,0.57-0.8,1.14-0.8h29.76C689.71,459.68,689.93,459.91,690.05,460.48z M610.72,481.32
	c0,0.69,0.46,1.14,1.15,1.14h29.3c0.69,0,1.15-0.46,1.15-1.14v-2.52c0-0.69-0.46-1.14-1.15-1.14H616.9c-0.46,0-0.69-0.23-0.69-0.69
	v-71.2c0-0.69-0.46-1.14-1.14-1.14h-3.2c-0.69,0-1.15,0.46-1.15,1.14V481.32z M590.92,443.54c0-14.54-1.83-26.9-6.53-32.85
	c-4.58-5.72-9.62-7.21-20.14-7.21c-10.42,0-15.68,1.49-20.26,7.21c-4.69,5.95-6.87,18.32-6.87,32.85c0,14.54,2.18,27.59,6.87,33.54
	c4.58,5.72,9.5,6.53,20.03,6.53c10.42,0,15.68-0.92,20.26-6.64C588.97,471.02,590.92,458.08,590.92,443.54z M542.84,443.66
	c0-13.74,2.17-26.79,6.18-31.14c2.98-3.2,5.73-4.01,15.23-4.01c9.27,0,12.13,0.8,15.11,4.01c4.01,4.35,5.95,17.4,5.95,31.14
	c0,13.62-1.95,26.68-5.95,31.02c-2.98,3.2-5.84,4.01-15.34,4.01c-9.27,0-12.02-0.8-15-4.01
	C545.01,470.33,542.84,457.28,542.84,443.66z M516.17,482.46c0.69,0,1.14-0.46,1.14-1.14v-75.55c0-0.69-0.46-1.14-1.14-1.14h-3.09
	c-0.69,0-1.14,0.46-1.14,1.14v70.63c0,0.46-0.12,0.69-0.69,0.69c-0.57,0-0.69-0.11-1.26-1.37L480.68,406
	c-0.34-1.03-0.8-1.38-1.6-1.38h-8.59c-0.69,0-1.14,0.46-1.14,1.14v75.55c0,0.69,0.46,1.14,1.14,1.14h3.09
	c0.69,0,1.15-0.46,1.15-1.14v-71.09c0-0.46,0-0.8,0.8-0.8c0.69,0,0.8,0.23,1.14,0.91l29.88,70.4c0.46,1.14,0.69,1.71,1.72,1.71
	H516.17z M440.96,439.08c0,0.46-0.23,0.69-0.69,0.69H406.5c-0.46,0-0.69-0.23-0.69-0.69v-33.31c0-0.69-0.46-1.14-1.15-1.14h-3.2
	c-0.69,0-1.14,0.46-1.14,1.14v75.55c0,0.69,0.46,1.14,1.14,1.14h3.2c0.69,0,1.15-0.46,1.15-1.14v-36.4c0-0.46,0.23-0.69,0.69-0.69
	h33.77c0.46,0,0.69,0.23,0.69,0.69v36.4c0,0.69,0.46,1.14,1.14,1.14h3.2c0.69,0,1.15-0.46,1.15-1.14v-75.55
	c0-0.69-0.46-1.14-1.15-1.14h-3.2c-0.69,0-1.14,0.46-1.14,1.14V439.08z M384.41,481.66c0.34-0.11,0.57-0.57,0.46-1.26l-0.12-2.86
	c-0.11-0.69-0.91-0.57-1.49-0.46c-2.86,0.8-8.47,1.6-12.48,1.6c-18.54,0-22.78-12.93-22.78-34.57c0-22.55,4.69-35.72,22.78-35.72
	c4.69,0,9.84,0.92,12.59,1.95c0.57,0.23,0.91-0.23,0.91-0.57l0.35-3.32c0-0.69-0.12-0.8-0.57-1.03c-2.86-1.03-7.33-1.94-13.96-1.94
	c-20.15,0-27.82,15.68-27.82,40.64c0,25.41,7.09,39.49,27.24,39.49C375.14,483.61,380.75,482.81,384.41,481.66z M292.14,481.32
	c0,0.69,0.46,1.14,1.14,1.14h33.88c0.69,0,1.14-0.46,1.14-1.14v-2.52c0-0.69-0.46-1.14-1.14-1.14h-28.85
	c-0.46,0-0.69-0.23-0.69-0.69v-32.05c0-0.46,0.23-0.69,0.69-0.69h25.3c0.69,0,1.14-0.46,1.14-1.14v-2.29c0-0.69-0.46-1.14-1.14-1.14
	h-25.3c-0.46,0-0.69-0.23-0.69-0.69v-28.85c0-0.46,0.23-0.69,0.69-0.69h26.78c0.69,0,1.14-0.46,1.14-1.14v-2.52
	c0-0.69-0.45-1.14-1.14-1.14h-31.82c-0.69,0-1.14,0.46-1.14,1.14V481.32z M254.94,481.32c0,0.69,0.46,1.14,1.15,1.14h3.2
	c0.69,0,1.14-0.46,1.14-1.14v-71.2c0-0.46,0.23-0.69,0.69-0.69h16.25c0.69,0,1.15-0.46,1.15-1.14v-2.52c0-0.69-0.46-1.14-1.15-1.14
	H238c-0.69,0-1.15,0.46-1.15,1.14v2.52c0,0.69,0.46,1.14,1.15,1.14h16.25c0.46,0,0.69,0.23,0.69,0.69V481.32z"/>
</svg>
