<?xml version="1.0" encoding="UTF-8"?>
<svg width="40px" height="42px" viewBox="0 0 40 42" version="1.1" xmlns="http://www.w3.org/2000/svg" xmlns:xlink="http://www.w3.org/1999/xlink">
    <title>legal</title>
    <defs>
        <linearGradient x1="50%" y1="0%" x2="50%" y2="100%" id="linearGradient-1">
            <stop stop-color="#B03478" offset="0%"></stop>
            <stop stop-color="#9E79BB" offset="99.9918051%"></stop>
        </linearGradient>
        <linearGradient x1="50%" y1="0%" x2="50%" y2="100%" id="linearGradient-2">
            <stop stop-color="#B03478" offset="0%"></stop>
            <stop stop-color="#9E79BB" offset="99.9918051%"></stop>
        </linearGradient>
        <linearGradient x1="50%" y1="0%" x2="50%" y2="100%" id="linearGradient-3">
            <stop stop-color="#002F57" offset="0%"></stop>
            <stop stop-color="#0075D7" offset="99.9918051%"></stop>
        </linearGradient>
        <linearGradient x1="50%" y1="0%" x2="50%" y2="100%" id="linearGradient-4">
            <stop stop-color="#005E91" offset="0%"></stop>
            <stop stop-color="#003058" offset="100%"></stop>
        </linearGradient>
    </defs>
    <g id="Symbols" stroke="none" stroke-width="1" fill="none" fill-rule="evenodd">
        <g id="icons-/-legal" transform="translate(-4.000000, -4.000000)" fill-rule="nonzero">
            <g id="legal" transform="translate(4.000000, 4.000000)">
                <path d="M13.083945,4.60372237 L5.87317719,4.60372237 C5.52641955,4.60372237 5.24544793,4.86644799 5.24544793,5.19051277 C5.24544793,5.51457754 5.52641955,5.77730316 5.87317719,5.77730316 L13.083945,5.77730316 C13.4307027,5.77730316 13.7116743,5.51457754 13.7116743,5.19051277 C13.7116743,4.86644799 13.430619,4.60372237 13.083945,4.60372237 Z" id="Path" fill="url(#linearGradient-1)"></path>
                <path d="M13.083945,7.31140796 L5.87317719,7.31140796 C5.52641955,7.31140796 5.24544793,7.57413358 5.24544793,7.89819836 C5.24544793,8.22226313 5.52641955,8.48498875 5.87317719,8.48498875 L13.083945,8.48498875 C13.4307027,8.48498875 13.7116743,8.22226313 13.7116743,7.89819836 C13.7116743,7.57413358 13.430619,7.31140796 13.083945,7.31140796 Z" id="Path" fill="url(#linearGradient-1)"></path>
                <path d="M38.3809319,36.2983057 L25.0777587,24.7750724 C25.68448,24.1465808 26.2571364,23.5117519 26.7901204,22.8741063 C27.8185083,23.5475852 29.2475549,23.4588625 30.1689778,22.6034786 C31.2056517,21.6410641 31.2114268,20.0777762 30.1816998,19.108555 L24.6419472,13.894492 C23.614731,12.9276962 21.9374385,12.9223759 20.903108,13.8825997 C20.0919981,14.6356474 19.913723,15.7623632 20.3699567,16.6798687 C17.832675,18.4944593 15.2453424,20.8750288 13.2090724,23.3278126 C12.249651,22.9015681 11.038552,23.0409895 10.2122092,23.8081984 C9.17561897,24.7706128 9.16959276,26.3339007 10.1994872,27.3031219 L15.7392398,32.5171067 C16.7677951,33.4852326 18.4411539,33.4916481 19.4779952,32.5289989 C20.3989159,31.673928 20.5037048,30.3376107 19.7906044,29.3723796 C20.4779261,28.8773632 21.1626532,28.3451052 21.8406845,27.7807693 L34.0763832,40.294583 C34.9078315,41.1448032 36.3286757,41.1776634 37.2037303,40.3651543 L38.4350003,39.2220084 C39.3087158,38.4109858 39.2874567,37.0835095 38.3809319,36.2983057 L38.3809319,36.2983057 Z M21.7878715,14.7152944 C22.332322,14.2098723 23.2129843,14.2150361 23.7512412,14.7215535 L29.2909938,19.9356165 C29.8315942,20.4444811 29.8288322,21.2653617 29.284298,21.7707839 C28.741103,22.2751107 27.860357,22.2722158 27.3209283,21.7645248 L21.7811757,16.5505401 C21.2417471,16.042849 21.2447602,15.219543 21.7878715,14.7152944 L21.7878715,14.7152944 Z M21.1366233,17.6092664 L25.8713759,22.0655874 C23.9390578,24.3939716 21.4408628,26.7144538 18.9320382,28.5081547 L14.1972856,24.051912 C16.0800549,21.7829891 18.5678715,19.4459203 21.1366233,17.6092664 Z M18.5933155,31.6964607 C18.0494508,32.2014134 17.1707973,32.1991445 16.6300294,31.6902016 L11.0902769,26.4762169 C10.5495928,25.9673523 10.5525222,25.1463934 11.0969727,24.6409713 C11.6408373,24.1360186 12.5194909,24.1382875 13.0602587,24.6472304 L18.6000949,29.8612151 C19.1395236,30.3688279 19.1365105,31.1921339 18.5933155,31.6964607 L18.5933155,31.6964607 Z M37.5503206,38.389392 L36.3190506,39.5325379 C35.9405717,39.8839862 35.3438941,39.8513607 35.0030789,39.5028072 L22.7648693,26.9864116 C23.011274,26.7683603 23.2569254,26.5476489 23.5007354,26.3213043 C23.746052,26.0935513 23.9853424,25.8639989 24.2217871,25.6336641 L37.5275549,37.1590881 C37.9067871,37.4876125 37.9200113,38.0461587 37.5503206,38.389392 L37.5503206,38.389392 Z" id="Shape" fill="url(#linearGradient-2)"></path>
                <path d="M30.9014123,39.7530928 C30.7845709,39.7710877 30.6645491,39.7803199 30.5446947,39.7803199 L4.26376307,39.7803199 C3.06856656,39.7803199 2.09625579,38.8713425 2.09625579,37.7540936 L2.09625579,4.09556189 C2.09625579,2.97839122 3.06856656,2.06941379 4.26376307,2.06941379 L24.7203715,2.06941379 C24.8049057,2.06941379 24.8881008,2.0773159 24.9697893,2.09014705 L24.9697893,6.1071576 C24.9697893,7.87151895 26.5053824,9.30688649 28.3927551,9.30688649 L32.6900222,9.30688649 C32.7037485,9.38332572 32.7122019,9.46101677 32.7122019,9.54003788 L32.7122019,30.0166754 C32.7122019,30.3407402 32.9931736,30.6034658 33.3399312,30.6034658 C33.6866888,30.6034658 33.9676604,30.3407402 33.9676604,30.0166754 L33.9676604,9.54003788 C33.9676604,8.85451022 33.6820855,8.21005789 33.1636648,7.72536903 L26.6616452,1.64755061 C26.1432245,1.16278351 25.4538104,0.895833 24.7203715,0.895833 L4.26376307,0.895833 C2.37639044,0.895833 0.840797277,2.33127878 0.840797277,4.09556189 L0.840797277,37.7540153 C0.840797277,39.5183767 2.37639044,40.9538224 4.26376307,40.9538224 L30.5446947,40.9538224 C30.732846,40.9538224 30.9217507,40.9393483 31.1061357,40.9108694 C31.4481226,40.8580583 31.6796292,40.5559786 31.6230498,40.2362169 C31.5665542,39.9165335 31.2432318,39.6996558 30.9014123,39.7530928 Z M31.8245091,8.13330571 L28.3927551,8.13330571 C27.1975586,8.13330571 26.2252478,7.22432827 26.2252478,6.1071576 L26.2252478,2.89929188 L31.8245091,8.13330571 Z" id="Shape" stroke="url(#linearGradient-4)" stroke-width="0.5" fill="url(#linearGradient-3)"></path>
            </g>
        </g>
    </g>
</svg>