<?xml version="1.0" encoding="UTF-8"?>
<svg width="46px" height="44px" viewBox="0 0 46 44" version="1.1" xmlns="http://www.w3.org/2000/svg" xmlns:xlink="http://www.w3.org/1999/xlink">
    <title>3FB04151-5FB6-4D6C-BBB8-E9781F62A8CE</title>
    <defs>
        <linearGradient x1="50%" y1="0%" x2="50%" y2="100%" id="linearGradient-1">
            <stop stop-color="#B03478" offset="0%"></stop>
            <stop stop-color="#9E79BB" offset="99.9918051%"></stop>
        </linearGradient>
        <linearGradient x1="50%" y1="0%" x2="50%" y2="100%" id="linearGradient-2">
            <stop stop-color="#B03478" offset="0%"></stop>
            <stop stop-color="#9E79BB" offset="99.9918051%"></stop>
        </linearGradient>
        <linearGradient x1="50%" y1="0%" x2="50%" y2="100%" id="linearGradient-3">
            <stop stop-color="#002F57" offset="0%"></stop>
            <stop stop-color="#0075D7" offset="99.9918051%"></stop>
        </linearGradient>
    </defs>
    <g id="High-fidelity" stroke="none" stroke-width="1" fill="none" fill-rule="evenodd">
        <g id="Digital-River---Terms---Landing" transform="translate(-380.000000, -486.000000)" fill-rule="nonzero">
            <g id="Benefits" transform="translate(-2.000000, 414.000000)">
                <g id="cards" transform="translate(340.000000, 40.000000)">
                    <g id="elements-/-card-/-icon+h3+p" transform="translate(0.000000, 2.000000)">
                        <g id="icons-/-folder" transform="translate(42.000000, 31.000000)">
                            <g id="legal-document" transform="translate(4.791667, 0.895833)">
                                <path d="M12.292278,3.70788937 L5.08151019,3.70788937 C4.73475255,3.70788937 4.45378093,3.97061499 4.45378093,4.29467977 C4.45378093,4.61874454 4.73475255,4.88147016 5.08151019,4.88147016 L12.292278,4.88147016 C12.6390357,4.88147016 12.9200073,4.61874454 12.9200073,4.29467977 C12.9200073,3.97061499 12.638952,3.70788937 12.292278,3.70788937 Z" id="Path" fill="url(#linearGradient-1)"></path>
                                <path d="M12.292278,6.41557496 L5.08151019,6.41557496 C4.73475255,6.41557496 4.45378093,6.67830058 4.45378093,7.00236536 C4.45378093,7.32643013 4.73475255,7.58915575 5.08151019,7.58915575 L12.292278,7.58915575 C12.6390357,7.58915575 12.9200073,7.32643013 12.9200073,7.00236536 C12.9200073,6.67830058 12.638952,6.41557496 12.292278,6.41557496 Z" id="Path" fill="url(#linearGradient-1)"></path>
                                <path d="M37.5892649,35.4024727 L24.2860917,23.8792394 C24.892813,23.2507478 25.4654694,22.6159189 25.9984534,21.9782733 C27.0268413,22.6517522 28.4558879,22.5630295 29.3773108,21.7076456 C30.4139847,20.7452311 30.4197598,19.1819432 29.3900328,18.212722 L23.8502802,12.998659 C22.823064,12.0318632 21.1457715,12.0265429 20.111441,12.9867667 C19.3003311,13.7398144 19.122056,14.8665302 19.5782897,15.7840357 C17.041008,17.5986263 14.4536754,19.9791958 12.4174054,22.4319796 C11.457984,22.0057351 10.246885,22.1451565 9.42054221,22.9123654 C8.38395197,23.8747798 8.37792576,25.4380677 9.40782023,26.4072889 L14.9475728,31.6212737 C15.9761281,32.5893996 17.6494869,32.5958151 18.6863282,31.6331659 C19.6072489,30.778095 19.7120378,29.4417777 18.9989374,28.4765466 C19.6862591,27.9815302 20.3709862,27.4492722 21.0490175,26.8849363 L33.2847162,39.39875 C34.1161645,40.2489702 35.5370087,40.2818304 36.4120633,39.4693213 L37.6433333,38.3261754 C38.5170488,37.5151528 38.4957897,36.1876765 37.5892649,35.4024727 L37.5892649,35.4024727 Z M20.9962045,13.8194614 C21.540655,13.3140393 22.4213173,13.3192031 22.9595742,13.8257205 L28.4993268,19.0397835 C29.0399272,19.5486481 29.0371652,20.3695287 28.492631,20.8749509 C27.949436,21.3792777 27.06869,21.3763828 26.5292613,20.8686918 L20.9895087,15.6547071 C20.4500801,15.147016 20.4530932,14.32371 20.9962045,13.8194614 L20.9962045,13.8194614 Z M20.3449563,16.7134334 L25.0797089,21.1697544 C23.1473908,23.4981386 20.6491958,25.8186208 18.1403712,27.6123217 L13.4056186,23.156079 C15.2883879,20.8871561 17.7762045,18.5500873 20.3449563,16.7134334 Z M17.8016485,30.8006277 C17.2577838,31.3055804 16.3791303,31.3033115 15.8383624,30.7943686 L10.2986099,25.5803839 C9.75792576,25.0715193 9.76085517,24.2505604 10.3053057,23.7451383 C10.8491703,23.2401856 11.7278239,23.2424545 12.2685917,23.7513974 L17.8084279,28.9653821 C18.3478566,29.4729949 18.3448435,30.2963009 17.8016485,30.8006277 L17.8016485,30.8006277 Z M36.7586536,37.493559 L35.5273836,38.6367049 C35.1489047,38.9881532 34.5522271,38.9555277 34.2114119,38.6069742 L21.9732023,26.0905786 C22.219607,25.8725273 22.4652584,25.6518159 22.7090684,25.4254713 C22.954385,25.1977183 23.1936754,24.9681659 23.4301201,24.7378311 L36.7358879,36.2632551 C37.1151201,36.5917795 37.1283443,37.1503257 36.7586536,37.493559 L36.7586536,37.493559 Z" id="Shape" fill="url(#linearGradient-2)"></path>
                                <path d="M30.1097453,38.8572598 C29.9929039,38.8752547 29.8728821,38.8844869 29.7530277,38.8844869 L3.47209607,38.8844869 C2.27689956,38.8844869 1.30458879,37.9755095 1.30458879,36.8582606 L1.30458879,3.19972889 C1.30458879,2.08255822 2.27689956,1.17358079 3.47209607,1.17358079 L23.9287045,1.17358079 C24.0132387,1.17358079 24.0964338,1.1814829 24.1781223,1.19431405 L24.1781223,5.2113246 C24.1781223,6.97568595 25.7137154,8.41105349 27.6010881,8.41105349 L31.8983552,8.41105349 C31.9120815,8.48749272 31.9205349,8.56518377 31.9205349,8.64420488 L31.9205349,29.1208424 C31.9205349,29.4449072 32.2015066,29.7076328 32.5482642,29.7076328 C32.8950218,29.7076328 33.1759934,29.4449072 33.1759934,29.1208424 L33.1759934,8.64420488 C33.1759934,7.95867722 32.8904185,7.31422489 32.3719978,6.82953603 L25.8699782,0.751717613 C25.3515575,0.266950509 24.6621434,0 23.9287045,0 L3.47209607,0 C1.58472344,0 0.0491302766,1.43544578 0.0491302766,3.19972889 L0.0491302766,36.8581823 C0.0491302766,38.6225437 1.58472344,40.0579894 3.47209607,40.0579894 L29.7530277,40.0579894 C29.941179,40.0579894 30.1300837,40.0435153 30.3144687,40.0150364 C30.6564556,39.9622253 30.8879622,39.6601456 30.8313828,39.3403839 C30.7748872,39.0207005 30.4515648,38.8038228 30.1097453,38.8572598 Z M31.0328421,7.23747271 L27.6010881,7.23747271 C26.4058916,7.23747271 25.4335808,6.32849527 25.4335808,5.2113246 L25.4335808,2.00345888 L31.0328421,7.23747271 Z" id="Shape" stroke="url(#linearGradient-3)" stroke-width="0.5" fill="url(#linearGradient-3)"></path>
                            </g>
                        </g>
                    </g>
                </g>
            </g>
        </g>
    </g>
</svg>