<?xml version="1.0" encoding="UTF-8"?> <!-- Generator: Adobe Illustrator 23.1.1, SVG Export Plug-In . SVG Version: 6.00 Build 0) --> <svg xmlns="http://www.w3.org/2000/svg" xmlns:xlink="http://www.w3.org/1999/xlink" id="Layer_1" x="0px" y="0px" viewBox="0 0 582.3 228.9" style="enable-background:new 0 0 582.3 228.9;" xml:space="preserve"> <style type="text/css"> .st0{fill:#FFFFFF;} </style> <title>MF Logo</title> <title>magento-logo</title> <g> <path class="st0" d="M31.4,136.2c-0.4,1.1,0.2,1.4,0.3,1.6c1.3,1,2.6,1.6,4,2.4c7.1,3.8,13.9,4.9,20.9,4.9 c14.3,0,23.2-7.6,23.2-19.9v-0.2c0-11.3-10-15.5-19.5-18.4l-1.2-0.4c-7.1-2.3-13.2-4.3-13.2-9v-0.2c0-4,3.6-6.9,9.1-6.9 c6.2,0,13.5,2.1,18.2,4.7c0,0,1.4,0.9,1.9-0.4c0.3-0.7,2.7-7.1,2.9-7.8c0.3-0.8-0.2-1.3-0.7-1.6c-5.4-3.3-12.8-5.5-20.5-5.5l-1.4,0 c-13.1,0-22.3,7.9-22.3,19.3v0.2c0,12,10.1,15.9,19.6,18.6l1.5,0.5c6.9,2.1,12.8,3.9,12.8,8.8v0.2c0,4.4-3.9,7.7-10.1,7.7 c-2.4,0-10.1,0-18.5-5.3c-1-0.6-1.6-1-2.4-1.5c-0.4-0.3-1.4-0.7-1.9,0.6L31.4,136.2L31.4,136.2z"></path> <path class="st0" d="M241.3,136.2c-0.4,1.1,0.2,1.4,0.3,1.6c1.3,1,2.6,1.6,4,2.4c7.1,3.8,13.9,4.9,20.9,4.9 c14.3,0,23.2-7.6,23.2-19.9v-0.2c0-11.3-10-15.5-19.5-18.4l-1.2-0.4c-7.1-2.3-13.2-4.3-13.2-9v-0.2c0-4,3.6-6.9,9.1-6.9 c6.2,0,13.5,2.1,18.2,4.7c0,0,1.4,0.9,1.9-0.4c0.3-0.7,2.7-7.1,2.9-7.8c0.3-0.8-0.2-1.3-0.7-1.6c-5.4-3.3-12.8-5.5-20.5-5.5l-1.4,0 c-13.1,0-22.3,7.9-22.3,19.3v0.2c0,12,10.1,15.9,19.6,18.6l1.5,0.5c6.9,2.1,12.8,3.9,12.8,8.8v0.2c0,4.4-3.9,7.7-10.1,7.7 c-2.4,0-10.1,0-18.5-5.3c-1-0.6-1.6-1-2.4-1.5c-0.3-0.2-1.5-0.6-1.9,0.6L241.3,136.2L241.3,136.2z"></path> <path class="st0" d="M384.5,112.1c0,6.9-1.3,12.4-3.8,16.3c-2.5,3.8-6.3,5.7-11.6,5.7c-5.3,0-9.1-1.9-11.6-5.7 c-2.5-3.9-3.8-9.3-3.8-16.3c0-6.9,1.3-12.4,3.8-16.2c2.5-3.8,6.3-5.6,11.6-5.6c5.3,0,9.1,1.8,11.7,5.6 C383.2,99.7,384.5,105.2,384.5,112.1 M396.5,99.3c-1.2-4-3-7.5-5.4-10.4c-2.4-2.9-5.5-5.3-9.2-7c-3.7-1.7-8-2.6-12.8-2.6 c-4.9,0-9.2,0.9-12.8,2.6c-3.7,1.7-6.7,4.1-9.2,7c-2.4,2.9-4.3,6.4-5.4,10.4c-1.2,4-1.8,8.3-1.8,12.9c0,4.6,0.6,8.9,1.8,12.9 c1.2,4,3,7.5,5.5,10.4c2.4,2.9,5.5,5.3,9.2,6.9c3.7,1.7,8,2.5,12.8,2.5c4.8,0,9.2-0.8,12.8-2.5c3.7-1.7,6.7-4,9.2-6.9 c2.4-2.9,4.3-6.4,5.4-10.4c1.2-4,1.8-8.3,1.8-12.9C398.2,107.5,397.6,103.2,396.5,99.3"></path> <path class="st0" d="M494.7,132.2c-0.4-1.2-1.5-0.7-1.5-0.7c-1.7,0.7-3.6,1.3-5.6,1.6c-2,0.3-4.2,0.5-6.6,0.5 c-5.8,0-10.4-1.7-13.7-5.1c-3.3-3.4-5.2-8.9-5.1-16.4c0-6.8,1.7-11.9,4.6-15.8c2.9-3.9,7.4-5.8,13.3-5.8c4.9,0,8.7,0.6,12.6,1.8 c0,0,0.9,0.4,1.4-0.8c1-2.9,1.8-5,2.9-8.2c0.3-0.9-0.5-1.3-0.7-1.4c-1.6-0.6-5.2-1.6-8-2c-2.6-0.4-5.6-0.6-9-0.6 c-5,0-9.5,0.9-13.3,2.6c-3.8,1.7-7.1,4.1-9.6,7c-2.6,2.9-4.5,6.4-5.8,10.4c-1.3,4-2,8.3-2,12.9c0,9.9,2.7,17.9,8,23.8 c5.3,5.9,13.2,8.9,23.6,8.9c6.1,0,12.4-1.2,16.9-3c0,0,0.9-0.4,0.5-1.4L494.7,132.2L494.7,132.2z"></path> <path class="st0" d="M515.6,105.5c0.6-3.9,1.6-7.1,3.3-9.6c2.5-3.8,6.3-5.9,11.6-5.9s8.8,2.1,11.3,5.9c1.7,2.5,2.4,5.8,2.7,9.6 H515.6L515.6,105.5z M555.9,97c-1-3.8-3.5-7.7-5.2-9.5c-2.6-2.8-5.2-4.8-7.7-5.9c-3.3-1.4-7.3-2.3-11.6-2.3 c-5.1,0-9.6,0.8-13.4,2.6c-3.7,1.8-6.9,4.1-9.3,7.1c-2.5,3-4.3,6.5-5.5,10.5c-1.2,4-1.8,8.3-1.8,12.9c0,4.7,0.6,9,1.8,12.9 c1.2,3.9,3.2,7.4,5.9,10.3c2.7,2.9,6.1,5.2,10.2,6.7c4.1,1.6,9,2.4,14.7,2.4c11.7,0,17.9-2.6,20.4-4.1c0.4-0.2,0.9-0.7,0.3-1.9 l-2.6-7.4c-0.4-1.1-1.5-0.7-1.5-0.7c-2.9,1.1-7,3-16.6,3c-6.3,0-10.9-1.9-13.9-4.8c-3-3-4.5-7.3-4.7-13.5l40.5,0c0,0,1.1,0,1.2-1.1 C557.2,114,558.5,106.1,555.9,97L555.9,97z"></path> <path class="st0" d="M191.3,105.5c0.6-3.9,1.6-7.1,3.3-9.6c2.5-3.8,6.3-5.9,11.6-5.9c5.3,0,8.8,2.1,11.4,5.9 c1.7,2.5,2.4,5.8,2.7,9.6H191.3L191.3,105.5z M231.6,97c-1-3.8-3.5-7.7-5.2-9.5c-2.6-2.8-5.2-4.8-7.7-5.9 c-3.3-1.4-7.3-2.3-11.6-2.3c-5,0-9.6,0.8-13.4,2.6c-3.7,1.8-6.9,4.1-9.3,7.1c-2.5,3-4.3,6.5-5.5,10.5c-1.2,4-1.8,8.3-1.8,12.9 c0,4.7,0.6,9,1.8,12.9c1.2,3.9,3.2,7.4,5.9,10.3c2.7,2.9,6.1,5.2,10.2,6.7c4.1,1.6,9,2.4,14.7,2.4c11.7,0,17.9-2.6,20.4-4.1 c0.4-0.2,0.9-0.7,0.3-1.9l-2.6-7.4c-0.4-1.1-1.5-0.7-1.5-0.7c-2.9,1.1-7,3-16.6,3c-6.3,0-10.9-1.9-13.8-4.8c-3-3-4.5-7.3-4.7-13.5 l40.5,0c0,0,1.1,0,1.2-1.1C232.8,114,234.2,106.1,231.6,97L231.6,97z"></path> <path class="st0" d="M103.8,132c-1.6-1.3-1.8-1.6-2.3-2.4c-0.8-1.2-1.2-3-1.2-5.3c0-3.6,1.2-6.1,3.6-7.8c0,0,3.5-3,11.7-2.9 c5.8,0.1,11,0.9,11,0.9v18.4h0c0,0-5.1,1.1-10.9,1.5C107.4,134.9,103.7,132,103.8,132 M119.9,103.5c-1.6-0.1-3.8-0.2-6.3-0.2 c-3.5,0-6.8,0.4-10,1.3c-3.2,0.8-6,2.2-8.5,3.9c-2.5,1.8-4.4,4-5.9,6.7c-1.4,2.7-2.2,5.8-2.2,9.3c0,3.6,0.6,6.7,1.9,9.2 c1.2,2.6,3,4.7,5.3,6.3c2.2,1.6,5,2.8,8.3,3.6c3.2,0.7,6.8,1.1,10.7,1.1c4.2,0,8.3-0.3,12.3-1c4-0.7,8.8-1.7,10.2-2 c1.3-0.3,2.8-0.7,2.8-0.7c1-0.2,0.9-1.3,0.9-1.3l0-37c0-8.1-2.2-14.1-6.4-17.9c-4.2-3.7-10.5-5.6-18.6-5.6c-3,0-7.9,0.4-10.8,1 c0,0-8.8,1.7-12.5,4.6c0,0-0.8,0.5-0.4,1.6l2.9,7.7c0.4,1,1.3,0.7,1.3,0.7s0.3-0.1,0.7-0.3c7.8-4.2,17.6-4.1,17.6-4.1 c4.4,0,7.7,0.9,10,2.6c2.2,1.7,3.3,4.2,3.3,9.6v1.7C123.1,103.8,119.9,103.5,119.9,103.5"></path> <path class="st0" d="M446.5,82.7c0.3-0.9-0.3-1.4-0.6-1.5c-0.7-0.3-4.1-1-6.8-1.2c-5.1-0.3-7.9,0.5-10.4,1.7c-2.5,1.1-5.3,3-6.8,5 v-4.9c0-0.7-0.5-1.2-1.2-1.2h-10.4c-0.7,0-1.2,0.5-1.2,1.2v60.4c0,0.7,0.6,1.2,1.2,1.2H421c0.7,0,1.2-0.6,1.2-1.2v-30.2 c0-4.1,0.4-8.1,1.3-10.6c0.9-2.5,2.1-4.5,3.5-6c1.5-1.4,3.2-2.4,5-3c1.9-0.6,4-0.8,5.4-0.8c2.1,0,4.4,0.5,4.4,0.5 c0.8,0.1,1.2-0.4,1.5-1.1C444.2,89.3,446.1,83.8,446.5,82.7"></path> <path class="st0" d="M346.7,54.7c-1.3-0.4-2.5-0.7-4-1c-1.6-0.3-3.4-0.4-5.5-0.4c-7.3,0-13.1,2.1-17.1,6.2 c-4,4.1-6.8,10.2-8.1,18.4l-0.5,2.7h-9.2c0,0-1.1,0-1.4,1.2l-1.5,8.4c-0.1,0.8,0.2,1.3,1.3,1.3h8.9l-9.1,50.7 c-0.7,4.1-1.5,7.4-2.4,10c-0.9,2.5-1.8,4.4-2.8,5.8c-1,1.3-2,2.3-3.7,2.9c-1.4,0.5-3,0.7-4.8,0.7c-1,0-2.3-0.2-3.2-0.4 c-1-0.2-1.5-0.4-2.2-0.7c0,0-1-0.4-1.5,0.6c-0.3,0.9-2.7,7.4-3,8.2c-0.3,0.8,0.1,1.4,0.6,1.6c1.2,0.4,2.1,0.7,3.7,1.1 c2.2,0.5,4.2,0.6,5.9,0.6c3.7,0,7.1-0.5,9.9-1.5c2.8-1,5.3-2.8,7.5-5.2c2.4-2.6,3.8-5.3,5.3-9.1c1.4-3.7,2.6-8.3,3.6-13.6l9.1-51.6 h13.3c0,0,1.1,0,1.4-1.2l1.5-8.4c0.1-0.8-0.2-1.3-1.3-1.3h-12.9c0.1-0.3,0.7-4.8,2.1-9.1c0.6-1.8,1.8-3.3,2.8-4.3 c1-1,2.1-1.7,3.4-2.1c1.3-0.4,2.7-0.6,4.3-0.6c1.2,0,2.4,0.1,3.3,0.3c1.3,0.3,1.7,0.4,2.1,0.5c1.3,0.4,1.5,0,1.8-0.6l3.1-8.5 C347.7,55.2,346.9,54.8,346.7,54.7"></path> <path class="st0" d="M165.7,142.3c0,0.7-0.5,1.2-1.2,1.2h-10.7c-0.7,0-1.2-0.5-1.2-1.2V55.8c0-0.7,0.5-1.2,1.2-1.2h10.7 c0.7,0,1.2,0.5,1.2,1.2V142.3L165.7,142.3z"></path> </g> </svg> 