<?xml version="1.0" encoding="UTF-8"?> <!-- Generator: Adobe Illustrator 23.1.1, SVG Export Plug-In . SVG Version: 6.00 Build 0) --> <svg xmlns="http://www.w3.org/2000/svg" xmlns:xlink="http://www.w3.org/1999/xlink" id="Layer_1" x="0px" y="0px" viewBox="0 0 582.3 228.9" style="enable-background:new 0 0 582.3 228.9;" xml:space="preserve"> <style type="text/css"> .st0{fill:#FFFFFF;} </style> <g> </g> <g> <g> <path class="st0" d="M334.7,97.9h-21.3v2.3c6.6,0,7.7,1.4,7.7,9.9v15.2c0,8.4-1.1,10-7.7,10c-5.1-0.7-8.5-3.4-13.3-8.7l-5.5-5.9 c7.4-1.3,11.3-5.9,11.3-11.2c0-6.5-5.6-11.5-16-11.5H269v2.3c6.6,0,7.7,1.4,7.7,9.9v15.2c0,8.4-1.1,10-7.7,10v2.3h23.6v-2.3 c-6.6,0-7.7-1.5-7.7-10v-4.3h2l13.2,16.5h34.6c17,0,24.3-9,24.3-19.8C359,106.8,351.7,97.9,334.7,97.9z M284.9,117.2v-15.8h4.9 c5.3,0,7.7,3.7,7.7,8c0,4.2-2.4,7.8-7.7,7.8L284.9,117.2L284.9,117.2z M335,133.7h-0.8c-4.3,0-4.9-1.1-4.9-6.5v-25.8 c0,0,5.2,0,5.7,0c12.4,0,14.6,9,14.6,16C349.7,124.7,347.4,133.7,335,133.7z"></path> <path class="st0" d="M202.9,121.6l8.2-24.2c2.4-7,1.3-9-6.3-9V86h22.3v2.4c-7.5,0-9.3,1.8-12.2,10.5l-13.5,40.6h-1.5l-12.1-37.2 l-12.3,37.2h-1.5l-13.2-40.6c-2.9-8.7-4.8-10.4-11.6-10.4V86h26.4v2.4c-7,0-8.9,1.7-6.4,9l8,24.2l12-35.6h2.3L202.9,121.6z"></path> <path class="st0" d="M243.3,138.9c-13.1,0-23.8-9.6-23.8-21.4c0-11.6,10.7-21.3,23.8-21.3c13.1,0,23.8,9.6,23.8,21.3 C267,129.3,256.3,138.9,243.3,138.9z M243.3,100c-10.9,0-14.7,9.9-14.7,17.6c0,7.8,3.8,17.6,14.7,17.6c11,0,14.8-9.7,14.8-17.6 C258.1,109.8,254.3,100,243.3,100z"></path> <path class="st0" d="M388.4,135v2.4h-27.2V135c8,0,9.4-2,9.4-13.9v-19c0-11.9-1.4-13.8-9.4-13.8V86h24.6c12.2,0,19,6.3,19,14.7 c0,8.2-6.8,14.6-19,14.6H379v5.8C379,133,380.4,135,388.4,135z M385.8,90.3H379v20.7h6.8c6.7,0,9.7-4.6,9.7-10.2 C395.5,95,392.4,90.3,385.8,90.3z"></path> <path class="st0" d="M486.3,126.2l-0.6,2.1c-1.1,3.9-2.4,5.3-10.8,5.3h-1.7c-6.2,0-7.2-1.4-7.2-9.9v-5.5c9.3,0,10,0.8,10,7h2.3 v-17.7H476c0,6.2-0.7,7-10,7v-13.3h6.5c8.4,0,9.7,1.4,10.8,5.3l0.6,2.3h1.9L485,97.9h-34.9v2.3c6.6,0,7.7,1.4,7.7,9.9v15.2 c0,7.7-0.9,9.7-6.2,9.9c-5-0.8-8.4-3.5-13.1-8.6l-5.5-5.9c7.4-1.3,11.3-5.9,11.3-11.2c0-6.5-5.6-11.5-16-11.5h-20.9v2.3 c6.6,0,7.7,1.4,7.7,9.9v15.2c0,8.4-1.1,10-7.7,10v2.3h23.6v-2.3c-6.6,0-7.7-1.5-7.7-10v-4.3h2l13.2,16.5h48.8l0.7-11.2 L486.3,126.2L486.3,126.2z M423.4,117.2v-15.8h4.9c5.3,0,7.7,3.7,7.7,8c0,4.2-2.4,7.8-7.7,7.8L423.4,117.2L423.4,117.2z"></path> <path class="st0" d="M510.4,138.9c-4.8,0-8.9-2.5-10.7-4c-0.6,0.6-1.7,2.4-1.9,4h-2.3v-16.4h2.4c1,7.8,6.4,12.5,13.4,12.5 c3.8,0,6.9-2.1,6.9-5.7c0-3.1-2.7-5.5-7.6-7.7l-6.8-3.2c-4.8-2.3-8.3-6.2-8.3-11.4c0-5.7,5.3-10.6,12.7-10.6 c3.9,0,7.2,1.4,9.3,3.1c0.6-0.5,1.2-1.8,1.5-3.2h2.3v14h-2.5c-0.8-5.6-3.9-10.2-10.2-10.2c-3.3,0-6.4,1.9-6.4,4.9 c0,3.1,2.5,4.7,8.2,7.4l6.5,3.2c5.7,2.7,8,7.1,8,10.7C524.9,133.7,518.4,138.9,510.4,138.9z"></path> <path class="st0" d="M547,138.9c-4.8,0-8.9-2.5-10.7-4c-0.6,0.6-1.7,2.4-1.9,4h-2.3v-16.4h2.4c1,7.8,6.4,12.5,13.4,12.5 c3.8,0,6.9-2.1,6.9-5.7c0-3.1-2.7-5.5-7.6-7.7l-6.8-3.2c-4.8-2.3-8.3-6.2-8.3-11.4c0-5.7,5.3-10.6,12.7-10.6 c3.9,0,7.2,1.4,9.3,3.1c0.6-0.5,1.2-1.8,1.5-3.2h2.3v14h-2.5c-0.8-5.6-3.9-10.2-10.2-10.2c-3.3,0-6.4,1.9-6.4,4.9 c0,3.1,2.5,4.7,8.2,7.4l6.5,3.2c5.7,2.7,8,7.1,8,10.7C561.5,133.7,555,138.9,547,138.9z"></path> <g> <path class="st0" d="M30.2,110.9c0,20.8,12.1,38.8,29.6,47.3L34.8,89.5C31.8,96,30.2,103.3,30.2,110.9z"></path> <path class="st0" d="M118.2,108.2c0-6.5-2.3-11-4.3-14.5c-2.7-4.3-5.2-8-5.2-12.3c0-4.8,3.7-9.3,8.8-9.3c0.2,0,0.5,0,0.7,0 c-9.3-8.6-21.8-13.8-35.5-13.8c-18.4,0-34.5,9.4-43.9,23.7c1.2,0,2.4,0.1,3.4,0.1c5.5,0,14-0.7,14-0.7c2.8-0.2,3.2,4,0.3,4.3 c0,0-2.8,0.3-6,0.5l19.1,56.9l11.5-34.5L73,86.2c-2.8-0.2-5.5-0.5-5.5-0.5c-2.8-0.2-2.5-4.5,0.3-4.3c0,0,8.7,0.7,13.8,0.7 c5.5,0,14-0.7,14-0.7c2.8-0.2,3.2,4,0.3,4.3c0,0-2.9,0.3-6,0.5l19,56.5l5.2-17.5C116.5,118,118.2,112.7,118.2,108.2z"></path> <path class="st0" d="M83.7,115.5l-15.8,45.8c4.7,1.4,9.7,2.1,14.8,2.1c6.1,0,12-1.1,17.5-3c-0.1-0.2-0.3-0.5-0.4-0.7L83.7,115.5z "></path> <path class="st0" d="M128.9,85.7c0.2,1.7,0.4,3.5,0.4,5.4c0,5.3-1,11.3-4,18.8l-16.1,46.4c15.6-9.1,26.1-26,26.1-45.4 C135.3,101.8,133,93.2,128.9,85.7z"></path> <path class="st0" d="M82.8,49.6c-33.8,0-61.3,27.5-61.3,61.3c0,33.8,27.5,61.3,61.3,61.3c33.8,0,61.3-27.5,61.3-61.3 C144,77.1,116.5,49.6,82.8,49.6z M82.8,169.3c-32.2,0-58.5-26.2-58.5-58.5c0-32.2,26.2-58.5,58.5-58.5 c32.2,0,58.5,26.2,58.5,58.5C141.2,143.1,115,169.3,82.8,169.3z"></path> </g> </g> </g> </svg> 