<?xml version="1.0" encoding="utf-8"?>
<!-- Generator: Adobe Illustrator 25.1.0, SVG Export Plug-In . SVG Version: 6.00 Build 0)  -->
<svg version="1.1" id="Layer_1" xmlns="http://www.w3.org/2000/svg" xmlns:xlink="http://www.w3.org/1999/xlink" x="0px" y="0px"
	 viewBox="0 0 992 404" style="enable-background:new 0 0 992 404;" xml:space="preserve">
<style type="text/css">
	.st0{fill:none;stroke:url(#Fill-5_1_);stroke-width:3.0888;}
	.st1{fill-rule:evenodd;clip-rule:evenodd;fill:url(#Fill-15_1_);}
	.st2{fill-rule:evenodd;clip-rule:evenodd;fill:url(#Fill-21_1_);}
	.st3{fill-rule:evenodd;clip-rule:evenodd;fill:url(#Fill-23_1_);}
	.st4{fill-rule:evenodd;clip-rule:evenodd;fill:url(#Fill-25_1_);}
	.st5{filter:url(#Adobe_OpacityMaskFilter);}
	.st6{fill-rule:evenodd;clip-rule:evenodd;fill:#FFFFFF;}
	.st7{mask:url(#mask-7_1_);fill-rule:evenodd;clip-rule:evenodd;fill:#1E4160;}
	.st8{fill-rule:evenodd;clip-rule:evenodd;fill:url(#Fill-46_1_);}
	.st9{fill-rule:evenodd;clip-rule:evenodd;fill:url(#Fill-48_1_);}
	.st10{fill-rule:evenodd;clip-rule:evenodd;fill:url(#Fill-50_1_);}
	.st11{fill-rule:evenodd;clip-rule:evenodd;fill:url(#Fill-52_1_);}
	.st12{fill-rule:evenodd;clip-rule:evenodd;fill:url(#Fill-54_1_);}
	.st13{fill-rule:evenodd;clip-rule:evenodd;fill:url(#Fill-56_1_);}
	.st14{fill-rule:evenodd;clip-rule:evenodd;fill:url(#Fill-60_1_);}
	.st15{fill-rule:evenodd;clip-rule:evenodd;fill:url(#Fill-64_1_);}
	.st16{filter:url(#Adobe_OpacityMaskFilter_1_);}
	.st17{mask:url(#mask-17_1_);fill-rule:evenodd;clip-rule:evenodd;fill:#1E4160;}
	.st18{fill-rule:evenodd;clip-rule:evenodd;fill:url(#Fill-69_1_);}
	.st19{fill-rule:evenodd;clip-rule:evenodd;fill:url(#Fill-71_1_);}
	.st20{fill-rule:evenodd;clip-rule:evenodd;fill:url(#Fill-73_1_);}
	.st21{fill-rule:evenodd;clip-rule:evenodd;fill:url(#Fill-75_1_);}
	.st22{fill-rule:evenodd;clip-rule:evenodd;fill:url(#Fill-77_1_);}
	.st23{fill-rule:evenodd;clip-rule:evenodd;fill:url(#Fill-79_1_);}
	.st24{fill-rule:evenodd;clip-rule:evenodd;fill:url(#Fill-81_1_);}
	.st25{fill-rule:evenodd;clip-rule:evenodd;fill:url(#Fill-83_1_);}
	.st26{fill-rule:evenodd;clip-rule:evenodd;fill:url(#Fill-85_1_);}
	.st27{fill-rule:evenodd;clip-rule:evenodd;fill:url(#Fill-87_1_);}
	.st28{fill-rule:evenodd;clip-rule:evenodd;fill:url(#Fill-89_1_);}
	.st29{fill-rule:evenodd;clip-rule:evenodd;fill:url(#Fill-91_1_);}
	.st30{fill-rule:evenodd;clip-rule:evenodd;fill:url(#Fill-93_1_);}
	.st31{fill-rule:evenodd;clip-rule:evenodd;fill:url(#Fill-95_1_);}
	.st32{fill-rule:evenodd;clip-rule:evenodd;fill:url(#Fill-97_1_);}
</style>
<g id="imagery-_x2F_-illustration-_x2F_-map-large">
	<g transform="translate(-716.000000, 154.000000)">
		
			<linearGradient id="Fill-5_1_" gradientUnits="userSpaceOnUse" x1="623.3421" y1="763.0706" x2="623.3421" y2="762.0706" gradientTransform="matrix(16.9459 0 0 -11.2973 -9376.3271 8561.6865)">
			<stop  offset="0" style="stop-color:#005E91"/>
			<stop  offset="1" style="stop-color:#003058"/>
		</linearGradient>
		<path id="Fill-5" class="st0" d="M1182.5-49.4l-4.1-4.1l3.6-3.5c2.7-2.6,7-2.6,9.7,0l3.6,3.5l-4.1,4.1
			C1188.7-47.1,1184.8-47.1,1182.5-49.4"/>
		
			<linearGradient id="Fill-15_1_" gradientUnits="userSpaceOnUse" x1="623.3421" y1="797.2713" x2="623.3421" y2="796.2713" gradientTransform="matrix(16.9459 0 0 -36.1513 -9353.7324 28745.4004)">
			<stop  offset="0" style="stop-color:#005E91"/>
			<stop  offset="1" style="stop-color:#003058"/>
		</linearGradient>
		<path id="Fill-15" class="st1" d="M1205.6-72.1v16.7c0,4.6,3.2,8.5,7.5,9.5v-17.2C1213.1-67.6,1209.9-71.3,1205.6-72.1
			 M1215.5-40.9c-8,0-14.6-6.5-14.6-14.6v-19.2c0-1.3,1.1-2.4,2.4-2.4h0.6c7.7,0,13.9,6.2,13.9,13.9v19.9
			C1217.8-41.9,1216.8-40.9,1215.5-40.9"/>
		
			<linearGradient id="Fill-21_1_" gradientUnits="userSpaceOnUse" x1="622.1122" y1="781.7256" x2="622.1122" y2="780.7256" gradientTransform="matrix(21.4648 0 0 -18.0757 -11821.0645 14196.6768)">
			<stop  offset="0" style="stop-color:#005E91"/>
			<stop  offset="1" style="stop-color:#003058"/>
		</linearGradient>
		<path id="Fill-21" class="st2" d="M1527.3,75.5l3.2,3.4c1,1.1,2.8,1.1,3.8,0l3.2-3.4l-3.2-3.4c-1.1-1.1-2.8-1.1-3.8,0L1527.3,75.5
			z M1532.5,84.5c-1.9,0-3.7-0.7-5.2-2.2l-4.9-5.1c-0.9-0.9-0.9-2.5,0-3.4l4.9-5.1c2.9-3,7.5-3,10.3,0l4.9,5.1
			c0.9,0.9,0.9,2.5,0,3.4l-4.9,5.1C1536.2,83.8,1534.3,84.5,1532.5,84.5L1532.5,84.5z"/>
		
			<linearGradient id="Fill-23_1_" gradientUnits="userSpaceOnUse" x1="622.1122" y1="781.7256" x2="622.1122" y2="780.7256" gradientTransform="matrix(21.4648 0 0 -18.0757 -11787.1719 14240.748)">
			<stop  offset="0" style="stop-color:#005E91"/>
			<stop  offset="1" style="stop-color:#003058"/>
		</linearGradient>
		<path id="Fill-23" class="st3" d="M1564.5,123c1,1.1,2.8,1.1,3.8,0l3.3-3.4l-3.3-3.4c-1-1.1-2.8-1.1-3.8,0l-3.2,3.4L1564.5,123z
			 M1566.4,128.6c-1.9,0-3.7-0.7-5.2-2.2l-4.9-5.1c-0.9-0.9-0.9-2.5,0-3.4l4.9-5.1c2.9-3,7.5-3,10.3,0l4.9,5.1
			c0.9,0.9,0.9,2.5,0,3.4l-4.9,5.1C1570.1,127.9,1568.2,128.6,1566.4,128.6L1566.4,128.6z"/>
		
			<linearGradient id="Fill-25_1_" gradientUnits="userSpaceOnUse" x1="620.1555" y1="791.1882" x2="620.1555" y2="790.1882" gradientTransform="matrix(37.2811 0 0 -25.9838 -21555.9883 20633.5508)">
			<stop  offset="0" style="stop-color:#005E91"/>
			<stop  offset="1" style="stop-color:#003058"/>
		</linearGradient>
		<path id="Fill-25" class="st4" d="M1551.4,95.3c4,2.5,9.4,2,12.9-1.4l12.5-12.2c-1.6-1-3.6-1.5-5.5-1.5c-2.8,0-5.4,1.1-7.4,3
			L1551.4,95.3z M1556.9,101.5c-3.9,0-7.8-1.4-10.7-4.3c-0.9-0.9-0.9-2.4,0-3.3l14.4-14c2.9-2.8,6.7-4.3,10.8-4.3
			c4.1,0,7.9,1.5,10.8,4.3c0.9,0.9,0.9,2.4,0,3.3l-14.4,14C1564.7,100,1560.8,101.5,1556.9,101.5L1556.9,101.5z"/>
		<g id="Group-31" transform="translate(920.728809, 0.000000)">
			<g id="Clip-30">
			</g>
			<defs>
				<filter id="Adobe_OpacityMaskFilter" filterUnits="userSpaceOnUse" x="0.4" y="-154" width="27.2" height="20.1">
					<feColorMatrix  type="matrix" values="1 0 0 0 0  0 1 0 0 0  0 0 1 0 0  0 0 0 1 0"/>
				</filter>
			</defs>
			<mask maskUnits="userSpaceOnUse" x="0.4" y="-154" width="27.2" height="20.1" id="mask-7_1_">
				<g class="st5">
					<polygon id="path-6_1_" class="st6" points="0.4,-154 27.6,-154 27.6,-133.9 0.4,-133.9 					"/>
				</g>
			</mask>
			<path id="Fill-29" class="st7" d="M6.2-143.9l4,3.9c2.1,2.1,5.6,2.1,7.7,0l4-3.9l-4-3.9c-2.1-2.1-5.6-2.1-7.7,0L6.2-143.9z
				 M14-133.9c-2.6,0-5.2-1-7.2-2.9l-5.7-5.5c-0.9-0.9-0.9-2.4,0-3.3l5.7-5.5c4-3.9,10.5-3.9,14.5,0l5.7,5.5c0.9,0.9,0.9,2.4,0,3.3
				l-5.7,5.5C19.2-134.8,16.6-133.9,14-133.9L14-133.9z"/>
		</g>
		
			<linearGradient id="Fill-46_1_" gradientUnits="userSpaceOnUse" x1="618.4166" y1="802.7505" x2="617.4196" y2="802.7505" gradientTransform="matrix(237.6586 0 0 -58.7459 -146001.5938 47076.7617)">
			<stop  offset="0" style="stop-color:#003058"/>
			<stop  offset="0.243" style="stop-color:#005E91"/>
			<stop  offset="1" style="stop-color:#FFFFFF"/>
		</linearGradient>
		<path id="Fill-46" class="st8" d="M953.4-52.2c-0.6,0-9.2-0.2-9.7-0.7l-21.8-21.8c-0.4-0.4-0.7-1-0.7-1.7c0-0.6,0.2-1.2,0.7-1.7
			l14.8-14.8v-3.5c0-5.5-4.5-10-10.1-10H764c-7.3,0-14.3,2.2-20.3,6.4l-6.2,4.4v26.5c0,1.3-1.1,2.3-2.4,2.3c-1.3,0-2.3-1-2.3-2.3
			v-27.7c0-0.8,0.4-1.5,1-1.9l7.2-5.1c6.8-4.8,14.7-7.3,23-7.3h162.7c8.1,0,14.8,6.6,14.8,14.7v4.4c0,0.6-0.2,1.2-0.7,1.7
			l-13.9,13.8l19.5,19.4h21.7c1.3,0,2.4,1,2.4,2.3c0,1.3-1.1,2.3-2.4,2.3H953.4z"/>
		
			<linearGradient id="Fill-48_1_" gradientUnits="userSpaceOnUse" x1="618.249" y1="809.186" x2="618.249" y2="808.186" gradientTransform="matrix(132.1782 0 0 -154.7728 -80849.7266 125152.8203)">
			<stop  offset="0" style="stop-color:#005E91"/>
			<stop  offset="1" style="stop-color:#003058"/>
		</linearGradient>
		<path id="Fill-48" class="st9" d="M933.1,67.6c-0.6,0-1.2-0.2-1.7-0.7l-13.8-13.8h-8.3c-9,0-17.5-3.5-23.8-9.9L844.1,1.8
			c-8.3-8.3-12.8-19.2-12.8-30.9v-26.6l-27.4-27.4c-0.9-0.9-0.9-2.4,0-3.3c0.9-0.9,2.4-0.9,3.3,0l28.1,28.1c0.4,0.4,0.7,1,0.7,1.7
			v27.6c0,10.4,4.1,20.2,11.4,27.6l41.4,41.5c5.5,5.5,12.7,8.5,20.5,8.5h9.2c0.6,0,1.2,0.2,1.7,0.7l14.5,14.5c0.9,0.9,0.9,2.4,0,3.3
			C934.3,67.4,933.7,67.6,933.1,67.6"/>
		
			<linearGradient id="Fill-50_1_" gradientUnits="userSpaceOnUse" x1="620.8704" y1="807.8425" x2="620.8704" y2="806.8425" gradientTransform="matrix(29.373 0 0 -112.9729 -17307.0527 91365.7656)">
			<stop  offset="0" style="stop-color:#005E91"/>
			<stop  offset="1" style="stop-color:#003058"/>
		</linearGradient>
		<path id="Fill-50" class="st10" d="M942.1,214.5c-1.3,0-2.3-1.1-2.3-2.3v-59l-15.5-15.7c-5.9-6-9.2-14-9.2-22.4v-11.2
			c0-1.3,1-2.3,2.3-2.3c1.3,0,2.3,1.1,2.3,2.3V115c0,7.2,2.8,14,7.8,19.1l16.2,16.4c0.4,0.4,0.7,1,0.7,1.7v60
			C944.5,213.4,943.4,214.5,942.1,214.5"/>
		
			<linearGradient id="Fill-52_1_" gradientUnits="userSpaceOnUse" x1="618.3942" y1="809.3383" x2="618.3942" y2="808.3383" gradientTransform="matrix(110.7134 0 0 -161.5512 -67503.1094 130660.1484)">
			<stop  offset="0" style="stop-color:#005E91"/>
			<stop  offset="1" style="stop-color:#003058"/>
		</linearGradient>
		<path id="Fill-52" class="st11" d="M994.3,71.4c-3.1-3.1-7.2-4.8-11.5-4.8h-27c-0.6,0-1.2-0.3-1.7-0.7l-20.4-20.5
			c-4.6-4.6-10.6-7.1-17-7.1h-8.2c-1.3,0-2.3-1.1-2.3-2.4V12.2c0-1.3,1-2.4,2.3-2.4h25.5c7.8,0,15.2-3.1,20.7-8.6l57.4-57.8v-3.8
			c0-6.5-5.3-11.8-11.7-11.8h-10.8c-0.6,0-1.2-0.2-1.7-0.7l-12.4-12.5c-0.9-0.9-0.9-2.4,0-3.3c0.9-0.9,2.4-0.9,3.3,0l11.8,11.8h9.8
			c9.1,0,16.4,7.4,16.4,16.5v4.8c0,0.6-0.2,1.2-0.7,1.7L957.9,4.5c-6.4,6.4-14.9,10-24,10h-23.2v19.1h5.9c7.7,0,14.9,3,20.4,8.5
			l19.7,19.8h26c5.6,0,10.9,2.2,14.9,6.2c0.9,0.9,0.9,2.4,0,3.3c-0.5,0.5-1.1,0.7-1.7,0.7C995.3,72.1,994.7,71.9,994.3,71.4z"/>
		
			<linearGradient id="Fill-54_1_" gradientUnits="userSpaceOnUse" x1="618.7887" y1="809.3383" x2="618.7887" y2="808.3383" gradientTransform="matrix(76.8215 0 0 -161.5512 -46533.0977 130837.5)">
			<stop  offset="0" style="stop-color:#005E91"/>
			<stop  offset="1" style="stop-color:#003058"/>
		</linearGradient>
		<path id="Fill-54" class="st12" d="M967.1,249.5c-1.3,0-2.3-1.1-2.3-2.3v-48.8c0-0.6,0.2-1.2,0.7-1.7l71.5-71.9v-18.9
			c0-7.3-5.9-13.2-13.1-13.2h-6.2c-1.3,0-2.3-1.1-2.3-2.4c0-1.3,1-2.3,2.3-2.3h6.2c9.8,0,17.8,8,17.8,17.9v19.9
			c0,0.6-0.2,1.2-0.7,1.7l-71.5,71.9v47.8C969.5,248.4,968.4,249.5,967.1,249.5"/>
		
			<linearGradient id="Fill-56_1_" gradientUnits="userSpaceOnUse" x1="619.538" y1="787.9438" x2="619.538" y2="786.9438" gradientTransform="matrix(48.5784 0 0 -22.5946 -29197.4434 17661.8477)">
			<stop  offset="0" style="stop-color:#005E91"/>
			<stop  offset="1" style="stop-color:#003058"/>
		</linearGradient>
		<path id="Fill-56" class="st13" d="M879.2-136.7c0.6,7.4,6.9,13.2,14.4,13.2h24.5c-1.1-7.5-7.6-13.2-15.5-13.2H879.2z
			 M920.6-118.8h-27c-10.6,0-19.2-8.6-19.2-19.1v-1.1c0-1.3,1.1-2.3,2.3-2.3h25.9c11.2,0,20.3,9.1,20.3,20.3
			C923-119.9,921.9-118.8,920.6-118.8L920.6-118.8z"/>
		
			<linearGradient id="Fill-60_1_" gradientUnits="userSpaceOnUse" x1="618.5432" y1="806.8235" x2="618.5432" y2="805.8235" gradientTransform="matrix(94.8972 0 0 -93.7675 -57625.918 75502.2344)">
			<stop  offset="0" style="stop-color:#005E91"/>
			<stop  offset="1" style="stop-color:#003058"/>
		</linearGradient>
		<path id="Fill-60" class="st14" d="M1067.6-57.8c-0.6,0-1.2-0.2-1.7-0.7l-10.6-10.7c-5.9-6-9.2-13.9-9.2-22.3v-8.6l-16.9-17.1
			c-6-6.1-6-16,0-22c0.9-0.9,2.4-0.9,3.3,0c0.9,0.9,0.9,2.4,0,3.3c-4.2,4.2-4.2,11.1,0,15.4l17.6,17.8c0.4,0.4,0.7,1,0.7,1.7v9.6
			c0,7.2,2.8,13.9,7.8,19l9,9l47.3-47.6v-20.9c0-8.2-6.7-14.9-14.8-14.9h-36.1c-1.3,0-2.3-1.1-2.3-2.4c0-1.3,1-2.4,2.3-2.4h36.1
			c10.8,0,19.5,8.8,19.5,19.6v21.8c0,0.6-0.2,1.2-0.7,1.7l-49.7,49.9C1068.8-58.1,1068.2-57.8,1067.6-57.8"/>
		
			<linearGradient id="Fill-64_1_" gradientUnits="userSpaceOnUse" x1="621.1513" y1="785.1802" x2="621.1513" y2="784.1802" gradientTransform="matrix(27.1135 0 0 -20.3351 -15715.2627 15880.6787)">
			<stop  offset="0" style="stop-color:#005E91"/>
			<stop  offset="1" style="stop-color:#003058"/>
		</linearGradient>
		<path id="Fill-64" class="st15" d="M1118.5-75.9l4.4,4.2c1.9,1.8,5,1.8,6.8,0l4.4-4.2l-4.4-4.2c-1.9-1.8-5-1.8-6.8,0L1118.5-75.9z
			 M1126.3-65.7c-2.6,0-5-1-6.8-2.7l-6.1-5.8c-0.9-0.9-0.9-2.3,0-3.2l6.1-5.8c1.8-1.7,4.2-2.7,6.8-2.7c2.6,0,5,1,6.8,2.7l6.1,5.8
			c0.9,0.9,0.9,2.3,0,3.2l-6.1,5.8C1131.3-66.7,1128.9-65.7,1126.3-65.7L1126.3-65.7z"/>
		<g id="Group-68" transform="translate(1669.738871, 350.215866)">
			<g id="Clip-67">
			</g>
			<defs>
				<filter id="Adobe_OpacityMaskFilter_1_" filterUnits="userSpaceOnUse" x="0.5" y="-154.8" width="37.4" height="26.9">
					<feColorMatrix  type="matrix" values="1 0 0 0 0  0 1 0 0 0  0 0 1 0 0  0 0 0 1 0"/>
				</filter>
			</defs>
			<mask maskUnits="userSpaceOnUse" x="0.5" y="-154.8" width="37.4" height="26.9" id="mask-17_1_">
				<g class="st16">
					<polygon id="path-16_1_" class="st6" points="0.5,-154.8 37.9,-154.8 37.9,-127.9 0.5,-127.9 					"/>
				</g>
			</mask>
			<path id="Fill-66" class="st17" d="M6.4-134.3c4.1,2.5,9.5,2.1,13-1.5L32-148.4c-4.1-2.6-9.5-2.1-13,1.5L6.4-134.3z M12-127.9
				c-3.9,0-7.8-1.5-10.8-4.5c-0.9-0.9-0.9-2.5,0-3.4l14.4-14.6c5.9-6,15.6-6,21.6,0c0.9,0.9,0.9,2.4,0,3.4l-14.4,14.6
				C19.8-129.4,15.9-127.9,12-127.9L12-127.9z"/>
		</g>
		
			<linearGradient id="Fill-69_1_" gradientUnits="userSpaceOnUse" x1="618.2364" y1="791.1882" x2="618.2364" y2="790.1882" gradientTransform="matrix(134.4377 0 0 -25.9838 -81615.7188 20421.1543)">
			<stop  offset="0" style="stop-color:#005E91"/>
			<stop  offset="1" style="stop-color:#003058"/>
		</linearGradient>
		<path id="Fill-69" class="st18" d="M1563.5-110.9h-31.7c-0.6,0-1.2-0.2-1.7-0.7l-13.6-13.3c-4.9-4.8-11.4-7.4-18.3-7.4h-42.8
			l-20.1,19.7c-0.9,0.9-2.4,0.9-3.3,0c-0.9-0.9-0.9-2.4,0-3.3l20.8-20.3c0.4-0.4,1-0.7,1.7-0.7h43.7c8.2,0,15.9,3.1,21.6,8.8
			l12.9,12.6h30.7c1.3,0,2.4,1,2.4,2.3C1565.8-111.9,1564.8-110.9,1563.5-110.9"/>
		
			<linearGradient id="Fill-71_1_" gradientUnits="userSpaceOnUse" x1="618.2303" y1="808.9" x2="618.2303" y2="807.9" gradientTransform="matrix(135.5675 0 0 -143.4755 -82225.7969 115955.4922)">
			<stop  offset="0" style="stop-color:#005E91"/>
			<stop  offset="1" style="stop-color:#003058"/>
		</linearGradient>
		<path id="Fill-71" class="st19" d="M1520.7,41.6c-0.6,0-1.2-0.2-1.7-0.7c-0.9-0.9-0.9-2.4,0-3.3l15-15c3.5-3.5,5.5-8.2,5.5-13.2
			V0.5c0-1.3,1.1-2.3,2.3-2.3h25.3l25.6-25.6c5.3-5.3,8.2-12.2,8.2-19.7v-18.2c0-1.3,1.1-2.3,2.3-2.3h30l15.9-15.9v-2.8
			c0-6-4.9-10.8-10.8-10.8h-32.5c-1.3,0-2.3-1-2.3-2.3c0-1.3,1.1-2.3,2.3-2.3h32.5c8.6,0,15.5,7,15.5,15.5v3.8
			c0,0.6-0.2,1.2-0.7,1.7l-17.3,17.3c-0.4,0.4-1,0.7-1.7,0.7h-28.6V-47c0,8.7-3.4,16.9-9.5,23l-26.3,26.2c-0.4,0.4-1,0.7-1.7,0.7
			h-24v6.5c0,6.2-2.4,12.1-6.9,16.5l-15,15C1521.9,41.4,1521.3,41.6,1520.7,41.6"/>
		
			<linearGradient id="Fill-73_1_" gradientUnits="userSpaceOnUse" x1="618.2303" y1="800.3805" x2="618.2303" y2="799.3805" gradientTransform="matrix(135.5675 0 0 -45.1891 -82374.9219 36190.918)">
			<stop  offset="0" style="stop-color:#005E91"/>
			<stop  offset="1" style="stop-color:#003058"/>
		</linearGradient>
		<path id="Fill-73" class="st20" d="M1502.5,67.6c-0.6,0-1.2-0.2-1.7-0.7l-35.6-36l-35.1,35.5c-0.9,0.9-2.4,0.9-3.3,0L1402.6,42
			h-16.4c-0.6,0-1.2-0.3-1.7-0.7l-14.6-14.8c-0.9-0.9-0.9-2.4,0-3.4c0.9-0.9,2.4-0.9,3.3,0l13.9,14.1h16.4c0.6,0,1.2,0.2,1.7,0.7
			l23.3,23.4l35.1-35.5c0.9-0.9,2.4-0.9,3.3,0l37.2,37.7c0.9,0.9,0.9,2.4,0,3.4C1503.7,67.4,1503.1,67.6,1502.5,67.6"/>
		
			<linearGradient id="Fill-75_1_" gradientUnits="userSpaceOnUse" x1="618.9134" y1="796.7698" x2="618.9134" y2="795.7698" gradientTransform="matrix(70.0432 0 0 -35.0216 -41988.2305 27948.0176)">
			<stop  offset="0" style="stop-color:#005E91"/>
			<stop  offset="1" style="stop-color:#003058"/>
		</linearGradient>
		<path id="Fill-75" class="st21" d="M1370.3,78.9c-6.6,0-13.2-2.5-18.2-7.4l-24-23.7c-0.9-0.9-0.9-2.4,0-3.3c0.9-0.9,2.4-0.9,3.3,0
			l24,23.7c8.2,8,21.5,8,29.6,0l8.3-8.2c0.9-0.9,2.4-0.9,3.3,0c0.9,0.9,0.9,2.4,0,3.3l-8.3,8.2C1383.5,76.4,1376.9,78.9,1370.3,78.9
			"/>
		
			<linearGradient id="Fill-77_1_" gradientUnits="userSpaceOnUse" x1="620.6297" y1="807.8917" x2="620.6297" y2="806.8917" gradientTransform="matrix(31.6324 0 0 -114.1026 -18279.75 92273.8594)">
			<stop  offset="0" style="stop-color:#005E91"/>
			<stop  offset="1" style="stop-color:#003058"/>
		</linearGradient>
		<path id="Fill-77" class="st22" d="M1338.8,205.4c-1.3,0-2.3-1.1-2.3-2.4v-65.2c0-0.6,0.2-1.2,0.7-1.7l22.6-22.8
			c2.4-2.4,3.7-5.6,3.7-9c0-3.4-1.3-6.6-3.7-9c-0.9-0.9-0.9-2.4,0-3.3c0.9-0.9,2.4-0.9,3.3,0c3.3,3.3,5.1,7.7,5.1,12.3
			c0,4.7-1.8,9.1-5.1,12.3l-21.9,22.1v64.3C1341.1,204.4,1340.1,205.4,1338.8,205.4"/>
		
			<linearGradient id="Fill-79_1_" gradientUnits="userSpaceOnUse" x1="618.3267" y1="809.1047" x2="618.3267" y2="808.1047" gradientTransform="matrix(119.7513 0 0 -151.3837 -72795.9766 122570.8906)">
			<stop  offset="0" style="stop-color:#005E91"/>
			<stop  offset="1" style="stop-color:#003058"/>
		</linearGradient>
		<path id="Fill-79" class="st23" d="M1307,237.1h-7.4c-14.3,0-26-11.7-26-26v-33l-6-6c-6.5-6.5-10.1-15.2-10.1-24.5v-26.8h-35.3
			c-0.6,0-1.2-0.2-1.7-0.7l-30.2-30.3c-0.9-0.9-0.9-2.4,0-3.3c0.9-0.9,2.4-0.9,3.3,0l29.6,29.6h36.6c1.3,0,2.4,1.1,2.4,2.4v29.2
			c0,8,3.1,15.5,8.8,21.2l6.7,6.7c0.4,0.4,0.7,1,0.7,1.7V211c0,11.8,9.5,21.3,21.3,21.3h7.4c1.3,0,2.4,1.1,2.4,2.4
			C1309.4,236,1308.3,237.1,1307,237.1"/>
		
			<linearGradient id="Fill-81_1_" gradientUnits="userSpaceOnUse" x1="618.3942" y1="786.6348" x2="618.3942" y2="785.6348" gradientTransform="matrix(110.7134 0 0 -21.4649 -67186.7891 16899.502)">
			<stop  offset="0" style="stop-color:#005E91"/>
			<stop  offset="1" style="stop-color:#003058"/>
		</linearGradient>
		<path id="Fill-81" class="st24" d="M1314.1,36h-42c-0.6,0-1.2-0.2-1.7-0.7l-6.9-6.9c-4-4-9.3-6.2-14.9-6.2h-24
			c-1.3,0-2.4-1.1-2.4-2.4c0-1.3,1.1-2.4,2.4-2.4h24c6.9,0,13.4,2.7,18.2,7.6l6.2,6.2h40l15.9-16c0.9-0.9,2.4-0.9,3.3,0
			c0.9,0.9,0.9,2.4,0,3.4l-16.6,16.7C1315.4,35.7,1314.8,36,1314.1,36"/>
		
			<linearGradient id="Fill-83_1_" gradientUnits="userSpaceOnUse" x1="618.3426" y1="799.7259" x2="618.3426" y2="798.7259" gradientTransform="matrix(117.4917 0 0 -42.9297 -71392.7344 34299.0273)">
			<stop  offset="0" style="stop-color:#005E91"/>
			<stop  offset="1" style="stop-color:#003058"/>
		</linearGradient>
		<path id="Fill-83" class="st25" d="M1211,10L1211,10c-0.6,0-1.2-0.2-1.7-0.7l-5.1-5.1c-3.6-3.6-5.6-8.3-5.6-13.4
			c0-5.1,2-9.8,5.6-13.4l9.8-9.7c0.4-0.4,1-0.7,1.7-0.7h12.9c1.3,0,2.4,1.1,2.4,2.3c0,1.3-1.1,2.3-2.4,2.3h-12l-9.1,9
			c-2.7,2.7-4.2,6.3-4.2,10.1c0,3.8,1.5,7.4,4.2,10.1l3.4,3.4l18.4-18.3c0.4-0.4,1-0.7,1.7-0.7h13.2c0.6,0,1.2,0.2,1.7,0.7
			l15.5,15.4h21.6l8.1-8.1c0.4-0.4,1-0.7,1.7-0.7h14.7c0.6,0,1.2,0.2,1.7,0.7l6.2,6.1c0.9,0.9,0.9,2.4,0,3.3c-0.9,0.9-2.4,0.9-3.3,0
			l-5.5-5.4h-12.8l-8.1,8.1c-0.4,0.4-1,0.7-1.7,0.7h-23.5c-0.6,0-1.2-0.2-1.7-0.7L1243.4-10h-11.3l-19.4,19.3
			C1212.2,9.7,1211.6,10,1211,10"/>
		
			<linearGradient id="Fill-85_1_" gradientUnits="userSpaceOnUse" x1="618.1044" y1="803.6048" x2="618.1044" y2="802.6048" gradientTransform="matrix(163.8105 0 0 -61.0053 -99928.5391 48907.6367)">
			<stop  offset="0" style="stop-color:#005E91"/>
			<stop  offset="1" style="stop-color:#003058"/>
		</linearGradient>
		<path id="Fill-85" class="st26" d="M1276.5-55.5h-32.6c-1.3,0-2.4-1-2.4-2.3c0-1.3,1.1-2.3,2.4-2.3h30.2V-71
			c0-0.6,0.2-1.2,0.7-1.7l14.5-14.4l-5.5-5.4L1262-70.8c-0.4,0.4-1,0.7-1.7,0.7c-0.6,0-1.2-0.2-1.7-0.7l-1.6-1.6
			c-3.1-3.1-4.9-7.3-4.9-11.7c0-4.4,1.7-8.6,4.9-11.7l20-19.9c0.4-0.4,1-0.7,1.7-0.7h17.9c6.3,0,12.3,2.4,16.7,6.9l12.5,12.4h56.7
			l18.9-18.8c0.9-0.9,2.4-0.9,3.3,0c0.9,0.9,0.9,2.4,0,3.3l-19.6,19.5c-0.4,0.4-1,0.7-1.7,0.7h-58.6c-0.6,0-1.2-0.2-1.7-0.7
			l-13.2-13.1c-3.6-3.6-8.3-5.5-13.4-5.5h-16.9l-19.3,19.2c-4.6,4.6-4.6,12.1,0,16.7l21.8-21.7c0.9-0.9,2.4-0.9,3.3,0l8.8,8.7
			c0.9,0.9,0.9,2.4,0,3.3L1278.8-70v12.2C1278.8-56.6,1277.8-55.5,1276.5-55.5"/>
		
			<linearGradient id="Fill-87_1_" gradientUnits="userSpaceOnUse" x1="618.5309" y1="805.6075" x2="618.5309" y2="804.6075" gradientTransform="matrix(96.0269 0 0 -77.9513 -57784.0234 62938.0156)">
			<stop  offset="0" style="stop-color:#005E91"/>
			<stop  offset="1" style="stop-color:#003058"/>
		</linearGradient>
		<path id="Fill-87" class="st27" d="M1647.3,157.7l-17.2-17.1c-0.9-0.9-2.4-0.9-3.3,0c-0.9,0.9-0.9,2.4,0,3.3L1644,161
			c7,7,10.9,16.2,10.9,26.1v26.1h-15.3c-6.5,0-12.6-2.5-17.1-7.1l-7.7-7.6c-0.4-0.4-1-0.7-1.7-0.7h-23.3c-11.8,0-21.4-9.6-21.4-21.3
			v-8.9l23.8-23.7c0.9-0.9,0.9-2.4,0-3.3c-0.9-0.9-2.4-0.9-3.3,0l-24.5,24.4c-0.2,0.2-0.4,0.5-0.5,0.8c0,0,0,0,0,0
			c-0.1,0.3-0.2,0.6-0.2,0.9v9.9c0,14.3,11.7,26,26.1,26h22.4l7,6.9c5.5,5.4,12.8,8.4,20.5,8.4h17.7c1.3,0,2.4-1.1,2.4-2.4v-28.4
			C1659.6,176,1655.2,165.5,1647.3,157.7"/>
		
			<linearGradient id="Fill-89_1_" gradientUnits="userSpaceOnUse" x1="619.405" y1="798.6038" x2="619.405" y2="797.6038" gradientTransform="matrix(51.9675 0 0 -39.5405 -30671.7246 31658.3418)">
			<stop  offset="0" style="stop-color:#005E91"/>
			<stop  offset="1" style="stop-color:#003058"/>
		</linearGradient>
		<path id="Fill-89" class="st28" d="M1497.1,88l24.5,24.4c4.3,4.3,11,4.8,15.8,1.5l-24.5-24.4C1508.6,85.2,1501.9,84.7,1497.1,88
			 M1530.4,120.7c-4.4,0-8.8-1.7-12.1-5l-26.3-26.2c-0.9-0.9-0.9-2.4,0-3.3c3.2-3.2,7.6-5,12.1-5c4.6,0,8.9,1.8,12.1,5l26.3,26.2
			c0.4,0.4,0.7,1,0.7,1.7c0,0.6-0.2,1.2-0.7,1.7C1539.2,119,1534.8,120.7,1530.4,120.7"/>
		
			<linearGradient id="Fill-91_1_" gradientUnits="userSpaceOnUse" x1="620.0774" y1="789.1283" x2="620.0774" y2="788.1283" gradientTransform="matrix(38.4108 0 0 -23.7243 -22198.748 18826.3945)">
			<stop  offset="0" style="stop-color:#005E91"/>
			<stop  offset="1" style="stop-color:#003058"/>
		</linearGradient>
		<path id="Fill-91" class="st29" d="M1604.4,124h14.9c7.8,0,14.1-6.2,14.1-13.8v-0.7h-14.9c-7.8,0-14.1,6.2-14.1,13.8V124z
			 M1619.3,128.6H1602c-1.3,0-2.4-1-2.4-2.3v-3c0-10.2,8.4-18.4,18.8-18.4h17.2c1.3,0,2.4,1,2.4,2.3v3
			C1638.1,120.3,1629.7,128.6,1619.3,128.6L1619.3,128.6z"/>
		
			<linearGradient id="Fill-93_1_" gradientUnits="userSpaceOnUse" x1="621.6729" y1="798.1858" x2="621.6729" y2="797.1858" gradientTransform="matrix(23.7244 0 0 -38.4108 -13382.3887 30813.5352)">
			<stop  offset="0" style="stop-color:#005E91"/>
			<stop  offset="1" style="stop-color:#003058"/>
		</linearGradient>
		<path id="Fill-93" class="st30" d="M1359.2,188.3h0.7c7.6,0,13.8-6.3,13.8-14.1v-14.9h-0.7c-7.6,0-13.8,6.3-13.8,14.1V188.3z
			 M1359.9,193h-3c-1.3,0-2.3-1.1-2.3-2.4v-17.2c0-10.4,8.3-18.8,18.4-18.8h3c1.3,0,2.3,1.1,2.3,2.4v17.2
			C1378.3,184.6,1370,193,1359.9,193L1359.9,193z"/>
		
			<linearGradient id="Fill-95_1_" gradientUnits="userSpaceOnUse" x1="619.3257" y1="799.3721" x2="619.3257" y2="798.3721" gradientTransform="matrix(54.227 0 0 -41.8 -32600.1719 33283.6133)">
			<stop  offset="0" style="stop-color:#005E91"/>
			<stop  offset="1" style="stop-color:#003058"/>
		</linearGradient>
		<path id="Fill-95" class="st31" d="M962.7-123l25.8,26.1c4.6,4.6,11.7,5.1,16.9,1.5l-25.8-26.1c-2.5-2.5-5.8-3.9-9.3-3.9
			C967.5-125.4,964.9-124.5,962.7-123 M997.8-88.3c-4.6,0-9.2-1.8-12.6-5.3l-27.6-27.9c-0.9-0.9-0.9-2.4,0-3.3
			c3.4-3.4,7.9-5.3,12.6-5.3s9.3,1.9,12.6,5.3l27.6,27.9c0.4,0.4,0.7,1,0.7,1.7s-0.2,1.2-0.7,1.7
			C1006.9-90.1,1002.4-88.3,997.8-88.3"/>
		
			<linearGradient id="Fill-97_1_" gradientUnits="userSpaceOnUse" x1="619.405" y1="798.6038" x2="619.405" y2="797.6038" gradientTransform="matrix(51.9675 0 0 -39.5405 -30576.8262 31543.1172)">
			<stop  offset="0" style="stop-color:#005E91"/>
			<stop  offset="1" style="stop-color:#003058"/>
		</linearGradient>
		<path id="Fill-97" class="st32" d="M1592-1.4c4.9,3.3,11.5,2.8,15.8-1.5l24.5-24.4c-4.9-3.3-11.5-2.8-15.8,1.5L1592-1.4z
			 M1599,5.5c-4.4,0-8.8-1.7-12.1-5c-0.9-0.9-0.9-2.4,0-3.3l26.3-26.2c6.7-6.7,17.6-6.7,24.3,0c0.4,0.4,0.7,1,0.7,1.7
			c0,0.6-0.2,1.2-0.7,1.7l-26.3,26.2C1607.8,3.8,1603.4,5.5,1599,5.5L1599,5.5z"/>
	</g>
</g>
</svg>
