<?xml version="1.0" encoding="UTF-8"?>
<svg width="1920px" height="1080px" viewBox="0 0 1920 1080" version="1.1" xmlns="http://www.w3.org/2000/svg" xmlns:xlink="http://www.w3.org/1999/xlink">
    <!-- Generator: Sketch 61 (89581) - https://sketch.com -->
    <title>MentorMate</title>
    <desc>Created with Sketch.</desc>
    <g id="MentorMate" stroke="none" stroke-width="1" fill="none" fill-rule="evenodd">
        <g id="MentorMate_Primary_Logo" transform="translate(-1.000000, 419.000000)" fill-rule="nonzero">
            <path d="M772.562042,122.637463 L802.93784,69.3792042 C803.367998,68.8447845 804.087686,68.0097538 805.096904,66.874112 C806.327168,65.6010143 808.056238,64.9487935 809.812101,65.0954966 L820.681872,65.0954966 C823.055509,65.1225729 824.973177,67.0583298 825,69.4543569 L825,173.64114 C824.973177,176.037167 823.055509,177.972924 820.681872,178 L807.727488,178 C805.353851,177.972924 803.436183,176.037167 803.409359,173.64114 L803.409359,110.537868 L782.637674,146.836654 C782.006396,147.812805 781.256003,148.704938 780.40416,149.492051 C779.406841,150.420753 778.087375,150.91572 776.731269,150.869852 L768.392815,150.869852 C767.03627,150.918453 765.715808,150.423112 764.719924,149.492051 C763.868459,148.704571 763.118109,147.812488 762.48641,146.836654 L741.590641,110.537868 L741.590641,173.64114 C741.563817,176.037167 739.646149,177.972924 737.272512,178 L724.318128,178 C721.944491,177.972924 720.026823,176.037167 720,173.64114 L720,69.3792042 C720.026823,66.9831771 721.944491,65.0474201 724.318128,65.0203438 L735.187899,65.0203438 C736.943762,64.8736408 738.672832,65.5258616 739.903096,66.7989592 L742.06216,69.3040514 L772.562042,122.637463 Z" id="Path" fill="#14264A"></path>
            <path d="M930.671914,157.830377 C933.051025,157.857458 934.973115,159.793564 935,162.190022 L935,173.640355 C934.973115,176.036813 933.051025,177.972919 930.671914,178 L860.328086,178 C857.948975,177.972919 856.026885,176.036813 856,173.640355 L856,69.3596452 C856.026885,66.9631867 857.948975,65.0270812 860.328086,65 L929.378463,65 C931.757574,65.0270812 933.679664,66.9631867 933.706549,69.3596452 L933.706549,80.8099778 C933.679664,83.2064364 931.757574,85.1425418 929.378463,85.1696231 L877.640428,85.1696231 L877.640428,110.851441 L925.871222,110.851441 C928.240613,110.891979 930.147846,112.824224 930.174433,115.211086 L930.174433,126.661419 C930.147548,129.057878 928.225458,130.993983 925.846348,131.021064 L877.640428,131.021064 L877.640428,157.830377 L930.671914,157.830377 Z" id="Path" fill="#14264A"></path>
            <path d="M1038.51438,177.986138 C1036.98678,178.093954 1035.48152,177.569402 1034.34518,176.533259 C1033.6114,175.819413 1032.91556,175.066871 1032.26058,174.278791 L987.590525,107.145768 L987.590525,173.627501 C987.563701,176.023405 985.646044,177.959063 983.27242,177.986138 L970.318105,177.986138 C967.944481,177.959063 966.026823,176.023405 966,173.627501 L966,69.3709167 C966.026823,66.9750126 967.944481,65.039355 970.318105,65.0122801 L981.510434,65.0122801 C983.029642,64.9113829 984.524622,65.4354712 985.654822,66.465159 C986.614401,67.4337449 987.309269,68.185234 987.739425,68.7196262 L1032.40948,135.85265 L1032.40948,69.3709167 C1032.4363,66.9750126 1034.35396,65.039355 1036.72758,65.0122801 L1049.6819,65.0122801 C1052.05552,65.039355 1053.97318,66.9750126 1054,69.3709167 L1054,173.627501 C1053.97318,176.023405 1052.05552,177.959063 1049.6819,177.986138 L1038.51438,177.986138 Z" id="Path" fill="#14264A"></path>
            <path d="M1162.67335,65.0250554 C1165.05167,65.0521366 1166.97312,66.9882421 1167,69.3847007 L1167,80.8350333 C1166.97312,83.2314918 1165.05167,85.1675973 1162.67335,85.1946785 L1133.82905,85.1946785 L1133.82905,173.640355 C1133.80217,176.036813 1131.88072,177.972919 1129.5024,178 L1116.52246,178 C1114.14414,177.972919 1112.22269,176.036813 1112.19582,173.640355 L1112.19582,85.1946785 L1083.35151,85.1946785 C1080.96349,85.1811614 1079.0271,83.2411538 1079,80.8350333 L1079,69.3596452 C1079.02688,66.9631867 1080.94833,65.0270812 1083.32665,65 L1162.67335,65.0250554 Z" id="Path" fill="#14264A"></path>
            <path d="M1181.2519,107.680945 C1181.52996,101.872501 1182.70229,96.1404959 1184.72816,90.6840115 C1186.65047,85.4972865 1189.66467,80.7766104 1193.56993,76.8365098 C1197.72956,72.7432642 1202.70631,69.5589311 1208.18027,67.4881964 C1214.8237,65.0359677 1221.87577,63.8569865 1228.96221,64.0138232 C1235.98206,63.8629976 1242.96908,65.0071977 1249.56783,67.3882144 C1255.06167,69.4197936 1260.04628,72.6091603 1264.17817,76.7365278 C1268.08011,80.708067 1271.12318,85.4287622 1273.1207,90.6090251 C1275.2205,96.0746734 1276.42802,101.83775 1276.69772,107.680945 C1276.79848,109.730575 1276.88245,111.988501 1276.94962,114.454723 C1277.01679,116.920945 1277.01679,119.470485 1276.94962,122.103343 C1276.94962,124.736201 1276.94962,127.285741 1276.94962,129.751963 C1276.94962,132.218185 1276.86565,134.476111 1276.69772,136.525741 C1276.42005,142.334234 1275.24772,148.066298 1273.22146,153.522675 C1271.30054,158.710082 1268.28616,163.431035 1264.37969,167.370176 C1260.20861,171.461295 1255.20025,174.615266 1249.69378,176.618508 C1236.24619,181.127164 1221.67824,181.127164 1208.23065,176.618508 C1202.75255,174.602956 1197.77137,171.449872 1193.62031,167.370176 C1189.71384,163.431035 1186.69946,158.710082 1184.77854,153.522675 C1182.75228,148.066298 1181.57995,142.334234 1181.30228,136.525741 C1181.20152,134.492775 1181.11755,132.234849 1181.05038,129.751963 C1180.98321,127.269078 1180.98321,124.719538 1181.05038,122.103343 C1181.05038,119.470485 1181.05038,116.920945 1181.05038,114.454723 C1181.05038,111.988501 1181.11755,109.730575 1181.2519,107.680945 Z M1254.75702,108.480801 C1254.74361,101.739355 1252.02409,95.2809701 1247.19995,90.5340386 C1236.5327,82.0570343 1221.36654,82.0570343 1210.69929,90.5340386 C1205.87279,95.2793946 1203.15285,101.738798 1203.14222,108.480801 C1202.9239,112.563398 1202.81475,117.095913 1202.81475,122.078348 C1202.81475,127.060782 1202.9239,131.593298 1203.14222,135.675894 C1203.13641,142.399205 1205.86047,148.841353 1210.69929,153.54767 C1221.40548,161.913901 1236.49376,161.913901 1247.19995,153.54767 C1252.03877,148.841353 1254.76282,142.399205 1254.75702,135.675894 C1254.97533,131.593298 1255.08449,127.060782 1255.08449,122.078348 C1255.08449,117.095913 1254.97533,112.563398 1254.75702,108.480801 Z" id="Shape" fill="#14264A"></path>
            <path d="M1350.69135,65.0250556 C1364.03976,65.0250556 1374.18787,68.1486581 1381.13567,74.3958629 C1388.08347,80.6430677 1391.55738,89.3039654 1391.55738,100.378556 C1391.75632,107.446181 1389.888,114.416745 1386.18485,120.423063 C1382.38527,126.143027 1376.85478,130.475165 1370.41549,132.775491 L1392.52742,172.639005 C1392.819,173.187352 1392.98074,173.796198 1393,174.417955 C1392.98645,176.377246 1391.41305,177.962201 1389.46806,177.975855 L1375.83776,177.975855 C1374.12274,178.125537 1372.41994,177.574828 1371.11193,176.447462 C1370.2458,175.625568 1369.51532,174.669807 1368.94799,173.616175 L1347.95534,136.032723 L1326.63934,136.032723 L1326.63934,173.616175 C1326.61246,176.012653 1324.69047,177.948774 1322.31148,177.975855 L1309.32787,177.975855 C1306.94888,177.948774 1305.02688,176.012653 1305,173.616175 L1305,69.3596804 C1305.02688,66.9632025 1306.94888,65.0270814 1309.32787,65 L1350.69135,65.0250556 Z M1326.66422,115.862938 L1349.89542,115.862938 C1354.95204,116.101435 1359.98113,114.986212 1364.47089,112.630761 C1368.10232,110.475976 1369.91803,106.383556 1369.91803,100.3535 C1369.91803,94.3234441 1368.10232,90.289487 1364.47089,88.2516287 C1359.94671,86.0088379 1354.93223,84.9571938 1349.89542,85.1948413 L1326.66422,85.1948413 L1326.66422,115.862938 Z" id="Shape" fill="#14264A"></path>
            <path d="M1479.51242,122.637463 L1509.91696,69.3792042 C1510.34753,68.8447845 1511.0679,68.0097538 1512.07807,66.874112 C1513.3095,65.6010143 1515.0402,64.9487935 1516.79773,65.0954966 L1527.67779,65.0954966 C1530.05367,65.1225729 1531.97315,67.0583298 1532,69.4543569 L1532,173.64114 C1531.97315,176.037167 1530.05367,177.972924 1527.67779,178 L1514.71114,178 C1512.33526,177.972924 1510.41578,176.037167 1510.38893,173.64114 L1510.38893,110.537868 L1489.57275,146.836654 C1488.94259,147.814095 1488.19131,148.706436 1487.33712,149.492051 C1486.34029,150.423112 1485.01858,150.918453 1483.66075,150.869852 L1475.33925,150.869852 C1473.98142,150.918453 1472.65971,150.423112 1471.66288,149.492051 C1470.80869,148.706436 1470.05741,147.814095 1469.42725,146.836654 L1448.61107,110.537868 L1448.61107,173.64114 C1448.58422,176.037167 1446.66474,177.972924 1444.28886,178 L1431.32221,178 C1428.94633,177.972924 1427.02685,176.037167 1427,173.64114 L1427,69.3792042 C1427.02685,66.9831771 1428.94633,65.0474201 1431.32221,65.0203438 L1442.20227,65.0203438 C1443.9598,64.8736408 1445.6905,65.5258616 1446.92193,66.7989592 C1447.9321,67.9847029 1448.65247,68.8197336 1449.08304,69.3040514 L1479.51242,122.637463 Z" id="Path" fill="#14264A"></path>
            <path d="M1617.91498,65.0923152 C1619.35452,64.9735367 1620.77604,65.4752802 1621.81835,66.4700573 C1622.84698,67.6717848 1623.61821,69.0697065 1624.08482,70.5782339 L1663.82365,172.481053 C1663.94215,172.845121 1664.00165,173.225627 1663.99997,173.608297 C1663.97271,176.004222 1662.02674,177.939897 1659.61808,177.966972 L1647.93315,177.966972 C1646.29689,178.13787 1644.66099,177.640655 1643.40021,176.58923 C1642.63318,175.830759 1642.0254,174.928168 1641.61221,173.933945 L1634.63651,156.023297 L1583.36385,156.023297 L1576.38815,173.933945 C1575.97204,174.926611 1575.36462,175.828664 1574.60016,176.58923 C1573.33937,177.640655 1571.70347,178.13787 1570.06721,177.966972 L1558.38228,177.966972 C1555.97362,177.939897 1554.02765,176.004222 1554.00021,173.608297 C1553.99603,173.225431 1554.0556,172.844497 1554.17671,172.481053 L1593.91554,70.5030844 C1594.38215,68.994557 1595.15338,67.5966352 1596.18202,66.3949078 C1597.22432,65.4001306 1598.64585,64.8983871 1600.08539,65.0171656 L1617.91498,65.0923152 Z M1626.82977,135.933312 L1608.975,89.8165243 L1591.14541,135.908262 L1626.82977,135.933312 Z" id="Shape" fill="#14264A"></path>
            <path d="M1753.67213,65.0250554 C1756.05112,65.0521366 1757.97312,66.9882421 1758,69.3847007 L1758,80.8350333 C1757.97312,83.2314918 1756.05112,85.1675973 1753.67213,85.1946785 L1724.81967,85.1946785 L1724.81967,173.640355 C1724.79279,176.036813 1722.87079,177.972919 1720.4918,178 L1707.5082,178 C1705.12921,177.972919 1703.20721,176.036813 1703.18033,173.640355 L1703.18033,85.1946785 L1674.32787,85.1946785 C1671.94888,85.1675973 1670.02688,83.2314918 1670,80.8350333 L1670,69.3596452 C1670.02688,66.9631867 1671.94888,65.0270812 1674.32787,65 L1753.67213,65.0250554 Z" id="Path" fill="#14264A"></path>
            <path d="M1858.67191,157.830377 C1861.05102,157.857458 1862.97311,159.793564 1863,162.190022 L1863,173.640355 C1862.97311,176.036813 1861.05102,177.972919 1858.67191,178 L1788.32809,178 C1785.94898,177.972919 1784.02689,176.036813 1784,173.640355 L1784,69.3596452 C1784.02689,66.9631867 1785.94898,65.0270812 1788.32809,65 L1857.37846,65 C1859.75757,65.0270812 1861.67966,66.9631867 1861.70655,69.3596452 L1861.70655,80.8099778 C1861.67966,83.2064364 1859.75757,85.1425418 1857.37846,85.1696231 L1805.64043,85.1696231 L1805.64043,110.851441 L1853.87122,110.851441 C1856.27942,110.837502 1858.2466,112.785442 1858.27393,115.211086 L1858.27393,126.661419 C1858.24704,129.057878 1856.32495,130.993983 1853.94584,131.021064 L1805.64043,131.021064 L1805.64043,157.830377 L1858.67191,157.830377 Z" id="Path" fill="#14264A"></path>
            <path d="M1893.47622,81.712045 C1893.36277,81.6457514 1893.27556,81.5447726 1893.22843,81.4251613 L1893.22843,68.0133498 L1888.59488,68.0133498 C1888.43753,68.0112126 1888.28693,67.95138 1888.17365,67.846001 C1888.06071,67.7293664 1887.9986,67.5752836 1888.0002,67.4156755 L1888.0002,65.5987456 C1887.99634,65.4429814 1888.04892,65.2907968 1888.14887,65.1684201 C1888.26489,65.0521977 1888.42796,64.9910102 1888.59488,65.0010713 L1901.38051,65.0010713 C1901.54641,64.9969588 1901.70709,65.057246 1901.82652,65.1684201 C1901.93946,65.2850548 1902.00156,65.4391376 1902,65.5987456 L1902,67.4156755 C1902.00156,67.5752836 1901.93946,67.7293664 1901.82652,67.846001 C1901.70709,67.9571752 1901.54641,68.0174624 1901.38051,68.0133498 L1896.77174,68.0133498 L1896.77174,81.4251613 C1896.7788,81.574127 1896.72548,81.7198946 1896.62307,81.8315799 C1896.50705,81.9478023 1896.34397,82.0089898 1896.17706,81.9989287 L1893.69922,81.9989287 C1893.5962,81.9275785 1893.51836,81.8274421 1893.47622,81.712045 L1893.47622,81.712045 Z" id="Path" fill="#14264A"></path>
            <path d="M1905.17928,83.6530801 C1905.06467,83.5326592 1905.00049,83.3694638 1905.00089,83.1994577 L1905.00089,65.6682875 C1904.99225,65.4937338 1905.04686,65.3221995 1905.15379,65.1879814 C1905.27312,65.0582602 1905.44084,64.9899661 1905.61251,65.0011958 L1907.70221,65.0011958 C1908.02958,65 1908.32786,65.1977877 1908.46674,65.5081855 L1913.43616,75.1409898 L1918.533,65.5081855 C1918.67188,65.1977877 1918.97017,65 1919.29753,65.0011958 L1921.36175,65.0011958 C1921.53238,64.9966056 1921.69763,65.0638948 1921.82047,65.1879814 C1921.93662,65.3181627 1922.0005,65.4901416 1921.99886,65.6682875 L1921.99886,83.3328761 C1922.00958,83.5126295 1921.94436,83.6882429 1921.82047,83.8131821 C1921.69614,83.9348033 1921.53189,84.001684 1921.36175,84 L1919.14463,84 C1918.80684,84 1918.533,83.7132473 1918.533,83.3595597 L1918.533,71.6187456 L1914.93973,78.7432851 C1914.79933,79.1118165 1914.45186,79.34723 1914.07327,79.3303258 L1913.00293,79.3303258 C1912.63211,79.3192957 1912.29802,79.0929461 1912.13647,78.7432851 L1908.54319,71.6187456 L1908.54319,83.3328761 C1908.55046,83.4991435 1908.49562,83.6618413 1908.39029,83.7864984 C1908.27097,83.9162197 1908.10325,83.9845137 1907.93157,83.9732841 L1905.71445,83.9732841 C1905.49398,83.9753506 1905.28951,83.8530123 1905.17928,83.6530801 Z" id="Path" fill="#14264A"></path>
            <path d="M163.082448,45.7516036 C161.530655,41.0642458 156.024293,25.8054004 153.471343,20.6193875 C151.300219,15.9160454 148.496248,11.5291312 145.136713,7.57955721 C143.278351,5.39328324 141.111681,3.48688512 138.70428,1.91982206 C136.501735,0.673184358 135,0 135,0 L260.344831,0 C260.344831,0 263.723735,0 264.224314,0 C266.457409,0.429313848 268.588914,1.27525622 270.506573,2.4932754 C272.794307,3.82308397 274.855641,5.50620984 276.613629,7.47982619 C279.973165,11.4294002 282.777136,15.8163144 284.94826,20.5196565 C287.451152,25.7056694 292.732254,40.3162632 292.732254,40.3162632 L344.942581,195.0988 C346.494374,199.786158 352.000736,215.045003 354.553686,220.231016 C356.705058,224.985334 359.50099,229.423181 362.863287,233.420443 C364.721649,235.606717 366.888319,237.513115 369.29572,239.080178 C371.498265,240.326816 373,241 373,241 L247.680198,241 C247.680198,241 244.301294,241 243.800715,241 C241.56762,240.570686 239.436115,239.724744 237.518456,238.506725 C235.230721,237.176916 233.169388,235.49379 231.4114,233.520174 C228.051864,229.5706 225.247893,225.183686 223.076769,220.480343 C220.573877,215.294331 215.292775,200.683737 215.292775,200.683737 L163.082448,45.7516036 Z" id="Path" fill="#03A9F4"></path>
            <path d="M577.148797,20.5387802 C574.975133,15.8310547 572.16788,11.440052 568.804413,7.48679714 C567.044368,5.51134144 564.980622,3.82664695 562.69021,2.49559905 C560.770307,1.27644471 558.636308,0.429713954 556.400599,0 C555.874376,0 552.516576,0 552.516576,0 L427,0 C427,0 428.503493,0.673811743 430.708615,1.92161127 C433.118833,3.49013478 435.288039,5.3983096 437.148575,7.5866211 C440.530831,11.5045519 443.363227,15.8617443 445.568134,20.5387802 C448.073955,25.7296262 453.636878,41.0026923 455.190487,45.6944186 L521.193813,241 L653,241 L584.9419,40.3538366 C584.9419,40.3538366 579.679676,25.7296262 577.148797,20.5387802 Z" id="Path" fill="#03A9F4"></path>
            <path d="M431.982996,46.7702934 C431.982996,46.7702934 424.904453,26.7991007 422.34413,21.6065906 C420.698168,18.1767959 418.758204,14.8943805 416.545749,11.7957422 L416.169231,11.2714984 C415.449663,10.306224 414.71336,9.40752037 413.960324,8.57538734 L413.960324,8.57538734 C409.023768,3.11708337 401.989097,0 394.607287,0 C387.225478,0 380.190807,3.11708337 375.254251,8.57538734 L375.254251,8.57538734 C375.02834,8.82502725 374.802429,9.14955913 374.551417,9.42416303 C373.839871,10.2153189 373.177637,11.0490078 372.568421,11.9205621 C370.399318,14.9758399 368.493235,18.2076532 366.870445,21.5816266 C364.209717,26.8240647 359.189474,41.4529633 359.189474,41.4529633 L337,108.855739 L365.866397,196.229707 C367.422672,200.922937 372.944939,216.200899 375.505263,221.393409 C377.151225,224.823204 379.091189,228.105619 381.303644,231.204258 L381.680162,231.728502 C382.39973,232.693776 383.136032,233.59248 383.889069,234.424613 L383.889069,234.424613 C388.825625,239.882917 395.860296,243 403.242105,243 C410.623914,243 417.658585,239.882917 422.595142,234.424613 L422.595142,234.424613 C422.821053,234.174973 423.046964,233.850441 423.297976,233.575837 C424.009521,232.784681 424.671756,231.950992 425.280972,231.079438 C427.450075,228.02416 429.356158,224.792347 430.978947,221.418373 C433.489069,216.225863 438.785425,201.596965 438.785425,201.596965 L461,133.919585 L431.982996,46.7702934 Z" id="Path" fill="#14264A"></path>
            <path d="M131.946289,243 L0,243 L68.2809503,41.554629 C68.2809503,41.554629 73.523683,26.8721679 76.0823373,21.6606459 C77.7040685,18.274319 79.6089089,15.0306726 81.7765973,11.9642082 C82.385416,11.0894628 83.0472186,10.2527214 83.7583001,9.45866881 C83.9840637,9.18305947 84.2098274,8.88239473 84.4606758,8.6067854 L84.4606758,8.6067854 C89.3940129,3.12849631 96.4240965,0 103.801092,0 C111.178087,0 118.208171,3.12849631 123.141508,8.6067854 L123.141508,8.6067854 C123.894053,9.44196521 124.629876,10.3439594 125.348974,11.312768 L125.725247,11.8389313 C127.936259,14.948915 129.874958,18.2433487 131.519847,21.6857013 C134.028331,26.8972233 141.152427,46.9415388 141.152427,46.9415388 L170,134.635419 L131.946289,243 Z" id="Path" fill="#14264A"></path>
        </g>
    </g>
</svg>