<?xml version="1.0" encoding="UTF-8"?> <svg xmlns="http://www.w3.org/2000/svg" viewBox="0 0 940.21 124.12"><defs><style>.cls-1{fill:#00a7e1;}.cls-2{fill:#003058;}</style></defs><title>MF Logo</title><g id="Layer_2" data-name="Layer 2"><g id="Layer_1-2" data-name="Layer 1"><path class="cls-1" d="M121.86,0V121.69H101V35.46L60.84,97.52l-40-62.06v86.23H0V0H22.77L60.84,59.11,99.09,0Z"></path><path class="cls-1" d="M223.21,34.77v87.09H202.35V78.4a24.92,24.92,0,0,0-25-25,25.09,25.09,0,0,0-17.74,7.3,25,25,0,0,0,0,35.29,22.64,22.64,0,0,0,8.09,5.48,26.06,26.06,0,0,0,9.65,1.82,24.16,24.16,0,0,0,9.38-1.74l7.48,18.6a41,41,0,0,1-18.6,4,43.35,43.35,0,0,1-17.65-3.56,42.8,42.8,0,0,1-14-9.82,45.33,45.33,0,0,1-9.21-14.61,49.6,49.6,0,0,1,0-35.63,45.33,45.33,0,0,1,9.21-14.61,42.8,42.8,0,0,1,14-9.82,43.35,43.35,0,0,1,17.65-3.56,40.92,40.92,0,0,1,15.12,2.61,45.43,45.43,0,0,1,11.65,6.6V34.77Z"></path><path class="cls-1" d="M267.28,34.94a35.61,35.61,0,0,1,14-2.61V53.19a24.15,24.15,0,0,0-17.73,7.31,24.89,24.89,0,0,0-7.3,17.73v43.63H235.38V34.77h20.86v6.78A44.38,44.38,0,0,1,267.28,34.94Z"></path><path class="cls-1" d="M326.47,78.4l43.46,43.46H340.55L311.69,93v28.86H290.83V.17h20.86V63.63l28.68-28.69h29.56Z"></path><path class="cls-1" d="M428.51,88.83H383A21.57,21.57,0,0,0,388,96a24.44,24.44,0,0,0,8.17,5.48,25.37,25.37,0,0,0,9.56,1.82,24.4,24.4,0,0,0,12.69-3.3l21.73,8.69A43.89,43.89,0,0,1,425,120a47.25,47.25,0,0,1-37.2.52,45.77,45.77,0,0,1-24.42-24.43,46.23,46.23,0,0,1,0-35.63,45.77,45.77,0,0,1,24.42-24.43,46.81,46.81,0,0,1,35.81,0A45.75,45.75,0,0,1,448.07,60.5a45.18,45.18,0,0,1,3.56,17.9,42.92,42.92,0,0,1-1.22,10.43ZM405.74,53.37A24.86,24.86,0,0,0,388,60.67,23.54,23.54,0,0,0,383,68h45.55a23.68,23.68,0,0,0-5-7.3A24.14,24.14,0,0,0,405.74,53.37Z"></path><path class="cls-1" d="M507.08,121.86H488a27.57,27.57,0,0,1-11.12-2.26,27.87,27.87,0,0,1-9-6.17,30,30,0,0,1-6.09-9.13,27.57,27.57,0,0,1-2.26-11.12V17.38l20.86-5.21v33.2h12.17l5.22,20.86H480.31v27a7.57,7.57,0,0,0,2.26,5.56A7.36,7.36,0,0,0,488,101h13.91Z"></path><path class="cls-2" d="M534.9,21V50.59h45.37l5.21,20.86H534.9v50.41H514V.17h81.87V21Z"></path><path class="cls-2" d="M638.33,32.51a45.27,45.27,0,0,1,17.91,3.56A45.77,45.77,0,0,1,680.66,60.5a46.35,46.35,0,0,1,0,35.63,45.77,45.77,0,0,1-24.42,24.43,46.81,46.81,0,0,1-35.81,0A45.75,45.75,0,0,1,596,96.13a46.35,46.35,0,0,1,0-35.63,45.75,45.75,0,0,1,24.43-24.43A45.18,45.18,0,0,1,638.33,32.51Zm0,20.86a24.92,24.92,0,0,0-25,25A23.93,23.93,0,0,0,620.6,96a22.6,22.6,0,0,0,8.08,5.48,26.1,26.1,0,0,0,9.65,1.82,25.41,25.41,0,0,0,9.56-1.82A24.44,24.44,0,0,0,656.06,96a25,25,0,0,0,0-35.29A24.89,24.89,0,0,0,638.33,53.37Z"></path><path class="cls-2" d="M725.68,34.94a35.66,35.66,0,0,1,14-2.61V53.19A24.11,24.11,0,0,0,722,60.5a24.89,24.89,0,0,0-7.3,17.73v43.63H693.78V34.77h20.87v6.78A44.5,44.5,0,0,1,725.68,34.94Z"></path><path class="cls-2" d="M820.86,110.74a46.06,46.06,0,0,1-14.6,9.82,46.81,46.81,0,0,1-35.81,0A45.83,45.83,0,0,1,746,96.13a46.35,46.35,0,0,1,0-35.63,45.83,45.83,0,0,1,24.43-24.43,46.81,46.81,0,0,1,35.81,0,46.06,46.06,0,0,1,14.6,9.82L806.08,60.67a24.1,24.1,0,0,0-17.73-7.3,24.89,24.89,0,0,0-17.73,7.3,25,25,0,0,0,0,35.29,24.64,24.64,0,0,0,8.17,5.48,25.41,25.41,0,0,0,9.56,1.82A23.76,23.76,0,0,0,806.08,96Z"></path><path class="cls-2" d="M889.35,88.83H843.81a21.54,21.54,0,0,0,5,7.13,24.44,24.44,0,0,0,8.17,5.48,25.41,25.41,0,0,0,9.56,1.82,24.4,24.4,0,0,0,12.69-3.3L901,108.65A43.85,43.85,0,0,1,885.88,120a46,46,0,0,1-61.63-23.91,46.35,46.35,0,0,1,0-35.63,45.77,45.77,0,0,1,24.42-24.43,46.83,46.83,0,0,1,35.82,0A45.77,45.77,0,0,1,908.91,60.5a45.18,45.18,0,0,1,3.56,17.9,42.92,42.92,0,0,1-1.21,10.43ZM866.58,53.37a24.89,24.89,0,0,0-17.73,7.3,23.51,23.51,0,0,0-5,7.3h45.54a23.68,23.68,0,0,0-5-7.3A24.14,24.14,0,0,0,866.58,53.37Z"></path><path class="cls-2" d="M930.13,23.82a9.67,9.67,0,0,1,3.93.81,10.23,10.23,0,0,1,3.2,2.15A10.48,10.48,0,0,1,939.41,30a10.08,10.08,0,0,1,0,7.87,10.75,10.75,0,0,1-2.15,3.22,10,10,0,0,1-3.2,2.19,10.05,10.05,0,0,1-7.86,0,10.32,10.32,0,0,1-5.41-5.41,10,10,0,0,1,0-7.87A10.21,10.21,0,0,1,923,26.78a10.73,10.73,0,0,1,3.23-2.15A9.67,9.67,0,0,1,930.13,23.82Zm6.32,16.47a11.32,11.32,0,0,0,1.95-2.89,8.67,8.67,0,0,0,.67-3.5,8.93,8.93,0,0,0-.67-3.49,9.55,9.55,0,0,0-4.77-4.77,9,9,0,0,0-3.5-.68,8.62,8.62,0,0,0-3.49.68,9.32,9.32,0,0,0-2.83,1.95,7.65,7.65,0,0,0-1.94,2.82,9.13,9.13,0,0,0-.74,3.49,8.5,8.5,0,0,0,.74,3.5,9.47,9.47,0,0,0,1.94,2.89,9.26,9.26,0,0,0,2.83,1.88,8.45,8.45,0,0,0,3.49.74,9.23,9.23,0,0,0,6.32-2.62Zm-6-12.1a4.14,4.14,0,0,1,3.46,6.35A3.89,3.89,0,0,1,932.22,36l2.35,3.7h-2.35l-2.09-3.3h-1.34l.8-2h.88a2,2,0,0,0,1.48-.6,2.17,2.17,0,0,0,.67-1.55,2.3,2.3,0,0,0-2.15-2.15h-2.35v9.55h-2V28.19Z"></path></g></g></svg> 