<?xml version="1.0" encoding="UTF-8"?>
<svg width="2560px" height="1440px" viewBox="0 0 2560 1440" version="1.1" xmlns="http://www.w3.org/2000/svg" xmlns:xlink="http://www.w3.org/1999/xlink">
    <!-- Generator: Sketch 61 (89581) - https://sketch.com -->
    <title>Moni</title>
    <desc>Created with Sketch.</desc>
    <g id="Moni" stroke="none" stroke-width="1" fill="none" fill-rule="evenodd">
        <g id="monimedia_svg-logo" transform="translate(743.000000, 183.000000)" fill="#FFB819" fill-rule="nonzero">
            <path d="M0,0 L0,1074 L1074,1074 L1074,0 L0,0 Z M390.999719,643.863419 L352.365902,643.863419 L352.365902,509.517002 C352.365902,482.687963 337.442248,465.58445 314.570492,465.58445 C289.552412,465.58445 273.320843,479.602623 273.320843,515.654145 L273.320843,643.896956 L234.653489,643.896956 L234.653489,515.654145 C234.653489,479.636159 218.388384,465.58445 193.403841,465.58445 C170.565621,465.58445 155.608431,482.687963 155.608431,509.517002 L155.608431,643.863419 L117.00815,643.863419 L117.00815,500.696956 C117.00815,461.191194 149.504824,428.69452 192.531897,428.69452 C216.242061,428.69452 239.952225,438.352974 254.037471,458.50829 C268.055644,438.319438 291.765808,428.69452 315.509508,428.69452 C358.536581,428.69452 391.066792,461.191194 391.066792,500.696956 L391.066792,643.863419 L390.999719,643.863419 Z M534.568618,648.290211 C476.148384,648.290211 425.240281,603.485714 425.240281,538.492365 C425.240281,473.46548 476.18192,428.69452 534.568618,428.69452 C592.988852,428.69452 643.964028,473.46548 643.964028,538.492365 C643.964028,603.452178 592.988852,648.290211 534.568618,648.290211 Z M856.48356,643.863419 L817.816206,643.863419 L817.816206,520.885808 C817.816206,488.389133 794.106042,465.58445 766.438595,465.58445 C738.771148,465.58445 715.060984,488.389133 715.060984,520.885808 L715.060984,643.863419 L676.460703,643.863419 L676.460703,520.885808 C676.460703,465.58445 715.060984,428.69452 766.438595,428.69452 C817.816206,428.69452 856.48356,465.58445 856.48356,520.885808 L856.48356,643.863419 L856.48356,643.863419 Z M956.622951,643.863419 L918.02267,643.863419 L918.02267,433.054239 L956.622951,433.054239 L956.622951,643.863419 Z M937.306042,409.344075 C922.382389,409.344075 914.065386,397.908197 914.065386,386.069883 C914.065386,374.198033 922.415925,362.762155 937.306042,362.762155 C952.263232,362.762155 960.580234,374.198033 960.580234,386.069883 C960.580234,397.908197 952.263232,409.344075 937.306042,409.344075 Z" id="Shape"></path>
            <path d="M534.949647,465 C494.969594,465 466,494.885005 466,538 C466,581.081417 495.003162,611 534.949647,611 C574.996838,611 604,581.081417 604,538 C604,494.918583 574.963269,465 534.949647,465 Z" id="Path"></path>
        </g>
    </g>
</svg>