<?xml version="1.0" encoding="UTF-8"?>
<svg width="46px" height="43px" viewBox="0 0 46 43" version="1.1" xmlns="http://www.w3.org/2000/svg" xmlns:xlink="http://www.w3.org/1999/xlink">
    <title>F79DB963-A506-44AB-B536-1FA60CA577A1</title>
    <defs>
        <linearGradient x1="50%" y1="0%" x2="50%" y2="100%" id="linearGradient-1">
            <stop stop-color="#B03478" offset="0%"></stop>
            <stop stop-color="#9E79BB" offset="99.9918051%"></stop>
        </linearGradient>
    </defs>
    <g id="High-fidelity" stroke="none" stroke-width="1" fill="none" fill-rule="evenodd">
        <g id="Digital-River---Terms---Landing" transform="translate(-783.000000, -876.000000)" fill-rule="nonzero">
            <g id="Benefits" transform="translate(-2.000000, 414.000000)">
                <g id="cards" transform="translate(340.000000, 40.000000)">
                    <g id="elements-/-card-/-icon+h3+p-copy-3" transform="translate(403.000000, 389.000000)">
                        <g id="icons-/-folder" transform="translate(42.000000, 33.000000)">
                            <g id="Group" transform="translate(1.916667, 1.791667)">
                                <path d="M17.5121628,0.722951409 C26.6837298,0.722951409 34.1453293,7.69788862 34.1453293,16.2712376 C34.1453293,16.778931 33.7051537,17.1904717 33.1619625,17.1904717 C32.6187714,17.1904717 32.1785958,16.778931 32.1785958,16.2712376 C32.1785958,8.71161261 25.5992036,2.5614196 17.5121628,2.5614196 C9.42512209,2.5614196 2.8457685,8.71164876 2.8457685,16.2712376 C2.8457685,23.8308266 9.42516076,29.9811641 17.5122015,29.9811641 C18.0553154,29.9811641 18.4955682,30.3927049 18.4955682,30.9003982 C18.4955682,31.4080916 18.0552767,31.8196324 17.5121628,31.8196324 C8.34059584,31.8196324 0.878996426,24.8446952 0.878996426,16.2712376 C0.878996426,7.69788862 8.34059584,0.722951409 17.5121628,0.722951409 Z M17.5121628,5.74790501 C23.7196314,5.74790501 28.7696815,10.4686041 28.7696815,16.2712376 C28.7696815,16.778931 28.3294286,17.1904717 27.7863148,17.1904717 C27.2432009,17.1904717 26.802948,16.778931 26.802948,16.2712376 C26.802948,11.4823642 22.6351437,7.58640935 17.5122015,7.58640935 C12.3892593,7.58640935 8.22145495,11.4824004 8.22145495,16.2712376 C8.22145495,21.060075 12.3892593,24.956066 17.5122015,24.956066 C18.0553154,24.956066 18.4955682,25.3676067 18.4955682,25.8753001 C18.4955682,26.3830296 18.0552767,26.7945703 17.5121628,26.7945703 C11.304733,26.7945703 6.2546442,22.0738713 6.2546442,16.2712376 C6.2546442,10.4686041 11.3046944,5.74790501 17.5121628,5.74790501 Z M18.7513286,11.2888298 C20.3434314,11.6232315 21.7241278,12.6534388 22.4447736,14.0448332 C22.6814698,14.5017753 22.4769853,15.0515445 21.9881635,15.2728041 C21.4993417,15.4940637 20.9111391,15.3029151 20.6745201,14.845973 C20.212767,13.9544641 19.3326094,13.295276 18.3201245,13.0826919 C16.6397777,12.7300356 14.8484107,13.60282 14.2421109,15.0704135 C13.6216965,16.5719859 14.3085838,18.3613656 15.8058688,19.1442147 C16.2799189,19.392079 16.4492529,19.9522225 16.1841731,20.395284 C16.0040889,20.6963576 15.6695974,20.8659622 15.3249743,20.8659622 C15.1624462,20.8659622 14.9977526,20.8282964 14.8458586,20.74888 C12.5132339,19.5292592 11.4421646,16.7439763 12.4074726,14.4079722 C13.3722006,12.0727995 16.0991774,10.7319034 18.7513286,11.2888298 Z" id="Combined-Shape" fill="#0075D7"></path>
                                <path d="M17.7166111,16.6346307 C17.710138,16.6358591 17.7040463,16.6388333 17.6991738,16.6433893 C17.6940637,16.6481642 17.6908992,16.6538728 17.6895846,16.6599258 C17.6882559,16.6660445 17.6888898,16.6725214 17.6914292,16.6785592 L26.3712162,36.7047685 C26.3755452,36.7147545 26.3849792,36.7221188 26.3963526,36.7242749 C26.4079895,36.7264849 26.4196767,36.7230935 26.4278252,36.7154765 L30.8022797,32.6264406 L38.2505558,39.5889596 C38.2573893,39.5953489 38.2662642,39.5984636 38.2751214,39.5984636 C38.2841601,39.5984636 38.2931454,39.5951406 38.3000249,39.5887162 L42.2454574,35.9006667 C42.251944,35.8946031 42.2555019,35.8863472 42.2555019,35.8777815 C42.2555019,35.8692184 42.251944,35.86096 42.2454508,35.8548903 L34.7969638,28.8921743 L39.1715765,24.8029479 C39.1799028,24.7951671 39.1831992,24.7841121 39.1809044,24.7735344 C39.1785912,24.7628719 39.1706568,24.7540611 39.1598969,24.7499842 L17.7166111,16.6346307 Z" id="Shape" stroke="url(#linearGradient-1)" stroke-width="1.97999999"></path>
                            </g>
                        </g>
                    </g>
                </g>
            </g>
        </g>
    </g>
</svg>