<?xml version="1.0" encoding="UTF-8"?> <svg xmlns="http://www.w3.org/2000/svg" viewBox="0 0 394 397.07"><defs><style>.cls-1,.cls-11{fill:#00a7e1;}.cls-1{opacity:0.4;}.cls-2{opacity:0.8;}.cls-3{fill:#606060;}.cls-4{fill:#b7b7b7;}.cls-5{fill:#939393;}.cls-6{fill:#fff;}.cls-7{fill:#003058;}.cls-8{fill:#e3e3e3;}.cls-9{fill:#f7f6f0;}.cls-10{fill:#92b7c2;}.cls-12{fill:#b6e8fb;}.cls-13{fill:#3a3a3a;}</style></defs><title>digital-river-content-graphics-v1_isolated</title><g id="Layer_2" data-name="Layer 2"><path class="cls-1" d="M196.55,392.65h0v0Zm0,0h-.09c-1.37,0-2.74,0-4.1,0h0v-.84c1.36,0,2.72.05,4.09.05Zm4.18,0h0v0Zm0,0v-.84c1.39,0,2.78-.08,4.16-.14l0,.43-.07-.42.08.83v0C203.53,392.52,202.13,392.57,200.73,392.6Zm-12.55-.13h0c-1.4-.06-2.8-.13-4.19-.22h-.05l.1-.83c1.39.09,2.78.16,4.18.22l0,.42.07-.41Zm16.79,0-.06-.42Zm4.14-.22,0-.42h0l0-.43c1.39-.09,2.78-.2,4.17-.32l0,.42v-.42l.07.84h0C211.9,392,210.5,392.15,209.11,392.24Zm-29.3-.3v0Zm0,0c-1.4-.12-2.79-.25-4.18-.4l.05-.42h0l0-.43c1.38.15,2.77.29,4.16.41l0,.42v-.42l-.05.83,0-.26Zm37.63-.42,0-.83c1.39-.15,2.77-.32,4.15-.5l.12.83-.06-.37,0,.37c-1.38.18-2.77.35-4.17.5h-.05Zm-46-.47c-1.39-.18-2.78-.38-4.16-.59h0l.13-.83-.06.42.07-.42c1.37.21,2.75.4,4.13.58l0,.4.07-.4-.12.84h0Zm54.34-.62-.14-.82.08.4-.06-.41c1.37-.21,2.75-.43,4.12-.67l.07.41-.13-.4.2.81c-1.38.25-2.75.47-4.14.68l-.06-.41v0Zm-62.62-.64h0l.07-.41-.07.41c-1.38-.24-2.75-.49-4.12-.76h0l-.06,0,.22-.81c1.36.27,2.73.53,4.1.77h0Zm66.76,0,0-.1,0,.1Zm.06,0-.12-.4Zm4.07-.76-.09-.41h0l-.09-.42c1.37-.27,2.73-.56,4.09-.86l.09.41-.13-.4.2.82,0-.3.06.29C236.79,388.41,235.42,388.7,234.05,389Zm-79.1-.81h0c-1.37-.3-2.73-.62-4.09-.95l.1-.41v0l.1-.42c1.35.33,2.71.64,4.07.94l-.09.42.13-.41Zm83.24-.06-.12-.4Zm4-.93-.16-.82c1.35-.33,2.7-.68,4.05-1l.1.41-.06-.42.19.82h0c-1.34.36-2.69.71-4.05,1h-.05Zm-95.4-1,.07-.41Zm0,0c-1.36-.36-2.7-.74-4-1.13l.11-.39-.13.39.13-.39-.13.39.24-.81-.1.39.11-.39c1.34.39,2.68.77,4,1.13l-.1.4.06-.41ZM250.34,385l-.26-.8.15.4-.12-.4c1.34-.39,2.67-.8,4-1.22l.25.81c-1.33.41-2.67.82-4,1.21l-.11-.4h0Zm-111.62-1.16h0c-1.34-.42-2.67-.85-4-1.3l0,0,.31-.78c1.32.45,2.65.89,4,1.31l-.11.35L139,383Zm115.64-.05v0Zm4-1.31-.3-.78.17.38-.14-.4c1.32-.44,2.64-.91,3.95-1.38l.3.78-.11-.28.09.29c-1.31.47-2.63.94-3.95,1.39l-.1-.29Zm3.82-1.79.11.32Zm-131.42.45h0c-1.32-.48-2.63-1-3.94-1.48h0l.33-.77c1.3.51,2.61,1,3.92,1.48l-.14.39.16-.39Zm135.47-1.53-.31-.78.21.47-.19-.48c1.3-.5,2.58-1,3.86-1.55l.17.39-.12-.41.31.78h0c-1.29.53-2.58,1-3.88,1.56l-.12-.28Zm-143.29-1.51.13-.4Zm0,0c-1.3-.54-2.59-1.09-3.87-1.66l.17-.38h0l.17-.39c1.28.57,2.56,1.11,3.85,1.65l-.16.39.12-.41-.3.79.13-.26Zm151-1.66-.28-.8c1.27-.56,2.54-1.13,3.79-1.72l.38.75h0l-.2-.39.19.39c-1.26.59-2.53,1.17-3.81,1.73h0Zm-158.7-1.73.1-.23-.11.22c-1.27-.59-2.54-1.2-3.79-1.82l.37-.75c1.25.62,2.51,1.22,3.77,1.81Zm.17-.39-.15.32Zm-4-1.44h0l.37-.75Zm170.13,0-.38-.75.33.62-.32-.63c1.25-.62,2.49-1.24,3.72-1.89l.21.41-.2-.41.38.75h0c-1.24.64-2.48,1.27-3.73,1.89h0ZM107.65,371h0l.18-.37-.19.37c-1.24-.65-2.48-1.31-3.71-2l0,0,.45-.71q1.83,1,3.69,2ZM289,369l-.21-.36h0l-.21-.37c1.22-.67,2.43-1.36,3.63-2.05l.21.37-.23-.36.43.73-.12-.25.13.24C291.38,367.63,290.17,368.31,289,369ZM100.3,366.93l0,0h0c-1.21-.7-2.42-1.42-3.61-2.14l.2-.34-.22.33.23-.33-.23.33.44-.72-.19.34.2-.33c1.2.72,2.4,1.44,3.6,2.13l-.21.37.24-.35Zm192.31,0-.22-.35Zm3.57-2.11-.43-.72.13.2-.12-.21c1.19-.72,2.36-1.45,3.54-2.2l.22.35-.21-.36.45.71,0,0h0c-1.18.74-2.36,1.48-3.55,2.2h0ZM93.09,362.55l.24-.35-.24.35c-1.18-.76-2.35-1.52-3.51-2.3l.23-.35-.23.35.44-.72-.38.62.4-.6c1.16.77,2.33,1.54,3.5,2.29Zm210.14-2.25-.44-.71h0c1.15-.77,2.29-1.55,3.43-2.35l.5.68-.19-.24.17.25c-1.14.8-2.3,1.59-3.46,2.37h0Zm3.24-2.72.23.32Zm-220.34.3h0c-1.14-.8-2.28-1.62-3.41-2.45l.18-.25-.19.24.48-.68-.21.35.24-.33q1.68,1.23,3.39,2.43l-.24.35.27-.33Zm224-2.38-.47-.7h0c1.12-.82,2.23-1.66,3.33-2.5l.26.33-.23-.35.5.67h0q-1.67,1.28-3.36,2.52h0ZM79.37,352.92l.17-.26-.19.24.25-.33-.26.33c-1.11-.85-2.2-1.72-3.3-2.59h0l.54-.65-.44.55.44-.55c1.09.87,2.18,1.74,3.29,2.58Zm237.39-2.54-.54-.65.27.31-.25-.32c1.08-.87,2.16-1.75,3.22-2.65l.15.19-.15-.19.54.65h0c-1.07.89-2.15,1.78-3.24,2.66l-.26-.33.13.16-.11-.13ZM72.82,347.65h0l.27-.32-.27.32q-1.6-1.35-3.18-2.73h0l0,0,.58-.6c1,.91,2.1,1.82,3.17,2.72ZM323.18,345l-.27-.32h0l-.28-.32c1.05-.92,2.08-1.85,3.11-2.79l.28.31-.26-.33.57.62,0,0C325.28,343.13,324.23,344.07,323.18,345ZM66.52,342.12l.26-.32Zm0,0c-1-.94-2-1.9-3.06-2.86l.29-.31v0l.3-.32c1,1,2,1.91,3,2.86l-.29.31.27-.33-.55.63.15-.16Zm262.84-2.74-.54-.64c1-1,2-1.94,3-2.92l.6.59c-1,1-2,2-3,2.93h0Zm3-3-.6-.59.6.58Zm-271.93-.08h0c-1-1-2-2-2.92-3h0l0,0,.64-.55c1,1,1.93,2,2.92,3ZM335.3,333.4l-.3-.29h0l-.31-.3c1-1,1.91-2,2.85-3l.31.28-.32-.26.63.55-.15-.15.15.15C337.23,331.37,336.27,332.39,335.3,333.4Zm2.89-3.09-.32-.27Zm-283.54-.05,0,0h0c-.94-1-1.87-2.07-2.8-3.12l.32-.28h0l.32-.28c.91,1,1.84,2.08,2.78,3.1l-.31.29.33-.26Zm286.3-3-.6-.58c.92-1.05,1.82-2.1,2.72-3.17h0l.66.52,0,0-.38-.32.38.32q-1.35,1.61-2.73,3.18h0ZM49.1,323.94l.33-.26-.33.26c-.89-1.07-1.78-2.15-2.66-3.24l.22-.17-.22.17.3-.24-.3.24.65-.54-.31.27.32-.26c.87,1.09,1.75,2.17,2.65,3.23l-.27.22.27-.22Zm297.27-3.14-.65-.54.36.29-.36-.29c.88-1.08,1.74-2.18,2.59-3.28l.68.49-.25-.17.24.19-.34-.26.34.26c-.86,1.11-1.72,2.21-2.6,3.3h0ZM43.86,317.42h0c-.85-1.11-1.69-2.23-2.51-3.35l0,0,.69-.47c.83,1.12,1.66,2.23,2.51,3.33l-.34.26.36-.23Zm307.63-3.27-.68-.49.35.22-.34-.24c.83-1.13,1.64-2.26,2.44-3.4l.35.24-.33-.26.68.49h0c-.81,1.15-1.62,2.29-2.45,3.41l-.25-.17Zm-.32-.25h0ZM38.91,310.67l.24-.19-.26.17q-1.2-1.71-2.37-3.45l0,0,0,0v0l.71-.44c.78,1.16,1.56,2.3,2.36,3.44Zm.32-.25-.3.21Zm317.1-3.16-.72-.44.36.21-.34-.24c.77-1.16,1.54-2.32,2.29-3.5l.71.46h0c-.76,1.18-1.52,2.35-2.3,3.51L356,307l.35.23h0l-.22-.14ZM34.24,303.71v0h0c-.75-1.17-1.49-2.36-2.21-3.55h0l.72-.43-.21.13.21-.13c.73,1.19,1.46,2.37,2.21,3.54l-.36.23.37-.22Zm326.6-3.51-.71-.44.35.2-.35-.22c.73-1.19,1.44-2.39,2.14-3.59l.36.21-.35-.24.73.42v0h0c-.71,1.21-1.42,2.42-2.15,3.61l-.36-.22h0ZM29.89,296.56l.36-.22Zm0,0c-.7-1.21-1.38-2.42-2.06-3.65l.37-.2h0l.38-.21c.67,1.22,1.35,2.43,2.05,3.63l-.37.21.35-.23-.72.43.24-.12ZM365,293l-.71-.45c.67-1.22,1.33-2.45,2-3.69l.76.38h0l-.41-.21.41.21c-.65,1.25-1.31,2.48-2,3.71h0ZM25.85,289.21h0c-.65-1.24-1.28-2.48-1.9-3.73h0l.75-.38-.65.34.65-.33q.93,1.88,1.89,3.72l-.39.2.39-.2ZM369,285.47l-.75-.38.75.37Zm0,0-.75-.38c.62-1.24,1.22-2.5,1.81-3.76h0l.76.34-.23-.1.23.12C370.18,282.94,369.58,284.2,369,285.46Zm1.45-4,.31.14Zm-348.25.24h0l.39-.2-.39.19c-.59-1.26-1.17-2.53-1.73-3.81h0l0-.06.79-.28c.56,1.27,1.14,2.54,1.73,3.79Zm350.37-3.89-.39-.17h0l-.38-.17c.56-1.28,1.11-2.56,1.64-3.85l.39.16-.4-.12.78.3-.25-.13.26.11Q373.36,275.9,372.52,277.84ZM18.78,274.09l0,0h0c-.53-1.29-1.05-2.58-1.56-3.88l.28-.11-.29.09.78-.31-.47.21.48-.18c.51,1.29,1,2.58,1.56,3.86l-.39.16.4-.12Zm355.41-.17-.4-.12Zm1.54-3.84-.77-.32h0c.5-1.3,1-2.6,1.48-3.91l.38.14-.38-.17.79.29v0h0c-.48,1.32-1,2.64-1.48,3.94h0Zm-360-3.8.27-.12-.28.1c-.48-1.32-1-2.63-1.4-4l.29-.1-.29.1.78-.31-.4.18.42-.14c.45,1.32.91,2.63,1.39,3.94Zm.39-.17-.33.12Zm362.49-3.92-.79-.31c.45-1.32.89-2.65,1.31-4l.37.11-.37-.12.81.24v0c-.42,1.33-.86,2.66-1.31,4h0ZM13,258.31c-.42-1.33-.82-2.67-1.22-4l.81-.24c.39,1.34.79,2.67,1.21,4h0Zm.11,0h0l.34-.09Zm-1.33-4,.41-.12-.41.12.8-.26Zm369.35-.14-.8-.26c.39-1.34.76-2.68,1.12-4l.4.1-.41-.06.82.17c-.36,1.35-.73,2.7-1.12,4h0ZM10.67,250.28v0c-.36-1.34-.7-2.69-1-4l0-.06.83-.15c.33,1.35.67,2.7,1,4l-.41.11.41-.07Zm371.61-.23-.41-.07Zm1-4-.41-.1h0l-.43-.11c.33-1.35.64-2.71.94-4.07l.41.09-.4-.13.82.18v0h0C384,243.31,383.64,244.67,383.31,246ZM8.68,242.15l.4-.12Zm0,0c-.3-1.36-.59-2.73-.86-4.11l.41-.08h0l.42-.08c.27,1.37.56,2.73.86,4.09l-.41.09.4-.13-.81.2.29,0ZM385.1,237.9l-.8-.23c.26-1.36.52-2.73.76-4.1l.41.07-.39-.13.81.18v0h0c-.24,1.38-.5,2.76-.77,4.12h0Zm-378-4,.4-.12Zm0-.06H7l.12,0Zm0,0c-.24-1.38-.47-2.76-.68-4.14l.37-.06-.37.06.39-.06-.39,0,.83-.13-.4.07.4-.06c.21,1.38.44,2.76.68,4.12l-.41.08.4-.14Zm379.53-4.29-.82-.14.42.06-.42-.07c.21-1.37.4-2.75.58-4.13l.41.05-.41-.07.83.12h0c-.18,1.39-.37,2.77-.58,4.15Zm-380.8-4,.42-.06-.42.06.37-.06-.37.05c-.18-1.39-.35-2.77-.5-4.17h0v0l.83,0c.16,1.39.32,2.77.5,4.15Zm381.89-4.35-.42,0h0l-.42-.05c.15-1.38.28-2.77.4-4.16l.41,0h-.41l.84.05-.25,0,.25,0C387.94,218.47,387.8,219.86,387.65,221.25Zm-382.8-4v0c-.12-1.39-.23-2.79-.32-4.19L5,213h0l.43,0c.09,1.39.2,2.78.32,4.16l-.43,0h.43ZM388.06,217h0Zm.31-4.1-.84-.1c.09-1.39.17-2.78.23-4.17h.42l-.42-.06.84,0v0h0c-.06,1.4-.14,2.8-.23,4.19h0Zm-384.06-4,.41-.06Zm0-.06c-.06-1.39-.1-2.78-.14-4.18l.83,0H5c0,1.4.08,2.78.14,4.17l-.42,0,.42-.07-.84.08h0Zm384.43-4.36h-.84c0-1.39.05-2.78.05-4.17V200h.84v.35c0,1.4,0,2.79,0,4.19Zm-384.62-4v-.19c0-1.34,0-2.68,0-4H5c0,1.33,0,2.66,0,4v.18ZM388.78,200h0Zm-.89-4.18h0c0-1.4-.08-2.79-.15-4.18h.42l-.41.06.83-.07h0c.06,1.39.11,2.79.15,4.19l-.8,0h0ZM5.12,192.2l-.83-.06v0h0c.06-1.4.13-2.8.22-4.19h0v0l.84.1c-.09,1.39-.16,2.78-.22,4.17H4.71Zm383-.61.42-.06Zm-.65-4.15c-.09-1.39-.2-2.78-.32-4.16l.42,0h-.42l.83-.07v0c.12,1.39.23,2.78.32,4.18l-.42,0h0ZM5.66,183.81l-.43,0h.43l-.84-.05.27,0-.27,0c.12-1.4.25-2.79.4-4.18l.42,0h0l.44.05C5.91,181,5.78,182.42,5.66,183.81Zm-.42,0h0Zm381.54-4.66c-.15-1.38-.32-2.76-.5-4.13h0l.83-.13-.42.06.42,0-.37.06.37,0c.18,1.38.35,2.77.5,4.16h0v.06ZM6.55,175.52l-.84-.12h0c.18-1.39.38-2.77.59-4.15v0l.83.14-.37-.05.37.06c-.21,1.37-.4,2.75-.58,4.13l-.43-.05Zm379.14-4.66.41-.08-.42.06c-.21-1.38-.44-2.75-.68-4.12l.41-.07-.39.13.81-.2-.14,0,.14,0c.24,1.38.47,2.76.68,4.14l-.41.07.41-.06-.41.06.41-.06ZM7.8,167.24,7,167.12v0l.34.06L7,167.1c.24-1.38.5-2.76.77-4.13h0v-.06l.81.23c-.27,1.36-.52,2.73-.76,4.1Zm377.61-.6.4-.12Zm-1.18-4c-.28-1.37-.56-2.73-.87-4.09l.42-.09-.4.13.81-.2-.3,0,.3-.06c.3,1.36.59,2.73.86,4.1l-.41.09h0ZM9.4,159.09l-.82-.18v0h0c.3-1.37.62-2.73.95-4.09l.41.1h0l.41.1c-.32,1.35-.64,2.7-.94,4.07L9,159Zm374.37-.66.4-.12Zm-1.36-4c-.33-1.35-.68-2.7-1-4l.41-.11-.42.07.82-.2v0h0c.37,1.35.71,2.7,1.05,4.06h0v0Zm-371-3.53-.41-.11.42.07-.82-.18c.36-1.35.74-2.7,1.13-4v0l.8.25C12.12,148.24,11.74,149.58,11.38,150.93Zm-.4-.1-.42-.08Zm369.27-4.41.8-.26-.4.12.4-.12Zm0,0c-.39-1.34-.8-2.67-1.22-4l.39-.12-.39.11.8-.26v0h0c.43,1.33.83,2.67,1.23,4ZM13.71,142.91l-.81-.24v0c.42-1.34.85-2.67,1.3-4h0l0,0,.78.31c-.45,1.32-.88,2.65-1.3,4l-.41-.13Zm364-4.44.38-.17-.39.13c-.45-1.32-.92-2.63-1.39-3.93l.78-.31-.28.11.28-.09c.48,1.31.95,2.63,1.4,3.95l-.28.1.28-.09Zm-.91-4.16-.11,0,.32-.11ZM16.39,135l-.79-.29v0c.48-1.32,1-2.63,1.48-3.93v0l.77.33c-.51,1.3-1,2.61-1.47,3.92l-.4-.14Zm358.46-4.38.5-.22-.5.2c-.51-1.29-1-2.58-1.56-3.86l.38-.16-.4.11.78-.31v0h0c.54,1.28,1.06,2.57,1.57,3.87l-.28.12.29-.1ZM19.43,127.15,19,127l.4.12-.78-.3.26.13-.27-.11q.81-2,1.65-3.87l.39.17h0l.39.17C20.51,124.58,20,125.86,19.43,127.15ZM19,127l-.4-.12Zm352.61-4.09c-.57-1.27-1.14-2.54-1.73-3.79l.75-.38h0l-.39.2.39-.19q.88,1.89,1.74,3.81h0l0,.06ZM22.8,119.49l-.77-.35.23.1-.22-.11h0c.59-1.27,1.2-2.54,1.82-3.79l.75.37C24,117,23.39,118.22,22.8,119.49Zm-.52-.24.13,0-.28-.13Zm2.33-3.55-.75-.36h0Zm343.51-.32.67-.35-.68.34c-.62-1.25-1.25-2.49-1.89-3.71l.36-.19-.36.18.74-.39h0c.64,1.24,1.27,2.47,1.89,3.72h0ZM26.5,112l-.75-.38h0l.41.21-.41-.21c.65-1.25,1.31-2.48,2-3.71h0l0,0,.71.44C27.81,109.51,27.15,110.74,26.5,112Zm337.75-4c-.67-1.22-1.36-2.43-2.05-3.63l.36-.21-.35.23.72-.43-.24.12.23-.13c.7,1.2,1.39,2.42,2.06,3.64l-.36.2h0ZM30.52,104.66l-.73-.41,0,0h0c.7-1.21,1.41-2.42,2.14-3.62l.36.22-.35-.23.71.44-.36-.21.36.22c-.73,1.19-1.44,2.39-2.14,3.6l-.36-.21Zm332-.52.35-.23Zm-2.49-3.36.2-.13-.2.13c-.73-1.19-1.46-2.37-2.21-3.54l.37-.24-.38.23.71-.46v0h0c.75,1.17,1.49,2.36,2.21,3.55h0ZM34.88,97.49,34.17,97c.75-1.18,1.52-2.36,2.3-3.52l.34.23-.34-.23h0l.23.16-.23-.16.71.44-.36-.2.34.23C36.39,95.15,35.63,96.31,34.88,97.49Zm320.69-3.74c-.77-1.15-1.56-2.3-2.36-3.44l.67-.5-.24.19.26-.17q1.2,1.71,2.37,3.45l-.07,0,.07,0,0,0ZM353.63,90l-.07.06.27-.19Zm-314.12.55-.68-.49v0c.8-1.14,1.62-2.28,2.45-3.41l.25.18-.24-.19.68.49-.39-.26.37.28c-.82,1.12-1.63,2.26-2.43,3.4l-.35-.24Zm311.26-3.63c-.82-1.12-1.66-2.23-2.5-3.33l.33-.26-.35.23.67-.5h0c.85,1.11,1.69,2.23,2.52,3.35h0l0,0ZM44.47,83.8l-.68-.49.26.17-.24-.2.32.26-.32-.26c.85-1.11,1.71-2.21,2.59-3.3h0l.65.54-.49-.39.48.39C46.18,81.59,45.32,82.69,44.47,83.8Zm301.22-3.47.31-.27-.32.26c-.87-1.09-1.75-2.16-2.65-3.23l.28-.23-.28.23.64-.54h0q1.35,1.61,2.67,3.24l-.23.19.23-.19L346,80l.3-.24Zm-2-3.77-.31.26Zm-294,.72-.66-.53h0l.41.34-.41-.34c.9-1.07,1.81-2.14,2.74-3.19h0l0,0,.61.58c-.92,1-1.83,2.1-2.72,3.17Zm290.6-3.35c-.92-1-1.85-2.08-2.79-3.11l.31-.28-.33.26.62-.56,0,0h0c.94,1,1.88,2.07,2.8,3.12l-.31.27h0ZM55.22,71l-.31-.29.32.26-.63-.55.15.15-.15-.14c.94-1,1.9-2.05,2.86-3.06l.31.29,0,0,.32.31C57.11,69,56.16,70,55.22,71Zm-.32-.28-.32-.27Zm279.76-2.94c-1-1-1.94-2-2.92-3l.59-.6h0q1.49,1.48,2.94,3h0l0,0ZM61,65l-.6-.59h0Zm0,0-.59-.59c1-1,2-2,3-2.94l0,0L64,62C63,63,62,64,61,65Zm267.76-3.08c-1-1-2-1.91-3.05-2.85l.28-.31-.26.32.55-.63-.15.15.15-.15c1,.94,2.05,1.9,3.06,2.86l-.29.31h0ZM67,59.2l-.57-.62,0,0h0c1-.94,2.07-1.88,3.12-2.8l.28.32h0l.28.32c-1,.92-2.08,1.85-3.11,2.79l-.28-.31Zm259-.49.27-.32Zm-3.39-2.47c-1-.92-2.11-1.83-3.17-2.72l.52-.66h0l-.18.23.19-.23c1.07.9,2.13,1.81,3.18,2.74h0l0,0ZM73.29,53.67,72.75,53l0,0,0,0c1.07-.9,2.15-1.79,3.24-2.66l.26.32-.16-.2.11.14L76,50.37l.54.64-.27-.3.26.31c-1.09.87-2.16,1.76-3.23,2.65l-.17-.21Zm242.9-2.8.28-.36-.29.36c-1.08-.87-2.18-1.73-3.29-2.58l.49-.68-.17.25.2-.24-.26.33.26-.33c1.11.85,2.21,1.72,3.3,2.59h0ZM79.77,48.46l-.5-.67h0c1.11-.86,2.23-1.7,3.35-2.52h0l0,0,.47.69h0c-1.12.82-2.22,1.66-3.32,2.5l-.26-.34Zm229.8-2.66.26-.4-.28.38c-1.12-.82-2.26-1.64-3.4-2.44l.24-.34-.26.33.49-.69v0h0c1.15.8,2.28,1.61,3.41,2.44h0l-.18.25.19-.24Zm-223-2.3L86,42.83l.2.24L86,42.81q1.71-1.2,3.45-2.37v0h0l.44.71C88.8,41.91,87.66,42.7,86.52,43.5Zm-.31-.42.07.08-.22-.31ZM302.73,41l.2-.37-.23.35c-1.16-.77-2.32-1.53-3.49-2.28h0l.45-.71-.23.35.23-.35c1.18.75,2.35,1.52,3.52,2.29l-.23.35.23-.34ZM93.44,38.86l-.46-.7h0c1.18-.75,2.36-1.49,3.56-2.22h0l.43.73-.12-.19.11.19c-1.18.72-2.36,1.46-3.53,2.21l-.24-.38ZM295.66,36.5l.2-.37-.21.36c-1.2-.72-2.4-1.44-3.61-2.13l.21-.36-.23.34.41-.73,0,0h0c1.22.7,2.42,1.41,3.62,2.14l-.22.36.24-.35-.24.35.24-.35Zm-195.09-2-.21-.36.23.35-.43-.72.12.23-.14-.23c1.21-.7,2.43-1.38,3.65-2.06l.4.74C103,33.14,101.77,33.82,100.57,34.52Zm-.22-.36-.23-.35Zm188-1.85c-1.22-.68-2.45-1.33-3.69-2l.37-.75h0l-.21.42.21-.41c1.24.64,2.48,1.3,3.7,2h0l0,0ZM107.86,30.5l-.39-.74h0c1.23-.65,2.47-1.28,3.72-1.9h0l.38.76-.34-.65.33.65q-1.87.93-3.72,1.89l-.21-.41ZM281,28.44l.37-.75h0Zm0,0c-1.25-.62-2.51-1.22-3.77-1.81l.34-.76-.1.23.11-.23c1.27.59,2.54,1.2,3.79,1.82Zm-3.54-2.33-.05.12.12-.25Zm-162.1.69-.38-.75h0l.2.39L115,26c1.26-.59,2.53-1.17,3.81-1.73h0l.06,0,.28.79C117.85,25.64,116.58,26.22,115.33,26.8Zm158.05-1.89c-1.28-.56-2.56-1.11-3.85-1.65l.16-.38-.12.4.3-.78-.13.24.11-.25q1.95.8,3.87,1.65l-.17.38h0ZM122.9,23.45l-.32-.77,0,0h0c1.28-.53,2.58-1.05,3.88-1.56l.11.28-.09-.29.3.78-.2-.46.18.47c-1.29.51-2.58,1-3.86,1.56l-.16-.38Zm146.78-.58.12-.4Zm-4-1.16c-1.3-.51-2.61-1-3.93-1.48l.15-.39-.17.39.29-.79h0c1.32.48,2.63,1,3.94,1.48h0Zm-134.93-1.3-.31-.79.12.28-.1-.28c1.31-.48,2.63-.95,4-1.4l.1.29-.1-.29.31.78-.18-.38.14.39C133.33,19.46,132,19.93,130.71,20.41Zm-.19-.5,0,.1-.11-.3Zm127.24-1.06c-1.32-.45-2.65-.88-4-1.3l.13-.4-.14.4.24-.81h0c1.34.42,2.68.86,4,1.3l0,0ZM138.62,17.71l-.25-.8h0c1.33-.42,2.66-.83,4-1.22l.23.8C141.27,16.89,139.94,17.29,138.62,17.71Zm-.23-.72,0-.08h0Zm4.25-.5-.26-.8Zm107.13-.14c-1.33-.39-2.68-.76-4-1.12l.11-.41-.07.42.17-.82c1.36.36,2.7.73,4,1.12h0Zm-103.18-1-.19-.82h0c1.34-.37,2.69-.71,4-1l.06,0,.16.83c-1.35.33-2.7.68-4.05,1l-.1-.41Zm99.26-.56.07-.41Zm-4.15-.62c-1.35-.33-2.71-.64-4.07-.94l.09-.41-.14.4.19-.82h0c1.37.3,2.73.62,4.09,1l-.1.4h0Zm-86.95-.82-.09-.41.13.4-.2-.82,0,.3-.07-.29c1.37-.31,2.74-.59,4.11-.87l.08.41h0l.08.42C157.47,12.79,156.1,13.08,154.75,13.38Zm-.1-.41-.13-.4Zm78.89-.56c-1.37-.26-2.73-.52-4.11-.76l.12-.83h0l-.07.42.07-.42c1.39.24,2.76.49,4.13.76h0l.06,0Zm-70.6-.66-.07-.42.13.4-.2-.81,0,.15,0-.15q2.07-.36,4.14-.69l.13.83C165.68,11.28,164.31,11.5,162.94,11.75Zm-.08-.42-.13-.4Zm4.22-.27-.14-.83ZM225.31,11l.05-.36-.05.36c-1.38-.21-2.75-.41-4.14-.58l.06-.42-.07.41.11-.83h0c1.39.18,2.77.37,4.15.58h0Zm-54.11-.52-.13-.83.07.39,0-.39c1.38-.18,2.77-.35,4.16-.5h.06l0,.83C174,10.13,172.57,10.29,171.2,10.47ZM217,9.92c-1.38-.15-2.76-.28-4.15-.4l0-.42v.42l0-.84,0,.26,0-.26c1.39.12,2.78.25,4.17.4l0,.42h0Zm-37.56-.35-.07-.84h0c1.39-.12,2.78-.23,4.18-.32l0,.41h0l0,.43c-1.39.1-2.78.2-4.16.32l0-.41Zm29.24-.36c-1.39-.09-2.78-.16-4.17-.22l0-.42-.07.42.06-.84h0c1.4.06,2.8.13,4.19.22h.05Zm4.19-.11v0ZM187.83,9V8.59l.07.42-.08-.84c1.38-.06,2.77-.1,4.17-.13l0,.84C190.61,8.91,189.22,9,187.83,9ZM192,8.87V8h0Zm8.37,0v0c-1.3,0-2.6,0-3.9,0h-.27V8h.27c1.31,0,2.61,0,3.92,0h0Zm-4.19,0V8h0Zm-8.37-.23-.06-.41Zm0-.19V8.18h0Z"></path><path class="cls-1" d="M196.45,353.13c-84.26,0-152.81-68.56-152.81-152.81S112.19,47.51,196.45,47.51s152.81,68.55,152.81,152.81S280.71,353.13,196.45,353.13Zm0-304.78c-83.8,0-152,68.17-152,152s68.17,152,152,152,152-68.18,152-152S280.24,48.35,196.45,48.35Z"></path></g><g id="Layer_1" data-name="Layer 1"><g class="cls-2"><rect class="cls-3" x="48.27" y="77.44" width="295.45" height="10.88"></rect><path class="cls-4" d="M123,88.32V83a2.42,2.42,0,0,0-2.45-2.39h-62A2.42,2.42,0,0,0,56.09,83v5.36H48.27v14.51H343.73V88.32Z"></path><rect class="cls-5" x="48.27" y="102.83" width="295.45" height="172.61"></rect><path class="cls-6" d="M322.23,100.18H78.4a2.87,2.87,0,0,1-2.9-2.83V93.8A2.86,2.86,0,0,1,78.4,91H322.23a2.85,2.85,0,0,1,2.89,2.82v3.55A2.86,2.86,0,0,1,322.23,100.18Z"></path><rect class="cls-7" x="333.24" y="93.52" width="4.89" height="0.53"></rect><rect class="cls-7" x="333.24" y="95.24" width="4.89" height="0.53"></rect><rect class="cls-7" x="333.24" y="96.97" width="4.89" height="0.53"></rect><polygon class="cls-7" points="56.7 98.84 57.09 98.46 54.46 95.88 57.13 93.28 56.73 92.89 54.06 95.5 53.7 95.85 53.67 95.88 56.7 98.84"></polygon><rect class="cls-7" x="54.33" y="95.58" width="6.13" height="0.57"></rect><polygon class="cls-7" points="68.37 98.84 67.98 98.46 70.62 95.88 67.95 93.28 68.34 92.89 71.01 95.5 71.38 95.85 71.41 95.88 68.37 98.84"></polygon><rect class="cls-7" x="64.61" y="95.58" width="6.13" height="0.57"></rect><polygon class="cls-7" points="82.99 94.11 81.5 95.05 82.72 95.29 82.99 94.11"></polygon><path class="cls-7" d="M82.32,96a1.72,1.72,0,1,1-1.67-2.11,1.73,1.73,0,0,1,1.48.82l.35-.21a2.16,2.16,0,0,0-1.83-1,2.09,2.09,0,1,0,2,2.68Z"></path><path class="cls-7" d="M120.53,85.16h0a.17.17,0,0,1-.23,0l-1.88-1.84a.14.14,0,0,1,0-.22h0a.16.16,0,0,1,.22,0l1.89,1.84A.16.16,0,0,1,120.53,85.16Z"></path><path class="cls-7" d="M120.53,85.16h0a.17.17,0,0,1-.23,0l-1.88-1.84a.14.14,0,0,1,0-.22h0a.16.16,0,0,1,.22,0l1.89,1.84A.16.16,0,0,1,120.53,85.16Z"></path><path class="cls-7" d="M120.53,83.1h0a.16.16,0,0,1,0,.22l-1.89,1.84a.16.16,0,0,1-.22,0h0a.14.14,0,0,1,0-.22l1.88-1.84A.17.17,0,0,1,120.53,83.1Z"></path><path class="cls-7" d="M337.55,84.7h0a.3.3,0,0,1-.4,0l-3.33-3.26a.26.26,0,0,1,0-.38h0a.28.28,0,0,1,.4,0l3.33,3.25A.27.27,0,0,1,337.55,84.7Z"></path><path class="cls-7" d="M337.55,84.7h0a.3.3,0,0,1-.4,0l-3.33-3.26a.26.26,0,0,1,0-.38h0a.28.28,0,0,1,.4,0l3.33,3.25A.27.27,0,0,1,337.55,84.7Z"></path><path class="cls-7" d="M337.55,81.06h0a.26.26,0,0,1,0,.38l-3.33,3.26a.3.3,0,0,1-.4,0h0a.27.27,0,0,1,0-.39l3.33-3.25A.28.28,0,0,1,337.55,81.06Z"></path><path class="cls-7" d="M329.56,84.94h-3.14a.31.31,0,0,1-.31-.31h0a.3.3,0,0,1,.31-.3h3.14a.3.3,0,0,1,.31.3h0A.31.31,0,0,1,329.56,84.94Z"></path></g><rect class="cls-8" x="166.59" y="146.57" width="54.89" height="39.95" rx="5.68" transform="translate(360.57 -27.49) rotate(90)"></rect><rect class="cls-8" x="220.34" y="146.57" width="54.89" height="39.95" rx="5.68" transform="translate(414.32 -81.24) rotate(90)"></rect><rect class="cls-8" x="272.93" y="146.57" width="54.89" height="39.95" rx="5.68" transform="translate(466.92 -133.83) rotate(90)"></rect><rect class="cls-8" x="113.54" y="146.57" width="54.89" height="39.95" rx="5.68" transform="translate(307.53 25.55) rotate(90)"></rect><rect class="cls-8" x="60.5" y="146.57" width="54.89" height="39.95" rx="5.68" transform="translate(254.49 78.6) rotate(90)"></rect><rect class="cls-8" x="166.59" y="222.28" width="54.89" height="39.95" rx="5.68" transform="translate(436.28 48.23) rotate(90)"></rect><rect class="cls-8" x="220.34" y="222.28" width="54.89" height="39.95" rx="5.68" transform="translate(490.04 -5.53) rotate(90)"></rect><rect class="cls-8" x="272.93" y="222.28" width="54.89" height="39.95" rx="5.68" transform="translate(542.63 -58.12) rotate(90)"></rect><rect class="cls-8" x="113.54" y="222.28" width="54.89" height="39.95" rx="5.68" transform="translate(383.24 101.27) rotate(90)"></rect><rect class="cls-8" x="60.5" y="222.28" width="54.89" height="39.95" rx="5.68" transform="translate(330.2 154.31) rotate(90)"></rect><path class="cls-6" d="M74,182.42v2.38h28.7v-2.38Zm0,7.14H91.67v-2.39H74Z"></path><path class="cls-6" d="M127.08,182.42v2.38h28.69v-2.38Zm0,7.14h17.63v-2.39H127.08Z"></path><path class="cls-6" d="M180.12,182.42v2.38h28.69v-2.38Zm0,7.14h17.63v-2.39H180.12Z"></path><path class="cls-6" d="M233.16,182.42v2.38h28.69v-2.38Zm0,7.14H250.8v-2.39H233.16Z"></path><path class="cls-6" d="M286.2,182.42v2.38h28.69v-2.38Zm0,7.14h17.64v-2.39H286.2Z"></path><path class="cls-6" d="M74,254.74v2.39h28.7v-2.39Zm0,7.14H91.67v-2.39H74Z"></path><path class="cls-6" d="M127.08,254.74v2.39h28.69v-2.39Zm0,7.14h17.63v-2.39H127.08Z"></path><path class="cls-6" d="M180.12,254.74v2.39h28.69v-2.39Zm0,7.14h17.63v-2.39H180.12Z"></path><path class="cls-6" d="M233.16,254.74v2.39h28.69v-2.39Zm0,7.14H250.8v-2.39H233.16Z"></path><path class="cls-6" d="M286.2,254.74v2.39h28.69v-2.39Zm0,7.14h17.64v-2.39H286.2Z"></path><rect class="cls-8" x="182.88" y="-15.76" width="23.15" height="271.75" rx="3.22" transform="translate(314.57 -74.33) rotate(90)"></rect><path class="cls-9" d="M172.73,117.49H139.37a2.63,2.63,0,0,0,0,5.26h33.36a2.63,2.63,0,1,0,0-5.26Zm46.08,0H185.45a2.63,2.63,0,1,0,0,5.26h33.36a2.63,2.63,0,0,0,0-5.26Zm46.09,0H231.54a2.63,2.63,0,1,0,0,5.26H264.9a2.63,2.63,0,0,0,0-5.26Z"></path><rect class="cls-9" x="66.58" y="114.01" width="22.22" height="12.22" rx="2.43"></rect><path class="cls-10" d="M329,204.17H59.91a1.34,1.34,0,1,1,0-2.67H329a1.34,1.34,0,0,1,0,2.67Z"></path><rect class="cls-11" x="199.1" y="306.15" width="3.47" height="0.58"></rect><path class="cls-11" d="M289.45,306.72h-7.24v-.57h7.24Zm-14.48,0h-7.24v-.57H275Zm-14.48,0h-7.24v-.57h7.24Zm-14.48,0h-7.24v-.57H246Zm-14.48,0h-7.24v-.57h7.24Zm-14.48,0h-7.24v-.57h7.24Z"></path><polygon class="cls-11" points="300.45 306.73 296.69 306.73 296.69 306.15 299.87 306.15 299.87 302.97 300.45 302.97 300.45 306.73"></polygon><path class="cls-11" d="M300.45,296.16h-.58v-6.82h.58Zm0-13.63h-.58v-6.81h.58Z"></path><rect class="cls-11" x="299.87" y="265.44" width="0.58" height="3.47"></rect><path class="cls-11" d="M68.34,288.9a1.3,1.3,0,0,0-1.3,1.3v31.12a1.3,1.3,0,0,0,1.3,1.3H116V320a.4.4,0,0,1,.69-.28l2.88,2.87H159.6V288.9Z"></path><path class="cls-12" d="M195.48,321.32V290.2a1.3,1.3,0,0,0-1.3-1.3H159.6v33.72h34.58A1.3,1.3,0,0,0,195.48,321.32Z"></path><path class="cls-6" d="M87.35,311.35h-4.1V301.23h3.94c2.17,0,3,1.2,3,2.65a2.63,2.63,0,0,1-1.08,2,2.75,2.75,0,0,1,1.62,2.51C90.78,310,89.78,311.35,87.35,311.35Zm-2-6.05h1.54c1,0,1.45-.58,1.45-1.32s-.42-1.32-1.45-1.32H85.31ZM87,306.73H85.31v3.19H87c1.28,0,1.79-.69,1.79-1.6S88.28,306.73,87,306.73Z"></path><path class="cls-6" d="M96.91,311.64c-2.67,0-4.66-1.53-4.66-5v-5.45h2.09v5.38c0,2.2,1,3.26,2.6,3.26s2.6-1.06,2.6-3.26v-5.38h2v5.45C101.55,310.11,99.57,311.64,96.91,311.64Z"></path><path class="cls-6" d="M108.56,307.3v4.05h-2V307.3l-4-6.07h2.25l2.78,4.4,2.78-4.4h2.18Z"></path><path class="cls-6" d="M124,311.35l-5.3-6.68v6.68h-1.84V301.23h1.44l5.29,6.68v-6.68h1.84v10.12Z"></path><path class="cls-6" d="M132.51,311.64a5.35,5.35,0,1,1,5.46-5.35A5.3,5.3,0,0,1,132.51,311.64Zm0-9.06c-2,0-3.36,1.52-3.36,3.71s1.33,3.71,3.36,3.71,3.31-1.51,3.31-3.71S134.5,302.58,132.51,302.58Z"></path><path class="cls-6" d="M149.11,311.35h-1.5l-2-6.05c-.07-.21-.18-.68-.2-.78,0,.05-.15.57-.22.78l-2,6.05h-1.5l-3.48-10.12h2.05l2,6.36c.07.22.18.88.2,1s.17-.71.25-1l2-6.36h1.47l2,6.36.24,1a7.84,7.84,0,0,1,.2-1l2-6.36h2Z"></path><path class="cls-13" d="M177.82,301.85a.5.5,0,0,1-.5-.5v-7a.5.5,0,0,1,1,0v7A.5.5,0,0,1,177.82,301.85Z"></path><path class="cls-13" d="M177.82,301.85a.51.51,0,0,1-.36-.15l-3-3a.5.5,0,0,1,.71-.71l2.66,2.66,2.66-2.66a.5.5,0,0,1,.7,0,.5.5,0,0,1,0,.71l-3,3A.47.47,0,0,1,177.82,301.85Z"></path><path class="cls-13" d="M183.34,317.91a2,2,0,1,1,2-2A2,2,0,0,1,183.34,317.91Zm0-3a1,1,0,1,0,1,1A1,1,0,0,0,183.34,314.9Z"></path><path class="cls-13" d="M172.3,317.91a2,2,0,1,1,2-2A2,2,0,0,1,172.3,317.91Zm0-3a1,1,0,1,0,1,1A1,1,0,0,0,172.3,314.9Z"></path><path class="cls-13" d="M183.34,314.9h-11a.5.5,0,0,1-.49-.39l-3.92-16.67h-3.12a.51.51,0,0,1,0-1h3.52a.49.49,0,0,1,.48.39l3.93,16.67h10.64a.51.51,0,0,1,0,1Z"></path><path class="cls-13" d="M184.84,312.89h-13a.5.5,0,0,1,0-1h12.65l2.68-8H169.7a.51.51,0,0,1,0-1h18.15a.49.49,0,0,1,.41.21.49.49,0,0,1,.07.45l-3,9A.51.51,0,0,1,184.84,312.89Z"></path><polygon class="cls-11" points="199.49 327.64 194.44 327.64 194.44 326.87 198.71 326.87 198.71 322.6 199.49 322.6 199.49 327.64"></polygon><path class="cls-11" d="M185.18,327.64h-9.26v-.77h9.26Zm-18.52,0h-9.27v-.77h9.27Zm-18.53,0h-9.26v-.77h9.26Zm-18.52,0h-9.27v-.77h9.27Zm-18.53,0h-9.26v-.77h9.26Zm-18.52,0H83.29v-.77h9.27Z"></path><polygon class="cls-11" points="74.03 327.64 68.98 327.64 68.98 322.6 69.76 322.6 69.76 326.87 74.03 326.87 74.03 327.64"></polygon><rect class="cls-11" x="68.98" y="304.96" width="0.78" height="8.82"></rect><polygon class="cls-11" points="69.76 296.13 68.98 296.13 68.98 291.09 74.03 291.09 74.03 291.87 69.76 291.87 69.76 296.13"></polygon><path class="cls-11" d="M185.18,291.87h-9.26v-.78h9.26Zm-18.52,0h-9.27v-.78h9.27Zm-18.53,0h-9.26v-.78h9.26Zm-18.52,0h-9.27v-.78h9.27Zm-18.53,0h-9.26v-.78h9.26Zm-18.52,0H83.29v-.78h9.27Z"></path><polygon class="cls-11" points="199.49 296.13 198.71 296.13 198.71 291.87 194.44 291.87 194.44 291.09 199.49 291.09 199.49 296.13"></polygon><rect class="cls-11" x="198.71" y="304.96" width="0.78" height="8.82"></rect><path class="cls-13" d="M129.6,329.12l-10.19-10.18-2.87-2.88a.41.41,0,0,0-.69.29v18.47a.4.4,0,0,0,.63.33l4.33-2.95,2,6.09a.41.41,0,0,0,.54.25L127,337a.4.4,0,0,0,.2-.56l-2.93-5.68,5.15-1A.41.41,0,0,0,129.6,329.12Z"></path></g></svg> 