<?xml version="1.0" encoding="UTF-8"?> <svg xmlns="http://www.w3.org/2000/svg" viewBox="0 0 394 392.31"><defs><style>.cls-1,.cls-5{fill:#00a7e1;}.cls-1{opacity:0.4;}.cls-2,.cls-8{opacity:0.9;}.cls-3,.cls-8{isolation:isolate;}.cls-4{fill:#e3e3e3;}.cls-6{fill:#b6e8fb;}.cls-7{fill:#fff;}.cls-9{fill:#606060;}.cls-10{fill:#939393;}</style></defs><title>digital-river-content-graphics-v1_isolated</title><g id="Layer_2" data-name="Layer 2"><path class="cls-1" d="M197.55,387.89h0v0Zm0,0h-.09c-1.37,0-2.74,0-4.1-.05h0V387c1.36,0,2.72.05,4.09.05Zm4.18-.05h0V387c1.4,0,2.78-.08,4.17-.13l0,.41-.05-.41.06.83v0c-1.39.06-2.79.11-4.19.14l0-.81Zm-12.54-.13h0c-1.4-.06-2.8-.13-4.19-.22h0l.08-.84c1.39.09,2.78.16,4.17.22v.42l.05-.42Zm16.77,0,0-.42Zm4.15-.22,0-.84c1.39-.09,2.78-.2,4.17-.32l0,.43v-.43l.08.84h0C212.9,387.28,211.5,387.39,210.1,387.48Zm-29.29-.3v0Zm0,0c-1.4-.11-2.79-.25-4.18-.4l.09-.83c1.38.14,2.77.28,4.16.4l0,.41v-.41l-.06.83.05-.28Zm37.63-.41,0-.84c1.39-.15,2.77-.32,4.15-.5l.08.59-.08-.59.13.83h0c-1.39.18-2.77.35-4.17.5h-.05Zm-46-.48c-1.39-.18-2.78-.38-4.16-.59l0-.19,0,.19.12-.83,0,.41.07-.41c1.37.21,2.75.4,4.13.58h0l-.1.84,0-.19h0Zm-4.11-.93,0,.17,0-.24Zm58.43.32-.1-.84c1.37-.21,2.75-.43,4.12-.67l.17.82-.07-.29.05.29-.08-.41.07.41c-1.37.25-2.75.47-4.13.68Zm-62.6-.65,0-.19,0,.19.06-.42-.07.41c-1.38-.24-2.75-.49-4.12-.76h0l.19-.82c1.36.27,2.73.53,4.11.77Zm70.87-.8-.18-.82.11.39-.08-.4c1.37-.27,2.73-.56,4.09-.86l.19.82-.07-.29.06.29c-1.36.3-2.72.59-4.09.86h0l-.06-.29Zm4-1.28,0,.18Zm-83.12.46h0c-1.37-.3-2.73-.62-4.08-.95l.2-.81c1.35.33,2.71.64,4.07.94l-.1.45.11-.45Zm87.24-1-.14-.82c1.35-.33,2.7-.68,4.05-1l.1.41-.05-.42.2.81h0c-1.35.36-2.7.71-4.06,1h-.06Zm-95.37-1,.07-.42Zm-.05,0c-1.36-.36-2.71-.74-4-1.13l.08-.28-.09.28.22-.81-.09.39.12-.39c1.33.39,2.68.77,4,1.13l-.1.39,0-.41-.18.82.08-.23Zm103.56-1.17-.21-.81c1.34-.39,2.67-.8,4-1.22l.12.39-.1-.39.24.8h0c-1.33.42-2.67.82-4,1.21h0Zm-111.6-1.17.07-.28-.09.28.12-.39-.12.39c-1.34-.42-2.67-.86-4-1.31h0L136,377c1.33.45,2.66.89,4,1.31Zm119.62-1.36-.29-.79Zm0,0-.27-.8c1.32-.44,2.63-.91,3.94-1.38l.28.79v0C262,376.79,260.67,377.26,259.35,377.71Zm-127.61-1.34h0c-1.32-.48-2.63-1-3.94-1.48h0l.29-.79-.11.33.13-.32c1.3.51,2.61,1,3.92,1.48l-.15.41.15-.41Zm135.47-1.53-.29-.78Zm0,0-.31-.79c1.3-.5,2.59-1,3.87-1.55l.16.39-.14-.4.33.77,0,0h0C269.82,373.81,268.53,374.33,267.23,374.84Zm-143.32-1.51.14-.4Zm0,0q-1.95-.8-3.87-1.65l.17-.38v0l.18-.41c1.28.57,2.56,1.11,3.85,1.65l-.16.4.13-.41-.31.78L124,373Zm151-1.66-.29-.79c1.27-.56,2.54-1.13,3.79-1.72l.38.76h0l-.21-.41.2.41c-1.26.59-2.53,1.17-3.81,1.73h0Zm-158.72-1.73c-1.27-.59-2.54-1.2-3.79-1.82l.37-.75c1.25.62,2.51,1.22,3.77,1.81l-.19.41.2-.4Zm-3.79-1.82h0l.37-.75Zm170.13,0-.37-.75.3.59-.3-.6c1.25-.62,2.49-1.24,3.72-1.89l.19.38-.18-.38.38.75h0q-1.85,1-3.72,1.89Zm-173.87-1.89h0l.19-.38-.2.38c-1.24-.65-2.48-1.31-3.71-2l0,0,.45-.71q1.83,1,3.69,2Zm181.3-2-.21-.36h0l-.21-.37c1.22-.67,2.43-1.35,3.63-2.05l.21.36-.23-.34.43.72-.12-.24.13.23C292.39,362.87,291.17,363.55,290,364.22ZM101.3,362.17l0,0h0c-1.21-.7-2.42-1.42-3.61-2.14l.22-.36h0l.22-.37c1.2.72,2.39,1.44,3.6,2.13l-.2.36.22-.34Zm192.32,0-.23-.35Zm3.53-2.1-.39-.73c1.19-.73,2.37-1.46,3.54-2.21l.22.35-.19-.37.43.72h0c-1.18.75-2.36,1.49-3.56,2.21h0Zm-203-2.24.2-.37Zm0,0c-1.18-.75-2.35-1.52-3.51-2.29h0l0,0,.49-.68c1.16.77,2.33,1.54,3.5,2.29l-.23.36.19-.38Zm210.16-2.25-.49-.68.25.32-.22-.34c1.15-.77,2.3-1.56,3.44-2.36l.24.35-.3-.3.54.64,0,0,0,0c-1.14.8-2.29,1.59-3.46,2.37l-.23-.35.23.35h0l-.12-.18ZM87.13,353.12h0c-1.14-.8-2.28-1.62-3.41-2.45h0l-.06-.05.35-.34.21-.29c1.12.83,2.25,1.64,3.39,2.44l-.24.35.3-.3Zm220.64,0-.29-.31Zm3.34-2.4-.24-.34h0l-.25-.35c1.12-.82,2.23-1.65,3.33-2.5l.26.33-.3-.3.54.65-.16-.25.18.24C313.36,349.06,312.24,349.89,311.11,350.72Zm3.4-2.55-.29-.3Zm-234.13,0,0,0h0c-1.11-.85-2.21-1.72-3.3-2.6h0l-.08-.07.35-.28v0l0,0,.3-.23-.3.23.24-.29c1.09.87,2.18,1.73,3.29,2.58l-.26.34.3-.3Zm237.35-2.52-.21-.32-.36-.29.08-.06h0c1.08-.87,2.16-1.75,3.22-2.65h0l.05,0,.23.35.32.27-.3-.24.24.3c-1.07.9-2.15,1.78-3.24,2.66l-.24-.3Zm-.23-.35Zm3.23-2.66.06.07ZM77.3,345.21l.24-.34Zm-3.46-2.29,0,0h0q-1.6-1.35-3.18-2.73h0l-.06-.05.35-.29,0,0,0,0,.28-.23-.28.23.24-.28c1,.92,2.1,1.83,3.17,2.73l-.24.3.3-.24-.3.24Zm250.3-2.66-.22-.32-.35-.28.06-.06h0c1-.92,2.07-1.84,3.1-2.78h0l.56.63-.14-.17.15.16c-1,.94-2.07,1.88-3.13,2.8l-.26-.29Zm-253.25-.44.24-.34Zm-3.37-2.46,0,0c-1-.94-2-1.89-3-2.86l.27-.28-.31.24.31-.24.25-.38.06.06h0c1,1,2,1.91,3,2.85l-.27.3.28-.28Zm262.78-2.74-.23-.35-.32-.27.3.24v0l-.25-.26c1-1,2-1.94,3-2.92l.28.27-.21-.32.21.32.36.28,0,0h0c-1,1-2,2-3,2.93h0Zm-.25-.38,0,0,0,0Zm3-2.91h0Zm-271.56.26.21-.32-.28.27c-1-1-2-2-2.93-3l.3-.29h0l.31-.29c1,1,1.93,2,2.92,3h0l0,0-.33.26Zm.23-.35-.06.06Zm274.53-2.56-.56-.63c1-1,1.91-2,2.85-3l.31.28-.26-.32.6.58,0,0h0c-.94,1-1.9,2.05-2.87,3.06h0ZM55.68,325.52l.27-.32Zm0,0c-.94-1-1.87-2.07-2.8-3.12l.32-.28h0l.32-.28c.91,1,1.84,2.08,2.78,3.1l-.31.29.27-.32-.59.59.22-.18Zm286.29-3-.31-.38-.26-.23c.92-1,1.82-2.1,2.72-3.17l.32.27-.3-.3.64.56h0q-1.35,1.61-2.73,3.18h0Zm-291.79-3.3.3-.29Zm0,0h0l0,0Zm0,0c-.9-1.07-1.78-2.15-2.66-3.24h0l0,0,.68-.49c.87,1.09,1.75,2.16,2.65,3.23l-.33.27.3-.3ZM347.38,316l-.68-.49.35.22-.32-.26c.87-1.08,1.73-2.18,2.58-3.28l.68.49-.25-.17.24.19-.34-.26.34.26C349.12,313.84,348.26,314.94,347.38,316ZM44.87,312.66h0c-.84-1.11-1.68-2.22-2.5-3.34l0,0,.69-.47c.83,1.12,1.66,2.23,2.51,3.33l-.34.26.36-.23Zm307.62-3.27-.68-.49.4.27-.39-.29c.83-1.12,1.64-2.26,2.44-3.4l.35.24-.33-.26.68.49h0c-.8,1.15-1.62,2.29-2.45,3.42l-.25-.18ZM39.91,305.91l.24-.19-.26.17q-1.2-1.71-2.37-3.45l.26-.17-.26.17.67-.51-.35.29.38-.25c.78,1.15,1.56,2.3,2.36,3.44Zm.32-.26-.3.21Zm317.07-3.11-.67-.51c.77-1.15,1.54-2.32,2.29-3.5l.35.23-.32-.26.68.49h0c-.76,1.18-1.53,2.35-2.3,3.51h0ZM35.24,299v0h0c-.75-1.17-1.49-2.36-2.21-3.55h0l0-.07.45-.18.3-.19c.73,1.19,1.46,2.37,2.21,3.54l-.35.23.39-.16Zm326.61-3.53-.72-.43c.73-1.2,1.44-2.39,2.14-3.6h0l0,0,.35.23.39.14-.36-.12.33.2C363.29,293,362.58,294.23,361.85,295.42Zm1.78-3.82.14.08Zm-332.73.21,0,0h0c-.7-1.21-1.38-2.42-2.06-3.65h0l0-.07.43-.15,0,0,.06,0,.34-.11-.34.11.32-.17c.67,1.22,1.35,2.43,2.05,3.63l-.37.21h0ZM366,288.18l-.32-.21-.43-.15,0-.07h0c.67-1.22,1.33-2.45,2-3.68h0l0-.05.35.23.4.14-.37-.12.34.18c-.65,1.25-1.31,2.48-2,3.71l-.33-.18Zm1.63-3.93.09.05ZM29.19,287.92l.35-.22Zm-2.32-3.43,0-.05h0c-.64-1.24-1.27-2.48-1.89-3.73h0l0-.06.4-.13.36-.22-.32.21.34-.17q.93,1.88,1.89,3.72l-.37.19h0Zm-1.51-4,0,0,.06,0Zm344.57.23-.32-.21-.44-.14,0-.06h0c.62-1.25,1.23-2.5,1.82-3.77l.37.18-.36-.21.77.33,0,0h0c-.6,1.27-1.2,2.53-1.82,3.79l-.35-.17Zm-.35-.23ZM23.17,277l.32-.21-.35.16c-.59-1.26-1.17-2.53-1.73-3.81l.76-.34c.57,1.27,1.14,2.53,1.73,3.79h0l0,.06-.4.13Zm.35-.23-.08,0Zm350-3.65-.74-.38c.56-1.28,1.11-2.56,1.65-3.85l.39.16-.37-.21.77.33,0,0h0q-.81,1.94-1.65,3.87h0ZM19.78,269.35l.37-.2Zm0-.05c-.53-1.29-1.05-2.58-1.56-3.88l.39-.15h0l.39-.15c.51,1.29,1,2.58,1.56,3.86l-.39.16.36-.21-.76.35.27-.09Zm357-3.93-.42-.24L376,265c.5-1.3,1-2.61,1.48-3.92l.39.14-.36-.21.76.33v0h0c-.47,1.32-1,2.62-1.47,3.92h0Zm-360-3.81.37-.2Zm0-.06c-.48-1.32-.95-2.64-1.4-4l.18-.06-.18.06v0l.81-.24c.45,1.32.91,2.63,1.39,3.94l-.4.14.37-.21-.76.35.08,0Zm362.9-4.11-.8-.24.4.11-.39-.14c.44-1.32.88-2.65,1.3-4l.37.11-.37-.12.81.24v0h0c-.42,1.33-.86,2.67-1.31,4l-.4-.13.4.13ZM14,253.55c-.42-1.33-.82-2.67-1.22-4l.37-.11-.37.11.39-.11-.39.1.8-.25-.39.14.4-.12c.39,1.34.8,2.67,1.21,4h0Zm.11,0h0l.34-.09Zm368-4.12-.8-.26c.39-1.33.76-2.68,1.12-4l.41.11-.4-.14.81.24h0c-.37,1.36-.74,2.7-1.13,4ZM11.67,245.51l.4-.11-.4.11.3-.09-.31.08c-.36-1.35-.71-2.71-1-4.07h0v-.11H11l.4-.1-.37.1h0l.37-.09c.33,1.36.67,2.71,1,4.05Zm-.61-4.19h0Zm373.25,0-.37-.1h-.46l0-.11h0c.33-1.35.64-2.71.94-4.07h0v0l.41.11h0l.37.09c-.3,1.37-.62,2.73-.95,4.09l-.37-.09Zm-.4-.11Zm.94-4.08.14,0Zm-375.17.29v0h0c-.3-1.37-.59-2.73-.86-4.11h0v-.09h.42l.4-.11-.37.11h0l.36-.07c.27,1.37.56,2.73.86,4.09l-.38.09h0Zm-.43-4.23h0Zm376.86,0-.37-.11h-.45v-.09h0c.27-1.36.52-2.73.76-4.1h0v-.06l.41.12h0l.38.07c-.24,1.38-.5,2.76-.77,4.12l-.38-.07Zm-.4-.12Zm.77-4.11h0ZM8,229.17v0H8c-.24-1.38-.47-2.76-.68-4.14h0v-.07h.42l.4-.11-.37.11h0l.35-.06c.21,1.38.44,2.75.68,4.12l-.38.08h0Zm.4-.12h0Zm-.64-4.14h0Zm379.76,0-.38-.1h-.45v-.08h0c.21-1.37.4-2.75.58-4.13l.42,0h.42v.07h0c-.19,1.39-.38,2.77-.59,4.15l-.38-.05Zm-.41-.11ZM6.78,220.9l.37-.12-.39.05c-.18-1.39-.35-2.78-.5-4.17l.39,0h0l.43-.15v.1h0c.15,1.39.31,2.77.49,4.15h0v.06H7.18Zm.4-.13h0Zm381.45-4.18-.4-.13h0l-.37,0c.15-1.38.28-2.77.4-4.16l.42,0h.42v0h0c-.12,1.39-.26,2.78-.41,4.17h0Zm-.44-.15h0ZM5.87,212.58l.37-.12-.39,0c-.12-1.39-.23-2.79-.32-4.19l.39,0h0l.43-.14,0,.12v0h0c.09,1.38.2,2.76.32,4.13h0v.05H6.27Zm.4-.13h0Zm383.08-4.2-.43-.14h0l-.37-.12.37.12-.38,0c.09-1.39.16-2.78.22-4.17h.84c-.06,1.4-.14,2.8-.23,4.19h0Zm-.4-.13h0Zm-383.65-4h0c-.06-1.38-.1-2.77-.14-4.17l.81,0H6c0,1.39.08,2.78.14,4.17l-.42,0H5.3Zm384.43-4.36h-.27l-.57,0c0-1.39.05-2.78.05-4.17v-.35h.84v.34c0,1.41,0,2.8,0,4.2Zm-384.61-4h0Zm.84,0H5.12v-.18c0-1.34,0-2.68,0-4H6c0,1.33,0,2.66,0,4Zm383.82-.53h0Zm-.89-4.18h0c0-1.39-.08-2.79-.15-4.17l.42,0h-.42l.84,0c.07,1.39.11,2.79.15,4.19l-.81,0h0ZM6.13,187.38H5.7l-.41,0c.06-1.4.13-2.8.22-4.19h0l0-.12.4.14H6l.38,0C6.26,184.6,6.19,186,6.13,187.38Zm-.2-4.19h0Zm382.6-.39v-.11h0v0h0c-.09-1.39-.2-2.76-.32-4.14h0v-.05h.42l.4-.12-.37.12.39,0c.12,1.39.23,2.78.32,4.18l-.39,0h0Zm.4-.14Zm-.29-4.19h0Zm-382,.58-.42,0H5.82v0h0c.12-1.4.25-2.79.4-4.18h0v-.1l.43.14h0L7,175l-.35-.12.37,0C6.91,176.27,6.78,177.66,6.66,179.05Zm0-4.21h0Zm381.13-.38,0-.1h0c-.15-1.38-.32-2.76-.5-4.14h0v-.07h.42l.4-.12-.37.12.39,0c.18,1.38.35,2.77.5,4.16l-.38,0h0Zm-.08-4.31h0Zm-380.19.67-.37-.12H6.71v-.07h0c.18-1.39.37-2.77.58-4.15l.38.05-.37-.1.37.1h.46v.07h0c-.21,1.38-.4,2.76-.58,4.14l-.39,0Zm-.4-.13Zm.58-4.15h0Zm379-.41.4-.1Zm0,0c-.21-1.38-.44-2.75-.68-4.12l.41-.07h0l.44-.13v.06h0c.24,1.37.47,2.75.68,4.14h0V166H387ZM8.79,162.53l-.41-.11h0L8,162.34c.24-1.38.5-2.76.77-4.13l.38.07-.37-.1.37.1h.45v.09h0c-.26,1.36-.52,2.73-.76,4.1h0Zm-.44-.12h0Zm376.89-4.52.4-.1Zm0,0c-.27-1.37-.56-2.73-.86-4.09l.41-.09h0l.44-.13v0h0c.3,1.36.59,2.73.86,4.1h0v.1h-.45l0,0-.05,0h0ZM10.41,154.32l-.41-.11h0l-.38-.09c.3-1.37.62-2.73.95-4.09l.37.09-.37-.11.38.11h.45l0,.11h0c-.33,1.35-.65,2.7-.95,4.07h0ZM10,154.2h0l-.14,0Zm373.45-4.48.4-.11Zm0,0c-.34-1.34-.68-2.68-1-4h0v0l.81-.24-.4.12.4-.11-.31.09.31-.08c.37,1.35.72,2.7,1.05,4.06h0v.11h-.46Zm-371-3.51-.81-.24h0c.36-1.35.73-2.69,1.12-4l.4.12-.4-.14.81.24-.41-.1.4.11c-.38,1.34-.76,2.68-1.11,4l-.4-.11Zm368.87-4.53.8-.26-.4.12.4-.11Zm0,0c-.39-1.34-.8-2.67-1.22-4l.4-.12-.4.11.8-.26v0h0c.42,1.33.83,2.66,1.22,4ZM14.71,138.15l-.81-.24v0h0c.42-1.34.86-2.67,1.3-4l.4.13-.4-.13h0l.8.24-.4-.1.39.13c-.45,1.32-.88,2.65-1.3,4l-.42-.14Zm364-4.47c-.45-1.32-.91-2.64-1.39-3.94l.39-.15-.36.21.76-.35-.09,0,.09,0c.48,1.31.94,2.63,1.39,4l-.13,0,.14,0v0ZM17.4,130.2l-.8-.26.34.1-.33-.12c.48-1.32,1-2.64,1.48-3.94h0l0-.07.42.24.33.13C18.37,127.58,17.88,128.89,17.4,130.2Zm360.32-.62.37-.2Zm-1.87-3.75c-.51-1.29-1-2.58-1.56-3.86l.39-.16-.37.21.76-.35-.27.09.27-.11q.8,1.92,1.56,3.87l-.39.16h0ZM20.41,122.44l-.77-.33,0,0h0q.81-1.95,1.65-3.87h0l0,0,.74.39c-.56,1.28-1.11,2.56-1.64,3.85l-.39-.16Zm354.26-.64.37-.2Zm-2-3.65c-.56-1.27-1.14-2.54-1.73-3.79h0l0-.06.4-.13.35-.22-.32.21.35-.16q.88,1.89,1.74,3.81L373,118h0Zm-1.32-4,0,0,.07,0Zm-347.54.59-.77-.33,0,0h0c.59-1.27,1.2-2.54,1.82-3.79l.35.16-.32-.21.32.21.43.15,0,.06h0c-.61,1.25-1.22,2.51-1.81,3.77l-.38-.17Zm345.35-4.1.32-.21-.35.17c-.61-1.25-1.25-2.48-1.89-3.71l.37-.2h0l.38-.25,0,.05h0c.64,1.23,1.28,2.47,1.9,3.72h0l0,.06-.4.13Zm.35-.23-.06,0Zm-342-3.16-.35-.23-.39-.14.36.12-.34-.18c.65-1.25,1.31-2.48,2-3.71l.34.18-.32-.21.32.21.44.15,0,.07h0c-.67,1.22-1.33,2.45-2,3.69h0ZM27.1,107h0l-.07,0Zm2-3.69h0Zm336.16-.06.32-.22h0l-.32.18c-.67-1.22-1.36-2.43-2.05-3.63l.33-.2-.37.12.37-.12.38-.25v0h0c.71,1.2,1.39,2.42,2.07,3.64h0l0,.08-.4.13Zm.35-.24-.05,0ZM31.52,99.91l-.35-.23-.4-.14.37.12-.33-.2c.7-1.22,1.41-2.42,2.14-3.62l.36.22h0l.36.22c-.73,1.19-1.44,2.39-2.14,3.6h0Zm-.38-.25h0L31,99.59ZM361.07,96c-.73-1.19-1.46-2.37-2.21-3.54l.36-.23-.4.16.74-.4v0h0c.75,1.17,1.49,2.36,2.22,3.55h0l0,.07-.44.18ZM35.88,92.73l-.35-.23.38.16-.74-.38c.75-1.18,1.52-2.36,2.3-3.52h0l0,0,.68.51C37.39,90.38,36.63,91.55,35.88,92.73Zm-.36-.22-.39-.16ZM356.6,89l.35-.29-.38.25c-.77-1.15-1.56-2.3-2.36-3.43l.67-.51-.23.19.25-.17h0c.8,1.15,1.59,2.3,2.37,3.46l-.25.17.25-.17Zm-2-3.78-.07.06.28-.2ZM40.51,85.8l-.68-.49v0c.8-1.14,1.62-2.28,2.45-3.41l.25.18-.24-.19.68.49-.39-.26.37.28c-.82,1.12-1.63,2.25-2.43,3.4l-.35-.24Zm311.27-3.63c-.83-1.12-1.67-2.23-2.51-3.33l.34-.26-.36.23.67-.5v0h0c.85,1.11,1.69,2.23,2.52,3.35l0,0ZM45.47,79l-.68-.49.26.17-.24-.19.34.25-.34-.26c.85-1.11,1.72-2.21,2.59-3.3l.24.2-.24-.2.68.49-.37-.24.35.28C47.18,76.83,46.32,77.93,45.47,79Zm301.22-3.48c-.88-1.09-1.76-2.16-2.66-3.22l.32-.27-.29.29.62-.56h0l0,0c.9,1.07,1.78,2.15,2.66,3.24l0,0,0,0,0,0Zm-296-3L50.05,72h0c.9-1.07,1.82-2.14,2.74-3.19h0l.05-.05.31.37.27.24c-.92,1-1.83,2.1-2.72,3.17l-.31-.26Zm293.67-.48.3-.29Zm-3-2.89c-.92-1-1.85-2.08-2.79-3.1l.31-.29-.27.32.59-.59-.22.18.21-.19c.94,1,1.88,2.07,2.8,3.12l-.31.28h0ZM56.18,66.27l-.61-.57,0,0h0c.94-1,1.9-2.05,2.87-3.06h0l0,0,.56.62c-1,1-1.91,2-2.85,3L55.91,66Zm282.64-.49.28-.32ZM335.66,63c-1-1-1.94-2-2.92-3h0l0,0,.33-.27.24-.34-.22.33.28-.28q1.49,1.48,2.94,3l-.3.29h0Zm-2.61-3.3v0l.06-.06Zm-271.12.53-.22-.32-.35-.28,0,0h0q1.49-1.48,3-2.94h0l.06-.05.23.35.32.27-.3-.25v0l.26.27c-1,1-2,1.94-3,2.92l-.28-.27Zm-.23-.35h0Zm3-2.92,0,0Zm265.13.19-.06-.05h0c-1-1-2-1.91-3.05-2.85L327,54l-.3.29.56-.62,0,0c1,.94,2.05,1.9,3.06,2.86l-.26.29.3-.25-.3.25ZM68,54.42l-.56-.62h0c1-.95,2.07-1.88,3.12-2.8l.25.29L70.62,51l.22.32.35.28-.06.06h0C70.08,52.55,69.05,53.48,68,54.42ZM67.6,54l-.14-.16h0Zm256-2.45.22-.32,0,0-.23.27c-1-.92-2.11-1.83-3.17-2.72l.26-.32,0,0,.25-.38,0,0h0q1.6,1.35,3.18,2.73h0l.06.06-.33.26Zm.24-.36-.05.06ZM74.25,49,74,48.6l-.32-.27.3.24-.25-.3c1.08-.9,2.15-1.79,3.24-2.66l.25.3L77,45.58l.22.33.35.28-.07.07h0c-1.08.87-2.16,1.76-3.22,2.65h0ZM74,48.57l0,0L74,48.52Zm3.25-2.64h0Zm240,.2.24-.34Zm0,0c-1.09-.87-2.19-1.73-3.29-2.58l.25-.33-.29.29.52-.65,0,0h0c1.11.85,2.21,1.72,3.3,2.59h0l.07.07-.35.28,0,0,0,0-.29.23.29-.23ZM80.8,43.68l-.26-.34.3.31L80.3,43l.17.24L80.29,43c1.1-.86,2.22-1.69,3.34-2.52l.25.34h0l.25.34C83,42,81.9,42.83,80.8,43.68Zm-.26-.33-.29-.3Zm230-2.33c-1.12-.82-2.25-1.64-3.4-2.43l.25-.35-.3.3.52-.65h0c1.14.8,2.28,1.62,3.41,2.44h0l.06,0-.35.34Zm-223-2.28-.24-.35.3.3L87,38.05l0,.06,0-.06q1.71-1.2,3.45-2.37l.47.7C89.8,37.15,88.66,37.94,87.52,38.74Zm-.25-.34L87,38.1Zm3.72-2-.5-.68Zm212.71-.14c-1.16-.77-2.32-1.53-3.5-2.28l.23-.36-.19.38.41-.73c1.18.75,2.35,1.52,3.52,2.3h0ZM94.41,34.12,94,33.4h0c1.17-.75,2.34-1.49,3.53-2.21h0l0,0,.4.74c-1.19.72-2.37,1.46-3.54,2.21l-.23-.36Zm206-.54.19-.37Zm-3.77-1.85c-1.19-.72-2.4-1.43-3.6-2.13l.21-.37-.24.35.42-.73,0,0h0c1.21.7,2.42,1.41,3.61,2.14l-.21.36v0Zm-195.08-2-.23-.39.25.38-.43-.72.14.26-.15-.26c1.2-.7,2.42-1.38,3.64-2.06l.2.37v0l.22.4C104,28.38,102.77,29.06,101.57,29.76Zm-.22-.36-.22-.35Zm188-1.85q-1.83-1-3.69-2l.37-.75h0l-.19.37.2-.37c1.24.65,2.48,1.31,3.7,2h0l0,0ZM108.86,25.74l-.38-.74h0c1.23-.65,2.48-1.28,3.73-1.9h0l.38.76-.35-.69.34.69c-1.25.62-2.48,1.25-3.71,1.89l-.19-.35Zm173.12-2,.37-.76h0Zm0,0c-1.25-.61-2.51-1.22-3.77-1.81l.19-.4-.2.4.36-.76c1.27.59,2.54,1.2,3.8,1.82ZM116.33,22l-.37-.75h0l.2.4-.18-.41c1.26-.59,2.52-1.16,3.8-1.73h0l0,0,.29.79C118.85,20.88,117.59,21.46,116.33,22Zm158.05-1.89c-1.27-.56-2.56-1.11-3.85-1.65l.15-.37-.12.38.31-.77-.13.25.11-.26q1.95.8,3.87,1.65l-.17.38h0ZM123.92,18.69l-.33-.77,0,0c1.29-.53,2.58-1,3.88-1.56l.15.39h0l-.13-.39.29.79-.14-.33.13.33c-1.29.51-2.58,1-3.85,1.56l-.17-.4Zm146.76-.58.14-.39Zm-4-1.16.12-.34-.13.34c-1.3-.51-2.61-1-3.92-1.47l.14-.4-.15.39.27-.79h0c1.32.47,2.63,1,3.94,1.47h0Zm-134.94-1.3-.29-.79,0,.05,0-.05c1.32-.48,2.63-.95,4-1.4l.13.4h0l-.13-.4.29.79-.16-.39.14.39c-1.32.45-2.63.92-3.94,1.39h0Zm127-1.56c-1.32-.45-2.65-.88-4-1.3L255,12l-.07.28L255,12l-.12.4L255,12c1.34.42,2.68.86,4,1.3h0ZM139.59,13l-.24-.8h0c1.33-.42,2.67-.83,4-1.22h0l.21.81h0c-1.34.39-2.67.79-4,1.21l-.13-.4ZM250.8,11.59l.09-.39-.12.39c-1.33-.39-2.67-.76-4-1.12l.11-.41-.06.42.18-.82-.08.26.06-.26c1.36.36,2.71.73,4,1.12l-.08.28.09-.27Zm-103.22-1-.19-.81h0c1.35-.37,2.7-.71,4.06-1.05h.06l.14.83c-1.35.33-2.7.68-4,1l-.11-.4Zm99.27-.56.06-.41Zm-4.15-.62c-1.35-.32-2.71-.64-4.07-.94l.08-.38-.09.38.16-.82h0c1.37.3,2.72.61,4.08.94l-.1.4h0Zm-86.95-.82-.19-.82.07.29-.06-.29c1.36-.31,2.73-.59,4.1-.87l.06.29,0-.29.18.82-.12-.4.09.41c-1.37.27-2.73.55-4.08.86h0Zm-.12-.52,0,.11,0-.17Zm4.12-.78v0Zm74.79.33c-1.36-.26-2.73-.52-4.11-.75l.13-.84,0,.19,0-.18-.07.41.08-.41c1.38.24,2.75.49,4.12.76h0ZM163.94,7l-.17-.82.07.28-.05-.29.08.4-.08-.4c1.38-.24,2.76-.47,4.14-.68h0l.1.84C166.68,6.52,165.31,6.74,163.94,7Zm62.39-.76.1-.83-.12.83c-1.37-.21-2.75-.41-4.14-.58h0l.11-.84,0,.19,0-.19c1.39.18,2.77.38,4.15.58l0,.19,0-.18ZM222.25,5l0,.19,0-.21Zm-50.05.69-.06-.4.05.4-.13-.83h0c1.38-.18,2.77-.35,4.16-.5h.06l0,.83C175,5.37,173.58,5.53,172.2,5.71ZM218,5.16c-1.38-.15-2.76-.28-4.15-.4l0-.42v.42l.06-.83-.05.29,0-.3c1.39.12,2.79.25,4.17.4l0,.42v0Zm-37.56-.35L180.39,4h0c1.39-.12,2.78-.23,4.18-.32l.06.83c-1.4.1-2.79.2-4.17.32l0-.41Zm29.24-.36c-1.38-.09-2.78-.16-4.17-.22l0-.42-.05.42,0-.84h0c1.4.06,2.79.13,4.18.22h0Zm4.19-.11v0Zm-25-.09,0-.42.05.42-.06-.83v0c1.39-.07,2.78-.11,4.18-.14l0,.84C191.61,4.15,190.22,4.19,188.84,4.25ZM193,4.12V3.28h0Zm8.37,0v0c-1.3,0-2.61,0-3.91,0h-.27V3.22h.27c1.31,0,2.61,0,3.92,0h0Zm-4.19,0V3.22h0Zm-8.37-.22,0-.42Z"></path><path class="cls-1" d="M197.45,348.37c-84.26,0-152.81-68.55-152.81-152.81S113.19,42.75,197.45,42.75,350.26,111.3,350.26,195.56,281.71,348.37,197.45,348.37Zm0-304.78c-83.8,0-152,68.17-152,152s68.17,152,152,152,152-68.18,152-152S281.24,43.59,197.45,43.59Z"></path></g><g id="Layer_1" data-name="Layer 1"><g class="cls-2"><g class="cls-3"><path class="cls-4" d="M231.4,102.53a12.32,12.32,0,0,1,12.36,12.29v87.09a12.34,12.34,0,0,1-12.36,12.3l-164,.07A12.34,12.34,0,0,1,55,202V114.89a12.32,12.32,0,0,1,12.35-12.31Z"></path></g></g><g class="cls-3"><path class="cls-5" d="M71.29,219.15a13,13,0,0,1-4.63-.85l.38-1a11.81,11.81,0,0,0,4.25.78h8.33v1.08Zm13.06,0v-1.08H97.21v1.07Zm17.59,0v-1.07h12.87v1.07Zm17.6,0v-1.07H132.4v1.08Zm17.59,0v-1.08H150v1.07Zm17.6,0v-1.07H167.6v1.07Zm17.6,0V218h12.86v1.08Zm17.59,0V218h12.87v1.07Zm17.6,0V218h12.86v1.07Zm17.6,0V218h10.19a11.82,11.82,0,0,0,2.53-.28l.23,1a12.75,12.75,0,0,1-2.76.3Zm17.46-2.24L242,216a11.74,11.74,0,0,0,5.17-9.72v-.89h1.07v.89A12.82,12.82,0,0,1,242.58,216.85ZM62.5,215.71a12.84,12.84,0,0,1-4.12-9.4v-2.75h1.07v2.75a11.79,11.79,0,0,0,3.77,8.61Zm185.71-15.08h-1.07V187.77h1.07Zm-188.76-1.8H58.38V186h1.08ZM248.21,183h-1.07V170.17h1.07Zm-188.75-1.8H58.38V168.37h1.07Zm188.75-15.8h-1.07V152.58h1.07Zm-188.75-1.8H58.39V150.78h1.07Zm187.68-15.8V135h1.07v12.86ZM59.46,146H58.39V133.18h1.07Zm188.75-15.79h-1.07V119.16a11.8,11.8,0,0,0-.12-1.69l1.06-.16a14.26,14.26,0,0,1,.13,1.85Zm-188.75-1.8H58.39v-9.22a12.81,12.81,0,0,1,.56-3.75l1,.31a12.09,12.09,0,0,0-.51,3.44Zm186.06-15.22a11.87,11.87,0,0,0-10.21-5.83v-1.07a13,13,0,0,1,11.14,6.35Zm-183.43-1.4-.83-.68a12.85,12.85,0,0,1,10-4.77h1.86v1.07H71.28A11.79,11.79,0,0,0,62.09,111.83Zm15.78-4.38v-1.07H90.74v1.08Zm17.6,0v-1.07h12.86v1.07Zm17.59,0v-1.07h12.87v1.07Zm17.6,0v-1.07h12.86v1.07Zm17.6,0v-1.08h12.86v1.07Zm17.59,0v-1.07h12.87v1.08Zm17.6,0v-1.08h12.86v1.07Zm17.59,0v-1.07h12.87v1.08Zm17.6,0v-1.07H231.5v1.07Z"></path></g><path class="cls-5" d="M210.38,115.43l-.06,18.34a3.56,3.56,0,0,0,3.57,3.56h18.37a3.57,3.57,0,0,0,3.59-3.56l.06-18.34a3.57,3.57,0,0,0-3.19-3.57H214A3.58,3.58,0,0,0,210.38,115.43Z"></path><path class="cls-6" d="M177.27,204.34a2.17,2.17,0,0,0,2.18,2.18l54,0a2.2,2.2,0,0,0,2.21-2.18v.48a2.18,2.18,0,0,0-2.2-2.18h-54a2.21,2.21,0,0,0-2.19,2.19Z"></path><path class="cls-6" d="M124.66,204.36a2.17,2.17,0,0,0,2.17,2.18h38.94a2.19,2.19,0,0,0,2.18-2.19v.49a2.16,2.16,0,0,0-2.17-2.19H126.86a2.2,2.2,0,0,0-2.19,2.19Z"></path><path class="cls-7" d="M147.78,124.69a31.2,31.2,0,1,0,31.2,31.2A31.24,31.24,0,0,0,147.78,124.69Zm.8,16a118.06,118.06,0,0,0,11.81-.64,52.46,52.46,0,0,1,2.32,15.05H148.58Zm0-1.6V126.34c4.63.48,8.7,5.17,11.27,12.15C156.35,138.85,152.53,139.06,148.58,139.08Zm-1.6,0c-3.95,0-7.76-.23-11.27-.59,2.57-7,6.64-11.67,11.27-12.15Zm0,1.6v14.41H132.85A52.46,52.46,0,0,1,135.17,140,118.06,118.06,0,0,0,147,140.68Zm-15.73,14.41h-13a29.47,29.47,0,0,1,6-17,62.94,62.94,0,0,0,9.42,1.81A52.94,52.94,0,0,0,131.25,155.09Zm0,1.6a52.92,52.92,0,0,0,2.33,15.16,60.66,60.66,0,0,0-9.42,1.85,29.43,29.43,0,0,1-6-17Zm1.6,0H147V171a117.92,117.92,0,0,0-11.83.66A52.31,52.31,0,0,1,132.85,156.69ZM147,172.6v12.85c-4.65-.49-8.73-5.21-11.3-12.24C139.19,172.84,143,172.63,147,172.6Zm1.6,0c4,0,7.79.21,11.32.57-2.57,7.06-6.66,11.8-11.32,12.29Zm0-1.6v-14.3h14.13a52.38,52.38,0,0,1-2.28,14.92C156.74,171.22,152.73,171,148.58,171Zm15.73-14.3h13.05a29.41,29.41,0,0,1-5.87,16.89,64.17,64.17,0,0,0-9.49-1.79A53.33,53.33,0,0,0,164.31,156.69Zm0-1.6A53.06,53.06,0,0,0,162,139.86a63.19,63.19,0,0,0,9.42-1.81,29.47,29.47,0,0,1,6,17Zm6-18.39a66,66,0,0,1-8.85,1.62c-1.83-5.07-4.44-9.06-7.5-11.38A29.62,29.62,0,0,1,170.28,136.7Zm-28.65-9.76c-3.06,2.32-5.67,6.31-7.5,11.37a64.7,64.7,0,0,1-8.86-1.61A29.65,29.65,0,0,1,141.63,126.94Zm-16.38,48.11a63.22,63.22,0,0,1,8.85-1.66c1.84,5.1,4.46,9.12,7.53,11.45A29.6,29.6,0,0,1,125.25,175.05Zm28.68,9.79c3.08-2.34,5.71-6.38,7.55-11.51a67.75,67.75,0,0,1,8.93,1.61A29.6,29.6,0,0,1,153.93,184.84Z"></path><g class="cls-8"><path class="cls-9" d="M276.78,137.51a12.31,12.31,0,0,1,12.36,12.29v87.09a12.34,12.34,0,0,1-12.36,12.3l-164,.07A12.34,12.34,0,0,1,100.39,237V149.87a12.32,12.32,0,0,1,12.35-12.31Z"></path></g><g class="cls-3"><path class="cls-5" d="M116.67,254.13a13,13,0,0,1-4.62-.85l.38-1a11.76,11.76,0,0,0,4.24.78H125v1.08Zm13.06,0v-1.08H142.6v1.07Zm17.6,0v-1.07h12.86v1.07Zm17.6,0V253h12.86v1.08Zm17.59,0V253h12.87v1.07Zm17.6,0V253H213v1.07Zm17.59,0V253h12.87v1.08Zm17.6,0V253h12.86v1.07Zm17.6,0V253h12.86v1.07Zm17.59,0V253h10.21a12.46,12.46,0,0,0,2.52-.27l.23,1a12.73,12.73,0,0,1-2.75.3H270.5ZM288,251.83l-.61-.88a11.79,11.79,0,0,0,5.17-9.72v-.89h1.07v.89A12.83,12.83,0,0,1,288,251.83Zm-180.09-1.14a12.87,12.87,0,0,1-4.11-9.4v-2.75h1.07v2.75a11.75,11.75,0,0,0,3.77,8.61ZM293.6,235.61h-1.07V222.75h1.07Zm-188.76-1.8h-1.07V221h1.07ZM293.6,218h-1.08V205.15h1.08Zm-188.76-1.8h-1.07V203.35h1.07Zm188.76-15.8h-1.08V187.56h1.08Zm-188.76-1.8h-1.07V185.76h1.08Zm187.68-15.8V170h1.08v12.86ZM104.85,181h-1.07V168.16h1.07ZM293.6,165.23h-1.08V154.14a11.8,11.8,0,0,0-.12-1.69l1.06-.16a12.7,12.7,0,0,1,.14,1.85Zm-188.75-1.8h-1.07v-9.22a13.14,13.14,0,0,1,.55-3.75l1,.31a11.75,11.75,0,0,0-.51,3.44Zm186.06-15.22a11.89,11.89,0,0,0-10.21-5.83v-1.07a12.94,12.94,0,0,1,11.13,6.35Zm-183.44-1.4-.83-.68a12.87,12.87,0,0,1,10-4.77h1.86v1.07h-1.86A11.81,11.81,0,0,0,107.47,146.81Zm15.79-4.38v-1.07h12.86v1.07Zm17.59,0v-1.07h12.87v1.07Zm17.6,0v-1.07h12.87v1.07Zm17.6,0v-1.07h12.86v1.07Zm17.59,0v-1.08h12.87v1.07Zm17.6,0v-1.07H224.1v1.08Zm17.59,0v-1.08H241.7v1.07Zm17.6,0v-1.07h12.86v1.08Zm17.6,0v-1.07h12.86v1.07Z"></path></g><path class="cls-5" d="M256.07,150.53,256,168.87a3.55,3.55,0,0,0,3.57,3.56H278a3.57,3.57,0,0,0,3.59-3.56l.06-18.34a3.57,3.57,0,0,0-3.2-3.56H259.66A3.58,3.58,0,0,0,256.07,150.53Z"></path><path class="cls-6" d="M170.35,238.46a2.16,2.16,0,0,0,2.17,2.18h38.93a2.2,2.2,0,0,0,2.19-2.2v.49a2.15,2.15,0,0,0-2.17-2.18H172.55a2.2,2.2,0,0,0-2.19,2.19Z"></path><path class="cls-7" d="M193.47,159.8A31.2,31.2,0,1,0,224.66,191,31.23,31.23,0,0,0,193.47,159.8Zm.8,16a117.79,117.79,0,0,0,11.8-.63,51.66,51.66,0,0,1,2.32,15H194.27Zm0-1.6V161.44c4.63.49,8.7,5.17,11.27,12.16C202,174,198.22,174.16,194.27,174.18Zm-1.6,0c-3.95,0-7.76-.22-11.28-.58,2.58-7,6.65-11.67,11.28-12.16Zm0,1.6V190.2H178.54a52.35,52.35,0,0,1,2.32-15A118.16,118.16,0,0,0,192.67,175.78ZM176.94,190.2H163.89a29.42,29.42,0,0,1,6-17,65.31,65.31,0,0,0,9.42,1.81A52.94,52.94,0,0,0,176.94,190.2Zm0,1.6A53.27,53.27,0,0,0,179.26,207a62.35,62.35,0,0,0-9.42,1.85,29.46,29.46,0,0,1-6-17Zm1.6,0h14.13v14.3a117.76,117.76,0,0,0-11.83.66A51.84,51.84,0,0,1,178.54,191.8Zm14.13,15.9v12.85c-4.65-.49-8.73-5.21-11.3-12.24C184.88,207.94,188.7,207.73,192.67,207.7Zm1.6,0c4,0,7.79.21,11.32.57-2.57,7-6.67,11.79-11.32,12.28Zm0-1.6V191.8h14.12a51.56,51.56,0,0,1-2.28,14.91C202.43,206.33,198.42,206.11,194.27,206.1ZM210,191.8h13a29.35,29.35,0,0,1-5.86,16.89,64.33,64.33,0,0,0-9.49-1.8A52.86,52.86,0,0,0,210,191.8Zm0-1.6A53,53,0,0,0,207.65,175a63.19,63.19,0,0,0,9.42-1.81,29.41,29.41,0,0,1,6,17Zm6-18.4a64.44,64.44,0,0,1-8.85,1.62c-1.84-5.06-4.44-9-7.5-11.38A29.62,29.62,0,0,1,216,171.8ZM187.32,162c-3.06,2.32-5.67,6.31-7.51,11.38A64.73,64.73,0,0,1,171,171.8,29.65,29.65,0,0,1,187.32,162Zm-16.39,48.11a63.87,63.87,0,0,1,8.85-1.65c1.84,5.1,4.46,9.11,7.54,11.45A29.64,29.64,0,0,1,170.93,210.15Zm28.69,9.8c3.08-2.34,5.71-6.38,7.55-11.51a64.18,64.18,0,0,1,8.92,1.61A29.63,29.63,0,0,1,199.62,220Z"></path><path class="cls-6" d="M223,238.45a2.18,2.18,0,0,0,2.18,2.18l54,0a2.2,2.2,0,0,0,2.21-2.19v.49a2.18,2.18,0,0,0-2.19-2.19l-54,0a2.2,2.2,0,0,0-2.19,2.19Z"></path><g class="cls-2"><g class="cls-3"><path class="cls-10" d="M322.17,172.48a12.34,12.34,0,0,1,12.36,12.3v87.09a12.34,12.34,0,0,1-12.36,12.3l-164,.07a12.35,12.35,0,0,1-12.37-12.3V184.85a12.33,12.33,0,0,1,12.36-12.31Z"></path></g></g><path class="cls-5" d="M302.39,184.63,302.33,203a3.56,3.56,0,0,0,3.57,3.56h18.37a3.57,3.57,0,0,0,3.59-3.56l.06-18.34a3.56,3.56,0,0,0-3.19-3.56H306A3.58,3.58,0,0,0,302.39,184.63Z"></path><path class="cls-6" d="M269.28,272.54a2.17,2.17,0,0,0,2.18,2.18h54a2.21,2.21,0,0,0,2.21-2.19V273a2.2,2.2,0,0,0-2.2-2.19l-54,0a2.2,2.2,0,0,0-2.19,2.18Z"></path><path class="cls-6" d="M216.67,272.56a2.17,2.17,0,0,0,2.17,2.18h38.94a2.17,2.17,0,0,0,2.18-2.19V273a2.15,2.15,0,0,0-2.17-2.18H218.87a2.2,2.2,0,0,0-2.19,2.19Z"></path><g class="cls-3"><path class="cls-5" d="M162.06,289.11a13.05,13.05,0,0,1-4.63-.85l.39-1a11.76,11.76,0,0,0,4.24.78h8.33v1.08Zm13.06,0V288H188v1.07Zm17.6,0V288h12.86v1.07Zm17.59,0V288h12.87v1.08Zm17.6,0V288h12.86v1.07Zm17.59,0V288h12.87v1.07Zm17.6,0V288H276v1.08Zm17.6,0V288h12.86v1.07Zm17.59,0V288h12.87v1.07Zm17.6,0V288h10.2a12,12,0,0,0,2.53-.28l.23,1.05a12.75,12.75,0,0,1-2.76.3h-10.2Zm17.46-2.24-.6-.88a11.76,11.76,0,0,0,5.16-9.72v-.89H339v.89A12.8,12.8,0,0,1,333.35,286.81Zm-180.08-1.14a12.88,12.88,0,0,1-4.12-9.4v-2.75h1.08v2.75a11.77,11.77,0,0,0,3.77,8.61ZM339,270.59h-1.07V257.73H339Zm-188.75-1.8h-1.07V255.93h1.07ZM339,253h-1.07V240.13H339Zm-188.75-1.8h-1.07V238.33h1.07ZM339,235.4h-1.07V222.54H339Zm-188.75-1.8h-1.07V220.74h1.07Zm187.68-15.8V204.94H339V217.8ZM150.23,216h-1.07V203.14h1.08ZM339,200.21h-1.07V189.12a11.8,11.8,0,0,0-.12-1.69l1.06-.16a12.69,12.69,0,0,1,.13,1.85Zm-188.74-1.8h-1.08v-9.22a12.8,12.8,0,0,1,.55-3.75l1,.31a11.75,11.75,0,0,0-.51,3.44ZM336.3,183.19a11.89,11.89,0,0,0-10.21-5.83v-1.07a13,13,0,0,1,11.13,6.35Zm-183.44-1.4-.83-.68a12.85,12.85,0,0,1,10-4.77h1.86v1.07h-1.86A11.8,11.8,0,0,0,152.86,181.79Zm15.79-4.38v-1.07h12.86v1.07Zm17.59,0v-1.07h12.87v1.07Zm17.6,0v-1.07H216.7v1.07Zm17.59,0v-1.07H234.3v1.07Zm17.6,0v-1.08h12.86v1.07Zm17.6,0v-1.07h12.86v1.08Zm17.59,0V176.3h12.87v1.07Zm17.6,0V176.3h12.86v1.08Zm17.59,0v-1.07h12.87v1.07Z"></path></g><path class="cls-7" d="M239.79,193.9A31.2,31.2,0,1,0,271,225.09,31.23,31.23,0,0,0,239.79,193.9Zm.8,16a118.16,118.16,0,0,0,11.81-.63,52.33,52.33,0,0,1,2.32,15H240.59Zm0-1.6V195.54c4.63.49,8.7,5.17,11.27,12.16C248.36,208.06,244.54,208.26,240.59,208.28Zm-1.6,0c-4,0-7.76-.22-11.27-.59,2.57-7,6.64-11.66,11.27-12.15Zm0,1.6v14.41H224.86a52.33,52.33,0,0,1,2.32-15A118.16,118.16,0,0,0,239,209.88Zm-15.73,14.41h-13a29.41,29.41,0,0,1,6-17,64.32,64.32,0,0,0,9.42,1.8A53.06,53.06,0,0,0,223.26,224.29Zm0,1.6a52.92,52.92,0,0,0,2.33,15.16,61.85,61.85,0,0,0-9.42,1.85,29.4,29.4,0,0,1-6-17Zm1.6,0H239V240.2a117.92,117.92,0,0,0-11.83.66A52.2,52.2,0,0,1,224.86,225.89ZM239,241.8v12.85c-4.65-.49-8.73-5.21-11.3-12.24C231.2,242,235,241.83,239,241.8Zm1.6,0c4,0,7.79.21,11.32.56-2.57,7.06-6.66,11.8-11.32,12.29Zm0-1.6V225.89h14.13a52.33,52.33,0,0,1-2.28,14.92C248.75,240.43,244.74,240.21,240.59,240.2Zm15.73-14.31h13.05a29.44,29.44,0,0,1-5.87,16.9A64.08,64.08,0,0,0,254,241,53.22,53.22,0,0,0,256.32,225.89Zm0-1.6A52.93,52.93,0,0,0,254,209.07a65.85,65.85,0,0,0,9.42-1.81,29.41,29.41,0,0,1,6,17Zm6-18.39a64.44,64.44,0,0,1-8.85,1.62c-1.83-5.07-4.44-9.06-7.5-11.38A29.62,29.62,0,0,1,262.29,205.9Zm-28.65-9.76c-3.06,2.32-5.67,6.31-7.5,11.38a64.61,64.61,0,0,1-8.86-1.62A29.65,29.65,0,0,1,233.64,196.14Zm-16.38,48.11a61.89,61.89,0,0,1,8.85-1.65c1.84,5.1,4.46,9.11,7.53,11.45A29.67,29.67,0,0,1,217.26,244.25Zm28.68,9.8c3.09-2.35,5.71-6.38,7.55-11.51a64.61,64.61,0,0,1,8.93,1.61A29.72,29.72,0,0,1,245.94,254.05Z"></path></g></svg> 