<?xml version="1.0" encoding="UTF-8"?> <svg xmlns="http://www.w3.org/2000/svg" viewBox="0 0 392.83 392.31"><defs><style>.cls-1,.cls-10{fill:#00a7e1;}.cls-1{opacity:0.4;}.cls-2{opacity:0.8;}.cls-3{fill:#606060;}.cls-4{fill:#b7b7b7;}.cls-5{fill:#939393;}.cls-6,.cls-8{fill:#fff;}.cls-7{fill:#003058;}.cls-12,.cls-8,.cls-9{opacity:0.6;}.cls-9{fill:#e9e9e9;}.cls-11{fill:#bebebe;}.cls-13{fill:#acabab;}.cls-14{fill:#b6e8fb;}</style></defs><title>digital-river-content-graphics-v1_isolated</title><g id="Layer_2" data-name="Layer 2"><path class="cls-1" d="M198.54,387.89h-.09c-1.37,0-2.74,0-4.1-.05h0V387c1.36,0,2.72.05,4.09.05Zm0,0h0v0Zm4.17-.05h0v0Zm0,0,0-.84c1.39,0,2.78-.08,4.17-.13l0,.41-.07-.41.08.83v0C205.52,387.76,204.13,387.81,202.73,387.84Zm-12.55-.13h0c-1.4-.06-2.8-.13-4.19-.22h-.05l.1-.83c1.39.09,2.78.16,4.17.22l0,.42.06-.41Zm16.78,0-.06-.42Zm4.14-.22,0-.42h0l0-.43c1.39-.09,2.78-.2,4.16-.32l0,.42v-.42l.07.84h0C213.9,387.28,212.5,387.39,211.1,387.48Zm-29.29-.3v0Zm0,0c-1.39-.11-2.78-.25-4.17-.4l0-.42h0l.05-.42c1.38.14,2.77.28,4.16.4l0,.42v-.42l-.05.83,0-.25Zm37.64-.41,0-.84c1.39-.15,2.77-.32,4.15-.5l.12.83-.06-.37,0,.37c-1.39.18-2.78.35-4.17.5h-.05Zm-46-.48h0c-1.39-.18-2.77-.38-4.15-.59h0l.14-.83-.06.42.07-.42c1.37.21,2.75.4,4.13.58l0,.42.07-.42Zm54.33-.61-.13-.83.08.4-.07-.41c1.38-.21,2.76-.43,4.12-.67l.08.41-.13-.4.2.81c-1.38.25-2.76.47-4.14.68l-.06-.41v0ZM165.16,385h0l.07-.43-.07.42c-1.38-.24-2.76-.49-4.13-.76h0l-.06,0,.23-.81c1.36.27,2.73.53,4.1.77Zm66.76,0,0-.1,0,.1Zm.06,0-.12-.4Zm4.06-.76-.08-.41h0l-.08-.42c1.37-.27,2.73-.56,4.09-.86l.09.41-.13-.4.2.82,0-.3.06.29C238.79,383.65,237.42,383.94,236,384.21ZM157,383.4h0c-1.37-.3-2.73-.62-4.09-.95l.1-.41v0l.11-.42c1.35.33,2.71.64,4.07.94L157,383l.13-.4Zm83.24-.06-.12-.4Zm4-.93-.16-.82c1.35-.33,2.7-.68,4-1l.11.41-.07-.42.2.82h0c-1.34.36-2.69.71-4.05,1Zm-95.41-1,.08-.42Zm0,0c-1.35-.36-2.7-.74-4-1.13h0l.26-.8c1.33.39,2.67.77,4,1.13l-.11.4.07-.41Zm103.59-1.18-.26-.8Zm0,0-.23-.8c1.34-.39,2.67-.8,4-1.22l.25.81h0C255,379.44,253.68,379.84,252.34,380.23Zm-111.62-1.16h0c-1.34-.42-2.68-.86-4-1.31h0l0,0L137,377c1.33.45,2.65.89,4,1.31l-.12.36.13-.36ZM256.35,379V379l0,.07Zm4-1.31-.31-.78.18.38-.14-.39c1.32-.45,2.64-.92,3.94-1.39l.31.78-.12-.28.1.29c-1.31.47-2.63.94-4,1.39l-.09-.29Zm3.81-1.8.13.35Zm-131.41.46h0c-1.32-.48-2.63-1-3.94-1.48h0l.33-.77c1.3.51,2.6,1,3.92,1.48l-.14.38.16-.38Zm135.47-1.53-.31-.78.21.47-.19-.48c1.3-.5,2.58-1,3.86-1.55l.16.39-.11-.4.31.77,0,0h0q-1.92.8-3.87,1.56l-.12-.28Zm-143.29-1.51.13-.4Zm0,0q-1.95-.8-3.87-1.65l.34-.77c1.27.57,2.56,1.11,3.85,1.65l-.16.39.11-.41-.29.79.13-.26Zm151-1.65-.27-.8c1.27-.56,2.53-1.13,3.79-1.72l.38.76h0l-.2-.39.19.39c-1.27.59-2.54,1.17-3.81,1.73h0Zm-158.69-1.73.1-.23-.11.22c-1.27-.59-2.54-1.2-3.79-1.82l.37-.75c1.25.62,2.51,1.22,3.77,1.81Zm.16-.39-.14.32Zm-4-1.44h0l.37-.75Zm170.14,0-.38-.75.34.66-.33-.67c1.25-.62,2.49-1.24,3.72-1.89l.18.35-.18-.35.39.75h0c-1.24.64-2.48,1.27-3.73,1.89Zm-173.87-1.89h0l.17-.32-.17.32c-1.24-.65-2.47-1.3-3.69-2l-.06,0,.45-.71q1.83,1,3.69,2Zm181.29-2-.2-.36h0l-.21-.37c1.22-.67,2.43-1.35,3.63-2.05l.21.36-.23-.34.43.72-.12-.24.13.23C293.38,362.87,292.17,363.55,290.94,364.22ZM102.3,362.17l0,0h0c-1.21-.7-2.42-1.42-3.61-2.14l.21-.36-.23.35.23-.35-.23.35.44-.72-.21.37.22-.36c1.19.72,2.39,1.44,3.6,2.13l-.2.36.22-.34Zm192.31,0-.22-.35Zm3.57-2.11-.43-.72.13.19-.12-.19c1.18-.73,2.36-1.46,3.53-2.21l.23.36-.22-.36.46.7h0c-1.18.75-2.36,1.49-3.56,2.21h0ZM95.09,357.79l.23-.35-.23.35c-1.18-.76-2.35-1.52-3.51-2.3h0l0-.05,0,.05.45-.72-.21.36.23-.34c1.16.77,2.32,1.53,3.49,2.28h0Zm210.14-2.24-.45-.72c1.16-.77,2.31-1.56,3.45-2.36l.5.68-.19-.24.17.25c-1.15.8-2.3,1.59-3.46,2.37l0,0,0,0Zm3.24-2.73.23.32Zm-220.34.3h0c-1.15-.8-2.28-1.62-3.41-2.45l.18-.25-.2.24.49-.68-.21.33.23-.32c1.13.83,2.26,1.64,3.4,2.44l-.24.34.26-.32Zm224-2.38-.47-.7c1.12-.82,2.23-1.65,3.33-2.5l.25.33-.23-.35.51.67h0c-1.1.86-2.22,1.69-3.35,2.52h0ZM81.37,348.16l.17-.26-.2.24.26-.34-.26.34c-1.11-.85-2.21-1.72-3.3-2.59h0v0l.54-.64-.29.36.29-.36c1.08.87,2.18,1.73,3.28,2.58Zm237.39-2.54-.54-.65.27.31-.26-.32c1.09-.87,2.16-1.75,3.23-2.65l.26.32-.26-.32.54.65c-1.07.9-2.15,1.78-3.24,2.66l-.2-.26Zm-.26-.33.26.33Zm-243.69-2.4h0l.21-.25-.21.25c-1.07-.9-2.13-1.81-3.19-2.73l0,0,.58-.61c1,.92,2.1,1.83,3.17,2.73Zm250.37-2.66-.28-.32h0l-.28-.32c1.05-.92,2.08-1.85,3.11-2.79l.28.31-.26-.33.57.62,0,0h0C327.27,338.37,326.23,339.31,325.18,340.23ZM68.51,337.36l.27-.32Zm0,0c-1-.94-2-1.9-3.06-2.87l.29-.3h0l.29-.3c1,1,2,1.91,3,2.85l-.28.31.26-.32-.55.63.14-.15Zm262.84-2.74-.54-.64c1-1,2-1.94,3-2.92l.6.59c-1,1-2,2-3,2.93h0Zm3-3-.6-.59.6.58Zm-271.93-.08h0L63,331Zm0,0c-1-1-2-2-2.92-3h0l0,0,.64-.55c1,1,1.93,2,2.92,3Zm274.87-2.9-.3-.29h0l-.3-.29c1-1,1.91-2,2.85-3.05l.32.28-.34-.26.64.55-.16-.15.16.15C339.23,326.61,338.27,327.63,337.3,328.64Zm2.89-3.09-.32-.26ZM56.65,325.5l0,0h0c-.94-1-1.88-2.07-2.8-3.12l.32-.28h0l.32-.28c.92,1,1.85,2.08,2.79,3.1l-.31.29.33-.26Zm286.3-3-.61-.58c.92-1,1.83-2.1,2.73-3.17l.65.53h0l-.32-.27.32.27q-1.35,1.61-2.73,3.18h0ZM51.1,319.18l.33-.26-.33.26c-.9-1.07-1.78-2.15-2.66-3.24l.33-.26-.33.26.33-.26-.33.26.64-.54-.31.28.33-.27c.87,1.09,1.75,2.16,2.64,3.23l-.31.26.32-.26ZM348.37,316l-.65-.53.42.33-.42-.34c.88-1.08,1.74-2.18,2.59-3.28l.68.49-.26-.17.24.19-.33-.25.33.25c-.85,1.11-1.71,2.21-2.59,3.3h0ZM45.86,312.66h0c-.85-1.11-1.69-2.23-2.52-3.35v0l.69-.47c.82,1.12,1.66,2.23,2.51,3.33l-.34.27.35-.24Zm307.63-3.27-.69-.49.39.25-.37-.27c.83-1.13,1.64-2.26,2.44-3.4l.35.24-.33-.26.68.49h0c-.81,1.15-1.62,2.29-2.45,3.42l-.25-.18ZM40.91,305.91l.23-.19-.25.17q-1.2-1.71-2.37-3.45l0,0,0,0,0,0,.72-.44c.77,1.15,1.56,2.3,2.36,3.44Zm.32-.26-.31.22Zm317.1-3.15h0l-.71-.44.36.2-.34-.23c.77-1.15,1.54-2.32,2.29-3.5l.71.46h0c-.76,1.18-1.53,2.35-2.3,3.51l-.35-.23.35.23ZM36.24,299l0,0h0c-.75-1.17-1.48-2.35-2.21-3.54h0l.72-.43-.22.14.22-.14c.73,1.19,1.46,2.37,2.21,3.54l-.35.22.35-.21Zm326.6-3.51-.71-.44.34.19-.34-.2c.73-1.2,1.44-2.39,2.14-3.6l.36.21-.35-.23.73.41,0,0h0c-.71,1.21-1.42,2.42-2.15,3.61l-.36-.22h0ZM31.89,291.8l.36-.22Zm0,0c-.7-1.21-1.39-2.42-2.06-3.65l.37-.2h0l.38-.2q1,1.83,2,3.63l-.36.21.35-.23-.72.42.24-.11ZM367,288.19l-.71-.45c.67-1.22,1.33-2.45,2-3.68l.76.37h0l-.41-.21.41.21c-.65,1.25-1.31,2.48-2,3.71h0Zm-339.2-3.74h0c-.64-1.24-1.27-2.48-1.89-3.73h0l.76-.38-.65.34.65-.33q.93,1.88,1.89,3.72l-.35.18.35-.18ZM371,280.71l-.75-.38.75.37Zm0,0-.75-.38c.62-1.25,1.22-2.5,1.81-3.77l.77.34-.23-.1.23.12C372.18,278.18,371.57,279.44,371,280.7Zm1.44-4,.32.15ZM24.14,277h0l.37-.19-.38.18c-.59-1.26-1.16-2.53-1.73-3.81h0l0-.06.79-.28c.56,1.27,1.14,2.54,1.72,3.79Zm350.37-3.89-.38-.17h0l-.38-.17c.56-1.28,1.11-2.56,1.64-3.85l.39.16-.4-.12.78.3-.25-.13.26.11C375.63,270.5,375.08,271.79,374.51,273.08ZM20.77,269.33v0h0c-.54-1.29-1.06-2.58-1.56-3.88l.28-.11-.29.09.78-.31-.38.18.39-.15c.5,1.29,1,2.58,1.55,3.86l-.38.16.4-.12Zm-1.2-4.06-.05,0,.06,0Zm356.62,3.89-.4-.12Zm1.54-3.83L377,265h0c.5-1.29,1-2.6,1.47-3.91l.4.14-.39-.16.79.28v0h0c-.48,1.32-1,2.64-1.48,3.94h0Zm-360-3.81.28-.12-.28.1c-.48-1.32-.95-2.64-1.4-4l.29-.1-.29.1.78-.31-.38.17.4-.13c.44,1.32.91,2.63,1.38,3.94Zm.4-.17-.33.12Zm362.48-3.92-.78-.31c.45-1.32.89-2.65,1.31-4l.35.11-.35-.12.8.24v0c-.42,1.33-.86,2.67-1.31,4h0ZM15,253.55h0c-.42-1.33-.83-2.67-1.22-4l.81-.24c.39,1.34.79,2.67,1.21,4Zm.12,0h-.05l.34-.09Zm-1.34-4,.41-.12-.41.11.8-.25Zm369.35-.14-.8-.26h0c.39-1.33.76-2.67,1.12-4l.41.11-.42-.07.82.17c-.36,1.36-.73,2.7-1.13,4ZM12.67,245.51h0c-.36-1.35-.71-2.71-1-4.07h0v0l.83-.16c.33,1.36.67,2.71,1,4.05l-.4.11.41-.07Zm371.61-.22-.41-.07Zm1-4-.41-.1h0l-.43-.11c.32-1.35.64-2.71.94-4.07l.4.09-.39-.13.82.18v0h0C386,238.55,385.64,239.91,385.31,241.27ZM10.68,237.39l.4-.12Zm0,0q-.45-2-.87-4.11l.42-.08h0l.42-.08c.27,1.37.56,2.73.86,4.09l-.41.09.4-.14-.82.21.3-.05Zm376.43-4.21-.81-.23c.27-1.36.53-2.73.77-4.1l.41.07-.39-.13.81.18v0h0c-.24,1.38-.5,2.76-.77,4.13h0Zm-378-4,.4-.12Zm0-.06c-.24-1.38-.47-2.76-.68-4.14l.32,0-.32,0,.36-.06-.36.05.83-.13-.39.07.39-.06c.21,1.38.44,2.75.68,4.12l-.41.08.39-.14-.81.21.11,0Zm379.53-4.29-.83-.14.38.05-.37-.06c.21-1.37.4-2.75.58-4.13l.41,0-.41-.07.83.12h0c-.18,1.39-.37,2.77-.58,4.15Zm-380.8-4,.42-.06-.42.06.37-.06-.37.05c-.18-1.39-.35-2.78-.5-4.17h0v0l.84,0c.15,1.39.32,2.77.5,4.15Zm381.89-4.35-.84-.09c.15-1.38.29-2.77.41-4.16l.41,0h-.41l.83.05-.24,0,.25,0C389.94,213.71,389.8,215.1,389.65,216.49Zm-382.8-4v0c-.12-1.39-.23-2.79-.32-4.19l.42,0h0l.43,0c.09,1.39.19,2.78.32,4.16l-.42,0h.42Zm383.21-.24h0Zm.31-4.1-.84-.1c.09-1.39.17-2.78.23-4.17l.42,0-.42-.07.84.06v0h0c-.06,1.4-.14,2.8-.23,4.19h0Zm-384.06-4,.41-.07Zm0-.06Zm0,0c-.06-1.39-.11-2.78-.14-4.18l.83,0H7c0,1.39.08,2.78.14,4.17l-.42,0,.41-.07Zm384.43-4.36h-.84c0-1.39.05-2.78.05-4.17v-.35h.84v.35c0,1.4,0,2.79,0,4.19Zm-384.62-4v-.19c0-1.34,0-2.68,0-4H7c0,1.33,0,2.66,0,4v.18Zm384.67-.54h0Zm-.9-4.18h0c0-1.39-.08-2.79-.14-4.17l.42,0-.41.07.83-.08h0c.06,1.39.11,2.79.14,4.19l-.79,0h-.05ZM7.12,187.43l-.83-.05v0h0c0-1.4.13-2.8.22-4.19h0v0l.84.1c-.09,1.39-.17,2.78-.23,4.17H6.71Zm383-.6.42-.06Zm-.65-4.14c-.09-1.4-.2-2.79-.32-4.17l.42,0h-.42l.83-.07v0c.12,1.39.23,2.78.32,4.18l-.42,0h0ZM7.66,179.05l-.42,0h.42l-.84,0,.26,0-.26,0c.12-1.4.25-2.79.4-4.18l.42,0h0l.44,0C7.91,176.27,7.77,177.66,7.66,179.05Zm-.42,0h0Zm381.54-4.66c-.16-1.38-.32-2.76-.51-4.14l.84-.13-.42.06.42-.05-.37.06.37,0c.18,1.38.35,2.77.5,4.16h0v.06ZM8.54,170.76l-.83-.12h0c.18-1.39.38-2.77.59-4.15v0l.83.14-.37,0,.37,0c-.21,1.38-.41,2.76-.58,4.14l-.43-.05Zm379.14-4.66.83-.14-.41.06.41-.06Zm0,0c-.21-1.38-.44-2.75-.68-4.12l.42-.07-.4.13.81-.2-.15,0,.15,0c.24,1.37.47,2.75.68,4.14ZM9.8,162.48,9,162.36v0l.35.06L9,162.34c.24-1.38.5-2.76.77-4.13h0v-.06l.81.23C10.29,159.74,10,161.11,9.8,162.48Zm377.61-.6.4-.12Zm-1.18-4c-.28-1.37-.56-2.73-.87-4.09l.41-.09-.39.13.81-.2-.3,0,.29-.06c.31,1.36.6,2.73.87,4.1l-.41.09h0ZM11.4,154.33l-.82-.18v0h0c.3-1.37.62-2.73.95-4.09l.4.1h0l.42.11c-.33,1.35-.64,2.7-.94,4.07L11,154.2Zm374.37-.66.4-.12Zm-1.36-4c-.33-1.35-.68-2.7-1-4l.41-.11-.42.07.82-.2v0h0c.36,1.35.71,2.7,1.05,4.06h0v0Zm-371-3.53-.41-.11.42.07-.82-.18c.36-1.35.74-2.7,1.12-4h0v0l.8.26C14.11,143.48,13.74,144.82,13.38,146.17Zm-.41-.1-.41-.08Zm369.28-4.41.38-.14-.39.12c-.39-1.34-.8-2.67-1.21-4h0l.8-.25c.43,1.33.83,2.67,1.23,4l-.31.09.31-.09-.35.1.35-.09Zm-.48-4.25-.35.1Zm-366.06.74-.81-.24v0c.42-1.34.85-2.67,1.3-4h0l0,0,.78.31c-.45,1.32-.88,2.65-1.3,4l-.44-.14Zm364-4.44.38-.17-.39.13c-.45-1.31-.92-2.63-1.39-3.93l.78-.31-.28.12.28-.1c.48,1.31.95,2.63,1.4,4l-.28.1.28-.09Zm-.91-4.16-.11,0,.33-.12Zm-360.43.68-.79-.29v0c.47-1.31,1-2.62,1.47-3.91h0v0l.78.33c-.51,1.3-1,2.61-1.48,3.92l-.39-.14Zm358.46-4.38.48-.21-.48.19c-.51-1.29-1-2.58-1.56-3.86l.39-.16-.41.12.78-.32v0h0c.54,1.28,1.06,2.58,1.57,3.87l-.28.12.29-.1ZM21.43,122.39l-.39-.16.4.12-.78-.3.26.13-.27-.11q.81-1.95,1.65-3.87l.39.17h0l.38.17C22.51,119.82,22,121.1,21.43,122.39Zm-.39-.15-.4-.12Zm352.61-4.09c-.57-1.27-1.14-2.54-1.73-3.79l.75-.38h0l-.37.19.37-.18c.59,1.26,1.17,2.53,1.73,3.81h0l0,.06ZM24.8,114.72l-.77-.34.23.1-.22-.11c.59-1.27,1.2-2.54,1.82-3.79l.75.37c-.61,1.25-1.22,2.5-1.8,3.76h0Zm-.52-.23.13.05-.29-.13Zm2.33-3.55-.75-.36h0Zm343.51-.32.63-.33-.64.32c-.62-1.25-1.25-2.48-1.89-3.71l.38-.2-.38.19.74-.39h0c.65,1.23,1.28,2.47,1.9,3.72h0ZM28.5,107.22l-.75-.38h0l.35.18-.35-.18c.65-1.25,1.31-2.48,2-3.71h0l0,0,.71.44C29.81,104.75,29.15,106,28.5,107.22Zm337.75-4c-.67-1.22-1.36-2.43-2.05-3.63l.36-.21-.35.23.72-.43-.24.12.23-.13c.7,1.2,1.39,2.42,2.06,3.64l-.36.2h0ZM32.52,99.9l-.73-.41,0,0h0c.71-1.22,1.42-2.42,2.15-3.62l.36.22h0L34,95.83l.71.44-.35-.2.34.21q-1.08,1.78-2.13,3.6l-.37-.22Zm332-.52.36-.22ZM362.07,96l.19-.12-.19.12c-.73-1.19-1.46-2.37-2.21-3.54l.34-.22-.35.21.71-.46v0h0c.75,1.17,1.49,2.35,2.21,3.54h0ZM36.88,92.73l-.71-.45h0c.75-1.18,1.52-2.36,2.29-3.52l.35.23-.35-.23h0l.24.16-.24-.16.71.44-.36-.2.34.23C38.39,90.38,37.63,91.55,36.88,92.73ZM357.57,89h0c-.77-1.15-1.55-2.29-2.35-3.42l.67-.51-.24.19.26-.17c.8,1.14,1.59,2.3,2.37,3.46l-.06,0,.06,0,0,0Zm-1.94-3.74-.08.06.31-.21ZM41.51,85.8l-.68-.49v0c.8-1.14,1.62-2.28,2.45-3.41l.25.18-.24-.19.68.48-.35-.22.33.25c-.82,1.12-1.63,2.25-2.43,3.4l-.35-.24Zm2.09-3.69,0,0Zm309.17.06c-.82-1.12-1.66-2.23-2.51-3.33l.35-.27-.36.24.67-.5h0c.85,1.11,1.69,2.23,2.52,3.35h0l0,0ZM46.47,79l-.68-.49.26.17-.24-.2.34.27-.34-.27c.85-1.11,1.71-2.21,2.59-3.3h0l.65.54-.49-.39.48.39C48.18,76.83,47.32,77.93,46.47,79Zm301.22-3.47.32-.27-.33.26c-.87-1.09-1.75-2.16-2.65-3.22l.18-.16-.18.15.64-.54h0c.89,1.07,1.78,2.14,2.66,3.23l-.26.21.26-.21-.3.24.3-.24Zm-2.05-3.75-.29.24Zm-293.93.7L51.05,72h0l.24.2-.24-.2c.9-1.07,1.81-2.14,2.74-3.19h0l0,0,.61.58C53.51,70.39,52.6,71.45,51.71,72.52Zm290.6-3.35c-.92-1-1.85-2.08-2.79-3.1l.31-.29-.33.26.62-.56,0,0h0c.94,1,1.88,2.07,2.8,3.12l-.32.27h0ZM57.22,66.24,56.91,66l.32.26-.63-.55.15.15-.15-.14c.94-1,1.9-2.05,2.86-3.06l.31.28h0l.32.31C59.11,64.19,58.16,65.21,57.22,66.24ZM56.9,66l-.32-.27ZM336.66,63c-1-1-1.94-2-2.92-3h0l.58-.6h0c1,1,2,2,2.93,3h0l0,0ZM63,60.2l-.6-.59h0Zm0,0-.59-.59c1-1,2-2,3-2.94h0l0,0,.54.64C65,58.24,64,59.22,63,60.2Zm267.76-3.08c-1-1-2-1.91-3.05-2.85L328,54l-.27.34.55-.64-.15.16.15-.16c1,.94,2.05,1.9,3.06,2.86l-.29.31h0ZM69,54.44l-.57-.62,0,0h0c1-.94,2.07-1.88,3.12-2.8l.28.32v0l.29.33c-1,.92-2.08,1.85-3.11,2.79l-.28-.3ZM328,54l.27-.32Zm-3.39-2.47c-1-.92-2.11-1.83-3.17-2.72h0l.53-.66h0l-.27.33.27-.32c1.08.89,2.14,1.81,3.19,2.73h0l0,0ZM75.29,48.91l-.54-.64c1.07-.9,2.15-1.79,3.24-2.66l.26.32-.17-.22.12.16L78,45.6l.54.65-.27-.3.26.31c-1.09.87-2.16,1.76-3.23,2.65l-.23-.27Zm-.53-.64h0Zm243.42-2.16.35-.44-.35.44c-1.08-.87-2.18-1.73-3.29-2.58l.49-.68-.17.25.19-.24-.26.34.27-.34c1.11.85,2.21,1.72,3.3,2.59h0ZM81.77,43.7l-.5-.67h0c1.11-.86,2.23-1.69,3.35-2.52h0l0,0,.47.69C84,42,82.9,42.83,81.8,43.68l-.26-.34ZM311.57,41l.23-.35-.25.33c-1.12-.82-2.26-1.64-3.4-2.43l.24-.35-.26.33.49-.68h0c1.15.8,2.29,1.62,3.42,2.44l-.18.26.19-.25Zm.25-.38,0,0ZM88.52,38.74,88,38.07l.19.24L88,38.05q1.71-1.2,3.45-2.37l0,0,0,0h0l.44.71C90.8,37.15,89.66,37.94,88.52,38.74Zm-.31-.42.07.08-.22-.32Zm216.52-2.08.21-.38-.24.36c-1.16-.77-2.33-1.53-3.5-2.28l.45-.71-.24.35.24-.35c1.18.75,2.35,1.52,3.52,2.3h0l-.24.35.24-.35ZM95.44,34.1,95,33.4l0,0h0c1.18-.75,2.36-1.48,3.55-2.21h0l.43.73-.13-.2.12.2c-1.18.72-2.36,1.46-3.53,2.21l-.24-.37Zm202.22-2.36.2-.37-.21.36c-1.2-.72-2.4-1.43-3.61-2.13l.21-.36-.23.34.41-.73,0,0h0c1.22.7,2.42,1.41,3.62,2.14l-.22.36.24-.35-.24.35.24-.35Zm-195.09-2-.22-.36.24.35-.43-.72.12.24-.14-.24c1.21-.7,2.43-1.38,3.65-2.06l.2.37h0l.21.38C105,28.38,103.77,29.06,102.57,29.76Zm-.22-.36-.23-.35Zm188-1.85c-1.22-.67-2.46-1.33-3.69-2l.37-.75h0l-.19.37.19-.37c1.25.65,2.48,1.31,3.71,2h0l0,0ZM109.86,25.74l-.39-.74h0c1.23-.65,2.47-1.28,3.72-1.9h0l.38.76-.34-.65.33.65q-1.87.93-3.72,1.89l-.18-.36Zm173.12-2,.37-.76h0Zm0,0c-1.25-.61-2.51-1.22-3.77-1.81l.34-.76-.1.23.11-.23c1.27.59,2.54,1.2,3.79,1.82Zm-3.54-2.33-.06.14.14-.3ZM117.33,22l-.38-.75h0l.19.37-.18-.38c1.26-.59,2.53-1.16,3.81-1.73h0l.06,0,.28.79C119.85,20.88,118.58,21.46,117.33,22Zm158.05-1.89c-1.28-.56-2.56-1.11-3.85-1.65l.16-.39-.12.41.3-.78-.13.26.11-.27q1.93.8,3.87,1.65l-.17.38h0ZM124.9,18.69l-.32-.77,0,0h0q1.92-.79,3.87-1.56h0l.11.28-.09-.29.3.78-.17-.37.15.38c-1.29.51-2.58,1-3.86,1.56l-.16-.39Zm3.72-2,0,.06Zm143.06,1.44.12-.4Zm-4-1.16q-2-.76-3.93-1.47l.14-.4-.16.39.29-.79h0c1.32.47,2.63,1,3.94,1.47h0Zm-134.93-1.3-.31-.79.12.28-.1-.28c1.31-.48,2.63-.95,4-1.4l.1.29-.1-.29.31.78-.18-.38.14.39C135.33,14.7,134,15.17,132.71,15.65Zm-.19-.5,0,.11-.12-.33Zm127.24-1.06c-1.33-.45-2.65-.88-4-1.3l.13-.42-.14.42L256,12h0c1.34.42,2.68.86,4,1.3l0,0ZM140.62,13l-.26-.8,0,.06,0-.06c1.33-.42,2.67-.83,4-1.22l.11.4v0l-.11-.38.26.8-.14-.39.11.39C143.27,12.13,141.94,12.53,140.62,13Zm111.15-1.36c-1.34-.39-2.68-.76-4-1.12l.1-.41-.06.42.17-.82c1.35.36,2.7.73,4,1.12h0Zm-103.18-1-.19-.82h0c1.35-.37,2.7-.71,4.06-1.05h0l.16.83c-1.35.33-2.7.68-4.05,1l-.1-.41Zm99.26-.56.07-.41Zm-4.15-.62c-1.35-.32-2.71-.64-4.07-.94l.09-.41-.14.4.19-.81h0c1.37.3,2.73.62,4.09,1l-.1.4h0Zm-86.95-.82-.09-.41.13.4-.2-.82,0,.3-.07-.29c1.37-.31,2.74-.59,4.11-.87l.08.41h0l.08.43C159.47,8,158.1,8.32,156.75,8.62Zm-.1-.41-.13-.4Zm78.89-.56c-1.37-.26-2.74-.52-4.11-.75l.12-.84h0l-.07.42.07-.42c1.38.24,2.76.49,4.13.76h0l.06,0ZM164.94,7l-.07-.42L165,7l-.2-.81c1.37-.24,2.75-.47,4.13-.68l.07.41v0h0l-.05-.39.13.83L169,5.9l.06.41C167.68,6.52,166.31,6.74,164.94,7Zm-.08-.42-.13-.4Zm0-.28,0-.13h0Zm62.49-.06.05-.37-.05.37c-1.38-.21-2.76-.41-4.14-.58l.05-.42-.06.41.11-.83h0c1.39.18,2.77.38,4.15.58h0ZM173.2,5.71l-.13-.83.07.39,0-.39c1.38-.18,2.77-.35,4.16-.5h.06l0,.83C176,5.37,174.57,5.53,173.2,5.71ZM219,5.16c-1.38-.15-2.77-.28-4.16-.4l0-.41v.41l0-.84,0,.26,0-.26c1.39.12,2.78.25,4.17.4l0,.42h0Zm-37.56-.35L181.39,4h0c1.39-.12,2.78-.23,4.18-.32l0,.42v0l0,.43c-1.39.1-2.78.2-4.16.32l0-.42Zm29.24-.36c-1.39-.09-2.78-.16-4.17-.22l0-.42-.07.42.06-.84h0c1.4.06,2.8.13,4.19.22h.05Zm4.19-.11v0Zm-25.06-.09V3.83l.06.42-.07-.83v0c1.39-.07,2.78-.11,4.18-.14l0,.84C192.61,4.15,191.22,4.19,189.83,4.25ZM194,4.12V3.28h0Zm8.37,0v0c-1.3,0-2.6,0-3.9,0h-.27V3.23h.26c1.31,0,2.62,0,3.92,0h0Zm-4.19,0V3.22h0Zm-8.37-.22-.06-.42Z"></path><path class="cls-1" d="M198.45,348.37c-84.26,0-152.81-68.55-152.81-152.81S114.19,42.75,198.45,42.75s152.8,68.55,152.8,152.81S282.7,348.37,198.45,348.37Zm0-304.78c-83.8,0-152,68.17-152,152s68.17,152,152,152,152-68.18,152-152S282.24,43.59,198.45,43.59Z"></path></g><g id="Layer_1" data-name="Layer 1"><g class="cls-2"><rect class="cls-3" x="49.76" y="97.95" width="294.72" height="10.85"></rect><path class="cls-4" d="M124.3,108.81v-5.35a2.42,2.42,0,0,0-2.45-2.39H60a2.42,2.42,0,0,0-2.45,2.39v5.35h-7.8v14.47H344.49V108.81Z"></path><rect class="cls-5" x="49.76" y="123.28" width="294.72" height="172.19"></rect><path class="cls-6" d="M323,120.63H79.81a2.85,2.85,0,0,1-2.88-2.82v-3.53a2.85,2.85,0,0,1,2.88-2.82H323a2.85,2.85,0,0,1,2.89,2.82v3.53A2.85,2.85,0,0,1,323,120.63Z"></path><rect class="cls-7" x="334.03" y="113.99" width="4.88" height="0.53"></rect><rect class="cls-7" x="334.03" y="115.71" width="4.88" height="0.53"></rect><rect class="cls-7" x="334.03" y="117.43" width="4.88" height="0.53"></rect><polygon class="cls-7" points="58.17 119.3 58.56 118.92 55.93 116.35 58.59 113.75 58.2 113.37 55.54 115.96 55.17 116.32 55.15 116.35 58.17 119.3"></polygon><rect class="cls-7" x="55.81" y="116.05" width="6.12" height="0.57"></rect><polygon class="cls-7" points="69.81 119.3 69.42 118.92 72.05 116.35 69.39 113.75 69.78 113.37 72.44 115.96 72.81 116.32 72.84 116.35 69.81 119.3"></polygon><rect class="cls-7" x="66.06" y="116.05" width="6.12" height="0.57"></rect><polygon class="cls-7" points="84.39 114.58 82.91 115.52 84.12 115.76 84.39 114.58"></polygon><path class="cls-7" d="M83.72,116.47a1.71,1.71,0,1,1-1.66-2.11,1.73,1.73,0,0,1,1.47.82l.35-.21a2.13,2.13,0,0,0-1.82-1,2.08,2.08,0,1,0,2,2.66Z"></path><path class="cls-7" d="M121.84,105.65h0a.14.14,0,0,1-.22,0l-1.89-1.83a.16.16,0,0,1,0-.22h0a.17.17,0,0,1,.23,0l1.88,1.84A.16.16,0,0,1,121.84,105.65Z"></path><path class="cls-7" d="M121.84,105.65h0a.14.14,0,0,1-.22,0l-1.89-1.83a.16.16,0,0,1,0-.22h0a.17.17,0,0,1,.23,0l1.88,1.84A.16.16,0,0,1,121.84,105.65Z"></path><path class="cls-7" d="M121.84,103.59h0a.16.16,0,0,1,0,.22L120,105.65a.15.15,0,0,1-.23,0h0a.16.16,0,0,1,0-.22l1.89-1.84A.16.16,0,0,1,121.84,103.59Z"></path><path class="cls-7" d="M338.33,105.2h0a.27.27,0,0,1-.39,0L334.6,102a.27.27,0,0,1,0-.39h0a.3.3,0,0,1,.4,0l3.32,3.25A.27.27,0,0,1,338.33,105.2Z"></path><path class="cls-7" d="M338.33,105.2h0a.27.27,0,0,1-.39,0L334.6,102a.27.27,0,0,1,0-.39h0a.3.3,0,0,1,.4,0l3.32,3.25A.27.27,0,0,1,338.33,105.2Z"></path><path class="cls-7" d="M338.32,101.56h0a.27.27,0,0,1,0,.39L335,105.2a.28.28,0,0,1-.4,0h0a.27.27,0,0,1,0-.39l3.33-3.25A.29.29,0,0,1,338.32,101.56Z"></path><path class="cls-7" d="M330.36,105.43h-3.14a.31.31,0,0,1-.31-.31h0a.31.31,0,0,1,.31-.31h3.14a.31.31,0,0,1,.31.31h0A.31.31,0,0,1,330.36,105.43Z"></path></g><rect class="cls-8" x="257.2" y="135.28" width="75.58" height="49.4" rx="6.94"></rect><rect class="cls-9" x="259.48" y="188.48" width="71.02" height="2.15"></rect><rect class="cls-8" x="259.48" y="192.77" width="71.02" height="2.15"></rect><rect class="cls-8" x="259.48" y="197.07" width="71.02" height="2.15"></rect><rect class="cls-8" x="259.48" y="201.36" width="71.02" height="2.15"></rect><path class="cls-6" d="M263.56,249.68V251h-.72v-1.3a4.93,4.93,0,0,1-2.93-1.1l.36-1.39a4.92,4.92,0,0,0,2.57,1.15v-2.71c-1.95-.53-2.72-1.43-2.72-2.72s1.05-2.38,2.72-2.49v-1.26h.72v1.26a4.81,4.81,0,0,1,2.36.83l-.36,1.26a5.22,5.22,0,0,0-2-.73V244c1.93.54,2.8,1.4,2.8,2.88A2.75,2.75,0,0,1,263.56,249.68Zm-.72-7.9c-.71.08-1.11.46-1.11,1s.3.77,1.11,1Zm.72,6.56a1.26,1.26,0,0,0,1.19-1.24c0-.57-.34-.95-1.19-1.23Z"></path><path class="cls-6" d="M270.22,249.94a4.35,4.35,0,0,1-2.8-.95v-1.52a3.76,3.76,0,0,0,2.57,1.12,1.77,1.77,0,0,0,1.92-1.85,1.5,1.5,0,0,0-1.61-1.64,1.84,1.84,0,0,0-1.29.52l-.76-.84,2.92-2.86h-3.72v-1.46h6.12v.86l-2.6,2.55a2.75,2.75,0,0,1,2.73,2.91A3.18,3.18,0,0,1,270.22,249.94Z"></path><path class="cls-6" d="M277.6,249.91a4.07,4.07,0,0,1-2.2-.61v-1.4a4,4,0,0,0,2,.64c1.37,0,2.37-.78,2.43-3.18a2.61,2.61,0,0,1-2.14,1,2.85,2.85,0,0,1-2.88-3.09,3.17,3.17,0,0,1,3.35-3.15c1.47,0,3.48.75,3.48,4.37C281.67,247.81,280.28,249.91,277.6,249.91Zm.66-8.5a1.64,1.64,0,0,0-1.61,1.85c0,1.06.52,1.86,1.55,1.86a1.66,1.66,0,0,0,1.66-1.7C279.86,242.12,279.11,241.41,278.26,241.41Z"></path><path class="cls-6" d="M282.8,249.68v-1.86h1.86v1.86Z"></path><path class="cls-6" d="M288.44,249.91a4.07,4.07,0,0,1-2.2-.61v-1.4a4,4,0,0,0,2,.64c1.37,0,2.37-.78,2.43-3.18a2.61,2.61,0,0,1-2.14,1,2.86,2.86,0,0,1-2.89-3.09,3.18,3.18,0,0,1,3.36-3.15c1.47,0,3.48.75,3.48,4.37C292.51,247.81,291.12,249.91,288.44,249.91Zm.66-8.5a1.64,1.64,0,0,0-1.61,1.85c0,1.06.52,1.86,1.55,1.86a1.66,1.66,0,0,0,1.66-1.7C290.7,242.12,290,241.41,289.1,241.41Z"></path><path class="cls-6" d="M296.51,249.91a4,4,0,0,1-2.19-.61v-1.4a4,4,0,0,0,2,.64c1.37,0,2.37-.78,2.43-3.18a2.6,2.6,0,0,1-2.13,1,2.86,2.86,0,0,1-2.89-3.09,3.17,3.17,0,0,1,3.35-3.15c1.47,0,3.49.75,3.49,4.37C300.59,247.81,299.19,249.91,296.51,249.91Zm.66-8.5a1.65,1.65,0,0,0-1.61,1.85c0,1.06.52,1.86,1.55,1.86a1.65,1.65,0,0,0,1.66-1.7C298.77,242.12,298,241.41,297.17,241.41Z"></path><rect class="cls-10" x="259.32" y="259.61" width="52.86" height="17.62"></rect><path class="cls-6" d="M272.17,270.83h-1.84v-4.26h1.77c1,0,1.37.5,1.37,1.11a1.09,1.09,0,0,1-.49.84,1.16,1.16,0,0,1,.73,1.06C273.71,270.27,273.26,270.83,272.17,270.83Zm-.91-2.55H272c.46,0,.65-.24.65-.55s-.19-.56-.65-.56h-.69Zm.75.6h-.75v1.35H272c.58,0,.81-.29.81-.68S272.59,268.88,272,268.88Z"></path><path class="cls-6" d="M276.46,271a1.9,1.9,0,0,1-2.09-2.09v-2.29h.94v2.26c0,.93.42,1.38,1.16,1.38s1.17-.45,1.17-1.38v-2.26h.9v2.29A1.9,1.9,0,0,1,276.46,271Z"></path><path class="cls-6" d="M281.68,269.13v1.7h-.92v-1.7L279,266.57h1l1.25,1.85,1.25-1.85h1Z"></path><path class="cls-6" d="M288.59,270.83,286.21,268v2.81h-.82v-4.26H286l2.38,2.81v-2.81h.82v4.26Z"></path><path class="cls-6" d="M292.42,271a2.26,2.26,0,1,1,2.45-2.25A2.32,2.32,0,0,1,292.42,271Zm0-3.81a1.56,1.56,0,1,0,1.48,1.56A1.46,1.46,0,0,0,292.42,267.14Z"></path><path class="cls-6" d="M299.86,270.83h-.67l-.9-2.55a3.4,3.4,0,0,1-.09-.33s-.07.25-.1.33l-.9,2.55h-.67L295,266.57h.91l.92,2.68c0,.09.08.37.09.39s.07-.29.11-.39l.88-2.68h.66l.88,2.68.11.39a2.48,2.48,0,0,1,.09-.39l.91-2.68h.88Z"></path><rect class="cls-11" x="259.38" y="221.12" width="34" height="11.25"></rect><path class="cls-6" d="M293.55,232.53H259.22V221h34.33Zm-34-.32h33.68V221.29H259.54Z"></path><path class="cls-6" d="M330.47,232.53H296.13V221h34.34Zm-34-.32h33.68V221.29H296.46Z"></path><g class="cls-12"><path class="cls-6" d="M244.57,267.65c0,6.17-4,11.17-8.88,11.17H71.07c-4.91,0-8.89-5-8.89-11.17V145.86c0-6.17,4-11.17,8.89-11.17H235.69c4.91,0,8.88,5,8.88,11.17Z"></path><polygon class="cls-13" points="75.43 207.87 74.69 207.12 70.4 211.41 70.4 211.41 69.66 212.15 69.66 212.15 69.66 212.15 70.4 212.9 70.4 212.9 74.69 217.18 75.43 216.44 71.14 212.15 75.43 207.87"></polygon><polygon class="cls-13" points="231.32 207.87 232.07 207.12 236.35 211.41 236.35 211.41 237.1 212.15 237.09 212.15 237.1 212.15 236.35 212.9 236.35 212.9 232.07 217.18 231.32 216.44 235.61 212.15 231.32 207.87"></polygon></g><polygon class="cls-10" points="386.89 84.25 380.76 84.25 380.76 83.3 385.95 83.3 385.95 78.11 386.89 78.11 386.89 84.25"></polygon><path class="cls-10" d="M369.18,84.24H357.6V83.3h11.58Zm-23.16,0H334.45V83.3H346Zm-23.15,0H311.29V83.3h11.58Zm-23.15,0H288.14V83.3h11.58Z"></path><polygon class="cls-10" points="276.56 84.25 270.43 84.25 270.43 78.11 271.37 78.11 271.37 83.3 276.56 83.3 276.56 84.25"></polygon><path class="cls-10" d="M271.37,65h-.94V51.9h.94Zm0-26.21h-.94V25.69h.94Z"></path><polygon class="cls-10" points="271.37 12.59 270.43 12.59 270.43 6.45 276.56 6.45 276.56 7.39 271.37 7.39 271.37 12.59"></polygon><path class="cls-10" d="M369.18,7.39H357.6V6.45h11.58ZM346,7.39H334.45V6.45H346Zm-23.15,0H311.29V6.45h11.58Zm-23.15,0H288.14V6.45h11.58Z"></path><polygon class="cls-10" points="386.89 12.59 385.95 12.59 385.95 7.39 380.76 7.39 380.76 6.45 386.89 6.45 386.89 12.59"></polygon><path class="cls-10" d="M386.89,65H386V51.9h.94Zm0-26.21H386V25.69h.94Z"></path><rect class="cls-10" x="266.65" y="59.13" width="3.92" height="0.65"></rect><path class="cls-10" d="M259.28,59.78h-7.37v-.65h7.37Zm-14.74,0h-7.37v-.65h7.37Zm-14.74,0h-7.37v-.65h7.37Zm-14.74,0h-7.37v-.65h7.37Zm-14.74,0H193v-.65h7.37Zm-14.74,0h-7.37v-.65h7.37Zm-14.74,0h-7.37v-.65h7.37Z"></path><rect class="cls-10" x="152.17" y="59.13" width="3.92" height="0.65"></rect><rect class="cls-10" x="151.85" y="148.25" width="0.65" height="3.92"></rect><path class="cls-10" d="M152.5,140.53h-.65v-7.71h.65Zm0-15.43h-.65v-7.71h.65Zm0-15.43h-.65V102h.65Zm0-15.43h-.65V86.53h.65Zm0-15.43h-.65V71.1h.65Z"></path><rect class="cls-10" x="151.85" y="59.46" width="0.65" height="3.92"></rect><rect class="cls-10" x="286.27" y="287.57" width="0.65" height="3.92"></rect><polygon class="cls-10" points="286.83 308.99 286.18 308.98 286.27 304.08 286.27 300.24 286.92 300.24 286.92 304.09 286.83 308.99"></polygon><polygon class="cls-10" points="286.59 321.98 282.35 321.98 282.35 321.33 285.95 321.33 286.02 317.73 286.67 317.74 286.59 321.98"></polygon><path class="cls-10" d="M274.2,322h-8.15v-.65h8.15Zm-16.3,0h-8.15v-.65h8.15Zm-16.3,0h-8.15v-.65h8.15Zm-16.3,0h-8.15v-.65h8.15ZM209,322h-8.15v-.65H209Zm-16.3,0h-8.15v-.65h8.15Zm-16.3,0h-8.15v-.65h8.15Zm-16.3,0H152v-.65h8.15Zm-16.3,0h-8.14v-.65h8.14Z"></path><rect class="cls-10" x="123.58" y="321.33" width="3.92" height="0.65"></rect><path class="cls-14" d="M24,327.28h4.26a38.82,38.82,0,0,1,.09-5.59c1.84-20.88,20.24-37.85,41.11-37.9a34.3,34.3,0,0,1,25.85,11.16c.66.77,1.52,1.82,2.14,2.62.39.51.86,1.23,1.22,1.76a36.82,36.82,0,0,1,2,3.59,20.26,20.26,0,0,1,9.06-2.2,18,18,0,0,1,5.66.86,17.12,17.12,0,0,1,4.83,2.43,15.12,15.12,0,0,1,1.39,1.12,14.74,14.74,0,0,1,1.25,1.25h0a17.26,17.26,0,0,1,1.8,2.37,16.25,16.25,0,0,1,1.39,2.64,17.85,17.85,0,0,1,1.36,5.36,18.21,18.21,0,0,1-.29,5.64h0a22.42,22.42,0,0,1-1.57,4.73,14.42,14.42,0,0,1,10.32,4.7,15,15,0,0,1,3.81,8.59,16.08,16.08,0,0,1-.13,4.29,16.91,16.91,0,0,1-1.63,5,17.47,17.47,0,0,1-2.92,4.14,18.47,18.47,0,0,1-3.91,3.13,16.51,16.51,0,0,1-5.9,2.15l-.2,0a17.23,17.23,0,0,1-2.47.21,13.89,13.89,0,0,0,2.23-.19,14.73,14.73,0,0,1-1.76.13l-101.5.2a12.58,12.58,0,0,1-6.19-1.56,12.7,12.7,0,0,0,6.28,1.62,14.9,14.9,0,0,1-2.61-.21,16.12,16.12,0,0,1-3.41-1,15.81,15.81,0,0,1-3-1.67,16.16,16.16,0,0,1-2.35-2.11,14.71,14.71,0,0,1-3.63-11.26A17.85,17.85,0,0,1,24,327.28Z"></path><path class="cls-10" d="M19.61,355.87l-.71,0h0a11.83,11.83,0,0,1-2-.19,15.7,15.7,0,0,1-3.49-1c-.36-.16-.74-.33-1.18-.56l.32-.6c.27.15.52.26.76.37l.14-.26a12.31,12.31,0,0,0,4.9,1.48v.05l1.23.05Zm1.76-.06v-.68h8.18v.67Zm11.19,0v-.68l8.17,0v.68Zm11.18,0v-.68l8.18,0v.68Zm11.17,0v-.68l8.17,0v.68Zm11.17,0V355h8.17v.68Zm11.18,0V355l8.17,0v.68Zm11.17,0V355l8.17,0v.68Zm32.12,0V355c.3,0,.59,0,.89,0l.51,0v0l.8-.09v0l.23,0,.2,0a16.55,16.55,0,0,0,2.29-.54l.2.65a17.51,17.51,0,0,1-2.38.56l-.16,0c-.58.09-1.11.15-1.61.18C121.18,355.66,120.86,355.67,120.55,355.67Zm-20.94,0V355l8.18,0v.68Zm11.17,0V355H119v.68Zm17.71-1.94-.32-.6c.31-.16.57-.31.77-.44a18,18,0,0,0,3.84-3.07,17.31,17.31,0,0,0,1.4-1.68l.55.4a18.42,18.42,0,0,1-5.43,4.93C129.09,353.36,128.82,353.52,128.49,353.69ZM9.71,352.42A17.54,17.54,0,0,1,8,350.81a14.51,14.51,0,0,1-3-5.15l.64-.21a13.92,13.92,0,0,0,2.86,4.89,17.06,17.06,0,0,0,1.63,1.56Zm126.61-6.73-.61-.29a17,17,0,0,0,1.54-4.76,15,15,0,0,0,.21-2.6v-.37h.68V338a15.34,15.34,0,0,1-.22,2.72A17.48,17.48,0,0,1,136.32,345.69Zm-132-3a15.55,15.55,0,0,1-.12-1.94c0-.48,0-1,.07-1.45a17,17,0,0,1,1.13-4.78l.63.25A16.33,16.33,0,0,0,5,339.34c0,.46-.07.93-.07,1.39A14.29,14.29,0,0,0,5,342.59Zm132.77-7.9a14.68,14.68,0,0,0-3.45-6.73l-.22-.24.49-.47.24.26a15.32,15.32,0,0,1,3.6,7ZM7.35,332.12l-.59-.35a18.75,18.75,0,0,1,5.73-5.93l.38.57A18,18,0,0,0,7.35,332.12Zm123.85-6.21a14.5,14.5,0,0,0-7.48-2.45l0-.68a15.2,15.2,0,0,1,7.82,2.57ZM15.45,325l-.27-.63A17.1,17.1,0,0,1,22,322.94h3.91c0-.62-.05-1.25-.05-1.88s0-1.12,0-1.68l.67,0c0,.56,0,1.11,0,1.66,0,.74,0,1.48.06,2.2l0,.36H22A16.19,16.19,0,0,0,15.45,325Zm109.48-4.45-.65-.21a19.86,19.86,0,0,0,.54-2,18.82,18.82,0,0,0,.38-3.7,16.21,16.21,0,0,0-.1-1.84l0-.32.67-.09,0,.34a17.33,17.33,0,0,1,.1,1.91,19.3,19.3,0,0,1-.39,3.83A21.44,21.44,0,0,1,124.93,320.57Zm-98.1-4.14-.68-.08a40.56,40.56,0,0,1,1.83-8l.64.22A39.83,39.83,0,0,0,26.83,316.43Zm97.67-6.86a15.11,15.11,0,0,0-.73-2.06,18.35,18.35,0,0,0-1.36-2.59,17.5,17.5,0,0,0-1.75-2.3l.52-.44a18.53,18.53,0,0,1,1.8,2.37,18.22,18.22,0,0,1,1.41,2.69,15.42,15.42,0,0,1,.76,2.14Zm-94.82-3.79-.63-.26A42.81,42.81,0,0,1,33,298.3l.57.38A41.8,41.8,0,0,0,29.68,305.78Zm88.84-5.16-.47-.34a16.72,16.72,0,0,0-4.73-2.39,19.46,19.46,0,0,0-2-.52l.13-.66a17.14,17.14,0,0,1,2.11.53,17.54,17.54,0,0,1,4.92,2.49l.48.36Zm-18-2.15-.25-.64a20.19,20.19,0,0,1,7.48-1.46h.63l0,.68h-.57A19.73,19.73,0,0,0,100.53,298.47Zm-2.65-.4a26.93,26.93,0,0,0-1.49-2.56l-.17-.26c-.33-.49-.7-1.06-1-1.48-.5-.65-1.2-1.52-1.9-2.34l.52-.44c.7.83,1.42,1.71,1.92,2.36.34.45.72,1,1.06,1.53l.17.25a28.7,28.7,0,0,1,1.52,2.62Zm-62.59-1.79-.54-.42a44.24,44.24,0,0,1,5.65-6l.45.51A43.46,43.46,0,0,0,35.29,296.28Zm56-7a33,33,0,0,0-6.48-4.77l.33-.6a33.68,33.68,0,0,1,6.62,4.88Zm-48.09-.77-.41-.54a43.07,43.07,0,0,1,7-4.32l.3.61A42.84,42.84,0,0,0,43.15,288.53Zm39-5.34a33.9,33.9,0,0,0-7.69-2.42l.13-.67a35.23,35.23,0,0,1,7.84,2.47Zm-29.38-.13-.25-.63a40.76,40.76,0,0,1,7.87-2.32l.13.67A40.42,40.42,0,0,0,52.73,283.06Zm10.68-2.71-.07-.68a40.83,40.83,0,0,1,4.13-.23c1.42,0,2.77.08,4.08.21l-.07.68a36.54,36.54,0,0,0-3.93-.21A39.91,39.91,0,0,0,63.41,280.35Z"></path><path class="cls-14" d="M379.25,66.58a20.55,20.55,0,0,0,3.1-9,16.85,16.85,0,0,0-17.08-18.7h-1.68c1.18-13.41-8-23.48-20.41-23.45-7.58,0-14.61,3.77-19.89,10.42a13.12,13.12,0,0,0-9.2-3.87,15.09,15.09,0,0,0-14.7,13.55,25.35,25.35,0,0,0,.1,3.45c-11,.7-19.45,8.85-20.32,18.8-.91,10.36,6.61,19.13,16.95,19.11a.26.26,0,0,1-.22.14h5.8l5.8,0h34.82l5.81,0h13.49C368.76,76.87,375.47,72.61,379.25,66.58Z"></path><path class="cls-10" d="M293,73.2v-.14h-.5l0-1h1.55l-.09.14,9.73,0v1L293,73.2Zm0-1a.24.24,0,0,0-.19.08l.19.12Zm15,1v-1l11.72,0v1Zm16,0v-1l11.71,0v1Zm16,0v-1l11.71,0v1Zm16,0v-1h2.6A19.15,19.15,0,0,0,367.29,70l.44.87a20.1,20.1,0,0,1-9,2.23Zm-68-.73a17.17,17.17,0,0,1-9.47-7.06l.82-.53a16.17,16.17,0,0,0,8.93,6.65Zm83.27-3.87-.6-.77A22.27,22.27,0,0,0,376,62a20,20,0,0,0,3-8.79c0-.54.07-1.09.07-1.62,0-.14,0-.29,0-.43l1,0c0,.15,0,.3,0,.45,0,.56,0,1.13-.08,1.71a20.88,20.88,0,0,1-3.17,9.22A23.1,23.1,0,0,1,371.44,68.47Zm-94.68-7.15a18.83,18.83,0,0,1-1-6.16c0-.58,0-1.16.08-1.74a19.62,19.62,0,0,1,.75-3.93l.94.28a18.44,18.44,0,0,0-.72,3.74c0,.55-.07,1.1-.07,1.65a17.93,17.93,0,0,0,1,5.84ZM378.46,47A16.21,16.21,0,0,0,372,38l.56-.81a17.2,17.2,0,0,1,6.82,9.64Zm-99.34-1.13-.85-.48a21.69,21.69,0,0,1,8.38-8.35l.48.85A20.75,20.75,0,0,0,279.12,45.91ZM291,36.24l-.3-.93a23.94,23.94,0,0,1,5.41-1.1c-.06-.71-.08-1.33-.08-1.93,0-.31,0-.58,0-.83V31.2a13.75,13.75,0,0,1,.42-2.42l.94.24a14.19,14.19,0,0,0-.39,2.24v.22c0,.24,0,.5,0,.8,0,.7,0,1.44.11,2.34l0,.5-.5,0A23,23,0,0,0,291,36.24Zm77.33-.19a17.46,17.46,0,0,0-5.88-1h-2.25l.05-.53c.07-.76.1-1.52.1-2.27,0-.5,0-1,0-1.49l1-.06c0,.51.05,1,.05,1.55s0,1.21-.06,1.83h1l.11.49v-.49h0a18.52,18.52,0,0,1,6.28,1.06Zm-8.66-9.45A20,20,0,0,0,354,16.84l.67-.71a20.84,20.84,0,0,1,5.93,10.23ZM299,25.2l-.84-.5a15.83,15.83,0,0,1,9.45-7.07l.24.95A14.79,14.79,0,0,0,299,25.2Zm21.45-3-.39-.35A12.77,12.77,0,0,0,312,18.17l.06-1a13.51,13.51,0,0,1,8.3,3.63c.39-.47.79-.92,1.19-1.36l.72.66c-.5.54-1,1.12-1.47,1.71Zm4.86-5-.62-.76a25.4,25.4,0,0,1,10.59-5.27l.22,1A24.22,24.22,0,0,0,325.33,17.2Zm25.32-2.87a20.23,20.23,0,0,0-10.3-2.73h-.66l0-1a21.6,21.6,0,0,1,11.47,2.85Z"></path></g></svg> 