<?xml version="1.0" encoding="UTF-8"?> <svg xmlns="http://www.w3.org/2000/svg" viewBox="0 0 415 395"><defs><style>.cls-1,.cls-2,.cls-9{fill:#00a7e1;}.cls-1{opacity:0.4;}.cls-2,.cls-3,.cls-4,.cls-8{opacity:0.9;}.cls-3{fill:#606060;}.cls-5{fill:#e9e9e9;}.cls-6,.cls-8{fill:#fff;}.cls-7{fill:#dad9d9;}.cls-10{fill:#b6e8fb;}</style></defs><title>digital-river-content-graphics-v1_isolated</title><g id="Layer_2" data-name="Layer 2"><path class="cls-1" d="M207.54,390.58h-.1c-1.36,0-2.73,0-4.09,0h0v-.84c1.36,0,2.72,0,4.09,0Zm0,0h0v0Zm4.17-.05h0v0Zm0,0,0-.84c1.39,0,2.78-.07,4.17-.13l0,.42-.07-.42.08.83v0C214.52,390.46,213.13,390.5,211.73,390.53Zm-12.55-.13h0c-1.4-.06-2.8-.13-4.19-.22h-.05l.1-.83c1.39.09,2.78.16,4.17.22V390l.06-.41Zm16.78,0-.06-.42Zm4.14-.22,0-.42h0l0-.42c1.39-.09,2.78-.2,4.16-.32l0,.43V389l.07.84h0C222.9,390,221.5,390.08,220.1,390.17Zm-29.29-.3v0Zm0,0c-1.4-.12-2.79-.26-4.18-.41l0-.42v0l.05-.43c1.38.15,2.77.28,4.16.4l0,.42V389l-.05.83,0-.25Zm37.63-.42,0-.84c1.39-.15,2.77-.32,4.15-.5l.12.83-.06-.37,0,.37c-1.39.19-2.78.35-4.17.5h-.05Zm-46-.48h0c-1.38-.18-2.77-.38-4.15-.59h0l.14-.83-.07.47.08-.47c1.37.21,2.75.4,4.13.58l0,.42.07-.41Zm54.33-.61-.13-.83.07.39-.06-.4c1.38-.21,2.76-.43,4.12-.67l.08.41-.13-.4.2.82,0-.11,0,.11c-1.38.24-2.76.46-4.14.67l-.06-.41v0Zm-62.61-.65h0l.07-.43-.07.42c-1.38-.24-2.76-.49-4.13-.76h0l-.06,0,.23-.81c1.36.27,2.73.53,4.1.77Zm66.82,0-.12-.4Zm4.06-.76-.08-.41h0l-.08-.42c1.37-.27,2.73-.56,4.09-.86l.09.41-.13-.4.2.82,0-.3.06.29C247.79,386.35,246.42,386.63,245,386.9ZM166,386.09h0c-1.37-.3-2.73-.62-4.09-.95l.1-.4v0l.11-.43c1.35.33,2.71.64,4.07.94l-.09.41.13-.4Zm83.24-.06-.12-.4Zm4-.93-.16-.82c1.35-.33,2.7-.68,4-1l.11.41-.07-.42.2.82h0c-1.35.36-2.7.71-4.06,1h0Zm-95.41-1,.08-.42Zm0,0c-1.35-.36-2.7-.74-4-1.13h0l.26-.79h0c1.34.38,2.68.76,4,1.12l-.11.4.07-.41Zm103.59-1.17-.26-.8.14.39-.11-.4c1.33-.39,2.66-.8,4-1.21h0l.25.8v0l0,0c-1.34.42-2.67.82-4,1.21l-.12-.4v0h0Zm-111.62-1.17h0c-1.34-.42-2.68-.86-4-1.31h0l.31-.79c1.33.45,2.65.89,4,1.31l-.12.36L150,381Zm119.62-1.36-.31-.78.18.38-.14-.39c1.32-.45,2.64-.92,3.94-1.39l.31.78-.12-.28.1.29c-1.31.48-2.63.94-4,1.39l-.09-.29Zm-.13-.38h0v0Zm4-1.41.11.32Zm-131.42.45h0c-1.31-.48-2.62-1-3.92-1.48h0l.33-.78c1.3.51,2.6,1,3.92,1.48l-.14.39.16-.39Zm135.47-1.53-.31-.78.17.38-.15-.38c1.3-.51,2.58-1,3.86-1.56l.16.39-.11-.4.31.77,0,0h0q-1.92.79-3.87,1.56l-.12-.28Zm-.13-.38,0,.05,0-.06ZM133.92,376l.13-.4Zm0,0c-1.3-.54-2.59-1.09-3.87-1.66l.34-.77c1.27.57,2.56,1.11,3.85,1.65l-.16.39.11-.41-.29.79.13-.26Zm151-1.66-.27-.79c1.27-.56,2.53-1.14,3.79-1.73l.37.76h0l-.2-.39.19.4c-1.27.59-2.54,1.16-3.81,1.72h0Zm-158.69-1.73.1-.23-.11.23c-1.27-.6-2.54-1.2-3.79-1.83l.37-.75c1.25.62,2.51,1.22,3.77,1.81Zm.16-.39-.14.32Zm-4-1.44h0l.37-.75Zm170.14,0-.38-.75.34.64-.33-.65c1.25-.61,2.49-1.24,3.72-1.88l.2.38-.2-.39.39.75h0c-1.24.64-2.48,1.28-3.73,1.89h0ZM118.65,368.9h0l.19-.36-.19.36q-1.86-1-3.69-2h0l0,0,.45-.71q1.83,1,3.69,2Zm181.29-2-.2-.37h0l-.21-.38c1.22-.67,2.43-1.35,3.63-2.05l.21.37-.23-.35.43.72-.12-.24.13.23C302.38,365.56,301.17,366.24,299.94,366.92ZM111.3,364.86l0,0h0c-1.21-.7-2.42-1.41-3.61-2.14l.43-.72c1.19.73,2.39,1.44,3.6,2.14l-.2.35.22-.34Zm192.31,0-.22-.36Zm3.57-2.12-.43-.72.14.21-.13-.21c1.18-.73,2.36-1.46,3.53-2.21l.22.34-.21-.34.46.7,0,0c-1.18.75-2.36,1.48-3.55,2.2h0Zm-199.54,0,.23-.35-.23.35.44-.72Zm-3.55-2.21.23-.35-.23.35c-1.18-.76-2.35-1.52-3.51-2.3h0l0-.05,0,.05.45-.72-.21.36.23-.34c1.16.77,2.32,1.53,3.49,2.28h0Zm210.14-2.24-.45-.72c1.16-.77,2.31-1.56,3.44-2.35l.51.67-.19-.24.17.25c-1.15.8-2.3,1.59-3.46,2.37h0Zm3.24-2.73.22.32Zm-220.34.3h0c-1.15-.8-2.28-1.62-3.41-2.45l.18-.25-.2.24.49-.68L94,353l.23-.32,3.4,2.44-.23.33.25-.32Zm224-2.38-.47-.7c1.12-.82,2.23-1.65,3.33-2.5l.26.34-.24-.36.51.68h0c-1.1.85-2.22,1.69-3.35,2.51h0ZM90.37,350.85l.17-.26-.2.24.26-.34-.26.34c-1.11-.85-2.21-1.72-3.3-2.59h0l.54-.65-.34.42.34-.42c1.08.87,2.18,1.74,3.28,2.58Zm237.39-2.54-.54-.65.27.31-.26-.32c1.09-.87,2.16-1.75,3.23-2.64l.26.31-.26-.32.54.65c-1.07.9-2.15,1.78-3.24,2.66l-.2-.26Zm-.26-.33.26.33Zm-243.69-2.4h0l.21-.25-.21.25c-1.07-.9-2.13-1.81-3.19-2.73h0l0,0,.58-.6c1,.91,2.1,1.82,3.17,2.72Zm250.37-2.66-.28-.32h0l-.28-.32c1-.92,2.08-1.85,3.11-2.79l.28.31-.26-.33.57.62,0,0h0C336.27,341.07,335.23,342,334.18,342.92ZM77.51,340.05l.27-.32Zm0,0c-1-.94-2-1.9-3.06-2.86l.29-.31h0l.3-.31c1,1,2,1.91,3,2.86l-.28.31.26-.33-.55.63.14-.15Zm262.84-2.74-.54-.64c1-1,2-1.94,3-2.92l.6.59h0l-.28-.27.28.27c-1,1-2,2-3,2.93h0ZM71.44,334.24h0l.6-.59Zm0,0c-1-1-2-2-2.93-3h0l0,0,.64-.55c1,1,1.93,2,2.92,3Zm274.87-2.9L346,331h0l-.31-.3c1-1,1.91-2,2.85-3.05l.31.28-.33-.26.64.55-.15-.14.15.14C348.23,329.3,347.27,330.32,346.3,331.33Zm2.89-3.08-.32-.27Zm-283.54-.06,0,0h0c-.94-1-1.88-2.07-2.8-3.12l.32-.28h0l.32-.28c.92,1,1.85,2.08,2.79,3.11l-.31.28.33-.26Zm286.3-3-.61-.58c.92-1,1.83-2.1,2.73-3.17l.65.53h0l-.31-.26.31.26q-1.35,1.6-2.73,3.18h0ZM60.1,321.87l.33-.26-.33.26c-.9-1.07-1.78-2.15-2.66-3.24l.33-.26-.33.26.33-.26-.33.26.64-.54-.31.28.33-.26c.87,1.08,1.75,2.16,2.64,3.22l-.31.26.32-.26Zm297.27-3.14-.65-.53.42.33-.42-.34c.88-1.08,1.74-2.18,2.59-3.28l.68.49-.26-.17.24.19-.33-.25.33.25c-.85,1.11-1.71,2.21-2.59,3.3h0ZM54.86,315.35h0c-.85-1.11-1.69-2.23-2.52-3.35h0v0l.69-.47h0c.82,1.12,1.65,2.23,2.5,3.33l-.34.25.35-.23Zm307.63-3.27-.69-.49.36.22-.34-.24c.83-1.12,1.64-2.26,2.44-3.4l.34.24-.32-.26.68.49v0h0c-.81,1.14-1.62,2.28-2.45,3.41l-.25-.18Zm-.32-.25h0l0,0ZM49.91,308.6l.23-.19-.25.17q-1.2-1.71-2.37-3.45l0,0,0,0v0l.71-.44h0c.77,1.15,1.55,2.3,2.35,3.43Zm.32-.25-.3.2Zm317.09-3.16-.71-.44.37.21-.35-.23c.77-1.16,1.54-2.33,2.29-3.5l.71.45h0c-.76,1.18-1.53,2.35-2.3,3.51L367,305ZM367,305l.35.23ZM45.24,301.64l0,0c-.75-1.17-1.48-2.35-2.21-3.54h0l.72-.43-.22.14.22-.14c.73,1.19,1.46,2.37,2.21,3.54l-.34.21.34-.2Zm326.6-3.51-.72-.44Zm0,0-.72-.43c.73-1.19,1.44-2.39,2.14-3.6l.36.21-.35-.23.73.41,0,0h0C373.29,295.71,372.58,296.92,371.85,298.11Zm-331-3.62.36-.22Zm0,0c-.7-1.21-1.39-2.42-2.06-3.64l.37-.21h0l.38-.21q1,1.83,2,3.63l-.36.21.35-.23-.72.43.24-.12ZM376,290.88l-.71-.44c.67-1.23,1.33-2.46,2-3.69l.76.37h0l-.41-.21.41.22q-1,1.85-2,3.69h0Zm-339.2-3.74h0q-1-1.85-1.89-3.72h0l.76-.38-.66.34.66-.33q.93,1.88,1.89,3.72l-.4.2.4-.2ZM380,283.4l-.75-.38.75.37Zm0,0-.75-.37c.62-1.26,1.22-2.51,1.81-3.78l.77.34-.23-.09.23.11C381.18,280.87,380.57,282.13,380,283.39Zm1.44-4,.32.15Zm-348.25.24h0l.37-.19-.38.18c-.59-1.26-1.16-2.53-1.73-3.81h0l0-.06.79-.28c.56,1.27,1.14,2.54,1.72,3.79Zm350.37-3.89-.76-.34c.56-1.28,1.11-2.56,1.64-3.85l.39.16-.4-.12.78.3-.25-.13.26.11C384.63,273.2,384.08,274.49,383.51,275.77ZM29.77,272v0h0c-.54-1.29-1.06-2.58-1.56-3.88l.28-.11-.29.09.78-.31-.38.18.39-.15c.5,1.29,1,2.58,1.55,3.86l-.39.16.41-.12ZM28.57,268l-.05,0,.06,0Zm356.62,3.89-.4-.12Zm1.54-3.83-.77-.33c.5-1.3,1-2.61,1.47-3.92l.39.14-.38-.16.79.29v0h0c-.48,1.31-1,2.63-1.48,3.93Zm-360-3.81.28-.12-.29.1c-.47-1.32-.94-2.63-1.39-4l.29-.1-.29.1.78-.31-.38.17.39-.13c.45,1.32.92,2.63,1.39,3.94Zm.39-.17-.31.12Zm362.49-3.92-.78-.31c.45-1.32.89-2.65,1.31-4l.37.12-.37-.13.8.24v0c-.42,1.34-.86,2.67-1.31,4h0ZM24,256.24h0c-.42-1.33-.83-2.67-1.22-4l.41-.12-.41.12.41-.12-.41.12.8-.26-.39.14.4-.12c.39,1.34.79,2.67,1.21,4Zm.1,0,0,0,.35-.1Zm368-4.12-.8-.26c.39-1.33.76-2.67,1.12-4l.41.11-.42-.07.82.17c-.36,1.36-.73,2.71-1.13,4ZM21.67,248.21v0h0c-.36-1.35-.71-2.7-1-4.06h0v0l.83-.15c.33,1.35.67,2.7,1,4l-.39.11.4-.07ZM393.28,248l-.41-.08Zm1-4-.41-.1h0l-.44-.11c.33-1.35.65-2.71.95-4.07l.41.09-.4-.13.82.18v0h0C395,241.24,394.64,242.6,394.31,244ZM19.68,240.08l.4-.12Zm0,0q-.45-2-.87-4.11l.42-.08h0l.42-.08c.27,1.37.56,2.73.86,4.09l-.41.09.4-.13-.82.2.3,0Zm376.43-4.21-.81-.23c.27-1.36.53-2.73.77-4.1l.41.07-.39-.13.81.18v0h0c-.24,1.38-.5,2.76-.77,4.13h0Zm-378-4,.4-.12Zm0-.06h0l.13,0Zm0,0c-.24-1.38-.47-2.76-.68-4.14l.38-.06-.38.06.39-.06-.39,0,.83-.13-.4.08.4-.07c.21,1.38.44,2.76.68,4.13l-.41.07.39-.14Zm379.53-4.29-.83-.14.38.05-.37-.05c.21-1.38.4-2.76.58-4.14l.41,0-.41-.06.83.11h0c-.18,1.39-.37,2.77-.58,4.15Zm-380.8-4,.42-.06-.42.06.38-.06-.38.05c-.18-1.39-.35-2.77-.5-4.17h0v0l.84,0c.15,1.39.32,2.77.5,4.15Zm381.89-4.35-.42,0h0l-.43,0c.15-1.38.29-2.76.41-4.15l.41,0h-.41l.83.05-.24,0,.25,0C398.94,216.4,398.8,217.79,398.65,219.18Zm-382.8-4v0c-.12-1.39-.23-2.79-.32-4.19l.42,0h0l.43,0c.09,1.39.19,2.78.32,4.16l-.42,0h.42ZM399.06,215h0Zm.31-4.09-.84-.11c.09-1.39.17-2.78.23-4.17l.42,0-.42-.07.84.06v0h0c-.06,1.41-.14,2.8-.23,4.19h0Zm-384.06-4,.41-.06Zm0-.05c-.06-1.4-.11-2.79-.14-4.19l.83,0h0c0,1.4.08,2.78.14,4.17l-.42,0,.41-.07-.83.08h0Zm384.43-4.37h-.27l-.57,0c0-1.38.05-2.78.05-4.17v-.35h.84v.35c0,1.4,0,2.79,0,4.19Zm-384.62-4v-.19c0-1.34,0-2.68,0-4H16c0,1.33,0,2.66,0,4v.18Zm384.67-.54h0Zm-.9-4.18h0c0-1.39-.08-2.78-.14-4.17l.42,0-.41.07.83-.08h0c.06,1.39.11,2.79.14,4.19l-.79,0h-.05ZM16.12,190.13l-.83-.06v0h0c.05-1.4.13-2.8.22-4.19h0v0l.84.1c-.09,1.39-.17,2.78-.23,4.17h-.41Zm383-.61.42-.06Zm-.65-4.14c-.09-1.4-.2-2.78-.32-4.17l.42,0h-.42l.83-.07v0c.12,1.39.23,2.78.32,4.18l-.42,0h0ZM16.66,181.74l-.42,0h.42l-.84,0,.25,0-.25,0c.12-1.4.25-2.79.4-4.18l.42,0h0l.43.05C16.91,179,16.77,180.35,16.66,181.74Zm-.42,0h0Zm381.54-4.66c-.16-1.38-.32-2.76-.51-4.14l.84-.13-.42.06.42-.05-.37.06.37,0c.18,1.38.35,2.77.5,4.16h0V177Zm-380.24-3.6-.83-.12h0c.18-1.39.38-2.78.59-4.16v0l.83.14-.42-.06.42.07c-.21,1.37-.41,2.75-.58,4.13l-.42-.05Zm379.14-4.66.83-.14-.41.06.41-.06Zm0,0c-.21-1.37-.44-2.75-.68-4.12l.41-.07-.4.13.82-.2-.14,0,.14,0c.24,1.37.47,2.75.68,4.14ZM18.8,165.17l-.83-.12v0l.42.07L18,165c.24-1.38.5-2.76.77-4.13h0v-.06l.81.23C19.29,162.43,19,163.8,18.8,165.17Zm377.61-.6.4-.12Zm-1.18-4c-.28-1.37-.56-2.73-.87-4.09l.41-.09-.39.13.81-.2-.3,0,.29-.06c.31,1.36.6,2.73.87,4.1l-.41.09h0ZM20.4,157l-.82-.18v0h0c.3-1.37.62-2.73.95-4.09l.4.1h0l.41.1c-.33,1.35-.64,2.7-.94,4.07l-.41-.09Zm374.37-.66.4-.12Zm-1.36-4c-.33-1.35-.68-2.7-1-4l.4-.11-.41.07.82-.19h0c.36,1.34.71,2.69,1,4.05h0v.05Zm-371-3.53-.41-.11.42.07-.82-.18c.36-1.35.74-2.7,1.12-4v0l.8.25C23.11,146.17,22.74,147.51,22.38,148.86Zm-.41-.1-.41-.08Zm369.28-4.41.39-.14-.4.12c-.39-1.34-.8-2.67-1.22-4l.42-.13-.42.12.8-.26v0c.42,1.33.82,2.66,1.22,4l-.37.11.37-.1-.39.1.39-.1ZM24.71,140.84l-.81-.24v0c.42-1.34.85-2.67,1.3-4h0l0,0,.78.31c-.45,1.32-.88,2.65-1.3,4l-.44-.14Zm364-4.44.38-.17-.39.14c-.45-1.32-.92-2.64-1.4-3.94l.79-.31-.28.12.28-.1c.48,1.31.95,2.63,1.4,4l-.28.1.28-.09Zm.4-.18h0Zm-1.31-4-.1,0,.3-.11Zm-360.43.68-.79-.29v0c.47-1.31,1-2.62,1.47-3.91h0v-.05l.78.33c-.51,1.3-1,2.61-1.48,3.92l-.39-.14Zm358.46-4.38.51-.22-.51.2c-.51-1.29-1-2.58-1.56-3.86l.38-.16-.4.12.78-.32v0h0c.54,1.28,1.06,2.58,1.57,3.87l-.28.12.29-.09ZM30.43,125.08l-.39-.16.4.12-.78-.3.26.13-.27-.11q.81-2,1.65-3.87l.39.17h0l.38.17C31.51,122.51,31,123.79,30.43,125.08Zm-.39-.15-.4-.12Zm352.61-4.09c-.57-1.27-1.14-2.53-1.73-3.79l.75-.38h0l-.38.19.38-.18c.59,1.26,1.17,2.53,1.73,3.81h0l0,.06ZM33.8,117.42l-.77-.35.23.1-.22-.11h0c.59-1.27,1.2-2.54,1.82-3.79l.75.37C35,114.89,34.39,116.15,33.8,117.42Zm-.52-.24.13,0-.28-.13Zm2.33-3.55-.75-.36h0Zm343.51-.32.67-.35-.68.34c-.62-1.25-1.25-2.48-1.89-3.71l.35-.19-.35.18.74-.38h0c.65,1.23,1.28,2.47,1.9,3.72h0ZM37.5,109.91l-.75-.38h0l.35.18-.35-.18c.65-1.25,1.31-2.48,2-3.71h0l0,0,.71.45Q38.48,108.05,37.5,109.91Zm337.75-4c-.67-1.22-1.36-2.43-2.05-3.63l.37-.21-.36.23.72-.43-.25.13.24-.14c.7,1.2,1.39,2.42,2.06,3.64l-.36.21h0ZM41.52,102.59l-.73-.41,0,0h0c.71-1.21,1.42-2.42,2.15-3.62l.36.22h0L43,98.52l.71.44-.35-.2.34.21q-1.08,1.78-2.13,3.6l-.36-.21Zm332-.52.35-.22Zm-2.49-3.36.19-.12-.19.12c-.73-1.19-1.46-2.37-2.21-3.54l.36-.23-.37.22.7-.46,0,0h0c.75,1.17,1.49,2.35,2.21,3.54h0ZM45.88,95.42,45.17,95h0c.75-1.18,1.52-2.36,2.29-3.52l.35.23-.35-.23h0l.08,0-.08,0,.71.44-.36-.2.34.23C47.39,93.08,46.63,94.24,45.88,95.42Zm320.69-3.74h0c-.77-1.15-1.55-2.29-2.35-3.42l.67-.51-.24.19.26-.17c.8,1.14,1.59,2.3,2.37,3.46l-.08,0,.08,0,0,0Zm-1.94-3.74-.07.06.28-.2Zm-314.12.55L49.83,88v0c.8-1.14,1.62-2.28,2.45-3.41l.25.18-.24-.19.68.49-.35-.22.33.24c-.82,1.12-1.63,2.26-2.43,3.4l-.35-.24Zm311.26-3.63c-.82-1.12-1.66-2.23-2.51-3.33l.34-.26-.35.23.67-.5v0h0c.85,1.11,1.69,2.23,2.52,3.35h0l0,0ZM55.47,81.73l-.68-.49.26.17-.24-.19.33.25-.33-.26c.85-1.11,1.71-2.21,2.59-3.3h0l.65.54L57.49,78l.56.45C57.18,79.53,56.32,80.62,55.47,81.73Zm301.22-3.47L357,78l-.32.26c-.87-1.08-1.75-2.16-2.65-3.22l.28-.24L354,75l.64-.54c.9,1.06,1.79,2.14,2.67,3.23l-.24.19.24-.19L357,78l.3-.24Zm-2-3.76-.31.25Zm-294,.71-.66-.53h0l.24.2-.24-.2c.9-1.07,1.81-2.13,2.74-3.19h0l0,0,.61.58C62.51,73.08,61.6,74.14,60.71,75.21Zm290.6-3.35c-.92-1-1.85-2.08-2.79-3.1l.32-.29-.34.26.62-.56,0,0h0c.94,1,1.88,2.07,2.8,3.12ZM66.22,68.93l-.31-.29.32.27-.63-.56.15.15-.15-.14c.94-1,1.9-2,2.86-3.06l.31.29,0,0,.32.31C68.11,66.88,67.16,67.9,66.22,68.93Zm-.32-.28-.32-.27Zm279.76-2.94c-1-1-1.94-2-2.92-3l.31-.32-.31.32.58-.6h0q1.49,1.48,2.94,3h0l0,0ZM72,62.89l-.6-.59h0c1-1,2-2,3-2.94l0,0L75,60c-1,1-2,1.94-3,2.92l-.2-.2Zm267.76-3.08c-1-1-2-1.91-3.05-2.85l.28-.31-.26.33.55-.64-.15.16.15-.16c1,.94,2.05,1.9,3.06,2.86l-.29.31h0ZM78,57.13l-.57-.62,0,0h0c1-.94,2.07-1.87,3.12-2.8l.28.32v0l.29.33c-1,.92-2.08,1.85-3.11,2.79l-.28-.31Zm259-.49.26-.32Zm-3.39-2.47c-1-.92-2.11-1.82-3.17-2.72h0l.53-.66v0l-.2.24.2-.24c1.08.9,2.14,1.81,3.19,2.73h0l0,0ZM84.29,51.6,83.75,51c1.07-.9,2.15-1.79,3.24-2.66l.26.33-.09-.13.06.09L87,48.3l.54.64-.27-.31.26.32c-1.09.87-2.16,1.76-3.23,2.65l-.23-.27ZM83.76,51h0ZM327.18,48.8l.29-.36-.29.36c-1.08-.87-2.18-1.73-3.29-2.58l.49-.68-.17.25.19-.24-.25.34.26-.34c1.11.85,2.21,1.72,3.3,2.59v0ZM90.77,46.39l-.5-.67h0c1.11-.85,2.23-1.69,3.35-2.52h0l0,0,.47.69c-1.12.83-2.23,1.67-3.33,2.51L90.54,46Zm229.8-2.66.26-.41-.28.39c-1.12-.82-2.26-1.63-3.4-2.43l.24-.34-.26.32.49-.68h0c1.15.8,2.29,1.62,3.42,2.44l-.18.26.19-.25Zm-223-2.3L97,40.76l.19.24L97,40.74h0q1.71-1.2,3.45-2.37v0h0l.44.71C99.8,39.85,98.66,40.63,97.52,41.43ZM97.21,41l.06.07-.21-.29Zm216.51-2.08.21-.36-.23.35c-1.16-.78-2.33-1.54-3.5-2.29l.45-.71-.24.35.24-.35c1.18.75,2.35,1.52,3.52,2.3h0l-.18.26.18-.26ZM104.44,36.79l-.46-.7,0,0h0c1.18-.75,2.36-1.48,3.55-2.21h0l.43.72-.12-.19.11.19c-1.18.72-2.36,1.46-3.53,2.21l-.24-.37Zm202.21-2.36.21-.36-.22.35q-1.78-1.08-3.6-2.13l.21-.36-.23.34.41-.73,0,0h0c1.22.7,2.42,1.42,3.62,2.14l-.21.36.23-.35-.23.35.23-.35Zm-195.08-2-.21-.36.23.35-.43-.72.12.23-.14-.23c1.21-.7,2.43-1.38,3.65-2.06l.2.37h0l.21.38C114,31.07,112.77,31.75,111.57,32.45Zm-.22-.36-.23-.35Zm188-1.85c-1.22-.67-2.45-1.33-3.69-2h0l.37-.75h0l-.2.4.2-.4c1.25.65,2.48,1.31,3.71,2h0l0,0ZM118.86,28.43l-.39-.74h0c1.23-.65,2.47-1.28,3.72-1.9h0l.38.75-.34-.65.33.65q-1.87.93-3.72,1.89l-.18-.35ZM292,26.38l.37-.76h0Zm0,0c-1.25-.61-2.51-1.22-3.77-1.81l.34-.76-.1.23.11-.23h0c1.27.59,2.54,1.2,3.79,1.82ZM288.43,24l-.05.13.12-.27Zm-162.1.69L126,24h0l.19.37L126,24c1.26-.59,2.53-1.16,3.81-1.73h0l.06,0,.28.79C128.85,23.57,127.58,24.15,126.33,24.73Zm158.05-1.89c-1.28-.56-2.56-1.11-3.85-1.64l.16-.39-.12.4.3-.78-.13.25.11-.26c1.29.54,2.59,1.09,3.87,1.65l-.17.38h0ZM133.9,21.39l-.32-.78h0q1.92-.8,3.87-1.56h0l.11.28-.09-.29.3.78-.17-.37.15.38c-1.29.51-2.58,1-3.86,1.56l-.16-.39Zm3.72-2,0,.06ZM280.68,20.8l.12-.4Zm-4-1.16q-2-.77-3.93-1.47l.14-.4-.16.39.29-.79h0c1.32.47,2.63,1,3.94,1.47h0Zm-134.93-1.3-.31-.78.12.27-.1-.28c1.31-.48,2.63-.95,4-1.4l.1.29-.1-.29.31.78-.18-.38.14.4C144.33,17.39,143,17.86,141.71,18.34Zm-.19-.5,0,.11-.12-.33Zm127.24-1.06c-1.33-.45-2.65-.88-4-1.3l.14-.43-.15.43.24-.8h0c1.34.42,2.67.86,4,1.31h0ZM149.62,15.64l-.26-.8,0,.07,0-.07c1.33-.42,2.67-.83,4-1.22l.23.81c-1.33.39-2.66.79-4,1.21Zm4-1.22-.26-.8Zm107.14-.14.1-.39-.11.39c-1.34-.39-2.68-.76-4-1.12l.1-.41-.06.42.17-.82c1.35.36,2.7.73,4,1.12l-.11.39.13-.38-.13.38.13-.38Zm-103.19-1-.19-.82h0c1.34-.36,2.69-.71,4-1l.06,0,.16.83c-1.35.33-2.7.68-4.05,1l-.1-.41Zm99.26-.56.07-.41Zm-4.15-.62c-1.35-.32-2.71-.64-4.07-.94l.09-.41-.14.4.19-.81h0c1.37.3,2.73.62,4.09,1l-.1.41v0Zm-86.95-.82-.09-.41.13.4-.2-.82,0,.3-.07-.29,4.11-.87.08.42h0l.08.42C168.47,10.72,167.1,11,165.75,11.31Zm-.1-.41-.13-.4Zm78.89-.55c-1.37-.27-2.74-.53-4.11-.76l.12-.84h0l-.07.42.07-.42c1.38.24,2.76.49,4.13.76h0l.06,0Zm-70.6-.67-.07-.42.13.4-.2-.81c1.37-.24,2.75-.47,4.13-.68l.07.41v0l-.05-.4.13.83-.07-.4.06.41C176.68,9.21,175.31,9.44,173.94,9.68Zm-.08-.42-.13-.4Zm0-.28,0-.13h0Zm62.49-.06.05-.37-.05.37c-1.38-.21-2.76-.4-4.14-.58l.05-.42-.06.41.11-.83h0c1.39.18,2.77.38,4.15.59h0ZM182.2,8.41l-.13-.84.07.39,0-.39c1.38-.18,2.76-.35,4.15-.5h.07l0,.84C185,8.06,183.57,8.22,182.2,8.41ZM228,7.85c-1.38-.15-2.77-.28-4.16-.4l0-.41v.41l0-.84,0,.26,0-.26c1.39.12,2.78.25,4.17.4l0,.42h0ZM190.46,7.5l-.07-.84h0c1.39-.12,2.78-.23,4.18-.32l0,.42h0l0,.43c-1.39.09-2.78.19-4.16.32l0-.43Zm29.24-.36c-1.39-.09-2.78-.16-4.17-.22l0-.42-.07.42.06-.84h0c1.4.06,2.8.13,4.19.22h.05ZM223.89,7V7Zm-25.06-.09V6.53l.06.41-.07-.83v0C200.19,6,201.58,6,203,6l0,.84C201.61,6.84,200.22,6.88,198.83,6.94ZM203,6.81V6h0Zm8.37,0v0q-1.95,0-3.9,0h-.27V5.92h.26c1.31,0,2.62,0,3.92,0h0Zm-4.19,0V5.92h0Zm-8.37-.23-.06-.42Z"></path><path class="cls-1" d="M207.45,351.06c-84.26,0-152.81-68.55-152.81-152.81S123.19,45.44,207.45,45.44,360.25,114,360.25,198.25,291.7,351.06,207.45,351.06Zm0-304.78c-83.8,0-152,68.17-152,152s68.17,152,152,152,152-68.18,152-152S291.24,46.28,207.45,46.28Z"></path></g><g id="Layer_1" data-name="Layer 1"><path class="cls-2" d="M111.5,218c0-2.12,1.85-1.93,4.14.44s4.14,6,4.14,8.15-1.86,1.93-4.14-.44S111.5,220.16,111.5,218Z"></path><path class="cls-3" d="M237.81,219.82V115.34a2.09,2.09,0,0,0-1.71-1.84l-128.12,0a1,1,0,0,0-1.06,1.14V220.16l8.28,8.34,125.44-.17Z"></path><g class="cls-4"><polygon class="cls-5" points="240.64 222.59 111.5 222.14 111.5 118.76 240.64 119.21 240.64 222.59"></polygon><path class="cls-6" d="M241.59,223.54l-131-.45V117.81l131,.46ZM112.44,221.2l127.25.44V120.16l-127.25-.45Z"></path></g><g class="cls-4"><polygon class="cls-7" points="243.43 225.38 114.73 225.15 114.73 121.77 243.43 122 243.43 225.38"></polygon><path class="cls-5" d="M244.38,226.33l-130.6-.23V120.82l130.6.24Zm-128.71-2.12,126.82.22V123l-126.82-.23Z"></path></g><polygon class="cls-8" points="244.83 227.31 117.11 227.57 117.11 124.19 244.83 123.93 244.83 227.31"></polygon><path class="cls-3" d="M155.89,132.24V121.45a2.09,2.09,0,0,0-1.71-1.84l-36.43.11a1,1,0,0,0-1,1.13V226.57l-1.06,1.52,127,.41c3.74,0,6-2.45,6-6.45v-88.2A2.08,2.08,0,0,0,247,132Z"></path><g class="cls-4"><rect class="cls-9" x="125.81" y="143.24" width="63.33" height="2.99"></rect><rect class="cls-9" x="125.81" y="147.75" width="63.33" height="2.99"></rect><rect class="cls-9" x="125.81" y="152.27" width="63.33" height="2.99"></rect><rect class="cls-9" x="125.81" y="156.78" width="63.33" height="2.99"></rect></g><path class="cls-9" d="M246.65,233.15h-6.29v-.68h6.26a5.21,5.21,0,0,0,5.52-4.34l.66.14A5.89,5.89,0,0,1,246.65,233.15Zm-9.29,0h-8.15v-.68h8.15Zm-11.15,0h-8.16v-.68h8.16Zm-11.16,0h-8.16v-.68h8.16Zm-11.16,0h-8.15v-.68h8.15Zm-11.15,0h-8.16v-.68h8.16Zm-11.16,0h-8.16v-.68h8.16Zm-11.16,0h-8.15v-.68h8.15Zm-11.15,0h-8.16v-.68h8.16Zm-11.16,0H140v-.68h8.16Zm-11.16,0h-8.16v-.68H137Zm-11.19,0a6,6,0,0,1-5.41-5.74l.68-.07c.29,3,2,4.83,4.8,5.13ZM253,225.22h-.68v-8.16H253Zm-132-.89h-.68v-8.15H121Zm132-10.27h-.68V205.9H253Zm-132-.88h-.68V205H121ZM253,202.9h-.68v-8.15H253ZM121,202h-.68v-8.16H121Zm132-10.27h-.68v-8.16H253Zm-132-.89h-.68v-8.15H121Zm132-10.27h-.68v-8.16H253Zm-132-.88h-.68v-8.16H121Zm132-10.28h-.68v-8.15H253Zm-132-.88h-.68v-8.16H121Zm132-10.27h-.68v-8.16H253Zm-132-.89h-.68v-8.15H121Zm132-10.27h-.68V139H253Zm-132-.88h-.68v-8.16H121Zm38.51-9.35v-6.14h.68v5.46h2v.68Zm5.7,0v-.68l8.15,0v.68Zm11.16,0v-.68l8.16,0v.68Zm11.15,0v-.68l8.16,0v.68Zm11.16,0v-.68l8.15,0v.68Zm11.16,0v-.68l8.16,0v.68Zm41.46,0a.79.79,0,0,0-.34-.09h0l-7.65,0V136h7.66a1.61,1.61,0,0,1,.63.14Zm-30.31,0v-.68l8.16,0v.68Zm11.16,0V136l8.15,0v.68ZM121,135.08h-.68v-8.16H121Zm39.19-7.33h-.68v-2a1.77,1.77,0,0,0-1.37-1.49h-3.46v-.68h3.46a2.4,2.4,0,0,1,2,2.17Zm-38.82-3.3-.29-.62a1.45,1.45,0,0,1,.63-.13l7.66,0v.68l-7.65,0A.75.75,0,0,0,121.35,124.45Zm11-.11v-.67l8.15,0v.68Zm11.15,0v-.68l8.16,0v.68Z"></path><path class="cls-2" d="M138.71,240.92c0-2.13,1.85-1.93,4.14.44s4.14,6,4.14,8.14-1.85,1.93-4.14-.44S138.71,243,138.71,240.92Z"></path><path class="cls-3" d="M265,242.7V138.22a2.09,2.09,0,0,0-1.71-1.83l-128.13-.06a1,1,0,0,0-1.06,1.14V243l8.28,8.34,125.44-.17Z"></path><g class="cls-4"><polygon class="cls-5" points="267.85 245.48 138.71 245.03 138.71 141.65 267.85 142.1 267.85 245.48"></polygon><path class="cls-6" d="M268.8,246.43l-131-.46V140.7l131,.45Zm-129.15-2.35,127.26.45V143l-127.26-.44Z"></path></g><g class="cls-4"><polygon class="cls-7" points="270.64 248.26 141.94 248.03 141.94 144.66 270.64 144.88 270.64 248.26"></polygon><path class="cls-5" d="M271.59,249.21,141,249V143.71l130.6.23Zm-128.7-2.12,126.81.23V145.83l-126.81-.23Z"></path></g><polygon class="cls-8" points="272.04 250.19 144.32 250.45 144.32 147.07 272.04 146.81 272.04 250.19"></polygon><path class="cls-3" d="M183.1,155.12V144.33a2.07,2.07,0,0,0-1.71-1.83l-36.42.1a1,1,0,0,0-1.06,1.14V249.45L142.85,251l127,.41c3.73,0,6-2.45,6-6.44v-88.2a2.09,2.09,0,0,0-1.71-1.84Z"></path><g class="cls-4"><rect class="cls-9" x="153.03" y="166.12" width="63.33" height="2.99"></rect><rect class="cls-9" x="153.03" y="170.64" width="63.33" height="2.99"></rect><rect class="cls-9" x="153.03" y="175.15" width="63.33" height="2.99"></rect><rect class="cls-9" x="153.03" y="179.66" width="63.33" height="2.99"></rect></g><path class="cls-9" d="M273.86,256h-6.28v-.68h6.25a5.21,5.21,0,0,0,5.52-4.34l.67.14A5.85,5.85,0,0,1,273.86,256Zm-9.28,0h-8.16v-.68h8.16Zm-11.16,0h-8.16v-.68h8.16Zm-11.16,0H234.1v-.68h8.16Zm-11.16,0H223v-.68h8.15ZM220,256h-8.16v-.68H220Zm-11.16,0h-8.16v-.68h8.16Zm-11.16,0h-8.15v-.68h8.15Zm-11.15,0h-8.16v-.68h8.16Zm-11.16,0h-8.16v-.68h8.16Zm-11.16,0H156v-.68h8.15ZM153,256c-3.06-.33-5.08-2.48-5.41-5.74l.68-.07c.3,3,2,4.83,4.81,5.13Zm127.24-7.89h-.68v-8.16h.68Zm-132-.88h-.68v-8.16h.68Zm132-10.28h-.68v-8.15h.68Zm-132-.88h-.68V227.9h.68Zm132-10.27h-.68v-8.16h.68Zm-132-.89h-.68v-8.15h.68Zm132-10.27h-.68v-8.16h.68Zm-132-.88h-.68v-8.16h.68Zm132-10.28h-.68v-8.15h.68Zm-132-.88h-.68v-8.16h.68Zm132-10.27h-.68v-8.16h.68Zm-132-.89h-.68v-8.15h.68Zm132-10.27h-.68V173h.68Zm-132-.88h-.68v-8.16h.68Zm132-10.28h-.68v-8.15h.68Zm-132-.88h-.68V161h.68Zm38.51-9.34v-6.14h.68v5.46h2v.68Zm5.7,0v-.68h8.16v.68Zm11.16,0v-.68l8.15,0v.68Zm11.15,0V159l8.16,0v.68Zm11.16,0V159l8.16,0v.68Zm11.16,0V159l8.15,0v.68Zm41.46,0a.79.79,0,0,0-.34-.09l-7.65,0v-.68l7.65,0a1.52,1.52,0,0,1,.63.15Zm-30.31,0V159l8.16,0v.68Zm11.16,0v-.68l8.16,0v.68ZM148.19,158h-.68v-8.15h.68Zm39.19-7.32h-.68v-2a1.77,1.77,0,0,0-1.37-1.5h-3.46v-.68h3.46a2.4,2.4,0,0,1,2,2.18Zm-38.82-3.31-.29-.62a1.5,1.5,0,0,1,.64-.13l7.65,0v.68l-7.65,0A.78.78,0,0,0,148.56,147.33Zm11-.1v-.68l8.15,0v.68Zm11.16,0v-.68l8.16,0v.68Z"></path><path class="cls-2" d="M165.92,263.8c0-2.13,1.85-1.93,4.14.44s4.14,6,4.14,8.14-1.85,1.93-4.14-.44S165.92,265.93,165.92,263.8Z"></path><path class="cls-3" d="M292.24,265.59V161.11a2.09,2.09,0,0,0-1.71-1.84l-128.12-.05a1,1,0,0,0-1.06,1.13V265.93l8.27,8.33,125.45-.16Z"></path><g class="cls-4"><polygon class="cls-5" points="295.07 268.36 165.92 267.91 165.92 164.53 295.07 164.98 295.07 268.36"></polygon><path class="cls-6" d="M296,269.31l-131-.46V163.58L296,164ZM166.87,267l127.25.44V165.92l-127.25-.44Z"></path></g><g class="cls-4"><polygon class="cls-7" points="297.86 271.15 169.15 270.92 169.15 167.54 297.86 167.77 297.86 271.15"></polygon><path class="cls-5" d="M298.8,272.1l-130.59-.24V166.59l130.59.23ZM170.1,270l126.81.23V168.71l-126.81-.22Z"></path></g><polygon class="cls-8" points="299.25 273.08 171.53 273.34 171.53 169.96 299.25 169.7 299.25 273.08"></polygon><path class="cls-3" d="M210.31,178V167.21a2.09,2.09,0,0,0-1.71-1.83l-36.42.11a1,1,0,0,0-1.06,1.13V272.33l-1.06,1.53,127,.4c3.73,0,6-2.44,6-6.44v-88.2a2.08,2.08,0,0,0-1.72-1.83Z"></path><g class="cls-4"><rect class="cls-9" x="180.24" y="189.01" width="63.33" height="2.99"></rect><rect class="cls-9" x="180.24" y="193.52" width="63.33" height="2.99"></rect><rect class="cls-9" x="180.24" y="198.03" width="63.33" height="2.99"></rect><rect class="cls-9" x="180.24" y="202.55" width="63.33" height="2.99"></rect></g><path class="cls-9" d="M301.07,278.92h-6.28v-.68H301a5.21,5.21,0,0,0,5.52-4.34l.67.14A5.9,5.9,0,0,1,301.07,278.92Zm-9.28,0h-8.16v-.68h8.16Zm-11.16,0h-8.16v-.68h8.16Zm-11.16,0h-8.15v-.68h8.15Zm-11.15,0h-8.16v-.68h8.16Zm-11.16,0H239v-.68h8.16Zm-11.16,0h-8.15v-.68H236Zm-11.15,0h-8.16v-.68h8.16Zm-11.16,0h-8.16v-.68h8.16Zm-11.16,0h-8.15v-.68h8.15Zm-11.15,0h-8.16v-.68h8.16Zm-11.2-.05c-3.06-.33-5.08-2.48-5.41-5.74l.68-.07c.3,3,2.05,4.84,4.81,5.14ZM307.42,271h-.68v-8.15h.68Zm-132-.88h-.68v-8.16h.68Zm132-10.27h-.68v-8.16h.68Zm-132-.89h-.68v-8.15h.68Zm132-10.27h-.68v-8.16h.68Zm-132-.88h-.68v-8.16h.68Zm132-10.28h-.68v-8.15h.68Zm-132-.88h-.68v-8.16h.68Zm132-10.27h-.68V218.2h.68Zm-132-.89h-.68v-8.15h.68Zm132-10.27h-.68V207h.68Zm-132-.88h-.68v-8.16h.68Zm132-10.28h-.68v-8.15h.68Zm-132-.88h-.68V195h.68Zm132-10.27h-.68v-8.16h.68Zm-132-.89h-.68v-8.15h.68Zm38.52-9.34v-6.14h.68V182h2v.68Zm5.69,0V182l8.16,0v.68Zm11.16,0v-.68l8.16,0v.68Zm11.16,0v-.67l8.15,0v.68Zm11.15,0v-.68l8.16,0v.68Zm11.16,0v-.68l8.16,0v.68Zm41.47,0a.82.82,0,0,0-.34-.09l-7.66,0v-.68l7.65,0a1.45,1.45,0,0,1,.63.15Zm-30.31,0v-.68l8.15,0v.68Zm11.15,0v-.68l8.16,0v.68ZM175.4,180.85h-.68v-8.16h.68Zm39.2-7.33h-.68v-2a1.77,1.77,0,0,0-1.38-1.49h-3.45v-.68h3.46a2.4,2.4,0,0,1,2.06,2.17Zm-38.83-3.31-.28-.61a1.42,1.42,0,0,1,.63-.14l7.65,0v.68l-7.65,0A1,1,0,0,0,175.77,170.21Zm11-.1v-.68l8.16,0v.68Zm11.16,0v-.68l8.15,0v.68Z"></path><rect class="cls-10" x="326.38" y="34.09" width="83.93" height="46.98"></rect><polygon class="cls-9" points="405.69 78.58 401.6 78.58 401.6 77.95 405.06 77.95 405.06 74.49 405.69 74.49 405.69 78.58"></polygon><path class="cls-9" d="M394.66,78.58h-7V78h7Zm-13.89,0h-6.94V78h6.94Zm-13.89,0h-6.94V78h6.94Zm-13.88,0h-6.95V78H353Zm-13.89,0h-6.94V78h6.94Z"></path><polygon class="cls-9" points="325.22 78.58 321.13 78.58 321.13 74.49 321.76 74.49 321.76 77.95 325.22 77.95 325.22 78.58"></polygon><path class="cls-9" d="M321.76,66.6h-.63V58.72h.63Zm0-15.77h-.63V42.94h.63Z"></path><polygon class="cls-9" points="321.76 35.06 321.13 35.06 321.13 30.97 325.22 30.97 325.22 31.6 321.76 31.6 321.76 35.06"></polygon><path class="cls-9" d="M394.66,31.6h-7V31h7Zm-13.89,0h-6.94V31h6.94Zm-13.89,0h-6.94V31h6.94ZM353,31.6h-6.95V31H353Zm-13.89,0h-6.94V31h6.94Z"></path><polygon class="cls-9" points="405.69 35.06 405.06 35.06 405.06 31.6 401.6 31.6 401.6 30.97 405.69 30.97 405.69 35.06"></polygon><path class="cls-9" d="M405.69,66.6h-.63V58.72h.63Zm0-15.77h-.63V42.94h.63Z"></path><rect class="cls-9" x="317.36" y="54.56" width="3.77" height="0.63"></rect><path class="cls-9" d="M310.27,55.19h-7.09v-.63h7.09Zm-14.17,0H289v-.63h7.09Zm-14.18,0h-7.09v-.63h7.09Zm-14.18,0h-7.08v-.63h7.08Zm-14.17,0h-7.09v-.63h7.09Zm-14.18,0H232.3v-.63h7.09Zm-14.17,0h-7.09v-.63h7.09Z"></path><rect class="cls-9" x="207.26" y="54.56" width="3.77" height="0.63"></rect><rect class="cls-9" x="206.95" y="109.53" width="0.63" height="3.77"></rect><path class="cls-9" d="M207.58,102.26H207V95h.63Zm0-14.53H207V80.46h.63Zm0-14.54H207V65.92h.63Z"></path><rect class="cls-9" x="206.95" y="54.88" width="0.63" height="3.77"></rect><path class="cls-9" d="M373,62.19A9.23,9.23,0,1,1,382.19,53,9.24,9.24,0,0,1,373,62.19Zm0-17.3A8.08,8.08,0,1,0,381,53,8.08,8.08,0,0,0,373,44.89Z"></path><path class="cls-9" d="M373,58.15a.58.58,0,0,1-.58-.57V56.42a.58.58,0,0,1,1.16,0v1.16A.58.58,0,0,1,373,58.15Z"></path><path class="cls-9" d="M373,50.08a.58.58,0,0,1-.58-.58V48.35a.58.58,0,0,1,1.16,0V49.5A.58.58,0,0,1,373,50.08Z"></path><path class="cls-9" d="M373,57a2.32,2.32,0,0,1-2.31-2.31.58.58,0,0,1,1.16,0A1.15,1.15,0,1,0,373,53.54a2.31,2.31,0,1,1,2.31-2.31.58.58,0,0,1-1.16,0A1.15,1.15,0,1,0,373,52.39,2.31,2.31,0,1,1,373,57Z"></path><path class="cls-9" d="M363.73,71.42A9.23,9.23,0,1,1,364.38,53a.59.59,0,0,1,.54.62.56.56,0,0,1-.62.53,8,8,0,0,0-6.08,2.15,8.08,8.08,0,1,0,13.56,5.33.57.57,0,0,1,.54-.61.56.56,0,0,1,.61.54,9.21,9.21,0,0,1-9.2,9.87Z"></path><path class="cls-9" d="M363.73,67.38a4.62,4.62,0,0,1,0-9.23.58.58,0,0,1,0,1.16,3.46,3.46,0,0,0,0,6.92.57.57,0,0,1,.58.57A.58.58,0,0,1,363.73,67.38Z"></path><path class="cls-9" d="M363.16,62.19h-4.62a.57.57,0,0,1-.57-.58.56.56,0,0,1,.57-.57h4.62a.56.56,0,0,1,.57.57A.57.57,0,0,1,363.16,62.19Z"></path><path class="cls-9" d="M363.16,64.5h-4.62a.58.58,0,0,1,0-1.16h4.62a.58.58,0,0,1,0,1.16Z"></path><path class="cls-9" d="M358,52.42a.58.58,0,0,1-.4-.17L355.23,50a.58.58,0,0,1,.82-.82L358,51l1.89-1.91a.58.58,0,0,1,.82,0,.57.57,0,0,1,0,.81l-2.3,2.32A.58.58,0,0,1,358,52.42Z"></path><path class="cls-9" d="M358,52.42a.58.58,0,0,1-.58-.58V50.69a6.35,6.35,0,0,1,6.33-6.36h0a.58.58,0,0,1,0,1.15,5.19,5.19,0,0,0-5.17,5.21v1.15A.58.58,0,0,1,358,52.42Z"></path><path class="cls-9" d="M376.44,66.2A.58.58,0,0,1,376,66a.57.57,0,0,1,0-.81l2.3-2.32a.59.59,0,0,1,.82,0l2.31,2.3a.57.57,0,0,1,0,.82.58.58,0,0,1-.81,0l-1.91-1.89L376.85,66A.58.58,0,0,1,376.44,66.2Z"></path><path class="cls-9" d="M373,70.82a.57.57,0,0,1-.58-.57.58.58,0,0,1,.57-.58,5.19,5.19,0,0,0,5.18-5.2V63.31a.57.57,0,0,1,.57-.58h0a.58.58,0,0,1,.58.58v1.15A6.34,6.34,0,0,1,373,70.82Z"></path><rect class="cls-10" x="5.68" y="309.58" width="83.93" height="46.98" transform="translate(95.29 666.14) rotate(180)"></rect><polygon class="cls-9" points="10.36 317.65 9.73 317.65 9.73 313.56 13.82 313.56 13.82 314.19 10.36 314.19 10.36 317.65"></polygon><path class="cls-9" d="M83.26,314.19h-7v-.63h7Zm-13.89,0H62.43v-.63h6.94Zm-13.89,0H48.54v-.63h6.94Zm-13.88,0h-7v-.63h7Zm-13.89,0H20.77v-.63h6.94Z"></path><polygon class="cls-9" points="94.29 317.65 93.66 317.65 93.66 314.19 90.2 314.19 90.2 313.56 94.29 313.56 94.29 317.65"></polygon><path class="cls-9" d="M94.29,349.19h-.63v-7.88h.63Zm0-15.77h-.63v-7.89h.63Z"></path><polygon class="cls-9" points="94.29 361.17 90.2 361.17 90.2 360.54 93.66 360.54 93.66 357.08 94.29 357.08 94.29 361.17"></polygon><path class="cls-9" d="M83.26,361.17h-7v-.63h7Zm-13.89,0H62.43v-.63h6.94Zm-13.89,0H48.54v-.63h6.94Zm-13.88,0h-7v-.63h7Zm-13.89,0H20.77v-.63h6.94Z"></path><polygon class="cls-9" points="13.82 361.17 9.73 361.17 9.73 357.08 10.36 357.08 10.36 360.54 13.82 360.54 13.82 361.17"></polygon><path class="cls-9" d="M10.36,349.19H9.73v-7.88h.63Zm0-15.77H9.73v-7.89h.63Z"></path><rect class="cls-9" x="94.29" y="336.95" width="3.77" height="0.63"></rect><path class="cls-9" d="M197.3,337.58h-7.09V337h7.09Zm-14.18,0H176V337h7.09Zm-14.18,0h-7.08V337h7.08Zm-14.17,0h-7.09V337h7.09Zm-14.18,0H133.5V337h7.09Zm-14.17,0h-7.09V337h7.09Zm-14.18,0h-7.09V337h7.09Z"></path><rect class="cls-9" x="204.38" y="336.95" width="3.77" height="0.63"></rect><rect class="cls-9" x="207.84" y="278.72" width="0.63" height="3.77"></rect><path class="cls-9" d="M208.47,326.2h-.63v-7.28h.63Zm0-14.57h-.63v-7.28h.63Zm0-14.56h-.63v-7.29h.63Z"></path><rect class="cls-9" x="207.84" y="333.49" width="0.63" height="3.77"></rect><path class="cls-9" d="M47.65,346.34a.66.66,0,0,1-.67-.66v-20a.67.67,0,1,1,1.33,0v20A.66.66,0,0,1,47.65,346.34Z"></path><path class="cls-9" d="M51.48,346.34h-7.7a.66.66,0,0,1,0-1.32h7.7a.66.66,0,1,1,0,1.32Z"></path><path class="cls-9" d="M47.65,326.36a2.6,2.6,0,1,1,2.59-2.6A2.61,2.61,0,0,1,47.65,326.36Zm0-3.87a1.27,1.27,0,1,0,1.27,1.27A1.27,1.27,0,0,0,47.65,322.49Z"></path><path class="cls-9" d="M33.07,334.39a.58.58,0,0,1-.26-.06.65.65,0,0,1-.34-.87l4.63-10.6a.67.67,0,0,1,.61-.39h0a.67.67,0,0,1,.61.39l4.62,10.6a.67.67,0,0,1-1.22.53l-4-9.21-4,9.21A.66.66,0,0,1,33.07,334.39Z"></path><path class="cls-9" d="M45.8,323.79H35.72a.66.66,0,0,1,0-1.32H45.8a.66.66,0,1,1,0,1.32Z"></path><path class="cls-9" d="M37.71,339a5.31,5.31,0,0,1-5.3-5.3.66.66,0,0,1,.66-.66h9.28a.66.66,0,0,1,.66.66A5.31,5.31,0,0,1,37.71,339Zm-3.92-4.64a4,4,0,0,0,7.84,0Z"></path><path class="cls-9" d="M62.22,334.39a.65.65,0,0,1-.6-.4l-4-9.21-4,9.21a.66.66,0,0,1-1.21-.53L57,322.86a.65.65,0,0,1,.61-.39h0a.65.65,0,0,1,.6.39l4.64,10.6a.67.67,0,0,1-.61.93Z"></path><path class="cls-9" d="M59.57,323.79H49.49a.66.66,0,0,1,0-1.32H59.57a.66.66,0,1,1,0,1.32Z"></path><path class="cls-9" d="M57.59,339a5.3,5.3,0,0,1-5.3-5.3.65.65,0,0,1,.66-.66h9.27a.66.66,0,0,1,.67.66A5.31,5.31,0,0,1,57.59,339Zm-3.92-4.64a4,4,0,0,0,7.84,0Z"></path></g></svg> 