<?xml version="1.0" encoding="UTF-8" standalone="no"?><svg width="633" height="483" viewBox="0 0 633 483" fill="none" xmlns="http://www.w3.org/2000/svg">
<path fill-rule="evenodd" clip-rule="evenodd" d="M324.902 405.543C324.222 404.603 322.422 405.723 320.522 404.423C319.97 404.07 319.38 403.781 318.762 403.563C318.724 403.608 318.676 403.642 318.622 403.663C317.579 404.343 316.619 405.142 315.762 406.043C318.178 407.413 320.831 408.315 323.582 408.703C324.063 408.7 324.523 408.506 324.862 408.163C325.104 407.309 325.118 406.405 324.902 405.543Z" fill="#294F6E" stroke="#002F57" stroke-width="0.75"/>
<path fill-rule="evenodd" clip-rule="evenodd" d="M329.122 408.224C329.302 407.864 328.102 405.884 330.422 405.724C332.742 405.564 334.422 405.284 334.802 403.724C335.182 402.164 337.902 402.944 338.682 402.864C339.462 402.784 341.382 400.864 343.382 400.984C343.382 398.984 340.742 399.664 338.902 397.824C337.062 395.984 332.662 396.744 330.342 397.644C328.022 398.544 325.362 396.664 322.862 398.084C322.22 398.909 321.489 399.66 320.682 400.324C319.002 401.684 319.462 403.044 318.842 403.424C319.46 403.642 320.05 403.93 320.602 404.284C322.602 405.584 324.302 404.464 324.982 405.404C325.211 406.262 325.211 407.166 324.982 408.024C325.342 407.744 325.602 407.544 326.182 408.024C326.762 408.504 326.622 409.004 326.562 409.544L328.042 409.204C328.439 408.92 328.801 408.591 329.122 408.224Z" fill="#294F6E" stroke="#002F57" stroke-width="0.75"/>
<path fill-rule="evenodd" clip-rule="evenodd" d="M308.901 396.844C309.321 396.844 313.801 397.364 314.241 396.244C314.681 395.124 310.881 392.644 311.301 392.384C311.721 392.124 311.901 389.364 312.601 389.364C313.301 389.364 319.561 389.544 319.921 389.364C320.281 389.184 321.461 386.944 322.501 386.864C322.961 386.864 323.701 387.404 324.381 388.044C325.51 386.444 326.13 384.541 326.161 382.584C326.421 380.164 325.621 379.364 326.881 378.044C328.141 376.724 329.461 376.604 329.101 374.724C328.741 372.844 327.101 374.724 325.621 373.844C324.141 372.964 322.941 373.584 319.301 374.104C315.661 374.624 313.941 376.104 314.121 378.744C314.301 381.384 312.881 380.164 312.961 382.404C313.041 384.644 310.101 384.724 310.281 386.064C310.461 387.404 307.961 386.064 307.261 385.604C306.561 385.144 298.881 387.484 297.801 387.604C296.721 387.724 294.761 385.384 293.261 385.464C291.761 385.544 291.121 383.224 290.941 381.464C290.761 379.704 287.901 377.904 286.661 376.204C285.421 374.504 285.221 370.764 285.141 368.344C284.811 364.551 285.267 360.732 286.481 357.124C286.671 356.581 286.792 356.016 286.841 355.444C286.348 355.084 285.768 354.863 285.161 354.804C283.641 354.904 280.221 352.804 279.541 352.804C278.861 352.804 278.981 351.184 278.401 350.324C277.821 349.464 278.201 347.864 277.441 347.284C275.692 345.869 274.375 343.991 273.641 341.864C272.881 339.184 268.201 337.864 266.501 337.864C264.801 337.864 263.821 341.384 263.341 341.584C261.709 340.947 260.148 340.142 258.681 339.184C257.739 338.691 257.18 337.684 257.261 336.624C257.261 335.484 255.261 333.664 254.681 333.484C253.076 332.207 251.547 330.838 250.101 329.384H243.821L242.481 331.084L231.061 331.184C231.061 331.184 222.301 327.944 220.681 327.564C219.089 326.972 217.583 326.172 216.201 325.184L206.941 326.404C207.512 327.602 208.231 328.724 209.081 329.744C210.754 332.094 211.906 334.773 212.461 337.604C212.641 339.024 215.221 340.184 217.461 341.604C219.102 342.858 219.879 344.941 219.461 346.964C219.201 347.764 216.421 346.424 216.241 347.224C216.061 348.024 219.821 351.224 221.241 350.984C222.661 350.744 223.381 351.684 225.621 353.644C227.861 355.604 227.621 357.924 226.761 358.644C225.901 359.364 228.561 360.864 231.401 362.744C233.377 363.931 234.888 365.759 235.681 367.924C235.961 368.904 237.201 367.924 237.681 366.664C238.161 365.404 236.801 364.984 236.801 363.464C236.801 361.944 234.481 362.204 233.401 362.024C232.321 361.844 233.401 359.544 232.421 358.464C231.183 356.758 230.306 354.819 229.841 352.764C229.301 350.764 226.541 348.764 225.381 346.764C224.605 345.112 223.519 343.625 222.181 342.384C221.381 341.844 223.341 341.044 222.621 340.244C221.901 339.444 220.841 339.524 219.501 338.904C218.19 338.416 217.304 337.182 217.261 335.784C217.062 333.738 216.619 331.724 215.941 329.784C215.481 328.624 216.921 328.804 217.361 329.344C217.801 329.884 218.161 330.424 218.781 330.064C219.181 329.886 219.635 329.88 220.04 330.046C220.444 330.212 220.762 330.537 220.921 330.944C221.381 331.924 222.921 331.044 223.601 331.484C224.281 331.924 222.001 332.464 224.321 336.564C226.641 340.664 225.021 338.344 225.021 341.124C225.021 343.904 226.461 342.624 226.901 342.184C227.341 341.744 228.601 343.084 229.761 344.504C230.921 345.924 233.141 346.024 233.141 346.824C233.093 348.077 233.926 349.193 235.141 349.504C236.661 349.764 236.921 351.504 237.901 351.644C238.881 351.784 239.061 352.884 238.541 354.044C238.021 355.204 238.541 356.184 241.021 357.164C243.501 358.144 242.361 358.324 244.321 360.204C247.388 363.244 250.279 366.456 252.981 369.824C253.865 371.174 254.539 372.651 254.981 374.204C255.421 375.444 254.081 376.064 254.801 377.144C255.521 378.224 253.461 377.764 253.561 378.564C253.661 379.364 254.801 383.384 256.761 383.564C258.721 383.744 260.961 386.144 262.561 387.564C264.161 388.984 266.561 388.644 268.981 389.564C271.401 390.484 273.441 392.604 276.981 393.564C280.183 394.476 283.244 395.822 286.081 397.564C288.301 398.984 291.061 398.364 294.181 397.124C297.301 395.884 299.721 397.484 301.501 398.184C303.068 399.138 304.518 400.273 305.821 401.564C306.731 399.917 307.76 398.339 308.901 396.844Z" fill="#00A7E0" stroke="#002F57" stroke-width="0.75"/>
<path fill-rule="evenodd" clip-rule="evenodd" d="M320.601 400.464C321.408 399.8 322.139 399.048 322.781 398.224C321.381 398.984 320.941 398.224 321.161 397.284L319.161 397.544L319.361 389.424C317.741 389.424 313.201 389.424 312.621 389.424C312.041 389.424 311.761 392.184 311.321 392.444C310.881 392.704 314.681 395.184 314.261 396.304C313.841 397.424 309.341 396.824 308.921 396.904C307.719 398.277 306.616 399.734 305.621 401.264C307.028 402.593 308.503 403.848 310.041 405.024C311.741 406.084 314.501 404.924 315.661 406.004L315.781 406.104C316.639 405.202 317.598 404.403 318.641 403.724C319.481 403.404 318.741 401.944 320.601 400.464Z" fill="#294F6E" stroke="#002F57" stroke-width="0.75"/>
<path fill-rule="evenodd" clip-rule="evenodd" d="M319.921 389.364H319.341L319.141 397.484L321.141 397.224C321.328 396.436 321.771 395.733 322.401 395.224C324.001 393.984 321.581 388.984 323.461 388.544C323.797 388.443 324.105 388.265 324.361 388.024C323.681 387.384 322.941 386.804 322.481 386.844C321.461 386.944 320.261 389.204 319.921 389.364Z" fill="#294F6E" stroke="#002F57" stroke-width="0.75"/>
<path fill-rule="evenodd" clip-rule="evenodd" d="M383.761 380.084C381.981 381.324 386.441 384.084 386.441 385.604C386.441 387.124 379.281 385.304 378.601 387.044C378.241 387.924 381.081 389.184 383.761 388.284C385.639 387.688 387.684 387.959 389.341 389.024C389.541 386.324 389.861 383.284 390.141 381.204C387.881 380.624 385.061 379.164 383.761 380.084Z" fill="#294F6E" stroke="#002F57" stroke-width="0.75"/>
<path fill-rule="evenodd" clip-rule="evenodd" d="M394.741 387.404C397.961 386.324 403.121 388.284 403.121 385.784C403.121 383.284 394.561 380.624 392.421 381.324C391.698 381.487 390.943 381.445 390.241 381.204C389.961 383.204 389.641 386.324 389.441 389.024L389.741 389.184C391.081 389.884 391.441 388.464 394.741 387.404Z" fill="#294F6E" stroke="#002F57" stroke-width="0.75"/>
<path fill-rule="evenodd" clip-rule="evenodd" d="M335.541 417.684C336.441 418.144 338.641 417.684 339.541 418.364C340.162 418.669 340.869 418.746 341.541 418.584C341.338 418.302 341.151 418.008 340.981 417.704C340.361 416.564 341.421 414.244 341.961 412.544C342.501 410.844 341.521 406.744 342.501 405.684C343.481 404.624 342.941 403.984 343.381 401.484C343.4 401.351 343.4 401.217 343.381 401.084C341.381 401.084 339.381 402.904 338.681 402.964C337.981 403.024 335.161 402.364 334.801 403.824C334.441 405.284 332.801 405.544 330.421 405.824C328.041 406.104 329.301 407.964 329.121 408.324C328.772 408.748 328.368 409.125 327.921 409.444L326.441 409.784C326.244 410.374 326.507 411.02 327.061 411.304C328.481 412.104 330.441 415.304 331.961 416.024C332.611 416.372 333.1 416.961 333.321 417.664C334.053 417.506 334.812 417.513 335.541 417.684Z" fill="#294F6E" stroke="#002F57" stroke-width="0.75"/>
<path fill-rule="evenodd" clip-rule="evenodd" d="M344.882 426.084C344.732 425.188 344.956 424.27 345.502 423.544C344.07 421.972 342.735 420.316 341.502 418.584C340.83 418.746 340.122 418.669 339.502 418.364C338.622 417.684 336.422 418.144 335.502 417.684C334.78 417.48 334.021 417.439 333.282 417.564C333.544 418.099 333.422 418.743 332.982 419.144C332.504 419.707 332.348 420.475 332.567 421.18C332.786 421.885 333.349 422.43 334.062 422.624C336.062 423.424 335.402 422.164 336.382 422.164C337.362 422.164 337.262 423.684 338.162 423.684C339.062 423.684 341.102 424.764 341.002 426.184C340.902 427.604 341.722 428.184 343.322 428.184H344.302C344.622 427.364 345.022 426.584 344.882 426.084Z" fill="#294F6E" stroke="#002F57" stroke-width="0.75"/>
<path fill-rule="evenodd" clip-rule="evenodd" d="M365.301 426.104C363.881 423.964 361.301 424.104 359.681 423.424C358.061 422.744 356.041 423.684 353.981 425.564C351.921 427.444 349.341 426.364 347.561 425.384C346.82 424.857 346.149 424.238 345.561 423.544C345.016 424.27 344.792 425.188 344.941 426.084C345.081 426.584 344.681 427.364 344.401 428.304C346.343 428.476 348.169 429.301 349.581 430.644C350.921 432.244 351.721 431.184 352.521 432.644C353.321 434.104 355.201 432.644 355.641 431.844C356.081 431.044 354.661 430.604 354.481 429.624C354.301 428.644 356.261 428.984 356.621 427.624C356.981 426.264 359.841 425.624 361.081 426.204C362.321 426.784 363.401 427.624 362.241 428.964C361.381 429.964 363.141 431.764 364.621 433.164C365.466 432.229 366.368 431.347 367.321 430.524C367.643 430.178 367.84 429.735 367.881 429.264C366.831 428.382 365.955 427.31 365.301 426.104Z" fill="#294F6E" stroke="#002F57" stroke-width="0.75"/>
<path fill-rule="evenodd" clip-rule="evenodd" d="M367.781 461.044C368.726 461.62 369.915 461.62 370.861 461.044C371.221 460.584 372.241 461.604 373.741 463.284L373.921 463.484C375.037 463.105 376.241 463.063 377.381 463.364C378.501 464.064 378.221 466.584 379.761 466.724C381.301 466.864 382.421 468.404 382.281 469.244C382.141 470.084 383.961 470.504 383.821 471.764C383.681 473.024 387.821 472.744 388.441 472.324C389.127 471.813 390.034 471.706 390.821 472.044C391.521 472.464 392.821 471.624 393.481 471.904C394.141 472.184 396.981 473.304 396.421 474.284C395.861 475.264 393.901 476.804 394.321 477.644C394.741 478.484 396.101 478.724 396.701 479.644H396.901C397.981 479.404 398.441 475.364 398.441 474.164C398.546 472.315 398.827 470.48 399.281 468.684C399.941 466.344 396.701 464.684 396.701 462.164C396.701 459.644 397.981 461.044 399.441 460.004C400.901 458.964 399.441 458.504 398.621 458.344C397.816 457.93 397.39 457.028 397.581 456.144C397.821 455.384 402.241 455.704 403.581 455.704C405.167 455.514 406.698 455.004 408.081 454.204C408.289 453.452 408 452.651 407.361 452.204C406.261 451.344 406.681 450.204 407.521 449.184C408.361 448.164 407.001 447.184 405.941 446.084C404.881 444.984 405.701 440.704 406.921 438.724C408.141 436.744 404.461 437.204 402.201 437.484C400.018 437.756 397.862 436.812 396.581 435.024C395.141 433.184 393.161 434.344 389.701 434.424C386.241 434.504 386.921 430.604 387.081 429.124C387.241 427.644 385.321 427.424 385.321 426.464C385.321 425.504 384.321 425.504 383.321 425.584C382.321 425.664 383.321 424.484 383.941 423.724C384.561 422.964 384.501 422.364 384.541 420.744C384.581 419.124 386.901 417.784 388.081 416.204C388.396 415.823 388.822 415.55 389.301 415.424C389.455 415.001 389.833 414.7 390.281 414.644C392.061 414.284 392.941 413.124 391.261 412.144C389.581 411.164 388.581 414.024 386.701 414.284C384.821 414.544 384.481 415.704 383.221 416.284C381.961 416.864 379.661 416.284 379.581 417.444C379.501 418.604 378.761 417.444 377.701 417.164C376.641 416.884 373.861 419.304 373.961 420.644C374.061 421.984 374.481 423.244 372.521 424.484C370.925 425.783 369.57 427.354 368.521 429.124C368.32 429.404 367.942 429.49 367.641 429.324C367.6 429.795 367.403 430.238 367.081 430.584C366.127 431.408 365.225 432.289 364.381 433.224C364.881 433.704 365.341 434.124 365.661 434.464C366.901 435.804 366.101 436.884 366.461 437.584C366.821 438.284 367.181 439.364 366.461 439.824C365.741 440.284 366.461 445.164 367.181 446.064C367.901 446.964 367.181 447.764 366.281 449.544C365.381 451.324 364.581 452.124 362.981 452.204C361.381 452.284 361.461 454.804 360.981 454.804C360.501 454.804 360.241 455.704 360.181 456.484C361.629 457.736 363.317 458.682 365.141 459.264C366.121 459.184 366.741 460.384 367.781 461.044Z" fill="#294F6E" stroke="#002F57" stroke-width="0.75"/>
<path fill-rule="evenodd" clip-rule="evenodd" d="M388.261 416.064C387.081 417.644 384.761 419.004 384.721 420.604C384.681 422.204 384.721 422.824 384.121 423.584C383.521 424.344 382.621 425.584 383.501 425.444C384.381 425.304 385.501 425.444 385.501 426.324C385.501 427.204 387.501 427.484 387.261 428.984C387.021 430.484 386.421 434.364 389.881 434.284C393.341 434.204 395.321 433.044 396.761 434.884C398.042 436.672 400.199 437.616 402.381 437.344C404.641 437.064 408.381 436.624 407.101 438.584C405.821 440.544 405.101 444.784 406.121 445.944C407.141 447.104 408.541 448.084 407.701 449.044C406.861 450.004 406.441 451.204 407.541 452.064C408.181 452.51 408.47 453.312 408.261 454.064C408.101 454.216 407.91 454.332 407.701 454.404C409.301 456.004 409.861 457.744 410.761 458.404C411.981 459.364 412.341 459.844 413.181 459.364C414.021 458.884 414.621 458.524 415.361 459.004C416.101 459.484 417.041 458.524 418.121 457.564C419.201 456.604 420.421 457.444 420.781 456.224C420.998 455.081 421.927 454.208 423.081 454.064C424.401 453.824 424.401 452.364 423.561 452.364C422.721 452.364 421.561 453.444 421.561 451.884C421.561 450.324 420.481 450.684 420.481 449.344C420.688 448.103 420.053 446.874 418.921 446.324C417.461 445.484 420.921 445.124 421.561 445.844C422.201 446.564 424.821 445.964 425.061 447.044C425.301 448.124 426.641 448.504 426.641 447.164C426.641 445.824 428.201 445.364 429.421 445.604C430.641 445.844 433.281 444.044 434.361 443.604C434.941 443.424 435.141 442.744 435.441 442.164C434.65 441.02 433.775 439.937 432.821 438.924C431.941 438.204 433.401 437.784 433.241 436.764C433.081 435.744 433.241 435.024 435.121 434.884C437.001 434.744 436.721 433.284 435.701 432.724C434.681 432.164 436.141 430.544 437.141 429.964C437.803 429.439 438.313 428.749 438.621 427.964C436.733 427.415 434.762 427.212 432.801 427.364C431.281 427.364 433.781 425.684 433.861 424.064C433.941 422.444 429.581 422.204 427.861 421.844C426.141 421.484 426.621 419.704 428.401 419.624C430.181 419.544 427.421 418.284 425.021 418.624C422.309 419.153 419.693 420.09 417.261 421.404C415.261 422.464 411.901 418.284 409.681 419.164C407.461 420.044 404.321 420.064 404.421 418.284C404.571 417.419 404.29 416.536 403.67 415.915C403.049 415.295 402.166 415.015 401.301 415.164C399.061 415.324 399.601 412.924 397.901 412.924C396.201 412.924 397.901 414.924 396.741 415.504C395.581 416.084 391.581 417.024 391.301 418.624C391.021 420.224 393.441 422.924 392.641 424.524C391.841 426.124 389.161 424.784 388.361 423.084C387.561 421.384 390.681 418.804 390.141 417.824C389.635 416.991 389.45 416.003 389.621 415.044C389.057 415.203 388.572 415.567 388.261 416.064Z" fill="#294F6E" stroke="#002F57" stroke-width="0.75"/>
<path fill-rule="evenodd" clip-rule="evenodd" d="M449.261 440.743C449.841 441.903 448.541 442.483 447.381 442.623C446.221 442.763 446.521 445.363 445.801 446.083C445.081 446.803 448.541 448.683 449.121 450.283C449.822 451.831 450.616 453.334 451.501 454.783C452.133 455.055 452.838 455.104 453.501 454.923C454.581 454.323 453.621 452.263 455.181 452.383C456.741 452.503 459.061 451.543 459.661 452.503C459.77 452.689 459.897 452.864 460.041 453.023C460.561 452.263 461.101 451.423 461.241 451.143C461.561 449.355 461.409 447.515 460.801 445.803C460.163 444.197 460.438 442.371 461.521 441.023C461.906 440.41 462.177 439.733 462.321 439.023C461.078 438.412 459.707 438.104 458.321 438.123C456.181 438.383 453.941 439.363 453.141 438.123C452.341 436.883 451.141 437.143 450.101 438.123C449.997 438.215 449.857 438.252 449.721 438.223C449.341 439.283 448.981 440.243 449.261 440.743Z" fill="#294F6E" stroke="#002F57" stroke-width="0.75"/>
<path fill-rule="evenodd" clip-rule="evenodd" d="M436.981 430.124C435.981 430.704 434.541 432.304 435.541 432.884C436.541 433.464 436.841 434.884 434.961 435.044C433.081 435.204 432.961 435.904 433.081 436.924C433.201 437.944 431.781 438.364 432.661 439.084C433.615 440.097 434.49 441.18 435.281 442.324C435.503 441.729 436.116 441.376 436.741 441.484C438.421 441.724 437.101 444.264 438.421 444.864C439.007 445.195 439.399 445.788 439.474 446.457C439.549 447.126 439.299 447.79 438.801 448.244C437.821 448.964 437.461 452.944 439.641 455.364C441.821 457.784 443.501 457.364 443.981 456.804C444.461 456.244 446.161 456.804 446.641 455.844C447.121 454.884 447.721 455.964 448.641 454.884C449.201 454.244 450.361 454.584 451.461 454.884C450.576 453.434 449.782 451.931 449.081 450.384C448.501 448.784 445.081 446.904 445.761 446.184C446.441 445.464 446.201 442.864 447.341 442.724C448.481 442.584 449.801 442.004 449.221 440.844C448.941 440.264 449.221 439.304 449.681 438.264C448.561 438.164 446.921 434.944 445.961 434.944C445.354 434.956 444.773 434.691 444.384 434.224C443.995 433.758 443.84 433.139 443.961 432.544C444.221 431.024 441.461 430.844 439.961 429.144C439.549 428.722 439.042 428.407 438.481 428.224C438.153 428.975 437.636 429.629 436.981 430.124Z" fill="#294F6E" stroke="#002F57" stroke-width="0.75"/>
<path fill-rule="evenodd" clip-rule="evenodd" d="M460.741 445.883C461.349 447.595 461.501 449.435 461.181 451.223C461.041 451.503 460.501 452.343 459.981 453.103C460.905 454.091 462.362 454.366 463.581 453.783C465.881 453.063 466.961 454.523 467.801 451.983C468.967 449.561 470.582 447.383 472.561 445.563C470.861 444.843 468.281 440.743 465.701 440.203C464.544 439.92 463.414 439.539 462.321 439.063C462.178 439.773 461.907 440.451 461.521 441.063C460.403 442.408 460.104 444.255 460.741 445.883Z" fill="#294F6E" stroke="#002F57" stroke-width="0.75"/>
<path fill-rule="evenodd" clip-rule="evenodd" d="M371.821 375.084C369.141 375.084 360.401 369.084 352.381 367.244C344.361 365.404 337.361 371.244 338.101 372.244C339.181 373.664 343.101 370.444 345.061 369.024C347.021 367.604 348.801 369.744 349.061 370.624C349.321 371.504 351.741 372.064 355.841 372.244C359.941 372.424 360.481 375.804 364.401 376.704C368.321 377.604 364.401 379.184 366.401 379.904C368.401 380.624 378.721 380.444 379.421 379.544C380.121 378.644 374.481 375.084 371.821 375.084Z" fill="#294F6E" stroke="#002F57" stroke-width="0.75"/>
<path fill-rule="evenodd" clip-rule="evenodd" d="M362.741 387.404C363.461 388.644 370.221 390.424 370.941 388.824C371.661 387.224 361.841 385.844 362.741 387.404Z" fill="#294F6E" stroke="#002F57" stroke-width="0.75"/>
<path fill-rule="evenodd" clip-rule="evenodd" d="M408.561 387.744C410.161 390.244 414.761 388.764 415.161 387.744C415.861 385.964 406.941 385.264 408.561 387.744Z" fill="#294F6E" stroke="#002F57" stroke-width="0.75"/>
<path fill-rule="evenodd" clip-rule="evenodd" d="M373.741 463.284C372.241 461.604 371.221 460.584 370.861 461.044C369.915 461.621 368.727 461.621 367.781 461.044C366.681 460.384 366.121 459.184 365.281 459.184C363.457 458.602 361.77 457.656 360.321 456.404C360.301 456.584 360.301 456.765 360.321 456.944C360.321 457.744 359.061 458.284 357.541 458.384C356.021 458.484 356.201 460.164 356.201 461.324C356.201 462.484 354.961 462.484 354.421 463.724C353.881 464.964 354.601 465.244 353.361 465.864C352.81 466.036 352.377 466.464 352.198 467.012C352.019 467.56 352.117 468.161 352.461 468.624C353.181 469.704 352.461 470.624 352.201 471.304C351.941 471.984 353.261 472.204 354.521 473.304C355.781 474.404 355.941 472.844 356.521 473.744C356.722 474.32 356.631 474.958 356.277 475.455C355.924 475.952 355.351 476.246 354.741 476.244C354.628 476.225 354.513 476.225 354.401 476.244C355.141 477.004 355.541 477.804 355.181 478.244C354.541 479.184 353.981 479.184 355.181 480.244C356.381 481.304 357.181 479.684 358.261 481.084C359.341 482.484 360.121 483.324 361.141 480.904C362.161 478.484 362.901 475.044 364.761 474.484C366.621 473.924 370.441 473.184 372.661 470.204C374.881 467.224 373.721 467.064 374.901 466.204C376.081 465.344 375.221 464.944 373.741 463.284Z" fill="#294F6E" stroke="#002F57" stroke-width="0.75"/>
<path fill-rule="evenodd" clip-rule="evenodd" d="M618.521 17.7439C614.121 17.7439 610.521 18.4639 610.321 21.5439C610.121 24.6239 604.501 20.9639 602.121 22.0239C599.741 23.0839 600.941 19.5239 598.561 20.7239C596.181 21.9239 593.561 24.7239 590.701 25.9439C587.841 27.1639 585.721 30.1039 583.921 30.3439C582.121 30.5839 587.741 24.8839 590.581 22.0239C593.421 19.1639 591.901 15.8439 588.081 16.2039C584.261 16.5639 585.121 18.9239 582.981 19.4039C580.841 19.8839 570.621 25.0039 570.141 23.4039C569.661 21.8039 578.581 19.2439 578.461 18.1839C578.341 17.1239 567.161 16.9839 562.161 17.7039C557.161 18.4239 548.381 21.2639 548.261 19.8439C548.141 18.4239 558.481 16.4039 563.721 15.8439C568.961 15.2839 578.581 16.2039 582.621 14.5439C586.661 12.8839 592.741 12.7439 593.801 11.4439C594.861 10.1439 589.161 8.34391 586.301 8.46391C583.441 8.58391 580.601 8.22391 580.841 6.80391C581.081 5.38391 576.441 5.02391 575.961 3.94391C575.481 2.86391 566.561 3.70391 564.661 2.52391C562.761 1.34391 557.181 0.743906 552.421 1.10391C547.661 1.46391 537.921 1.34391 535.661 1.56391C533.784 2.03912 531.871 2.36019 529.941 2.52391C527.941 2.40391 524.841 3.12391 525.941 4.52391C528.101 6.90391 522.741 7.86391 523.101 6.06391C523.461 4.26391 518.461 3.46391 516.901 4.76391C515.341 6.06391 507.161 3.22391 505.981 4.76391C504.801 6.30391 495.381 5.84391 492.661 6.30391C489.941 6.76391 496.941 8.80391 496.661 10.0039C496.381 11.2039 487.741 10.0039 489.521 12.1439C491.301 14.2839 497.021 15.8239 499.741 18.5639C502.461 21.3039 497.601 19.6239 494.521 17.6039C491.441 15.5839 487.501 16.3039 485.601 14.2839C483.701 12.2639 476.741 10.6039 474.901 11.8039C472.781 13.2239 479.781 15.8039 479.781 17.3839C479.781 18.9639 475.021 17.0239 474.181 17.6239C473.341 18.2239 469.201 13.6239 466.821 13.6239C464.441 13.6239 466.461 15.7639 466.461 18.7439C466.461 21.7239 461.821 23.4839 463.121 21.4639C464.421 19.4439 463.481 14.2239 460.981 13.2639C458.481 12.3039 452.081 15.2639 448.741 15.2639C445.401 15.2639 441.021 16.2239 443.861 17.8839C446.701 19.5439 443.741 20.5039 441.261 18.7239C438.781 16.9439 430.561 18.7239 432.221 19.9039C433.885 21.4303 434.363 23.8611 433.401 25.9039C432.341 27.3439 428.881 24.4839 425.681 24.7239C422.481 24.9639 406.541 32.5639 407.481 34.5839C408.421 36.6039 415.221 34.9439 417.361 36.1239C419.501 37.3039 416.641 41.7239 414.021 43.5039C411.401 45.2839 401.661 43.6239 401.421 45.7639C401.181 47.9039 386.081 48.2639 386.081 51.7639C386.018 53.2126 387.034 54.4853 388.461 54.7439C390.601 55.2039 393.221 54.5039 395.121 56.6439C397.021 58.7839 402.381 58.9039 406.061 57.4839C409.741 56.0639 412.481 57.7239 412.361 59.8439C412.241 61.9639 404.041 59.0239 401.541 60.5639C399.041 62.1039 391.321 60.8039 391.661 62.4639C392.001 64.1239 395.841 63.7839 398.921 64.3639C402.001 64.9439 399.161 66.3639 399.041 67.5839C398.921 68.8039 400.701 68.6439 403.801 70.2039C406.901 71.7639 412.001 72.7039 410.341 70.9039C408.681 69.1039 413.541 69.3639 414.341 70.4439C415.141 71.5239 417.441 68.8839 419.701 69.4839C421.961 70.0839 422.781 67.3439 424.561 68.5439C426.341 69.7439 434.681 70.5439 437.521 71.9839C440.361 73.4239 444.301 73.9839 443.941 76.1439C443.581 78.3039 446.321 80.1439 449.541 81.4839C452.042 82.6502 453.522 85.2806 453.221 88.0239C453.101 90.0239 456.661 91.4839 456.081 92.4239C455.501 93.3639 455.961 94.6839 458.081 96.5839C460.201 98.4839 454.741 99.9239 456.081 101.584C457.421 103.244 454.181 106.464 457.981 107.064C461.781 107.664 461.181 104.444 463.981 104.444C466.781 104.444 463.861 106.944 465.401 108.444C466.941 109.944 470.161 109.624 473.141 112.124C476.121 114.624 474.201 115.824 471.461 113.804C468.721 111.784 460.761 112.244 460.761 112.964C460.761 113.684 469.561 118.664 471.581 117.964C473.601 117.264 476.341 120.924 475.161 122.124C473.981 123.324 474.561 126.284 474.321 127.704C474.081 129.124 471.121 127.704 469.221 127.944C467.321 128.184 466.001 128.784 466.001 130.804C466.001 132.824 463.021 134.244 462.681 136.804C462.341 139.364 465.041 139.184 466.681 140.244C468.321 141.304 463.821 142.024 463.581 143.824C463.341 145.624 467.581 148.804 469.181 149.644C470.781 150.484 469.301 154.524 469.881 156.544C470.461 158.564 472.501 156.064 472.261 158.684C472.021 161.304 474.161 161.184 474.261 162.684C474.361 164.184 478.061 163.984 477.361 166.124C476.661 168.264 478.421 169.824 479.261 171.004C480.101 172.184 483.261 174.204 483.781 175.764C484.301 177.324 486.161 179.324 488.301 178.724C490.441 178.124 490.561 180.164 492.301 179.924C494.041 179.684 496.581 180.624 497.061 181.924C497.541 183.224 502.641 184.424 504.061 184.664C505.481 184.904 505.741 182.284 507.041 181.564C508.341 180.844 507.881 175.564 509.041 175.264C510.201 174.964 509.881 169.444 508.681 168.964C507.481 168.484 507.981 166.584 510.681 166.964C513.381 167.344 512.481 164.584 513.781 164.224C515.081 163.864 514.501 161.364 515.441 161.144C516.381 160.924 516.281 159.144 515.561 158.284C514.841 157.424 515.681 156.624 517.101 156.384C518.521 156.144 518.181 154.124 516.281 153.404C514.381 152.684 514.961 150.564 516.861 151.864C518.761 153.164 520.201 152.224 519.121 150.784C518.041 149.344 520.441 148.644 522.941 148.404C525.441 148.164 526.741 146.864 526.261 144.964C525.781 143.064 529.121 143.184 528.261 144.844C527.401 146.504 527.901 148.164 529.101 146.984C530.301 145.804 532.541 146.624 536.581 145.444C540.621 144.264 544.581 140.924 545.501 137.704C546.421 134.484 551.101 134.864 550.501 132.724C549.901 130.584 551.321 129.744 554.301 131.164C557.281 132.584 554.901 130.224 558.301 130.224C561.701 130.224 561.041 129.024 564.301 128.904C567.561 128.784 575.821 127.364 578.681 124.904C581.541 122.444 587.601 120.504 590.081 118.904C592.561 117.304 593.181 116.044 591.641 116.904C589.356 117.765 586.86 117.89 584.501 117.264C582.121 116.664 578.321 114.644 575.581 116.184C572.841 117.724 574.521 113.924 576.781 113.584C579.041 113.244 578.081 112.144 577.481 109.764C576.881 107.384 581.301 108.944 583.201 111.764C585.198 114.533 588.732 115.73 592.001 114.744C595.201 113.804 592.121 111.184 593.421 109.404C594.721 107.624 583.561 102.024 582.961 100.124C582.361 98.2239 585.801 99.5239 588.961 100.824C592.121 102.124 592.761 98.3439 592.761 96.6639C592.761 94.9839 586.101 94.8839 583.141 96.5439C580.181 98.2039 577.301 94.4039 581.361 93.9439C585.421 93.4839 581.701 91.8039 582.901 90.6039C584.101 89.4039 589.201 94.0639 591.821 93.2239C594.441 92.3839 596.341 93.3439 598.601 91.5639C600.861 89.7839 594.601 88.1039 593.241 86.5639C591.881 85.0239 599.781 85.6239 602.161 85.7239C604.541 85.8239 605.141 82.2839 603.241 83.0039C601.341 83.7239 594.561 80.6239 595.981 78.4839C597.401 76.3439 599.981 78.8439 603.001 77.2839C606.021 75.7239 603.241 69.9239 601.101 69.9239C598.961 69.9239 593.961 69.2039 593.961 68.1439C593.961 67.0839 589.801 66.1439 590.981 65.0439C592.161 63.9439 593.721 66.3639 596.461 64.3239C599.201 62.2839 604.901 64.8039 607.401 64.3239C609.901 63.8439 606.321 59.2239 604.901 60.0439C603.481 60.8639 598.601 61.1239 598.241 58.6239C597.881 56.1239 602.881 58.6239 603.701 57.4439C604.521 56.2639 596.821 53.1639 595.701 55.6439C594.581 58.1239 590.241 57.3239 592.501 55.8839C594.761 54.4439 595.221 50.4239 594.981 48.4039C594.741 46.3839 603.081 46.2639 602.121 42.9239C601.161 39.5839 606.121 38.9239 608.781 38.9239C611.441 38.9239 608.661 35.3639 606.041 35.7239C603.421 36.0839 600.701 39.0439 599.381 37.8639C598.061 36.6839 602.481 34.5239 604.861 34.5239C607.241 34.5239 612.861 34.2839 614.961 33.1039C617.061 31.9239 611.401 30.8439 607.601 31.3239C603.801 31.8039 603.781 30.1239 609.501 30.0039C615.221 29.8839 614.241 28.7039 618.301 28.2239C622.361 27.7439 621.021 26.0839 623.521 25.9639C626.021 25.8439 632.561 23.1239 632.561 21.8039C632.561 20.4839 622.921 17.7439 618.521 17.7439ZM470.381 121.304C470.501 119.304 468.381 120.584 467.181 118.324C465.981 116.064 459.921 115.144 459.321 116.904C459.081 117.624 457.181 118.684 458.721 120.344C460.261 122.004 461.341 121.304 463.121 122.964C464.901 124.624 470.261 123.204 470.381 121.304Z" fill="#00A7E0" stroke="#002F57" stroke-width="0.75"/>
<path fill-rule="evenodd" clip-rule="evenodd" d="M180.282 246.064C179.122 244.804 176.082 245.084 175.642 243.924C175.202 242.764 172.422 238.564 170.902 238.664C169.065 238.931 167.195 238.518 165.642 237.504C163.862 236.164 162.702 236.064 161.462 236.864C160.222 237.664 162.802 237.844 162.702 238.744C162.602 239.644 163.502 240.164 164.582 239.984C165.662 239.804 166.282 241.984 167.342 242.124C168.402 242.264 168.762 243.924 170.022 243.924C171.282 243.924 171.542 245.344 172.162 246.144C172.782 246.944 174.162 246.144 174.162 247.044C174.162 247.944 175.602 248.404 175.962 249.304C178.056 249.706 180.207 249.706 182.302 249.304C182.32 248.727 182.463 248.161 182.722 247.644C183.402 246.504 181.442 247.304 180.282 246.064ZM177.242 104.364C180.442 105.064 180.742 110.744 182.942 110.744C184.382 110.744 183.302 108.964 185.622 108.964C187.942 108.964 187.402 107.704 189.622 107.884C191.842 108.064 193.622 107.344 193.622 104.864C193.622 102.384 195.242 101.464 197.382 100.864C199.522 100.264 197.562 97.6643 200.582 96.8643C205.031 95.5233 209.333 93.7341 213.422 91.5243C214.862 90.4443 211.642 89.0243 208.442 87.0643C205.242 85.1043 202.722 84.5643 200.222 86.1643C197.722 87.7643 199.702 84.3843 197.742 85.2843C195.782 86.1843 190.422 83.8443 189.742 82.9643C189.062 82.0843 179.402 84.9643 177.082 84.9643C174.762 84.9643 177.262 87.4643 178.862 88.7043C180.462 89.9443 174.862 93.8843 176.022 94.7043C177.182 95.5243 174.942 97.9243 172.442 100.704C169.942 103.484 174.022 103.644 177.242 104.364ZM266.422 118.984C267.482 117.744 271.942 121.484 272.122 118.804C272.302 116.124 267.122 114.804 264.982 113.464C262.842 112.124 261.962 112.744 258.562 110.244C255.162 107.744 259.462 106.504 256.962 104.544C254.462 102.584 253.582 97.2243 255.362 95.4443C257.142 93.6643 259.102 90.9843 255.902 89.7443C252.702 88.5043 247.502 90.8043 248.042 91.5243C248.582 92.2443 253.042 94.7243 253.042 95.8043C253.042 96.8843 248.942 92.7643 247.502 93.6643C246.062 94.5643 244.482 91.8843 243.222 93.6643C241.962 95.4443 244.842 101.664 245.902 103.464C246.962 105.264 244.842 105.244 243.402 105.604C241.962 105.964 241.802 100.604 240.382 98.6443C238.962 96.6843 233.242 94.3643 232.882 95.8043C232.522 97.2443 236.442 97.2243 235.922 99.1843C235.402 101.144 233.242 97.9443 231.282 99.5443C229.322 101.144 229.682 100.084 230.022 98.4643C230.362 96.8443 227.182 95.0843 223.602 95.4443C220.022 95.8043 222.002 98.3043 220.942 99.1843C219.882 100.064 214.522 98.6443 217.902 97.9443C221.282 97.2443 219.902 95.2643 218.622 93.3043C217.342 91.3443 213.982 93.6643 208.442 95.6243C202.902 97.5843 200.442 99.7243 201.142 99.9043C201.842 100.084 202.022 100.964 199.882 102.744C197.742 104.524 199.882 106.144 201.882 106.144C203.882 106.144 202.102 107.704 203.482 108.144C204.862 108.584 211.142 105.644 212.922 106.904C214.702 108.164 202.402 108.904 202.402 110.904C202.402 112.904 209.182 114.284 214.182 113.404C219.182 112.524 227.922 114.104 227.922 115.404C227.922 116.704 221.922 116.284 217.562 116.104C213.202 115.924 205.442 117.364 205.802 118.784C206.162 120.204 206.682 120.384 211.322 122.524C215.962 124.664 220.782 121.464 220.602 124.524C220.422 127.584 223.102 128.284 229.342 128.524C235.582 128.764 238.442 125.664 241.462 125.844C244.482 126.024 245.922 125.484 247.342 123.344C248.762 121.204 250.022 122.444 250.382 123.524C250.742 124.604 254.662 124.404 255.562 125.304C257.822 127.584 265.362 126.904 268.222 125.484C271.082 124.064 266.962 120.124 265.542 121.924C264.122 123.724 262.862 122.624 262.502 121.744C262.142 120.864 265.342 120.224 266.422 118.984ZM198.742 75.1043C201.962 75.4643 205.162 72.6043 204.982 71.1043C204.802 69.6043 197.042 74.9443 198.742 75.1043ZM183.942 70.1243C185.182 70.6443 183.942 73.1443 185.362 72.4443C186.782 71.7443 187.142 71.5443 188.222 71.9043C190.222 72.5443 190.542 70.8243 191.422 69.9043C192.302 68.9843 191.962 73.1043 194.282 73.1043C196.282 73.1043 195.882 68.8243 197.682 70.0843C199.482 71.3443 199.982 69.5443 200.342 68.2843C200.702 67.0243 200.702 64.9043 202.662 64.5443C204.622 64.1843 203.022 66.5443 203.922 68.1243C205.222 70.4443 207.482 68.2843 207.662 67.2243C207.842 66.1643 211.042 66.8643 210.862 65.6243C210.682 64.3843 211.762 64.0043 210.862 62.5843C209.962 61.1643 212.302 61.5243 213.362 60.4443C214.422 59.3643 211.942 60.2643 210.162 58.6643C208.382 57.0643 207.662 59.2043 207.662 60.2643C207.662 61.3243 204.262 60.4443 202.302 59.7243C200.342 59.0043 197.842 62.0443 195.002 63.4843C192.162 64.9243 191.962 67.4843 189.282 67.2243C186.602 66.9643 182.602 69.5843 183.842 70.1243H183.942ZM211.762 69.2243C209.262 69.4043 209.442 71.9043 212.302 71.9043C215.162 71.9043 216.042 72.7843 211.942 72.6043C207.842 72.4243 206.062 76.0043 208.902 75.2843C211.742 74.5643 215.142 74.5843 212.902 75.2843C210.662 75.9843 204.902 76.4843 205.782 77.6043C206.302 78.3243 208.622 78.1443 210.942 79.0443C213.262 79.9443 214.702 80.4643 216.482 78.5043C218.262 76.5443 220.482 74.5043 219.682 77.2443C218.882 79.9843 222.542 77.9643 227.362 77.7843C232.182 77.6043 226.462 80.6443 221.362 81.0043C216.262 81.3643 217.362 83.8443 221.202 84.7443C225.042 85.6443 233.502 82.2443 235.462 80.2843C237.422 78.3243 239.202 81.3443 241.162 79.9243C243.122 78.5043 246.882 80.1043 250.262 79.3843C253.642 78.6643 254.262 72.2643 251.682 71.1843C249.102 70.1043 249.202 72.4443 247.222 72.7843C245.242 73.1243 244.302 70.7443 242.742 69.0443C241.182 67.3443 242.202 64.4043 239.882 64.7643C237.562 65.1243 232.562 68.8643 235.602 69.2243C238.642 69.5843 237.602 71.2243 235.962 71.9043C234.322 72.5843 239.702 73.9043 238.982 74.9243C238.262 75.9443 230.062 75.1043 229.722 73.3243C229.382 71.5443 222.942 68.3243 220.262 69.0443C217.582 69.7643 218.662 66.9043 215.982 66.7243C213.302 66.5443 214.162 69.0443 211.662 69.2243H211.762ZM221.042 56.3843C221.922 54.2443 215.042 54.6043 215.682 55.3043C216.842 56.9243 220.042 58.5243 220.942 56.3843H221.042ZM235.842 55.4843C238.162 55.1443 237.082 53.3443 233.342 53.8843C229.602 54.4243 223.182 54.4243 223.182 57.1043C223.182 59.2443 224.422 60.3043 228.522 60.6643C232.622 61.0243 236.202 57.1043 234.242 57.1043C232.282 57.1043 233.422 55.8443 235.742 55.4843H235.842ZM227.102 52.1043C228.882 52.8243 230.662 50.5043 231.922 51.5643C233.182 52.6243 238.702 53.5643 238.702 50.6843C238.702 47.8043 231.742 47.4643 229.962 48.5443C228.182 49.6243 219.962 49.9643 222.282 51.7443C223.602 52.8443 225.222 51.3843 227.002 52.1043H227.102ZM256.742 46.5843C258.882 45.1443 262.742 47.4643 262.102 49.0643C261.462 50.6643 255.202 48.7443 255.682 50.1443C255.862 50.6843 256.562 52.8243 260.842 51.5643C264.514 50.3284 268.564 51.0854 271.542 53.5643C274.402 55.8843 277.082 56.7843 279.042 54.4643C281.002 52.1443 276.542 51.7843 277.422 50.0043C278.302 48.2243 274.582 47.1443 272.622 47.1443C270.662 47.1443 269.942 43.5843 268.342 44.3043C266.742 45.0243 265.662 46.3043 265.662 43.9443C265.662 41.5843 256.382 41.4443 254.062 42.3443C251.742 43.2443 254.742 48.0043 256.742 46.5843ZM257.982 61.5643C259.422 59.7643 252.282 54.0643 251.982 56.7443C251.682 59.4243 256.522 63.4443 258.022 61.5643H257.982ZM281.182 38.1843C282.422 36.0443 273.662 34.3643 275.822 36.1843C277.122 37.3043 279.962 40.3243 281.222 38.1843H281.182ZM261.062 78.7443C262.302 77.3043 258.382 74.2843 257.322 76.7443C256.262 79.2043 259.802 80.1243 261.062 78.7443ZM281.222 66.2443C281.042 68.0443 276.942 65.9043 273.722 64.6443C270.502 63.3843 272.482 67.1443 274.982 69.2843C277.482 71.4243 273.722 70.3643 270.342 68.0443C266.962 65.7243 267.302 69.6443 268.902 70.8843C270.502 72.1243 268.562 73.9243 266.422 71.0643C264.282 68.2043 263.202 65.1843 259.822 65.0643C256.442 64.9443 257.962 68.3643 259.282 70.0643C261.062 72.3843 262.842 72.9043 265.702 74.5243C268.562 76.1443 273.182 73.8043 275.322 74.3443C277.462 74.8843 273.022 77.5443 274.442 79.3243C275.862 81.1043 279.782 79.8643 282.822 79.6843C285.862 79.5043 284.422 77.6843 286.202 76.4843C287.982 75.2843 284.422 75.4043 285.862 72.3843C287.302 69.3643 281.402 64.4043 281.222 66.1843V66.2443ZM288.742 55.6643C291.179 55.7124 293.603 55.2914 295.882 54.4243C298.202 53.5243 294.642 53.5243 296.242 51.3843C297.842 49.2443 292.242 49.0643 291.962 49.7843C291.682 50.5043 284.642 45.5043 283.582 47.1043C282.522 48.7043 286.022 55.6643 288.742 55.6643ZM303.202 56.5643C302.842 55.4843 289.322 57.1243 291.422 58.7043C294.942 61.3843 303.502 57.6243 303.162 56.5643H303.202ZM301.202 82.5643C304.422 82.3843 302.822 78.5643 299.202 75.7843C295.582 73.0043 287.622 78.6043 289.042 79.7843C292.84 81.5811 296.98 82.5427 301.182 82.6043L301.202 82.5643ZM278.362 107.564C282.362 110.244 281.042 105.424 285.502 105.564C289.962 105.704 290.142 98.4243 290.842 95.7643C291.542 93.1043 287.282 93.2643 288.342 95.2243C289.402 97.1843 288.182 99.2243 287.822 96.8243C287.462 94.4243 284.062 96.6443 282.822 94.8243C281.582 93.0043 286.822 92.8243 288.002 90.5443C289.182 88.2643 284.002 88.5443 285.142 86.8043C286.282 85.0643 277.302 86.9843 279.962 88.0443C282.622 89.1043 280.142 90.5443 277.642 88.7643C275.142 86.9843 268.242 89.9643 270.702 91.9643C272.702 93.5843 278.542 90.9043 275.162 95.5443C271.782 100.184 270.342 94.2843 267.162 94.8243C263.982 95.3643 265.382 99.2843 270.202 100.704C275.022 102.124 274.442 104.904 278.362 107.564ZM307.442 79.0443C308.682 82.6043 310.102 80.1043 312.062 81.5243C314.022 82.9443 317.062 83.8443 318.662 82.4243C320.262 81.0043 320.982 79.9243 321.522 81.1643C322.402 83.1643 326.342 83.4843 334.902 83.6643C343.462 83.8443 341.322 80.1043 343.822 81.5243C346.322 82.9443 352.022 82.9643 354.522 82.4243C357.022 81.8843 358.262 77.9643 358.082 76.0043C357.902 74.0443 338.822 72.4443 335.442 74.4043C332.062 76.3643 326.702 73.5043 324.022 74.9243C321.342 76.3443 322.242 73.1443 317.422 72.9243C312.602 72.7043 317.782 70.2643 318.662 69.1843C319.542 68.1043 311.362 65.1843 307.962 65.9843C304.562 66.7843 302.622 64.9043 299.402 63.4843C296.182 62.0643 287.402 62.3843 289.242 64.9043C290.482 66.6843 300.842 70.4243 301.902 68.6443C302.962 66.8643 305.642 70.7443 307.262 72.7443C308.882 74.7443 306.182 75.4643 307.442 79.0443ZM316.522 57.9843C313.322 56.3843 309.282 59.7843 312.522 61.0243C315.462 62.0843 319.742 59.6043 316.522 57.9843ZM290.842 37.9843C293.482 39.2843 291.922 41.0043 294.842 42.2643C297.762 43.5243 305.902 40.6443 306.622 42.6043C307.342 44.5643 298.242 44.7443 299.482 46.0043C300.722 47.2643 305.902 49.2043 305.202 50.2843C304.502 51.3643 313.762 54.3843 314.642 52.9643C315.522 51.5443 318.042 51.8843 320.362 52.7843C322.682 53.6843 322.842 47.2443 324.362 48.3243C325.882 49.4043 325.782 46.0043 328.462 44.9243C331.142 43.8443 334.982 43.8443 335.242 42.6043C335.422 41.7243 334.522 40.4643 331.242 40.8243C327.962 41.1843 325.902 39.9443 327.242 38.1443C328.582 36.3443 323.682 35.8243 325.462 34.4043C327.242 32.9843 322.082 31.5643 322.602 33.7043C323.122 35.8443 319.402 33.8643 318.862 31.9043C318.322 29.9443 311.022 29.2443 306.202 24.9643C301.382 20.6843 296.402 23.5243 299.242 24.0643C302.082 24.6043 301.922 26.0643 299.602 25.8443C297.282 25.6243 293.182 26.0243 296.922 27.4443C300.662 28.8643 296.582 29.4443 293.542 29.4443C290.502 29.4443 290.322 33.4443 294.262 33.9043C298.202 34.3643 295.322 36.7643 292.122 35.9043C288.922 35.0443 288.002 36.5843 290.842 38.0243V37.9843ZM312.422 20.3243C314.922 18.7043 316.882 19.7843 314.742 20.8443C312.602 21.9043 313.322 22.6443 316.342 22.4643C319.362 22.2843 315.102 23.3443 315.102 25.1243C315.102 26.9043 318.662 25.8443 318.842 27.6243C319.022 29.4043 326.702 30.1243 329.022 27.9843C331.342 25.8443 330.442 28.5243 330.262 29.9843C330.082 31.4443 341.142 32.6643 341.682 30.8843C342.222 29.1043 343.822 29.8043 345.962 30.3443C348.102 30.8843 358.622 28.3443 358.802 26.2443C358.982 24.1443 362.182 27.3043 358.802 29.6243C355.422 31.9443 348.622 31.6243 345.602 32.4843C342.582 33.3443 347.602 35.5243 350.602 37.8443C353.602 40.1643 346.602 38.9043 343.822 35.8443C341.042 32.7843 334.542 32.8243 331.162 33.0043C327.782 33.1843 328.842 39.4243 331.322 39.4243C333.802 39.4243 336.322 40.3043 338.822 44.2443C341.322 48.1843 346.662 47.2643 346.662 49.0443C346.662 50.8243 339.722 47.6243 335.782 46.9043C331.842 46.1843 325.622 48.7043 325.442 51.5443C325.262 54.3843 331.162 54.0443 335.082 51.7243C339.002 49.4043 336.142 52.4443 334.182 54.2243C332.222 56.0043 338.822 57.4243 338.822 59.5843C338.822 61.7443 334.002 61.0043 333.482 59.0443C332.962 57.0843 331.162 55.0443 326.522 55.4643C321.882 55.8843 323.122 59.0443 325.982 59.4643C328.842 59.8843 329.022 61.9443 325.802 61.9443C322.582 61.9443 315.342 63.9443 317.602 66.0643C319.862 68.1843 329.182 66.0643 330.802 67.4843C332.422 68.9043 336.802 69.4843 337.922 67.8443C339.042 66.2043 342.562 66.9443 346.142 66.9443C349.722 66.9443 350.602 67.4843 352.142 68.9443C353.682 70.4043 356.602 69.8443 358.562 68.4043C359.73 67.2364 361.393 66.7072 363.022 66.9843C365.522 66.9843 366.042 65.3843 364.802 63.4243C363.562 61.4643 360.342 64.8443 359.982 63.4243C359.542 61.6643 356.602 61.1043 351.602 61.8243C346.602 62.5443 348.742 58.6043 351.782 59.5043C355.264 60.2603 358.879 60.1366 362.302 59.1443C365.702 58.2443 363.022 56.6443 363.022 55.1443C363.022 53.6443 367.302 54.6043 370.502 54.6043C373.702 54.6043 378.362 49.4243 378.502 46.4043C378.642 43.3843 371.362 44.0843 367.802 44.0843C364.242 44.0843 370.102 41.4043 376.882 41.7643C383.662 42.1243 380.642 39.0843 381.882 38.0243C383.122 36.9643 386.342 39.2643 389.722 38.5443C393.102 37.8243 390.802 34.9843 393.122 34.9843C394.762 34.9843 398.462 32.4843 405.782 28.3843C413.102 24.2843 418.802 25.0043 419.162 22.6843C419.522 20.3643 408.982 22.6843 407.162 21.9643C405.342 21.2443 414.482 19.2843 416.622 19.8243C418.762 20.3643 421.622 19.8243 428.922 16.2643C436.222 12.7043 433.022 11.8043 430.002 12.2643C426.982 12.7243 423.582 11.7443 423.762 9.78429C423.942 7.82429 419.302 9.60429 419.122 8.52429C418.942 7.44429 414.662 7.98429 410.022 9.78429C405.382 11.5843 409.662 7.98429 411.622 7.28429C413.582 6.58429 399.862 7.28429 397.622 5.68429C395.382 4.08429 392.622 8.34429 390.482 6.20429C388.342 4.06429 382.822 5.84429 383.522 7.46429C384.222 9.08429 382.642 9.06429 380.502 7.28429C378.362 5.50429 374.262 7.46429 370.502 6.92429C366.742 6.38429 368.362 9.94429 364.262 8.16429C360.162 6.38429 355.702 7.28429 356.962 7.80429C358.222 8.32429 356.602 9.42429 354.822 8.88429C353.042 8.34429 351.422 9.06429 352.322 10.8843C353.222 12.7043 345.722 10.3443 345.722 12.3043C345.722 14.2643 343.042 15.3443 340.902 13.5643C338.762 11.7843 331.982 11.2443 333.942 12.8443C335.902 14.4443 327.942 13.5643 329.942 15.1643C331.942 16.7643 327.262 18.0243 327.262 17.1643C327.262 16.3043 322.942 14.7443 321.162 16.2643C319.382 17.7843 318.842 19.8243 317.962 18.7443C317.082 17.6643 313.142 18.0443 309.402 19.4643C305.662 20.8843 309.922 21.9643 312.422 20.3643V20.3243ZM357.362 174.324C358.622 174.144 361.122 169.684 357.902 169.864C354.682 170.044 355.422 174.544 357.362 174.264V174.324ZM341.682 170.324C344.522 172.104 348.802 167.284 348.462 165.864C348.122 164.444 338.222 168.204 341.682 170.344V170.324ZM354.522 160.524C354.882 158.744 348.622 158.024 348.982 156.064C349.342 154.104 343.102 152.484 341.142 151.424C339.182 150.364 336.142 149.824 336.142 147.684C336.142 145.544 331.862 147.144 331.682 150.344C331.502 153.544 329.682 152.844 330.622 155.884C331.562 158.924 326.622 159.624 327.222 161.224C327.822 162.824 330.082 161.044 332.222 161.044C334.362 161.044 331.642 164.044 334.362 164.264C337.02 163.941 339.45 162.6 341.142 160.524C342.042 159.084 343.822 158.524 346.322 160.344C348.822 162.164 354.162 162.324 354.522 160.544V160.524ZM412.842 144.824C414.982 145.004 415.342 147.684 418.722 150.524C422.102 153.364 422.462 151.424 423.002 149.464C423.542 147.504 427.282 149.104 427.102 147.144C426.922 145.184 430.142 142.864 432.282 141.964C434.422 141.064 430.482 138.944 427.642 139.124C426.761 139.305 425.847 139.059 425.177 138.46C424.507 137.86 424.16 136.979 424.242 136.084C424.242 134.844 418.902 131.804 417.122 132.344C415.342 132.884 412.302 130.024 409.982 129.844C407.662 129.664 404.282 127.844 404.642 125.384C405.002 122.924 409.262 126.104 410.162 124.144C411.062 122.184 405.702 123.244 405.522 121.824C405.342 120.404 406.782 120.924 407.842 120.024C408.902 119.124 406.942 117.364 405.702 116.644C404.462 115.924 404.102 118.064 402.842 118.064C401.582 118.064 402.662 116.064 403.562 114.864C404.462 113.664 399.562 112.184 397.322 112.864C395.082 113.544 394.462 112.324 394.462 110.864C394.462 109.404 390.722 110.864 389.302 111.924C387.882 112.984 386.082 110.864 387.862 110.684C389.642 110.504 391.862 109.064 391.262 107.464C390.662 105.864 386.082 105.684 385.262 107.644C384.442 109.604 380.642 105.504 380.642 103.904C380.642 102.304 374.922 103.724 375.642 101.044C376.362 98.3643 369.042 97.6643 367.082 97.6643C365.122 97.6643 362.262 99.2643 362.622 101.044C362.982 102.824 360.482 102.124 360.122 100.164C359.762 98.2043 354.962 102.304 353.522 102.304C352.082 102.304 354.422 97.1243 353.702 95.5243C352.618 93.9933 351.629 92.3969 350.742 90.7443C349.682 88.0643 344.322 89.1443 342.902 90.7443C341.482 92.3443 336.902 91.6443 334.342 94.1243C331.782 96.6043 334.522 99.1243 335.602 100.124C336.682 101.124 331.842 102.444 333.462 103.864C335.082 105.284 337.462 104.584 337.742 106.904C338.022 109.224 331.842 106.184 330.962 104.224C330.082 102.264 331.302 100.484 330.062 99.0443C328.822 97.6043 329.882 95.8443 332.202 93.3443C334.522 90.8443 336.202 91.2043 336.202 89.7843C336.202 88.3643 326.202 88.3443 320.342 93.7843C316.673 97.351 315.286 102.659 316.742 107.564C317.102 109.004 322.282 108.284 325.302 109.164C328.322 110.044 326.742 111.324 324.422 110.964C322.102 110.604 318.182 109.884 318.422 111.484C318.662 113.084 323.402 116.124 326.262 115.484C329.122 114.844 329.122 114.764 330.262 116.364C331.402 117.964 334.902 117.444 338.262 117.624C341.261 117.997 344.239 118.532 347.182 119.224C348.752 119.309 350.271 118.649 351.282 117.444C351.822 116.544 358.422 118.864 360.382 118.684C362.342 118.504 361.102 116.684 359.842 116.184C358.582 115.684 359.142 113.344 360.742 114.184C362.342 115.024 365.022 115.624 365.562 117.224C366.102 118.824 367.562 117.924 367.702 119.224C367.842 120.524 373.582 121.904 373.702 123.224C373.822 124.544 368.162 125.364 369.702 126.604C371.242 127.844 373.802 125.004 375.942 124.824C378.082 124.644 378.082 129.464 379.682 128.824C381.862 127.864 383.682 129.724 385.682 132.824C387.682 135.924 385.502 138.704 385.682 139.764C385.862 140.824 389.962 140.484 392.282 139.244C394.602 138.004 396.742 140.664 398.522 142.264C400.302 143.864 391.922 146.544 392.642 145.124C393.362 143.704 387.642 139.424 382.482 141.384C377.322 143.344 380.862 146.364 381.402 148.144C381.942 149.924 376.762 151.724 371.962 150.144C367.162 148.564 368.562 151.204 366.602 151.204C364.642 151.204 362.602 154.244 364.282 156.204C365.962 158.164 369.982 156.384 373.202 156.564C376.422 156.744 376.762 157.624 377.202 155.844C377.642 154.064 380.942 154.944 383.202 155.484C385.462 156.024 384.982 159.224 387.842 159.484C390.702 159.744 388.382 162.704 390.162 164.664C391.942 166.624 397.661 165.544 399.802 167.684C401.942 169.824 411.002 174.104 412.282 172.504C413.562 170.904 404.442 162.504 401.762 161.804C399.082 161.104 404.442 160.204 407.762 162.884C411.082 165.564 416.142 166.884 418.642 163.584C421.142 160.284 416.742 161.244 416.742 158.924C416.742 156.604 415.142 153.404 412.742 153.404C410.342 153.404 403.822 148.404 406.142 147.404C408.462 146.404 405.422 144.904 407.202 142.944C408.982 140.984 410.742 144.744 412.842 144.844V144.824ZM375.202 136.264C377.342 135.904 376.942 132.604 375.742 130.904C374.842 129.664 372.522 129.484 370.562 129.664C368.602 129.844 365.222 132.864 367.002 135.904C368.782 138.944 373.062 136.744 375.202 136.284V136.264ZM352.922 89.9043C351.842 92.2243 355.222 92.2243 355.402 94.9043C355.582 97.5843 358.982 98.4643 361.402 96.9043C363.822 95.3443 371.022 97.3843 371.022 95.3043C371.022 93.2243 363.542 89.7843 360.862 90.3043C358.182 90.8243 353.982 87.6043 352.922 89.9043ZM419.782 241.684C420.142 243.124 430.482 247.384 430.842 245.444C431.202 243.504 419.482 240.464 419.782 241.684ZM465.042 252.324C464.322 253.644 463.242 251.384 464.802 250.184C466.362 248.984 464.562 248.524 463.122 249.244C461.682 249.964 462.062 246.024 463.362 245.244C464.662 244.464 460.162 243.104 460.162 244.424C460.162 245.744 456.942 244.904 456.582 243.704C456.222 242.504 453.982 242.164 454.802 241.324C455.622 240.484 452.082 240.024 451.722 241.444C451.362 242.864 450.282 240.504 452.082 238.604C453.882 236.704 453.262 235.024 454.922 234.084C456.582 233.144 454.802 232.084 452.922 232.764C451.042 233.444 446.382 240.024 446.382 241.804C446.382 243.584 446.262 245.804 444.602 245.604C442.942 245.404 441.042 247.044 442.342 247.984C443.642 248.924 438.882 251.644 441.162 252.864C442.702 253.704 445.162 252.504 447.342 252.744C449.293 253.227 451.356 252.879 453.042 251.784C454.822 250.484 454.822 252.984 456.722 252.744C458.622 252.504 455.662 254.284 455.782 255.604C455.902 256.924 457.782 254.884 459.222 254.164C460.662 253.444 462.442 254.164 461.722 255.364C461.002 256.564 465.722 257.744 466.722 255.824C467.722 253.904 465.742 251.024 465.042 252.324ZM142.742 219.564C139.522 221.264 147.242 229.404 148.742 228.384C149.842 227.684 146.742 224.264 146.742 222.164C146.742 220.064 145.882 217.844 142.742 219.564ZM436.622 260.244C435.362 260.424 436.342 258.444 436.622 257.464C436.902 256.484 433.942 257.924 433.862 259.084C433.782 260.244 431.862 260.684 431.862 261.404C431.862 263.404 431.602 262.384 430.182 263.084C428.762 263.784 423.222 263.084 423.042 261.844C422.862 260.604 418.862 259.964 418.682 258.264C418.502 256.564 416.542 256.044 418.142 254.264C419.742 252.484 417.862 251.504 416.362 252.924C414.862 254.344 413.942 252.124 416.002 251.324C418.062 250.524 421.882 249.724 420.002 246.164C418.122 242.604 405.742 247.224 402.622 249.004C399.502 250.784 395.562 256.504 393.882 256.504C392.202 256.504 396.822 253.464 397.522 252.304C398.222 251.144 397.362 249.984 398.342 250.444C399.322 250.904 402.082 246.604 403.942 245.184C405.802 243.764 407.942 245.184 408.142 243.924C408.342 242.664 409.302 241.924 411.082 240.364C412.862 238.804 434.182 239.024 436.242 239.104C438.302 239.184 442.242 236.444 443.462 234.644C444.682 232.844 446.122 232.864 448.982 233.044C451.842 233.224 453.182 230.644 454.602 229.664C456.022 228.684 455.502 228.224 454.242 227.964C452.982 227.704 451.842 226.904 453.082 226.804C454.322 226.704 454.962 226.004 455.502 224.404C456.042 222.804 455.042 223.504 453.362 221.284C451.682 219.064 450.762 221.984 449.082 221.804C447.402 221.624 450.242 219.504 448.802 218.604C447.362 217.704 444.802 218.344 442.562 220.124C440.322 221.904 440.562 220.124 438.722 221.804C436.882 223.484 436.862 220.924 437.742 220.204C438.622 219.484 439.262 220.204 440.062 219.224C440.862 218.244 441.662 219.224 443.722 217.884C445.782 216.544 447.562 217.184 448.182 216.204C448.802 215.224 447.202 213.884 445.242 214.324C443.282 214.764 441.942 211.644 440.682 212.544C439.422 213.444 439.702 211.204 438.282 212.084C436.862 212.964 436.062 211.824 435.422 210.084C434.782 208.344 430.962 205.624 428.642 204.924C426.322 204.224 427.842 202.924 429.102 203.844C430.362 204.764 431.782 202.964 432.302 202.064C432.822 201.164 431.422 200.364 430.702 200.284C429.982 200.204 429.982 199.024 430.162 198.144C430.342 197.264 427.662 196.144 427.582 195.204C427.502 194.264 425.982 193.684 426.062 192.884C426.142 192.084 424.542 190.884 424.542 189.844C424.542 188.804 421.882 186.644 421.782 185.384C421.682 184.124 420.262 183.244 419.782 181.724C419.302 180.204 418.522 180.924 417.982 183.064C417.442 185.204 415.582 185.064 416.122 185.824C417.222 187.304 416.382 187.344 415.582 188.244C414.782 189.144 416.122 190.464 414.782 190.464C413.442 190.464 414.062 193.244 413.362 191.984C412.662 190.724 410.942 191.104 410.942 192.344C410.942 193.584 408.102 194.744 406.942 194.664C405.782 194.584 405.782 192.164 404.802 192.884C403.822 193.604 403.982 190.884 402.482 190.884C400.982 190.884 399.882 190.884 400.342 189.444C400.802 188.004 397.742 187.444 398.722 186.684C399.702 185.924 398.462 184.464 398.282 182.144C398.102 179.824 399.622 179.644 399.622 178.744C399.622 177.844 398.542 177.864 397.482 178.564C396.422 179.264 396.402 177.584 395.242 177.684C394.082 177.784 390.622 177.684 390.442 175.984C390.262 174.284 389.102 175.184 388.562 173.664C388.022 172.144 386.562 173.304 386.562 172.244C386.562 171.184 385.942 170.724 384.862 170.644C383.782 170.564 383.442 169.384 382.022 169.204C380.596 169.306 379.22 169.767 378.022 170.544C377.222 170.904 375.162 169.304 374.362 169.924C373.562 170.544 373.382 169.484 371.162 168.844C368.942 168.204 365.982 168.044 365.802 168.844C365.622 169.644 363.802 169.924 364.102 171.784C364.402 173.644 366.262 173.304 366.702 174.564C367.142 175.824 365.802 175.364 365.722 176.564C365.642 177.764 364.462 177.624 364.462 178.424C364.462 179.224 365.262 179.064 365.722 180.664C366.182 182.264 367.062 182.184 367.322 184.324C367.582 186.464 366.602 186.004 365.722 186.324C364.842 186.644 365.722 187.664 364.562 189.084C363.402 190.504 362.242 192.024 363.222 192.924C364.202 193.824 367.862 195.324 369.222 197.724C370.447 200.502 370.762 203.596 370.122 206.564C369.662 209.244 366.642 209.864 364.402 212.184C362.926 213.666 360.861 214.401 358.782 214.184C357.722 214.184 358.342 216.424 359.862 218.184C361.382 219.944 360.122 220.404 360.922 222.184C361.722 223.964 360.922 225.404 362.082 227.004C363.242 228.604 362.542 229.244 361.202 230.404C359.862 231.564 361.742 230.924 361.822 232.404C361.902 233.884 361.202 233.024 360.042 232.224C358.882 231.424 357.802 233.744 357.802 234.724C357.802 235.704 355.042 233.384 354.422 233.464C353.802 233.544 354.602 231.964 353.002 230.704C351.402 229.444 350.142 229.204 350.142 227.944C350.142 226.684 347.382 225.804 347.382 224.384C347.382 222.964 347.742 219.304 347.102 218.224C346.669 217.152 346.845 215.931 347.562 215.024C348.082 214.024 346.922 212.524 345.322 212.524C343.329 212.298 341.327 212.178 339.322 212.164C337.871 212.464 336.361 212.176 335.122 211.364C333.488 210.096 331.608 209.183 329.602 208.684C327.796 208.421 326.215 207.335 325.322 205.744C325.062 204.944 322.282 204.324 321.662 203.504C320.379 202.648 318.834 202.272 317.302 202.444C316.222 202.624 313.542 200.204 311.942 200.304C309.904 200.763 307.9 201.358 305.942 202.084C305.322 202.184 306.042 200.744 306.482 200.084C306.922 199.424 305.142 196.784 304.702 195.004C304.262 193.224 303.622 191.244 301.762 191.524C300.199 191.635 298.64 191.258 297.302 190.444C296.762 190.084 296.682 185.004 297.122 182.864C297.562 180.724 299.882 177.524 299.882 176.184C299.882 174.844 301.402 174.184 302.742 173.864C304.082 173.544 303.002 170.924 304.342 170.744C305.682 170.564 305.762 170.024 306.042 168.964C306.322 167.904 307.922 168.604 307.022 167.704C306.122 166.804 306.842 166.544 308.902 166.544C310.962 166.544 313.982 165.844 313.522 163.784C313.062 161.724 307.742 163.244 307.742 161.564C307.742 159.884 300.742 159.744 301.102 158.744C301.462 157.744 307.882 159.444 310.202 160.344C311.711 161.025 313.381 161.268 315.022 161.044C316.882 161.044 315.642 158.564 316.002 157.584C316.362 156.604 320.002 159.084 322.002 158.564C324.002 158.044 326.002 153.824 327.722 152.564C329.442 151.304 327.902 150.344 324.602 150.564C322.06 150.789 319.54 149.949 317.642 148.244C315.862 146.904 316.042 145.844 317.902 146.024C319.762 146.204 324.242 149.864 325.902 150.024C327.562 150.184 330.522 146.724 331.902 145.664C333.282 144.604 330.562 144.144 329.582 143.344C328.602 142.544 331.262 142.004 332.702 142.004C334.142 142.004 334.702 143.244 335.282 143.864C335.862 144.484 338.322 143.424 339.562 143.424C340.802 143.424 339.382 141.424 337.342 140.564C335.302 139.704 337.342 138.264 338.042 139.504C338.742 140.744 340.042 140.484 340.822 141.904C341.862 143.904 342.502 142.624 344.282 141.904C345.73 141.334 346.995 140.38 347.942 139.144C348.922 138.064 349.102 139.304 350.262 137.624C351.422 135.944 349.722 134.324 348.262 133.244C346.802 132.164 348.362 131.104 346.922 130.404C345.482 129.704 345.242 128.404 347.022 128.704C348.526 129.154 350.148 128.57 351.022 127.264C351.822 126.024 348.362 125.764 349.962 124.864C351.562 123.964 350.222 123.084 348.622 123.084C347.022 123.084 345.682 122.284 345.582 120.944C345.482 119.604 342.742 120.504 341.042 119.684C338.984 119.159 336.844 119.044 334.742 119.344C333.862 119.344 333.762 123.084 335.102 123.184C336.442 123.284 337.522 124.684 336.362 125.184C335.202 125.684 336.542 127.044 335.642 126.964C334.742 126.884 333.322 126.424 333.062 128.744C332.802 131.064 332.602 131.944 331.062 132.744C329.522 133.544 330.702 130.144 329.262 130.244C327.822 130.344 327.662 133.084 328.742 133.364C329.822 133.644 329.982 134.524 330.242 135.864C330.502 137.204 328.242 136.204 327.402 137.864C326.562 139.524 326.422 137.144 325.162 136.084C323.902 135.024 322.402 133.224 322.502 131.884C322.485 131.425 322.654 130.978 322.97 130.643C323.285 130.309 323.722 130.115 324.182 130.104C325.162 129.924 324.182 129.024 324.182 127.424C324.182 125.824 322.922 126.364 321.502 124.664C320.082 122.964 318.562 122.964 317.762 123.764C316.962 124.564 317.482 126.084 316.242 126.624C315.002 127.164 315.522 129.664 314.462 129.824C313.402 129.984 314.022 125.464 313.122 125.024C312.222 124.584 312.322 123.504 313.662 123.324C315.002 123.144 315.802 121.724 314.642 121.724C313.23 121.403 311.879 120.856 310.642 120.104C309.842 119.764 308.502 121.624 307.622 120.924C306.742 120.224 307.622 118.424 307.782 117.444C307.942 116.464 309.222 117.884 310.102 116.644C310.982 115.404 307.622 115.384 307.622 114.044C307.622 112.704 304.942 112.364 304.042 111.904C303.142 111.444 304.662 109.224 304.222 108.344C303.782 107.464 300.482 104.504 299.062 104.784C297.642 105.064 297.262 102.904 298.062 102.984C298.862 103.064 299.502 102.544 301.022 100.844C302.542 99.1443 302.702 98.6243 301.642 98.2643C300.582 97.9043 300.042 96.8443 301.902 96.9243C303.762 97.0043 307.082 98.2643 308.142 97.4643C310.248 94.9279 312.186 92.2554 313.942 89.4643C315.282 87.6043 312.962 87.4643 309.762 87.6843C306.562 87.9043 305.762 86.4443 303.162 86.2643C300.562 86.0843 295.482 86.7843 294.762 87.6043C294.042 88.4243 296.102 89.1043 295.842 90.0043C295.582 90.9043 293.962 89.3843 293.262 89.7443C292.562 90.1043 293.522 91.2443 293.262 94.3643C292.886 95.9867 293.459 97.682 294.742 98.7443C295.642 99.9043 295.462 101.424 295.462 103.384C295.462 105.344 293.582 105.264 292.962 105.704C292.342 106.144 294.582 106.864 294.222 108.104C293.862 109.344 291.982 107.404 290.922 107.764C289.862 108.124 288.922 111.144 290.122 112.124C291.322 113.104 291.722 112.924 290.822 114.124C289.922 115.324 288.962 116.984 291.102 118.684C293.242 120.384 297.102 120.184 299.202 121.524C301.302 122.864 298.322 122.064 299.202 123.524C300.082 124.984 297.862 125.524 297.962 126.724C298.062 127.924 298.842 127.264 299.962 125.304C301.082 123.344 301.822 125.844 301.742 127.524C301.662 129.204 300.142 128.244 298.982 129.944C298.247 131.415 296.528 132.103 294.982 131.544C293.302 131.184 294.282 133.944 294.982 135.544C295.682 137.144 294.802 137.544 292.842 137.064C290.882 136.584 289.722 135.284 290.702 133.764C291.682 132.244 292.402 130.464 291.242 130.644C290.082 130.824 287.402 130.644 286.602 129.304C285.802 127.964 287.142 128.604 289.542 128.864C291.942 129.124 289.902 127.264 291.682 127.264C293.462 127.264 294.802 128.244 296.322 126.904C297.842 125.564 295.342 122.904 294.102 123.424C292.862 123.944 290.882 124.404 290.882 123.164C290.882 121.924 293.022 122.804 294.182 122.524C295.342 122.244 293.562 120.664 291.782 121.104C290.24 121.786 288.435 121.39 287.322 120.124C285.902 118.604 283.322 117.724 282.682 121.184C282.042 124.644 279.562 122.804 278.682 123.964C277.802 125.124 279.842 125.964 282.242 125.964C284.642 125.964 286.442 128.284 285.282 128.284C284.122 128.284 284.662 129.984 283.402 129.364C282.142 128.744 280.902 129.364 281.802 130.424C282.702 131.484 281.442 131.944 281.542 133.004C281.642 134.064 279.662 133.004 277.782 133.004C275.138 133.013 272.506 133.342 269.942 133.984C267.713 134.486 265.378 133.924 263.622 132.464C262.542 131.304 261.122 131.484 259.322 131.484C257.522 131.484 258.082 129.784 255.762 129.704C253.442 129.624 253.982 127.704 253.762 126.484C253.542 125.264 248.842 125.684 247.162 126.764C245.482 127.844 242.162 127.384 241.162 129.344C240.162 131.304 241.962 131.044 242.962 131.044C244.322 131.044 244.202 129.444 246.702 129.784C249.202 130.124 250.982 127.204 252.042 128.284C253.102 129.364 247.762 131.404 245.442 131.764C243.122 132.124 243.662 133.984 245.902 137.284C248.142 140.584 244.922 138.704 244.922 140.324C244.922 141.944 240.722 139.784 242.422 139.244C244.122 138.704 243.302 137.024 241.962 135.944C240.622 134.864 239.742 135.944 239.962 134.784C240.182 133.624 238.542 134.784 237.282 133.904C236.022 133.024 235.422 132.104 233.722 133.004C232.022 133.904 230.062 133.624 226.322 134.244C222.582 134.864 215.702 134.704 214.462 133.444C213.222 132.184 217.662 129.964 219.002 130.324C220.342 130.684 219.542 128.904 217.482 127.304C215.422 125.704 210.882 124.704 210.982 125.684C211.082 126.664 208.402 125.684 205.102 125.164C201.802 124.644 201.342 123.364 199.102 123.284C196.28 123.191 193.55 122.258 191.262 120.604C188.762 118.604 182.882 119.184 182.162 120.964C181.442 122.744 179.482 122.664 177.522 122.664C175.562 122.664 178.422 120.464 177.702 120.064C176.982 119.664 177.702 117.124 176.362 116.944C175.022 116.764 173.582 122.744 170.902 122.744C168.222 122.744 167.082 116.324 164.902 114.744C162.722 113.164 160.622 113.044 162.502 115.444C164.382 117.844 160.902 116.164 161.082 117.764C161.262 119.364 158.042 121.244 158.122 120.344C158.202 119.444 156.342 118.484 154.122 120.984C151.902 123.484 150.462 123.124 150.282 122.224C150.102 121.324 143.782 124.544 144.042 125.604C144.302 126.664 143.062 127.484 141.382 127.404C139.702 127.324 141.022 125.884 142.362 125.164C143.702 124.444 147.982 121.164 150.122 120.704C152.262 120.244 156.362 118.704 156.442 117.684C156.522 116.664 154.442 117.504 152.962 117.224C151.482 116.944 148.962 118.564 146.642 119.644C144.322 120.724 141.462 120.344 142.182 121.784C142.902 123.224 139.942 121.604 139.322 122.584C138.702 123.564 137.542 122.584 138.422 121.964C139.302 121.344 136.282 120.444 136.282 121.064C136.282 121.684 135.762 122.484 133.622 122.484C131.482 122.484 129.342 124.004 130.762 125.084C132.182 126.164 133.082 126.684 132.362 127.404C131.642 128.124 129.422 125.524 126.362 125.784C123.302 126.044 117.002 122.324 117.002 121.424C117.002 120.524 112.602 121.144 109.562 120.824V182.344C109.562 182.344 111.122 183.484 111.702 182.764C112.282 182.044 113.382 183.004 115.402 182.064C117.422 181.124 118.122 183.124 118.122 184.064C118.122 185.004 120.982 186.564 122.122 188.064C123.262 189.564 123.902 190.924 125.202 190.064C126.502 189.204 128.882 188.764 128.882 187.204C128.882 185.644 134.362 185.424 134.362 187.444C134.362 189.464 139.942 191.844 143.042 197.324C146.142 202.804 145.662 203.984 150.162 205.764C154.662 207.544 154.582 208.484 153.982 210.044C153.382 211.604 156.702 212.424 154.802 213.724L152.062 215.724C152.062 216.504 152.862 217.004 153.762 217.724C154.662 218.444 151.762 218.624 152.702 219.424C153.642 220.224 152.522 221.424 153.422 222.464C154.45 223.303 155.946 223.225 156.882 222.284C157.862 221.484 158.582 223.264 157.782 224.604C157.476 225.075 157.582 225.701 158.025 226.045C158.468 226.39 159.101 226.337 159.482 225.924C160.282 224.944 161.982 227.544 162.782 227.924C163.582 228.304 164.382 229.704 163.042 229.704C161.702 229.704 161.882 232.024 162.862 232.104C163.842 232.184 163.762 233.444 163.762 234.264C163.762 235.084 166.882 236.264 168.042 235.864C169.202 235.464 170.262 236.564 170.802 237.564C171.342 238.564 173.482 239.244 174.282 238.624C175.082 238.004 175.622 239.784 175.802 241.024C175.982 242.264 177.802 241.564 178.822 241.484C179.842 241.404 180.522 242.904 181.242 242.644C182.802 242.044 183.242 244.784 184.322 246.404L295.162 245.804C295.162 245.804 295.162 243.044 296.542 244.004C297.922 244.964 296.662 246.504 298.202 247.104C299.742 247.704 300.822 248.644 301.642 248.284C302.462 247.924 303.902 246.744 305.342 248.404C306.782 250.064 307.822 248.644 308.662 249.704C309.502 250.764 311.042 251.604 312.102 250.304C313.162 249.004 316.262 250.524 317.862 251.124C319.862 249.544 321.362 246.204 323.102 246.204C325.422 246.204 331.302 246.744 331.662 249.764C332.022 252.784 335.662 249.944 335.942 252.804C336.242 255.224 338.602 257.144 338.222 258.424C339.01 258.908 339.771 259.436 340.502 260.004C342.584 259.792 344.688 260.073 346.642 260.824C349.142 261.724 352.902 259.764 354.142 262.824C355.382 265.884 358.282 268.144 355.562 268.364C353.242 268.544 350.222 265.324 350.402 267.104C350.582 268.884 349.142 268.004 349.142 270.684C349.142 273.364 347.362 277.104 346.302 276.924H346.182C345.881 278.016 346.126 279.186 346.842 280.064C348.202 279.084 350.142 277.384 351.822 277.504C354.502 277.664 355.202 279.284 357.002 278.024C358.802 276.764 359.142 276.244 359.482 277.144V277.544C360.162 277.184 360.642 276.824 360.682 276.544C360.692 276.003 360.617 275.463 360.462 274.944C358.662 275.204 358.082 275.344 357.582 274.104C356.882 272.324 362.942 270.544 365.802 270.904C368.661 271.264 370.402 269.324 371.342 270.504C372.93 268.915 374.742 267.567 376.722 266.504L390.522 266.384C390.522 266.384 394.922 263.644 395.522 261.144C396.122 258.644 398.962 252.704 400.622 254.004C402.282 255.304 405.862 254.364 405.982 255.564C405.471 259.602 406.699 263.666 409.362 266.744C410.601 265.817 412.051 265.212 413.582 264.984C415.577 264.585 417.304 263.346 418.322 261.584C419.022 260.264 420.002 262.844 418.582 263.284C417.162 263.724 419.742 264.804 422.242 264.724C424.742 264.644 421.082 265.604 419.202 265.524C417.322 265.444 416.542 265.704 414.042 268.184C411.542 270.664 412.162 271.404 413.582 272.644C415.002 273.884 416.882 273.364 418.842 271.664C420.802 269.964 420.722 268.284 422.682 268.364C424.642 268.444 429.722 266.584 431.962 265.884C434.202 265.184 432.762 264.804 432.762 263.884C432.762 262.964 436.762 262.904 438.122 261.884C439.482 260.864 437.802 260.064 436.562 260.244H436.622ZM204.462 144.744C202.122 147.664 201.342 148.084 198.922 147.664C196.502 147.244 194.922 148.444 196.222 149.284C197.522 150.124 197.502 150.844 195.022 151.424C192.542 152.004 191.022 153.904 189.922 153.684C188.822 153.464 194.182 149.684 192.822 148.724C191.462 147.764 188.142 150.424 188.082 151.624C188.022 152.824 185.802 152.904 184.462 152.844C183.122 152.784 181.342 151.484 182.682 151.344C184.022 151.204 183.122 149.724 184.962 149.004C186.802 148.284 184.602 147.244 185.182 146.464C185.762 145.684 189.502 147.244 189.562 145.824C189.622 144.404 185.802 143.204 184.542 144.044C182.359 145.838 179.383 146.327 176.742 145.324C175.622 144.824 185.662 143.764 187.362 142.204C189.062 140.644 196.722 138.864 197.362 140.204C198.002 141.544 193.242 142.544 195.522 143.824C197.757 144.972 200.471 144.605 202.322 142.904C203.102 141.544 206.742 141.744 204.462 144.744ZM227.002 173.404C224.242 175.804 224.462 175.164 222.042 175.584C219.622 176.004 221.542 178.424 218.642 178.644C215.742 178.864 208.642 179.144 207.722 177.504C207.382 176.964 211.542 177.364 211.842 176.164C212.142 174.964 213.242 173.044 215.022 173.044C216.802 173.044 216.662 170.704 213.742 169.284C210.822 167.864 217.922 166.944 219.562 169.284C221.202 171.624 224.102 173.284 225.722 171.564C227.342 169.844 236.642 165.384 236.642 167.564C236.642 169.744 229.762 170.884 227.002 173.304V173.404ZM289.002 238.224C287.002 238.444 289.182 233.044 285.622 231.084C282.272 229.284 280.027 225.946 279.622 222.164C279.787 221.068 280.56 220.16 281.616 219.821C282.671 219.481 283.828 219.77 284.602 220.564C286.022 222.344 288.182 229.664 289.422 231.984C290.662 234.304 290.742 237.944 289.062 238.124L289.002 238.224Z" fill="#00A7E0" stroke="#002F57" stroke-width="0.75"/>
<path fill-rule="evenodd" clip-rule="evenodd" d="M154.001 210.124C154.601 208.564 154.701 207.624 150.181 205.844C145.661 204.064 146.181 202.864 143.061 197.404C139.941 191.944 134.381 189.544 134.381 187.524C134.381 185.504 128.901 185.744 128.901 187.284C128.901 188.824 126.521 189.284 125.221 190.144C123.921 191.004 123.221 189.664 122.141 188.144C121.061 186.624 118.141 185.044 118.141 184.144C118.141 183.244 117.441 181.164 115.421 182.144C113.401 183.124 112.321 182.144 111.721 182.844C111.121 183.544 109.581 182.424 109.581 182.424V120.744C108.956 120.686 108.339 120.559 107.741 120.364C105.161 119.384 101.321 117.604 99.2814 118.044C97.2414 118.484 93.1214 119.024 91.7014 118.304C89.7393 117.331 87.5142 117.023 85.3614 117.424C82.4214 117.864 80.5414 115.804 76.8014 114.924C73.3714 114.375 69.861 114.621 66.5414 115.644C65.3014 116.084 65.5614 114.304 63.9614 114.484C62.3614 114.664 63.6014 113.764 62.7214 112.484C61.8414 111.204 57.3614 112.484 55.7614 112.484C54.1614 112.484 53.7614 111.684 53.7614 110.884C53.7614 110.084 52.3214 110.344 51.7614 111.424C51.0486 112.435 49.6522 112.676 48.6414 111.964C47.9214 111.244 50.1614 110.984 50.2414 110.184C50.3214 109.384 47.9214 108.924 47.0414 108.664C46.1614 108.404 44.7414 109.524 42.7414 111.224C40.9168 112.54 38.6227 113.026 36.4214 112.564C34.7214 112.384 32.5814 112.744 32.6614 113.724C32.7414 114.704 34.8214 114.624 33.5614 115.864C32.3014 117.104 31.8614 114.164 30.6214 115.504C29.3814 116.844 25.6214 116.744 24.7414 116.584C23.8614 116.424 20.9014 119.604 20.0014 120.584C19.1014 121.564 20.7414 122.204 18.3414 124.744C15.9414 127.284 9.50138 126.744 8.16138 126.744C6.82138 126.744 7.82138 128.264 7.10138 129.244C6.38138 130.224 7.90138 131.124 11.5614 132.104C15.2214 133.084 17.7014 137.904 18.1614 139.064C18.6214 140.224 23.1414 139.064 24.9414 139.244C26.7414 139.424 24.7414 142.084 26.2614 142.744C27.7814 143.404 30.1014 142.404 30.5614 143.644C31.0214 144.884 27.5214 143.644 25.7414 144.984C23.9614 146.324 23.0614 146.984 22.3414 145.964C21.6214 144.944 18.7414 145.644 17.1814 145.824C15.6214 146.004 17.0814 143.944 17.1814 143.064C17.2814 142.184 15.1814 141.544 12.1814 143.244C9.18138 144.944 10.3014 144.304 9.96138 145.644C9.62138 146.984 8.34138 144.844 6.48138 146.004C4.62138 147.164 1.56138 148.004 1.04138 149.124C0.521376 150.244 5.04138 151.124 6.82138 151.444C8.60138 151.764 4.68138 152.964 6.12138 153.444C7.56138 153.924 6.92138 155.224 9.14138 156.384C11.3614 157.544 16.3814 156.384 17.7014 156.384C19.0214 156.384 20.3014 157.984 21.3614 156.824C22.4214 155.664 26.4414 152.464 28.5014 154.344C30.5614 156.224 26.2614 155.944 27.3414 157.104C28.4214 158.264 29.7414 161.104 27.7814 162.444C26.2889 163.307 24.4839 163.44 22.8814 162.804C21.8214 162.804 22.4414 164.804 20.7414 166.104C19.0414 167.404 17.8014 164.744 15.6614 164.744C13.5214 164.744 13.9614 167.504 14.0614 168.744C14.1614 169.984 10.8414 168.464 10.0614 171.684C9.28138 174.904 5.86138 172.124 8.06138 175.244C10.2614 178.364 9.94138 176.404 11.7214 177.664C13.5014 178.924 9.72138 181.144 11.5414 181.484C13.3614 181.824 15.2814 185.064 16.5214 186.224C17.7614 187.384 19.3814 185.604 21.2614 185.504C23.1414 185.404 22.2414 182.824 23.2614 183.804C24.2814 184.784 25.8614 187.644 24.8814 188.364C23.9014 189.084 24.7014 191.304 24.5214 192.364C24.3414 193.424 28.6214 193.084 28.8814 191.844C29.1414 190.604 32.5414 190.224 34.4214 192.284C36.3014 194.344 36.9214 194.684 36.9214 193.084C36.9214 191.484 38.5214 189.704 38.6014 191.084C38.6814 192.464 40.2014 192.764 42.9814 191.524C45.7614 190.284 44.5014 191.524 42.9814 193.384C40.9814 195.864 42.9814 199.384 41.5614 199.804C40.1414 200.224 38.9814 203.804 36.6614 204.104C34.3414 204.404 30.4214 208.744 29.8814 209.444C29.3414 210.144 24.3414 208.024 23.6414 210.064C22.9414 212.104 19.9014 213.644 20.7014 214.444C21.5014 215.244 25.3214 212.924 25.5014 211.844C25.6814 210.764 26.2214 210.964 26.9414 211.844C27.6614 212.724 29.4214 211.484 30.2414 210.784C31.0614 210.084 32.3814 210.324 33.1814 210.424C33.9814 210.524 34.3414 209.444 36.7414 208.984C39.1414 208.524 38.6214 207.824 39.1414 206.584C39.6614 205.344 45.4014 202.584 46.4614 202.384C47.5214 202.184 46.9014 200.384 48.0614 200.244C49.836 199.687 51.4442 198.697 52.7414 197.364C54.2614 196.124 54.6214 196.644 55.7814 196.204C56.9414 195.764 56.0414 193.444 57.2014 193.264C58.251 193.142 59.0787 192.314 59.2014 191.264C59.2014 190.284 56.2614 190.284 55.9814 189.664C55.7014 189.044 58.2814 186.744 59.2614 186.744C60.6153 186.692 61.7406 185.684 61.9414 184.344C61.9414 182.924 63.4614 182.644 64.6214 181.404C65.7814 180.164 65.5014 179.084 66.6214 179.004C67.7414 178.924 68.8614 177.304 70.1014 176.584C71.3414 175.864 70.1014 177.484 72.5214 177.564C74.9414 177.644 74.3814 179.884 72.5214 179.084C71.1364 178.167 69.272 178.522 68.3214 179.884C66.7214 181.404 67.9814 181.884 66.7214 183.544C65.4614 185.204 65.3814 186.304 67.0014 186.484C68.6214 186.664 67.0014 187.824 65.5614 188.264C64.1214 188.704 65.1214 189.604 67.1614 189.604C69.2014 189.604 72.2614 186.664 75.1614 185.244C78.0614 183.824 80.1614 185.244 80.9614 184.964C81.7614 184.684 80.0814 183.364 80.9614 182.964C81.8414 182.564 79.8014 182.244 79.1614 180.544C78.5214 178.844 80.1414 179.924 80.5014 178.544C80.8614 177.164 81.8414 177.744 82.7414 178.364C83.6414 178.984 84.8814 177.744 85.6814 179.444C86.4814 181.144 87.3814 179.004 88.8014 180.164C90.2214 181.324 88.5214 181.144 87.0214 181.484C85.5214 181.824 86.3014 183.904 87.4614 182.924C88.6214 181.944 89.6014 181.324 90.6814 182.304C91.7614 183.284 92.1814 182.824 93.0814 181.944C93.9814 181.064 93.9814 181.944 93.9814 182.744C93.9814 183.544 95.8414 183.724 98.5214 184.164C101.436 184.373 104.364 184.286 107.261 183.904C108.501 183.904 108.061 185.764 110.821 186.304C113.581 186.844 114.301 183.544 115.721 184.704C117.141 185.864 115.721 186.304 114.921 187.204C114.121 188.104 115.821 188.184 116.921 188.624C118.624 189.116 120.228 189.901 121.661 190.944C122.975 192.552 124.628 193.85 126.501 194.744C129.361 196.164 126.501 191.164 128.821 192.744C131.141 194.324 130.241 192.744 132.021 194.424C133.801 196.104 133.181 193.724 132.381 191.044C131.581 188.364 133.181 190.144 134.001 191.404C134.785 193.081 134.878 194.999 134.261 196.744C133.721 198.344 131.041 197.004 131.321 196.124C131.601 195.244 128.741 195.584 128.561 196.744C128.871 198.57 130.128 200.094 131.861 200.744C133.281 201.004 132.201 203.244 133.101 203.504C134.321 203.864 134.261 206.184 134.981 205.824C135.701 205.464 135.421 202.704 134.621 201.444C133.821 200.184 134.161 198.424 135.241 198.764C136.321 199.104 135.241 201.004 135.781 201.624C136.321 202.244 136.941 201.004 138.181 200.284C139.421 199.564 137.641 197.524 138.181 196.444C138.721 195.364 140.041 197.344 140.581 199.224C141.121 201.104 139.241 201.004 139.241 201.984C139.241 202.964 137.541 202.524 137.021 203.064C136.501 203.604 136.741 207.064 137.461 207.244C138.181 207.424 138.621 204.304 139.061 205.824C139.501 207.344 141.201 203.824 141.661 205.284C142.121 206.744 144.241 208.324 145.041 207.964C145.841 207.604 144.681 206.084 143.441 205.964C142.201 205.844 142.361 203.824 143.441 203.724C144.521 203.624 146.661 206.664 146.561 207.724C146.461 208.784 145.501 208.704 144.561 209.724C143.621 210.744 142.241 207.924 141.081 208.024C139.921 208.124 141.081 209.884 141.621 211.144C142.161 212.404 140.181 214.084 141.621 215.144C143.061 216.204 142.681 214.524 142.961 213.804C143.241 213.084 144.381 213.984 145.181 214.604C145.981 215.224 146.081 213.184 146.081 212.384C146.081 211.584 147.421 212.024 148.081 213.084C148.741 214.144 148.901 211.924 149.961 212.104C151.021 212.284 150.321 213.984 150.321 214.964C150.321 215.944 152.201 214.164 152.021 215.224C151.992 215.376 151.992 215.532 152.021 215.684L154.761 213.684C156.741 212.504 153.401 211.664 154.001 210.124ZM3.54138 222.744C5.68138 221.844 6.56138 220.744 5.68138 219.704C4.80138 218.664 1.88138 223.464 3.54138 222.744ZM18.7414 214.744C16.7414 214.024 11.6214 217.164 13.4014 217.404C14.6414 217.584 15.1814 216.344 16.6014 216.344C18.0214 216.344 20.7414 215.464 18.7414 214.744ZM63.9014 193.804C63.9014 192.824 62.5614 192.904 60.7814 194.964C59.0014 197.024 57.4814 198.084 57.2214 198.964C56.9614 199.844 54.9014 198.784 54.2614 200.024C53.6214 201.264 54.7214 204.024 55.9614 203.164C57.2014 202.304 57.3014 203.164 58.1014 203.164C60.1296 202.349 61.9331 201.059 63.3614 199.404C64.1614 198.164 61.9414 197.804 61.8414 197.004C61.7414 196.204 63.7214 196.204 64.7014 195.664C65.6814 195.124 63.8214 194.744 63.9014 193.804ZM7.10138 183.284C6.92138 181.844 3.10138 183.284 3.54138 184.524C3.98138 185.764 7.54138 186.744 9.14138 186.224C9.73654 186.104 10.2162 185.664 10.388 185.081C10.5598 184.499 10.3957 183.869 9.96138 183.444C8.98138 182.564 7.28138 184.744 7.10138 183.284ZM406.001 255.524C405.881 254.324 402.321 255.284 400.641 253.964C398.961 252.644 396.121 258.604 395.541 261.104C394.961 263.604 390.541 266.344 390.541 266.344L376.741 266.464C374.762 267.528 372.95 268.875 371.361 270.464C371.426 270.529 371.48 270.603 371.521 270.684C372.801 273.004 368.121 274.424 363.681 274.684C362.609 274.715 361.54 274.816 360.481 274.984C360.637 275.503 360.711 276.043 360.701 276.584C360.701 276.864 360.181 277.224 359.501 277.584C358.821 278.964 353.361 281.584 350.301 283.244C346.901 285.024 342.301 284.124 342.301 281.464C342.301 278.804 344.801 279.324 345.341 280.564C345.541 281.044 346.141 280.704 346.961 280.104C346.246 279.226 346 278.056 346.301 276.964C345.281 276.504 346.881 272.524 344.801 271.824C342.721 271.124 340.161 274.864 340.521 272.544C340.881 270.224 344.101 268.264 342.141 265.224C340.181 262.184 336.601 262.204 335.881 264.524C335.161 266.844 332.681 265.764 331.781 267.544C330.579 270.227 330.21 273.209 330.721 276.104C331.421 278.964 330.541 280.384 327.861 281.984C325.181 283.584 323.861 279.544 324.841 274.324C325.541 270.764 327.501 267.364 325.721 267.364C323.941 267.364 328.041 263.084 331.721 262.204C335.401 261.324 340.101 261.664 340.101 260.584C340.101 260.384 340.281 260.224 340.561 260.124C339.831 259.556 339.07 259.029 338.281 258.544C338.191 258.797 338.023 259.014 337.801 259.164C336.321 260.184 336.721 257.564 334.041 257.564C331.361 257.564 328.701 260.064 326.561 258.984C324.421 257.904 325.481 256.484 323.521 256.484C321.561 256.484 324.961 252.744 322.101 254.344C319.241 255.944 314.961 259.884 313.001 258.104C311.041 256.324 309.261 258.624 307.821 257.204C306.381 255.784 312.821 251.844 315.821 252.024C316.56 252.011 317.269 251.734 317.821 251.244C316.221 250.644 312.941 249.364 312.061 250.424C311.181 251.484 309.461 250.904 308.621 249.824C307.781 248.744 306.721 250.184 305.301 248.524C303.881 246.864 302.441 248.044 301.601 248.404C300.761 248.764 299.601 247.804 298.161 247.224C296.721 246.644 297.801 245.084 296.501 244.124C295.201 243.164 295.121 245.924 295.121 245.924L184.281 246.524C184.397 246.706 184.524 246.879 184.661 247.044C186.001 248.464 184.941 249.544 185.381 251.224C185.821 252.904 185.481 255.324 184.141 255.324C183.643 255.349 183.195 255.023 183.065 254.542C182.935 254.061 183.159 253.554 183.601 253.324C184.581 252.784 184.041 250.824 183.061 250.824C182.501 250.824 182.261 250.144 182.281 249.364C180.187 249.766 178.036 249.766 175.941 249.364C175.962 249.47 175.962 249.579 175.941 249.684C176.125 251.61 176.815 253.452 177.941 255.024C179.361 256.904 178.381 258.064 179.721 258.784C181.061 259.504 180.961 260.304 179.721 260.124C178.481 259.944 179.361 261.104 178.921 263.764C178.481 266.424 178.561 271.984 178.281 273.764C178.001 275.544 176.061 278.224 177.221 280.024C178.548 281.912 179.033 284.266 178.561 286.524C177.888 288.252 178.05 290.193 179.001 291.784C179.981 293.484 179.181 296.424 180.241 297.044C181.512 297.951 182.554 299.143 183.281 300.524C184.261 302.124 185.161 301.144 185.281 302.744C185.401 304.344 185.461 304.624 186.881 305.244C188.301 305.864 187.421 307.484 187.421 308.364C187.421 309.244 189.541 310.744 191.861 312.744C194.181 314.744 192.221 316.484 193.861 316.484C195.673 316.685 197.395 317.376 198.841 318.484C200.541 319.564 201.081 318.944 202.241 319.204C204.004 320.169 205.339 321.761 205.981 323.664C206.208 324.535 206.509 325.385 206.881 326.204L216.141 324.984C217.523 325.973 219.029 326.773 220.621 327.364C222.241 327.744 231.001 330.984 231.001 330.984L242.421 330.884L243.761 329.184H250.041C251.524 330.663 253.094 332.052 254.741 333.344C255.321 333.524 257.321 335.344 257.321 336.484C257.24 337.545 257.799 338.552 258.741 339.044C260.208 340.003 261.769 340.807 263.401 341.444C263.881 341.244 264.841 337.624 266.561 337.724C268.281 337.824 272.941 339.144 273.701 341.724C274.435 343.852 275.752 345.73 277.501 347.144C278.261 347.724 277.881 349.344 278.461 350.184C279.041 351.024 278.941 352.664 279.601 352.664C280.261 352.664 283.601 354.764 285.221 354.664C285.828 354.724 286.408 354.945 286.901 355.304C287.081 352.104 283.801 351.584 285.741 350.104C287.681 348.624 285.641 346.984 286.721 346.284C287.801 345.584 289.661 344.844 289.661 343.784C289.661 342.724 290.641 342.704 292.061 342.884C293.481 343.064 296.161 340.564 296.061 339.584C295.961 338.604 296.341 338.424 298.061 338.784C299.781 339.144 299.481 336.784 300.541 337.184C301.601 337.584 302.541 338.164 302.541 337.364C302.541 336.564 303.701 336.744 304.541 337.804C305.381 338.864 307.661 339.144 307.841 337.804C308.021 336.464 309.361 337.804 310.521 339.044C311.681 340.284 312.201 339.924 313.901 340.024C315.601 340.124 315.601 339.664 315.681 338.604C315.761 337.544 317.561 340.924 319.261 341.084C320.961 341.244 319.621 340.024 318.361 339.084C317.101 338.144 318.621 337.664 317.561 336.864C316.501 336.064 318.901 334.984 321.041 335.064C323.181 335.144 323.041 335.704 323.901 334.444C324.761 333.184 325.501 334.444 325.501 335.524C325.501 336.604 328.981 334.884 330.841 334.884C332.523 334.931 334.009 335.99 334.601 337.564C334.761 338.644 336.021 339.164 337.361 338.004C338.701 336.844 339.861 335.524 341.101 336.764C342.341 338.004 343.601 339.704 345.101 341.224C346.601 342.744 344.381 344.604 345.101 345.764C345.821 346.924 345.101 348.544 346.801 349.764C348.501 350.984 346.981 353.604 348.401 353.964C349.821 354.324 350.981 356.544 351.161 357.424C351.341 358.304 354.021 359.424 354.201 357.964C354.381 356.504 355.801 354.664 355.981 353.244C355.852 350.407 355.094 347.633 353.761 345.124C352.601 343.524 354.021 343.124 352.601 341.284C351.061 338.966 350.278 336.227 350.361 333.444C350.461 330.764 353.581 326.404 355.101 325.064C356.621 323.724 358.301 324.444 358.661 323.064C359.021 321.684 360.881 319.864 361.961 319.864C363.041 319.864 364.181 320.124 364.361 318.964C364.541 317.804 366.361 316.384 368.641 316.024C370.921 315.664 369.621 314.424 369.001 313.344C368.381 312.264 369.541 311.204 369.981 311.924C370.73 312.659 371.904 312.735 372.741 312.104C373.641 311.484 375.681 309.784 373.721 309.704C371.761 309.624 371.321 308.804 372.481 308.364C373.641 307.924 372.661 305.764 371.061 305.584C369.461 305.404 369.981 304.604 371.061 303.584C372.141 302.564 369.641 301.004 368.481 300.204C367.321 299.404 369.181 298.964 370.081 298.784C370.981 298.604 370.261 294.504 370.701 293.524C371.141 292.544 372.701 292.544 372.041 293.524C371.381 294.504 370.521 296.104 371.681 297.524C372.858 298.832 373.267 300.659 372.761 302.344C372.321 304.344 373.201 303.844 374.541 301.184C375.881 298.524 376.061 296.184 375.161 295.904C374.261 295.624 374.361 292.964 375.341 294.224C376.321 295.484 376.681 295.644 378.201 294.044C379.721 292.444 381.321 289.664 380.341 289.044C379.361 288.424 380.781 287.804 382.561 287.884C384.632 287.86 386.662 287.309 388.461 286.284C389.321 284.544 382.301 287.084 382.301 286.104C382.301 285.124 386.761 284.104 388.801 284.104C390.841 284.104 389.881 281.264 390.801 282.424C391.213 282.911 391.802 283.213 392.437 283.262C393.072 283.31 393.701 283.103 394.181 282.684C395.341 281.964 394.441 279.924 393.101 279.564C391.761 279.204 394.101 278.324 393.641 277.564C393.527 275.715 394.548 273.981 396.221 273.184C397.921 272.824 397.121 271.764 398.541 271.764C399.961 271.764 400.241 270.064 401.501 268.824C402.761 267.584 404.521 270.824 406.481 268.984C407.421 268.16 408.424 267.411 409.481 266.744C406.756 263.688 405.468 259.612 405.941 255.544L406.001 255.524Z" fill="#00A7E0" stroke="#002F57" stroke-width="0.75"/>
<path fill-rule="evenodd" clip-rule="evenodd" d="M366.141 364.084C365.881 364.604 364.561 363.384 364.521 362.464C364.481 361.544 363.161 361.364 363.161 359.764C363.161 358.164 363.801 357.184 364.621 358.584C365.441 359.984 364.901 360.924 365.041 361.604C365.181 362.284 366.581 363.144 366.141 364.084Z" fill="#294F6E" stroke="#002F57" stroke-width="0.75"/>
<path fill-rule="evenodd" clip-rule="evenodd" d="M430.381 421.624C429.841 421.144 431.181 420.164 430.381 419.744C429.581 419.324 432.381 418.124 433.321 418.924C434.261 419.724 434.361 420.924 433.541 421.264C432.721 421.604 430.861 422.084 430.381 421.624Z" fill="#294F6E" stroke="#002F57" stroke-width="0.75"/>
</svg>
