<?xml version="1.0" encoding="UTF-8" standalone="no"?><svg width="474" height="450" viewBox="0 0 474 450" fill="none" xmlns="http://www.w3.org/2000/svg">
<path fill-rule="evenodd" clip-rule="evenodd" d="M264.589 78.9677C264.229 79.3277 263.149 80.0077 262.209 80.7477C262.669 81.5077 262.589 82.7477 263.469 82.8877C263.817 82.8792 264.138 83.0775 264.286 83.3932C264.435 83.7089 264.383 84.0824 264.154 84.3454C263.924 84.6085 263.562 84.7113 263.229 84.6077C261.869 84.3077 261.869 86.4477 263.049 88.2877C264.229 90.1277 260.789 92.2877 261.749 93.1677C262.709 94.0477 261.929 95.1677 262.329 95.8477C262.729 96.5277 267.809 95.6077 270.009 93.3477C272.209 91.0877 272.809 91.3477 274.009 91.6877C275.209 92.0277 276.269 90.8477 275.669 89.9677C274.759 88.1642 274.391 86.1359 274.609 84.1277C274.709 82.5477 272.609 79.6677 270.449 77.3877C269.86 77.9119 269.097 78.1973 268.309 78.1877C267.017 78.0377 265.711 78.3114 264.589 78.9677Z" fill="#294F6E" stroke="#002F57" stroke-width="0.75"/>
<path fill-rule="evenodd" clip-rule="evenodd" d="M127.469 150.948C126.749 146.948 126.349 143.188 125.829 143.188C125.309 143.188 124.149 146.568 122.949 146.328C121.749 146.088 121.749 141.988 123.189 141.988C124.629 141.988 126.309 138.848 126.309 137.988C126.309 137.128 124.869 137.028 123.429 137.028C121.989 137.028 118.849 137.268 118.849 137.268C118.849 137.268 116.849 136.548 116.849 135.268C116.849 133.988 116.129 133.088 114.189 133.088C112.249 133.088 112.189 131.088 110.829 133.088C109.469 135.088 113.949 135.088 113.469 136.468C112.989 137.848 111.469 136.948 111.309 138.148C111.195 140.194 111.523 142.24 112.269 144.148C113.133 146.51 113.613 148.995 113.689 151.508C114.809 151.288 115.329 150.768 116.369 150.768C117.409 150.768 119.469 150.608 119.589 149.228C119.709 147.848 121.189 146.848 122.009 147.228C123.275 148.788 124.023 150.703 124.149 152.708C124.23 153.41 124.447 154.09 124.789 154.708C125.235 154.274 125.716 153.879 126.229 153.528C126.497 152.605 126.916 151.733 127.469 150.948Z" fill="#294F6E" stroke="#002F57" stroke-width="0.75"/>
<path fill-rule="evenodd" clip-rule="evenodd" d="M112.349 144.148C111.602 142.24 111.275 140.193 111.389 138.148C111.629 136.948 113.069 137.908 113.549 136.468C114.029 135.028 109.549 135.028 110.909 133.088C112.269 131.148 112.349 133.088 114.269 133.088C116.189 133.088 116.929 134.068 116.929 135.268C116.929 136.468 118.929 137.268 118.929 137.268C118.929 137.268 122.069 137.028 123.509 137.028C124.949 137.028 126.389 137.028 126.389 137.988C126.389 138.948 124.709 141.988 123.269 141.988C121.829 141.988 121.829 146.088 123.029 146.328C124.229 146.568 125.189 143.188 125.909 143.188C126.629 143.188 126.829 147.008 127.549 150.948C127.679 150.743 127.89 150.605 128.129 150.568C129.089 150.568 128.609 147.248 129.249 146.288C129.889 145.328 129.569 142.288 130.029 142.288C130.489 142.288 133.369 143.228 133.209 142.448C133.049 141.668 134.949 138.948 134.649 137.508C134.349 136.068 135.749 134.348 135.749 132.588C135.749 130.828 137.329 130.368 138.449 129.428C139.569 128.488 141.469 127.188 141.789 127.988C142.109 128.788 144.489 129.428 143.529 127.988C142.569 126.548 142.569 125.608 143.209 125.288C143.849 124.968 144.169 123.288 144.169 123.288C144.169 123.288 142.169 122.968 141.789 122.008C141.409 121.048 140.189 120.008 140.189 119.328C140.189 118.648 139.089 118.848 138.189 119.628C137.289 120.408 135.489 118.688 133.429 119.788C131.369 120.888 130.889 122.168 129.929 122.008C128.969 121.848 129.149 122.808 128.349 123.608C127.549 124.408 126.909 125.348 126.349 125.348C125.654 125.537 124.983 125.805 124.349 126.148C124.349 126.148 125.469 128.528 124.829 129.628C124.189 130.728 122.609 129.628 120.829 130.108C119.049 130.588 118.289 129.488 117.009 129.788C115.729 130.088 115.009 129.008 114.309 129.168C113.609 129.328 112.729 127.728 113.049 126.468C113.369 125.208 112.409 123.448 111.769 124.468C111.129 125.488 110.189 124.928 110.189 126.368C110.189 127.808 110.989 129.548 110.029 130.488C109.069 131.428 104.029 131.928 103.049 131.128C102.069 130.328 97.969 129.848 97.809 129.128C97.649 128.408 96.369 126.908 95.589 126.908C94.809 126.908 92.409 128.008 91.769 127.528C90.789 126.684 89.6547 126.039 88.429 125.628C87.329 125.468 85.589 124.668 85.429 124.048C85.269 123.428 82.729 123.088 82.249 122.448C81.769 121.808 80.249 121.668 80.249 120.868C80.249 120.068 80.869 118.868 80.869 117.848C80.869 116.828 82.869 115.948 82.869 115.308C82.869 114.668 81.129 113.568 81.129 113.568C81.129 113.568 80.009 111.568 78.729 111.568C77.449 111.568 76.509 109.328 75.409 109.188C74.309 109.048 74.609 106.788 73.969 106.008C73.329 105.228 73.809 103.308 74.929 104.248C76.049 105.188 78.109 104.248 77.309 102.828C76.509 101.408 75.089 100.128 75.089 99.3277C75.089 98.5277 76.029 96.1677 74.929 95.5277C73.8244 94.9591 72.9746 93.995 72.549 92.8277C72.2308 92.0406 71.6705 91.3752 70.949 90.9277L69.369 91.0877C69.369 91.0877 68.409 93.6277 67.789 93.9277C66.4082 94.3336 65.0689 94.8694 63.789 95.5277C62.689 96.3277 59.509 94.4077 57.789 94.4077C56.069 94.4077 54.929 96.1677 55.789 96.6277C56.649 97.0877 56.429 100.448 56.429 100.448C56.429 100.448 57.389 104.568 58.809 104.248C60.229 103.928 61.989 105.688 60.809 106.008C59.607 106.534 58.8245 107.716 58.809 109.028C58.649 110.288 58.969 111.868 58.029 112.028C57.4543 112.024 56.9055 112.267 56.5227 112.696C56.1399 113.124 55.96 113.697 56.029 114.268C56.029 116.008 54.029 115.528 53.649 116.168C53.2194 117.628 52.6915 119.058 52.069 120.448C51.589 120.928 48.889 121.088 48.729 122.448C48.569 123.808 47.309 125.628 46.509 125.468C45.709 125.308 44.289 124.668 43.809 125.628C43.329 126.588 41.269 124.828 40.789 125.308C40.309 125.788 37.769 127.848 37.769 129.128C37.769 130.408 40.469 130.388 40.309 131.988C40.3246 133.54 40.958 135.023 42.069 136.108C42.849 136.908 44.069 138.808 43.489 139.768C42.909 140.728 41.909 140.868 40.469 140.548C39.029 140.228 39.209 141.188 36.669 140.708C34.129 140.228 33.969 142.148 33.009 143.248L32.749 143.548C33.949 144.488 34.469 146.188 36.449 146.948C38.769 147.848 40.849 145.468 40.849 147.188C40.849 148.908 35.389 148.568 35.269 149.088C35.149 149.608 40.909 156.588 43.829 156.048C46.749 155.508 48.889 152.368 48.049 151.888C47.209 151.408 48.529 149.448 49.289 149.888C50.049 150.328 49.409 153.328 50.309 154.048C51.209 154.768 50.909 156.048 50.309 157.728C49.709 159.408 50.909 162.668 51.069 164.508C51.229 166.348 52.509 169.028 52.929 171.768C53.6893 175.505 54.9472 179.124 56.669 182.528C58.269 185.548 59.529 191.508 60.669 192.928C61.809 194.348 64.469 198.688 64.469 201.368C64.9436 204.136 66.3559 206.657 68.469 208.508C69.469 209.208 71.669 207.668 72.209 206.008C72.749 204.348 75.769 203.688 75.949 202.268C76.129 200.848 76.429 199.708 77.489 199.528C78.549 199.348 78.569 198.228 78.569 196.668C78.4308 194.887 78.8427 193.107 79.749 191.568C80.8085 189.554 81.0243 187.201 80.349 185.028C79.8173 183.362 79.9242 181.559 80.649 179.968C81.249 178.488 81.009 176.748 82.129 176.648C83.7609 176.273 85.1902 175.294 86.129 173.908C87.8364 172.096 89.704 170.443 91.709 168.968C94.1079 167.038 96.2817 164.844 98.189 162.428C99.369 160.428 102.749 159.808 104.309 158.208C105.869 156.608 105.249 155.768 105.549 154.048C105.849 152.328 110.849 151.608 112.749 151.608C113.085 151.608 113.42 151.575 113.749 151.508C113.679 148.995 113.206 146.511 112.349 144.148Z" fill="#294F6E" stroke="#002F57" stroke-width="0.75"/>
<path fill-rule="evenodd" clip-rule="evenodd" d="M230.789 31.168C230.285 30.541 229.49 30.223 228.693 30.3293C227.896 30.4356 227.212 30.9508 226.889 31.6879C226.369 32.9879 225.349 31.168 223.009 31.168C220.669 31.168 220.429 32.4679 218.869 30.9079C217.309 29.3479 219.389 28.9079 219.389 28.9079L219.649 26.9079L222.869 20.4679C221.947 20.0811 220.929 19.9835 219.949 20.1879C218.989 20.5479 216.729 20.3079 216.509 19.4679C216.289 18.6279 212.509 18.528 211.509 19.248C210.509 19.968 208.409 20.548 208.309 21.388C208.209 22.228 205.929 21.968 205.089 22.568C204.249 23.168 199.969 23.408 199.849 23.868C198.111 24.412 196.248 24.412 194.509 23.868C193.789 23.288 189.869 23.868 189.389 22.928C188.909 21.988 187.249 21.488 187.249 20.668C187.249 19.848 184.289 19.8279 183.929 19.1279C183.569 18.4279 181.189 18.048 180.829 18.288C180.469 18.528 177.849 17.568 177.149 17.448C176.449 17.328 174.169 17.928 173.469 17.928C172.769 17.928 171.469 19.2479 170.609 19.3479C169.749 19.448 167.509 17.928 167.049 18.288C166.589 18.648 165.049 17.108 164.549 16.388C164.049 15.668 164.549 13.648 164.069 12.928C163.589 12.208 160.989 12.228 160.069 11.748C159.169 11.151 158.154 10.7491 157.089 10.568C156.217 10.596 155.354 10.3887 154.589 9.96794C153.661 9.43784 152.665 9.03426 151.629 8.76795C150.789 8.54795 150.669 9.60795 150.189 10.088C149.709 10.568 148.289 10.688 148.049 11.508C147.809 12.328 146.049 12.588 146.389 13.508C146.626 14.7077 147.11 15.8451 147.809 16.8479C148.409 17.308 148.049 18.848 147.709 19.228C147.369 19.608 144.849 20.048 144.369 20.888C143.889 21.728 142.709 20.7679 141.509 20.0479C140.487 19.4978 139.238 19.5914 138.309 20.288C137.709 20.768 135.569 19.1079 134.969 18.9879C134.369 18.8679 134.269 16.608 133.669 16.728C131.786 16.5651 129.919 16.244 128.089 15.7679C127.249 15.5279 125.469 15.648 125.229 16.248C124.989 16.848 122.849 16.728 122.489 17.428C122.129 18.128 120.489 18.508 119.889 19.228C119.289 19.948 117.269 19.928 116.789 21.008C116.309 22.088 113.809 22.548 113.109 22.668C112.409 22.788 110.489 23.148 110.369 23.728C110.369 23.988 110.009 24.0279 109.649 23.9879C109.701 24.1448 109.741 24.3052 109.769 24.4679C110.269 27.1679 111.429 27.088 112.649 28.168C113.61 29.2064 114.879 29.9077 116.269 30.168C117.836 30.4256 119.151 31.4896 119.729 32.9679C120.103 34.1823 120.852 35.2467 121.869 36.008C122.609 36.588 121.629 38.548 121.629 40.008C121.629 41.468 119.809 41.828 120.729 43.308C121.649 44.788 127.969 45.528 129.769 45.528C131.569 45.528 132.249 47.248 132.789 47.3479C133.929 47.528 134.089 48.908 135.389 49.168C137.056 49.4716 138.321 50.8421 138.489 52.528C139.009 54.848 140.489 55.6279 140.809 56.6679C141.129 57.7079 143.929 56.928 145.989 57.188C148.049 57.448 153.989 57.1879 155.589 57.4479C157.189 57.7079 160.769 57.4479 162.829 59.0079C164.889 60.5679 165.949 59.2679 167.249 60.0479C168.442 60.9186 169.929 61.285 171.389 61.068C173.189 60.808 173.189 62.368 174.489 62.628C175.789 62.888 178.129 60.6279 181.489 59.0079C184.849 57.3879 188.729 58.488 190.549 58.748C193.31 58.8223 195.964 57.6818 197.809 55.6279C199.809 53.3079 202.469 53.828 202.729 51.748C202.989 49.668 200.729 48.908 201.689 47.088C202.054 46.4229 202.675 45.9357 203.407 45.7393C204.14 45.5429 204.921 45.6544 205.569 46.0479C207.67 47.0282 210.132 46.8307 212.049 45.528C213.786 44.2625 215.903 43.6275 218.049 43.728C220.389 43.468 220.049 41.908 221.669 40.3479C222.984 39.0504 224.762 38.3306 226.609 38.3479C228.149 38.3479 230.229 36.788 231.769 37.308C233.309 37.828 235.769 38.088 235.929 36.788C236.089 35.488 232.069 32.728 230.789 31.168Z" fill="#294F6E" stroke="#002F57" stroke-width="0.75"/>
<path fill-rule="evenodd" clip-rule="evenodd" d="M76.2094 89.0479C74.3542 89.1113 72.6489 90.0836 71.6494 91.6479C71.9519 91.9772 72.1833 92.3652 72.3294 92.7878C72.755 93.9551 73.6048 94.9192 74.7094 95.4879C75.3894 95.8679 75.2894 96.9279 75.1094 97.8679C75.6869 97.8582 76.2624 97.798 76.8294 97.6879C77.9894 97.4279 80.4894 93.8479 80.8294 92.8679C81.1694 91.8879 77.7094 89.1679 76.2094 89.0479Z" fill="#294F6E" stroke="#002F57" stroke-width="0.75"/>
<path fill-rule="evenodd" clip-rule="evenodd" d="M110.389 125.528H109.469C107.149 125.628 105.729 124.468 104.209 124.548C101.404 124.167 98.7375 123.095 96.4494 121.428C94.5694 119.908 89.4894 116.708 88.2494 115.428C87.0094 114.148 85.2094 114.188 85.0294 114.808C84.8494 115.428 83.9494 115.428 82.5694 115.568C82.2094 116.188 80.7294 117.028 80.7294 117.868C80.7294 118.708 80.1094 120.088 80.1094 120.888C80.1094 121.688 81.6894 121.828 82.1094 122.468C82.5294 123.108 85.1294 123.428 85.2894 124.068C85.4494 124.708 87.1894 125.488 88.2894 125.648C89.5151 126.06 90.6493 126.705 91.6294 127.548C92.2694 128.028 94.6494 126.928 95.4494 126.928C96.2494 126.928 97.4494 128.348 97.6694 129.148C97.8894 129.948 101.949 130.408 102.909 131.148C103.869 131.888 108.909 131.468 109.889 130.508C110.869 129.548 110.049 127.808 110.049 126.388C110.052 126.069 110.173 125.762 110.389 125.528Z" fill="#294F6E" stroke="#002F57" stroke-width="0.75"/>
<path fill-rule="evenodd" clip-rule="evenodd" d="M152.65 191.368C152.65 189.788 151.39 189.628 151.39 188.368C151.588 186.578 151.014 184.788 149.81 183.448C148.21 182.008 147.41 179.948 148.37 179.148C149.33 178.348 148.53 176.128 149.01 176.288C149.49 176.448 150.13 174.868 149.17 174.388C148.21 173.908 149.17 172.008 148.37 171.688C147.034 170.791 145.985 169.527 145.35 168.048C145.35 167.248 145.99 162.808 146.15 161.688C146.31 160.568 147.89 160.428 148.37 160.428C148.85 160.428 150.75 160.568 151.39 159.468C152.03 158.368 154.73 158.188 155.05 157.468C155.37 156.748 157.05 156.668 157.05 155.708C157.05 154.748 159.05 152.388 159.05 152.388C158.81 151.968 158.29 152.388 157.23 152.768C155.45 153.488 154.57 152.508 154.75 151.428C154.93 150.348 153.49 150.368 152.51 150.368C151.53 150.368 152.15 148.748 152.51 147.688C152.87 146.628 152.15 145.988 150.99 145.908C149.83 145.828 149.31 143.308 149.75 142.608C150.19 141.908 147.35 141.268 146.09 141.888C144.83 142.508 145.73 140.828 145.39 139.888C145.05 138.948 146.99 135.888 148.69 134.268C150.39 132.648 149.67 130.268 149.67 128.388C149.67 126.508 148.85 126.388 148.05 126.388C147.25 126.388 147.17 125.228 147.17 124.148C147.046 123.583 146.658 123.112 146.127 122.882C145.596 122.653 144.987 122.692 144.49 122.988L143.81 123.388C143.81 123.388 143.49 124.968 142.85 125.388C142.21 125.808 142.21 126.668 143.17 128.088C144.13 129.508 141.75 128.888 141.43 128.088C141.11 127.288 139.21 128.568 138.09 129.528C136.97 130.488 135.39 130.948 135.39 132.688C135.39 134.428 133.97 136.188 134.29 137.608C134.61 139.028 132.69 141.748 132.85 142.548C133.01 143.348 130.15 142.388 129.67 142.388C129.19 142.388 129.51 145.388 128.89 146.388C128.27 147.388 128.73 150.668 127.77 150.668C126.81 150.668 126.03 153.688 126.03 153.688C125.517 154.04 125.035 154.434 124.59 154.868C125.364 156.583 126.687 157.99 128.35 158.868C130.67 159.808 132.23 164.508 132.93 167.008C133.565 169.164 133.358 171.48 132.35 173.488C131.51 174.908 132.63 174.968 134.01 175.688C135.39 176.408 136.91 176.648 138.01 175.208C139.11 173.768 141.11 172.768 141.39 171.208C141.67 169.648 142.65 171.988 143.39 172.808C144.405 174.077 144.974 175.644 145.01 177.268C145.19 179.268 145.37 184.348 147.01 185.948C148.501 187.705 149.072 190.064 148.55 192.308C148.07 193.568 149.45 195.708 149.09 197.068C149.09 197.348 148.93 197.728 148.85 198.168C150.77 198.308 152.65 191.368 152.65 191.368Z" fill="#294F6E" stroke="#002F57" stroke-width="0.75"/>
<path fill-rule="evenodd" clip-rule="evenodd" d="M124.889 125.968C122.509 123.768 121.849 125.548 120.249 124.708C118.649 123.868 117.749 123.548 116.949 124.168C116.149 124.788 114.949 124.708 114.109 126.668C113.857 127.263 113.549 127.832 113.189 128.368C113.469 128.968 113.889 129.388 114.229 129.308C114.869 129.148 115.669 130.248 116.929 129.928C118.189 129.608 118.929 130.728 120.749 130.248C122.569 129.768 124.089 130.888 124.749 129.768C125.409 128.648 124.269 126.288 124.269 126.288L124.889 125.968Z" fill="#294F6E" stroke="#002F57" stroke-width="0.75"/>
<path fill-rule="evenodd" clip-rule="evenodd" d="M185.529 152.328C184.409 152.168 181.529 150.108 181.529 149.308C181.529 148.508 182.969 147.308 180.429 146.928C179.092 146.937 177.838 146.276 177.089 145.168C176.609 144.708 174.549 146.128 173.909 147.168C173.269 148.208 172.649 146.848 171.209 147.628C169.769 148.408 168.349 146.528 167.729 147.628C167.109 148.728 165.489 147.008 164.709 147.948C164.404 148.306 164.03 148.598 163.609 148.808C164.309 149.588 165.049 150.348 165.049 150.928C165.049 151.948 167.049 152.708 167.049 153.988C167.049 155.268 169.609 156.288 170.369 155.768C171.129 155.248 172.929 154.748 173.169 156.528C173.409 158.308 174.449 158.308 174.449 159.588C174.449 160.868 171.889 160.108 171.389 161.368C170.889 162.628 175.709 164.168 175.709 165.188C175.709 166.208 177.249 167.488 177.709 168.748C178.169 170.008 180.529 171.568 181.029 173.088C181.529 174.608 183.569 175.388 184.349 176.148C185.129 177.325 185.403 178.767 185.109 180.148C184.717 182.435 185.165 184.786 186.369 186.768C187.909 189.048 184.589 190.068 183.569 191.348C182.549 192.628 183.069 194.408 180.009 193.648C176.949 192.888 180.529 196.188 180.009 197.208C179.489 198.228 175.429 196.188 175.429 197.208C175.429 197.808 174.049 198.608 172.949 199.208C173.454 199.762 174.058 200.217 174.729 200.548C175.689 201.148 173.549 202.168 173.609 204.068C173.669 205.968 175.089 206.448 175.609 205.668C176.617 204.502 177.848 203.55 179.229 202.868C180.109 202.568 179.229 201.268 180.169 201.328C181.109 201.388 180.829 199.968 181.249 199.188C181.669 198.408 182.309 198.708 183.749 198.768C185.758 198.361 187.635 197.461 189.209 196.148C191.209 194.848 191.589 194.548 192.369 190.808C193.149 187.068 191.469 182.608 191.409 181.468C191.349 180.328 188.609 175.108 187.609 175.168C186.609 175.228 181.969 170.468 181.129 169.708C180.289 168.948 180.529 167.708 179.349 166.608C178.169 165.508 178.029 162.988 178.329 161.148C178.629 159.308 181.249 158.888 181.189 157.628C181.129 156.368 181.429 155.308 182.729 155.248C184.029 155.087 185.188 154.354 185.889 153.248C185.967 153.119 186.087 153.02 186.229 152.968C186.009 152.608 185.709 152.348 185.529 152.328Z" fill="#294F6E" stroke="#002F57" stroke-width="0.75"/>
<path fill-rule="evenodd" clip-rule="evenodd" d="M175.529 197.368C175.529 196.348 179.529 198.388 180.109 197.368C180.689 196.348 177.049 193.028 180.109 193.808C183.169 194.588 182.649 192.788 183.669 191.508C184.689 190.228 188.009 189.208 186.469 186.928C185.534 185.43 185.054 183.693 185.089 181.928C184.29 182.582 183.216 182.792 182.229 182.488C181.369 182.148 179.489 181.968 179.489 183.348C179.489 184.728 178.109 185.068 178.289 184.368C178.469 183.668 176.909 183.868 176.049 182.828C175.189 181.788 172.049 183.168 170.569 182.668C169.089 182.168 166.569 183.508 165.069 185.408C163.569 187.308 165.229 187.288 165.229 189.008C165.229 190.728 166.269 190.728 165.749 192.088C165.758 192.134 165.758 192.181 165.749 192.228C167.269 192.888 166.669 194.768 166.849 195.848C167.029 196.928 168.509 196.308 169.349 196.248C170.189 196.188 168.809 197.568 169.509 198.388C170.209 199.208 172.309 197.688 172.729 198.688C172.82 198.91 172.942 199.118 173.089 199.308C174.149 198.768 175.529 197.968 175.529 197.368Z" fill="#294F6E" stroke="#002F57" stroke-width="0.75"/>
<path fill-rule="evenodd" clip-rule="evenodd" d="M175.71 165.268C175.71 164.248 170.87 162.728 171.39 161.448C171.91 160.168 174.45 160.948 174.45 159.668C174.45 158.388 173.43 158.388 173.17 156.608C172.91 154.828 171.17 155.348 170.37 155.848C169.57 156.348 167.05 155.348 167.05 154.068C167.05 152.788 165.05 152.068 165.05 151.008C165.05 150.428 164.31 149.668 163.61 148.888C162.97 149.208 162.31 149.288 162.01 148.888C161.71 148.488 160.89 150.468 161.37 150.888C161.85 151.308 162.49 154.388 161.21 154.068C159.93 153.748 159.95 152.068 159.21 152.168C159.21 152.168 157.21 154.548 157.21 155.488C157.21 156.128 156.41 156.348 155.81 156.668C156.095 156.901 156.356 157.163 156.59 157.448C156.93 157.968 156.41 159.328 156.93 160.528C157.45 161.728 159.17 159.848 159.67 161.568C160.17 163.288 159.33 164.128 159.33 165.848C159.33 167.568 157.97 167.408 158.31 168.948C158.65 170.488 160.53 168.608 161.91 167.568C163.29 166.528 164.31 166.708 164.83 167.408C165.35 168.108 167.05 167.568 167.41 166.708C167.77 165.848 170.31 165.508 171.17 166.548C171.971 167.679 172.958 168.667 174.09 169.468C175.29 170.148 173.23 173.928 174.43 174.268C176.142 174.991 177.237 176.689 177.19 178.548C177.03 180.328 178.03 181.588 176.67 183.108C177.51 183.668 178.53 183.648 178.39 184.208C178.25 184.768 179.59 184.548 179.59 183.188C179.59 181.828 181.47 181.988 182.33 182.328C183.317 182.633 184.39 182.422 185.19 181.768C185.183 181.226 185.223 180.684 185.31 180.148C185.603 178.767 185.33 177.325 184.55 176.148C183.77 175.388 181.73 174.608 181.23 173.088C180.73 171.568 178.43 170.028 177.91 168.748C177.39 167.468 175.71 166.288 175.71 165.268Z" fill="#294F6E" stroke="#002F57" stroke-width="0.75"/>
<path fill-rule="evenodd" clip-rule="evenodd" d="M165.23 189.008C165.23 187.288 163.53 187.288 165.07 185.408C166.61 183.528 169.07 182.148 170.57 182.668C172.07 183.188 175.19 181.808 176.05 182.828C176.203 182.997 176.378 183.145 176.57 183.268C177.93 181.748 176.93 180.488 177.09 178.708C177.137 176.85 176.042 175.151 174.33 174.428C173.13 174.088 175.19 170.308 173.99 169.628C172.858 168.827 171.871 167.84 171.07 166.708C170.21 165.668 167.65 166.008 167.31 166.868C166.97 167.728 165.31 168.248 164.73 167.568C164.15 166.888 163.19 166.688 161.81 167.728C160.43 168.768 158.55 170.648 158.21 169.108C157.87 167.568 159.23 167.728 159.23 166.008C159.23 164.288 160.09 163.428 159.57 161.728C159.05 160.028 157.35 161.888 156.83 160.688C156.31 159.488 156.83 158.128 156.49 157.608C156.256 157.323 155.995 157.061 155.71 156.828C155.424 156.931 155.188 157.138 155.05 157.408C154.73 158.188 152.03 158.348 151.39 159.408C150.75 160.468 148.85 160.368 148.37 160.368C147.89 160.368 146.37 160.508 146.15 161.628C145.93 162.748 145.35 167.188 145.35 167.988C145.985 169.467 147.034 170.731 148.37 171.628C149.17 171.948 148.21 173.848 149.17 174.328C150.13 174.808 149.49 176.328 149.01 176.228C148.53 176.128 149.33 178.228 148.37 179.088C147.41 179.948 148.21 181.948 149.81 183.388C151.013 184.728 151.588 186.518 151.39 188.308C151.39 189.568 152.65 189.728 152.65 191.308C152.65 191.308 150.77 198.248 149.21 197.948C148.87 199.668 148.47 202.388 148.07 203.948C147.61 205.788 147.25 207.388 148.31 207.508C149.37 207.628 151.53 210.068 153.61 212.688C154.092 213.302 154.495 213.974 154.81 214.688C155.593 214.645 156.379 214.699 157.15 214.848C158.328 215.011 159.192 216.039 159.15 217.228C159.15 218.008 161.83 217.708 162.33 217.608C162.83 217.508 162.21 216.428 163.57 215.988C162.402 214.555 160.753 213.595 158.93 213.288C156.93 213.128 155.97 210.088 156.15 208.728C156.33 207.368 154.65 206.168 154.65 204.968C154.65 203.768 153.47 203.728 152.11 203.068C150.75 202.408 152.39 198.368 152.57 196.648C152.75 194.928 155.61 189.988 154.77 188.448C153.93 186.908 157.69 185.708 158.17 187.428C158.65 189.148 158.81 189.988 161.19 189.868C163.57 189.748 163.57 191.608 165.47 192.128L165.75 192.268C165.758 192.222 165.758 192.174 165.75 192.128C166.27 190.728 165.23 190.728 165.23 189.008Z" fill="#294F6E" stroke="#002F57" stroke-width="0.75"/>
<path fill-rule="evenodd" clip-rule="evenodd" d="M168.889 222.708C168.889 220.028 166.389 220.328 165.789 218.488C165.189 216.648 164.189 217.708 163.789 216.488C163.718 216.281 163.617 216.086 163.489 215.908C162.129 216.348 162.629 217.468 162.249 217.528C161.869 217.588 159.069 217.928 159.069 217.148C159.112 215.959 158.248 214.931 157.069 214.768C156.299 214.619 155.513 214.565 154.729 214.608C155.517 216.564 155.899 218.66 155.849 220.768C155.849 223.148 159.409 226.948 159.849 228.488C160.289 230.028 161.389 230.488 163.709 232.188C166.029 233.888 170.549 236.528 171.429 236.188C172.309 235.848 170.069 231.848 168.769 230.488C167.469 229.128 168.829 225.388 168.889 222.708ZM229.709 218.128C228.629 218.368 226.129 218.248 226.129 217.188C226.129 216.128 223.869 214.088 222.449 214.088C221.029 214.088 219.349 216.948 219.229 218.088C219.109 219.228 216.849 219.168 217.089 220.828C217.089 221.488 216.769 221.768 216.229 221.928C216.589 223.368 216.789 224.408 216.229 224.268C215.269 224.028 215.029 225.228 213.609 225.228C213.129 225.228 212.289 223.988 211.429 222.388C210.489 222.388 208.349 225.728 207.869 227.988C207.389 230.248 205.249 229.528 202.029 229.768C198.809 230.008 200.129 233.328 199.429 234.888C198.729 236.448 195.249 233.728 193.429 233.368C193.729 234.648 194.149 235.948 194.629 235.948C195.569 235.948 197.009 238.328 197.949 237.608C198.889 236.888 201.749 237.608 203.189 237.128C204.629 236.648 204.849 235.468 207.189 235.468C209.529 235.468 208.609 237.468 210.989 236.188C213.369 234.908 214.809 235.948 214.549 233.808C214.29 231.668 215.989 231.668 215.749 230.008C215.509 228.348 218.369 229.528 218.129 226.428C217.889 223.328 222.409 223.828 224.309 223.828C224.978 223.916 225.623 224.134 226.209 224.468C227.629 223.768 229.629 222.868 228.709 222.028C227.789 221.188 231.929 221.908 232.389 220.488C232.849 219.068 230.769 217.888 229.709 218.128Z" fill="#294F6E" stroke="#002F57" stroke-width="0.75"/>
<path fill-rule="evenodd" clip-rule="evenodd" d="M213.71 225.268C215.13 225.268 215.37 224.068 216.33 224.308C216.85 224.448 216.65 223.408 216.33 221.968C215.47 222.248 214.33 222.228 214.33 222.888C214.33 223.928 212.53 222.508 211.55 222.428C212.33 224.028 213.17 225.268 213.71 225.268Z" fill="#294F6E" stroke="#002F57" stroke-width="0.75"/>
<path fill-rule="evenodd" clip-rule="evenodd" d="M339.809 50.008C338.969 48.948 337.549 50.608 335.809 50.968C334.069 51.328 328.449 46.688 327.009 44.548C325.569 42.408 323.209 44.188 324.409 45.728C325.609 47.268 324.169 47.728 324.169 49.888C324.169 52.048 322.729 52.028 322.969 53.468C323.209 54.908 320.969 54.648 319.649 54.888C318.329 55.128 319.769 56.548 318.109 57.268C316.449 57.988 316.549 59.168 317.389 59.648C318.229 60.128 317.629 61.648 317.389 62.728C317.149 63.808 318.449 62.968 319.389 61.908C320.329 60.848 321.389 62.408 321.529 61.428C321.669 60.448 319.029 59.648 319.149 58.448C319.269 57.248 321.049 58.808 322.489 58.088C324.604 57.5276 326.859 58.0688 328.489 59.528C330.269 61.068 330.749 60.468 331.109 58.568C331.469 56.668 334.189 55.848 336.929 55.848C339.669 55.848 339.889 54.528 339.069 53.848C338.249 53.168 343.589 49.848 343.469 48.868C343.349 47.888 340.629 51.168 339.809 50.008ZM317.929 66.308C316.729 66.888 315.929 70.588 317.209 71.648C318.489 72.708 315.069 74.748 315.209 77.008C315.349 79.268 313.069 79.268 312.709 81.008C312.349 82.748 311.049 82.308 309.029 83.868C307.009 85.428 305.929 83.628 306.409 82.548C306.889 81.468 303.309 83.148 303.429 85.768C303.549 88.388 300.109 88.608 300.929 89.768C301.749 90.928 298.329 91.668 298.449 90.588C298.569 89.508 296.309 90.128 293.569 91.188C290.829 92.248 289.169 90.008 287.569 91.548C285.969 93.088 283.409 95.828 281.389 96.188C279.369 96.548 280.529 98.988 281.389 98.568C282.809 97.848 285.069 98.568 285.789 97.488C286.509 96.408 292.309 95.108 295.889 94.988C299.469 94.868 297.309 96.668 297.549 98.568C297.789 100.468 300.769 100.108 302.309 98.328C303.849 96.548 305.049 96.668 303.729 95.588C302.409 94.508 303.969 93.588 304.929 94.988C305.594 95.7332 306.566 96.1301 307.562 96.0637C308.559 95.9973 309.469 95.4749 310.029 94.648C311.229 92.648 311.589 94.988 313.009 94.868C314.429 94.748 315.269 91.188 315.389 92.508C315.509 93.828 317.769 93.448 319.189 91.908C320.609 90.368 319.309 87.628 320.269 86.188C321.521 84.3842 321.868 82.1025 321.209 80.008C320.269 78.228 323.349 77.048 324.889 75.608C326.429 74.168 323.109 67.048 322.889 64.908C322.669 62.768 319.109 65.708 317.929 66.308ZM291.709 97.168C291.229 98.488 289.809 97.888 287.909 98.248C286.009 98.608 285.909 103.128 287.309 103.588C288.369 103.948 289.209 103.948 289.569 102.528C289.826 101.876 290.345 101.363 290.999 101.112C291.653 100.861 292.382 100.896 293.009 101.208C294.209 101.808 295.749 99.428 295.749 97.648C295.749 95.868 292.249 95.908 291.709 97.168ZM283.509 101.808C283.509 100.628 280.889 100.868 280.769 99.808C280.649 98.748 278.869 99.328 277.089 100.648C275.309 101.968 274.709 102.188 275.409 103.488C276.109 104.788 277.189 103.608 277.669 102.308C278.149 101.008 279.349 104.208 278.269 106.308C277.189 108.408 278.409 111.468 279.809 111.188C281.209 110.908 282.549 106.668 284.329 104.408C286.109 102.148 283.569 103.048 283.569 101.848L283.509 101.808Z" fill="#294F6E" stroke="#002F57" stroke-width="0.75"/>
<path fill-rule="evenodd" clip-rule="evenodd" d="M295.089 30.5075C295.209 28.3675 292.709 29.0875 291.889 29.6875C291.069 30.2875 288.669 29.6875 287.889 31.1075C287.109 32.5275 285.889 31.7075 284.309 31.9475C282.729 32.1875 280.309 31.4675 280.309 30.3875C280.309 29.3075 279.349 28.2475 279.469 26.9475C279.589 25.6475 277.809 26.2275 276.629 24.9475C275.551 23.895 274.132 23.2635 272.629 23.1675C272.149 23.3875 270.629 21.8475 268.629 21.7275C266.629 21.6075 266.849 20.3075 267.089 19.4675C267.329 18.6275 265.429 16.0275 265.089 14.6075C264.749 13.1875 263.309 12.9275 262.709 9.84748C262.109 6.76748 260.449 7.58749 260.709 6.16749C260.969 4.74749 258.709 4.02748 258.089 3.18748C257.469 2.34748 255.009 2.70748 253.209 1.76748C251.409 0.827479 250.369 1.52748 248.709 1.04748C246.696 0.909917 244.674 1.07169 242.709 1.52749C240.835 1.14198 238.897 1.77286 237.609 3.18748C235.949 5.44748 237.249 5.32748 237.969 5.32748C238.689 5.32748 239.029 7.46748 239.149 8.18748C239.269 8.90748 237.969 9.96748 237.369 10.1875C236.255 11.2453 235.399 12.5456 234.869 13.9875C234.629 14.9275 232.729 17.3075 232.869 18.1475C233.009 18.9875 231.909 19.8075 231.089 19.9275C229.784 20.5179 228.515 21.1858 227.289 21.9275C226.569 22.1675 223.709 21.6875 223.289 20.8675C223.092 20.5378 222.778 20.2948 222.409 20.1875L219.709 26.7675L219.449 28.7675C219.449 28.7675 217.449 29.2875 218.929 30.7675C220.409 32.2475 220.729 31.0275 223.069 31.0275C225.409 31.0275 226.429 32.8475 226.949 31.5475C227.271 30.8103 227.955 30.2951 228.753 30.1888C229.55 30.0825 230.345 30.4005 230.849 31.0275C232.129 32.5875 236.289 35.1675 236.029 36.4675C235.769 37.7675 233.429 37.5075 231.869 36.9875C230.309 36.4675 228.249 38.0275 226.709 38.0275C224.862 38.0101 223.084 38.7299 221.769 40.0275C220.229 41.5875 220.489 43.1475 218.149 43.4075C216.003 43.3071 213.886 43.9421 212.149 45.2075C210.232 46.5102 207.77 46.7078 205.669 45.7275C205.021 45.334 204.24 45.2224 203.507 45.4188C202.774 45.6152 202.154 46.1024 201.789 46.7675C200.749 48.5875 203.089 49.3475 202.829 51.4275C202.569 53.5075 199.969 52.9875 197.909 55.3075C196.063 57.3613 193.409 58.5018 190.649 58.4275C188.829 58.1675 184.949 57.1275 181.589 58.6875C178.229 60.2475 175.889 62.5675 174.589 62.3075C173.289 62.0475 173.289 60.4875 171.489 60.7475C170.029 60.9645 168.542 60.5981 167.349 59.7275C166.049 58.9475 165.009 60.2275 162.929 58.6875C160.849 57.1475 157.229 57.3875 155.689 57.1275C154.149 56.8675 148.169 57.1275 146.089 56.8675C144.009 56.6075 141.169 57.3875 140.909 56.3475C140.649 55.3075 139.109 54.5275 138.589 52.2075C138.42 50.5216 137.156 49.1512 135.489 48.8475C134.189 48.5875 134.029 47.2075 132.889 47.0275C132.349 46.9275 131.689 45.2075 129.869 45.2075C128.049 45.2075 121.729 44.4675 120.829 42.9875C119.929 41.5075 121.729 41.1675 121.729 39.6875C121.729 38.2075 122.709 36.2475 121.969 35.6875C120.952 34.9263 120.203 33.8618 119.829 32.6475C119.25 31.1692 117.936 30.1052 116.369 29.8475C114.979 29.5872 113.709 28.8859 112.749 27.8475C111.529 26.7675 110.369 26.8475 109.869 24.1475C109.841 23.9848 109.801 23.8243 109.749 23.6675C109.249 23.6675 108.609 23.4075 108.209 23.4075C107.793 23.3348 107.417 23.1147 107.149 22.7875C106.829 23.9275 105.749 24.4875 105.749 25.3675C105.749 26.2475 105.349 27.5875 104.029 27.5875C102.709 27.5875 101.489 28.5875 101.389 30.6475C101.289 32.7075 102.549 32.9475 101.969 33.8475C101.022 34.9154 99.6038 35.4405 98.1891 35.2475C96.9721 34.9993 95.7307 34.892 94.4891 34.9275C93.1691 34.7675 92.1691 33.1075 91.7691 34.9275C91.3691 36.7475 88.6491 42.0875 89.3091 42.6675C89.9691 43.2475 90.4491 44.5475 89.3091 44.5475C88.2913 44.6566 87.2683 44.3937 86.4291 43.8075C85.8491 43.2275 83.9491 44.6075 82.6291 44.5475C82.0091 44.5475 79.4291 45.6875 80.3291 46.1275C81.2291 46.5675 81.2091 48.7075 81.2091 49.6075C81.2091 50.5075 83.2091 53.1675 82.8291 54.0675C82.4491 54.9675 80.6891 55.9275 80.6891 57.0875C80.6891 58.2475 81.0291 59.3275 80.4091 59.5875C79.176 60.083 77.9854 60.6783 76.8491 61.3675C75.8691 62.0875 74.2691 62.0875 73.7291 63.1675C73.2241 64.4584 71.871 65.2064 70.5091 64.9475C68.9091 64.7675 68.1091 64.4875 66.8491 66.0075C65.5891 67.5275 65.3491 66.9075 64.4491 67.6075C63.5491 68.3075 62.6691 67.0875 61.9491 66.8075C61.2291 66.5275 60.2691 67.6075 59.5491 67.6075C58.8291 67.6075 58.2091 68.7675 57.3291 69.0475C56.4491 69.3275 55.5291 69.0475 55.5291 70.1075C55.5545 70.8315 55.3204 71.5407 54.8691 72.1075L55.4891 75.5875C55.4891 75.5875 59.3091 76.8675 59.4891 78.1475C59.6691 79.4275 60.2891 83.5275 60.2891 83.5275H60.1691C61.7091 84.7475 63.8291 86.0275 63.8291 86.5075C63.8447 87.8196 64.6271 89.0011 65.8291 89.5275C66.9157 90.0095 67.9652 90.5711 68.9691 91.2075L69.1291 90.8275L70.7091 90.6675C71.0486 90.8783 71.3581 91.1339 71.6291 91.4275C72.6286 89.8632 74.3339 88.8909 76.1891 88.8275C77.7091 88.8275 81.1691 91.6675 80.8091 92.6475C80.4491 93.6275 77.9691 97.2075 76.8091 97.4675C76.2422 97.5777 75.6666 97.6379 75.0891 97.6475C74.983 98.116 74.9029 98.5901 74.8491 99.0675C74.8491 99.8675 76.2691 101.067 77.0691 102.567C77.8691 104.067 75.7891 104.947 74.6891 103.987C73.5891 103.027 73.1091 104.947 73.7291 105.747C74.3491 106.547 74.0491 108.767 75.1691 108.927C76.2891 109.087 77.1691 111.307 78.4891 111.307C79.8091 111.307 80.8891 113.307 80.8891 113.307C80.8891 113.307 82.6291 114.407 82.6291 115.047C82.6465 115.127 82.6465 115.208 82.6291 115.287C84.0091 115.147 84.9291 115.107 85.0891 114.527C85.2491 113.947 87.0891 113.907 88.3091 115.147C89.5291 116.387 94.6291 119.607 96.5091 121.147C98.7973 122.815 101.464 123.887 104.269 124.267C105.789 124.267 107.209 125.347 109.529 125.247H110.449C110.769 124.907 111.329 124.887 111.749 124.267C112.389 123.307 113.349 125.047 113.029 126.267C112.899 126.862 112.977 127.483 113.249 128.027C113.608 127.491 113.916 126.922 114.169 126.327C114.969 124.327 116.169 124.447 117.009 123.827C117.849 123.207 118.629 123.467 120.309 124.367C121.989 125.267 122.569 123.427 124.949 125.627C125.398 125.402 125.876 125.24 126.369 125.147C126.829 125.147 127.469 124.207 128.369 123.407C129.269 122.607 129.009 121.647 129.949 121.807C130.889 121.967 131.389 120.707 133.449 119.587C135.509 118.467 137.249 120.227 138.209 119.427C139.169 118.627 140.209 118.327 140.209 119.127C140.209 119.927 141.489 120.867 141.809 121.807C142.129 122.747 143.809 123.007 144.109 123.067L144.789 122.667C145.286 122.371 145.895 122.332 146.426 122.562C146.957 122.791 147.345 123.262 147.469 123.827C147.469 124.907 147.469 126.067 148.349 126.067C149.229 126.067 149.969 126.067 149.969 128.067C149.969 130.068 150.669 132.247 148.989 133.947C147.309 135.647 145.329 138.667 145.689 139.567C146.049 140.467 145.149 142.147 146.389 141.567C147.629 140.987 150.489 141.567 150.049 142.287C149.609 143.007 150.049 145.487 151.289 145.587C152.529 145.687 153.169 146.287 152.809 147.367C152.449 148.447 151.829 150.047 152.809 150.047C153.789 150.047 155.229 150.047 155.049 151.107C154.869 152.167 155.749 153.107 157.529 152.447C158.589 152.027 159.109 151.647 159.349 152.067C160.049 152.067 160.109 153.667 161.349 153.967C162.589 154.267 161.989 151.267 161.509 150.787C161.029 150.307 161.669 148.247 162.149 148.787C162.629 149.327 164.149 148.787 164.849 147.827C165.549 146.867 167.229 148.627 167.869 147.507C168.509 146.387 169.869 148.307 171.349 147.507C172.829 146.707 173.349 148.147 174.049 147.047C174.749 145.947 176.749 144.507 177.229 145.047C177.978 146.156 179.232 146.816 180.569 146.807C183.109 147.127 181.669 148.387 181.669 149.187C181.669 149.987 184.529 152.047 185.669 152.207C185.869 152.207 186.149 152.487 186.489 152.867C187.249 152.487 188.629 153.107 188.949 152.207C189.269 151.307 190.609 151.427 191.129 152.327C191.649 153.227 192.269 153.387 193.449 152.327C194.629 151.267 195.249 153.387 194.529 153.987C193.809 154.587 194.289 156.427 195.429 157.487C196.569 158.547 196.729 156.847 196.489 155.767C196.249 154.687 198.389 153.627 202.129 152.387C205.869 151.147 209.929 148.387 209.989 147.807C210.049 147.227 212.669 148.867 213.989 147.927C215.309 146.987 219.749 146.847 220.949 146.787C222.149 146.727 222.069 145.727 223.329 144.787C224.589 143.847 224.269 143.307 225.709 142.787C226.877 142.477 227.768 141.532 228.009 140.347C228.009 139.647 230.689 139.407 230.749 138.627C230.809 137.847 232.749 137.627 232.749 136.627C232.749 135.627 233.949 135.847 234.489 135.147C235.029 134.447 234.069 132.347 235.009 132.047C235.949 131.747 234.649 130.627 234.489 130.047C234.329 129.467 236.269 129.387 237.269 128.747C238.263 128.128 238.935 127.105 239.109 125.947C239.289 124.807 240.949 123.807 241.729 123.507C242.509 123.207 242.809 121.607 242.569 120.247C242.329 118.887 243.929 119.227 243.209 118.687C242.489 118.147 243.509 116.687 244.929 116.247C246.349 115.807 244.049 115.187 243.269 115.787C242.489 116.387 241.669 114.047 240.949 114.947C240.229 115.847 238.229 114.407 239.529 114.107C240.977 113.532 242.387 112.864 243.749 112.107C244.649 111.807 242.449 109.847 241.309 109.907C240.169 109.967 238.929 107.307 237.749 107.307C236.569 107.307 238.629 106.467 240.009 107.187C241.389 107.907 242.969 108.487 243.569 107.887C244.169 107.287 241.249 104.927 240.189 104.087C239.129 103.247 240.189 102.087 239.469 101.647C238.363 100.166 237.499 98.5193 236.909 96.7675C236.449 95.4075 233.949 95.1675 233.349 94.2875C232.749 93.4075 233.349 91.3075 235.249 90.5275C237.149 89.7475 236.329 88.2075 237.249 88.3875C238.169 88.5675 238.789 88.2075 239.449 86.8475C240.109 85.4875 241.229 86.3075 241.889 85.6075C242.549 84.9075 245.449 84.9475 246.469 84.2275C247.489 83.5075 245.509 81.3275 244.149 81.6675C242.609 82.0651 240.99 81.4173 240.149 80.0675C239.189 78.6475 236.689 82.6875 234.789 83.5875C232.889 84.4875 231.649 81.9675 232.289 80.3675C232.929 78.7675 230.809 78.8275 228.129 78.9475C225.449 79.0675 226.469 74.1875 228.129 73.9475C229.789 73.7075 232.129 75.4275 233.129 72.4675C234.129 69.5075 235.569 71.8075 237.829 69.1875C240.089 66.5675 242.709 64.9675 244.669 66.5075C246.629 68.0475 242.669 70.5075 241.929 71.9875C241.189 73.4675 242.529 73.9875 241.329 75.0675C240.129 76.1475 241.809 76.5075 244.129 75.0675C246.482 73.4698 248.971 72.0844 251.569 70.9275C252.207 70.6899 252.891 70.601 253.569 70.6675C253.731 69.9703 254.126 69.3494 254.689 68.9075C256.249 68.1275 261.429 65.7875 262.209 64.7675C262.989 63.7475 263.769 61.9075 264.789 61.9075C265.809 61.9075 265.829 62.9475 267.389 62.9475C268.949 62.9475 270.749 63.4675 269.969 62.1675C269.189 60.8675 269.729 60.8675 271.529 60.6075C273.329 60.3475 273.089 58.6075 274.389 58.6075C275.689 58.6075 275.409 55.4875 276.709 55.4875C278.009 55.4875 278.529 57.3075 280.089 56.7875C280.463 56.7094 280.853 56.7661 281.189 56.9475L282.169 56.2075C282.18 54.922 282.086 53.6378 281.889 52.3675C281.289 50.9475 281.889 49.8675 281.649 49.0475C281.409 48.2275 281.289 46.1875 282.229 46.1875C283.169 46.1875 284.369 43.8075 285.569 44.6475C286.769 45.4875 289.129 45.7075 289.129 44.6475C289.129 43.5875 290.789 43.4475 291.129 42.0275C291.469 40.6075 293.129 40.2475 293.509 38.9275C293.889 37.6075 294.469 34.5275 295.649 33.8275C296.829 33.1275 294.969 32.6475 295.089 30.5075ZM236.829 143.167C235.529 147.927 238.569 150.347 238.969 150.067C240.169 149.227 244.969 139.007 243.969 137.587C242.969 136.167 238.149 138.347 236.829 143.167ZM194.389 159.347C192.849 159.347 188.909 161.607 190.389 164.807C191.869 168.007 197.049 165.867 197.169 164.447C197.289 163.027 199.609 160.787 199.309 159.687C199.009 158.587 195.929 159.287 194.389 159.287V159.347Z" fill="#294F6E" stroke="#002F57" stroke-width="0.75"/>
<path fill-rule="evenodd" clip-rule="evenodd" d="M245.149 185.907C247.409 185.547 250.509 188.407 250.029 189.487C249.549 190.567 250.149 193.987 251.229 193.047C252.309 192.107 253.949 193.287 252.889 194.827C251.829 196.367 254.549 197.927 254.889 199.827C255.229 201.727 256.429 200.187 256.189 198.747C255.949 197.307 256.429 197.447 257.969 196.367C259.509 195.287 257.849 193.527 256.909 191.507C255.969 189.487 252.389 190.187 252.389 188.287C252.389 186.387 249.769 185.787 249.649 184.727C249.529 183.667 246.089 182.587 244.069 183.767C242.049 184.947 243.469 181.627 242.069 180.087C240.669 178.547 243.129 176.287 244.809 174.367C246.489 172.447 244.329 169.267 244.569 167.847C244.809 166.427 244.689 165.847 243.849 166.407C243.009 166.967 239.569 164.987 238.029 165.927C236.489 166.867 237.909 174.727 237.189 175.327C236.469 175.927 235.549 174.047 235.189 174.847C234.829 175.647 235.309 180.327 236.249 180.327C237.189 180.327 237.929 181.507 237.329 183.407C236.729 185.307 239.109 185.547 241.329 184.727C243.549 183.907 242.889 186.267 245.149 185.907ZM237.549 186.987C237.909 188.647 238.729 192.087 241.349 191.267C243.969 190.447 237.289 185.787 237.549 186.987ZM244.209 198.507C244.809 198.387 246.209 198.507 246.349 197.327C246.489 196.147 247.769 199.467 246.709 200.527C245.649 201.587 245.629 204.527 247.289 204.927C248.949 205.327 252.049 199.587 251.569 198.507C251.089 197.427 249.669 199.227 250.029 197.807C250.389 196.387 245.749 192.687 244.029 193.047C242.309 193.407 242.809 198.787 244.209 198.507ZM230.209 200.767C228.549 202.907 224.569 206.467 225.109 207.427C225.809 208.747 230.209 202.207 232.349 200.647C233.121 200.282 233.689 199.59 233.898 198.762C234.107 197.934 233.935 197.055 233.429 196.367C232.669 194.947 231.849 198.627 230.169 200.767H230.209ZM251.329 203.167C251.809 204.367 255.329 202.467 254.309 201.167C253.289 199.867 250.989 202.267 251.329 203.167ZM262.049 212.447C263.469 210.787 261.089 206.447 261.089 203.527C261.089 200.607 257.089 201.527 258.229 203.287C259.369 205.047 256.229 203.647 255.969 205.427C255.709 207.207 253.469 205.787 253.589 207.207C253.709 208.627 251.229 207.207 250.029 206.387C248.829 205.567 247.169 208.647 245.389 209.107C243.609 209.567 242.669 213.387 243.849 213.267C245.029 213.147 245.989 211.267 247.409 211.367C248.829 211.467 248.369 209.947 250.389 210.307C252.409 210.667 250.989 216.727 253.729 217.207C256.469 217.687 256.569 219.347 257.869 219.347C259.169 219.347 257.649 215.547 257.769 214.227C257.889 212.907 260.609 214.087 262.049 212.427V212.447Z" fill="#294F6E" stroke="#002F57" stroke-width="0.75"/>
<path fill-rule="evenodd" clip-rule="evenodd" d="M357.269 282.568C356.449 282.208 354.309 280.788 354.429 279.848C354.549 278.908 352.049 279.008 350.429 277.848C348.809 276.688 349.349 273.328 347.569 272.488C345.789 271.648 344.469 269.048 346.609 269.148C348.749 269.248 349.109 268.088 347.449 266.548C345.789 265.008 339.729 264.408 339.449 262.148C339.169 259.888 328.389 254.528 323.629 253.468C322.789 253.268 321.769 252.968 320.649 252.588V277.968C321.915 278.833 323.398 279.325 324.929 279.388C330.169 279.628 328.929 276.648 329.809 276.648C330.689 276.648 331.129 274.988 332.189 273.668C333.249 272.348 337.889 273.448 340.629 275.568C343.369 277.688 346.629 284.028 349.429 283.428C352.229 282.828 355.249 285.088 357.869 284.968C360.489 284.848 358.109 282.928 357.269 282.568ZM364.049 261.408C364.049 262.488 362.149 263.068 359.169 264.268C356.189 265.468 350.809 262.908 350.609 264.628C350.509 265.688 353.949 267.588 357.149 267.588C360.349 267.588 365.489 264.388 365.489 263.428C365.489 262.468 367.489 260.808 366.669 259.868C365.849 258.928 364.049 260.348 364.049 261.408ZM368.049 256.888C366.049 255.708 364.489 254.888 366.869 257.128C369.249 259.368 367.969 261.308 369.369 260.928C371.709 260.348 369.989 258.088 368.089 256.888H368.049Z" fill="#294F6E" stroke="#002F57" stroke-width="0.75"/>
<path fill-rule="evenodd" clip-rule="evenodd" d="M79.7095 202.087C78.6495 202.207 78.8695 204.347 78.2895 205.887C77.7716 207.62 77.6892 209.454 78.0495 211.227C78.2895 213.487 78.0495 215.867 80.0495 217.227C82.3695 218.727 86.0495 214.847 86.2295 211.507C86.4095 208.167 80.6695 201.987 79.7095 202.087Z" fill="#294F6E" stroke="#002F57" stroke-width="0.75"/>
<path fill-rule="evenodd" clip-rule="evenodd" d="M371.089 358.427C371.809 357.887 370.749 355.047 370.109 355.487C369.469 355.927 369.489 351.027 369.949 348.807C370.409 346.587 370.109 346.807 368.949 347.987C367.789 349.167 366.549 345.767 366.289 344.867C366.029 343.967 364.669 341.487 363.169 341.847C361.669 342.207 362.629 339.707 361.169 339.967C359.709 340.227 359.469 337.967 359.729 335.787C359.989 333.607 358.749 335.327 358.129 334.447C357.509 333.567 356.789 334.267 355.809 334.627C354.829 334.987 354.569 332.747 354.829 331.847C355.089 330.947 354.649 329.847 353.309 328.907C352.281 328.314 351.742 327.133 351.969 325.967C352.069 324.807 344.389 320.887 342.709 320.527C341.029 320.167 342.429 318.387 341.709 317.767C340.909 316.265 340.569 314.561 340.729 312.867C340.729 310.867 338.249 310.267 338.329 308.667C338.409 307.067 337.609 305.547 337.789 303.767C337.969 301.987 335.209 301.547 335.129 300.547C335.049 299.547 333.509 300.547 332.009 300.647C330.509 300.747 330.569 298.647 330.749 296.647C330.954 294.347 330.283 292.054 328.869 290.227C327.629 289.247 327.549 285.867 326.869 285.327C326.189 284.787 324.209 287.107 324.289 288.267C324.452 289.433 324.094 290.61 323.309 291.487C322.509 292.187 323.849 294.967 322.769 295.947C321.689 296.927 322.769 300.847 322.409 303.067C322.457 305.187 322.034 307.291 321.169 309.227C320.109 310.747 319.929 313.227 317.789 313.947C315.649 314.667 312.789 313.067 312.869 311.947C312.949 310.827 310.549 310.067 309.309 310.247C308.069 310.427 307.309 308.647 305.309 307.127C303.309 305.607 301.829 307.487 301.309 305.707C300.789 303.927 300.049 303.707 298.629 302.667C297.209 301.627 297.649 301.687 298.989 300.667C300.329 299.647 300.049 298.427 299.349 297.267C298.649 296.107 300.149 296.387 301.929 295.407C303.709 294.427 301.929 293.267 303.269 292.727C304.609 292.187 303.809 291.027 302.369 290.727C300.929 290.427 301.389 292.147 300.849 292.327C300.309 292.507 299.789 290.107 299.349 290.187C298.909 290.267 297.209 292.607 296.309 291.447C295.409 290.287 290.429 289.307 288.469 289.027C286.509 288.747 285.869 286.267 284.709 286.707C283.549 287.147 284.889 287.967 286.229 289.387C287.569 290.807 281.769 291.787 280.089 291.267C278.409 290.747 280.349 292.507 278.929 292.427C277.509 292.347 277.229 294.827 276.069 296.067C274.909 297.307 275.709 298.227 274.469 299.027C273.229 299.827 273.129 300.707 274.649 302.407C276.169 304.107 273.929 304.187 272.649 302.847C271.369 301.507 269.969 301.527 270.069 303.027C270.169 304.527 268.469 303.847 268.729 302.147C268.989 300.447 266.849 301.247 266.489 300.267C265.826 298.942 264.571 298.013 263.109 297.767C261.949 297.867 261.949 299.107 260.789 299.107C259.629 299.107 259.369 299.727 259.549 300.987C259.729 302.247 257.769 300.887 256.429 300.987C255.089 301.087 256.429 302.687 255.709 302.767C254.989 302.847 254.989 304.107 253.829 304.107C252.669 304.107 252.849 306.687 253.029 308.107C253.209 309.527 251.249 307.487 250.089 307.847C248.929 308.207 250.349 309.367 250.709 310.887C251.069 312.407 250.089 312.307 249.469 312.887C248.849 313.467 247.869 311.187 247.869 309.867C247.869 308.547 246.349 309.767 244.729 311.467C243.109 313.167 245.269 315.747 244.569 316.187C242.465 317.912 240.523 319.827 238.769 321.907C236.889 324.127 232.889 322.787 231.629 323.907C230.369 325.027 229.049 324.167 227.789 325.147C226.529 326.127 224.229 328.007 223.969 326.847C223.709 325.687 220.489 326.567 219.149 328.007C217.829 329.449 216.073 330.419 214.149 330.767C212.629 330.767 212.629 333.167 212.009 333.707C211.389 334.247 211.569 331.827 211.569 331.207C211.569 330.587 210.149 332.287 209.569 334.147C208.989 336.007 211.089 336.747 209.749 338.707C208.409 340.667 207.169 342.707 209.049 345.127C210.929 347.547 211.989 349.227 211.369 350.467C210.749 351.707 209.369 347.967 208.949 348.467C208.529 348.967 210.649 350.467 210.109 351.307C209.569 352.147 207.649 348.287 207.249 349.167C206.849 350.047 211.249 356.047 211.369 358.267C211.489 360.487 214.929 362.647 214.749 365.847C214.569 369.047 217.789 374.227 218.309 375.027C218.829 375.827 217.069 377.987 217.429 380.387C217.789 382.787 216.629 383.687 215.109 383.687C213.589 383.687 214.489 386.187 216.169 386.367C217.849 386.547 217.249 387.707 219.109 388.947C220.969 390.187 225.449 389.747 226.969 389.747C228.489 389.747 228.969 387.427 230.969 387.347C232.969 387.267 232.849 386.627 233.829 385.347C234.809 384.067 239.449 384.447 244.169 384.707C248.889 384.967 250.949 383.547 251.669 381.587C252.389 379.627 255.669 379.807 257.009 378.567C258.349 377.327 259.509 377.227 263.009 377.407C266.509 377.587 269.689 375.707 271.929 374.827C274.169 373.947 278.269 374.287 280.389 373.747C282.509 373.207 282.889 376.427 285.309 376.147C287.729 375.867 288.789 376.867 290.029 376.787C291.269 376.707 291.109 377.667 292.349 377.947C293.589 378.227 293.409 379.267 292.609 380.427C291.809 381.587 294.489 381.507 296.189 383.827C297.889 386.147 296.189 386.507 297.169 388.287C298.149 390.067 298.689 389.627 300.469 387.127C302.249 384.627 304.209 386.227 304.469 384.087C304.729 381.947 306.609 379.447 307.869 380.527C309.129 381.607 306.969 382.127 306.169 386.227C305.369 390.327 303.949 388.227 303.669 389.347C303.389 390.467 307.409 391.127 307.409 388.987C307.409 386.847 308.129 385.867 309.649 387.827C311.169 389.787 308.749 391.407 309.109 392.287C309.469 393.167 311.109 392.027 312.049 392.107C313.649 392.267 315.809 395.767 315.449 397.647C315.089 399.527 314.549 401.307 317.589 402.827C320.629 404.347 319.449 404.607 321.689 404.607C324.578 404.918 327.357 405.89 329.809 407.447C331.049 408.527 334.269 406.647 334.889 404.507C335.509 402.367 337.829 404.507 336.569 405.127C335.309 405.747 337.209 407.547 337.289 406.387C337.369 405.227 337.909 404.247 338.369 405.587C338.829 406.927 340.369 406.927 341.029 407.987C341.689 409.047 342.369 409.867 342.369 408.967C342.369 408.067 342.729 407.267 344.149 406.747C345.578 406.046 346.877 405.106 347.989 403.967C349.509 402.727 355.749 402.467 356.369 402.467C356.989 402.467 357.349 397.107 357.709 394.347C358.069 391.587 360.389 391.127 360.749 388.187C361.109 385.247 364.229 379.807 365.029 379.547C366.316 379.2 367.264 378.109 367.429 376.787C367.429 375.087 369.569 373.207 369.569 371.167C369.569 369.127 370.729 366.707 370.549 366.087C369.972 364.768 370.147 363.241 371.009 362.087C372.249 360.667 370.389 358.967 371.089 358.427ZM281.709 288.607C281.529 287.547 275.189 288.767 276.529 289.847C277.469 290.567 281.929 289.687 281.709 288.607ZM301.709 394.187C302.689 395.087 305.989 394.807 306.529 393.567C307.069 392.327 300.929 393.387 301.809 394.187H301.709ZM342.109 418.967C339.709 419.247 336.109 416.787 335.249 416.967C334.389 417.147 338.369 423.367 337.129 424.967C335.889 426.567 340.769 430.967 342.469 431.207C344.169 431.447 343.549 429.507 344.709 429.607C345.869 429.707 345.409 428.447 345.589 427.607C345.769 426.767 346.929 428.587 347.909 428.047C348.889 427.507 347.649 423.687 349.069 423.687C350.489 423.687 349.349 419.047 348.889 417.527C348.429 416.007 344.529 418.707 342.109 418.967Z" fill="#294F6E" stroke="#002F57" stroke-width="0.75"/>
<path fill-rule="evenodd" clip-rule="evenodd" d="M454.209 418.167C452.949 417.287 452.329 418.527 450.989 419.147C449.649 419.767 448.769 416.207 446.989 417.547C445.209 418.887 446.809 419.427 444.989 421.027C443.169 422.627 443.909 423.167 441.689 426.647C439.469 430.127 431.689 432.087 430.629 433.967C429.569 435.847 425.629 437.348 425.549 438.768C425.469 440.188 423.109 441.227 424.469 443.147C425.549 444.667 426.969 443.587 428.129 444.747C429.289 445.907 430.449 444.927 430.989 445.907C431.529 446.887 435.449 446.888 438.389 444.208C441.329 441.528 439.909 440.208 441.049 439.568C442.189 438.928 442.389 436.728 443.049 435.388C443.641 433.485 445.543 432.308 447.509 432.628C450.709 432.628 449.029 432.007 448.849 430.487C448.669 428.967 451.529 428.707 451.529 426.727C451.529 424.747 455.529 422.987 454.649 421.467C453.769 419.947 455.449 419.167 454.209 418.167ZM428.429 448.948C429.069 449.128 431.109 448.587 429.949 447.167C428.789 445.747 426.969 448.528 428.429 448.948ZM468.749 403.828C467.949 405.148 466.329 403.467 464.749 403.467C464.101 403.497 463.47 403.25 463.013 402.789C462.556 402.328 462.315 401.696 462.349 401.047C462.349 399.707 461.989 397.747 460.569 397.847C459.149 397.947 461.009 399.368 460.469 400.068C459.929 400.768 459.589 399.268 458.869 399.268C458.149 399.268 457.349 398.288 457.349 396.508C457.349 394.728 455.849 394.907 455.849 392.847C455.849 390.787 452.629 389.188 450.849 389.188C449.069 389.188 451.209 392.407 452.089 393.467C452.969 394.527 454.949 395.468 454.869 396.328C455.142 397.708 456.024 398.892 457.269 399.547C458.329 399.887 456.649 403.007 456.649 405.547C456.649 408.087 454.649 407.548 453.349 409.208C452.049 410.868 456.729 412.427 458.689 414.027C460.649 415.627 457.009 419.568 457.529 420.448C458.562 421.276 459.961 421.483 461.189 420.987C463.189 420.447 464.229 415.987 465.649 414.747C467.069 413.507 466.189 411.527 466.909 410.547C467.629 409.567 468.589 409.647 469.569 409.647C470.549 409.647 470.009 407.247 471.269 407.247C472.529 407.247 471.889 405.548 472.609 403.688C473.329 401.828 469.549 402.488 468.749 403.828Z" fill="#294F6E" stroke="#002F57" stroke-width="0.75"/>
<path fill-rule="evenodd" clip-rule="evenodd" d="M56.1091 83.1677C55.2691 83.2877 55.4491 82.5677 54.5691 82.0277C53.6891 81.4877 51.7291 83.5277 50.1691 84.9077L48.1691 85.6277C47.2891 85.8877 46.5691 85.9677 46.1691 85.6277C45.2091 84.5077 47.7491 81.6277 46.0091 80.8677C44.2691 80.1077 45.8491 77.6877 44.4291 77.5277C43.0091 77.3677 40.7691 79.9077 40.7691 81.0277C40.7691 82.1477 36.9691 81.8077 36.9691 82.9277C36.9691 84.0477 33.4691 82.7677 32.8291 84.0277C32.1891 85.2877 30.4491 83.0877 29.3491 83.0877C28.2491 83.0877 27.3491 81.4877 26.0091 81.9677C24.6691 82.4477 23.7891 81.4877 22.6691 81.3277C21.5491 81.1677 20.7691 83.7077 19.5091 83.3277C18.2491 82.9477 17.5091 85.7077 17.1091 87.3277C16.7091 88.9477 11.2491 88.9077 11.4091 90.6677C11.5691 92.4277 8.22908 93.0477 7.90908 91.9277C7.58908 90.8077 5.52908 91.4677 5.04908 91.1477C4.56908 90.8277 3.14907 91.4677 3.30907 93.0477C3.46907 94.6277 1.86908 95.5877 1.70908 96.2277C1.54908 96.8677 0.609076 98.7677 1.24908 99.7077C1.88908 100.648 0.449076 102.248 1.24908 104.008C2.04908 105.768 1.54909 108.008 1.86909 108.608C2.18909 109.208 5.20909 108.928 5.86909 110.608C6.52909 112.288 1.86909 115.368 1.72909 116.328C1.72909 116.728 2.04908 117.168 2.54908 117.668C4.62166 117.76 6.68604 117.987 8.72909 118.348C14.1738 118.29 19.5947 117.619 24.8891 116.348C25.1291 115.868 24.4291 112.888 24.5491 112.348C25.2143 111.203 26.4252 110.484 27.7491 110.448C29.1891 110.568 30.4891 110.808 30.4891 109.748C30.4891 108.688 34.4891 107.368 34.7691 108.308C35.0491 109.248 36.5491 108.908 36.6691 106.528C36.7891 104.148 36.5491 102.368 37.9691 102.248C39.3891 102.128 40.8291 101.308 40.7091 100.588C40.5891 99.8677 38.9291 98.4477 39.4091 97.9677C39.8891 97.4877 43.4091 99.1677 43.9291 98.0877C44.4491 97.0077 43.6891 95.8277 44.2891 94.8877C44.8891 93.9477 46.2891 92.8877 46.1891 92.0277C46.0891 91.1677 46.3091 90.4877 45.4691 89.6477C44.6291 88.8077 44.9891 87.7477 46.0691 87.6477C46.2856 87.6056 46.4903 87.5169 46.6691 87.3877C47.3781 87.2874 48.0588 87.0423 48.6691 86.6677C50.2264 85.5019 52.1474 84.9277 54.0891 85.0477C55.5466 85.3437 57.0545 84.8763 58.0891 83.8077C57.4918 83.4348 56.8117 83.2149 56.1091 83.1677Z" fill="#294F6E" stroke="#002F57" stroke-width="0.75"/>
<path fill-rule="evenodd" clip-rule="evenodd" d="M65.8495 89.7478C64.6474 89.2215 63.865 88.04 63.8495 86.7278C63.8495 86.2478 61.7295 84.9678 60.1895 83.7478C59.9895 83.7478 59.5095 83.8478 58.9695 83.9878C58.7499 83.7895 58.5001 83.6274 58.2295 83.5078C57.1949 84.5763 55.687 85.0438 54.2295 84.7478C52.2878 84.6278 50.3668 85.202 48.8094 86.3678C48.1992 86.7425 47.5184 86.9875 46.8094 87.0878C46.6307 87.217 46.426 87.3057 46.2095 87.3478C45.1295 87.4678 44.7695 88.5278 45.6095 89.3478C46.4495 90.1678 46.2095 90.7678 46.3295 91.7278C46.4495 92.6878 45.0095 93.7278 44.4295 94.5878C43.8495 95.4478 44.5495 96.7078 44.0695 97.7878C43.5895 98.8678 40.0695 97.1878 39.5495 97.6678C39.0295 98.1478 40.7295 99.6678 40.8495 100.288C40.9695 100.908 39.5494 101.828 38.1095 101.948C36.6695 102.068 36.9294 103.848 36.8094 106.228C36.6894 108.608 35.2695 108.968 34.9095 108.008C34.5495 107.048 30.6295 108.368 30.6295 109.448C30.6295 110.528 29.3295 110.268 27.8895 110.148C26.5655 110.184 25.3546 110.903 24.6895 112.048C24.5695 112.648 25.2694 115.628 25.0294 116.048C19.735 117.32 14.3142 117.99 8.86946 118.048C6.82642 117.687 4.76204 117.46 2.68945 117.368C3.44903 117.96 4.08733 118.694 4.56946 119.528C5.3845 121.189 6.78921 122.487 8.50946 123.168C10.5095 123.968 9.44946 127.288 10.5095 127.608C11.5695 127.928 12.7295 130.468 11.4695 130.628C10.1915 130.776 8.95121 131.155 7.80945 131.748C6.22643 132.502 5.23251 134.115 5.26945 135.868V136.868C7.78225 137.089 10.3143 136.907 12.7695 136.328C13.6026 135.539 14.8368 135.348 15.8695 135.848C17.9639 136.601 20.255 136.601 22.3495 135.848C24.3495 134.768 25.4895 135.848 25.5495 136.808C25.6095 137.768 26.5095 138.168 27.3895 139.008C28.2694 139.848 27.6295 140.788 28.2295 141.748C28.8295 142.708 30.0095 142.508 31.7295 143.288C31.9632 143.385 32.1794 143.52 32.3695 143.688L32.6295 143.388C33.5895 142.288 33.7495 140.368 36.2895 140.848C38.8295 141.328 38.6694 140.368 40.0894 140.688C41.5094 141.008 42.4695 140.848 43.1095 139.908C43.7495 138.968 42.4695 137.048 41.6895 136.248C40.5784 135.163 39.9451 133.681 39.9295 132.128C40.0895 130.528 37.3895 130.528 37.3895 129.268C37.3895 128.008 39.9295 125.928 40.4095 125.448C40.8895 124.968 42.9495 126.728 43.4295 125.768C43.9095 124.808 45.3295 125.448 46.1295 125.608C46.9295 125.768 48.1295 124.028 48.3495 122.588C48.5695 121.148 51.2095 121.008 51.6895 120.588C52.3119 119.198 52.8398 117.768 53.2695 116.308C53.5895 115.668 55.6495 116.148 55.6495 114.408C55.5805 113.837 55.7603 113.264 56.1431 112.836C56.5259 112.407 57.0747 112.164 57.6495 112.168C58.5895 112.008 58.2695 110.428 58.4295 109.168C58.445 107.856 59.2274 106.674 60.4295 106.148C61.7095 105.828 59.9695 104.148 58.4295 104.388C56.8895 104.628 56.0495 100.588 56.0495 100.588C56.0495 100.588 56.2095 97.2478 55.4095 96.7678C54.6095 96.2878 55.7295 94.5478 57.4095 94.5478C59.0895 94.5478 62.3295 96.5478 63.4095 95.6678C64.6893 95.0094 66.0286 94.4737 67.4095 94.0678C67.8895 93.8278 68.5495 92.3078 68.8295 91.6078C67.8825 90.9164 66.8866 90.2948 65.8495 89.7478Z" fill="#294F6E" stroke="#002F57" stroke-width="0.75"/>
<path fill-rule="evenodd" clip-rule="evenodd" d="M149.209 245.948C148.969 246.548 150.269 248.928 151.209 248.208C152.149 247.488 149.949 244.068 149.209 245.948ZM188.089 253.168C188.089 252.088 185.009 252.608 185.949 254.128C186.889 255.648 188.089 254.268 188.089 253.168ZM143.389 235.688C143.149 236.888 144.449 240.328 145.869 238.908C147.289 237.488 143.709 234.568 143.389 235.728V235.688ZM233.149 256.028C234.929 256.148 234.689 258.748 234.329 260.308C233.969 261.868 233.269 265.528 234.809 264.928C236.809 264.228 237.909 261.848 236.809 260.928C235.709 260.008 235.869 254.928 236.329 253.568C236.789 252.208 240.029 253.208 238.949 255.228C237.869 257.248 240.949 257.008 240.949 259.228C240.949 261.448 242.729 260.308 244.649 259.708C246.569 259.108 246.189 258.048 244.869 256.608C243.549 255.168 245.829 253.168 244.049 251.968C242.269 250.768 241.069 249.008 242.729 248.648C244.389 248.288 249.389 245.448 248.729 244.248C248.069 243.048 241.109 244.488 240.509 246.628C239.909 248.768 234.929 246.388 235.529 242.628C236.129 238.868 245.989 238.348 248.849 239.648C251.709 240.948 254.849 237.508 255.849 235.488C256.849 233.468 253.609 235.848 251.569 237.148C249.529 238.448 244.209 237.028 241.569 236.088C238.929 235.148 238.949 237.748 236.689 238.088C234.429 238.428 234.909 243.428 233.849 244.088C232.789 244.748 232.769 248.368 230.629 251.828C228.489 255.288 231.369 255.948 233.149 256.068V256.028ZM178.809 259.168C178.889 257.767 179.09 256.375 179.409 255.008C179.409 254.188 180.009 253.828 181.069 254.068C182.129 254.308 182.029 251.808 181.189 251.568C180.349 251.328 179.889 248.348 177.849 248.348C175.809 248.348 176.189 250.008 177.389 250.128C178.589 250.248 179.289 251.208 178.929 252.128C178.569 253.048 178.109 251.288 176.429 251.408C174.749 251.528 175.849 249.408 173.929 249.268C172.009 249.128 172.389 245.708 170.369 245.708C168.349 245.708 168.229 244.028 169.529 242.848C170.829 241.668 167.529 240.588 167.529 239.148C167.529 237.708 165.389 238.568 165.389 237.368C165.389 236.168 164.449 236.788 163.389 235.368C162.329 233.948 161.849 235.248 160.889 234.188C160.199 233.195 159.003 232.682 157.809 232.868C156.969 233.228 155.069 231.328 154.349 229.428C153.789 227.908 148.349 225.428 147.589 223.428C146.829 221.428 144.969 220.568 141.749 220.688C138.529 220.808 137.269 217.548 136.529 219.148C135.569 221.148 139.969 225.688 141.989 226.868C144.009 228.048 145.089 232.348 147.469 232.588C149.849 232.828 150.069 240.308 151.869 240.588C153.669 240.868 157.449 246.768 158.049 249.868C158.649 252.968 162.569 254.488 163.869 256.748C165.169 259.008 170.409 262.108 171.129 263.048C171.849 263.988 172.549 266.148 173.129 265.048C173.709 263.948 176.209 265.048 177.409 265.168C178.609 265.288 178.929 260.808 178.809 259.168ZM269.709 240.128C272.329 240.368 271.129 238.828 271.129 237.148C271.129 235.468 268.769 236.928 268.769 236.088C268.769 235.248 267.929 231.928 266.029 234.548C264.129 237.168 266.629 243.628 268.169 243.348C269.709 243.068 267.029 239.888 269.709 240.128ZM259.969 254.988C260.429 256.988 263.969 257.968 264.829 256.308C265.689 254.648 259.349 252.788 259.909 254.988H259.969ZM250.509 275.168C247.289 274.688 245.149 277.068 241.949 275.868C238.749 274.668 233.949 275.868 234.449 276.948C234.949 278.028 237.789 278.028 240.989 278.128C244.189 278.228 246.989 276.468 249.189 276.348C251.389 276.228 253.709 275.568 250.509 275.168ZM275.949 253.408C272.869 252.448 267.589 253.268 268.109 254.828C268.629 256.388 271.069 255.668 273.569 255.668C276.069 255.668 277.369 257.448 278.689 257.448C280.009 257.448 279.049 254.268 275.949 253.328V253.408ZM213.289 273.768C213.169 272.348 208.529 273.648 206.269 272.708C204.009 271.768 208.769 270.928 210.269 269.968C211.769 269.008 209.329 268.668 205.529 269.848C201.729 271.028 197.329 267.228 197.209 268.908C197.089 270.588 190.309 268.188 188.649 266.908C186.989 265.628 180.649 264.168 179.249 266.428C177.849 268.688 176.809 266.648 177.349 268.808C177.709 270.228 179.249 269.388 180.309 269.388C181.369 269.388 180.909 271.388 182.449 271.648C183.989 271.908 189.109 273.328 189.589 272.248C190.069 271.168 194.829 272.248 197.209 274.148C199.589 276.048 205.049 276.148 207.209 275.828C209.369 275.508 211.729 277.248 212.549 276.048C213.369 274.848 214.929 277.948 217.309 276.168C219.689 274.388 213.409 275.168 213.289 273.768ZM306.869 247.768C305.089 247.888 304.869 250.988 303.289 250.988C301.709 250.988 299.609 254.188 296.749 255.148C293.889 256.108 293.789 246.948 292.469 245.148C291.149 243.348 284.029 241.928 283.329 243.948C282.629 245.968 280.129 244.908 279.869 246.568C279.609 248.228 280.469 247.628 282.009 247.628C283.549 247.628 283.569 248.828 284.269 250.368C284.969 251.908 289.269 250.848 290.689 250.728C292.109 250.608 292.349 252.628 290.329 251.928C288.309 251.228 288.329 252.868 286.889 252.508C285.449 252.148 283.569 252.268 284.509 253.108C285.449 253.948 287.009 254.768 287.009 256.668C287.009 258.568 289.749 258.228 289.749 256.668C289.749 255.108 291.169 257.148 293.909 257.868C296.649 258.588 294.729 259.648 297.469 259.768C301.476 260.287 305.327 261.651 308.769 263.768C311.149 265.548 309.489 266.748 311.029 268.408C312.569 270.068 313.029 271.968 310.909 271.968C308.789 271.968 306.509 274.108 307.109 275.188C307.709 276.268 314.709 274.708 316.369 274.708C317.469 274.708 318.569 276.708 320.649 278.048V252.688C315.509 250.968 308.329 247.768 306.869 247.848V247.768ZM255.389 277.908C254.993 278.173 254.553 278.362 254.089 278.468C253.989 278.893 253.783 279.285 253.489 279.608C253.169 279.868 252.589 279.348 252.189 278.888C249.889 279.848 248.669 282.588 250.189 283.448C251.709 284.308 253.949 282.088 255.229 280.568C255.449 280.308 255.629 280.088 255.769 279.888C255.895 279.747 256.036 279.62 256.189 279.508L256.589 279.248C256.244 278.779 255.841 278.355 255.389 277.988V277.908ZM222.329 247.308C224.249 245.899 225.178 243.503 224.709 241.168C224.469 238.788 229.929 238.668 230.709 237.708C231.489 236.748 229.509 235.208 227.969 234.508C226.429 233.808 227.729 232.248 226.669 231.288C225.609 230.328 223.809 227.848 225.369 227.728C226.929 227.608 224.289 225.468 225.589 224.748L226.189 224.448C225.603 224.114 224.957 223.896 224.289 223.808C222.289 223.808 217.869 223.328 218.109 226.408C218.349 229.488 215.489 228.408 215.729 229.988C215.969 231.568 214.309 231.648 214.529 233.788C214.749 235.928 213.349 234.968 210.969 236.168C208.589 237.368 209.549 235.448 207.169 235.448C204.789 235.448 204.549 236.648 203.169 237.108C201.789 237.568 198.889 236.888 197.929 237.588C196.969 238.288 195.549 235.928 194.609 235.928C194.129 235.928 193.709 234.628 193.409 233.348H192.949C191.389 233.468 188.829 237.548 190.329 238.948C191.829 240.348 191.629 243.228 192.469 244.528C193.309 245.828 195.909 246.068 195.909 248.528C195.909 250.988 198.169 254.948 199.709 253.888C201.249 252.828 202.449 254.348 202.929 255.428C203.409 256.508 207.089 254.588 208.289 254.828C209.489 255.068 213.149 255.788 213.389 257.208C213.629 258.628 216.969 257.088 219.209 256.268C221.449 255.448 220.189 248.688 222.329 247.388V247.308ZM231.249 280.588C231.969 281.668 233.989 281.668 234.809 282.368C235.629 283.068 238.609 284.628 238.609 282.608C238.609 280.588 230.449 279.488 231.249 280.668V280.588ZM225.249 274.768C224.769 275.848 222.749 276.068 221.549 275.248C220.349 274.428 218.889 276.368 219.549 277.388C221.093 278.904 223.426 279.281 225.369 278.328C228.349 276.908 230.369 278.208 231.089 276.668C231.809 275.128 225.709 273.768 225.309 274.848L225.249 274.768Z" fill="#294F6E" stroke="#002F57" stroke-width="0.75"/>
<path fill-rule="evenodd" clip-rule="evenodd" d="M253.469 278.647C253.029 278.69 252.598 278.798 252.189 278.967C252.589 279.427 253.169 279.947 253.489 279.687C253.783 279.365 253.99 278.972 254.089 278.547C253.91 278.568 253.729 278.568 253.549 278.547L253.469 278.647ZM259.189 275.567C257.569 275.567 256.929 276.807 255.749 277.747L255.389 277.987C255.875 278.374 256.305 278.825 256.669 279.327C258.969 277.967 264.829 276.267 265.129 275.447C265.429 274.627 261.569 275.667 259.189 275.567Z" fill="#294F6E" stroke="#002F57" stroke-width="0.75"/>
</svg>
