<?xml version="1.0" encoding="UTF-8"?>
<svg width="399px" height="397px" viewBox="0 0 399 397" version="1.1" xmlns="http://www.w3.org/2000/svg" xmlns:xlink="http://www.w3.org/1999/xlink">
    <title>EE7CBA6B-5075-4B53-B874-C62AD411D5E4</title>
    <defs>
        <linearGradient x1="50%" y1="0%" x2="50%" y2="100%" id="linearGradient-1">
            <stop stop-color="#005E91" offset="0%"></stop>
            <stop stop-color="#003058" offset="100%"></stop>
        </linearGradient>
        <linearGradient x1="50%" y1="0%" x2="50%" y2="100%" id="linearGradient-2">
            <stop stop-color="#005E91" offset="0%"></stop>
            <stop stop-color="#003058" offset="100%"></stop>
        </linearGradient>
        <linearGradient x1="50%" y1="0%" x2="50%" y2="100%" id="linearGradient-3">
            <stop stop-color="#005E91" offset="0%"></stop>
            <stop stop-color="#003058" offset="100%"></stop>
        </linearGradient>
    </defs>
    <g id="CB,-Sub,-MOR" stroke="none" stroke-width="1" fill="none" fill-rule="evenodd">
        <g id="Subscriptions" transform="translate(-846.000000, -3404.000000)" fill-rule="nonzero">
            <g id="Stacked-Group" transform="translate(-4.000000, -6.359504)">
                <g id="MyCommerce3" transform="translate(2.000000, 3303.000000)">
                    <g id="online-shop" transform="translate(848.000000, 107.359504)">
                        <path d="M53.7707051,114.659918 C50.4953203,114.659918 47.8394766,117.314865 47.8394766,120.590885 L47.8394766,314.274263 C47.8394766,317.549504 50.494541,320.205231 53.7707051,320.205231 L344.040088,320.205231 C347.315473,320.205231 349.971316,317.550283 349.971316,314.274263 L349.971316,292.207105 C350.977389,291.819032 351.942937,291.29303 352.829777,290.611175 L360.858094,284.435519 C363.659666,282.280079 365.332037,278.882494 365.332037,275.348538 L365.332037,247.909144 C377.104875,245.737339 386.05432,235.402759 386.05432,223.010925 L386.05432,172.984605 C393.316588,172.238851 399,166.086573 399,158.630588 L399,131.805253 C399,122.767366 393.704678,114.943569 386.05432,111.270905 L386.05432,25.3252548 C386.05432,11.3608692 374.692951,0 360.727951,0 L111.795592,0 C97.8305918,0 86.4692227,11.3608692 86.4692227,25.3252548 L86.4692227,86.1926761 L50.3137441,86.1926761 C33.0359531,86.1926761 18.9789961,100.471884 18.9789961,118.023215 L18.9789961,336.314926 L5.93122852,336.314926 C2.65584375,336.314926 0,338.969874 0,342.245894 L0,354.482654 C0,377.926769 19.0740703,397 42.5192168,397 L352.52741,397 C375.972557,397 395.046627,377.926769 395.046627,354.482654 L395.046627,342.245894 C395.046627,338.970653 392.391562,336.314926 389.115398,336.314926 L376.067631,336.314926 L376.067631,306.022652 C376.067631,302.747411 373.412566,300.091684 370.136402,300.091684 C366.861018,300.091684 364.205174,302.746632 364.205174,306.022652 L364.205174,336.314926 L231.391166,336.314926 C228.115781,336.314926 225.459937,338.969874 225.459937,342.245894 C225.459937,350.514649 218.732268,357.242802 210.462369,357.242802 L184.377744,357.242802 C176.108625,357.242802 169.380176,350.515428 169.380176,342.245894 C169.380176,338.970653 166.725111,336.314926 163.448947,336.314926 L30.8406738,336.314926 L30.8406738,118.023215 C30.8406738,107.012235 39.5765918,98.0538319 50.3137441,98.0538319 L86.4684434,98.0538319 L86.4684434,114.659918 L53.7707051,114.659918 Z M158.179342,348.176861 C160.886619,360.141659 171.605848,369.103958 184.378523,369.103958 L210.463148,369.103958 C223.235824,369.103958 233.955053,360.141659 236.66233,348.176861 L383.18417,348.176861 L383.18417,354.482654 C383.18417,371.386418 369.431139,385.138065 352.52741,385.138065 L42.5192168,385.138065 C25.614709,385.138065 11.8616777,371.385639 11.8616777,354.482654 L11.8616777,348.176861 L158.179342,348.176861 Z M353.470359,275.153723 L346.459805,280.54622 C345.876111,280.284388 345.244102,280.113729 344.578582,280.053726 L339.267674,275.968831 C335.152207,272.803467 329.402555,272.803467 325.287088,275.968831 L318.715277,281.023908 L312.143467,275.968831 C308.027221,272.803467 302.278348,272.803467 298.162881,275.968831 L291.59107,281.023908 L285.01926,275.968831 C280.903014,272.803467 275.154141,272.803467 271.038674,275.968831 L264.466863,281.023908 L257.895053,275.968831 C253.778807,272.803467 248.029934,272.803467 243.914467,275.968831 L237.342656,281.023908 L229.711781,275.154502 L229.711781,131.806032 C229.711781,125.794021 234.602648,120.903369 240.614924,120.903369 L271.078418,120.903369 L319.031672,120.903369 L356.257125,120.903369 C354.481887,124.142764 353.470359,127.858288 353.470359,131.806032 L353.470359,167.132343 L353.470359,275.153723 L353.470359,275.153723 Z M140.233693,108.400881 L131.175926,108.400881 L131.175926,92.1820883 L161.203793,92.1820883 C163.748197,102.792528 173.314846,110.702822 184.694918,110.702822 C196.07499,110.702822 205.641639,102.792528 208.186043,92.1820883 L238.21391,92.1820883 L238.21391,108.606606 C225.763084,110.200198 216.106816,120.865186 216.106816,133.741721 L216.106816,189.65537 L153.28302,189.65537 L153.28302,121.449633 C153.28302,114.254701 147.428941,108.400881 140.233693,108.400881 Z M374.192643,223.011705 C374.192643,228.816432 370.492541,233.760853 365.332037,235.647447 L365.332037,173.062531 L374.192643,173.062531 L374.192643,223.011705 Z M387.137543,131.805253 L387.137543,158.630588 L387.138322,158.630588 C387.138322,160.048067 385.984963,161.200596 384.567422,161.200596 L380.130885,161.200596 C380.128547,161.200596 380.12543,161.200596 380.123092,161.200596 C380.120754,161.200596 380.118416,161.200596 380.115299,161.200596 L365.331258,161.200596 L365.331258,131.805253 C365.331258,125.793242 370.222125,120.90259 376.2344,120.90259 C382.246676,120.90259 387.137543,125.793242 387.137543,131.805253 Z M86.4692227,126.521073 L86.4692227,223.011705 C86.4692227,236.97609 97.8305918,248.336959 111.795592,248.336959 L191.022809,248.336959 C194.298193,248.336959 196.954037,245.682012 196.954037,242.405992 C196.954037,239.130751 194.298973,236.475024 191.022809,236.475024 L111.795592,236.475024 C104.37123,236.475024 98.3309004,230.43496 98.3309004,223.011705 L98.3309004,58.5000216 L347.935014,58.5000216 C351.210398,58.5000216 353.866242,55.845074 353.866242,52.569054 C353.866242,49.2930341 351.211178,46.6380865 347.935014,46.6380865 L98.3309004,46.6380865 L98.3309004,25.3252548 C98.3309004,17.9019994 104.370451,11.8619351 111.795592,11.8619351 L360.72873,11.8619351 C368.153092,11.8619351 374.192643,17.9019994 374.192643,25.3252548 L374.192643,109.041434 L319.031672,109.041434 L271.078418,109.041434 L250.076367,109.041434 L250.076367,88.9473694 C250.076367,84.1907505 246.206379,80.3201533 241.448771,80.3201533 L202.910982,80.3201533 C201.3181,80.3201533 199.792236,80.9607071 198.677062,82.0984305 C197.561889,83.2353746 196.95092,84.7736389 196.981312,86.3664517 L196.987547,86.5495784 C196.987547,93.3276043 191.473242,98.8416664 184.694918,98.8416664 C177.916594,98.8416664 172.402289,93.3276043 172.403068,86.5901 L172.409303,86.3430738 C172.43424,84.7549366 171.820154,83.2229064 170.70498,82.0898586 C169.590586,80.9575901 168.06784,80.3201533 166.478854,80.3201533 L127.941064,80.3201533 C123.184236,80.3201533 119.313469,84.1899713 119.313469,88.9473694 L119.313469,111.6356 C119.313469,116.392218 123.183457,120.262036 127.941064,120.262036 L140.233693,120.262036 C140.888303,120.262036 141.421342,120.795052 141.421342,121.449633 L141.421342,195.585558 C141.421342,198.860799 144.076406,201.516525 147.35257,201.516525 L217.850104,201.516525 L217.850104,275.348538 C217.850104,278.882494 219.522475,282.2793 222.324826,284.436299 L230.352363,290.611175 C234.468609,293.77654 240.217482,293.77654 244.332949,290.611175 L250.90476,285.556099 L257.47657,290.611175 C261.592816,293.77654 267.341689,293.77654 271.457156,290.611175 L278.028967,285.556099 L284.600777,290.611175 C288.717023,293.77654 294.465896,293.77654 298.581363,290.611175 L305.153174,285.556099 L311.724984,290.611175 C313.783107,292.193858 316.248803,292.985589 318.715277,292.985589 C321.180973,292.985589 323.648227,292.193858 325.70557,290.611175 L332.277381,285.556099 L338.109639,290.042314 L338.109639,308.343296 L59.7019336,308.343296 L59.7019336,126.521073 L86.4692227,126.521073 Z" id="Shape" fill="url(#linearGradient-1)"></path>
                        <path d="M274.084636,24 L188.915364,24 C185.64874,24 183,26.4620286 183,29.5 C183,32.5379714 185.64874,35 188.915364,35 L274.084636,35 C277.35126,35 280,32.5379714 280,29.5 C280,26.4620286 277.352037,24 274.084636,24 Z" id="Path" fill="url(#linearGradient-2)"></path>
                        <path d="M346.051609,82 L270.948391,82 C267.663528,82 265,84.4620286 265,87.5 C265,90.5379714 267.662747,93 270.948391,93 L346.051609,93 C349.336472,93 352,90.5379714 352,87.5 C352,84.4620286 349.337253,82 346.051609,82 Z" id="Path" fill="#B03478"></path>
                        <circle id="Oval" fill="url(#linearGradient-3)" cx="118.5" cy="29.5" r="5.5"></circle>
                        <circle id="Oval" fill="url(#linearGradient-3)" cx="142.5" cy="29.5" r="5.5"></circle>
                        <circle id="Oval" fill="url(#linearGradient-3)" cx="164.5" cy="29.5" r="5.5"></circle>
                        <circle id="Oval" fill="#B03478" cx="355.5" cy="29.5" r="5.5"></circle>
                        <path d="M309.164091,197.160848 C305.939118,194.488856 301.702664,193.000786 296.455501,192.698972 L290.719635,192.472611 C286.744183,192.247028 283.802674,191.569501 281.89046,190.439252 C279.978247,189.309782 279.022528,187.315317 279.022528,184.452746 L279.022528,180.61239 C279.022528,177.073071 279.697882,174.5691 281.047042,173.100477 C282.396202,171.631853 284.719669,170.897542 288.019766,170.897542 L293.193353,170.897542 C296.416002,170.897542 298.721655,171.594516 300.110314,172.986907 C301.496649,174.381632 302.190592,176.657687 302.190592,179.820516 L302.190592,181.289139 C302.190592,182.644971 302.865172,183.322498 304.215106,183.322498 L311.300906,183.322498 C312.57494,183.322498 313.213119,182.644193 313.213119,181.289139 L313.213119,178.804615 C313.213119,173.382844 311.731522,169.089766 308.77065,165.926937 C305.807455,162.764108 301.778563,161.182694 296.680102,161.182694 L296.117823,161.182694 L296.117823,151.919789 C296.117823,150.640189 295.479644,150 294.20561,150 L289.032023,150 C287.75644,150 287.11981,150.640189 287.11981,151.919789 L287.11981,161.182694 L285.207597,161.182694 C279.809408,161.182694 275.591541,162.746217 272.55477,165.87093 C269.517998,168.996422 268,173.308168 268,178.804615 L268,184.113594 C268,191.193011 269.912213,196.050824 273.735866,198.685478 C275.535004,199.966633 277.520793,200.907081 279.696333,201.509154 C281.870324,202.112783 285.730377,202.525834 291.280365,202.751417 C295.178368,202.977 298.102064,203.674751 300.053002,204.84156 C302.002391,206.009924 302.977472,208.173965 302.977472,211.336794 L302.977472,214.951567 C302.977472,218.266859 302.263394,220.656483 300.840657,222.124329 C299.415598,223.592952 297.129306,224.327263 293.980234,224.327263 L288.132067,224.327263 C284.907095,224.327263 282.582079,223.631845 281.159343,222.23712 C279.734283,220.844728 279.022528,218.56634 279.022528,215.403511 L279.022528,213.709305 C279.022528,212.353473 278.385123,211.675947 277.110314,211.675947 L270.024514,211.675947 C268.67458,211.675947 268,212.354251 268,213.709305 L268,216.307399 C268,221.805401 269.535812,226.117925 272.611308,229.241083 C275.68448,232.366574 279.882985,233.92932 285.207597,233.92932 L287.11981,233.92932 L287.11981,243.079433 C287.11981,244.359033 287.75644,245 289.032023,245 L294.20561,245 C295.479644,245 296.117823,244.359811 296.117823,243.079433 L296.117823,233.92932 L296.680102,233.92932 C302.003165,233.92932 306.221032,232.367352 309.332929,229.241083 C312.443277,226.117148 314,221.805401 314,216.307399 L314,210.885628 C314,204.40984 312.387514,199.835173 309.164091,197.160848 Z" id="Path" fill="#B03478"></path>
                    </g>
                </g>
            </g>
        </g>
    </g>
</svg>