<?xml version="1.0" encoding="UTF-8"?> <svg xmlns="http://www.w3.org/2000/svg" viewBox="0 0 412 389.08"><defs><style>.cls-1,.cls-12{fill:#00a7e1;}.cls-1{opacity:0.4;}.cls-2{fill:#606060;}.cls-3{fill:#939393;}.cls-4{fill:#b7b7b7;}.cls-5{fill:#fff;}.cls-6{fill:#ccc;}.cls-7{opacity:0.8;}.cls-8{fill:#003058;}.cls-9{fill:#e3e3e3;}.cls-10{fill:#f7f6f0;}.cls-11{fill:#92b7c2;}</style></defs><title>digital-river-content-graphics-v1_isolated</title><g id="Layer_2" data-name="Layer 2"><path class="cls-1" d="M206.55,384.66h0v0Zm0,0h-.09c-1.37,0-2.74,0-4.1,0h0v-.84c1.36,0,2.72,0,4.09,0Zm4.19,0,0-.84c1.39,0,2.78-.08,4.17-.14l0,.42v.42h0C213.52,384.54,212.13,384.59,210.73,384.62Zm0,0h0v0Zm-12.54-.13h0v-.42l0,.42c-1.4-.06-2.8-.14-4.19-.23h0l-.12,0,.15-.43v0l.12-.36-.12.36,0-.38c1.39.08,2.78.16,4.17.22v.84Zm20.92-.24,0-.39v0l-.15-.42.12,0h0c1.38-.1,2.76-.2,4.13-.32h0v.42l.12.4-.12-.37,0,.39C221.9,384.06,220.5,384.16,219.1,384.25Zm4.15-.73v0Zm-33.43.43h0c-1.4-.12-2.79-.25-4.18-.4h-.1l.14-.43v0l.12-.35-.12.35,0-.37c1.38.15,2.77.29,4.16.4l0,.42V384Zm4.16-.11v0Zm33.44-.31v-.39l-.15-.43h.1c1.39-.15,2.77-.31,4.15-.49h.06v.42l.13.4-.13-.37,0,.39c-1.39.18-2.78.35-4.17.5l0-.39Zm0-.42Zm4.15-.5v0Zm-45.94.52v0Zm-4.13-.07h-.07c-1.39-.18-2.77-.37-4.15-.58l.05-.39-.1.37.1-.37v-.45h.08c1.37.2,2.75.4,4.13.58l0,.41v.43Zm-4.16-1h0Zm58.37.4V382l-.11-.41.11.37v0l-.06-.35c1.38-.21,2.76-.44,4.12-.68l.08.38v0l.12.44h-.05c-1.37.24-2.76.47-4.14.68h-.07Zm0-.46v0Zm4.14-.65h0Zm-66.64.45v-.38l-.07.38c-1.38-.24-2.76-.5-4.13-.77l.08-.38L169,381l.11-.37v-.45h.09c1.36.27,2.73.52,4.1.76h.06l-.12.41Zm0-.41v0Zm-4.11-.77ZM244,381v-.42l-.1-.41.1.37h0l-.07-.36c1.37-.27,2.73-.56,4.09-.86l.09.37v0l.12.44h0c-1.36.3-2.73.59-4.11.86H244Zm0-.46v0Zm4.11-.83h0Zm-83.06.47v-.39l-.09.38c-1.37-.31-2.73-.62-4.09-.95l.09-.38-.11.37.11-.37v-.45l.11,0h0c1.35.33,2.71.65,4.07,1h0l-.11.41Zm0-.42,0,.15Zm87.13-.57v-.42l-.11-.4.11.37h0l-.09-.37c1.35-.33,2.7-.67,4-1l.24.8-.1-.3.08.31c-1.35.36-2.7.71-4.06,1h-.11Zm0-.45v0Zm-95.37-.56h0c-1.35-.36-2.7-.73-4-1.12h0l.26-.8h0c1.34.39,2.68.76,4,1.12l-.11.41.14-.4ZM260.34,377l-.26-.8Zm0,0-.23-.81c1.33-.39,2.67-.79,4-1.21l.25.8v0l0,0C263,376.21,261.69,376.62,260.34,377Zm-111.62-1.16h0c-1.34-.42-2.67-.86-4-1.3h0l.24-.8-.1.4.13-.39c1.33.45,2.65.88,4,1.3l-.12.39L149,375Zm119.59-1.35-.24-.81c1.32-.45,2.64-.91,3.94-1.39l.15.4-.21-.37.35.76,0-.06,0,.06c-1.31.48-2.63,1-4,1.4l0-.14,0,.14Zm-127.57-1.35h0c-1.32-.48-2.63-1-3.94-1.48h0l-.06,0,.24-.42.13-.33c1.3.5,2.6,1,3.92,1.47l-.14.39.2-.36Zm131.63-.09-.2-.37Zm3.86-1.45-.16-.39h0l-.16-.39c1.3-.5,2.58-1,3.86-1.55l.16.39-.21-.37.36.76-.09-.27.1.26Q278.18,370.86,276.23,371.61Zm-143.32-1.5,0,0h0q-1.95-.81-3.87-1.65h0l0,0,.39-.74c1.27.56,2.56,1.11,3.85,1.65l-.16.38.21-.36ZM280.15,370l-.2-.37Zm3.8-1.62-.34-.77c1.27-.56,2.53-1.13,3.79-1.72h0l.05,0,.14.4.22.35-.21-.32.16.35C286.49,367.27,285.22,367.85,284,368.41Zm3.63-2.11,0,.08Zm-162.35.42,0,0h0c-1.27-.59-2.54-1.2-3.79-1.82l.16-.35-.21.32.21-.32.15-.43.06,0h0c1.25.61,2.51,1.22,3.77,1.81l-.18.38.21-.36Zm166.23-1.82-.14-.44,0,0-.14-.39.11.33-.16-.31q1.88-.93,3.72-1.89l.19.37v0l.25.38-.05,0h0c-1.24.64-2.48,1.27-3.73,1.89h0Zm-.13-.4-.22-.36ZM117.7,363l.12-.36-.18.34c-1.25-.65-2.48-1.31-3.71-2l.18-.34-.21.32.21-.32.15-.43.07,0h0c1.22.67,2.45,1.33,3.69,2h0l0,0-.23.35Zm.13-.39,0,.06Zm-3.7-2h0Zm184.74.42-.14-.4-.22-.36.21.32h0l-.18-.33q1.83-1,3.63-2l.21.36v0l.25.38h0c-1.21.7-2.42,1.39-3.65,2.06h0Zm-.15-.44,0,0,0,0ZM110.35,359l.12-.36-.2.33c-1.21-.7-2.42-1.42-3.61-2.15l.21-.36h0l.22-.36q1.78,1.08,3.6,2.13h0l0,0-.23.35Zm.13-.39-.07.12Zm195.64-1.73-.18-.44-.18-.31c1.18-.72,2.36-1.45,3.53-2.2l.23.35-.16-.39.4.74h0c-1.18.75-2.36,1.48-3.56,2.21h0Zm-203-2.28h0c-1.18-.75-2.35-1.52-3.52-2.3h0l0,0,.5-.68c1.16.78,2.33,1.54,3.5,2.29l-.22.36.26-.33Zm210.16-2.25-.5-.68.26.31-.23-.33c1.16-.78,2.31-1.56,3.44-2.36l.51.67-.19-.24.17.26C315.56,350.74,314.41,351.53,313.25,352.31Zm3.22-2.72.22.33Zm-220.34.31h0c-1.15-.81-2.28-1.62-3.41-2.45l.18-.25-.2.24.49-.69-.22.35.24-.33c1.13.83,2.26,1.64,3.4,2.44l-.24.34.26-.32Zm-3.19-2.79h0Zm227.15.4-.47-.69c1.12-.82,2.23-1.66,3.33-2.51l.27.35-.25-.36.51.67h0c-1.1.85-2.22,1.69-3.35,2.52h0ZM89.37,344.93l.17-.25-.2.24.26-.34-.26.34c-1.11-.86-2.21-1.72-3.3-2.6h0l.49-.68-.23.35.27-.32c1.08.87,2.18,1.73,3.28,2.58Zm237.35-2.51-.49-.68c1.09-.87,2.16-1.75,3.23-2.65l.28.33-.31-.3.57.61c-1.07.9-2.15,1.79-3.24,2.66Zm3.28-2.69,0,0,0,0Zm0,0-.29-.3Zm-247.22,0h0c-1.07-.9-2.13-1.82-3.19-2.74h0l-.06-.05.37-.31.24-.27c1,.92,2.1,1.83,3.17,2.72l-.26.32.29-.29ZM333.18,337l-.28-.31h0l-.28-.32c1-.91,2.08-1.84,3.11-2.78l.28.31-.32-.27.59.59-.18-.22.19.21Q334.76,335.62,333.18,337Zm3.16-2.83-.31-.28Zm-259.82,0,0,0h0c-1-.95-2-1.9-3.06-2.87h0l0,0,.62-.57c1,1,2,1.92,3,2.86l-.28.31.32-.27Zm262.85-2.8-.29-.3h0l-.29-.31c1-1,2-1.93,3-2.92h0l0,0,.27.32.34.24-.32-.21.27.28C341.38,329.4,340.38,330.38,339.37,331.34Zm2.69-3.23.07.07Zm-271.59.24,0,0h0c-1-1-2-2-2.93-3h0l0-.06.35-.23.26-.32-.24.3h0l.27-.25c1,1,1.93,2,2.92,3l-.27.28.32-.21-.32.21Zm.26-.33Zm-2.91-3v0l0,0Zm277.44.45-.24-.31-.38-.25.06-.06h0c1-1,1.91-2,2.85-3.05l.31.29-.29-.3.62.56,0,0h0c-.94,1-1.9,2-2.87,3.06l-.28-.26Zm-.26-.33ZM64.63,322.26c-.94-1-1.88-2.07-2.8-3.12l.29-.26-.32.21.32-.21.28-.36.06.06h0c.92,1,1.84,2.08,2.78,3.1h0Zm.16-.15h0L65,322Zm286.13-2.82-.29-.35,0,0-.05,0-.23-.28.23.28-.28-.24c.92-1,1.83-2.1,2.73-3.16l.3.24-.24-.3.24.3.38.25,0,0h0q-1.35,1.6-2.73,3.18h0Zm-.27-.33-.34-.24ZM59.16,316l.24-.3-.3.25c-.9-1.07-1.78-2.15-2.66-3.24l.3-.25-.32.22.32-.22.28-.35.07.07h0c.88,1.09,1.76,2.16,2.65,3.23h0l0,0-.35.23Zm.26-.33-.07.06Zm-2.65-3.23h0Zm299.54.43-.29-.35h0l0,0-.24-.3.24.3-.3-.24c.88-1.08,1.74-2.18,2.59-3.28l.34.26-.31-.31.66.53,0,0h0c-.85,1.11-1.71,2.21-2.59,3.3h0Zm-.27-.33-.34-.24ZM53.89,309.46l.3-.29Zm0,0c-.85-1.1-1.69-2.22-2.52-3.35l.34-.25h0l.34-.26c.82,1.13,1.66,2.24,2.51,3.34l-.34.26.3-.3-.64.54.24-.17Zm307.6-3.21-.34-.34-.29-.22c.83-1.12,1.64-2.25,2.44-3.39l.35.24-.3-.3.65.52v0h0c-.81,1.15-1.62,2.28-2.45,3.41h0ZM48.94,302.72l.3-.29Zm0-.05c-.8-1.14-1.59-2.3-2.37-3.46l.17-.11-.17.11.28-.18-.28.18.68-.49-.32.25.34-.22c.77,1.15,1.56,2.3,2.36,3.44l-.35.24.3-.3-.64.54,0,0Zm317.42-3.37-.68-.49c.77-1.16,1.54-2.32,2.29-3.5l.35.23-.37-.19.73.41c-.76,1.18-1.53,2.36-2.3,3.52Zm2.34-3.58-.37-.19Zm-324.41,0h0c-.75-1.18-1.49-2.36-2.22-3.56h0l0,0,.74-.4c.73,1.19,1.46,2.37,2.21,3.54l-.35.22.37-.19Zm326.61-3.52-.36-.22h0l-.36-.22c.73-1.19,1.44-2.39,2.14-3.6l.37.22-.36-.24.73.41,0,0h0C372.29,289.8,371.58,291,370.85,292.2Zm-331-3.62.36-.23Zm0,0c-.7-1.21-1.39-2.43-2.06-3.65l.37-.2h0l.38-.2c.67,1.21,1.35,2.42,2,3.62l-.36.21.35-.23-.72.43.24-.12ZM375,285l-.71-.44c.67-1.22,1.33-2.45,2-3.69l.76.38h0l-.38-.19.38.2c-.65,1.24-1.31,2.48-2,3.71Zm-339.2-3.74h0c-.64-1.24-1.27-2.48-1.89-3.73h0l.76-.38-.6.31.6-.3c.62,1.25,1.25,2.48,1.89,3.71l-.37.2.37-.19ZM379,277.48l-.75-.37.75.36Zm0,0-.75-.37c.62-1.25,1.22-2.51,1.81-3.77l.38.17-.37-.18.76.36h0C380.18,275,379.57,276.22,379,277.47ZM32.14,273.74h0l.4-.2-.41.19c-.59-1.26-1.16-2.53-1.73-3.8h0v-.05l.78-.29c.56,1.27,1.14,2.53,1.72,3.79Zm350.37-3.89-.38-.17h0l-.39-.18c.56-1.27,1.11-2.56,1.64-3.85l.38.16-.39-.13.78.31-.25-.12.26.1C383.63,267.28,383.08,268.57,382.51,269.85ZM28.77,266.11v0q-.81-1.92-1.56-3.87l.37-.15-.38.13.38-.13-.38.13.79-.29-.31.12.31-.12c.5,1.3,1,2.58,1.55,3.86l-.38.16.39-.13ZM384.18,266l-.39-.15Zm1.56-3.88-.79-.29.32.11-.31-.12c.5-1.3,1-2.61,1.47-3.93l.38.14-.38-.14.8.27v0h0c-.48,1.32-1,2.63-1.48,3.94Zm-360-3.81c-.47-1.31-.94-2.63-1.39-3.95l.38-.13-.38.12.38-.13-.38.13.79-.29-.39.16.39-.14c.45,1.32.92,2.63,1.39,3.94h0Zm.08,0h0l.35-.11Zm362.82-4.05-.79-.29h0c.44-1.32.88-2.65,1.3-4l.81.22-.28-.07.27.1-.4-.13.4.13c-.42,1.34-.86,2.67-1.31,4ZM23,250.34v0c-.42-1.32-.82-2.65-1.21-4v0l.81-.21c.39,1.34.79,2.67,1.21,4l-.4.12.41-.1Zm368.12-4.17-.81-.23.41.09-.4-.11c.39-1.34.76-2.68,1.12-4l.41.11-.42-.05.82.17L392,242l.26.07c-.36,1.35-.73,2.7-1.13,4l-.27-.08Zm-.38-.13h0l-.06,0ZM20.67,242.31v0c-.36-1.34-.71-2.7-1-4.06h0v-.06l.83-.14c.33,1.36.67,2.7,1,4.05l-.4.1.41,0Zm371.61-.26-.41-.06Zm1-4-.82-.2c.33-1.35.65-2.71.95-4.07l.44.09-.44-.1.83.16v0h0C394,235.33,393.64,236.69,393.31,238.05ZM18.67,234.14l.29-.08-.29.06c-.3-1.36-.59-2.73-.87-4.1l.29-.06-.29,0,.82-.17-.47.12.48-.09c.27,1.36.55,2.72.85,4.07h0Zm.41-.11-.18,0Zm376-4.15-.82-.19c.27-1.36.53-2.73.77-4.11l.4.07-.39-.1.82.16v0c-.24,1.38-.5,2.75-.77,4.12ZM17,225.92l.29-.07-.3.05.43-.08-.43.07c-.24-1.37-.47-2.75-.68-4.13v0l.83-.1c.21,1.38.44,2.75.68,4.12Zm379.52-4.33-.83-.11.4,0-.39-.06c.21-1.37.4-2.75.58-4.13h0l.83.11-.19,0,.19,0c-.18,1.39-.37,2.78-.58,4.16l-.19,0Zm-.33-.05h0Zm.33-4.18.44,0Zm-380.8.27v0h0c-.18-1.38-.35-2.77-.5-4.16h0v-.06l.84,0c.15,1.38.32,2.77.5,4.14l-.24,0,.24,0Zm381.89-4.36-.42-.05h0l-.43,0c.15-1.38.29-2.77.41-4.16l.42,0h-.42l.83.06-.29-.05.3,0C397.94,210.49,397.8,211.88,397.65,213.27Zm-382.8-4v-.05c-.12-1.39-.23-2.78-.32-4.18l.42,0h0l.44,0c.09,1.4.19,2.79.32,4.17l-.43,0h.43Zm383.21-.25h0Zm.31-4.12-.84-.09c.09-1.38.17-2.77.23-4.17l.43,0-.43,0,.84,0v0h0c-.06,1.4-.14,2.8-.23,4.19Zm-384.07-4,.42,0Zm0,0c-.06-1.39-.11-2.78-.14-4.18l.84,0c0,1.39.08,2.78.14,4.16l-.42,0,.42-.05-.84.06h0Zm-.14-4.19h0Zm384.57-.17h-.84c0-1.39.05-2.78.05-4.18V192h.84v.35c0,1.4,0,2.8,0,4.19Zm-384.62-4v-.19c0-1.34,0-2.67,0-4H15c0,1.33,0,2.67,0,4v.18ZM398.78,192h0Zm-.9-4.17h0c0-1.4-.08-2.79-.14-4.18l.42,0-.42.06.84-.07h0c.06,1.4.11,2.8.14,4.2l-.75,0h-.09ZM15.12,184.19l-.83,0v0h0c.05-1.4.13-2.79.22-4.19v0l.84.09c-.09,1.38-.17,2.77-.23,4.17l-.41,0Zm383-.59.42,0Zm-.65-4.14c-.09-1.39-.2-2.78-.32-4.16l.42,0h-.42l.83-.08v0c.12,1.39.23,2.79.32,4.18l-.42,0h0ZM15.66,175.82l-.41,0h.41l-.84-.06.29.05-.29,0c.12-1.4.25-2.79.4-4.17l.84.09C15.91,173.05,15.77,174.43,15.66,175.82Zm-.42,0h0Zm381.54-4.66c-.16-1.39-.32-2.77-.51-4.15l.56-.07-.56.07.83-.13v0h0c.18,1.38.35,2.77.5,4.16h0v0ZM16.55,167.52l-.84-.11.19,0-.19,0c.18-1.39.38-2.77.59-4.16l.18,0-.18,0,.83.11-.42,0,.42.06c-.21,1.37-.4,2.75-.58,4.14Zm-.63-.08.2,0-.22,0Zm.54-4.16.25,0Zm379.22-.42c-.21-1.38-.44-2.75-.68-4.12l.82-.18-.29.07.3,0-.42.07.42-.07c.24,1.38.47,2.76.68,4.14v0ZM17.8,159.26l-.83-.12.19,0-.19,0,.43.06-.43-.08c.24-1.38.5-2.75.77-4.12v0l.82.19C18.29,156.52,18,157.88,17.8,159.26Zm376.43-4.6.4-.11-.4.08c-.28-1.36-.56-2.73-.87-4.08l.82-.2-.29.07.29-.06q.46,2.05.87,4.11l-.29.06.29-.05Zm-.34-4.23-.12,0,.17,0Zm-374.48.64-.82-.16v0h0c.3-1.36.62-2.72.95-4.08l.4.1h0l.41.1c-.33,1.35-.64,2.71-.94,4.07L19,151Zm373-4.59c-.33-1.36-.68-2.7-1-4l.4-.1-.41,0,.81-.2v0h0c.36,1.35.71,2.71,1.05,4.07h0v.06ZM21.38,143l-.4-.11.41,0-.81-.18.25.09-.26-.07c.36-1.35.74-2.7,1.12-4l.28.07-.27-.09.81.23-.49-.12.48.14C22.11,140.26,21.74,141.6,21.38,143Zm-.41-.1-.41-.06Zm369.27-4.44c-.39-1.33-.8-2.67-1.22-4l.41-.13-.41.1.8-.24h0c.43,1.34.83,2.67,1.23,4v0ZM23.71,134.92l-.81-.23.28.07-.27-.09.4.13-.4-.13c.42-1.34.85-2.68,1.3-4v0l.79.29h0C24.56,132.26,24.13,133.59,23.71,134.92Zm364-4.45.38-.15-.38.13c-.45-1.32-.92-2.63-1.4-3.94l.79-.29c.48,1.32.95,2.63,1.4,4l-.25.09.25-.09-.29.1.29-.1Zm-.67-4.22-.33.11ZM26.39,127l-.79-.27v0c.47-1.32,1-2.63,1.47-3.93h0l.78.29-.34-.11.34.13c-.51,1.3-1,2.61-1.47,3.92l-.49-.18Zm358.46-4.37.37-.15-.37.15c-.51-1.3-1-2.58-1.56-3.86l.39-.17-.4.14.77-.33v0c.54,1.29,1.06,2.58,1.57,3.88l-.39.15.4-.13-.4.13.4-.13ZM29.43,119.17,29,119l.42.14-.78-.31.28.14-.29-.12q.81-1.95,1.65-3.87l.39.16h0l.41.18C30.51,116.59,30,117.88,29.43,119.17ZM29,119l-.4-.14Zm352.61-4.09c-.57-1.27-1.14-2.53-1.73-3.79l.75-.37h0l-.37.18.37-.17c.59,1.26,1.17,2.53,1.73,3.8h0l0,0ZM32.79,111.51l-.75-.37c.59-1.27,1.2-2.53,1.82-3.79l.75.37c-.62,1.26-1.22,2.51-1.81,3.78l-.37-.17Zm1.82-3.79-.75-.37h0Zm343.51-.33.68-.35-.69.34c-.62-1.24-1.25-2.48-1.89-3.71l.32-.17-.32.17.74-.39h0c.65,1.24,1.28,2.48,1.9,3.73h0ZM36.5,104l-.75-.37h0l.42.21-.42-.22c.65-1.24,1.31-2.48,2-3.7h0l0,0,.72.44c-.67,1.22-1.33,2.45-2,3.69h0Zm337.75-4c-.67-1.22-1.36-2.42-2.05-3.62l.36-.22-.35.24.72-.43-.24.12.23-.14c.7,1.21,1.39,2.42,2.06,3.65l-.36.2h0ZM40.52,96.68l-.73-.41v0h0c.71-1.22,1.42-2.42,2.15-3.62l.36.22h0l.37.23q-1.08,1.78-2.13,3.6l-.35-.21Zm332-.52.35-.23Zm-2.49-3.37c-.73-1.18-1.47-2.36-2.21-3.53l.35-.23-.38.19.72-.43h0c.75,1.17,1.49,2.35,2.21,3.54h0v0l0,0ZM44.88,89.5l-.36-.22.38.19-.73-.42c.75-1.18,1.52-2.35,2.29-3.51h0l0,0,.68.49C46.39,87.16,45.63,88.33,44.88,89.5Zm-.36-.21-.37-.2Zm321.07-3.5.68-.49-.35.24.35-.24Zm0,0c-.77-1.16-1.56-2.3-2.36-3.44l.34-.24-.29.3.64-.54q1.2,1.71,2.37,3.45ZM49.48,82.61l-.65-.52v0h0c.8-1.15,1.62-2.28,2.45-3.41h0l0-.06.34.34.29.22q-1.23,1.68-2.43,3.39l-.35-.24Zm314.07-.53.3-.29Zm.34-.23h0ZM360.77,79c-.82-1.13-1.66-2.24-2.51-3.34l.34-.25-.3.29.64-.53-.24.15.23-.17c.85,1.11,1.69,2.22,2.52,3.35ZM54.44,75.85l-.66-.52,0,0h0c.85-1.11,1.71-2.21,2.59-3.3h0l.07-.07.26.32.35.25-.33-.22h0l.29.24c-.87,1.09-1.73,2.19-2.58,3.29l-.34-.26Zm2.3-3.58h0Zm301.85,3.08.3-.29Zm-2.84-2.94-.06-.08h0c-.87-1.08-1.75-2.16-2.65-3.22h0l0,0,.35-.24.26-.32-.24.31.3-.25q1.35,1.61,2.67,3.24l-.3.24.32-.21-.32.21Zm.26-.34h0Zm-2.64-3.25,0,0,.06,0Zm-293.66.47L59.38,69l0,0L59,68.8l0,0h0q1.35-1.6,2.73-3.18h0l.05-.06.29.35,0,0,0,0,.22.28-.22-.28.27.23C61.51,67.17,60.6,68.23,59.71,69.29Zm2.75-3.21-.34-.24ZM350.37,66l-.06-.06h0c-.92-1-1.85-2.08-2.79-3.11l.62-.57c.94,1,1.88,2.07,2.8,3.12l-.29.26.32-.21-.32.21ZM348,62.41l-.17.14ZM65.2,63l-.62-.55,0,0c.94-1,1.89-2,2.85-3l.29.27-.25-.31.25.31.37.25-.05.06h0c-1,1-1.91,2-2.85,3l-.3-.27Zm2.57-3.35Zm276.93.16.24-.3h0l-.26.26c-1-1-1.94-2-2.92-3l.27-.28-.33.22.33-.22.28-.35,0,0h0c1,1,2,2,2.94,3h0l.06.06-.35.23Zm.27-.33-.05,0Zm-2.94-3M71,57l-.26-.32-.35-.24.33.21-.27-.28c1-1,2-2,3-2.93l.29.3h0l.29.3C73,55,72,56,71,57h0Zm-.28-.35,0,0-.06-.06ZM338.75,53.9c-1-1-2-1.92-3.05-2.86l.29-.31-.33.27.58-.6,0,0h0c1,.95,2.05,1.9,3.06,2.87h0l0,0ZM77,51.2l-.29-.32.33.28-.59-.59.18.22-.2-.21c1-.95,2.07-1.88,3.12-2.8l.28.31h0l.28.32C79.08,49.33,78.05,50.26,77,51.2Zm-.29-.31-.32-.27Zm255.86-2.64c-1-.91-2.11-1.82-3.18-2.71l.27-.33-.29.3.55-.63h0c1.07.9,2.13,1.8,3.18,2.72h0l.05.06-.36.3ZM83.29,45.69,83,45.36l.3.3-.57-.61q1.6-1.35,3.24-2.67l0,0,0,0,0,0,.49.69C85.43,43.91,84.36,44.79,83.29,45.69ZM83,45.37l-.29-.3Zm-.24-.29,0,0h0Zm243.44-2.17.22-.35-.26.33c-1.08-.88-2.18-1.74-3.29-2.59l.49-.68-.17.26.19-.24-.26.34.27-.34c1.11.85,2.21,1.71,3.3,2.59h0ZM89.77,40.47l-.5-.67h0c1.11-.85,2.23-1.69,3.35-2.52h0l.47.69c-1.12.82-2.23,1.66-3.33,2.51l-.26-.33Zm229.8-2.66.25-.39-.27.38c-1.12-.83-2.26-1.64-3.4-2.44l.24-.34-.26.32.49-.68h0c1.15.81,2.29,1.62,3.42,2.45l-.18.25.19-.24Zm-223-2.29L96,34.84l.19.24L96,34.83c1.15-.8,2.3-1.59,3.46-2.37l.17.25-.17-.25.5.67-.26-.32.23.35q-1.72,1.16-3.42,2.34h0Zm-.31-.43.07.08-.22-.31ZM312.7,33c-1.16-.78-2.33-1.54-3.5-2.29l.22-.35-.15.39.38-.75c1.18.76,2.35,1.52,3.52,2.3l0,0,0,0,0,0ZM103.37,30.91l-.39-.74h0c1.17-.75,2.35-1.49,3.54-2.21h0l.08,0,.17.45.19.31c-1.19.72-2.36,1.45-3.54,2.2l-.22-.35Zm206-.55.17-.39Zm-3.77-1.86q-1.78-1.08-3.6-2.13h0l0,0,.24-.35.14-.39-.12.36.19-.32h0c1.21.7,2.41,1.41,3.6,2.14l-.22.36h0ZM302.27,26l0,0,.08-.13Zm-191.71.57-.21-.37,0,0-.26-.38,0,0h0c1.21-.7,2.42-1.39,3.65-2.06h0l.08,0,.13.4.22.36-.21-.32h0l.17.33C113,25.16,111.77,25.84,110.56,26.54ZM114,24.12l0,0Zm184.49.24-.08,0h0c-1.22-.67-2.46-1.33-3.69-2h0l0,0,.23-.35.14-.39-.12.36.18-.34c1.25.65,2.48,1.31,3.71,2l-.18.34.21-.32-.21.32Zm.12-.41Zm-3.69-2v0l0-.08Zm-177,.58-.19-.38h0v0l-.25-.38,0,0h0c1.24-.65,2.48-1.28,3.73-1.9h0l.07,0,.14.43,0,0,.14.39-.11-.33.16.32Q119.71,21.55,117.86,22.52Zm3.76-1.92-.22-.35ZM291,20.48l-.06,0h0c-1.25-.62-2.51-1.22-3.77-1.81l.17-.38-.21.36.34-.77.05,0h0c1.27.59,2.54,1.19,3.79,1.81l-.16.35.21-.32-.21.32ZM125.27,18.84l-.13-.4-.22-.35.21.32-.16-.35c1.26-.59,2.53-1.17,3.81-1.73l.17.38h0l.17.38c-1.27.57-2.54,1.14-3.79,1.73h0Zm-.14-.43,0,0,0-.07Zm158.25-1.49c-1.28-.56-2.56-1.11-3.85-1.64l.16-.39-.21.37.33-.77,0,0h0l3.87,1.65h0l0,0ZM132.94,15.45l-.16-.39.21.37-.35-.76.09.28-.11-.27c1.28-.54,2.58-1.06,3.87-1.56l.31.78C135.51,14.4,134.22,14.92,132.94,15.45Zm-.17-.38-.2-.37Zm142.87-1.35q-2-.75-3.93-1.47l.27-.8-.13.4.13-.4-.1.33.12-.32c1.32.48,2.63,1,3.94,1.48h0l.07,0-.25.43Zm-134.93-1.3-.15-.4.21.37-.35-.76c1.31-.48,2.63-.94,4-1.39l.05.17-.05-.18h0l.24.8C143.33,11.48,142,11.94,140.71,12.42Zm-.15-.39-.2-.37Zm-.11-.31,0-.09h0Zm127.34-.84.1-.41-.13.4c-1.33-.45-2.65-.88-4-1.3l.12-.38-.13.38.24-.81h0c1.34.42,2.67.85,4,1.3Zm.1-.41ZM148.62,9.73l-.26-.81,0,.08,0-.07c1.33-.43,2.67-.83,4-1.23l.11.41v0h0l-.11-.38.26.8-.14-.39.11.4c-1.33.39-2.66.8-4,1.21h0ZM259.77,8.36h0q-2-.58-4-1.11l.11-.4-.13.39.24-.81h0c1.35.36,2.7.74,4,1.13h0Zm-103.14-1-.23-.8.1.3-.08-.31c1.34-.36,2.7-.71,4.06-1h0l.11,0V6l.09.36C159.32,6.67,158,7,156.63,7.38Zm4.07-1-.11-.41Zm91.11-.11h-.11c-1.35-.33-2.71-.64-4.07-.94h0l.12-.41v0l.09-.37c1.37.3,2.73.61,4.09.94l-.09.38.1-.37-.1.37Zm-4.09-1.4v0l0-.16Zm-83,.56L164.66,5V5l-.13-.44h0c1.37-.3,2.74-.59,4.11-.86h.09v.47l.07.36C167.47,4.81,166.1,5.09,164.75,5.39Zm4.12-.87-.11-.4Zm74.76-.08h-.09c-1.37-.27-2.74-.52-4.11-.76h-.05l.11-.41v0l.07-.38c1.38.24,2.76.5,4.13.77l-.07.37.1-.37-.1.37ZM239.5,3.22v0l0-.09Zm-66.56.54-.07-.41h0v0l-.13-.44h0c1.38-.24,2.76-.47,4.14-.68H177v.49l.05.35C175.68,3.29,174.31,3.52,172.94,3.76Zm4.17-.69-.1-.41ZM235.38,3h-.07c-1.38-.21-2.76-.4-4.14-.58l0-.39-.12.37.12-.37V1.58h.07c1.39.18,2.77.37,4.15.58l-.05.38.11-.37-.11.37Zm0-.43ZM181.13,2.5V2.07L181,1.68l.12.36,0-.38c1.38-.19,2.77-.35,4.16-.51l.05.39v0l.14.43h-.1c-1.39.15-2.77.32-4.15.5h-.06Zm0-.45v0Zm4.17-.48Zm41.77.36v0Zm0,0c-1.38-.15-2.77-.28-4.16-.4l0-.41V.69h.05c1.39.12,2.78.25,4.17.4h0l.1,0-.14.42v0l-.12.35.12-.35Zm-37.57-.35V1.16l-.12-.4.12.37,0-.39c1.39-.12,2.79-.23,4.19-.32l0,.39v0l.14.43-.12,0h0c-1.39.09-2.77.2-4.14.32h-.05Zm0-.45v0Zm4.19-.29h0Zm25.08.39v0Zm0,0c-1.39-.09-2.78-.16-4.17-.22V.17h0V.6l0-.43c1.4.06,2.8.13,4.19.22h0l.12,0-.15.43v0l-.12.37.12-.37ZM197.82,1l0-.84c1.39-.06,2.78-.11,4.18-.14l0,.8V.05h0V.89h0c-1.39,0-2.78.08-4.17.14V1ZM210.37.88v0c-1.3,0-2.6,0-3.9,0h-.28V0h.28c1.31,0,2.61,0,3.92,0h0Zm-4.2,0V0h0Z"></path><path class="cls-1" d="M206.45,345.14c-84.26,0-152.81-68.55-152.81-152.81S122.19,39.52,206.45,39.52s152.8,68.55,152.8,152.81S290.7,345.14,206.45,345.14Zm0-304.78c-83.8,0-152,68.18-152,152s68.17,152,152,152,152-68.17,152-152S290.24,40.36,206.45,40.36Z"></path></g><g id="Layer_1" data-name="Layer 1"><polygon class="cls-2" points="57.31 320 109.69 303.43 109.69 233.73 57.31 247.23 57.31 320"></polygon><polygon class="cls-3" points="57.31 320 4.92 303.43 4.92 233.73 57.31 247.23 57.31 320"></polygon><polygon class="cls-4" points="109.69 233.73 57.31 247.11 4.92 233.73 57.31 222.76 109.69 233.73"></polygon><polygon class="cls-5" points="90.04 238.72 79.93 241.38 28.96 228.48 41.49 226.04 90.04 238.72"></polygon><polygon class="cls-6" points="79.93 241.38 79.85 258.93 79.84 258.93 80.91 259.24 81.92 258.26 82.99 258.56 84 257.58 85.07 257.89 86.08 256.91 87.15 257.21 88.16 256.23 89.23 256.54 90.24 255.56 90.04 238.72 79.93 241.38"></polygon><polygon class="cls-2" points="57.31 240.05 109.69 223.48 109.69 153.78 57.31 167.29 57.31 240.05"></polygon><polygon class="cls-3" points="57.31 240.05 4.92 223.48 4.92 153.78 57.31 167.29 57.31 240.05"></polygon><polygon class="cls-4" points="109.69 153.78 57.31 167.16 4.92 153.78 57.31 142.81 109.69 153.78"></polygon><polygon class="cls-5" points="90.04 158.77 79.93 161.43 28.96 148.53 41.49 146.09 90.04 158.77"></polygon><polygon class="cls-6" points="79.93 161.43 79.85 178.98 79.84 178.98 80.91 179.29 81.92 178.31 82.99 178.62 84 177.63 85.07 177.94 86.08 176.96 87.15 177.27 88.16 176.28 89.23 176.59 90.24 175.61 90.04 158.77 79.93 161.43"></polygon><polygon class="cls-2" points="57.31 160.1 109.69 143.53 109.69 73.84 57.31 87.34 57.31 160.1"></polygon><polygon class="cls-3" points="57.31 160.1 4.92 143.53 4.92 73.84 57.31 87.34 57.31 160.1"></polygon><polygon class="cls-4" points="109.69 73.84 57.31 87.22 4.92 73.84 57.31 62.87 109.69 73.84"></polygon><polygon class="cls-5" points="90.04 78.83 79.93 81.49 28.96 68.58 41.49 66.15 90.04 78.83"></polygon><polygon class="cls-6" points="79.93 81.49 79.85 99.03 79.84 99.03 80.91 99.34 81.92 98.36 82.99 98.67 84 97.69 85.07 98 86.08 97.01 87.15 97.32 88.16 96.34 89.23 96.64 90.24 95.66 90.04 78.83 79.93 81.49"></polygon><g class="cls-7"><rect class="cls-2" x="159.65" y="103" width="247.05" height="9.1"></rect><path class="cls-4" d="M222.13,112.1v-4.48a2,2,0,0,0-2-2H168.24a2,2,0,0,0-2.05,2v4.48h-6.54v12.13H406.7V112.1Z"></path><rect class="cls-3" x="159.65" y="124.23" width="247.05" height="144.33"></rect><path class="cls-5" d="M388.73,122H184.85a2.39,2.39,0,0,1-2.43-2.36v-3a2.4,2.4,0,0,1,2.43-2.36H388.73a2.4,2.4,0,0,1,2.42,2.36v3A2.39,2.39,0,0,1,388.73,122Z"></path><rect class="cls-8" x="397.94" y="116.44" width="4.09" height="0.44"></rect><rect class="cls-8" x="397.94" y="117.89" width="4.09" height="0.44"></rect><rect class="cls-8" x="397.94" y="119.33" width="4.09" height="0.44"></rect><polygon class="cls-8" points="166.7 120.9 167.03 120.57 164.83 118.42 167.06 116.25 166.73 115.92 164.5 118.1 164.19 118.4 164.17 118.42 166.7 120.9"></polygon><rect class="cls-8" x="164.72" y="118.17" width="5.13" height="0.48"></rect><polygon class="cls-8" points="176.46 120.9 176.13 120.57 178.34 118.42 176.11 116.25 176.44 115.92 178.67 118.1 178.97 118.4 179 118.42 176.46 120.9"></polygon><rect class="cls-8" x="173.31" y="118.17" width="5.13" height="0.48"></rect><polygon class="cls-8" points="188.68 116.94 187.44 117.72 188.45 117.93 188.68 116.94"></polygon><path class="cls-8" d="M188.12,118.52a1.41,1.41,0,1,1-.16-1.08l.3-.17a1.8,1.8,0,0,0-1.53-.85,1.75,1.75,0,1,0,1.71,2.24Z"></path><path class="cls-8" d="M220.07,109.46h0a.14.14,0,0,1-.19,0l-1.57-1.54a.12.12,0,0,1,0-.19h0a.14.14,0,0,1,.19,0l1.57,1.54A.12.12,0,0,1,220.07,109.46Z"></path><path class="cls-8" d="M220.07,109.46h0a.14.14,0,0,1-.19,0l-1.57-1.54a.12.12,0,0,1,0-.19h0a.14.14,0,0,1,.19,0l1.57,1.54A.12.12,0,0,1,220.07,109.46Z"></path><path class="cls-8" d="M220.07,107.73h0a.12.12,0,0,1,0,.19l-1.57,1.54a.14.14,0,0,1-.19,0h0a.12.12,0,0,1,0-.19l1.57-1.54A.14.14,0,0,1,220.07,107.73Z"></path><path class="cls-8" d="M401.54,109.07h0a.25.25,0,0,1-.34,0l-2.78-2.72a.24.24,0,0,1,0-.33h0a.24.24,0,0,1,.33,0l2.79,2.72A.22.22,0,0,1,401.54,109.07Z"></path><path class="cls-8" d="M401.54,109.07h0a.25.25,0,0,1-.34,0l-2.78-2.72a.24.24,0,0,1,0-.33h0a.24.24,0,0,1,.33,0l2.79,2.72A.22.22,0,0,1,401.54,109.07Z"></path><path class="cls-8" d="M401.54,106h0a.24.24,0,0,1,0,.33l-2.79,2.72a.24.24,0,0,1-.33,0h0a.22.22,0,0,1,0-.32L401.2,106A.25.25,0,0,1,401.54,106Z"></path><rect class="cls-8" x="391.97" y="108.75" width="3.15" height="0.52" rx="0.26"></rect></g><rect class="cls-9" x="258.58" y="160.8" width="45.9" height="33.41" rx="4.75" transform="translate(459.04 -104.03) rotate(90)"></rect><rect class="cls-9" x="303.53" y="160.8" width="45.9" height="33.41" rx="4.75" transform="translate(503.98 -148.97) rotate(90)"></rect><rect class="cls-9" x="347.51" y="160.8" width="45.9" height="33.41" rx="4.75" transform="translate(547.96 -192.95) rotate(90)"></rect><rect class="cls-9" x="214.23" y="160.8" width="45.9" height="33.41" rx="4.75" transform="translate(414.68 -59.67) rotate(90)"></rect><rect class="cls-9" x="169.88" y="160.8" width="45.9" height="33.41" rx="4.75" transform="translate(370.33 -15.32) rotate(90)"></rect><rect class="cls-9" x="258.58" y="224.11" width="45.9" height="33.41" rx="4.75" transform="translate(522.34 -40.72) rotate(90)"></rect><rect class="cls-9" x="303.53" y="224.11" width="45.9" height="33.41" rx="4.75" transform="translate(567.29 -85.66) rotate(90)"></rect><rect class="cls-9" x="347.51" y="224.11" width="45.9" height="33.41" rx="4.75" transform="translate(611.27 -129.64) rotate(90)"></rect><rect class="cls-9" x="214.23" y="224.11" width="45.9" height="33.41" rx="4.75" transform="translate(477.99 3.63) rotate(90)"></rect><rect class="cls-9" x="169.88" y="224.11" width="45.9" height="33.41" rx="4.75" transform="translate(433.64 47.99) rotate(90)"></rect><path class="cls-5" d="M181.19,190.78v2h24v-2Zm0,6h14.75v-2H181.19Z"></path><path class="cls-5" d="M225.55,190.78v2h24v-2Zm0,6h14.74v-2H225.55Z"></path><path class="cls-5" d="M269.9,190.78v2h24v-2Zm0,6h14.74v-2H269.9Z"></path><path class="cls-5" d="M314.25,190.78v2h24v-2Zm0,6H329v-2H314.25Z"></path><path class="cls-5" d="M358.6,190.78v2h24v-2Zm0,6h14.75v-2H358.6Z"></path><path class="cls-5" d="M181.19,251.25v2h24v-2Zm0,6h14.75v-2H181.19Z"></path><path class="cls-5" d="M225.55,251.25v2h24v-2Zm0,6h14.74v-2H225.55Z"></path><path class="cls-5" d="M269.9,251.25v2h24v-2Zm0,6h14.74v-2H269.9Z"></path><path class="cls-5" d="M314.25,251.25v2h24v-2Zm0,6H329v-2H314.25Z"></path><path class="cls-5" d="M358.6,251.25v2h24v-2Zm0,6h14.75v-2H358.6Z"></path><rect class="cls-9" x="272.21" y="25.07" width="19.35" height="227.23" rx="2.7" transform="translate(420.57 -143.19) rotate(90)"></rect><path class="cls-10" d="M263.72,136.49h-27.9a2.2,2.2,0,0,0,0,4.4h27.9a2.2,2.2,0,1,0,0-4.4Zm38.53,0H274.36a2.2,2.2,0,1,0,0,4.4h27.89a2.2,2.2,0,1,0,0-4.4Zm38.54,0h-27.9a2.2,2.2,0,1,0,0,4.4h27.9a2.2,2.2,0,0,0,0-4.4Z"></path><rect class="cls-10" x="174.96" y="133.58" width="18.58" height="10.21" rx="2.03"></rect><path class="cls-11" d="M394.38,209h-225a1.11,1.11,0,1,1,0-2.22h225a1.11,1.11,0,1,1,0,2.22Z"></path><path class="cls-12" d="M121.16,277.18h-7.55v-.63h7.55Zm-15.1,0H98.51v-.63h7.55Zm-15.1,0H84.59v-.63H91Zm31.6-6.77h-.63v-7.55h.63Zm0-15.1h-.63v-7.55h.63Zm0-15.1h-.63v-7.55h.63Zm0-15.1h-.63v-7.55h.63Zm0-15.1h-.63v-7.55h.63Zm0-15.1h-.63v-7.55h.63Zm0-15.1h-.63v-7.55h.63Zm0-15.1h-.63v-7.54h.63Zm0-15.09h-.63v-7.55h.63Zm0-15.1h-.63V127h.63Zm-.31-14.88h-7.46V119h7.77v.4h-.31Zm-15,0H99.69V119h7.55Zm-15.1,0H84.59V119h7.55Z"></path><path class="cls-12" d="M168.07,195.07h-7.54v-.63h7.54Zm-15.09,0h-7.55v-.63H153Zm-15.1,0h-7.55v-.63h7.55Zm-15.1,0h-7.55v-.63h7.55Zm-15.1,0h-7.55v-.63h7.55Zm-15.1,0H85v-.63h7.55Z"></path></g></svg> 