<?xml version="1.0" encoding="UTF-8"?> <svg xmlns="http://www.w3.org/2000/svg" viewBox="0 0 396.02 394"><defs><style>.cls-1,.cls-8{fill:#00a7e1;}.cls-1{opacity:0.4;}.cls-2{fill:#d8d7d2;}.cls-3{fill:#b6e8fb;}.cls-4{fill:#fff;}.cls-5{fill:#003058;}.cls-6{fill:#f2f2f2;}.cls-7{fill:#666;}.cls-9{fill:#606060;}.cls-10{fill:#939393;}.cls-11{fill:#b7b7b7;}.cls-12{fill:#ccc;}</style></defs><title>digital-river-content-graphics-v1_isolated</title><g id="Layer_2" data-name="Layer 2"><path class="cls-1" d="M197.54,389.58h-.09c-1.37,0-2.74,0-4.1,0h0v-.84c1.36,0,2.72,0,4.09,0Zm0,0h0v0Zm4.17-.05h0v0Zm0,0,0-.84c1.4,0,2.79-.07,4.17-.13l0,.43v-.43l0,.84h0C204.52,389.46,203.13,389.5,201.73,389.53Zm-12.55-.12h0V389l0,.42c-1.4-.06-2.8-.13-4.19-.22h0l-.12,0,.14-.4v0h0l0-.38c1.39.09,2.78.16,4.18.22l0,.33Zm-4.19-.68v0Zm25.11.44,0-.39v0l-.14-.43.11,0h0c1.38-.09,2.76-.2,4.14-.31h0v.42l.13.4-.13-.37,0,.39C212.9,389,211.5,389.08,210.1,389.17Zm4.15-.74v0Zm-33.43.44h0c-1.4-.12-2.79-.26-4.18-.41h0l-.1,0,.14-.39V388l0-.37c1.38.15,2.77.28,4.16.4l0,.39.13-.37-.13.37Zm-4.17-.85v0Zm41.77.43v-.39l-.14-.43.09,0h0c1.39-.15,2.77-.32,4.15-.5h.06v.42l.13.4-.13-.37,0,.39c-1.38.18-2.77.34-4.17.5l0-.39Zm0-.42Zm4.15-.5v0ZM172.5,388h-.06c-1.39-.18-2.78-.38-4.16-.59l.05-.38-.1.37.1-.37v-.45h.08c1.37.21,2.75.41,4.13.58l0,.42V388Zm-4.16-1h0v0Zm58.37.39v-.42l-.11-.4.11.37v0l-.05-.35c1.37-.21,2.75-.44,4.12-.68l.07.38v0l.12.44h-.05c-1.37.24-2.75.47-4.14.68h-.07Zm0-.45v0Zm-62.5-.2v-.38l-.07.38c-1.38-.24-2.75-.5-4.12-.77l.07-.38-.11.37.11-.37v-.45h.09c1.36.26,2.73.52,4.11.76h.05l-.12.41Zm0-.42v0Zm-4.11-.76Zm74.85.39v-.42l-.1-.41.1.37h0l-.07-.37c1.37-.27,2.73-.55,4.09-.85l.09.37v0l.13.44h0c-1.36.3-2.73.58-4.1.86h0Zm0-.46v0ZM156,385.09v-.38l-.09.37c-1.37-.3-2.73-.61-4.09-.94l.09-.38-.1.37.1-.37v-.45H152c1.35.33,2.71.64,4.07.94h0l-.11.41Zm0-.42,0,.15Zm87.13-.56v-.42l-.11-.41.11.37h0l-.09-.37c1.34-.33,2.69-.67,4-1h0l.23.8-.1-.31.08.32c-1.35.36-2.7.7-4.06,1h0Zm0-.46v0Zm-95.37-.55h0c-1.35-.36-2.69-.74-4-1.13h0l.26-.8c1.34.38,2.68.76,4,1.12l-.1.4.13-.39Zm103.58-1.17-.26-.8.14.39-.11-.4c1.34-.39,2.67-.79,4-1.21l.26.8,0,0,0,0c-1.33.42-2.67.82-4,1.22l-.11-.41v0Zm-111.62-1.16h0c-1.34-.42-2.67-.86-4-1.31l.24-.8-.11.4.14-.39c1.32.45,2.65.88,4,1.3l-.12.37L140,380Zm119.6-1.36-.24-.8c1.31-.45,2.63-.91,3.93-1.39l.15.4-.21-.37.35.76c-1.31.48-2.63.94-4,1.39l0-.17,0,.17Zm-127.58-1.34h0c-1.32-.48-2.63-1-3.94-1.48h0l-.06,0,.24-.43.13-.33c1.3.51,2.61,1,3.92,1.48l-.14.39.21-.36ZM263.3,378l0-.09,0,.09Zm.07,0-.2-.37Zm3.86-1.45-.15-.39h0l-.16-.39c1.3-.51,2.58-1,3.86-1.56l.17.4-.21-.37.35.76-.1-.28.12.27C269.82,375.5,268.53,376,267.23,376.53ZM123.92,375h0q-1.95-.81-3.87-1.65h0l-.05,0,.39-.74c1.28.56,2.56,1.11,3.85,1.64l-.16.39.21-.36ZM271.15,375l-.2-.37Zm3.8-1.62-.34-.77c1.27-.56,2.53-1.14,3.79-1.72h0l.06,0,.13.4.22.36-.21-.32.16.35C277.49,372.19,276.23,372.76,275,373.33Zm3.63-2.12,0,.09Zm-162.35.43,0,0h0c-1.27-.6-2.54-1.2-3.79-1.82l.16-.35-.21.32.21-.32.15-.43.06,0h0c1.25.62,2.51,1.23,3.77,1.82l-.18.38.21-.37Zm166.23-1.83-.14-.43,0,0-.14-.4.11.32-.16-.31c1.25-.61,2.49-1.24,3.72-1.88l.19.37v0l.25.38,0,0h0c-1.24.65-2.48,1.28-3.73,1.9h0Zm-.13-.39-.22-.36Zm-173.63-1.5.12-.36-.18.33c-1.24-.64-2.48-1.31-3.71-2l.19-.34-.22.32.22-.32.14-.43.08,0h0c1.22.68,2.45,1.33,3.69,2h0l0,0-.23.35Zm.13-.4,0,.08Zm-3.7-2h0Zm184.74.41-.15-.43,0,0,0-.05-.12-.34.12.34-.18-.32c1.22-.67,2.43-1.35,3.63-2.05l.21.37v0l.25.38,0,0h0c-1.21.7-2.42,1.38-3.64,2.06h0Zm-.14-.4-.22-.35Zm-188.38-1.67.12-.36-.2.32c-1.21-.7-2.42-1.41-3.61-2.14l.22-.36h0l.22-.37c1.2.73,2.39,1.44,3.6,2.14h0l0,0-.23.35Zm.13-.4-.07.13Zm195.64-1.72-.18-.44-.18-.31c1.18-.72,2.36-1.46,3.53-2.21l.23.36-.16-.39.4.73h0c-1.18.75-2.36,1.49-3.56,2.22h0Zm-203-2.28h0c-1.18-.76-2.35-1.52-3.51-2.3h0l0,0,.5-.67c1.16.78,2.33,1.54,3.5,2.29l-.22.35.26-.32Zm210.16-2.26-.09-.14.09.14-.5-.67.26.32-.22-.34c1.15-.78,2.3-1.56,3.44-2.36l.5.67-.19-.24.17.26C306.57,355.66,305.41,356.45,304.25,357.22Zm3.22-2.71.22.32Zm-220.34.31h0c-1.14-.81-2.28-1.62-3.41-2.45l.18-.26-.19.25.48-.69-.25.4.28-.38c1.12.82,2.25,1.64,3.39,2.44l-.24.34.27-.33Zm224-2.39-.47-.69c1.12-.83,2.23-1.66,3.33-2.51l.26.34-.23-.36.5.68h0c-1.1.85-2.22,1.69-3.35,2.51h0ZM80.37,349.85l.17-.26-.19.24.25-.32-.26.32c-1.11-.85-2.21-1.71-3.3-2.59l.49-.68-.22.35.26-.32c1.09.87,2.18,1.73,3.29,2.58Zm237.35-2.51-.49-.68c1.09-.87,2.17-1.76,3.23-2.65l.28.33-.31-.31.57.62c-1.07.9-2.15,1.79-3.24,2.66Zm3.28-2.69v0Zm0,0-.29-.31Zm-247.21,0,0,0q-1.6-1.35-3.18-2.73h0l-.06,0,.37-.31.24-.27c1,.92,2.1,1.82,3.17,2.72l-.27.32.3-.29Zm250.36-2.67-.27-.31h0l-.28-.32c1.05-.92,2.08-1.85,3.11-2.79l.29.32-.33-.27.59.59-.18-.23.2.21C326.27,340.07,325.23,341,324.18,341.92Zm3.16-2.84-.31-.27Zm-259.82,0,0,0h0c-1-1-2-1.9-3.06-2.87h0l0,0,.62-.57c1,1,2,1.92,3,2.86l-.28.31.32-.27Zm262.85-2.8-.29-.31h0l-.29-.31c1-1,2-1.93,3-2.92h0l0,0,.27.33.34.24-.32-.21.27.28C332.38,334.31,331.38,335.29,330.37,336.26Zm2.7-3.24.07.07Zm-271.59.25,0,0h0c-1-1-2-2-2.93-3h0l0-.06.37-.25v0l0,0,.31-.2-.31.2.27-.25c1,1,1.93,2,2.92,3l-.27.28.32-.22-.32.22Zm274.78-2.9-.24-.31-.38-.25.06-.06h0c1-1,1.91-2,2.85-3.05l.31.29-.29-.3.62.56,0,0h0c-.94,1-1.9,2.05-2.87,3.06l-.28-.27ZM336,330Zm-277.2-.1.27-.32Zm-3.17-2.76c-.94-1-1.87-2.07-2.8-3.13l.29-.25-.32.21.32-.22.29-.35.05.06h0c.91,1.05,1.84,2.08,2.78,3.11Zm.18-.16h0l.15-.13Zm-2.66-3.24Zm288.77.43-.29-.36,0,0-.05,0-.23-.28.23.28-.27-.24c.92-1,1.82-2.1,2.72-3.17l.32.27,0,0,.38.25,0,0h0c-.9,1.07-1.81,2.14-2.73,3.19h0Zm-.27-.33-.34-.24ZM50.16,320.93l.24-.3-.3.24c-.9-1.07-1.78-2.15-2.66-3.24l.3-.24-.32.21.32-.21L48,317l.06.07h0c.87,1.08,1.75,2.16,2.65,3.22h0l0,0-.35.23Zm.26-.33-.06.06Zm-2.65-3.23Zm299.54.43-.28-.36,0,0,0,0-.24-.29.24.29-.3-.23c.88-1.09,1.74-2.18,2.59-3.29l.34.26-.3-.3.65.52,0,0h0c-.86,1.11-1.72,2.21-2.6,3.3h0Zm-.26-.33-.35-.24ZM44.89,314.38l.3-.29Zm0,0c-.85-1.11-1.69-2.22-2.51-3.35l.33-.25h0l.34-.25c.83,1.12,1.66,2.24,2.51,3.34l-.34.26.3-.3-.64.53.25-.16Zm307.6-3.21-.34-.35-.29-.21c.83-1.12,1.64-2.25,2.44-3.39l.35.24-.3-.3.65.52v0h0c-.81,1.14-1.62,2.28-2.45,3.41h0ZM39.94,307.64l.3-.29Zm0-.05c-.8-1.14-1.59-2.3-2.37-3.46l.7-.47c.78,1.16,1.56,2.31,2.36,3.44l-.34.25.29-.3-.64.54,0,0Zm317.42-3.37-.68-.49c.77-1.16,1.54-2.33,2.29-3.5l.35.23-.37-.19.73.41c-.76,1.18-1.52,2.35-2.3,3.52Zm-319.79-.09.35-.23-.35.23.68-.49Zm322.13-3.49-.37-.19Zm-324.41,0h0c-.75-1.18-1.49-2.36-2.21-3.56h0l0,0,.74-.39c.73,1.19,1.46,2.36,2.21,3.53l-.35.23.37-.19Zm326.61-3.52-.36-.22h0l-.39-.23c.73-1.19,1.44-2.39,2.14-3.6l.36.21-.35-.23.73.41v0h0C363.29,294.71,362.58,295.92,361.85,297.12Zm-331-3.62.36-.23Zm0,0c-.7-1.2-1.39-2.42-2.06-3.64l.37-.21,0,0,.39-.22c.67,1.22,1.35,2.43,2.05,3.63l-.37.21.35-.23-.72.43.24-.12ZM366,289.88l-.71-.44c.67-1.22,1.33-2.45,2-3.69l.76.37h0l-.37-.19.37.2c-.65,1.24-1.31,2.48-2,3.7ZM26.85,286.14h0c-.64-1.24-1.27-2.48-1.89-3.73h0l.75-.37-.65.33.65-.32c.62,1.25,1.25,2.48,1.89,3.71l-.37.2.37-.19ZM370,282.4l-.75-.37.75.36Zm0,0-.75-.37c.62-1.25,1.22-2.51,1.82-3.78l.38.18-.38-.19.76.37h0C371.18,279.87,370.57,281.14,370,282.39Zm-346.8-3.73h0l.38-.19-.38.18c-.59-1.26-1.17-2.53-1.73-3.8h0l0,0,.78-.29c.56,1.27,1.14,2.53,1.73,3.79Zm350.37-3.89-.77-.34c.56-1.28,1.11-2.56,1.64-3.85l.38.16-.39-.13.78.31-.25-.12.26.1Q374.36,272.85,373.52,274.77ZM19.78,271l0,0h0c-.53-1.28-1.05-2.57-1.56-3.88l.37-.14-.38.13.38-.13-.38.12.79-.28-.3.12.3-.12c.51,1.29,1,2.58,1.56,3.86l-.4.16.41-.13Zm355.4-.16-.39-.14Zm1.56-3.87-.79-.29.32.1-.31-.12c.5-1.3,1-2.6,1.47-3.92l.4.14-.39-.14.79.27v0h0c-.48,1.32-1,2.63-1.48,3.93Zm-360-3.77.37-.18Zm0,0c-.48-1.31-.95-2.63-1.4-3.95l.8-.28c.45,1.32.91,2.64,1.39,3.94l-.4.15.38-.19-.77.33.09,0Zm-1.4-4,.4-.13-.4.13.79-.29Zm364.29-.12-.79-.29h0c.44-1.32.88-2.64,1.3-4l.81.23-.28-.07.27.09-.4-.12.4.12c-.42,1.34-.86,2.68-1.31,4ZM14,255.26h0c-.42-1.33-.82-2.67-1.22-4h0v0l.81-.21c.39,1.34.8,2.67,1.22,4l-.39.13.39-.1Zm368.12-4.18-.81-.22.4.09-.39-.12c.39-1.33.76-2.67,1.12-4l.41.11-.42,0,.82.17L383,247l.24.07c-.36,1.35-.73,2.7-1.12,4l-.28-.08ZM11.67,247.23v0c-.36-1.35-.71-2.7-1-4.06h0v-.06l.83-.14c.33,1.35.67,2.7,1,4l-.39.1.41-.05ZM383.29,247l-.42-.06Zm1-4-.81-.2c.33-1.35.64-2.7.94-4.07l.44.1-.44-.11.83.16v0h0C385,240.24,384.64,241.61,384.31,243ZM9.67,239.05,10,239l-.29.06c-.3-1.36-.59-2.73-.86-4.1l.29-.06-.3,0,.82-.18-.4.12.41-.09c.27,1.37.56,2.73.86,4.09Zm.41-.1-.17,0Zm-.88-4.09h0Zm376.91-.06-.81-.19c.26-1.37.52-2.74.76-4.11l.41.07-.4-.1.82.16h0c-.24,1.38-.5,2.76-.77,4.13ZM8,230.84l.29-.07-.3,0,.4-.08-.4.07c-.24-1.37-.47-2.75-.68-4.14v0l.83-.1c.21,1.38.44,2.75.68,4.12Zm379.53-4.33-.84-.11.4,0-.39-.06c.21-1.38.4-2.75.58-4.14h0l.83.11-.18,0,.18,0c-.18,1.39-.37,2.78-.58,4.15l-.19,0Zm-.34-.06h0Zm.52-4.15.22,0Zm-381,.25v0h0c-.18-1.39-.35-2.77-.5-4.16h0v-.06l.84,0c.15,1.39.31,2.77.49,4.15l-.41.06.41-.06Zm381.89-4.37-.42,0h0l-.42,0c.15-1.38.28-2.76.4-4.15l.42,0h-.42l.83.06-.29-.05.3,0C388.94,215.41,388.8,216.8,388.65,218.18Zm-382.79-4v0c-.12-1.39-.23-2.78-.32-4.18L6,210h0l.44,0c.09,1.4.2,2.78.32,4.17l-.42,0h.42Zm383.2-.25h0Zm.31-4.11-.84-.09c.09-1.38.17-2.77.23-4.17l.43,0-.43-.05.84,0v0h0c-.06,1.4-.14,2.79-.23,4.19Zm-384.07-4,.42,0Zm0,0h0Zm0,0c-.06-1.39-.1-2.78-.14-4.17l.84,0c0,1.39.08,2.78.14,4.16l-.42,0,.42,0Zm-.14-4.18h0Zm384.57-.18h-.84c0-1.39.05-2.79.05-4.18v-.35h.84v.35c0,1.4,0,2.8,0,4.19Zm-384.61-4v-.19c0-1.34,0-2.68,0-4H6c0,1.33,0,2.66,0,4v.18Zm383.76-4.71h0c0-1.39-.08-2.78-.14-4.17l.42,0-.41.05.83-.06h0c.06,1.4.11,2.79.14,4.2h-.84ZM6.12,189.11l-.83,0v0h0c.06-1.4.13-2.79.22-4.19v0l.84.09c-.09,1.38-.16,2.77-.22,4.17l-.42,0Zm383-.59.42,0Zm-.65-4.14c-.09-1.39-.2-2.78-.32-4.17l.42,0h-.42l.83-.08v0c.12,1.39.23,2.78.32,4.18l-.42,0h0ZM6.66,180.74l-.41,0h.41l-.84-.06.29,0-.29,0c.12-1.4.25-2.79.4-4.18l.84.09C6.91,178,6.78,179.35,6.66,180.74Zm-.42,0h0Zm381.54-4.66c-.15-1.39-.32-2.77-.5-4.15l.54-.07-.54.07.83-.13v0h0c.18,1.39.35,2.78.5,4.17h0V176ZM7.55,172.44l-.84-.11.19,0-.19,0c.18-1.39.38-2.78.59-4.16l.19,0-.19,0,.83.11-.42,0,.42.06c-.21,1.37-.4,2.75-.58,4.13h0Zm-.63-.08.22,0-.24,0Zm.54-4.16.25,0Zm379.22-.42h0c-.21-1.37-.44-2.75-.68-4.11l.82-.18-.29.07.3-.05-.43.09.43-.08c.24,1.37.47,2.75.68,4.14h0v0ZM8.8,164.18,8,164.05l.19,0-.19,0,.44.06L8,164c.24-1.38.5-2.75.77-4.12v0l.82.19C9.29,161.43,9,162.8,8.8,164.18Zm376.43-4.6.4-.11-.4.08c-.27-1.36-.56-2.72-.86-4.08h0l.81-.19-.29.07.3-.06c.3,1.37.59,2.73.86,4.11l-.29.06.29,0Zm-.34-4.24-.12,0,.17,0ZM10.41,156l-.82-.16v0h0c.29-1.37.61-2.72.94-4.08l.41.1h0l.42.1c-.32,1.35-.64,2.71-.94,4.07L10,155.9Zm373-4.59c-.33-1.36-.68-2.7-1-4.05l.41-.11-.42.06.81-.2v0h0c.37,1.35.71,2.71,1.05,4.07h0v.05Zm-371-3.54-.39-.1.4.05-.81-.18.23.08-.24-.06c.36-1.36.74-2.71,1.13-4.05l.28.08-.28-.09.81.22L13,143.7l.48.14C13.12,145.17,12.74,146.51,12.38,147.86Zm-.4-.1-.42-.06Zm369.26-4.43c-.39-1.34-.8-2.67-1.22-4l.4-.13-.4.1.8-.24v0c.42,1.33.83,2.66,1.22,4v0ZM14.71,139.84l-.81-.23.28.07-.27-.09.4.12-.4-.12c.42-1.34.85-2.68,1.3-4v0l.79.29h0C15.56,137.18,15.13,138.51,14.71,139.84Zm364-4.45.38-.16-.39.14c-.45-1.32-.91-2.63-1.39-3.94h0l.79-.29c.48,1.31.94,2.63,1.39,4l-.36.12.36-.12-.37.12.37-.12Zm-.67-4.23-.34.12Zm-360.67.74-.79-.27v0h0c.48-1.32,1-2.63,1.48-3.94h0l.78.29-.34-.12.34.13c-.51,1.31-1,2.61-1.47,3.93l-.4-.15Zm358.46-4.38c-.51-1.29-1-2.58-1.56-3.86l.39-.16-.4.14.77-.33v0c.54,1.29,1.06,2.58,1.57,3.88l-.39.15h0ZM20.43,124.09l-.39-.17.4.14-.78-.31.26.13-.27-.12q.81-1.94,1.65-3.87l.39.17h0l.4.18C21.51,121.51,21,122.79,20.43,124.09Zm-.39-.16-.4-.14Zm352.61-4.09c-.57-1.27-1.14-2.53-1.73-3.79l.75-.37h0l-.38.18.38-.18c.59,1.27,1.17,2.53,1.74,3.81h0l0,0ZM23.8,116.43l-.76-.37h0c.59-1.27,1.2-2.53,1.82-3.79l.75.37c-.61,1.25-1.22,2.51-1.81,3.78l-.38-.18Zm1.81-3.79-.75-.37h0Zm343.51-.33.61-.32-.62.31c-.62-1.24-1.25-2.48-1.89-3.71l.41-.22-.41.21.74-.38h0c.64,1.23,1.28,2.47,1.89,3.72h0Zm-341.61-3.4-.76-.37h0l.43.21-.43-.22c.65-1.24,1.31-2.48,2-3.71l0,0,.71.45C28.81,106.44,28.15,107.67,27.51,108.91Zm337.74-4c-.67-1.22-1.36-2.43-2.05-3.63l.36-.21-.35.24.72-.43-.24.11.23-.13c.7,1.21,1.39,2.42,2.07,3.64l-.37.21h0ZM31.52,101.6l-.73-.42,0,0h0c.7-1.21,1.41-2.42,2.14-3.61l.36.21h0l.38.22c-.73,1.2-1.44,2.39-2.14,3.6l-.36-.21Zm332-.53.35-.22Zm-2.49-3.36c-.73-1.19-1.46-2.37-2.21-3.54l.35-.22-.37.19.72-.43h0c.74,1.17,1.48,2.35,2.2,3.54h0l0,0ZM35.88,94.42l-.36-.22.38.18L35.17,94c.75-1.18,1.52-2.35,2.3-3.52h0l0,0,.68.49C37.39,92.08,36.63,93.25,35.88,94.42Zm-.36-.22L35.15,94Zm321.07-3.49.32-.25-.34.23c-.77-1.16-1.56-2.3-2.36-3.44l.34-.24-.29.29.64-.53q1.2,1.71,2.37,3.45l-.07,0,.07,0-.22.15.22-.15ZM40.48,87.53,39.83,87h0c.8-1.15,1.62-2.29,2.45-3.42h0l0-.06.34.34.29.21c-.82,1.13-1.63,2.26-2.43,3.4l-.35-.24ZM354.55,87l.3-.29Zm.34-.23h0Zm-3.11-2.91c-.83-1.12-1.67-2.23-2.51-3.33l.33-.25-.3.29.64-.54-.23.16.22-.17c.85,1.1,1.69,2.22,2.52,3.35l-.34.25h0ZM45.44,80.77l-.66-.52,0,0h0c.85-1.11,1.71-2.21,2.59-3.3h0l.07-.08.26.33.35.24-.33-.21h0l.29.23c-.88,1.09-1.74,2.18-2.59,3.29l-.33-.26Zm2.28-3.6.05,0Zm301.87,3.1.3-.29Zm-2.83-3-.07-.07h0c-.87-1.08-1.75-2.16-2.65-3.22h0l0,0,.35-.23.27-.32-.25.3.3-.24c.9,1.07,1.79,2.14,2.67,3.23L347,77l.32-.21L347,77ZM347,77h0Zm-2.65-3.25v0l.05-.05Zm-293.72.54-.24-.3L50,73.72l0,0h0c.9-1.07,1.81-2.13,2.74-3.18h0l.06-.06.28.35,0,0,0,0,.22.28-.22-.28.27.24c-.92,1-1.83,2.1-2.72,3.17l-.3-.24ZM53.46,71l-.34-.25Zm287.91-.08-.06-.06h0c-.92-1.05-1.85-2.08-2.79-3.11l.62-.57c.94,1,1.88,2.07,2.8,3.12l-.29.26.33-.22-.33.22ZM339,67.33l-.17.14ZM56.2,67.94l-.62-.56,0,0c.94-1,1.89-2,2.86-3l.28.27-.24-.31.24.31.37.25,0,.06h0c-1,1-1.91,2-2.85,3.05l-.3-.27Zm2.56-3.35h0Zm276.94.16.25-.3h0l-.27.25c-1-1-1.94-2-2.92-3l.27-.28-.32.22.32-.22.28-.35,0,0h0c1,1,2,2,2.94,3h0l.05.06-.35.23Zm.26-.32,0,0Zm-2.92-3M62,61.93l-.26-.33-.34-.24.32.22-.27-.28c1-1,2-2,3-2.93l.3.3h0L65,59c-1,1-2,1.94-3,2.92h0Zm-.28-.35h0l0-.05Zm268.08-2.77c-1-1-2-1.91-3.05-2.85l.28-.31-.32.27.58-.61,0,0h0c1,.94,2.05,1.9,3.06,2.87h0l0,0ZM68,56.12l-.28-.31.32.26-.59-.59.17.22-.19-.2c1-1,2.07-1.88,3.12-2.8l.28.31h0l.28.32C70.08,54.25,69.05,55.17,68,56.12Zm-.29-.31-.32-.27Zm255.86-2.64c-1-.92-2.11-1.82-3.17-2.72l.26-.32-.29.3.55-.63h0q1.6,1.35,3.18,2.73h0l.06.05-.38.31ZM74.29,50.61,74,50.28l.3.3L73.75,50c1.07-.9,2.15-1.78,3.24-2.66v0l0,0,.49.69C76.43,48.83,75.36,49.71,74.29,50.61ZM74,50.29l-.29-.3Zm-.24-.3,0,0h0Zm243.44-2.16.22-.35-.25.32c-1.09-.87-2.19-1.73-3.29-2.58l.48-.68-.17.26.2-.25-.27.35.27-.34c1.11.85,2.21,1.71,3.3,2.59h0ZM80.77,45.39l-.5-.67h0c1.1-.85,2.22-1.69,3.34-2.52l0,0,.47.7h0c-1.11.83-2.22,1.66-3.32,2.51L80.54,45Zm229.8-2.66.27-.41-.29.39c-1.12-.82-2.26-1.63-3.4-2.43l.24-.35-.26.33.49-.68h0c1.15.8,2.29,1.62,3.42,2.45l-.18.25.19-.24Zm-223-2.3-.5-.67.19.24L87,39.75q1.71-1.22,3.45-2.37l.12.17-.12-.17.5.67-.26-.32.23.34C89.8,38.85,88.66,39.63,87.52,40.43Zm-.3-.42,0,.07-.2-.28ZM303.7,37.92c-1.16-.78-2.33-1.54-3.5-2.29l.22-.35-.15.39.38-.75c1.18.76,2.35,1.52,3.52,2.3h0l0,0ZM94.38,35.83l-.4-.74h0c1.18-.75,2.36-1.49,3.56-2.21h0l.07,0,.17.44.19.31c-1.18.73-2.36,1.46-3.53,2.21l-.23-.36Zm206-.56.16-.38Zm-3.77-1.85q-1.8-1.08-3.6-2.13h0l0,0,.24-.35.14-.39-.12.36.2-.33h0q1.81,1,3.6,2.13l-.22.36h0Zm-3.38-2.53v0l.07-.13Zm-191.78.6-.12-.36-.26-.38,0,0h0c1.21-.7,2.43-1.39,3.65-2.06h0l.08,0,.13.4.23.35-.22-.31h0l.17.32c-1.21.67-2.42,1.36-3.62,2.05l-.2-.32ZM105,29l0,0Zm184.49.24-.08,0h0c-1.22-.67-2.45-1.33-3.69-2h0l0,0,.23-.35.14-.39-.12.36.19-.34c1.24.65,2.48,1.31,3.7,2l-.18.34.21-.32-.21.32Zm.12-.41v0Zm-3.69-2v0l0-.07Zm-177.11.6-.12-.36-.25-.38,0,0h0c1.23-.65,2.47-1.28,3.72-1.9h0l.06,0,.13.4.22.36-.21-.32.17.34c-1.25.62-2.48,1.25-3.71,1.89l-.19-.33Zm3.59-2.29,0,.06ZM282,25.4l0,0h0c-1.25-.62-2.51-1.22-3.77-1.81l.18-.39-.21.37.33-.77.05,0h0c1.27.6,2.54,1.2,3.79,1.82l-.16.35.21-.32-.21.32ZM116.27,23.76l-.13-.4-.22-.35.21.32L116,23c1.26-.59,2.53-1.17,3.81-1.73l.34.76c-1.27.56-2.54,1.14-3.79,1.73h0Zm-.14-.43,0,0,0-.08Zm158.25-1.49c-1.28-.56-2.56-1.11-3.85-1.64l.16-.39-.21.36.33-.76h0q1.95.81,3.87,1.65h0l0,0ZM123.94,20.37l-.16-.38.21.36-.35-.76.09.27-.11-.26c1.29-.54,2.58-1.06,3.88-1.57l.3.78C126.51,19.32,125.22,19.84,123.94,20.37Zm-.17-.38-.2-.37Zm142.87-1.35q-2-.75-3.93-1.47l.27-.8-.13.4.13-.4-.09.32.11-.31c1.32.48,2.63,1,3.94,1.48h0l.07,0-.24.42Zm-134.93-1.3-.14-.4.2.37-.35-.76,0,.07,0-.07c1.31-.48,2.63-1,4-1.4l0,.13,0-.13h0l.24.81C134.33,16.4,133,16.86,131.71,17.34Zm-.15-.39-.2-.37Zm127.23-1.16.1-.41-.13.4c-1.32-.44-2.65-.88-4-1.29l.13-.4-.14.39.24-.8h0c1.34.42,2.68.86,4,1.31h0Zm.1-.41h0v0Zm-119.27-.74-.25-.8,0,.08,0-.08c1.34-.42,2.67-.83,4-1.22l.12.41,0,0v0l-.11-.38.26.8L143.5,13l.11.4c-1.33.39-2.66.79-4,1.21Zm111.15-1.36c-1.33-.39-2.68-.76-4-1.11l.1-.4-.13.39.24-.81h0c1.35.36,2.7.74,4,1.12h0Zm-103.13-1-.24-.81.1.31-.08-.31c1.35-.36,2.7-.71,4.06-1.05h0l.11,0v.46l.09.37C150.33,11.59,149,11.94,147.64,12.3Zm4.06-1-.11-.41Zm91.11-.11-.11,0h0c-1.35-.33-2.71-.64-4.07-.94h0l.12-.41v0l.09-.37c1.37.3,2.73.61,4.09.94l-.09.37.1-.37-.1.38Zm-4.09-1.4v0l0-.15Zm-83,.56-.09-.41v0l-.13-.44h0c1.36-.3,2.73-.59,4.1-.86h.09v.47l.08.36c-1.37.27-2.72.56-4.08.86h0Zm4.12-.87-.11-.4Zm74.76-.08-.09,0h0c-1.37-.27-2.73-.52-4.11-.76h-.05l.11-.41v0l.07-.38c1.39.24,2.76.49,4.13.76l-.07.38.11-.37-.11.37Zm0-.43Zm-4.12-.79v0l0-.08Zm-66.56.54-.07-.41v0l-.13-.44h0c1.38-.24,2.76-.47,4.14-.68H168v.49l.05.35C166.68,8.21,165.31,8.44,163.94,8.68ZM168.11,8l-.1-.41Zm58.27-.07h-.07c-1.38-.21-2.75-.4-4.14-.58l.06-.42V6.5h.06c1.39.18,2.77.37,4.15.58l-.05.38.11-.37-.11.37Zm-54.25-.51V7l-.12-.4.12.37,0-.38c1.38-.19,2.77-.35,4.16-.51l.05.39v0l.14.43-.1,0c-1.38.15-2.77.32-4.14.5h-.07Zm0-.45V7Zm4.17-.47Zm41.77.36v0Zm0,0c-1.38-.15-2.76-.28-4.15-.4l0-.42h0V5.61h.05c1.39.12,2.79.26,4.17.4h0l.1,0-.14.42v0l-.11.35.11-.35ZM180.45,6.5V6.08l-.12-.4.12.37,0-.39c1.39-.12,2.78-.23,4.18-.32l0,.39v0l.14.43-.11,0h0c-1.39.09-2.77.2-4.14.32h-.05Zm0-.45v0Zm29.28.09v0Zm0,0c-1.39-.08-2.78-.16-4.17-.21V5.09h0v0c1.4,0,2.8.13,4.19.22h0l.12,0-.14.42v0l-.12.36.12-.36ZM188.82,6l0-.84h0C190.2,5.05,191.59,5,193,5l0,.84c-1.39,0-2.78.08-4.16.14l0-.42ZM193,5.81V5h0Zm8.37,0V5.22l0,.58c-1.3,0-2.6,0-3.9,0h-.27V4.92h.27c1.31,0,2.61,0,3.92,0h0Zm-4.19,0V4.92h0Z"></path><path class="cls-1" d="M197.45,350.06c-84.26,0-152.81-68.55-152.81-152.81S113.19,44.44,197.45,44.44,350.26,113,350.26,197.25,281.71,350.06,197.45,350.06Zm0-304.78c-83.8,0-152,68.17-152,152s68.17,152,152,152,152-68.17,152-152S281.24,45.28,197.45,45.28Z"></path></g><g id="Layer_1" data-name="Layer 1"><path class="cls-2" d="M353.21,256.74l2.1-32.37-9-1.19-4.58,26a12.35,12.35,0,0,1,4.4,2.12Z"></path><path class="cls-2" d="M283.39,136.39c-1.91,2.44-3.88,5-5.59,7.6a51.2,51.2,0,0,0-7.65,22.68c-.5,6.36.61,12.22,1.78,18.43.3,1.56.64,3.12,1,4.63.28,1.27.57,2.55.82,3.85l65.39-25.2-21.07-41.15H290A89.48,89.48,0,0,1,283.39,136.39Zm5.31,44.24H278.37v-8.75H288.7Zm4.24-21.79h-5.82v5.82h-7.43V151.41h13.25Zm16.34,12.25a3.43,3.43,0,0,1-3.42,3.43H298.4a3.44,3.44,0,0,1-3.43-3.43v-4.42a3.44,3.44,0,0,1,3.43-3.43h7.46a3.43,3.43,0,0,1,3.42,3.43Zm12.81-12.78v5.82h-7.42v-5.82h-5.83v-7.43h13.25Zm-5.83-21.41v6.89H291.35V136.9Z"></path><path class="cls-2" d="M261,235.26l57.58,35.31,7.71-10.16,6.86-39L273,213.55A50.31,50.31,0,0,1,261,235.26Zm58.5-10.78,6.73,1.4L322.42,244l-6.73-1.39Zm-16.59,10,1.54-7.29c.39-1.85,1.81-3.12,3.15-2.84l3.15.67c1.35.28,2.12,2,1.73,3.87l-1.54,7.29c-.39,1.85-1.8,3.12-3.15,2.84l-3.15-.66C303.25,238.09,302.47,236.35,302.86,234.5Zm16.2,22.73-3.43,6-20.06-11.5,3.43-6ZM291.46,224l5.63,2.52-7.63,17L283.84,241Zm-15.79,13.11-5.62-2.52,7.62-17,5.63,2.52Z"></path><path class="cls-2" d="M268.58,242.11l-9-5.52c-.48.45-1,.89-1.47,1.3a68.43,68.43,0,0,1-12.54,8.21l13,17.24A123.77,123.77,0,0,0,268.58,242.11Z"></path><path class="cls-2" d="M356.73,202.57a7.89,7.89,0,0,1-.6-1l-4.51-8.81-5,28.56,8.84,1.16Z"></path><path class="cls-2" d="M257.46,125.38h19.28a31,31,0,0,0,4.92-9.14c1.68-5.49-.69-10.9-3-15-.56-1-1.16-2-1.79-3H233.26a.86.86,0,0,0-.87.86v12.38ZM248.19,107l4.37,2,2-4.37,5.56,2.55-2,4.37-2.55,5.56L250,114.54l-4.37-2Z"></path><rect class="cls-2" x="296.03" y="164.3" width="12.19" height="9.15" rx="2.37"></rect><path class="cls-2" d="M274.63,204.15a48.18,48.18,0,0,1-1.15,7.59l59.94,7.88,8.17-46.41L340,170l-65.9,25.4A36.33,36.33,0,0,1,274.63,204.15Zm56.67,4.22-1.22,6-6-1.23-4.7-1,1.23-6,4.7,1,1-4.71,6,1.23Zm1.82-26.77,2.54,6.41-23.17,9.16L310,190.76ZM301.56,189l2.53,6.41-23.16,9.16-2.54-6.4Z"></path><path class="cls-2" d="M291.56,124.28c-.18.37-.37.73-.57,1.1H317.1L303.18,98.21H290.66C294.47,106.34,296,115.15,291.56,124.28Zm5.5-13.08H307.4V120H297.06Z"></path><path class="cls-2" d="M304.81,237.34,308,238c.93.2,1.91-.68,2.18-2l1.54-7.29c.27-1.28-.27-2.48-1.2-2.67l-3.15-.67c-.93-.2-1.9.68-2.17,2l-1.54,7.29C303.35,235.94,303.88,237.14,304.81,237.34Z"></path><path class="cls-2" d="M259.64,266.67a92.43,92.43,0,0,1-17.48,20.91c-1.72,1.49-3.44,2.84-5.17,4.07l32.32,19.82h18.18l13.69-18ZM261,300.39l-13.4-8.11,2.47-4.07,13.39,8.1Zm10-10-13.4-8.11,2.47-4.07,13.39,8.1Zm5.27,10.07,4.55-7.46,8.83,5.37-4.55,7.47Z"></path><path class="cls-2" d="M257.79,264.61l-13.47-17.88a99.65,99.65,0,0,1-11.93,4.89V291.5C241.49,286,250.39,276.63,257.79,264.61Zm-20.33-9.4,6.89,0a16.86,16.86,0,0,1,.1,20.32l-6.89,0A16.85,16.85,0,0,0,237.46,255.21Z"></path><path class="cls-2" d="M357.28,222.75l4.47.59V205.46a6.89,6.89,0,0,1-3.27-1.19Z"></path><polygon class="cls-2" points="354.98 258.08 361.75 263.22 361.75 225.21 357.16 224.61 354.98 258.08"></polygon><path class="cls-2" d="M260.34,265.55,302,292.38l15.42-20.32-46.51-28.53A126.51,126.51,0,0,1,260.34,265.55Zm37.52,1.25,4.77,3.34,6.09,4.25-4.25,6.09-3.34,4.77L295.05,281l3.33-4.77-4.77-3.34Zm-16.55-11.52,5.11,2.79-3.56,6.52-5.11-2.8L275,266.9l-6.51-3.56,2.79-5.11,3.57-6.52Z"></path><polygon class="cls-2" points="238.92 311.47 265.76 311.47 244.14 298.21 238.92 311.47"></polygon><path class="cls-2" d="M235.31,292.79c-1,.64-1.95,1.22-2.92,1.77v16.05a.86.86,0,0,0,.87.86h3.66l5.62-14.24Z"></path><path class="cls-2" d="M236.78,183.34c1.35.35,2.77.57,4.14.79s2.53.4,3.81.7c4.35,1,11,2.58,15.93,5.79-.06-.26-.11-.52-.17-.79-3.23-15-2.72-29.19,1.48-41a62.06,62.06,0,0,1,10.45-18l.79-1c.71-.88,1.42-1.77,2.12-2.67H256.9v0l-24.51-13.62v68.84a40.75,40.75,0,0,1,4.34.92ZM248.4,178h-6.89V153.13h6.89Zm-3.83-51.54,5.94,6.42-7.58,7L237,133.53Z"></path><path class="cls-3" d="M261.35,193.78c-4.5-3.94-12.31-5.77-17.1-6.89-1.2-.28-2.46-.47-3.67-.67-1.41-.22-2.88-.45-4.32-.82l-.06,0c-1.09-.28-2.44-.62-3.81-.83v25l29.73-11.46C261.92,196.65,261.65,195.24,261.35,193.78Z"></path><path class="cls-3" d="M255.72,220.29a32,32,0,0,0,6.35-13.74,25.33,25.33,0,0,0,.26-6.58L232.39,211.5V235a51.9,51.9,0,0,0,11-4.12A38.54,38.54,0,0,0,255.72,220.29Z"></path><path class="cls-4" d="M236.26,185.4c1.44.37,2.91.6,4.32.82,1.21.2,2.47.39,3.67.67,4.79,1.12,12.6,3,17.1,6.89-.16-.76-.33-1.54-.51-2.33l-.18-.83c-4.9-3.21-11.58-4.77-15.93-5.79-1.28-.3-2.57-.5-3.81-.7s-2.79-.44-4.14-.79h-.05a40.75,40.75,0,0,0-4.34-.92v2.14c1.37.21,2.72.55,3.81.83Z"></path><polygon class="cls-3" points="323.87 273.85 325.54 264.37 320.1 271.54 323.87 273.85"></polygon><path class="cls-3" d="M351.5,311.47h9.38a.86.86,0,0,0,.87-.86V299.26l-9.09-5.57Z"></path><polygon class="cls-3" points="318.98 273.02 289.8 311.47 317.25 311.47 323.53 275.82 318.98 273.02"></polygon><path class="cls-3" d="M353.06,258.94,345,252.8a10.36,10.36,0,0,0-3.6-1.78L336,281.31l15,9.19Z"></path><polygon class="cls-3" points="352.8 291.6 361.75 297.08 361.75 265.52 354.84 260.28 352.8 291.6"></polygon><polygon class="cls-3" points="335.69 283.28 330.73 311.47 349.64 311.47 350.87 292.59 335.69 283.28"></polygon><polygon class="cls-3" points="315.54 117.69 342.2 169.75 351.37 117.69 315.54 117.69"></polygon><path class="cls-3" d="M358,200.63a5,5,0,0,0,3.73,2.7V188l-4.44,11.26Z"></path><polygon class="cls-3" points="351.69 115.84 354.8 98.21 305.57 98.21 314.59 115.84 351.69 115.84"></polygon><polygon class="cls-3" points="356.18 197.05 361.75 182.93 361.75 135.3 352.23 189.33 356.18 197.05"></polygon><polygon class="cls-4" points="242.54 297.23 236.92 311.47 238.92 311.47 244.14 298.21 242.54 297.23"></polygon><polygon class="cls-4" points="258.76 266.11 259.07 266.31 258.83 265.99 258.76 266.11"></polygon><rect class="cls-2" x="291.35" y="136.9" width="24.91" height="6.89"></rect><rect class="cls-2" x="303.87" y="242.91" width="6.89" height="23.12" transform="translate(-66.28 394.56) rotate(-60.18)"></rect><rect class="cls-2" x="310.35" y="185.94" width="24.91" height="6.89" transform="translate(-47.03 132.02) rotate(-21.58)"></rect><rect class="cls-2" x="278.79" y="193.29" width="24.91" height="6.89" transform="translate(-51.95 120.92) rotate(-21.58)"></rect><path class="cls-2" d="M244.45,275.49a16.86,16.86,0,0,0-.1-20.32l-6.89,0a16.85,16.85,0,0,1,.1,20.31Z"></path><rect class="cls-2" x="241.51" y="153.13" width="6.89" height="24.91"></rect><rect class="cls-2" x="278.37" y="171.88" width="10.34" height="8.75"></rect><rect class="cls-2" x="278.55" y="294.29" width="8.75" height="10.34" transform="translate(-120.01 385.27) rotate(-58.65)"></rect><rect class="cls-2" x="267.34" y="224.25" width="18.65" height="6.16" transform="translate(-43.87 386.96) rotate(-65.88)"></rect><rect class="cls-2" x="281.14" y="230.69" width="18.65" height="6.16" transform="translate(-41.59 403.35) rotate(-65.88)"></rect><rect class="cls-2" x="297.06" y="111.2" width="10.34" height="8.75"></rect><rect class="cls-2" x="263.11" y="276.51" width="4.76" height="15.65" transform="matrix(0.52, -0.86, 0.86, 0.52, -115.22, 364.3)"></rect><rect class="cls-2" x="253.15" y="286.47" width="4.76" height="15.65" transform="translate(-128.55 360.58) rotate(-58.82)"></rect><rect class="cls-2" x="311.69" y="230.8" width="18.49" height="6.87" transform="translate(26.36 500.85) rotate(-78.27)"></rect><rect class="cls-2" x="238.58" y="128.85" width="10.34" height="8.75" transform="translate(-25.59 201.19) rotate(-42.82)"></rect><polygon class="cls-2" points="279.69 151.41 279.69 158.84 279.69 164.66 287.12 164.66 287.12 158.84 292.94 158.84 292.94 151.41 287.12 151.41 279.69 151.41"></polygon><polygon class="cls-2" points="268.44 263.34 274.95 266.9 277.75 261.79 282.86 264.59 286.42 258.07 281.31 255.28 274.8 251.71 271.23 258.23 268.44 263.34"></polygon><polygon class="cls-2" points="295.05 281 301.13 285.25 304.47 280.48 308.72 274.39 302.63 270.14 297.86 266.8 293.61 272.89 298.38 276.23 295.05 281"></polygon><polygon class="cls-2" points="255.57 117.09 258.12 111.53 260.12 107.17 254.56 104.61 252.56 108.98 248.19 106.98 245.64 112.54 250.01 114.54 255.57 117.09"></polygon><polygon class="cls-2" points="325.31 207.15 320.61 206.18 319.38 212.18 324.08 213.14 330.08 214.37 331.31 208.38 332.27 203.67 326.27 202.44 325.31 207.15"></polygon><polygon class="cls-2" points="308.84 150.88 308.84 158.31 314.67 158.31 314.67 164.13 322.09 164.13 322.09 158.31 322.09 150.88 314.67 150.88 308.84 150.88"></polygon><path class="cls-2" d="M305.86,163.24H298.4a3.44,3.44,0,0,0-3.43,3.43v4.42a3.44,3.44,0,0,0,3.43,3.43h7.46a3.43,3.43,0,0,0,3.42-3.43v-4.42A3.43,3.43,0,0,0,305.86,163.24Zm2.37,7.85a2.38,2.38,0,0,1-2.37,2.37H298.4a2.38,2.38,0,0,1-2.37-2.37v-4.42a2.38,2.38,0,0,1,2.37-2.37h7.46a2.38,2.38,0,0,1,2.37,2.37Z"></path><path class="cls-2" d="M304.59,238.38l3.15.66c1.35.28,2.76-1,3.15-2.84l1.54-7.29c.39-1.85-.38-3.59-1.73-3.87l-3.15-.67c-1.34-.28-2.76,1-3.15,2.84l-1.54,7.29C302.47,236.35,303.25,238.09,304.59,238.38Zm-1-3.72,1.54-7.29c.27-1.28,1.24-2.16,2.17-2l3.15.67c.93.19,1.47,1.39,1.2,2.67L310.14,236c-.27,1.28-1.25,2.16-2.18,2l-3.15-.66C303.88,237.14,303.35,235.94,303.62,234.66Z"></path><path class="cls-5" d="M269.85,185.49c-1.2-6.35-2.34-12.35-1.81-19a52.66,52.66,0,0,1,8-23.66c1.76-2.73,3.76-5.28,5.7-7.76s4-5.09,5.74-7.85H278c-1,1.36-2.1,2.69-3.15,4l-.79,1A59.28,59.28,0,0,0,264,149.58c-4.07,11.41-4.55,25.17-1.41,39.81.12.54.24,1.07.35,1.6.47,2.12.92,4.2,1.23,6.29l7.59-2.92c-.27-1.38-.58-2.77-.89-4.17S270.15,187.08,269.85,185.49Z"></path><path class="cls-5" d="M272.52,204a33.52,33.52,0,0,0-.46-7.78l-7.68,3a28.07,28.07,0,0,1-.22,7.73,34.07,34.07,0,0,1-6.75,14.66,40.57,40.57,0,0,1-13,11.19,55,55,0,0,1-12,4.46v12.16c10-3.48,17.91-7.75,24.36-13.12C265.48,229,271.66,216.35,272.52,204Z"></path><path class="cls-5" d="M283.69,116.86a31,31,0,0,1-4.34,8.52h9.22c.38-.67.75-1.34,1.09-2,4.3-8.78,2.62-17.2-1.32-25.14h-8.93c.4.66.79,1.33,1.16,2C283,104.68,285.6,110.61,283.69,116.86Z"></path><path class="cls-6" d="M281.66,116.24a31,31,0,0,1-4.92,9.14h2.61a31,31,0,0,0,4.34-8.52c1.91-6.25-.66-12.18-3.12-16.64-.37-.68-.76-1.35-1.16-2h-2.49c.63,1,1.23,2,1.79,3C281,105.34,283.34,110.75,281.66,116.24Z"></path><path class="cls-6" d="M271.93,185.1c-1.17-6.21-2.28-12.07-1.78-18.43A51.2,51.2,0,0,1,277.8,144c1.71-2.65,3.68-5.16,5.59-7.6a89.48,89.48,0,0,0,6.56-9.16h-2.49c-1.76,2.76-3.77,5.34-5.74,7.85s-3.94,5-5.7,7.76a52.66,52.66,0,0,0-8,23.66c-.53,6.64.61,12.64,1.81,19,.3,1.59.65,3.17,1,4.7s.62,2.79.89,4.17l2-.78c-.25-1.3-.54-2.58-.82-3.85C272.57,188.22,272.23,186.66,271.93,185.1Z"></path><path class="cls-6" d="M289.66,123.35c-.34.69-.71,1.36-1.09,2H291c.2-.37.39-.73.57-1.1,4.48-9.13,2.91-17.94-.9-26.07h-2.32C292.28,106.15,294,114.57,289.66,123.35Z"></path><path class="cls-6" d="M262.91,191c-.11-.53-.23-1.06-.35-1.6-3.14-14.64-2.66-28.4,1.41-39.81a59.28,59.28,0,0,1,10.1-17.37l.79-1c1.05-1.31,2.12-2.64,3.15-4h-2.68c-.7.9-1.41,1.79-2.12,2.67l-.79,1a62.06,62.06,0,0,0-10.45,18c-4.2,11.77-4.71,25.94-1.48,41,.06.27.11.53.17.79l.18.83c.18.79.35,1.57.51,2.33.3,1.46.57,2.87.77,4.28l2-.78C263.83,195.19,263.38,193.11,262.91,191Z"></path><path class="cls-6" d="M257.41,221.57a34.07,34.07,0,0,0,6.75-14.66,28.07,28.07,0,0,0,.22-7.73l-2.05.79a25.33,25.33,0,0,1-.26,6.58,32,32,0,0,1-6.35,13.74,38.54,38.54,0,0,1-12.31,10.61,51.9,51.9,0,0,1-11,4.12v2.2a55,55,0,0,0,12-4.46A40.57,40.57,0,0,0,257.41,221.57Z"></path><polygon class="cls-4" points="351.69 115.84 314.59 115.84 305.57 98.21 303.18 98.21 317.1 125.38 257.46 125.38 232.39 111.45 232.39 113.57 256.9 127.19 256.9 127.23 318.05 127.23 339.12 168.38 232.39 209.52 232.39 211.5 339.97 170.04 341.59 173.21 342.2 169.75 315.54 117.69 351.37 117.69 351.69 115.84"></polygon><path class="cls-4" d="M361.75,182.93l-5.57,14.12-3.95-7.72-.61,3.46s4.89,9.48,5.11,9.78l-1.29,19.94-8.84-1.16-.33,1.83,9,1.19-2.1,32.37-7.12-5.41a12.35,12.35,0,0,0-4.4-2.12l-.32,1.81a10.36,10.36,0,0,1,3.6,1.78l8.09,6.14L351,290.5l-15-9.19-.35,2,15.18,9.31-1.22,18.88h1.85l1.16-17.78,9.09,5.57v-2.18l-8.95-5.48,2-31.32,6.91,5.24v-2.3L355,258.08l2.18-33.47,4.59.6v-1.87l-4.47-.59,1.2-18.48a6.89,6.89,0,0,0,3.27,1.19v-2.13a5,5,0,0,1-3.73-2.7l-.71-1.38L361.75,188Z"></path><polygon class="cls-4" points="272.71 211.64 272.47 213.48 273.02 213.55 333.1 221.45 333.42 219.62 273.48 211.74 272.71 211.64"></polygon><path class="cls-4" d="M326.24,260.41l-7.71,10.16L261,235.26A50.31,50.31,0,0,0,273,213.55l-.55-.07.24-1.84.77.1a48.18,48.18,0,0,0,1.15-7.59,36.33,36.33,0,0,0-.56-8.71l-2,.78a33.52,33.52,0,0,1,.46,7.78c-.86,12.35-7,25-15.77,32.26-6.45,5.37-14.35,9.64-24.36,13.12v2.24a99.65,99.65,0,0,0,11.93-4.89l13.47,17.88c-7.4,12-16.3,21.37-25.4,26.89v3.06c1-.55,1.94-1.13,2.92-1.77l7.23,4.44,1.6,1,21.62,13.26h3.55L237,291.65c1.73-1.23,3.45-2.58,5.17-4.07a92.43,92.43,0,0,0,17.48-20.91l41.54,26.77-13.69,18h2.31L319,273l4.56,2.8.34-2-3.77-2.31,5.44-7.17Zm-67.68,2.93-13-17.24a68.43,68.43,0,0,0,12.54-8.21c.5-.41,1-.85,1.47-1.3l9,5.52A123.77,123.77,0,0,1,258.56,263.34Zm43.42,29-41.64-26.83a126.51,126.51,0,0,0,10.55-22l46.51,28.53Z"></path><path class="cls-7" d="M351.37,117.69l-9.17,52.06-.61,3.46-8.17,46.41-.32,1.83-6.86,39-.7,4-1.67,9.48-.34,2-6.28,35.65h13.48l5-28.19.35-2L341.37,251l.32-1.81,4.58-26,.33-1.83,5-28.56.61-3.46,9.52-54V99.07a.86.86,0,0,0-.87-.86H354.8l-3.11,17.63Z"></path><path class="cls-8" d="M299.81,159.55c.21,3-2.12,7-4,9.63s-3.47,4.56-3.43,4.56-1.48-1.89-3.44-4.56-4.23-6.58-4-9.63c.5-6.09,4.06-7.76,7.46-7.76S299.31,153.46,299.81,159.55Z"></path><path class="cls-4" d="M296,159.49a3.68,3.68,0,1,0-3.68,3.68A3.68,3.68,0,0,0,296,159.49Z"></path><path class="cls-8" d="M309.91,230.31c.22,3-2.11,6.95-4,9.62s-3.47,4.57-3.43,4.57-1.49-1.89-3.44-4.57-4.24-6.58-4-9.62c.49-6.09,4.06-7.76,7.46-7.76S309.42,224.22,309.91,230.31Z"></path><path class="cls-4" d="M306.13,230.24a3.68,3.68,0,1,0-3.67,3.68A3.67,3.67,0,0,0,306.13,230.24Z"></path><path class="cls-8" d="M328.53,130.82c.22,3.05-2.11,7-4,9.63S321,145,321.08,145s-1.49-1.89-3.44-4.56-4.24-6.58-4-9.63c.49-6.08,4.06-7.75,7.46-7.76S328,124.74,328.53,130.82Z"></path><path class="cls-4" d="M324.75,130.76a3.68,3.68,0,1,0-3.67,3.68A3.67,3.67,0,0,0,324.75,130.76Z"></path><polygon class="cls-9" points="88.88 260.26 141.27 243.69 141.27 173.99 88.88 187.5 88.88 260.26"></polygon><polygon class="cls-10" points="88.88 260.26 36.49 243.69 36.49 173.99 88.88 187.5 88.88 260.26"></polygon><polygon class="cls-11" points="141.27 173.99 88.88 187.37 36.49 173.99 88.88 163.02 141.27 173.99"></polygon><polygon class="cls-4" points="121.61 178.98 111.51 181.64 60.54 168.74 73.06 166.3 121.61 178.98"></polygon><polygon class="cls-12" points="111.51 181.64 111.42 199.19 111.42 199.19 112.49 199.5 113.5 198.52 114.57 198.82 115.57 197.84 116.64 198.15 117.65 197.17 118.72 197.48 119.73 196.49 120.81 196.8 121.82 195.82 121.61 178.98 111.51 181.64"></polygon><path class="cls-8" d="M90.08,154.13l-1.83-1.08c1.09-1.84,2.22-3.68,3.37-5.47l1.79,1.16C92.28,150.5,91.16,152.32,90.08,154.13Zm6.86-10.66-1.74-1.22c1.22-1.75,2.49-3.5,3.77-5.2l1.7,1.28C99.4,140,98.15,141.74,96.94,143.47Zm214.47-3.22c-1.1-1.85-2.19-3.61-3.36-5.39l1.78-1.16c1.18,1.8,2.3,3.59,3.41,5.46Zm-206.82-6.91L102.94,132c1.34-1.65,2.74-3.3,4.15-4.9l1.6,1.41C107.29,130.09,105.91,131.71,104.59,133.34Zm199.86-3.7c-1.23-1.72-2.52-3.42-3.82-5.06l1.67-1.32c1.32,1.66,2.63,3.39,3.88,5.13ZM113,123.83l-1.54-1.47c1.47-1.54,3-3.08,4.52-4.56l1.48,1.53C115.94,120.79,114.43,122.31,113,123.83Zm183.61-4.14c-1.37-1.59-2.8-3.17-4.25-4.7l1.54-1.46c1.47,1.55,2.92,3.15,4.32,4.77ZM122.08,115l-1.42-1.59c1.6-1.42,3.24-2.83,4.88-4.18l1.35,1.64C125.27,112.21,123.65,113.6,122.08,115Zm165.79-4.51c-1.52-1.47-3.1-2.91-4.67-4.28l1.39-1.6c1.61,1.39,3.2,2.85,4.76,4.34Zm-156-3.55-1.29-1.7c1.71-1.29,3.46-2.56,5.2-3.77l1.22,1.75C135.27,104.42,133.55,105.68,131.87,107Zm146.45-4.76c-1.66-1.3-3.37-2.57-5.08-3.77l1.22-1.74c1.74,1.22,3.48,2.51,5.17,3.84Zm-136-2.47-1.14-1.8c1.81-1.14,3.66-2.25,5.51-3.31l1.06,1.84C145.88,97.5,144.06,98.6,142.28,99.72ZM268,94.93c-1.79-1.12-3.63-2.19-5.46-3.19l1-1.87c1.87,1,3.74,2.11,5.57,3.25ZM153.27,93.42l-1-1.89c1.91-1,3.86-1.94,5.78-2.82l.89,1.93C157.07,91.51,155.15,92.45,153.27,93.42Zm103.6-4.55c-1.9-.9-3.84-1.75-5.79-2.54l.8-2c2,.8,4,1.67,5.9,2.58Zm-92.1-.75-.8-2c2-.81,4-1.58,6-2.28l.7,2C168.73,86.57,166.73,87.32,164.77,88.12Zm80.38-4c-2-.67-4-1.28-6.05-1.82l.55-2.06c2.07.56,4.15,1.18,6.18,1.86Zm-68.44-.25-.61-2c2.06-.61,4.15-1.18,6.21-1.69l.51,2.07C180.79,82.75,178.74,83.31,176.71,83.91Zm12.29-3-.41-2.09c2.11-.4,4.24-.76,6.35-1l.29,2.11C193.16,80.14,191.07,80.49,189,80.89Zm43.95,0c-2-.42-4.15-.78-6.22-1.08l.3-2.1c2.12.3,4.25.67,6.35,1.09Zm-31.44-1.74L201.33,77c2.13-.18,4.29-.31,6.42-.37l.07,2.12C205.72,78.85,203.6,79,201.51,79.15Zm18.94,0c-2.09-.18-4.22-.29-6.32-.35l.06-2.12c2.14,0,4.3.17,6.43.35Z"></path><path class="cls-8" d="M279.72,164.81c-1.14-1.71-2.38-3.44-3.67-5.16l1.71-1.28c1.31,1.75,2.57,3.52,3.73,5.26ZM90,155l-1.65-1.35c.27-.32,1.74-2.11,4.36-4.82l1.53,1.48C91.65,153,90.23,154.69,90,155Zm182.16-.34c-1.35-1.62-2.75-3.22-4.17-4.78l1.57-1.43c1.45,1.58,2.87,3.21,4.23,4.85Zm-173.4-8.8-1.46-1.55c1.55-1.44,3.16-2.89,4.81-4.29l1.38,1.62C101.84,143,100.25,144.45,98.73,145.87Zm164.85-.56c-1.5-1.49-3.05-2.95-4.6-4.35l1.43-1.58c1.57,1.42,3.15,2.91,4.67,4.43Zm-155.21-7.67L107.06,136c1.69-1.31,3.42-2.61,5.17-3.85l1.23,1.74C111.74,135.07,110,136.34,108.37,137.64Zm145.81-.81c-1.64-1.33-3.32-2.64-5-3.88l1.26-1.72c1.72,1.27,3.43,2.59,5.09,4Zm-135.47-6.54-1.16-1.79c1.81-1.16,3.65-2.29,5.49-3.36l1.07,1.84C122.3,128,120.48,129.15,118.71,130.29Zm125.27-1c-1.76-1.15-3.57-2.27-5.38-3.33l1.07-1.84c1.85,1.08,3.69,2.22,5.48,3.4Zm-114.31-5.4-1-1.88c1.9-1,3.85-1.94,5.79-2.82l.88,1.93C133.46,122,131.54,123,129.67,123.93Zm103.38-1c-1.87-1-3.79-1.87-5.71-2.72l.87-1.95c1.95.87,3.9,1.8,5.81,2.78Zm-91.87-4.28-.78-2c2-.79,4-1.53,6-2.2l.68,2C145.15,117.18,143.15,117.91,141.18,118.68Zm80.31-.84c-2-.73-4-1.43-6-2l.63-2c2,.64,4.09,1.35,6.09,2.1Zm-68.31-3.17-.57-2c2.08-.57,4.18-1.09,6.26-1.54l.45,2.08C157.28,113.6,155.21,114.11,153.18,114.67Zm56.26-.6c-2-.51-4.11-1-6.18-1.36l.4-2.09c2.11.4,4.23.87,6.29,1.39ZM165.53,112l-.33-2.1c2.12-.33,4.27-.61,6.39-.81l.21,2.12C169.71,111.42,167.6,111.69,165.53,112Zm31.5-.31c-2.09-.28-4.2-.51-6.29-.67l.16-2.12c2.13.17,4.29.39,6.41.68Zm-18.93-.91-.08-2.13c1.4,0,2.84-.08,4.28-.08l2.16,0,0,2.13c-.71,0-1.42,0-2.12,0C180.89,110.71,179.47,110.74,178.1,110.79Z"></path><path class="cls-8" d="M292.67,242.09c-.05-.18-.43-1.82-1.27-4.57l2-.62c.83,2.76,1.23,4.41,1.3,4.71Zm-3.25-10.6c-.7-2-1.45-4-2.24-6l2-.79c.81,2,1.57,4,2.27,6Zm-4.71-11.8c-.86-1.93-1.76-3.87-2.69-5.76l1.91-.94c.94,1.92,1.86,3.88,2.72,5.83Zm-5.59-11.42c-1-1.86-2-3.72-3.1-5.53l1.83-1.08c1.08,1.83,2.14,3.72,3.15,5.61Zm-6.42-11c-1.14-1.78-2.33-3.55-3.53-5.27l1.75-1.22c1.21,1.74,2.42,3.54,3.57,5.35Zm-7.26-10.4c-1.28-1.68-2.61-3.35-3.95-5l1.63-1.36c1.36,1.63,2.71,3.33,4,5Zm-8.11-9.74c-1.42-1.57-2.89-3.11-4.37-4.6l1.51-1.5c1.5,1.51,3,3.08,4.44,4.66Zm-8.94-9c-1.55-1.42-3.16-2.82-4.77-4.16L245,162.4c1.64,1.36,3.27,2.79,4.85,4.23Zm-9.74-8.08c-1.68-1.27-3.41-2.5-5.15-3.68l1.19-1.76c1.77,1.2,3.53,2.45,5.24,3.73ZM89.43,155l-1.1-1.82c1.8-1.09,3.64-2.13,5.61-3.18l1,1.88C93,152.89,91.2,153.91,89.43,155ZM228.17,153c-1.8-1.09-3.65-2.14-5.5-3.13l1-1.88c1.88,1,3.76,2.08,5.59,3.19Zm-127.56-4-.91-1.93c1.92-.91,3.9-1.79,5.87-2.63l.83,2C104.45,147.25,102.51,148.12,100.61,149Zm116.41-2c-1.89-.9-3.84-1.76-5.78-2.56l.81-2c2,.82,4,1.69,5.88,2.6Zm-104.73-3-.74-2c2-.75,4-1.46,6.07-2.13l.66,2C116.28,142.64,114.27,143.34,112.29,144.08Zm93-1.85c-1.48-.52-3-1-4.52-1.51l-1.49-.46.61-2,1.52.47c1.54.48,3.09,1,4.59,1.54Zm-81-2.09-.57-2c2-.57,4.15-1.12,6.22-1.6l.49,2.07C128.44,139,126.37,139.57,124.34,140.14Zm68.88-1.56c-2.05-.5-4.13-1-6.18-1.37l.41-2.09c2.09.41,4.2.88,6.28,1.4Zm-56.54-1.34-.39-2.09c2.11-.4,4.24-.76,6.34-1.06l.3,2.11C140.87,136.5,138.76,136.85,136.68,137.24Zm44.12-1.1c-2.09-.3-4.2-.55-6.29-.75l.2-2.12c2.12.2,4.27.46,6.39.77Zm-31.58-.7-.2-2.12c2.12-.2,4.28-.36,6.41-.47l.11,2.13C153.44,135.08,151.32,135.24,149.22,135.44Zm19-.5c-2-.09-4-.13-6-.13h-.34v-2.13h.34c2,0,4.06,0,6.09.14Z"></path><ellipse class="cls-8" cx="292.64" cy="176.95" rx="5.85" ry="1.06"></ellipse><ellipse class="cls-8" cx="302.75" cy="246.64" rx="5.85" ry="1.06"></ellipse><ellipse class="cls-8" cx="320.83" cy="148.22" rx="5.85" ry="1.06"></ellipse><circle class="cls-8" cx="89.94" cy="153.54" r="6.38"></circle></g></svg> 