<?xml version="1.0" encoding="utf-8"?>
<!-- Generator: Adobe Illustrator 25.1.0, SVG Export Plug-In . SVG Version: 6.00 Build 0)  -->
<svg version="1.1" id="Layer_1" xmlns="http://www.w3.org/2000/svg" xmlns:xlink="http://www.w3.org/1999/xlink" x="0px" y="0px"
	 viewBox="0 0 36.2 46.2" style="enable-background:new 0 0 36.2 46.2;" xml:space="preserve">
<style type="text/css">
	.st0{fill:#0075D7;}
	.st1{fill:url(#Shape_2_);stroke:url(#Shape_3_);stroke-width:1.98;}
	.st2{fill:url(#Combined-Shape_1_);}
</style>
<g id="icons-_x2F_-padlock">
	<g id="Group" transform="translate(6.000000, -1.000000)">
		<path id="Shape" class="st0" d="M24.5,23.3H-0.3c-0.6,0-1.1-0.5-1.1-1.1v-6.9c0-7.4,6.1-13.4,13.5-13.4h0.1
			c7.4,0,13.5,6,13.5,13.4v6.9C25.6,22.8,25.1,23.3,24.5,23.3L24.5,23.3z M0.8,21.1h22.6v-5.8c0-6.2-5.1-11.2-11.3-11.2h-0.1
			c-6.2,0-11.3,5-11.3,11.2V21.1L0.8,21.1z"/>
		
			<linearGradient id="Shape_2_" gradientUnits="userSpaceOnUse" x1="-574.197" y1="849.876" x2="-574.197" y2="849.0995" gradientTransform="matrix(34.1851 0 0 -24.1392 19641.0879 20537.457)">
			<stop  offset="0" style="stop-color:#EAF9FF;stop-opacity:0.995"/>
			<stop  offset="0.9998" style="stop-color:#FFFFFF"/>
		</linearGradient>
		
			<linearGradient id="Shape_3_" gradientUnits="userSpaceOnUse" x1="-574.197" y1="849.876" x2="-574.197" y2="848.876" gradientTransform="matrix(34.1851 0 0 -24.1392 19641.0879 20537.457)">
			<stop  offset="0" style="stop-color:#002F57"/>
			<stop  offset="0.9999" style="stop-color:#0075D7"/>
		</linearGradient>
		<path id="Shape_1_" class="st1" d="M29.1,22.1L-5,22.2v20.1c0,1.1,0.5,2.1,1.2,2.8c0.8,0.7,1.8,1.2,2.9,1.2H25
			c1.1,0,2.2-0.4,2.9-1.2c0.7-0.7,1.2-1.7,1.2-2.8L29.1,22.1z"/>
		
			<linearGradient id="Combined-Shape_1_" gradientUnits="userSpaceOnUse" x1="-556.501" y1="841.2693" x2="-556.501" y2="840.2693" gradientTransform="matrix(10.6457 0 0 -15.8771 5936.4321 13383.1895)">
			<stop  offset="0" style="stop-color:#B03478"/>
			<stop  offset="0.9999" style="stop-color:#9E79BB"/>
		</linearGradient>
		<path id="Combined-Shape" class="st2" d="M12.1,26.2c2.9,0,5.3,2.4,5.3,5.3c0,2.6-1.8,4.7-4.2,5.2l0,4.3c0,0.6-0.5,1.1-1.1,1.1
			c-0.6,0-1.1-0.5-1.1-1.1l0-4.2c-2.4-0.5-4.2-2.6-4.2-5.2C6.8,28.6,9.1,26.2,12.1,26.2z M12.1,28.4c-1.7,0-3.1,1.4-3.1,3.1
			c0,1.6,1.2,3,2.8,3.1c0.1,0,0.2,0,0.3,0c0.1,0,0.2,0,0.3,0c1.6-0.2,2.8-1.5,2.8-3.1C15.2,29.8,13.8,28.4,12.1,28.4z"/>
	</g>
</g>
</svg>
