<?xml version="1.0" encoding="UTF-8"?>
<svg width="48px" height="48px" viewBox="0 0 48 48" version="1.1" xmlns="http://www.w3.org/2000/svg" xmlns:xlink="http://www.w3.org/1999/xlink">
    <title>partners</title>
    <g id="Symbols" stroke="none" stroke-width="1" fill="none" fill-rule="evenodd">
        <g id="icons/dark/integration-color" fill-rule="nonzero">
            <g id="partners">
                <path d="M33.4705312,30.0620625 L31.7498437,28.3412812 C32.0367187,27.8296875 32.2710937,27.2925 32.4507187,26.7354375 L34.9774687,26.7354375 C35.365875,26.7354375 35.6805937,26.4207187 35.6805937,26.0323125 L35.6805937,21.9676875 C35.6805937,21.5792812 35.365875,21.2645625 34.9774687,21.2645625 L32.450625,21.2645625 C32.271,20.7075937 32.036625,20.1704062 31.74975,19.6588125 L33.4704375,17.9380312 C33.7450312,17.6634375 33.7450312,17.2183125 33.4704375,16.9438125 L30.828,14.3011875 C30.6960937,14.169375 30.5173125,14.0953125 30.33075,14.0953125 C30.1441875,14.0953125 29.9655,14.169375 29.8335,14.3011875 L28.04625,16.0885312 C27.6215625,15.8706562 27.1805625,15.68775 26.7272812,15.5414062 L26.7272812,13.0145625 C26.7272812,12.6261562 26.4125625,12.3114375 26.0241562,12.3114375 L22.2871875,12.3114375 C21.8987812,12.3114375 21.5840625,12.6261562 21.5840625,13.0145625 L21.5840625,15.4475625 C21.020625,15.6064687 20.4752813,15.8207812 19.9535625,16.0885312 L18.1663125,14.3011875 C18.0344062,14.169375 17.855625,14.0953125 17.6690625,14.0953125 C17.4825,14.0953125 17.3038125,14.169375 17.1718125,14.3011875 L14.529375,16.9438125 C14.2547813,17.2184062 14.2547813,17.6635312 14.529375,17.9380312 L16.2500625,19.6588125 C15.9631875,20.1704062 15.7288125,20.7075937 15.5491875,21.2645625 L13.0224375,21.2645625 C12.6340312,21.2645625 12.3193125,21.5792812 12.3193125,21.9676875 L12.3193125,26.0323125 C12.3193125,26.4207187 12.6340312,26.7354375 13.0224375,26.7354375 L15.5491875,26.7354375 C15.7288125,27.2925 15.9631875,27.8296875 16.2500625,28.3412812 L14.529375,30.0620625 C14.2547813,30.3366562 14.2547813,30.7817812 14.529375,31.056375 L17.1718125,33.6988125 C17.4464063,33.9732187 17.891625,33.9734062 18.166125,33.6988125 L19.9534687,31.9115625 C20.4750937,32.1792187 21.0205312,32.393625 21.5839687,32.5525312 L21.5839687,34.9855312 C21.5839687,35.3739375 21.8986875,35.6886562 22.2870937,35.6886562 L26.0240625,35.6886562 C26.4124687,35.6886562 26.7271875,35.3739375 26.7271875,34.9855312 L26.7271875,32.4586875 C27.1804687,32.3123437 27.6214687,32.1294375 28.0461562,31.9115625 L29.8335,33.6988125 C30.108,33.9733125 30.5532187,33.9733125 30.8278125,33.6988125 L33.47025,31.056375 C33.7450312,30.7817812 33.7450312,30.3366562 33.4705312,30.0620625 L33.4705312,30.0620625 Z M30.3308437,32.20725 L28.6665937,30.5430937 C28.43925,30.3158437 28.0866562,30.2714062 27.8102812,30.4358437 C27.1974375,30.7999687 26.5380937,31.0734375 25.850625,31.2486562 C25.5390937,31.3280625 25.321125,31.6085625 25.321125,31.9300312 L25.321125,34.2824062 L22.9903125,34.2824062 L22.9903125,32.0025 C22.9903125,31.670625 22.7582812,31.3839375 22.4337187,31.3148437 C21.6421875,31.1460937 20.887125,30.8504062 20.1895312,30.4359375 C19.9131562,30.2715 19.5604687,30.3158437 19.3332187,30.5431875 L17.6689687,32.2073437 L16.0209375,30.5593125 L17.6334375,28.9467187 C17.868,28.7121562 17.9067187,28.3455 17.7261562,28.0670625 C17.2843125,27.3855 16.9589062,26.6425312 16.7593125,25.8587812 C16.6799062,25.54725 16.3994062,25.3292812 16.0779375,25.3292812 L13.7255625,25.3292812 L13.7255625,22.6709062 L16.078125,22.6709062 C16.3995937,22.6709062 16.6800937,22.4529375 16.7595,22.1414062 C16.9592812,21.35775 17.2845937,20.6147812 17.7263437,19.9332187 C17.9069062,19.6547812 17.8681875,19.288125 17.633625,19.0535625 L16.021125,17.4409687 L17.6691562,15.7928437 L19.3333125,17.4570937 C19.5606562,17.6843437 19.9131562,17.7285937 20.1897187,17.5643437 C20.8872187,17.149875 21.6422812,16.8541875 22.4339062,16.6854375 C22.7584687,16.6163437 22.9905,16.3296562 22.9905,15.9977812 L22.9905,13.717875 L25.3212187,13.717875 L25.3212187,16.07025 C25.3212187,16.3917187 25.5391875,16.6722187 25.8507187,16.751625 C26.5381875,16.9268437 27.1975312,17.2003125 27.810375,17.5644375 C28.0865625,17.7287812 28.43925,17.6844375 28.6667812,17.4571875 L30.3309375,15.7929375 L31.9789687,17.4410625 L30.3664687,19.0536562 C30.1319062,19.2882187 30.0931875,19.654875 30.27375,19.9333125 C30.7155937,20.614875 31.0409062,21.35775 31.2405937,22.1415 C31.32,22.4530312 31.6005,22.671 31.9219687,22.671 L34.2743437,22.671 L34.2743437,25.329375 L31.921875,25.329375 C31.6004062,25.329375 31.3199062,25.5473437 31.2405,25.858875 C31.0408125,26.6425312 30.7154062,27.3855937 30.2736562,28.0671562 C30.0930937,28.3455937 30.1318125,28.71225 30.366375,28.9468125 L31.978875,30.5594062 L30.3308437,32.20725 Z" id="Shape" fill="#003058"></path>
                <path d="M24,20.4557812 C23.819625,20.4557812 23.6385937,20.4694687 23.4619688,20.4964687 C23.0780625,20.5550625 22.8144375,20.91375 22.8730312,21.2976562 C22.931625,21.6816562 23.2905937,21.9451875 23.6742187,21.8865937 C23.7809062,21.8702812 23.8905,21.8620312 24.0000937,21.8620312 C25.1789062,21.8620312 26.1380625,22.8210937 26.1380625,24 C26.1380625,25.1789062 25.179,26.1379687 24.0000937,26.1379687 C22.8211875,26.1379687 21.862125,25.1789062 21.862125,24 C21.862125,23.88975 21.8704687,23.7793125 21.8870625,23.6719687 C21.9460312,23.2881562 21.6826875,22.9291875 21.2989688,22.870125 C20.91525,22.8107812 20.5561875,23.0743125 20.497125,23.4582187 C20.46975,23.6360625 20.4559688,23.8184062 20.4559688,23.9999062 C20.4559688,25.9542187 22.045875,27.544125 24.0001875,27.544125 C25.9545,27.544125 27.5444062,25.9542187 27.5444062,23.9999062 C27.5444062,22.0455937 25.9543125,20.4557812 24,20.4557812 L24,20.4557812 Z" id="Path" fill="#B03478"></path>
                <path d="M41.6147813,4.26159375 C40.4438437,4.26159375 39.4911563,5.21428125 39.4911563,6.38521875 C39.4911563,7.55615625 40.4438437,8.50884375 41.6147813,8.50884375 C42.7857188,8.50884375 43.7384062,7.55615625 43.7384062,6.38521875 C43.7384062,5.21428125 42.7857188,4.26159375 41.6147813,4.26159375 Z M41.6147813,7.1026875 C41.2191562,7.1026875 40.8974063,6.78084375 40.8974063,6.3853125 C40.8974063,5.98978125 41.21925,5.6679375 41.6147813,5.6679375 C42.0103125,5.6679375 42.3321562,5.98978125 42.3321562,6.3853125 C42.3321562,6.78084375 42.0103125,7.1026875 41.6147813,7.1026875 Z" id="Shape" fill="#B03478"></path>
                <path d="M47.296875,4.26159375 L46.1016562,4.26159375 C45.6102187,3.22134375 44.7786562,2.38978125 43.7384062,1.89834375 L43.7384062,0.703125 C43.7384062,0.31471875 43.4236875,0 43.0352812,0 L40.1941875,0 C39.8057812,0 39.4910625,0.31471875 39.4910625,0.703125 L39.4910625,1.89825 C38.4507187,2.38978125 37.61925,3.22125 37.1277187,4.26159375 L35.9325,4.26159375 C35.5440937,4.26159375 35.229375,4.5763125 35.229375,4.96471875 L35.229375,7.8058125 C35.229375,8.19421875 35.5440937,8.5089375 35.9325,8.5089375 L37.127625,8.5089375 C37.6191562,9.54928125 38.4507187,10.3808438 39.4910625,10.872375 L39.4910625,12.0675 C39.4910625,12.4559062 39.8057812,12.770625 40.1941875,12.770625 L43.0352812,12.770625 C43.4236875,12.770625 43.7384062,12.4559062 43.7384062,12.0675 L43.7384062,10.8722813 C44.77875,10.38075 45.6102187,9.54928125 46.10175,8.5089375 L47.296875,8.5089375 C47.6852812,8.5089375 48,8.19421875 48,7.8058125 L48,4.96471875 C48,4.5763125 47.6852812,4.26159375 47.296875,4.26159375 L47.296875,4.26159375 Z M46.59375,7.1026875 L45.6319687,7.1026875 C45.3342187,7.1026875 45.0688125,7.2901875 44.9693437,7.57078125 C44.61375,8.57334375 43.8029062,9.384375 42.80025,9.73996875 C42.5196562,9.83953125 42.3321562,10.1049375 42.3321562,10.4025937 L42.3321562,11.364375 L40.8973125,11.364375 L40.8973125,10.4025937 C40.8973125,10.1048437 40.7098125,9.8394375 40.4292187,9.73996875 C39.4266562,9.384375 38.615625,8.5734375 38.2600312,7.57078125 C38.1604687,7.2901875 37.8950625,7.1026875 37.5974062,7.1026875 L36.635625,7.1026875 L36.635625,5.66784375 L37.5974062,5.66784375 C37.8951562,5.66784375 38.1605625,5.48034375 38.2600312,5.19975 C38.615625,4.1971875 39.4265625,3.38625 40.4292187,3.03065625 C40.7098125,2.93109375 40.8973125,2.6656875 40.8973125,2.36803125 L40.8973125,1.40625 L42.3321562,1.40625 L42.3321562,2.36803125 C42.3321562,2.66578125 42.5196562,2.9311875 42.80025,3.03065625 C43.8028125,3.38625 44.61375,4.19709375 44.9693437,5.19975 C45.0689062,5.48034375 45.3343125,5.66784375 45.6319687,5.66784375 L46.59375,5.66784375 L46.59375,7.1026875 Z" id="Shape" fill="#003058"></path>
                <path d="M43.7384062,41.6147813 C43.7384062,40.4438437 42.7857188,39.4911563 41.6147813,39.4911563 C40.4438437,39.4911563 39.4911563,40.4438437 39.4911563,41.6147813 C39.4911563,42.7857188 40.4438437,43.7384062 41.6147813,43.7384062 C42.7857188,43.7384062 43.7384062,42.7857188 43.7384062,41.6147813 Z M40.8973125,41.6147813 C40.8973125,41.2191562 41.2191562,40.8974063 41.6146875,40.8974063 C42.0102187,40.8974063 42.3320625,41.21925 42.3320625,41.6147813 C42.3320625,42.0103125 42.0102187,42.3321562 41.6146875,42.3321562 C41.2191562,42.3321562 40.8973125,42.0103125 40.8973125,41.6147813 Z" id="Shape" fill="#B03478"></path>
                <path d="M47.296875,39.4910625 L46.10175,39.4910625 C45.6102187,38.4507188 44.77875,37.61925 43.7384062,37.1277187 L43.7384062,35.9325 C43.7384062,35.5440938 43.4236875,35.229375 43.0352812,35.229375 L40.1941875,35.229375 C39.8057812,35.229375 39.4910625,35.5440938 39.4910625,35.9325 L39.4910625,37.18275 C39.3008437,37.37775 39.2338125,37.6746562 39.3445312,37.9425 C39.49275,38.301375 39.9038438,38.472 40.2628125,38.323875 C40.3175625,38.3012812 40.372875,38.28 40.4289375,38.260125 C40.709625,38.1606562 40.8973125,37.8951562 40.8973125,37.5974062 L40.8973125,36.635625 L42.3321562,36.635625 L42.3321562,37.5974062 C42.3321562,37.8951562 42.5196562,38.1605625 42.80025,38.2600312 C43.8028125,38.615625 44.61375,39.4265625 44.9693437,40.4292187 C45.0689062,40.7098125 45.3343125,40.8973125 45.6319687,40.8973125 L46.59375,40.8973125 L46.59375,42.3321562 L45.6319687,42.3321562 C45.3342187,42.3321562 45.0688125,42.5196562 44.9693437,42.80025 C44.61375,43.8028125 43.8029062,44.61375 42.80025,44.9693437 C42.5196562,45.0689062 42.3321562,45.3343125 42.3321562,45.6319687 L42.3321562,46.59375 L40.8973125,46.59375 L40.8973125,45.6319687 C40.8973125,45.3342187 40.7098125,45.0688125 40.4292187,44.9693437 C39.4266562,44.61375 38.615625,43.8029062 38.2600312,42.80025 C38.1604687,42.5196562 37.8950625,42.3321562 37.5974062,42.3321562 L36.635625,42.3321562 L36.635625,40.8973125 L37.5974062,40.8973125 C37.8953438,40.8973125 38.1608437,40.709625 38.2602187,40.4288437 C38.281125,40.3697812 38.303625,40.3114687 38.3275312,40.254 C38.4764063,39.8953125 38.3063438,39.4838437 37.9476563,39.3349687 C37.6753125,39.2217187 37.3720312,39.2929687 37.17675,39.4910625 L35.9325,39.4910625 C35.5440938,39.4910625 35.229375,39.8057812 35.229375,40.1941875 L35.229375,43.0352812 C35.229375,43.4236875 35.5440938,43.7384062 35.9325,43.7384062 L37.1277187,43.7384062 C37.61925,44.77875 38.4507188,45.6102187 39.4910625,46.10175 L39.4910625,47.296875 C39.4910625,47.6852812 39.8057813,48 40.1941875,48 L43.0352813,48 C43.4236875,48 43.7384063,47.6852812 43.7384063,47.296875 L43.7384063,46.1016562 C44.7786563,45.6102187 45.6102188,44.7786562 46.1016563,43.7384062 L47.296875,43.7384062 C47.6852813,43.7384062 48,43.4236875 48,43.0352812 L48,40.1941875 C48,39.805875 47.6852813,39.4910625 47.296875,39.4910625 L47.296875,39.4910625 Z" id="Path" fill="#003058"></path>
                <path d="M8.5089375,6.38521875 C8.5089375,5.21428125 7.55625,4.26159375 6.3853125,4.26159375 C5.214375,4.26159375 4.26159375,5.21428125 4.26159375,6.38521875 C4.26159375,7.55615625 5.21428125,8.50884375 6.38521875,8.50884375 C7.55615625,8.50884375 8.5089375,7.55625 8.5089375,6.38521875 Z M5.66784375,6.38521875 C5.66784375,5.98959375 5.9896875,5.66784375 6.38521875,5.66784375 C6.78075,5.66784375 7.10259375,5.9896875 7.10259375,6.38521875 C7.10259375,6.78075 6.78075,7.10259375 6.38521875,7.10259375 C5.9896875,7.10259375 5.66784375,6.78084375 5.66784375,6.38521875 L5.66784375,6.38521875 Z" id="Shape" fill="#B03478"></path>
                <path d="M0.703125,8.5089375 L1.89825,8.5089375 C2.38978125,9.54928125 3.22125,10.38075 4.26159375,10.8722813 L4.26159375,12.0675 C4.26159375,12.4559062 4.5763125,12.770625 4.96471875,12.770625 L7.8058125,12.770625 C8.19421875,12.770625 8.5089375,12.4559062 8.5089375,12.0675 L8.5089375,10.872375 C9.54928125,10.3808438 10.3808438,9.54928125 10.872375,8.5089375 L12.0675,8.5089375 C12.4559062,8.5089375 12.770625,8.19421875 12.770625,7.8058125 L12.770625,4.96471875 C12.770625,4.5763125 12.4559062,4.26159375 12.0675,4.26159375 L10.8722813,4.26159375 C10.38075,3.22125 9.54928125,2.38978125 8.5089375,1.89825 L8.5089375,0.703125 C8.5089375,0.31471875 8.19421875,0 7.8058125,0 L4.96471875,0 C4.5763125,0 4.26159375,0.31471875 4.26159375,0.703125 L4.26159375,1.95346875 C4.071375,2.1485625 4.0044375,2.4455625 4.11515625,2.71340625 C4.2635625,3.0721875 4.67475,3.242625 5.03371875,3.0943125 C5.08828125,3.07171875 5.1436875,3.0504375 5.19975,3.0305625 C5.48034375,2.931 5.66784375,2.66559375 5.66784375,2.3679375 L5.66784375,1.40625 L7.1026875,1.40625 L7.1026875,2.36803125 C7.1026875,2.66578125 7.2901875,2.9311875 7.57078125,3.03065625 C8.57334375,3.38625 9.384375,4.1971875 9.73996875,5.19975 C9.83953125,5.48034375 10.1049375,5.66784375 10.4025937,5.66784375 L11.364375,5.66784375 L11.364375,7.1026875 L10.4025937,7.1026875 C10.1048438,7.1026875 9.8394375,7.2901875 9.73996875,7.57078125 C9.384375,8.57334375 8.57334375,9.384375 7.57078125,9.73996875 C7.2901875,9.83953125 7.1026875,10.1049375 7.1026875,10.4025938 L7.1026875,11.364375 L5.66784375,11.364375 L5.66784375,10.4025938 C5.66784375,10.1048438 5.48034375,9.8394375 5.19975,9.73996875 C4.1971875,9.384375 3.38625,8.57334375 3.03065625,7.57078125 C2.93109375,7.2901875 2.6656875,7.1026875 2.36803125,7.1026875 L1.40625,7.1026875 L1.40625,5.66784375 L2.36803125,5.66784375 C2.66578125,5.66784375 2.93128125,5.48025 3.03075,5.19965625 C3.0515625,5.14078125 3.07396875,5.08265625 3.097875,5.025375 C3.247125,4.666875 3.07753125,4.25521875 2.719125,4.105875 C2.44621875,3.99225 2.1429375,4.0633125 1.9475625,4.26159375 L0.703125,4.26159375 C0.31471875,4.26159375 0,4.5763125 0,4.96471875 L0,7.8058125 C0,8.194125 0.31471875,8.5089375 0.703125,8.5089375 Z" id="Path" fill="#003058"></path>
                <path d="M12.0675,39.4910625 L10.872375,39.4910625 C10.3808438,38.4507188 9.54928125,37.6191562 8.5089375,37.127625 L8.5089375,35.9325 C8.5089375,35.5440938 8.19421875,35.229375 7.8058125,35.229375 L4.96471875,35.229375 C4.5763125,35.229375 4.26159375,35.5440938 4.26159375,35.9325 L4.26159375,37.1277187 C3.22125,37.61925 2.38978125,38.4507188 1.89825,39.4910625 L0.703125,39.4910625 C0.31471875,39.4910625 0,39.8057813 0,40.1941875 L0,43.0352813 C0,43.4236875 0.31471875,43.7384063 0.703125,43.7384063 L1.89834375,43.7384063 C2.38978125,44.7786563 3.22134375,45.6102188 4.26159375,46.1016563 L4.26159375,47.296875 C4.26159375,47.6852813 4.5763125,48 4.96471875,48 L7.8058125,48 C8.19421875,48 8.5089375,47.6852813 8.5089375,47.296875 L8.5089375,46.10175 C9.54928125,45.6102188 10.38075,44.77875 10.8722813,43.7384063 L12.0675,43.7384063 C12.4559062,43.7384063 12.770625,43.4236875 12.770625,43.0352813 L12.770625,40.1941875 C12.770625,39.805875 12.4558125,39.4910625 12.0675,39.4910625 L12.0675,39.4910625 Z M11.364375,42.3321562 L10.4025937,42.3321562 C10.1048437,42.3321562 9.8394375,42.5196562 9.73996875,42.80025 C9.384375,43.8028125 8.5734375,44.61375 7.57078125,44.9693438 C7.2901875,45.0689062 7.1026875,45.3343125 7.1026875,45.6319687 L7.1026875,46.59375 L5.66784375,46.59375 L5.66784375,45.6319687 C5.66784375,45.3342188 5.48034375,45.0688125 5.19975,44.9693438 C4.1971875,44.61375 3.38625,43.8028125 3.03065625,42.80025 C2.93109375,42.5196562 2.6656875,42.3321562 2.36803125,42.3321562 L1.40625,42.3321562 L1.40625,40.8973125 L2.36803125,40.8973125 C2.66578125,40.8973125 2.9311875,40.7098125 3.03065625,40.4292187 C3.38625,39.4266562 4.19709375,38.615625 5.19975,38.2600312 C5.48034375,38.1604687 5.66784375,37.8950625 5.66784375,37.5974062 L5.66784375,36.635625 L7.1026875,36.635625 L7.1026875,37.5974062 C7.1026875,37.8951562 7.2901875,38.1605625 7.57078125,38.2600312 C8.57334375,38.615625 9.384375,39.4265625 9.73996875,40.4292187 C9.83953125,40.7098125 10.1049375,40.8973125 10.4025937,40.8973125 L11.364375,40.8973125 L11.364375,42.3321562 Z" id="Shape" fill="#003058"></path>
                <path d="M6.38521875,39.4910625 C5.21428125,39.4910625 4.26159375,40.44375 4.26159375,41.6146875 C4.26159375,42.785625 5.21428125,43.7383125 6.38521875,43.7383125 C7.55615625,43.7383125 8.50884375,42.785625 8.50884375,41.6146875 C8.50884375,40.44375 7.55625,39.4910625 6.38521875,39.4910625 Z M6.38521875,42.3321563 C5.98959375,42.3321563 5.66784375,42.0103125 5.66784375,41.6147813 C5.66784375,41.21925 5.9896875,40.8974063 6.38521875,40.8974063 C6.78075,40.8974063 7.10259375,41.21925 7.10259375,41.6147813 C7.10259375,42.0103125 6.78084375,42.3321563 6.38521875,42.3321563 Z" id="Shape" fill="#B03478"></path>
                <path d="M11.6176875,10.6231875 C11.343,10.3486875 10.897875,10.3486875 10.6232813,10.6231875 C10.3486875,10.897875 10.3486875,11.343 10.6232813,11.6175937 L12.6428438,13.6371563 L12.0675,13.6371563 C11.6790938,13.6371563 11.364375,13.951875 11.364375,14.3402813 C11.364375,14.7286875 11.6790938,15.0434063 12.0675,15.0434063 L14.340375,15.0434063 C14.7231563,15.0434063 15.043875,14.7226875 15.0435003,14.3398125 L15.0435003,12.0675 C15.0435003,11.6790937 14.7287813,11.364375 14.340375,11.364375 C13.9519688,11.364375 13.63725,11.6790937 13.63725,12.0675 L13.63725,12.6428438 L11.6176875,10.6231875 Z" id="Path" fill="#003058"></path>
                <path d="M32.9600625,14.4099375 C32.9950313,14.7645 33.3035625,15.0435 33.6597188,15.0435 L35.9325938,15.0435 C36.321,15.0435 36.6357188,14.7287813 36.6357188,14.340375 C36.6357188,13.9519688 36.321,13.63725 35.9325938,13.63725 L35.35725,13.63725 L37.3768125,11.6176875 C37.6514063,11.343 37.6514063,10.897875 37.3768125,10.6232813 C37.102125,10.3487813 36.657,10.3487813 36.3824063,10.6232813 L34.3628438,12.6428438 L34.3628438,12.0675 C34.3628438,11.6790938 34.048125,11.364375 33.6597188,11.364375 C33.2713125,11.364375 32.9565887,11.6790938 32.9565887,12.0675 L32.9565887,14.3399063 C32.9565,14.36325 32.9577188,14.3866875 32.9600625,14.4099375 L32.9600625,14.4099375 Z" id="Path" fill="#003058"></path>
                <path d="M15.0400312,33.400875 C15.0051562,33.04575 14.6961562,32.7672187 14.340375,32.7672187 L12.0675,32.7672187 C11.6790937,32.7672187 11.364375,33.0819375 11.364375,33.4703437 C11.364375,33.85875 11.6790937,34.1734687 12.0675,34.1734687 L12.6428437,34.1734687 L10.6232812,36.1929375 C10.3485937,36.467625 10.3485937,36.91275 10.6231875,37.18725 C10.7605312,37.3245937 10.9404375,37.3932187 11.1204375,37.3932187 C11.3003437,37.3932187 11.4803437,37.3245937 11.6175937,37.1873437 L13.63725,35.1677812 L13.63725,35.743125 C13.63725,36.1315312 13.9519687,36.44625 14.340375,36.44625 C14.7287812,36.44625 15.0435,36.1315312 15.0435,35.743125 L15.0435,33.470625 C15.0435,33.4472812 15.0422812,33.4240312 15.0400312,33.400875 L15.0400312,33.400875 Z" id="Path" fill="#003058"></path>
                <path d="M36.3824063,37.1873437 C36.5196563,37.3245937 36.6996563,37.3932187 36.8795625,37.3932187 C37.0594688,37.3932187 37.2394688,37.3245937 37.3768125,37.18725 C37.6514062,36.9126562 37.6514062,36.4675312 37.3767188,36.1929375 L35.3571563,34.1734687 L35.9325,34.1734687 C36.3209063,34.1734687 36.635625,33.85875 36.635625,33.4703437 C36.635625,33.0819375 36.3209063,32.7672187 35.9325,32.7672187 L33.659625,32.7672187 C33.2775,32.7672187 32.9563125,33.087375 32.9564999,33.470625 L32.9564999,35.743125 C32.9564999,36.1315312 33.2712188,36.44625 33.659625,36.44625 C34.0480313,36.44625 34.36275,36.1315312 34.36275,35.743125 L34.36275,35.1677812 L36.3824063,37.1873437 Z" id="Path" fill="#003058"></path>
            </g>
        </g>
    </g>
</svg>