<?xml version="1.0" encoding="UTF-8"?> <svg xmlns="http://www.w3.org/2000/svg" viewBox="0 0 393.83 394"><defs><style>.cls-1,.cls-12{fill:#00a7e1;}.cls-1{opacity:0.4;}.cls-2{opacity:0.9;}.cls-3{fill:#606060;}.cls-4{fill:#b7b7b7;}.cls-5{fill:#e3e3e3;}.cls-6{fill:#fff;}.cls-7{fill:#003058;}.cls-8{fill:#f7981d;}.cls-9{fill:#bebebe;}.cls-10{fill:#e9e9e9;}.cls-11{fill:#444443;}.cls-13{fill:#3a3a3a;}</style></defs><title>digital-river-content-graphics-v1_isolated</title><g id="Layer_2" data-name="Layer 2"><path class="cls-1" d="M197.37,389.58h0v0Zm0,0h-.09c-1.37,0-2.73,0-4.1,0h0v-.27l0-.57c1.36,0,2.72,0,4.08,0Zm4.2-.05,0-.84c1.39,0,2.78-.07,4.17-.13v0l0,.84h0C204.35,389.46,203,389.5,201.56,389.53Zm0,0h0v0ZM189,389.41h0v0c-1.4-.06-2.8-.13-4.19-.22h0l-.12,0,.14-.43v0l.12-.36-.12.36,0-.38c1.39.09,2.78.16,4.17.22v.85Zm20.93-.24,0-.39v0l-.14-.43.12,0h0c1.39-.09,2.77-.19,4.14-.31h.05v.42l.12.4-.12-.37,0,.39C212.72,389,211.33,389.08,209.93,389.17Zm4.15-.74v0Zm-33.43.44h-.05c-1.39-.12-2.78-.26-4.17-.41h0l-.1,0,.14-.42v0l.12-.35-.12.35,0-.37c1.38.15,2.77.28,4.16.4l0,.42v.42Zm4.15-.11v0Zm33.44-.31v-.39l-.14-.43.1,0h0c1.39-.15,2.77-.32,4.15-.5h.06v.42l.12.4-.12-.37.05.39c-1.39.18-2.78.34-4.17.5l0-.39Zm0-.42Zm4.16-.5v0Zm-45.94.52v0Zm-4.13-.08h-.07c-1.39-.18-2.77-.38-4.15-.59l0-.38-.1.37.1-.37v-.45h.07c1.38.21,2.76.41,4.14.58l-.05.42V388Zm-4.16-1h0v0Zm58.37.39v-.42l-.11-.4.11.37v0l-.06-.35c1.38-.21,2.75-.44,4.12-.68l.08.38v0l.12.44h-.05c-1.38.24-2.76.47-4.14.68h-.07Zm0-.45v0Zm4.13-.65h0Zm-66.63.45v-.38l-.07.38c-1.38-.24-2.76-.5-4.13-.77l.07-.38-.1.37.1-.37v-.45h.1c1.36.26,2.73.52,4.1.76h0l-.11.41Zm0-.42,0,.09Zm-4.12-.76Zm74.86.39v-.42l-.1-.41.1.37h0l-.07-.37c1.37-.27,2.73-.55,4.09-.85l.09.37v0l.12.44h0c-1.36.3-2.73.58-4.11.86h0Zm0-.46v0Zm4.11-.83h0Zm-83.06.46v-.38l-.09.37c-1.37-.3-2.73-.61-4.09-.94l.09-.38-.11.37.11-.37v-.45h.11c1.35.33,2.7.64,4.07.94h0l-.11.41Zm0-.42,0,.15Zm87.13-.56v-.42l-.11-.41.11.37h0l-.09-.37c1.35-.33,2.7-.68,4-1l.23.81-.09-.3.08.3c-1.35.37-2.71.71-4.07,1.05h0Zm0-.46v0Zm-95.37-.55h0c-1.35-.36-2.7-.74-4-1.13h0l.25-.8h0c1.34.39,2.67.76,4,1.12l-.11.41.13-.4Zm103.58-1.17-.26-.8Zm0,0-.24-.81c1.34-.39,2.68-.79,4-1.21l.25.8v0C253.85,381.13,252.51,381.53,251.17,381.93Zm-111.62-1.16h0c-1.34-.42-2.67-.86-4-1.31h0l.24-.8-.1.4.13-.39c1.32.44,2.65.88,4,1.3l-.13.39.13-.39Zm119.59-1.36-.24-.8c1.32-.45,2.63-.91,3.94-1.39l.15.4-.21-.37.35.76,0-.06,0,.06c-1.31.48-2.63.94-4,1.39l0-.13,0,.13Zm-127.57-1.34h0c-1.32-.48-2.63-1-3.94-1.48h0l-.07,0,.25-.43.12-.33c1.3.51,2.61,1,3.93,1.48l-.15.39.21-.36ZM263.19,378l-.2-.37Zm3.86-1.45-.15-.39h0l-.15-.39c1.29-.51,2.58-1,3.86-1.55l.16.38-.21-.36.35.76-.09-.27.11.26C269.65,375.5,268.35,376,267.05,376.53ZM123.74,375h0c-1.29-.54-2.58-1.09-3.86-1.65h0l0,0,.38-.74c1.28.56,2.56,1.11,3.86,1.64l-.16.39.2-.36ZM271,375l-.2-.37Zm3.8-1.62-.34-.77c1.27-.56,2.53-1.14,3.79-1.72h0l0,0,.14.4.22.36-.21-.32.15.35C277.32,372.19,276.05,372.76,274.78,373.33Zm3.62-2.12,0,.08Zm-162.34.43,0,0h0c-1.27-.6-2.53-1.2-3.79-1.82l.17-.35-.21.32.21-.32.14-.43.06,0h0c1.25.62,2.5,1.23,3.77,1.82l-.18.38.21-.37Zm166.23-1.83-.14-.43,0,0L282,369l.11.33L282,369c1.25-.61,2.49-1.24,3.72-1.88l.19.37v0l.25.38-.05,0h0c-1.23.65-2.48,1.28-3.73,1.9h0Zm-.13-.39-.23-.36Zm-173.63-1.5.12-.36-.19.33c-1.24-.64-2.47-1.31-3.7-2l.18-.34-.21.32.21-.32.15-.43.07,0h0c1.23.68,2.46,1.33,3.69,2h0l.05,0-.23.35Zm.13-.39,0,.06Zm-3.7-2h0Zm184.73.41-.13-.4-.22-.35.21.32v0l-.17-.32c1.22-.67,2.43-1.35,3.63-2.05l.21.37v0l.25.38,0,0h0c-1.21.7-2.42,1.38-3.65,2.06h0Zm-.14-.43,0,0,0-.05Zm-188.37-1.64.12-.36-.2.32c-1.21-.7-2.42-1.41-3.62-2.14l.22-.36h0l.22-.37c1.19.73,2.39,1.44,3.6,2.14h0l0,0-.23.35Zm.13-.4-.07.12ZM297,361.76l-.18-.44-.19-.31c1.19-.72,2.37-1.46,3.54-2.21l.23.36-.16-.39.4.73h0c-1.17.75-2.36,1.49-3.55,2.22h0Zm-203-2.28h0c-1.18-.76-2.35-1.52-3.51-2.3h0l0,0,.5-.67c1.16.78,2.32,1.54,3.5,2.29l-.23.35.27-.32Zm210.16-2.26-.5-.67.26.31-.23-.33c1.16-.78,2.31-1.56,3.44-2.36l.51.67-.19-.24.17.26C306.39,355.66,305.24,356.45,304.08,357.22Zm3.21-2.71.23.32ZM87,354.82v0c-1.15-.8-2.29-1.62-3.41-2.44l.18-.26-.2.24.49-.68-.22.35.24-.33c1.13.82,2.26,1.64,3.4,2.44l-.24.34.26-.33ZM83.77,352h0Zm227.15.4-.48-.69c1.12-.83,2.24-1.66,3.34-2.51l.26.35-.24-.37.51.68h0c-1.11.85-2.22,1.69-3.35,2.51h0ZM80.19,349.85l.17-.26-.19.24.26-.33-.26.33c-1.11-.85-2.21-1.72-3.3-2.59h0l.2-.25.29-.43-.23.35.27-.33c1.08.88,2.18,1.74,3.28,2.59Zm237.36-2.51-.49-.68c1.09-.87,2.16-1.76,3.23-2.65l.27.33-.3-.31.57.62c-1.07.9-2.15,1.79-3.24,2.66Zm3.28-2.69,0,0,0,0Zm0,0-.28-.31Zm-247.21,0v0c-1.07-.9-2.14-1.81-3.19-2.73h0l0,0,.37-.31.24-.27c1,.92,2.1,1.82,3.17,2.72l-.27.31.29-.29ZM324,341.92l-.28-.31h0l-.27-.32c1-.92,2.08-1.85,3.11-2.79l.28.32-.32-.27.59.59-.18-.23.19.21C326.1,340.07,325.06,341,324,341.92Zm3.16-2.84-.31-.27Zm-259.82,0,0,0h0c-1-1-2-1.9-3.06-2.87h0l0,0,.62-.57c1,1,2,1.92,3,2.86l-.28.3.32-.26Zm262.84-2.8-.29-.31h0l-.29-.31c1-1,2-1.93,3-2.92h0l0,0,.26.33.35.24-.33-.21.27.28C332.21,334.31,331.21,335.29,330.19,336.26Zm2.7-3.24.07.07Zm-271.59.25,0,0h0c-1-1-2-2-2.93-3h0l-.06-.06.35-.23.27-.32-.24.3h0l.26-.26c1,1,1.94,2,2.92,3l-.27.28.33-.22-.33.22Zm.26-.34h0Zm-2.91-3v0l0,0Zm277.44.45-.24-.31-.38-.25.06-.06h0c1-1,1.92-2,2.86-3.05l.31.29-.3-.3.63.56,0,0h0c-.95,1-1.9,2.05-2.87,3.06l-.28-.27Zm-.26-.33ZM55.46,327.18c-.94-1-1.88-2.08-2.8-3.13l.29-.26-.32.22.32-.22.28-.35.06.06h0c.92,1,1.84,2.07,2.78,3.09h0v0Zm.16-.15h0l.17-.13Zm286.12-2.82-.28-.36,0,0-.05,0-.22-.28.22.28-.27-.24c.92-1,1.83-2.1,2.73-3.17l.32.27,0,0,.37.25,0,0h0c-.9,1.07-1.81,2.14-2.74,3.19h0Zm-.26-.33-.34-.24ZM50,320.93l.24-.3-.3.24c-.9-1.07-1.79-2.15-2.66-3.24l.3-.24-.32.21.32-.21.28-.36.07.08h0c.87,1.08,1.76,2.16,2.65,3.22h0l0,0-.35.23Zm.26-.33-.07.06Zm-2.66-3.23h0v0Zm299.55.43-.29-.36h0l-.24-.3.24.3-.3-.24c.88-1.09,1.74-2.18,2.59-3.29l.34.26-.31-.3.66.52,0,0h0c-.85,1.11-1.72,2.21-2.59,3.3h0Zm-.27-.33-.34-.24ZM44.72,314.38l.3-.29Zm0,0c-.85-1.11-1.69-2.22-2.52-3.35l.34-.25h0l.34-.25c.82,1.12,1.66,2.23,2.5,3.34l-.33.26.3-.3-.64.53.24-.16Zm307.6-3.21-.34-.35-.29-.21c.82-1.12,1.64-2.25,2.44-3.39l.35.24-.3-.3.65.52v0h0c-.81,1.14-1.63,2.28-2.45,3.41h0ZM39.77,307.64l.3-.29Zm-.05-.05c-.8-1.15-1.59-2.3-2.37-3.46l.16-.11-.16.11.27-.18-.27.18.68-.49-.32.25.34-.23c.77,1.16,1.56,2.3,2.36,3.44l-.35.24.3-.29-.64.53h0Zm317.41-3.37-.67-.49c.77-1.16,1.54-2.33,2.29-3.5l.35.22-.38-.18.73.41c-.75,1.18-1.52,2.35-2.3,3.52Zm2.35-3.58-.38-.19Zm-324.41,0h0c-.75-1.18-1.49-2.36-2.22-3.56h0l0,0,.74-.4c.72,1.19,1.46,2.37,2.21,3.54l-.36.23.38-.19Zm326.61-3.52-.36-.22h0l-.36-.22c.73-1.19,1.44-2.39,2.14-3.6l.37.22-.36-.24.73.41,0,0h0C363.12,294.71,362.41,295.92,361.68,297.12Zm-331-3.62.35-.23Zm0,0c-.7-1.2-1.39-2.42-2.06-3.64l.37-.21h0l.37-.21c.67,1.22,1.36,2.43,2.05,3.63l-.36.21.35-.23-.72.43.23-.12Zm335.16-3.59-.72-.44q1-1.83,2-3.69l.75.37h0l-.39-.19.39.2c-.65,1.24-1.31,2.48-2,3.7Zm-339.2-3.74h0c-.64-1.23-1.28-2.47-1.89-3.72h0l.75-.37-.59.3.6-.29c.62,1.24,1.24,2.48,1.89,3.71l-.38.19.38-.18Zm343.11-3.74L369,282l.76.37Zm0,0L369,282c.62-1.25,1.22-2.51,1.81-3.78l.38.18-.37-.19.75.37h0C371,279.87,370.4,281.14,369.78,282.39ZM23,278.66h0l.37-.18-.38.17c-.59-1.26-1.16-2.53-1.73-3.81h0l0,0,.79-.3c.56,1.27,1.14,2.54,1.72,3.8Zm350.37-3.89-.38-.17h0l-.4-.17c.57-1.28,1.12-2.56,1.65-3.85l.38.15-.39-.12.78.31-.25-.12.26.1C374.46,272.2,373.91,273.49,373.34,274.77ZM19.6,271v0c-.54-1.28-1.06-2.58-1.57-3.88l.38-.14-.38.12.38-.12-.38.12.79-.29-.31.13.31-.12c.5,1.29,1,2.58,1.55,3.86l-.38.16.39-.13ZM375,270.87l-.4-.14Zm1.56-3.87-.79-.29.32.11-.32-.13c.51-1.3,1-2.6,1.48-3.92l.38.14-.38-.14.8.27v0h0c-.48,1.32-1,2.63-1.48,3.94Zm-360-3.81c-.48-1.31-.94-2.63-1.39-4l.37-.12-.37.12.38-.13-.38.13.79-.29-.39.16.39-.14c.45,1.32.91,2.63,1.39,3.94h0Zm.08,0h0l.35-.12Zm362.82-4.05-.79-.29h0c.45-1.32.89-2.64,1.31-4l.8.23-.28-.07.28.09-.4-.12.4.12c-.43,1.34-.86,2.68-1.31,4ZM13.85,255.26v0c-.42-1.33-.82-2.66-1.21-4l0,0,.82-.21c.39,1.33.79,2.67,1.21,4l-.4.13.41-.1ZM382,251.08l-.81-.22.41.09-.4-.12c.38-1.33.76-2.67,1.12-4l.41.11-.42,0,.82.17-.26-.08.26.07c-.36,1.35-.74,2.7-1.13,4l-.28-.08Zm-.38-.12h0l-.06,0ZM11.5,247.22v0c-.36-1.35-.71-2.7-1-4.06h0v-.06l.82-.14c.34,1.35.68,2.7,1,4l-.4.11.41-.05ZM383.11,247l-.41-.06Zm1-4-.82-.2c.33-1.35.65-2.7.95-4.07l.44.1-.44-.11.82.16v0h0C384.79,240.24,384.47,241.61,384.14,243ZM9.5,239.05l.29-.07L9.5,239c-.31-1.36-.59-2.73-.87-4.1l.29-.07-.29,0,.82-.18-.47.13.48-.1c.27,1.37.55,2.73.85,4.08h0Zm.41-.1-.18,0Zm376-4.15-.82-.19c.27-1.37.53-2.74.77-4.11l.4.07-.4-.1.83.16h0c-.25,1.38-.5,2.76-.77,4.13Zm-378.07-4,.28-.07-.29,0,.43-.08-.43.07c-.24-1.37-.47-2.75-.68-4.13v0l.83-.1c.21,1.37.44,2.75.68,4.12Zm379.52-4.33-.83-.11.4,0-.4-.06c.21-1.38.41-2.75.59-4.14h0l.83.11-.19,0,.19,0c-.18,1.39-.38,2.78-.59,4.15l-.18,0Zm-.34-.06h0Zm.34-4.18.44.06Zm-380.8.27v0h0c-.18-1.39-.35-2.77-.5-4.16h0v-.06l.84,0c.15,1.39.32,2.77.5,4.15l-.25,0,.25,0Zm381.89-4.36-.42,0h0l-.43,0c.15-1.38.29-2.76.41-4.15l.42,0h-.42l.83.06-.3-.05.3,0C388.76,215.41,388.63,216.8,388.48,218.18Zm-382.8-4v0c-.12-1.39-.23-2.79-.32-4.18l.42,0h0l.44,0c.09,1.39.19,2.78.31,4.17l-.43,0h.44ZM388.89,214h0Zm.31-4.11-.84-.09c.09-1.38.17-2.77.23-4.17l.43,0-.43-.05.84,0v0h0c-.06,1.4-.13,2.79-.22,4.19Zm-384.07-4,.42,0Zm0,0C5.07,204.42,5,203,5,201.63l.84,0c0,1.39.08,2.78.14,4.16l-.42,0,.42,0-.84.06h0ZM5,201.62H5Zm384.57-.18h-.84c0-1.39,0-2.79,0-4.18v-.35h.84v.35c0,1.4,0,2.8,0,4.19Zm-384.62-4v-.19c0-1.34,0-2.68,0-4h.84c0,1.33,0,2.66,0,4v.18Zm383.77-4.71h0c0-1.39-.08-2.78-.14-4.17l.42,0-.42.05.84-.06h0c.06,1.4.11,2.79.14,4.2h-.84ZM6,189.11l-.84,0v0h0c.06-1.4.14-2.8.23-4.19v0l.83.09c-.08,1.38-.16,2.77-.22,4.17l-.43,0Zm383-.59.42,0Zm-.65-4.14c-.09-1.39-.2-2.78-.32-4.17l.42,0H388l.83-.08v0c.13,1.39.23,2.78.33,4.18l-.42,0h0ZM6.48,180.74l-.4,0h.4l-.83-.06.29,0-.29,0c.12-1.4.25-2.79.4-4.18l.83.09C6.74,178,6.6,179.35,6.48,180.74Zm-.42,0h0Zm381.54-4.65c-.15-1.39-.32-2.77-.5-4.15l.54-.07-.54.07.83-.13v0h0c.18,1.39.35,2.78.5,4.17h0V176ZM7.37,172.43l-.83-.1.19,0-.19,0c.18-1.39.38-2.78.58-4.16l.19,0-.18,0,.83.11-.68-.08.68.1c-.21,1.37-.41,2.75-.58,4.13h0Zm-.62-.08.19,0-.21,0Zm379.76-4.57c-.21-1.38-.44-2.75-.68-4.12l.82-.18-.29.07.29-.05-.42.09.42-.08q.38,2.06.69,4.14v0ZM8.63,164.18l-.83-.13.18,0-.18,0,.43.07L7.8,164c.24-1.38.49-2.75.76-4.12v0l.82.19C9.12,161.43,8.87,162.8,8.63,164.18Zm376.43-4.6.39-.11-.39.08c-.28-1.36-.56-2.72-.87-4.08h0l.82-.19-.29.07.29-.06c.31,1.37.59,2.73.87,4.11l-.29.06.29,0Zm-.35-4.24-.11,0,.17,0ZM10.24,156l-.83-.16v0c.3-1.37.62-2.72.94-4.08l.41.1h0l.42.1c-.33,1.35-.64,2.71-.94,4.07l-.41-.09Zm373-4.59c-.33-1.36-.68-2.7-1-4.05l.4-.11-.41.06.81-.2v0h0c.36,1.35.71,2.71,1.05,4.07h0l0,.05Zm-371-3.54-.4-.11.41.06-.82-.18.24.08-.24-.07c.36-1.35.73-2.7,1.12-4l.28.08-.27-.09.81.22-.41-.09.4.12C12.94,145.17,12.57,146.51,12.21,147.86Zm.65-4.16.07,0Zm-1.06,4.06-.41-.06Zm369.27-4.43h0c-.39-1.33-.8-2.66-1.22-4l.4-.13-.41.1.81-.24v0c.43,1.33.83,2.66,1.23,4h0v0ZM14.54,139.84l-.81-.23.28.07-.28-.09.41.12-.4-.12c.42-1.34.85-2.68,1.3-4v0l.79.29h0C15.39,137.18,15,138.5,14.54,139.84Zm364-4.45.39-.16-.39.14c-.45-1.32-.92-2.63-1.4-3.94h0l.79-.29c.48,1.31.95,2.63,1.4,4l-.36.12.36-.12-.37.12.37-.12Zm-.66-4.23-.35.12Zm-360.67.74-.79-.27v0c.47-1.32,1-2.62,1.47-3.92h0v0l.78.3-.33-.11.33.12c-.51,1.3-1,2.61-1.48,3.93l-.41-.15Zm358.45-4.38c-.5-1.29-1-2.58-1.55-3.86l.38-.16-.39.14.77-.33v0c.54,1.29,1.06,2.58,1.57,3.88l-.39.15h0ZM20.26,124.09l-.39-.17.4.14-.78-.32.26.14-.27-.12q.81-1.94,1.65-3.87l.39.17h0l.41.18C21.34,121.51,20.79,122.79,20.26,124.09Zm-.4-.16-.39-.14Zm352.61-4.09c-.56-1.27-1.13-2.53-1.72-3.78h0l.75-.37h0l-.34.17.35-.17c.59,1.27,1.17,2.53,1.73,3.81h0l0,0ZM23.62,116.43l-.75-.37h0c.59-1.27,1.2-2.53,1.82-3.79l.75.37c-.62,1.25-1.22,2.51-1.81,3.78l-.38-.18Zm1.82-3.8-.75-.36h0Zm343.5-.32.61-.31-.61.3c-.62-1.24-1.25-2.48-1.89-3.71l.42-.22-.43.21.75-.38h0c.65,1.24,1.28,2.48,1.9,3.73h0Zm-341.61-3.4-.75-.37h0l.38.18-.37-.19c.64-1.24,1.31-2.48,2-3.71l0,0,.72.45Q28.31,107.05,27.33,108.91Zm337.75-4c-.67-1.22-1.36-2.43-2.06-3.63l.36-.21-.34.24.72-.43-.24.11.23-.13c.7,1.21,1.39,2.42,2.06,3.64l-.37.21h0ZM31.35,101.59l-.73-.41v0h0c.7-1.21,1.42-2.42,2.15-3.61l.35.21h0l.37.23q-1.08,1.78-2.13,3.6l-.36-.21Zm332-.52.36-.22Zm-2.49-3.36c-.72-1.19-1.46-2.37-2.21-3.54L359,94l-.38.19.72-.43h0c.75,1.18,1.49,2.36,2.22,3.55h0l0,0ZM35.7,94.42l-.35-.22.38.18L35,94c.75-1.18,1.51-2.35,2.29-3.52l0,0,.68.49C37.22,92.08,36.45,93.25,35.7,94.42Zm-.36-.22L35,94Zm321.08-3.49.68-.49-.35.23.35-.23Zm0,0c-.78-1.16-1.56-2.3-2.36-3.44l.34-.24-.29.29.64-.53q1.2,1.71,2.37,3.45ZM40.31,87.53,39.65,87h0c.8-1.15,1.62-2.29,2.44-3.42h0l0,0,.34.34.29.21c-.82,1.12-1.64,2.26-2.44,3.4L40,87.23ZM354.38,87l.3-.29Zm.33-.22h0Zm-3.11-2.92c-.82-1.12-1.66-2.23-2.51-3.33l.33-.25-.29.29.64-.54-.23.15.22-.16c.85,1.11,1.69,2.22,2.52,3.35l-.34.25h0ZM45.26,80.77l-.65-.52,0,0h0c.86-1.11,1.72-2.21,2.6-3.3h0l.07-.08.28.36,0,0,0,0,.23.3-.23-.3.29.24c-.87,1.09-1.73,2.18-2.58,3.29L45,80.47Zm304.16-.5.3-.29ZM47.9,77.41l-.34-.24Zm298.68-.09-.07-.07h0c-.87-1.08-1.76-2.16-2.65-3.22h0l0,0,.36-.24.26-.32-.24.3.3-.24c.9,1.07,1.79,2.14,2.67,3.23l-.3.25.32-.21-.33.21Zm.26-.34h0Zm-2.64-3.24h0l.05,0Zm-293.73.53-.24-.3-.37-.25,0,0h0q1.35-1.61,2.73-3.18h0l0-.06.27.32.34.25L53,70.78v0l.28.24c-.92,1-1.83,2.1-2.73,3.17l-.3-.24Zm-.26-.33h0Zm2.73-3.18,0,0Zm288.26.16-.06-.06h0c-.92-1.05-1.85-2.08-2.79-3.11l.62-.57c.94,1,1.88,2.07,2.8,3.12l-.29.26.32-.22-.32.22Zm-2.39-3.59-.16.14ZM56,67.94l-.63-.56,0,0c.94-1,1.89-2,2.85-3l.29.27-.25-.31.25.31.37.25-.05.06h0c-1,1-1.92,2-2.86,3.05l-.29-.27Zm2.56-3.35h0Zm276.94.16.24-.3h0l-.26.25c-1-1-1.94-2-2.92-3l.27-.28-.33.22.33-.22.28-.35,0,0h0c1,1,2,2,2.94,3h0l.06.06-.35.23Zm.26-.33,0,0Zm-2.93-3-271.08.5-.26-.33-.35-.24.33.22-.28-.28q1.48-1.48,3-2.94l.29.31h0l.3.31c-1,1-2,1.94-3,2.92h0Zm-.28-.35,0,0-.06-.06Zm268.08-2.77c-1-1-2-1.91-3.05-2.85l.29-.31-.33.27.58-.61,0,0h0c1,.95,2,1.9,3.06,2.87h0l0,0ZM67.85,56.12l-.29-.32.33.27-.59-.59.18.23-.2-.21c1-1,2.07-1.88,3.12-2.8l.28.31h0l.28.32C69.91,54.25,68.87,55.17,67.85,56.12Zm-.29-.31-.32-.27Zm255.86-2.64c-1.05-.92-2.11-1.82-3.18-2.72l.27-.32-.29.3.55-.63h0c1.07.9,2.14,1.81,3.19,2.73h0l0,.05-.37.31ZM74.12,50.61l-.28-.34.31.31L73.58,50c1.07-.9,2.15-1.78,3.24-2.66l0,0,0,0,0,0,.49.69C76.26,48.83,75.19,49.71,74.12,50.61Zm-.28-.32-.29-.3ZM73.62,50l0,0h0Zm243.43-2.18.22-.35-.26.32c-1.08-.87-2.18-1.73-3.29-2.58l.49-.68-.17.26.19-.25-.26.35.26-.34c1.12.85,2.22,1.71,3.31,2.59h0ZM80.6,45.39l-.5-.67h0c1.11-.85,2.23-1.69,3.35-2.52l0,0,.48.7c-1.12.82-2.23,1.66-3.34,2.51L80.36,45Zm229.8-2.66.27-.41-.29.39c-1.13-.82-2.26-1.63-3.4-2.43l.24-.35-.26.33.49-.68h0c1.15.8,2.29,1.62,3.42,2.45l-.18.25.19-.24Zm-223-2.3-.51-.67L87,40l-.17-.25c1.15-.81,2.3-1.6,3.46-2.37l.17.25-.17-.25.5.67-.27-.33.24.35C89.63,38.85,88.48,39.63,87.35,40.43ZM87,40l.06.08-.2-.29Zm3.5-2.31v0Zm213,.22c-1.16-.78-2.33-1.54-3.5-2.29l.22-.35-.15.39.38-.75c1.18.76,2.35,1.52,3.52,2.3h0l0,0ZM94.2,35.83l-.39-.74h0c1.17-.75,2.35-1.48,3.54-2.2h0l.07,0,.18.45.19.3c-1.19.73-2.37,1.46-3.54,2.21l-.22-.35Zm206-.56.17-.38Zm-3.77-1.85q-1.79-1.08-3.6-2.13h0l0,0,.24-.35.14-.39-.12.36.19-.33c1.22.7,2.42,1.42,3.62,2.14l-.22.36h0Zm-3.38-2.53v0l.07-.13Zm-191.77.6-.12-.36-.26-.38,0,0h0c1.21-.7,2.42-1.39,3.65-2.06h0l.08,0,.14.43,0,0,0,0,.11.35-.11-.34.17.31c-1.21.67-2.42,1.35-3.61,2.05h0l-.19-.32Zm-.14-.4Zm3.87-1.71-.22-.35Zm184.25-.11-.07,0h0c-1.23-.67-2.46-1.33-3.7-2h0l-.05,0,.23-.35.14-.39-.12.36.18-.34c1.25.65,2.48,1.31,3.71,2l-.18.34.21-.32-.21.32Zm.13-.4Zm-3.69-2v0l0-.07Zm-177,.57-.19-.37v0l-.25-.38,0,0h0c1.24-.65,2.48-1.28,3.73-1.9h0l.06,0,.14.4.22.36-.21-.32.17.34Q110.54,26.47,108.69,27.43Zm3.53-2.26,0,.06Zm169.64.23-.06,0h0c-1.25-.62-2.51-1.22-3.78-1.81l.18-.39-.21.37.34-.77.05,0h0c1.27.6,2.54,1.2,3.79,1.82L282,25l.21-.32L282,25ZM116.1,23.76l-.13-.4-.22-.35.21.32L115.8,23c1.26-.6,2.53-1.17,3.81-1.74L120,22c-1.27.56-2.54,1.14-3.79,1.73h0Zm-.14-.43,0,0,0-.08Zm158.25-1.49c-1.28-.56-2.56-1.11-3.86-1.64l.17-.39-.21.36.33-.76h0q1.94.81,3.87,1.65h0l.05,0ZM123.77,20.37l-.16-.39.21.37-.35-.76.09.27-.11-.26c1.28-.54,2.58-1.06,3.87-1.57l.16.39h0l.15.39C126.34,19.32,125.05,19.84,123.77,20.37ZM123.6,20l-.2-.37Zm142.87-1.35c-1.31-.5-2.61-1-3.93-1.47l.27-.8-.13.4.13-.4-.1.33.12-.32c1.32.48,2.63,1,3.94,1.48h0l.06,0-.24.42Zm-134.93-1.3-.15-.4.21.37-.35-.76c1.31-.48,2.63-1,4-1.4l0,.13,0-.13h0l.25.81C134.16,16.4,132.84,16.86,131.54,17.34Zm-.16-.39-.2-.37Zm-.11-.33,0-.07h0Zm127.34-.83.11-.4-.13.39c-1.33-.44-2.66-.88-4-1.29l.13-.43-.14.42.24-.8h0c1.34.42,2.68.86,4,1.31ZM139.44,14.64l-.25-.8,0,.07,0-.07c1.33-.42,2.67-.82,4-1.22l.12.41h0l-.11-.4.26.8-.15-.39.12.4c-1.34.39-2.67.79-4,1.21h0ZM250.6,13.28c-1.34-.39-2.68-.76-4-1.11l.11-.4-.13.39.24-.81h0c1.35.36,2.69.74,4,1.12h0Zm-103.14-1-.23-.81.1.31-.09-.31c1.35-.36,2.71-.71,4.07-1.05h0l.11,0v.46l.09.37C150.15,11.59,148.81,11.94,147.46,12.3Zm4.06-1-.1-.41Zm91.11-.11-.1,0h0c-1.36-.33-2.71-.64-4.07-.94h0l.12-.41v0l.09-.37c1.36.3,2.73.61,4.08.94l-.09.37.11-.37-.11.38Zm-4.08-1.4v0l0-.16Zm-83,.56-.1-.41h0v0l-.12-.44h0c1.37-.3,2.73-.59,4.11-.86h.09v.47l.07.36C158.29,9.72,156.93,10,155.58,10.31Zm4.12-.87-.11-.4Zm74.76-.08-.09,0h0c-1.37-.27-2.74-.52-4.11-.76h0l.11-.41v0l.07-.38c1.38.24,2.76.49,4.13.76l-.07.38.1-.37-.1.37Zm-4.13-1.22v0l0-.08Zm-66.56.54-.08-.41h0v0l-.12-.44h.05c1.38-.24,2.76-.47,4.14-.68h.07v.48l.06.36C166.51,8.21,165.14,8.44,163.77,8.68ZM167.94,8l-.11-.41Zm58.27-.07h-.07c-1.38-.21-2.76-.4-4.14-.58l.05-.42V6.5h.07c1.39.18,2.77.37,4.15.58l0,.38.1-.37-.1.37ZM172,7.41V7l-.12-.4L172,7l-.05-.38c1.39-.19,2.78-.35,4.17-.51l0,.39v0l.15.43-.1,0c-1.39.15-2.77.32-4.15.5H172ZM172,7V7Zm4.16-.47Zm41.78.36v0Zm-.05,0c-1.38-.15-2.77-.28-4.16-.4l0-.42V5.61h0c1.4.12,2.79.26,4.18.4h0l.1,0-.14.42v0l-.12.35.12-.35ZM180.28,6.5V6.08l-.12-.4.12.37,0-.39c1.39-.12,2.79-.23,4.19-.32l0,.39v0l.15.43-.12,0h0c-1.38.09-2.76.2-4.13.32h-.05Zm0-.45v0Zm4.18-.29Zm25.09.38v0Zm0,0c-1.39-.08-2.78-.16-4.17-.21V5.09h0v.42l0-.42c1.4,0,2.8.13,4.19.22h0l.12,0-.15.42v0l-.12.36.12-.36ZM188.64,6V5.11h0C190,5.05,191.41,5,192.81,5l0,.84c-1.39,0-2.78.08-4.17.14l0-.42Zm4.19-.14V5h0Zm8.37,0v0c-1.3,0-2.6,0-3.91,0H197V4.92h.28c1.3,0,2.61,0,3.92,0h0Zm-4.2,0V4.92h0Z"></path><path class="cls-1" d="M197.27,350.06c-84.26,0-152.81-68.55-152.81-152.81S113,44.44,197.27,44.44,350.08,113,350.08,197.25,281.53,350.06,197.27,350.06Zm0-304.78c-83.79,0-152,68.17-152,152s68.18,152,152,152,152-68.17,152-152S281.07,45.28,197.27,45.28Z"></path></g><g id="Layer_1" data-name="Layer 1"><g class="cls-2"><rect class="cls-3" x="81.85" y="81.92" width="291.58" height="10.74"></rect><path class="cls-4" d="M155.59,92.65V87.36A2.4,2.4,0,0,0,153.17,85H92a2.39,2.39,0,0,0-2.41,2.36v5.29H81.85V107H373.43V92.65Z"></path><rect class="cls-5" x="81.85" y="106.97" width="291.58" height="179.35"></rect><path class="cls-6" d="M352.21,104.35H111.58a2.83,2.83,0,0,1-2.86-2.79v-3.5a2.83,2.83,0,0,1,2.86-2.79H352.21a2.83,2.83,0,0,1,2.86,2.79v3.5A2.83,2.83,0,0,1,352.21,104.35Z"></path><rect class="cls-7" x="363.08" y="97.78" width="4.82" height="0.52"></rect><rect class="cls-7" x="363.08" y="99.48" width="4.82" height="0.52"></rect><rect class="cls-7" x="363.08" y="101.18" width="4.82" height="0.52"></rect><polygon class="cls-7" points="90.16 103.03 90.55 102.65 87.95 100.11 90.58 97.54 90.19 97.16 87.56 99.73 87.2 100.08 87.17 100.11 90.16 103.03"></polygon><rect class="cls-7" x="87.83" y="99.82" width="6.05" height="0.56"></rect><polygon class="cls-7" points="101.69 103.03 101.3 102.65 103.9 100.11 101.27 97.54 101.66 97.16 104.29 99.73 104.65 100.08 104.68 100.11 101.69 103.03"></polygon><rect class="cls-7" x="97.97" y="99.82" width="6.05" height="0.56"></rect><polygon class="cls-7" points="116.11 98.36 114.64 99.29 115.84 99.53 116.11 98.36"></polygon><path class="cls-7" d="M115.45,100.23a1.67,1.67,0,1,1-.19-1.27l.34-.21a2,2,0,1,0,.22,1.65Z"></path><path class="cls-7" d="M153.16,89.53h0a.17.17,0,0,1-.23,0l-1.86-1.81a.16.16,0,0,1,0-.22h0a.17.17,0,0,1,.23,0l1.86,1.82A.14.14,0,0,1,153.16,89.53Z"></path><path class="cls-7" d="M153.16,89.53h0a.17.17,0,0,1-.23,0l-1.86-1.81a.16.16,0,0,1,0-.22h0a.17.17,0,0,1,.23,0l1.86,1.82A.14.14,0,0,1,153.16,89.53Z"></path><path class="cls-7" d="M153.16,87.5h0a.16.16,0,0,1,0,.22l-1.86,1.81a.17.17,0,0,1-.23,0h0a.15.15,0,0,1,0-.21l1.86-1.82A.17.17,0,0,1,153.16,87.5Z"></path><path class="cls-7" d="M367.34,89.08h0a.27.27,0,0,1-.39,0l-3.29-3.21a.26.26,0,0,1,0-.38h0a.27.27,0,0,1,.39,0l3.29,3.21A.28.28,0,0,1,367.34,89.08Z"></path><path class="cls-7" d="M367.34,89.08h0a.27.27,0,0,1-.39,0l-3.29-3.21a.26.26,0,0,1,0-.38h0a.27.27,0,0,1,.39,0l3.29,3.21A.28.28,0,0,1,367.34,89.08Z"></path><path class="cls-7" d="M367.33,85.49h0a.28.28,0,0,1,0,.38l-3.29,3.21a.27.27,0,0,1-.39,0h0a.26.26,0,0,1,0-.38l3.29-3.21A.27.27,0,0,1,367.33,85.49Z"></path><rect class="cls-7" x="356.04" y="88.7" width="3.72" height="0.61" rx="0.3"></rect></g><polygon class="cls-6" points="312.96 159.99 144.09 160 144.03 277.36 312.9 277.67 312.96 159.99"></polygon><polygon class="cls-7" points="132.92 150.98 134.63 140.7 137.38 140.7 135.67 150.98 132.92 150.98"></polygon><path class="cls-7" d="M145.48,141a7,7,0,0,0-2.47-.43c-2.72,0-4.64,1.4-4.66,3.4,0,1.47,1.37,2.3,2.41,2.79s1.44.82,1.43,1.27c0,.69-.86,1-1.65,1a5.75,5.75,0,0,1-2.59-.54l-.35-.17-.39,2.3a8.43,8.43,0,0,0,3.07.55c2.89,0,4.77-1.38,4.79-3.51,0-1.17-.72-2.06-2.31-2.79-1-.48-1.55-.79-1.54-1.28s.5-.88,1.57-.88a4.86,4.86,0,0,1,2.06.39l.25.12.38-2.23Z"></path><path class="cls-7" d="M150.17,140.69a1.37,1.37,0,0,0-1.43.88L144.66,151h2.91l.57-1.58h3.48L152,151h2.59l-2.26-10.28h-2.11Zm-1.25,6.65c.22-.59,1.09-2.87,1.09-2.87l.37-1,.19.88.63,3Z"></path><path class="cls-7" d="M127.9,147.75l-.24-1.41a8,8,0,0,0-3.8-4.31l2.42,8.95h2.92l4.37-10.28h-2.91Z"></path><path class="cls-8" d="M120.87,140.7v.17a9.43,9.43,0,0,1,6.79,5.47l-1-4.76a1.2,1.2,0,0,0-1.27-.88Z"></path><path class="cls-9" d="M333.43,144.86a9.26,9.26,0,1,1-18.52,0h0a9.26,9.26,0,1,1,18.52,0Z"></path><path class="cls-9" d="M311.69,135.39a9.48,9.48,0,0,0,.05,19,9.16,9.16,0,0,0,6.23-2.47h0a10,10,0,0,0,.94-1H317a10.7,10.7,0,0,1-.69-1h3.27a8.86,8.86,0,0,0,.54-1h-4.35a10.15,10.15,0,0,1-.39-1h5.13a9.57,9.57,0,0,0,.48-3,10.35,10.35,0,0,0-.21-2h-5.66a8.48,8.48,0,0,1,.26-1h5.13c-.12-.35-.25-.69-.4-1h-4.34a9.49,9.49,0,0,1,.54-1h3.27a9.33,9.33,0,0,0-.72-1h-1.83a9.28,9.28,0,0,1,.93-.95,9.07,9.07,0,0,0-6.23-2.47Z"></path><path class="cls-10" d="M315.08,147.27l.12-.85-.25,0c-.35,0-.38-.18-.36-.32l.28-1.75h.52l.12-1H315l.1-.59h-1s-.59,3.32-.59,3.72a.75.75,0,0,0,.79.86A2.62,2.62,0,0,0,315.08,147.27Z"></path><path class="cls-10" d="M315.39,145.64a1.56,1.56,0,0,0,1.7,1.76,2.48,2.48,0,0,0,1-.16l.18-1a3,3,0,0,1-1.05.25c-1.06,0-.87-.81-.87-.81h2a7.27,7.27,0,0,0,.13-.92,1.34,1.34,0,0,0-1.4-1.47C316.12,143.31,315.39,144.4,315.39,145.64Zm1.73-1.43c.56,0,.45.64.45.69h-1.09C316.48,144.84,316.58,144.21,317.12,144.21Z"></path><path class="cls-10" d="M323.36,147.27l.18-1.1a2.37,2.37,0,0,1-.82.25c-.7,0-1-.55-1-1.13,0-1.2.61-1.85,1.28-1.85a1.7,1.7,0,0,1,.9.29l.16-1.07a3.38,3.38,0,0,0-1.11-.25c-1.14,0-2.24,1-2.24,2.91,0,1.26.59,2.09,1.77,2.09A4.41,4.41,0,0,0,323.36,147.27Z"></path><path class="cls-10" d="M309.66,143.33a3.39,3.39,0,0,0-1.2.22l-.14.87a3,3,0,0,1,1.07-.18c.37,0,.64,0,.64.35a.71.71,0,0,1,0,.25l-.43,0c-.85,0-1.74.37-1.75,1.49a1,1,0,0,0,1,1.09,1.3,1.3,0,0,0,1-.46l0,.38h.87l.39-2.78A1.17,1.17,0,0,0,309.66,143.33Zm.21,2.26c0,.17-.11,1-.7,1a.37.37,0,0,1-.39-.38c0-.27.15-.6.87-.6A.57.57,0,0,1,309.87,145.59Z"></path><path class="cls-10" d="M311.93,147.38a1.27,1.27,0,0,0,1.49-1.28c0-1.26-1.17-1-1.17-1.51,0-.25.19-.33.54-.33l.67,0,.13-.89a4.5,4.5,0,0,0-.91-.08c-.73,0-1.47.3-1.47,1.32s1.23,1,1.23,1.52-.34.36-.61.36a2.69,2.69,0,0,1-.87-.16l-.13.88A2.78,2.78,0,0,0,311.93,147.38Z"></path><path class="cls-10" d="M331.53,142.52l-.21,1.35a1.3,1.3,0,0,0-.95-.52c-.91,0-1.66,1.11-1.66,2.39,0,.83.4,1.64,1.22,1.64a1.23,1.23,0,0,0,.92-.42l0,.36h1l.75-4.8Zm-.46,2.64c0,.53-.26,1.24-.79,1.24-.36,0-.52-.31-.52-.78,0-.79.34-1.3.78-1.3S331.07,144.57,331.07,145.16Z"></path><path class="cls-10" d="M304.32,147.33l.6-3.62.09,3.62h.68l1.26-3.62-.56,3.62h1l.78-4.8h-1.56l-1,2.94,0-2.94h-1.44l-.79,4.8Z"></path><path class="cls-10" d="M319.51,147.33c.28-1.67.34-3,1-2.78a4.09,4.09,0,0,1,.37-1.17h-.19c-.44,0-.77.62-.77.62l.09-.57h-.92l-.62,3.91Z"></path><path class="cls-10" d="M325.64,143.32a3.39,3.39,0,0,0-1.2.22l-.14.87a3.21,3.21,0,0,1,1.08-.17c.36,0,.63,0,.63.34a.75.75,0,0,1,0,.26l-.43,0c-.85,0-1.74.38-1.75,1.5a1,1,0,0,0,1,1.09,1.29,1.29,0,0,0,1-.47l0,.39h.87l.39-2.78A1.17,1.17,0,0,0,325.64,143.32Zm.21,2.26c0,.17-.11,1-.7,1a.36.36,0,0,1-.38-.38c0-.28.14-.61.86-.61A1,1,0,0,1,325.85,145.58Z"></path><path class="cls-10" d="M327.78,147.33c.29-1.67.35-3,1-2.78a3.87,3.87,0,0,1,.37-1.17H329c-.44,0-.77.62-.77.62l.09-.57h-.92l-.62,3.91Z"></path><path class="cls-9" d="M217.18,141.45H214.4a.55.55,0,0,0-.41.34l-1.15,7.36a.22.22,0,0,0,.25.25h1.47a.22.22,0,0,0,.25-.25l.32-2.09a.38.38,0,0,1,.41-.34h.9a2.87,2.87,0,0,0,3.19-2.76,2.2,2.2,0,0,0-.32-1.84,3.25,3.25,0,0,0-2.13-.67m.33,2.76c-.17,1-.9,1-1.64,1h-.49l.33-1.93c0-.08.08-.17.24-.17h.17c.49,0,1,0,1.22.34.17.08.17.33.17.75"></path><path class="cls-9" d="M197.15,141.46h-2.78a.54.54,0,0,0-.41.33l-1.15,7.36c0,.17.08.25.24.25h1.31a.52.52,0,0,0,.41-.33l.33-2a.37.37,0,0,1,.41-.33h.9A2.87,2.87,0,0,0,199.6,144a2.22,2.22,0,0,0-.33-1.84,3.07,3.07,0,0,0-2.12-.67m.32,2.76c-.16,1-.9,1-1.63,1h-.41l.32-1.92c0-.09.09-.17.25-.17h.16c.49,0,1,0,1.23.34a.92.92,0,0,1,.08.75"></path><path class="cls-9" d="M205.57,144.13h-1.31c-.08,0-.25.09-.25.17l-.08.42-.08-.17a1.89,1.89,0,0,0-1.55-.58,3.16,3.16,0,0,0-3,2.76,2.51,2.51,0,0,0,.49,2.09,2,2,0,0,0,1.71.67,2.6,2.6,0,0,0,1.89-.76l-.09.42a.22.22,0,0,0,.25.25h1.23c.16,0,.32-.17.4-.33l.74-4.69c-.08-.08-.24-.25-.32-.25m-1.89,2.68a1.59,1.59,0,0,1-1.55,1.34,1.27,1.27,0,0,1-.9-.34,1.83,1.83,0,0,1-.24-1,1.51,1.51,0,0,1,1.47-1.34,1.47,1.47,0,0,1,.9.34,1.48,1.48,0,0,1,.32,1"></path><path class="cls-9" d="M225.53,144.13h-1.31c-.09,0-.25.08-.25.16l-.08.42-.08-.17a1.93,1.93,0,0,0-1.56-.58,3.18,3.18,0,0,0-3,2.76,2.57,2.57,0,0,0,.49,2.09,2.06,2.06,0,0,0,1.72.67,2.58,2.58,0,0,0,1.88-.75l-.08.42a.22.22,0,0,0,.25.25h1.22a.54.54,0,0,0,.41-.34l.74-4.68c-.08-.09-.16-.25-.32-.25m-1.89,2.67a1.58,1.58,0,0,1-1.55,1.34,1.27,1.27,0,0,1-.9-.33,1.78,1.78,0,0,1-.25-1,1.51,1.51,0,0,1,1.48-1.33,1.48,1.48,0,0,1,.9.33,1,1,0,0,1,.32,1"></path><path class="cls-9" d="M212.68,144.13h-1.39a.43.43,0,0,0-.33.17l-1.8,2.84-.81-2.67a.39.39,0,0,0-.41-.26h-1.31c-.16,0-.25.16-.25.33l1.47,4.43-1.39,2c-.08.17,0,.42.17.42h1.3a.4.4,0,0,0,.33-.17l4.5-6.61c.25-.25.08-.5-.08-.5"></path><path class="cls-9" d="M227.08,141.7l-1.15,7.53a.22.22,0,0,0,.25.25h1.14a.54.54,0,0,0,.41-.33l1.15-7.37c0-.17-.08-.25-.24-.25h-1.31c-.08-.08-.17,0-.25.17"></path><path class="cls-9" d="M186.77,139a4,4,0,0,0-3.11-1h-4.09a.71.71,0,0,0-.57.5l-1.64,11a.39.39,0,0,0,.33.42h2.53l.66-4.09v.16a.71.71,0,0,1,.57-.5h1.23c2.37,0,4.16-1,4.74-3.76v-.25h0a3,3,0,0,0-.65-2.43"></path><path class="cls-9" d="M187.34,141.38h0v.25c-.58,2.84-2.38,3.76-4.75,3.76h-1.22a.69.69,0,0,0-.57.5L180,151a.3.3,0,0,0,.32.33h2.13a.47.47,0,0,0,.49-.42v-.08l.41-2.59v-.17a.46.46,0,0,1,.49-.42h.33c2,0,3.67-.84,4.08-3.35a3.09,3.09,0,0,0-.4-2.5.83.83,0,0,0-.49-.42"></path><path class="cls-9" d="M186.76,141.13c-.08,0-.16-.09-.24-.09a.32.32,0,0,1-.25-.08,4.35,4.35,0,0,0-1.06-.08H182a.29.29,0,0,0-.24.08.47.47,0,0,0-.25.42l-.65,4.35v.16a.71.71,0,0,1,.57-.5h1.23c2.37,0,4.16-1,4.74-3.76a.3.3,0,0,1,.08-.25.8.8,0,0,0-.41-.17c-.24-.08-.24-.08-.33-.08"></path><polygon class="cls-9" points="260.61 129.41 255.02 129.42 255.02 127.55 260.62 127.55 260.61 129.41"></polygon><polygon class="cls-9" points="203.97 129.44 198.39 129.45 198.39 127.58 203.97 127.58 203.97 129.44"></polygon><polygon class="cls-9" points="197.08 129.45 191.49 129.45 191.49 127.59 197.08 127.58 197.08 129.45"></polygon><polygon class="cls-9" points="214.75 129.44 205.51 129.44 205.51 127.58 214.76 127.57 214.75 129.44"></polygon><polygon class="cls-9" points="190.31 129.45 181.08 129.46 181.08 127.59 190.32 127.59 190.31 129.45"></polygon><polygon class="cls-9" points="179.29 129.46 160.83 129.47 160.83 127.6 179.29 127.59 179.29 129.46"></polygon><polygon class="cls-9" points="253.59 129.42 216.59 129.44 216.59 127.57 253.59 127.55 253.59 129.42"></polygon><polygon class="cls-9" points="158.94 129.47 122.05 129.49 122.05 127.63 158.94 127.6 158.94 129.47"></polygon><rect class="cls-10" x="205.83" y="183.81" width="2.05" height="107.3" transform="translate(-30.85 444.04) rotate(-89.93)"></rect><rect class="cls-10" x="191.19" y="234.43" width="2.05" height="13.98" transform="translate(-49.44 433.33) rotate(-89.93)"></rect><rect class="cls-10" x="166.97" y="226.6" width="2.05" height="29.58" transform="translate(-73.6 409.08) rotate(-89.93)"></rect><rect class="cls-10" x="192.11" y="192.59" width="2.05" height="79.85" transform="translate(-39.59 425.39) rotate(-89.94)"></rect><rect class="cls-10" x="153.22" y="215.34" width="107.3" height="2.05"></rect><rect class="cls-10" x="185.24" y="219.3" width="13.98" height="2.05"></rect><rect class="cls-10" x="153.22" y="219.28" width="29.58" height="2.05"></rect><rect class="cls-10" x="153.22" y="210.4" width="79.85" height="2.05"></rect><polygon class="cls-10" points="275.04 204.56 153.23 204.48 153.23 187.44 275.04 187.49 275.04 204.56"></polygon><polygon class="cls-10" points="244.35 262.93 154.04 262.79 154.04 253.48 244.35 253.61 244.35 262.93"></polygon><polygon class="cls-10" points="243.55 179.59 153.24 179.57 153.24 170.26 243.55 170.27 243.55 179.59"></polygon><polygon class="cls-9" points="212.27 123.96 122.05 124.01 122.06 114.71 212.28 114.64 212.27 123.96"></polygon><path class="cls-11" d="M149.2,216.92h-1.54a4.29,4.29,0,0,1,4.29,4.3v83.27a4.3,4.3,0,0,1-4.29,4.3H24.52a4.28,4.28,0,0,1-1.92-.46,4.3,4.3,0,0,0,3.46,1.75H149.2a4.3,4.3,0,0,0,4.3-4.29V221.22A4.3,4.3,0,0,0,149.2,216.92Z"></path><path class="cls-12" d="M147.66,216.92H24.52a4.29,4.29,0,0,0-4.3,4.3v83.27a4.32,4.32,0,0,0,4.3,4.3H147.66a4.3,4.3,0,0,0,4.29-4.3V221.22A4.29,4.29,0,0,0,147.66,216.92Z"></path><path class="cls-6" d="M39.75,285.48,39,284.13c-.32-.52-.51-.86-.7-1.21h0c-.17.35-.35.68-.66,1.22l-.74,1.34h-.91l1.88-3.1-1.81-3h.92l.81,1.44c.23.4.4.71.57,1h0c.18-.37.33-.65.56-1l.83-1.44h.92l-1.87,3,1.91,3.15Z"></path><path class="cls-6" d="M44.82,285.48,44,284.13c-.32-.52-.51-.86-.7-1.21h0c-.17.35-.35.68-.66,1.22l-.74,1.34H41l1.88-3.1-1.81-3H42l.81,1.44c.23.4.4.71.57,1h0a10.56,10.56,0,0,1,.55-1l.83-1.44h.92l-1.87,3,1.91,3.15Z"></path><path class="cls-6" d="M49.9,285.48l-.8-1.35c-.31-.52-.51-.86-.7-1.21h0c-.18.35-.36.68-.67,1.22L47,285.48h-.91l1.88-3.1-1.8-3h.92l.81,1.44c.22.4.4.71.56,1h0c.17-.37.33-.65.55-1l.83-1.44h.92l-1.87,3,1.91,3.15Z"></path><path class="cls-6" d="M55,285.48l-.8-1.35c-.31-.52-.51-.86-.7-1.21h0c-.18.35-.36.68-.67,1.22l-.73,1.34h-.92l1.88-3.1-1.8-3h.92l.81,1.44c.22.4.4.71.56,1h0c.17-.37.33-.65.55-1l.83-1.44h.92l-1.87,3,1.92,3.15Z"></path><path class="cls-6" d="M66,285.48l-.8-1.35c-.31-.52-.51-.86-.7-1.21h0c-.18.35-.36.68-.67,1.22l-.74,1.34h-.91l1.88-3.1-1.8-3h.92l.81,1.44c.22.4.4.71.56,1h0c.17-.37.33-.65.55-1l.83-1.44h.92l-1.87,3,1.91,3.15Z"></path><path class="cls-6" d="M71.05,285.48l-.79-1.35c-.32-.52-.51-.86-.71-1.21h0c-.18.35-.36.68-.67,1.22l-.73,1.34h-.91l1.87-3.1-1.8-3h.92l.81,1.44c.22.4.4.71.56,1h0c.17-.37.33-.65.55-1l.83-1.44h.92l-1.86,3L72,285.48Z"></path><path class="cls-6" d="M76.12,285.48l-.79-1.35c-.32-.52-.51-.86-.7-1.21h0c-.17.35-.36.68-.66,1.22l-.74,1.34H72.3l1.87-3.1-1.8-3h.92l.81,1.44c.23.4.4.71.56,1h0a10.73,10.73,0,0,1,.56-1l.82-1.44H77l-1.86,3L77,285.48Z"></path><path class="cls-6" d="M81.19,285.48l-.79-1.35c-.32-.52-.51-.86-.7-1.21h0c-.17.35-.35.68-.66,1.22l-.74,1.34h-.91l1.88-3.1-1.81-3h.92l.81,1.44c.23.4.4.71.57,1h0c.18-.37.33-.65.56-1l.83-1.44h.91l-1.86,3,1.91,3.15Z"></path><path class="cls-6" d="M94.13,285.48l-.79-1.35c-.32-.52-.51-.86-.7-1.21h0c-.17.35-.35.68-.66,1.22l-.74,1.34h-.91l1.88-3.1-1.81-3h.92l.81,1.44c.23.4.4.71.57,1h0a10.56,10.56,0,0,1,.55-1l.83-1.44H95l-1.87,3,1.91,3.15Z"></path><path class="cls-6" d="M99.21,285.48l-.8-1.35c-.32-.52-.51-.86-.7-1.21h0c-.18.35-.36.68-.67,1.22l-.74,1.34h-.91l1.88-3.1-1.8-3h.92l.81,1.44c.22.4.4.71.56,1h0a10.56,10.56,0,0,1,.55-1l.83-1.44h.92l-1.87,3,1.91,3.15Z"></path><path class="cls-6" d="M104.28,285.48l-.8-1.35c-.31-.52-.51-.86-.7-1.21h0c-.18.35-.36.68-.67,1.22l-.73,1.34h-.92l1.88-3.1-1.8-3h.92l.81,1.44c.22.4.4.71.56,1h0a10.56,10.56,0,0,1,.55-1l.83-1.44h.92l-1.87,3,1.92,3.15Z"></path><path class="cls-6" d="M109.35,285.48l-.79-1.35c-.32-.52-.51-.86-.71-1.21h0c-.18.35-.36.68-.67,1.22l-.73,1.34h-.91l1.87-3.1-1.8-3h.92l.81,1.44c.23.4.4.71.56,1h0c.17-.37.33-.65.55-1l.83-1.44h.92l-1.86,3,1.91,3.15Z"></path><path class="cls-6" d="M122.29,285.48l-.79-1.35c-.32-.52-.51-.86-.7-1.21h0c-.17.35-.35.68-.66,1.22l-.74,1.34h-.91l1.88-3.1-1.81-3h.92l.81,1.44c.23.4.4.71.57,1h0c.18-.37.33-.65.56-1l.83-1.44h.92l-1.87,3,1.91,3.15Z"></path><path class="cls-6" d="M127.36,285.48l-.79-1.35c-.32-.52-.51-.86-.7-1.21h0c-.17.35-.35.68-.66,1.22l-.74,1.34h-.91l1.88-3.1-1.81-3h.92l.81,1.44c.23.4.4.71.57,1h0c.18-.37.33-.65.56-1l.83-1.44h.92l-1.87,3,1.91,3.15Z"></path><path class="cls-6" d="M132.43,285.48l-.79-1.35c-.32-.52-.51-.86-.7-1.21h0c-.17.35-.35.68-.66,1.22l-.74,1.34h-.91l1.88-3.1-1.8-3h.91l.81,1.44c.23.4.41.71.57,1h0a10.56,10.56,0,0,1,.55-1l.83-1.44h.92l-1.87,3,1.91,3.15Z"></path><path class="cls-6" d="M137.51,285.48l-.8-1.35c-.31-.52-.5-.86-.7-1.21h0c-.18.35-.36.68-.67,1.22l-.74,1.34h-.91l1.88-3.1-1.8-3h.92l.8,1.44c.24.4.41.71.57,1h0c.17-.37.33-.65.55-1l.83-1.44h.92l-1.87,3,1.91,3.15Z"></path><rect class="cls-6" x="36.14" y="294.92" width="73.23" height="2.6"></rect><rect class="cls-13" x="118.9" y="294.92" width="19.5" height="2.6"></rect><rect class="cls-13" x="41.99" y="231.72" width="4.23" height="15.93" transform="translate(-195.59 283.79) rotate(-90)"></rect><rect class="cls-13" x="36.26" y="232" width="4.23" height="4.47" transform="translate(-195.86 272.61) rotate(-90)"></rect><rect class="cls-13" x="41.96" y="232" width="4.23" height="4.47" transform="translate(-190.16 278.31) rotate(-90)"></rect><rect class="cls-13" x="47.72" y="232" width="4.23" height="4.47" transform="translate(-184.4 284.07) rotate(-90)"></rect><rect class="cls-13" x="47.72" y="242.87" width="4.23" height="4.47" transform="translate(-195.27 294.94) rotate(-90)"></rect><rect class="cls-13" x="36.26" y="242.87" width="4.23" height="4.47" transform="translate(-206.73 283.48) rotate(-90)"></rect><rect class="cls-13" x="41.96" y="242.87" width="4.23" height="4.47" transform="translate(-201.03 289.18) rotate(-90)"></rect><rect class="cls-6" x="112.81" y="232.36" width="14.65" height="14.65" rx="1.54" transform="translate(-134.3 155.15) rotate(-45)"></rect><rect class="cls-13" x="121.73" y="232.36" width="14.65" height="14.65" rx="1.54" transform="translate(-131.69 161.46) rotate(-45)"></rect><path class="cls-9" d="M277.13,136.73h.52a2.67,2.67,0,0,1,.48,0,1.25,1.25,0,0,1,.4.13,1.3,1.3,0,0,1,.58.58,1,1,0,0,1,.13.4,2.67,2.67,0,0,1,0,.48,1.85,1.85,0,0,1,0,.23v13.65a1.93,1.93,0,0,1,0,.24,2.63,2.63,0,0,1,0,.47,1.23,1.23,0,0,1-.13.41,1.35,1.35,0,0,1-.58.58,1.7,1.7,0,0,1-.4.13,3.89,3.89,0,0,1-.47,0H253.34a3.88,3.88,0,0,1-.48,0,1.7,1.7,0,0,1-.4-.13,1.42,1.42,0,0,1-.34-.25,1.27,1.27,0,0,1-.24-.33,1.23,1.23,0,0,1-.13-.41,3.56,3.56,0,0,1-.05-.47V138.37a4.12,4.12,0,0,1,.05-.48,1.17,1.17,0,0,1,.13-.4,1.3,1.3,0,0,1,.58-.58,1.34,1.34,0,0,1,.4-.13,2.59,2.59,0,0,1,.48,0h23.79m0-.38h-23.8a3.29,3.29,0,0,0-.54,0,1.72,1.72,0,0,0-.5.16,1.7,1.7,0,0,0-.75.75,1.85,1.85,0,0,0-.17.5,3.27,3.27,0,0,0,0,.54,1.93,1.93,0,0,0,0,.24v13.65a2.09,2.09,0,0,0,0,.25,3.15,3.15,0,0,0,0,.53,2.35,2.35,0,0,0,.17.51,1.63,1.63,0,0,0,.75.74,1.74,1.74,0,0,0,.5.17,4.93,4.93,0,0,0,.54.05h24.33a4.93,4.93,0,0,0,.54-.05,1.85,1.85,0,0,0,.5-.17,1.63,1.63,0,0,0,.75-.74,2.35,2.35,0,0,0,.17-.51,3.15,3.15,0,0,0,0-.53,2.09,2.09,0,0,0,0-.25V138.6c0-.08,0-.16,0-.24a4.9,4.9,0,0,0,0-.54,1.85,1.85,0,0,0-.17-.5,1.75,1.75,0,0,0-.75-.75,1.82,1.82,0,0,0-.5-.16,3.29,3.29,0,0,0-.54,0h-.53Z"></path><path class="cls-9" d="M259.44,141.8a1.66,1.66,0,0,0,.39-1.2,1.67,1.67,0,0,0-1.1.57,1.53,1.53,0,0,0-.4,1.16A1.38,1.38,0,0,0,259.44,141.8Zm1.09,2.79a1.68,1.68,0,0,1,.81-1.43,1.75,1.75,0,0,0-1.37-.75c-.59,0-1.14.35-1.44.35s-.75-.34-1.24-.33a1.85,1.85,0,0,0-1.55.94,3.89,3.89,0,0,0,.48,3.78c.31.46.69,1,1.18.95s.66-.31,1.23-.31.74.31,1.24.3.83-.46,1.15-.92a3.66,3.66,0,0,0,.51-1.07,1.64,1.64,0,0,1-1-1.51Zm6.08-2.79a1.82,1.82,0,0,0-.73-.43,3.54,3.54,0,0,0-1-.14,6.45,6.45,0,0,0-.76,0c-.21,0-.43,0-.64.09h-.06V148H264v-2.81a3.78,3.78,0,0,0,.7.05,3.23,3.23,0,0,0,1-.13,2,2,0,0,0,.77-.4,1.9,1.9,0,0,0,.52-.67,2.19,2.19,0,0,0,.19-.92,2.13,2.13,0,0,0-.14-.78,1.82,1.82,0,0,0-.38-.58Zm-.56,2.55a2,2,0,0,1-1.32.39h-.43a1.7,1.7,0,0,1-.31-.06v-2.84l.3,0,.53,0a2.74,2.74,0,0,1,.7.09,1.54,1.54,0,0,1,.53.26,1.09,1.09,0,0,1,.35.44,1.56,1.56,0,0,1,.12.64,1.43,1.43,0,0,1-.47,1.15Zm4.72,3.07c0-.19,0-.38,0-.57V145a3.79,3.79,0,0,0-.06-.67,1.7,1.7,0,0,0-.26-.62,1.34,1.34,0,0,0-.51-.46,1.74,1.74,0,0,0-.84-.18,2.84,2.84,0,0,0-.72.1,2.3,2.3,0,0,0-.67.32l-.05,0,.2.49.08,0a2,2,0,0,1,.53-.26,2.8,2.8,0,0,1,.58-.09,1.11,1.11,0,0,1,.6.14.89.89,0,0,1,.33.34,1.15,1.15,0,0,1,.15.44,3.17,3.17,0,0,1,0,.41V145a3.76,3.76,0,0,0-2.08.45,1.5,1.5,0,0,0-.74,1.34,1.41,1.41,0,0,0,.09.49,1.16,1.16,0,0,0,.27.44,1.13,1.13,0,0,0,.45.31,1.54,1.54,0,0,0,.63.12,1.77,1.77,0,0,0,1.29-.52l.12-.13h0l.06.55h.58V148a5,5,0,0,1-.06-.54Zm-.62-.95a1,1,0,0,1,0,.26,1.31,1.31,0,0,1-.81.81,1.55,1.55,0,0,1-.48.07,1.26,1.26,0,0,1-.33-.05.92.92,0,0,1-.27-.16,1.07,1.07,0,0,1-.19-.28,1.21,1.21,0,0,1-.07-.41.88.88,0,0,1,.21-.62,1.25,1.25,0,0,1,.54-.37,2.74,2.74,0,0,1,.74-.17c.23,0,.47,0,.7,0v.95Zm4.76-3.29-1.14,3.1c-.07.18-.14.37-.2.55s-.05.18-.08.26h0l-.09-.27c-.06-.18-.12-.36-.19-.53L272,143.18h-.66l1.75,4.48a.67.67,0,0,1,.05.17.46.46,0,0,1-.06.18,2.83,2.83,0,0,1-.36.69,4,4,0,0,1-.39.46,1.94,1.94,0,0,1-.4.32,3.64,3.64,0,0,1-.39.2l-.06,0,.21.52.06,0,.32-.14a2.2,2.2,0,0,0,.52-.37,2.32,2.32,0,0,0,.44-.5,6,6,0,0,0,.39-.64c.12-.24.25-.51.37-.81s.25-.64.38-1l1.41-3.56Z"></path></g></svg> 