<?xml version="1.0" encoding="UTF-8"?>
<svg width="48px" height="48px" viewBox="0 0 48 48" version="1.1" xmlns="http://www.w3.org/2000/svg" xmlns:xlink="http://www.w3.org/1999/xlink">
    <title>icons / policy</title>
    <defs>
        <linearGradient x1="50%" y1="0%" x2="50%" y2="100%" id="linearGradient-1">
            <stop stop-color="#002F57" offset="0%"></stop>
            <stop stop-color="#0075D7" offset="99.9918051%"></stop>
        </linearGradient>
        <linearGradient x1="50%" y1="0%" x2="50%" y2="100%" id="linearGradient-2">
            <stop stop-color="#005E91" offset="0%"></stop>
            <stop stop-color="#003058" offset="100%"></stop>
        </linearGradient>
        <linearGradient x1="50%" y1="0%" x2="50%" y2="100%" id="linearGradient-3">
            <stop stop-color="#B03478" offset="0%"></stop>
            <stop stop-color="#9E79BB" offset="99.9918051%"></stop>
        </linearGradient>
        <linearGradient x1="50%" y1="0%" x2="50%" y2="100%" id="linearGradient-4">
            <stop stop-color="#002F57" offset="0%"></stop>
            <stop stop-color="#0075D7" offset="99.9918051%"></stop>
        </linearGradient>
        <linearGradient x1="50%" y1="0%" x2="50%" y2="100%" id="linearGradient-5">
            <stop stop-color="#B03478" offset="0%"></stop>
            <stop stop-color="#9E79BB" offset="99.9918051%"></stop>
        </linearGradient>
    </defs>
    <g id="icons-/-policy" stroke="none" stroke-width="1" fill="none" fill-rule="evenodd">
        <g id="policy" transform="translate(2.000000, 4.000000)" fill-rule="nonzero">
            <path d="M39.6328475,0 L10.9837444,0 C8.49740753,0 6.47456556,2.00392377 6.47456556,4.45908072 L6.2899383,29.6860987 L0.698920987,29.6860987 C0.302690583,29.6860987 0,30.036435 0,30.4326654 L0,33.9044983 C0,37.1545684 2.60089686,39.81257 5.73991031,39.95831 L5.73991031,40 L29.8654709,40 L29.8654709,39.9530549 C30.044843,39.960412 30.1534474,40 30.2767657,40 L30.2939322,40 C33.6417461,39.9803812 36.3403867,37.2516116 36.32287,33.9037977 L36.32287,11.838565 L43.6060117,11.838565 C44.0022422,11.838565 44.3049402,11.4798206 44.3049402,11.0839406 L44.3049402,4.71377525 C44.3094871,2.12478978 42.221833,0.0185678027 39.6328475,0 Z M6.05381166,38.5650224 L6.04890691,38.5650224 C3.49670682,38.5650224 1.43497758,36.4556474 1.43497758,33.9037977 L1.43497758,31.1210762 L24.2152466,31.1210762 L24.2152466,33.8918862 C24.2096413,35.5069367 24.8476037,37.0575252 25.9879484,38.201023 C26.1091648,38.32294 26.2359865,38.3856502 26.3656109,38.5650224 L6.05381166,38.5650224 Z M34.8878924,33.903097 C34.8878924,36.4556474 32.8461323,38.5650224 30.2928812,38.5650224 L30.278167,38.5650224 C27.7123039,38.5464546 25.6442685,36.4580997 25.6502242,33.8922366 L25.6502242,30.4326654 C25.6523263,30.0308296 25.3345712,29.7001121 24.9327354,29.6860987 L7.72491587,29.6860987 L7.90954314,4.46398547 C7.90954314,2.79533354 9.28846691,1.43497758 10.9837444,1.43497758 L36.2454457,1.43497758 C35.4277606,2.33183857 34.8878924,3.46657794 34.8878924,4.73304377 L34.8878924,33.903097 Z M42.8699916,4.72638735 L42.8699916,10.4035874 L36.32287,10.4035874 L36.32287,4.73164233 C36.32287,2.93581839 37.816704,1.43497758 39.6118274,1.43497758 L39.6317965,1.43497758 C41.4314743,1.45284475 42.8783632,2.92110422 42.8699916,4.72113229 L42.8699916,4.72638735 Z" id="Shape" stroke="url(#linearGradient-2)" stroke-width="0.5" fill="url(#linearGradient-1)"></path>
            <path d="M16.8480241,17.660454 L20.5472253,20.1895319 C20.7886071,20.3559417 21.1077634,20.3559417 21.3491452,20.1895319 L25.0371356,17.6611547 C26.3183156,16.7870656 27.264574,14.9597113 27.264574,13.4101738 L27.264574,8.29316143 C27.2722814,8.02270179 27.1230381,7.77186099 26.8820067,7.64889291 L21.2496497,4.87843327 C21.05206,4.7803391 20.8201373,4.7803391 20.6225476,4.87843327 L15.0007006,7.64118556 C14.7596692,7.76415354 14.6107763,8.01499444 14.6188341,8.28545399 L14.6188341,13.4101738 C14.6188341,14.9597113 15.5671945,16.7870656 16.8480241,17.660454 Z M16.0538117,8.73318386 L20.941704,6.32146861 L25.8295964,8.73984027 L25.8295964,13.4101738 C25.8295964,14.4909613 25.1212163,15.8656811 24.2275084,16.4749159 L20.933296,18.7279288 L17.6520459,16.4752663 C16.758338,15.8653308 16.0538117,14.4909613 16.0538117,13.4101738 L16.0538117,8.73318386 Z" id="Shape" fill="url(#linearGradient-3)"></path>
            <path d="M19.728139,14.4934136 C19.8619675,14.6300448 20.044843,14.7074691 20.2361266,14.7085202 L20.2378784,14.7085202 C20.4284613,14.7078196 20.6109865,14.6314462 20.7451654,14.4962163 L23.5993553,11.6409753 C23.8799748,11.3607063 23.8799748,10.9059697 23.5997057,10.6257006 C23.319787,10.3450813 22.8650504,10.3450813 22.5847813,10.6253503 L20.2403308,12.9694507 L19.3031811,12.0231923 C19.023963,11.7415219 18.5695768,11.7394198 18.2879064,12.0186378 C18.006236,12.297856 18.0044843,12.7522422 18.283352,13.0339126 L19.728139,14.4934136 Z" id="Path" stroke="url(#linearGradient-4)" stroke-width="0.5" fill="url(#linearGradient-4)"></path>
            <path d="M29.8654709,22.2421525 L12.6457399,22.2421525 C12.2495095,22.2421525 11.9282511,22.5634109 11.9282511,22.9596413 C11.9282511,23.3558717 12.2495095,23.67713 12.6457399,23.67713 L29.8654709,23.67713 C30.2617013,23.67713 30.5829596,23.3558717 30.5829596,22.9596413 C30.5829596,22.5634109 30.2617013,22.2421525 29.8654709,22.2421525 Z" id="Path" fill="url(#linearGradient-5)"></path>
            <path d="M29.8654709,25.5605381 L12.6457399,25.5605381 C12.2495095,25.5605381 11.9282511,25.8817965 11.9282511,26.2780269 C11.9282511,26.6742573 12.2495095,26.9955157 12.6457399,26.9955157 L29.8654709,26.9955157 C30.2617013,26.9955157 30.5829596,26.6742573 30.5829596,26.2780269 C30.5829596,25.8817965 30.2617013,25.5605381 29.8654709,25.5605381 Z" id="Path" fill="url(#linearGradient-5)"></path>
        </g>
    </g>
</svg>