<?xml version="1.0" encoding="UTF-8"?>
<svg width="46px" height="43px" viewBox="0 0 46 43" version="1.1" xmlns="http://www.w3.org/2000/svg" xmlns:xlink="http://www.w3.org/1999/xlink">
    <title>40AE26EE-2966-4DBD-84D9-7F8E4E40B608</title>
    <defs>
        <linearGradient x1="50%" y1="0%" x2="50%" y2="100%" id="linearGradient-1">
            <stop stop-color="#002F57" offset="0%"></stop>
            <stop stop-color="#0075D7" offset="99.9918051%"></stop>
        </linearGradient>
        <linearGradient x1="50%" y1="0%" x2="50%" y2="100%" id="linearGradient-2">
            <stop stop-color="#B03478" offset="0%"></stop>
            <stop stop-color="#9E79BB" offset="99.9918051%"></stop>
        </linearGradient>
        <linearGradient x1="50%" y1="0%" x2="50%" y2="100%" id="linearGradient-3">
            <stop stop-color="#002F57" offset="0%"></stop>
            <stop stop-color="#0075D7" offset="99.9918051%"></stop>
        </linearGradient>
        <linearGradient x1="50%" y1="0%" x2="50%" y2="100%" id="linearGradient-4">
            <stop stop-color="#B03478" offset="0%"></stop>
            <stop stop-color="#9E79BB" offset="99.9918051%"></stop>
        </linearGradient>
    </defs>
    <g id="High-fidelity" stroke="none" stroke-width="1" fill="none" fill-rule="evenodd">
        <g id="Digital-River---Terms---Landing" transform="translate(-783.000000, -487.000000)" fill-rule="nonzero">
            <g id="Benefits" transform="translate(-2.000000, 414.000000)">
                <g id="cards" transform="translate(340.000000, 40.000000)">
                    <g id="elements-/-card-/-icon+h3+p-copy" transform="translate(403.000000, 0.000000)">
                        <g id="icons-/-folder" transform="translate(42.000000, 33.000000)">
                            <g id="policy" transform="translate(1.916667, 3.583333)">
                                <path d="M37.9814789,0 L10.5260884,0 C8.14334889,0 6.204792,1.79518171 6.204792,3.99459314 L6.02785753,26.5937967 L0.669799279,26.5937967 C0.290078475,26.5937967 0,26.9076397 0,27.2625961 L0,30.3727797 C0,33.2843009 2.49252616,35.6654273 5.50074738,35.795986 L5.50074738,35.8333333 L28.6210762,35.8333333 L28.6210762,35.7912783 C28.7929746,35.7978691 28.8970537,35.8333333 29.0152338,35.8333333 L29.031685,35.8333333 C32.2400067,35.8157581 34.8262039,33.3712354 34.809417,30.3721521 L34.809417,10.6053812 L41.7890946,10.6053812 C42.1688154,10.6053812 42.458901,10.284006 42.458901,9.92936348 L42.458901,4.22275699 C42.4632585,1.90345751 40.46259,0.0166336566 37.9814789,0 Z M5.80156951,34.5478326 L5.79686912,34.5478326 C3.3510107,34.5478326 1.37518685,32.6581842 1.37518685,30.3721521 L1.37518685,27.8792975 L23.206278,27.8792975 L23.206278,30.3614814 C23.2009062,31.8082974 23.8122869,33.1973663 24.9051172,34.2217497 C25.021283,34.3309671 25.1428204,34.387145 25.2670438,34.5478326 L5.80156951,34.5478326 Z M33.4342302,30.3715244 C33.4342302,32.6581842 31.4775434,34.5478326 29.0306778,34.5478326 L29.0165767,34.5478326 C26.5576245,34.5311989 24.5757573,32.660381 24.5814649,30.3617953 L24.5814649,27.2625961 C24.5834793,26.9026182 24.2789641,26.6063504 23.8938714,26.5937967 L7.40304438,26.5937967 L7.57997884,3.99898698 C7.57997884,2.50415297 8.90144745,1.28550075 10.5260884,1.28550075 L34.7352187,1.28550075 C33.9516039,2.08893871 33.4342302,3.10547607 33.4342302,4.24001837 L33.4342302,30.3715244 Z M41.083742,4.23405534 L41.083742,9.31988042 L34.809417,9.31988042 L34.809417,4.23876292 C34.809417,2.63000397 36.241008,1.28550075 37.9613345,1.28550075 L37.9804716,1.28550075 C39.7051628,1.30150676 41.0917648,2.61682253 41.083742,4.22934767 L41.083742,4.23405534 Z" id="Shape" stroke="url(#linearGradient-1)" stroke-width="0.5" fill="url(#linearGradient-1)"></path>
                                <path d="M16.1460231,15.8208234 L19.6910909,18.0864557 C19.9224151,18.2355311 20.2282733,18.2355311 20.4595975,18.0864557 L23.9939216,15.8214511 C25.2217191,15.0384129 26.1285501,13.401408 26.1285501,12.0132807 L26.1285501,7.42929045 C26.1359364,7.18700369 25.9929115,6.96229213 25.7619231,6.85213324 L20.3642476,4.37026314 C20.1748908,4.28238711 19.9526316,4.28238711 19.7632748,4.37026314 L14.3756714,6.84522873 C14.144683,6.95538755 14.001994,7.18009919 14.009716,7.42238587 L14.009716,12.0132807 C14.009716,13.401408 14.9185614,15.0384129 16.1460231,15.8208234 Z M15.3849028,7.8234772 L20.069133,5.6629823 L24.7533632,7.82944024 L24.7533632,12.0132807 C24.7533632,12.9814862 24.074499,14.213006 23.2180289,14.7587788 L20.0610753,16.7771029 L16.916544,14.7590927 C16.0600739,14.2126921 15.3849028,12.9814862 15.3849028,12.0132807 L15.3849028,7.8234772 Z" id="Shape" fill="url(#linearGradient-2)"></path>
                                <path d="M18.9061332,12.983683 C19.0343856,13.1060818 19.2096413,13.1754411 19.3929547,13.1763827 L19.3946335,13.1763827 C19.5772755,13.175755 19.7521954,13.1073372 19.8807835,12.9861938 L22.6160489,10.4283737 C22.8849758,10.1772994 22.8849758,9.76993118 22.6163847,9.51885681 C22.3481292,9.26746862 21.91234,9.26746862 21.6437488,9.51854299 L19.3969836,11.6184662 L18.4988819,10.7707764 C18.2312979,10.5184467 17.7958444,10.5165636 17.5259103,10.7666964 C17.2559761,11.0168293 17.2542975,11.4238836 17.5215457,11.6762133 L18.9061332,12.983683 Z" id="Path" stroke="url(#linearGradient-3)" stroke-width="0.5" fill="url(#linearGradient-3)"></path>
                                <path d="M28.6210762,19.9252616 L12.1188341,19.9252616 C11.7391133,19.9252616 11.4312407,20.2130556 11.4312407,20.568012 C11.4312407,20.9229684 11.7391133,21.2107623 12.1188341,21.2107623 L28.6210762,21.2107623 C29.000797,21.2107623 29.3086697,20.9229684 29.3086697,20.568012 C29.3086697,20.2130556 29.000797,19.9252616 28.6210762,19.9252616 Z" id="Path" fill="url(#linearGradient-4)"></path>
                                <path d="M28.6210762,22.8979821 L12.1188341,22.8979821 C11.7391133,22.8979821 11.4312407,23.185776 11.4312407,23.5407324 C11.4312407,23.8956888 11.7391133,24.1834828 12.1188341,24.1834828 L28.6210762,24.1834828 C29.000797,24.1834828 29.3086697,23.8956888 29.3086697,23.5407324 C29.3086697,23.185776 29.000797,22.8979821 28.6210762,22.8979821 Z" id="Path" fill="url(#linearGradient-4)"></path>
                            </g>
                        </g>
                    </g>
                </g>
            </g>
        </g>
    </g>
</svg>