<?xml version="1.0" encoding="UTF-8"?>
<svg width="242px" height="290px" viewBox="0 0 242 290" version="1.1" xmlns="http://www.w3.org/2000/svg" xmlns:xlink="http://www.w3.org/1999/xlink">
    <title>2FBC2516-0F46-4F83-A165-C1A50CC522CC</title>
    <g id="⏹️-Product-Wireframe" stroke="none" stroke-width="1" fill="none" fill-rule="evenodd">
        <g id="DR---Global-Seller-Services" transform="translate(-998.000000, -3505.000000)" fill-rule="nonzero">
            <g id="Privacy" transform="translate(998.000000, 3505.000000)">
                <path d="M96.6847302,175 C95.3385016,175 93.5435301,174.552239 92.1973014,173.208957 L61.6827858,142.761224 C59.4390714,140.52242 59.4390714,136.492573 61.6827858,134.253769 C63.9265002,132.014965 67.9651861,132.014965 70.2089005,134.253769 L96.2359873,160.223894 L182.843363,79.6269542 C185.087077,77.3881503 189.125763,77.3881503 191.369477,80.074715 C193.613192,82.3135189 193.613192,86.3433659 190.920734,88.5821698 L100.723416,173.656718 C99.3771875,174.552239 98.0309588,175 96.6847302,175 Z" id="Path" fill="#B03478"></path>
                <path d="M121,290 C120.103704,290 119.207407,289.552469 118.311111,289.104938 C45.262963,250.617284 0,175.87963 0,93.5339506 L0,5.81790123 C0,2.68518519 2.68888889,0 5.82592593,0 L235.725926,0 C238.862963,0 242,2.68518519 242,5.81790123 L242,93.5339506 C242,175.87963 196.737037,250.617284 123.688889,289.104938 C123.240741,289.552469 122.344444,290 121,290 Z M12.1,12.0833333 L12.1,93.9814815 C12.1,170.509259 53.7777778,240.771605 121,277.469136 C188.222222,240.771605 229.9,170.95679 229.9,93.9814815 L229.9,12.0833333 L12.1,12.0833333 Z" id="Shape" fill="#003058"></path>
            </g>
        </g>
    </g>
</svg>