<?xml version="1.0" encoding="UTF-8"?>
<svg width="117px" height="117px" viewBox="0 0 117 117" version="1.1" xmlns="http://www.w3.org/2000/svg" xmlns:xlink="http://www.w3.org/1999/xlink">
    <title>quality</title>
    <g id="Symbols" stroke="none" stroke-width="1" fill="none" fill-rule="evenodd">
        <g id="quality">
            <path d="M71.4584038,47.5179475 L53.9211359,64.0822425 L45.5045398,55.4233529 C44.5714738,54.4627323 43.0350507,54.4408784 42.0753799,55.3739444 C41.1147594,56.3079602 41.0929054,57.8434332 42.0259714,58.8040541 L52.120566,69.1665962 C53.0583825,70.1101141 54.573902,70.1424197 55.5506757,69.2388092 L74.8400548,51.0449745 C75.3084881,50.6031461 75.5821367,49.9931377 75.60019,49.3498732 C75.6182432,48.7066089 75.3797508,48.082348 74.9369722,47.6148649 C73.9982053,46.6390413 72.4503799,46.5962838 71.4584038,47.5179475 L71.4584038,47.5179475 Z" id="Path" fill="#B03478" fill-rule="nonzero"></path>
            <path d="M58.4448903,22.0258656 C38.402027,22.0258656 22.1047297,38.3231629 22.1047297,58.3660262 C22.1047297,78.4098394 38.402027,94.7071367 58.4448903,94.7071367 C78.4887035,94.7071367 94.7860008,78.4098394 94.7860008,58.3660262 C94.7860008,38.3231629 78.4887035,22.0258656 58.4448903,22.0258656 Z M58.4448903,89.8422718 C41.0777027,89.8422718 26.9695946,75.7094595 26.9695946,58.3660262 C26.9695946,41.022593 41.0777027,26.8907305 58.4448903,26.8907305 C75.8291809,26.8907305 89.9211359,40.9826858 89.9211359,58.3660262 C89.9211359,75.7493664 75.8291809,89.8422718 58.4448903,89.8422718 Z" id="Shape" fill="#FFFFFF"></path>
            <path d="M108.456081,44.9876479 L109.258974,30.5631336 C109.315034,29.5949114 108.78864,28.6855998 107.921136,28.2523228 L95.0777027,21.7579181 L88.5832981,8.91448492 C88.1414696,8.05458186 87.2378589,7.53103897 86.2724873,7.57664708 L71.8232687,8.35578535 L59.7827282,0.400971405 C58.9712838,-0.133973757 57.9194467,-0.133973757 57.1070525,0.400971405 L45.0665119,8.35578535 L30.6429475,7.55289268 C29.6737755,7.49588254 28.7654137,8.02227624 28.3321367,8.89073051 L21.8367822,21.7341637 L8.99429886,28.2285684 C8.13344595,28.6694467 7.61085292,29.5730574 7.65646103,30.5393792 L8.45840384,44.9638935 L0.504539757,57.004434 C-0.0304054054,57.8158784 -0.0304054054,58.8677154 0.504539757,59.6801097 L8.43464943,71.7444046 L7.63175676,86.1689189 C7.57569673,87.1371411 8.10114032,88.0464527 8.96959459,88.4797297 L21.8130278,94.9741344 L28.3074324,107.817568 C28.7483108,108.67842 29.6519215,109.201014 30.6182432,109.155405 L45.0427575,108.352513 L57.0832981,116.306377 C57.8899917,116.858425 58.9522804,116.858425 59.7589738,116.306377 L71.7995143,108.352513 L86.2240286,109.155405 C87.1922508,109.211465 88.1006123,108.685072 88.5348394,107.817568 L95.029244,94.9741344 L107.872677,88.4797297 C108.73258,88.0379012 109.256123,87.1352406 109.210515,86.1689189 L108.407622,71.7444046 L116.361486,59.7038641 C116.896432,58.8924197 116.896432,57.8396325 116.361486,57.0281884 L108.456081,44.9876479 Z M103.931377,69.75 C103.634924,70.1851772 103.497149,70.7087204 103.542758,71.2341637 L104.296242,84.8795398 L92.1587838,91.0090795 C91.6960515,91.2409205 91.3207349,91.6171876 91.0888935,92.0799197 L84.9584038,104.217378 L71.3130278,103.463893 C70.790435,103.44489 70.2744932,103.579814 69.8288641,103.852513 L58.4448903,111.369299 L47.0618664,103.852513 C46.6665962,103.585515 46.2010135,103.441089 45.7240286,103.439189 L45.602407,103.439189 L31.9560811,104.193623 L25.8265413,92.0552154 C25.5947001,91.5924831 25.2193836,91.2171663 24.7557011,90.9853251 L12.593539,84.8795398 L13.347973,71.2341637 C13.3669764,70.7115709 13.2311021,70.1956292 12.9584038,69.75 L5.44256757,58.3660262 L12.9584038,46.9820525 C13.2558066,46.5478251 13.3935811,46.0233319 13.347973,45.4988386 L12.593539,31.8525127 L24.7319467,25.722973 C25.1946791,25.4911318 25.5699958,25.115815 25.8018371,24.6530826 L31.9313768,12.5146749 L45.5777027,13.2691089 C46.0993454,13.2871622 46.6152872,13.1522381 47.0618664,12.8795398 L58.4448903,5.36370349 L69.8288641,12.8795398 C70.2640413,13.1769426 70.7885346,13.314717 71.3130278,13.2691089 L84.9584038,12.5146749 L91.0888935,24.6530826 C91.3207349,25.115815 91.6960515,25.4911318 92.1587838,25.722973 L104.296242,31.8525127 L103.542758,45.4988386 C103.523754,46.0204813 103.659628,46.5364231 103.931377,46.9820525 L111.448163,58.3660262 L103.931377,69.75 Z" id="Shape" fill="#FFFFFF"></path>
        </g>
    </g>
</svg>