<?xml version="1.0" encoding="UTF-8"?>
<svg width="35px" height="46px" viewBox="0 0 35 46" version="1.1" xmlns="http://www.w3.org/2000/svg" xmlns:xlink="http://www.w3.org/1999/xlink">
    <title>register</title>
    <defs>
        <linearGradient x1="50%" y1="0%" x2="50%" y2="100%" id="linearGradient-1">
            <stop stop-color="#005E91" offset="0%"></stop>
            <stop stop-color="#003058" offset="100%"></stop>
        </linearGradient>
        <linearGradient x1="50%" y1="0%" x2="50%" y2="100%" id="linearGradient-2">
            <stop stop-color="#005E91" offset="0%"></stop>
            <stop stop-color="#003058" offset="100%"></stop>
        </linearGradient>
        <linearGradient x1="50%" y1="0%" x2="50%" y2="100%" id="linearGradient-3">
            <stop stop-color="#005E91" offset="0%"></stop>
            <stop stop-color="#003058" offset="100%"></stop>
        </linearGradient>
        <linearGradient x1="50%" y1="0%" x2="50%" y2="100%" id="linearGradient-4">
            <stop stop-color="#005E91" offset="0%"></stop>
            <stop stop-color="#003058" offset="100%"></stop>
        </linearGradient>
        <linearGradient x1="50%" y1="0%" x2="50%" y2="100%" id="linearGradient-5">
            <stop stop-color="#005E91" offset="0%"></stop>
            <stop stop-color="#003058" offset="100%"></stop>
        </linearGradient>
        <linearGradient x1="50%" y1="0%" x2="50%" y2="100%" id="linearGradient-6">
            <stop stop-color="#005E91" offset="0%"></stop>
            <stop stop-color="#003058" offset="100%"></stop>
        </linearGradient>
        <linearGradient x1="50%" y1="0%" x2="50%" y2="100%" id="linearGradient-7">
            <stop stop-color="#005E91" offset="0%"></stop>
            <stop stop-color="#003058" offset="100%"></stop>
        </linearGradient>
        <linearGradient x1="50%" y1="0%" x2="50%" y2="100%" id="linearGradient-8">
            <stop stop-color="#005E91" offset="0%"></stop>
            <stop stop-color="#003058" offset="100%"></stop>
        </linearGradient>
        <linearGradient x1="50%" y1="0%" x2="50%" y2="100%" id="linearGradient-9">
            <stop stop-color="#005E91" offset="0%"></stop>
            <stop stop-color="#003058" offset="100%"></stop>
        </linearGradient>
        <linearGradient x1="50%" y1="0%" x2="50%" y2="100%" id="linearGradient-10">
            <stop stop-color="#005E91" offset="0%"></stop>
            <stop stop-color="#003058" offset="100%"></stop>
        </linearGradient>
    </defs>
    <g id="â¹ï¸-Product-Wireframe" stroke="none" stroke-width="1" fill="none" fill-rule="evenodd">
        <g id="sections-/-Tax-Icons-" transform="translate(-190.000000, -77.000000)" fill-rule="nonzero">
            <g id="register" transform="translate(190.000000, 77.000000)">
                <path d="M1.58145503,0.0387012686 C0.763445279,0.0387012686 0.0814550298,0.720745377 0.0814550298,1.53876744 L0.0814550298,43.5387494 C0.0814550298,44.3567714 0.763407579,45.0387588 1.58145503,45.0387588 L33.0785324,45.0387588 C33.8965715,45.0387588 34.5785307,44.3567714 34.5785307,43.5387494 L34.5785307,9.7887487 C34.5785307,9.58040224 34.4921872,9.38143846 34.3397683,9.23945106 L24.5912318,0.237976863 C24.4524759,0.109850876 24.2704122,0.0387012686 24.081455,0.0387012686 L1.58145503,0.0387012686 Z" id="path7968-path" fill="url(#linearGradient-1)"></path>
                <polygon id="path7968-path" fill="#FFFFFF" points="1.58145515 1.53876744 23.3285303 1.53876744 23.3285303 11.2887582 33.0785324 11.2887582 33.0785324 43.5387494 1.58145515 43.5387494"></polygon>
                <polygon id="path7968-path" fill="url(#linearGradient-2)" points="24.8285313 2.49823832 32.7255 9.7887487 24.8285313 9.7887487"></polygon>
                <path d="M6.08292517,6.0402132 C5.26490776,6.0402132 4.58292517,6.72220061 4.58292517,7.5402132 L4.58292517,10.5416873 C4.58292517,11.3597094 5.26490776,12.0416968 6.08292517,12.0416968 L9.07706037,12.0416968 C9.8950779,12.0416968 10.5785303,11.3597094 10.5785303,10.5416873 L10.5785303,7.5402132 C10.5785303,6.72220061 9.8950779,6.0402132 9.07706037,6.0402132 L6.08292517,6.0402132 Z" id="path7968-path" fill="#B03478"></path>
                <path d="M13.5785305,6.78731243 C12.5558306,6.76463526 12.5558306,8.31025419 13.5785305,8.28729356 L20.3387833,8.28729356 C21.3165807,8.26461639 21.3165807,6.80925258 20.3387833,6.78731243 L13.5785305,6.78731243 Z" id="path7968-path" fill="url(#linearGradient-3)"></path>
                <polygon id="path7968-path" fill="#FFFFFF" points="6.08292529 7.54022268 9.07706037 7.54022268 9.07706037 10.5416873 6.08292529 10.5416873"></polygon>
                <path d="M13.5785305,9.7887487 C12.5998929,9.80859122 12.5998929,11.2676401 13.5785305,11.2887582 L20.3724733,11.2887582 C21.3511107,11.2689157 21.3511107,9.80989516 20.3724733,9.7887487 L13.5785305,9.7887487 Z" id="path7968-path" fill="url(#linearGradient-4)"></path>
                <path d="M6.08292517,15.0358197 C5.26490776,15.0358197 4.58292517,15.7192811 4.58292517,16.5373032 L4.58292517,19.5372938 C4.58292517,20.3553158 5.26490776,21.0387489 6.08292517,21.0387489 L9.07706037,21.0387489 C9.8950779,21.0387489 10.5785303,20.3553158 10.5785303,19.5372938 L10.5785303,16.5373032 C10.5785303,15.7192811 9.8950779,15.0358197 9.07706037,15.0358197 L6.08292517,15.0358197 Z" id="path7968-path" fill="#B03478"></path>
                <path d="M13.5785305,17.2902134 L30.0770621,17.2902134 C31.0780322,17.2902134 31.0780322,15.7887583 30.0770621,15.7887583 L13.5785305,15.7887583 C12.5581629,15.7944276 12.5838956,17.3003331 13.5785305,17.2902134 Z" id="path7968-path" fill="url(#linearGradient-5)"></path>
                <polygon id="path7968-path" fill="#FFFFFF" points="6.08292529 16.5373032 9.07706037 16.5373032 9.07706037 19.5372938 6.08292529 19.5372938"></polygon>
                <path d="M13.5785305,20.2902324 L30.0770621,20.2902324 C31.0988839,20.3129095 31.0988839,18.7681694 30.0770621,18.7902229 L13.5785305,18.7902229 C12.5836929,18.7924623 12.5841354,20.2922733 13.5785305,20.2902324 Z" id="path7968-path" fill="url(#linearGradient-6)"></path>
                <path d="M6.08292517,24.0387679 C5.26490776,24.0387679 4.58292517,24.720727 4.58292517,25.538749 L4.58292517,28.5402136 C4.58292517,29.3582641 5.26490776,30.0402231 6.08292517,30.0402231 L9.07706037,30.0402231 C9.8950779,30.0402231 10.5785303,29.3582641 10.5785303,28.5402136 L10.5785303,25.538749 C10.5785303,24.720727 9.8950779,24.0387679 9.07706037,24.0387679 L6.08292517,24.0387679 Z" id="path7968-path" fill="#B03478"></path>
                <path d="M13.5785305,24.7858388 C12.5558306,24.7631616 12.5558306,26.3087805 13.5785305,26.2858199 L29.3299941,26.2858199 C30.3077909,26.2631427 30.3077909,24.8077789 29.3299941,24.7858388 L13.5785305,24.7858388 Z" id="path7968-path" fill="url(#linearGradient-7)"></path>
                <polygon id="path7968-path" fill="#FFFFFF" points="6.08292529 25.538749 9.07706037 25.538749 9.07706037 28.5402136 6.08292529 28.5402136"></polygon>
                <path d="M13.596103,27.7873034 C12.5742804,27.7646262 12.5742804,29.3093664 13.596103,29.2873129 L29.3299941,29.2873129 C30.3518158,29.30999 30.3518158,27.7652215 29.3299941,27.7873034 L13.596103,27.7873034 Z" id="path7968-path" fill="url(#linearGradient-8)"></path>
                <path d="M6.08292517,33.0416877 C5.26490776,33.0416877 4.58292517,33.7236752 4.58292517,34.5416877 L4.58292517,37.5358201 C4.58292517,38.3538422 5.26490776,39.0373036 6.08292517,39.0373036 L9.07706037,39.0373036 C9.8950779,39.0373036 10.5785303,38.3538422 10.5785303,37.5358201 L10.5785303,34.5416877 C10.5785303,33.7236752 9.8950779,33.0416877 9.07706037,33.0416877 L6.08292517,33.0416877 Z" id="path7968-path" fill="#B03478"></path>
                <path d="M13.5785305,33.7887586 C12.6007331,33.8114358 12.6007331,35.2667996 13.5785305,35.2887681 L29.3299941,35.2887681 C30.3526946,35.3114453 30.3526946,33.765798 29.3299941,33.7887586 L13.5785305,33.7887586 Z" id="path7968-path" fill="url(#linearGradient-9)"></path>
                <polygon id="path7968-path" fill="#FFFFFF" points="6.08292529 34.5416972 9.07706037 34.5416972 9.07706037 37.5358201 6.08292529 37.5358201"></polygon>
                <path d="M13.5785305,38.2887587 L29.3299941,38.2887587 C30.3518158,38.3114359 30.3518158,36.7666957 29.3299941,36.7887492 L13.5785305,36.7887492 C12.5497554,36.7972532 12.616903,38.2948532 13.5785305,38.2887587 Z" id="path7968-path" fill="url(#linearGradient-10)"></path>
            </g>
        </g>
    </g>
</svg>