<?xml version="1.0" encoding="UTF-8" standalone="no"?>
<svg
   xmlns:dc="http://purl.org/dc/elements/1.1/"
   xmlns:cc="http://creativecommons.org/ns#"
   xmlns:rdf="http://www.w3.org/1999/02/22-rdf-syntax-ns#"
   xmlns:svg="http://www.w3.org/2000/svg"
   xmlns="http://www.w3.org/2000/svg"
   viewBox="0 0 622.77332 183.09332"
   height="183.09332"
   width="622.77332"
   xml:space="preserve"
   id="svg2"
   version="1.1"><metadata
     id="metadata8"><rdf:RDF><cc:Work
         rdf:about=""><dc:format>image/svg+xml</dc:format><dc:type
           rdf:resource="http://purl.org/dc/dcmitype/StillImage" /></cc:Work></rdf:RDF></metadata><defs
     id="defs6" /><g
     transform="matrix(1.3333333,0,0,-1.3333333,0,183.09333)"
     id="g10"><g
       transform="scale(0.1)"
       id="g12"><path
         id="path14"
         style="fill:#100f0d;fill-opacity:1;fill-rule:nonzero;stroke:none"
         d="m 337.922,612.605 c 0.019,0 0.039,0 0.058,0 0,-53.398 -0.476,-106.796 0.149,-160.195 0.516,-44.715 48.812,-74.512 89.484,-55.808 26.867,12.343 38.914,34.316 38.961,63.093 0.172,98.039 0.063,196.075 0.078,294.118 0,4.792 -0.066,9.55 1.262,14.285 6.574,23.394 23.563,35.988 49.973,36.16 34.211,0.219 68.426,0.078 102.633,0.047 12.597,-0.008 12.933,-0.348 12.933,-12.735 0.016,-72.894 0.016,-145.789 0.008,-218.679 -0.008,-9.602 0.41,-19.141 1.426,-28.731 8.699,-82.265 81.922,-151.836 164.445,-154.57 39.824,-1.309 79.727,-0.735 119.586,-0.227 19.77,0.246 36,9.16 47.766,25.157 15.687,21.339 17.578,44.687 5.937,67.968 -11.746,23.508 -32.164,34.973 -58.492,35.149 -34.777,0.222 -69.551,0.066 -104.328,0.215 -27.317,0.105 -47.485,19.578 -47.578,46.902 -0.262,76.848 -0.032,153.695 -0.196,230.543 -0.011,7.078 2.727,9.371 9.559,9.293 22.609,-0.254 45.234,-0.149 67.852,-0.039 4.5,0.019 9.101,0.148 13.476,1.078 32.883,6.996 54.758,36.781 51.371,69.644 -3.355,32.485 -31.363,57.461 -64.847,57.645 -21.774,0.121 -43.547,0.012 -65.313,0.035 -11.848,0.016 -11.973,0.121 -12,11.676 -0.07,37.012 -0.082,74.021 -0.16,111.031 -0.078,37.23 -27.992,65.73 -64.301,65.7 -36.215,-0.03 -64.117,-28.6 -64.184,-65.86 -0.07,-36.73 -0.007,-73.461 -0.027,-110.187 -0.004,-12.321 -0.043,-12.2 -12.113,-12.387 -40.406,-0.649 -80.817,1.043 -121.227,-1.184 -89.675,-4.953 -162.07,-80.879 -162.175,-170.804 -0.063,-49.446 -0.016,-98.887 -0.016,-148.333 z M 0.015625,737.645 C -2.44531,1086.11 287.621,1379.58 648.043,1373.05 983.777,1366.98 1271.46,1093.89 1272.04,737.797 1272.6,390.281 993.238,101 634.621,101.461 275.594,101.922 -2.20313,394.813 0.015625,737.645" /><path
         id="path16"
         style="fill:#100f0d;fill-opacity:1;fill-rule:nonzero;stroke:none"
         d="m 3809.43,522.449 c 0,51.992 -0.42,103.985 0.1,155.977 0.61,60.097 -47.35,111.793 -102.28,123.332 -62.51,13.129 -124.92,-20.324 -148.5,-79.61 -6.47,-16.285 -8.56,-33.355 -8.58,-50.656 -0.13,-105.39 -0.01,-210.789 -0.11,-316.183 -0.03,-33.348 -22.58,-59.559 -55.43,-65.02 -38.21,-6.348 -75.56,23.82 -77.27,62.539 -0.29,6.492 -0.14,12.992 -0.14,19.492 0,101.438 0.01,202.875 -0.01,304.317 -0.01,51.418 -30.84,99.004 -79.45,117.843 -50.37,19.528 -97.3,12.122 -137.72,-25.25 -27.36,-25.3 -40.65,-56.765 -40.54,-94.339 0.34,-105.118 0.17,-210.223 0.09,-315.332 -0.03,-36.348 -23.74,-64.079 -59.16,-69.629 -33.72,-5.289 -69.09,21.429 -73.39,55.398 -0.98,7.863 -1.47,15.711 -1.47,23.652 0.07,100.024 -0.05,200.051 0.09,300.083 0.07,45.046 8.76,88.21 30.8,127.953 43.74,78.882 109.94,126.355 199.71,138.121 82.91,10.859 154.38,-15.43 215.32,-71.778 13.09,-12.105 13.11,-12.246 26.21,0.09 39.46,37.199 85.08,62.774 139.16,70.633 80.46,11.688 152.84,-7.687 214.87,-60.816 51.54,-44.141 80.94,-100.739 89.59,-168 1.15,-8.938 1.87,-18.004 1.88,-27.016 0.12,-106.238 0.15,-212.488 0.03,-318.73 -0.02,-30.168 -17.48,-56.11 -43.56,-65.731 -45.12,-16.641 -89.78,15.352 -90.12,65.07 -0.36,54.528 -0.07,109.059 -0.07,163.59 -0.02,0 -0.04,0 -0.05,0" /><path
         id="path18"
         style="fill:#100f0d;fill-opacity:1;fill-rule:nonzero;stroke:none"
         d="m 1928.82,286.801 c -115.63,1.32 -217.65,39.051 -304.34,115.941 -88.34,78.371 -139.97,176.875 -152.53,293.996 -13.61,126.981 20.17,241.567 101.21,340.752 75.44,92.34 173.03,148.31 291.16,164.66 131.38,18.17 250.02,-14.85 354.36,-97.31 13.3,-10.52 26.74,-20.91 32.84,-37.86 6.9,-19.18 6.88,-38.27 -0.45,-57.15 -9.99,-25.693 -31.69,-33.803 -56.64,-35.955 -21.57,-1.859 -40.22,5.102 -57.29,18.645 -42.66,33.83 -90.15,58.61 -143.82,69.38 -99.52,19.96 -189.38,-2.62 -267.95,-66.291 -62.1,-50.324 -100.54,-115.761 -113.39,-194.875 -15.8,-97.195 7.69,-184.691 70.72,-260.441 54.04,-64.941 123.87,-103.281 207.85,-113.078 95.13,-11.102 179.58,15.402 252.28,77.98 30.83,26.543 85.4,19.305 105.24,-14.445 16.8,-28.562 9.8,-68.281 -15.42,-90.281 -64.86,-56.571 -139.76,-92.047 -224.43,-107.047 -26.21,-4.652 -52.61,-7.352 -79.4,-6.621" /><path
         id="path20"
         style="fill:#100f0d;fill-opacity:1;fill-rule:nonzero;stroke:none"
         d="m 4345.49,814.52 c -111.11,-0.012 -200.21,-89.184 -200.3,-200.45 -0.08,-111.824 88.94,-201.179 200.47,-201.211 111,-0.019 201.42,90.196 201.4,200.957 -0.02,110.793 -90.33,200.723 -201.57,200.704 z M 4021.11,346.09 c 0,88.996 0,177.992 0,266.976 0.01,162.45 118.38,299.754 279.33,322.122 98.23,13.656 185.43,-13.18 260.12,-78.34 63.97,-55.813 100.38,-126.946 108.54,-211.086 9.07,-93.496 -18.02,-176.555 -80.44,-247.199 -54.67,-61.883 -123.64,-97.891 -205.56,-107.461 -83.28,-9.723 -159.18,11.109 -227.54,59.519 -1.61,1.149 -3.24,2.27 -4.77,3.527 -4.5,3.711 -5.68,1.633 -5.61,-3.07 0.08,-4.789 0.01,-9.598 0.01,-14.398 0,-89.559 0,-179.11 -0.01,-268.6683 0,-19.0429 -4.57,-36.3828 -18.82,-50.0703 -19.38,-18.632806 -42.08,-22.20312 -66.65,-13.24218 -23.32,8.49998 -38.47,30.83208 -38.53,55.78128 -0.16,74.2895 -0.06,148.5975 -0.07,222.8985 0,20.91 0,41.801 0,62.711" /><path
         id="path22"
         style="fill:#100f0d;fill-opacity:1;fill-rule:nonzero;stroke:none"
         d="m 2624.49,816.398 c -111.9,2.473 -201.26,-92.996 -201.68,-199.406 -0.43,-104.289 83.48,-201.289 200.53,-202.051 110.89,-0.722 201.83,90.176 201.7,200.868 -0.13,116.343 -97.5,203.187 -200.55,200.589 z m 324.74,-330.48 c 0,-45.48 0.22,-90.969 -0.07,-136.449 -0.23,-35.989 -27.82,-64 -62.27,-63.899 -33.9,0.078 -61.44,27.5 -61.87,61.399 -0.05,3.781 2.03,9.222 -1.61,10.98 -3.56,1.731 -6.63,-3.23 -9.73,-5.418 -50.8,-35.98 -106.99,-56.761 -169.32,-60.492 -83.84,-5.008 -158.89,18.633 -223.98,71.242 -70.08,56.66 -110.67,130.457 -119.54,220.332 -9.37,95.043 18.55,178.719 82.28,249.797 54.68,60.988 123.39,96.336 204.84,105.235 175.74,19.214 333.43,-103.79 357.67,-278.383 2.4,-17.313 3.75,-34.754 3.67,-52.305 -0.2,-40.684 -0.06,-81.355 -0.07,-122.039" /></g></g></svg>