<?xml version="1.0" encoding="utf-8"?>
<!-- Generator: Adobe Illustrator 20.1.0, SVG Export Plug-In . SVG Version: 6.00 Build 0)  -->
<!DOCTYPE svg PUBLIC "-//W3C//DTD SVG 1.1//EN" "http://www.w3.org/Graphics/SVG/1.1/DTD/svg11.dtd">
<svg version="1.1" id="Layer_1" xmlns="http://www.w3.org/2000/svg" xmlns:xlink="http://www.w3.org/1999/xlink" x="0px" y="0px"
	 viewBox="0 0 635.4 259.2" style="enable-background:new 0 0 635.4 259.2;" xml:space="preserve">
<style type="text/css">
	.st0{fill:#003C4D;}
	.st1{fill:#00A1DF;}
	.st2{fill:#FFFFFF;}
	.st3{fill:none;}
	.st4{enable-background:new    ;}
	.st5{fill:#7D868C;}
</style>
<g>
	<rect class="st0" width="635.4" height="176.5"/>
	<g>
		<g>
			<path class="st1" d="M138.4,40.3c5.7-5.9,13.5-9.5,22.2-9.5c11.6,0,21.7,6.5,27.1,16c4.7-2.1,9.8-3.3,15.3-3.3
				c20.9,0,37.8,17.1,37.8,38.1s-16.9,38.1-37.8,38.1c-2.5,0-5-0.3-7.4-0.7c-4.7,8.4-13.8,14.2-24.1,14.2c-4.3,0-8.4-1-12.1-2.8
				c-4.8,11.3-16,19.2-29,19.2c-13.6,0-25.2-8.6-29.6-20.6c-1.9,0.4-4,0.6-6,0.6c-16.2,0-29.3-13.2-29.3-29.6
				c0-10.9,5.9-20.5,14.6-25.6c-1.8-4.1-2.8-8.7-2.8-13.5c0-18.8,15.2-34,34.1-34C122.4,26.9,132.2,32.1,138.4,40.3z"/>
		</g>
		<g>
			<g>
				<path class="st2" d="M90.8,90.5c-0.1,0.3,0,0.3,0.1,0.4c0.3,0.2,0.7,0.4,1,0.6c1.8,0.9,3.5,1.2,5.2,1.2c3.6,0,5.8-1.9,5.8-5
					v-0.1c0-2.8-2.5-3.9-4.9-4.6h-0.2c-1.8-0.6-3.3-1.1-3.3-2.3v-0.1c0-1,0.9-1.7,2.3-1.7c1.5,0,3.4,0.5,4.6,1.2
					c0,0,0.3,0.2,0.5-0.1c0.1-0.2,0.7-1.8,0.7-2c0.1-0.2-0.1-0.3-0.2-0.4c-1.4-0.8-3.2-1.4-5.2-1.4h-0.4c-3.3,0-5.6,2-5.6,4.8v0.1
					c0,3,2.5,4,4.9,4.7l0.4,0.1c1.7,0.5,3.2,1,3.2,2.2v0.1c0,1.1-1,1.9-2.5,1.9c-0.6,0-2.5,0-4.6-1.3c-0.3-0.1-0.4-0.3-0.6-0.4
					c-0.1-0.1-0.4-0.2-0.5,0.2L90.8,90.5z"/>
				<path class="st2" d="M143.5,90.5c-0.1,0.3,0,0.3,0.1,0.4c0.3,0.2,0.7,0.4,1,0.6c1.8,0.9,3.5,1.2,5.2,1.2c3.6,0,5.8-1.9,5.8-5
					v-0.1c0-2.8-2.5-3.9-4.9-4.6l-0.3-0.1c-1.8-0.6-3.3-1.1-3.3-2.3v-0.1c0-1,0.9-1.7,2.3-1.7c1.5,0,3.4,0.5,4.6,1.2
					c0,0,0.3,0.2,0.5-0.1c0.1-0.2,0.7-1.8,0.7-2c0.1-0.2-0.1-0.3-0.2-0.4c-1.4-0.8-3.2-1.4-5.2-1.4h-0.4c-3.3,0-5.6,2-5.6,4.8V81
					c0,3,2.5,4,4.9,4.7l0.4,0.1c1.7,0.5,3.2,1,3.2,2.2v0.1c0,1.1-1,1.9-2.5,1.9c-0.6,0-2.5,0-4.6-1.3c-0.3-0.1-0.4-0.2-0.6-0.4
					c-0.1,0-0.4-0.2-0.5,0.2L143.5,90.5z"/>
				<path class="st2" d="M182.5,81.3c-0.3-1-0.8-1.9-1.4-2.6c-0.6-0.7-1.4-1.3-2.3-1.8c-0.9-0.4-2-0.6-3.2-0.6s-2.3,0.2-3.2,0.6
					s-1.7,1-2.3,1.8c-0.6,0.7-1.1,1.6-1.4,2.6c-0.3,1-0.4,2.1-0.4,3.2c0,1.2,0.1,2.2,0.4,3.2c0.3,1,0.8,1.9,1.4,2.6
					c0.6,0.7,1.4,1.3,2.3,1.7c0.9,0.4,2,0.6,3.2,0.6s2.3-0.2,3.2-0.6s1.7-1,2.3-1.7s1.1-1.6,1.4-2.6c0.3-1,0.4-2.1,0.4-3.2
					C182.9,83.3,182.7,82.3,182.5,81.3 M179.5,84.5c0,1.7-0.3,3.1-1,4.1c-0.6,1-1.6,1.4-2.9,1.4c-1.3,0-2.3-0.5-2.9-1.4
					c-0.6-1-0.9-2.3-0.9-4.1c0-1.7,0.3-3.1,0.9-4.1c0.6-1,1.6-1.4,2.9-1.4c1.3,0,2.3,0.5,2.9,1.4C179.1,81.4,179.5,82.8,179.5,84.5"
					/>
				<path class="st2" d="M207.1,89.5c-0.1-0.3-0.4-0.2-0.4-0.2c-0.4,0.2-0.9,0.3-1.4,0.4s-1.1,0.1-1.6,0.1c-1.5,0-2.6-0.4-3.4-1.3
					c-0.8-0.9-1.3-2.2-1.3-4.1c0-1.7,0.4-3,1.2-4c0.7-1,1.8-1.5,3.3-1.5c1.2,0,2.2,0.1,3.2,0.5c0,0,0.2,0.1,0.3-0.2
					c0.3-0.7,0.5-1.2,0.7-2.1c0.1-0.2-0.1-0.3-0.2-0.4c-0.4-0.2-1.3-0.4-2-0.5c-0.6-0.1-1.4-0.2-2.3-0.2c-1.3,0-2.4,0.2-3.3,0.6
					c-1,0.4-1.8,1-2.4,1.8c-0.6,0.7-1.1,1.6-1.5,2.6c-0.3,1-0.5,2.1-0.5,3.2c0,2.5,0.7,4.5,2,6s3.3,2.2,5.9,2.2
					c1.5,0,3.1-0.3,4.3-0.8c0,0,0.2-0.1,0.1-0.4L207.1,89.5z"/>
				<path class="st2" d="M222.5,80.7c-0.3-1-0.9-1.9-1.3-2.4c-0.7-0.7-1.3-1.2-1.9-1.5c-0.8-0.4-1.8-0.6-2.9-0.6
					c-1.3,0-2.4,0.2-3.4,0.7c-0.9,0.4-1.7,1-2.3,1.8c-0.6,0.7-1.1,1.6-1.4,2.6c-0.3,1-0.4,2.1-0.4,3.2c0,1.2,0.2,2.3,0.5,3.2
					c0.3,1,0.8,1.9,1.5,2.6s1.5,1.3,2.6,1.7c1,0.4,2.3,0.6,3.7,0.6c2.9,0,4.5-0.7,5.1-1c0.1-0.1,0.2-0.2,0.1-0.5l-0.7-1.9
					c-0.1-0.3-0.4-0.2-0.4-0.2c-0.7,0.3-1.8,0.8-4.2,0.8c-1.6,0-2.7-0.5-3.5-1.2s-1.1-1.8-1.2-3.4h10.2c0,0,0.3,0,0.3-0.3
					C222.8,85,223.1,83,222.5,80.7z M212.4,82.8c0.1-1,0.4-1.8,0.8-2.4c0.6-1,1.6-1.5,2.9-1.5c1.3,0,2.2,0.5,2.8,1.5
					c0.4,0.6,0.6,1.5,0.7,2.4H212.4z"/>
				<path class="st2" d="M141.1,80.7c-0.3-1-0.9-1.9-1.3-2.4c-0.7-0.7-1.3-1.2-1.9-1.5c-0.8-0.4-1.8-0.6-2.9-0.6
					c-1.3,0-2.4,0.2-3.4,0.7c-0.9,0.4-1.7,1-2.3,1.8c-0.6,0.7-1.1,1.6-1.4,2.6c-0.3,1-0.4,2.1-0.4,3.2c0,1.2,0.2,2.3,0.5,3.2
					c0.3,1,0.8,1.9,1.5,2.6s1.5,1.3,2.6,1.7c1,0.4,2.3,0.6,3.7,0.6c2.9,0,4.5-0.7,5.1-1c0.1-0.1,0.2-0.2,0.1-0.5l-0.7-1.9
					c-0.1-0.3-0.4-0.2-0.4-0.2c-0.7,0.3-1.8,0.8-4.2,0.8c-1.6,0-2.7-0.5-3.5-1.2s-1.1-1.8-1.2-3.4h10.2c0,0,0.3,0,0.3-0.3
					C141.4,85,141.7,83,141.1,80.7z M131,82.8c0.1-1,0.4-1.8,0.8-2.4c0.6-1,1.6-1.5,2.9-1.5c1.3,0,2.2,0.5,2.8,1.5
					c0.4,0.6,0.6,1.5,0.7,2.4H131z"/>
				<path class="st2" d="M113,82.3c-0.4,0-0.9,0-1.6,0c-0.9,0-1.7,0.1-2.5,0.3c-0.8,0.2-1.5,0.5-2.1,1c-0.6,0.4-1.1,1-1.5,1.7
					s-0.5,1.5-0.5,2.3c0,0.9,0.2,1.7,0.5,2.3c0.3,0.6,0.8,1.2,1.3,1.6c0.6,0.4,1.3,0.7,2.1,0.9c0.8,0.2,1.7,0.3,2.7,0.3
					s2.1-0.1,3.1-0.3c1-0.2,2.2-0.4,2.6-0.5c0.3-0.1,0.7-0.2,0.7-0.2c0.3-0.1,0.2-0.3,0.2-0.3v-9.3c0-2-0.5-3.5-1.6-4.5
					c-1.1-0.9-2.6-1.4-4.7-1.4c-0.8,0-2,0.1-2.7,0.3c0,0-2.2,0.4-3.1,1.1c0,0-0.2,0.1-0.1,0.4l0.7,1.9c0.1,0.3,0.3,0.2,0.3,0.2
					s0.1,0,0.2-0.1c2-1.1,4.4-1,4.4-1c1.1,0,1.9,0.2,2.5,0.7c0.6,0.4,0.8,1.1,0.8,2.4v0.4C113.8,82.4,113,82.3,113,82.3z M109,89.5
					c-0.4-0.3-0.5-0.4-0.6-0.6c-0.2-0.3-0.3-0.8-0.3-1.3c0-0.9,0.3-1.5,0.9-2c0,0,0.9-0.8,2.9-0.7c1.5,0,2.8,0.2,2.8,0.2v4.6l0,0
					c0,0-1.3,0.3-2.7,0.4C109.9,90.2,109,89.5,109,89.5z"/>
				<path class="st2" d="M195,77.1c0.1-0.2-0.1-0.3-0.2-0.4c-0.2-0.1-1-0.2-1.7-0.3c-1.3-0.1-2,0.1-2.6,0.4s-1.3,0.7-1.7,1.3v-1.2
					c0-0.2-0.1-0.3-0.3-0.3h-2.6c-0.2,0-0.3,0.1-0.3,0.3v15.2c0,0.2,0.1,0.3,0.3,0.3h2.7c0.2,0,0.3-0.1,0.3-0.3v-7.6
					c0-1,0.1-2,0.3-2.7c0.2-0.6,0.5-1.1,0.9-1.5s0.8-0.6,1.3-0.8c0.5-0.1,1-0.2,1.4-0.2c0.5,0,1.1,0.1,1.1,0.1
					c0.2,0,0.3-0.1,0.4-0.3C194.4,78.8,194.9,77.4,195,77.1z"/>
				<path class="st2" d="M170,70.1c-0.3-0.1-0.6-0.2-1-0.2c-0.4-0.1-0.9-0.1-1.4-0.1c-1.8,0-3.3,0.5-4.3,1.5s-1.7,2.6-2,4.6
					l-0.1,0.7h-2.3c0,0-0.3,0-0.3,0.3l-0.4,2.1c0,0.2,0.1,0.3,0.3,0.3h2.2L158.4,92c-0.2,1-0.4,1.9-0.6,2.5
					c-0.2,0.6-0.4,1.1-0.7,1.4s-0.5,0.6-0.9,0.7s-0.8,0.2-1.2,0.2c-0.2,0-0.6,0-0.8-0.1c-0.2,0-0.4-0.1-0.5-0.2c0,0-0.3-0.1-0.4,0.2
					c-0.1,0.2-0.7,1.9-0.8,2.1s0,0.4,0.2,0.4c0.3,0.1,0.5,0.2,0.9,0.3c0.6,0.1,1,0.1,1.5,0.1c0.9,0,1.8-0.1,2.5-0.4s1.3-0.7,1.9-1.3
					c0.6-0.7,1-1.3,1.3-2.3c0.4-0.9,0.7-2.1,0.9-3.4l2.3-13h3.3c0,0,0.3,0,0.3-0.3l0.4-2.1c0-0.2-0.1-0.3-0.3-0.3h-3.2
					c0-0.1,0.2-1.2,0.5-2.3c0.2-0.5,0.5-0.8,0.7-1.1c0.2-0.3,0.5-0.4,0.9-0.5c0.3-0.1,0.7-0.2,1.1-0.2c0.3,0,0.6,0,0.8,0.1
					c0.3,0.1,0.4,0.1,0.5,0.1c0.3,0.1,0.4,0,0.4-0.2l0.8-2.1C170.2,70.2,170,70.1,170,70.1z"/>
				<path class="st2" d="M124.5,92.1c0,0.2-0.1,0.3-0.3,0.3h-2.7c-0.2,0-0.3-0.1-0.3-0.3V70.4c0-0.2,0.1-0.3,0.3-0.3h2.7
					c0.2,0,0.3,0.1,0.3,0.3V92.1z"/>
			</g>
		</g>
		<g>
			<path class="st2" d="M264.5,69.4c1.4,0,2.7,0.2,4,0.6s2.4,1,3.4,1.8l-1.5,2.6c-1.7-1.3-3.7-1.9-5.9-1.9c-2.4,0-4.2,0.8-5.4,2.3
				c-1.2,1.6-1.8,3.7-1.8,6.3c0,2.6,0.6,4.7,1.8,6.2c1.2,1.6,3,2.4,5.4,2.4c2,0,4-0.6,6-1.9l1.4,2.6c-2.2,1.6-4.8,2.4-7.6,2.4
				c-2.5,0-4.6-0.6-6.2-1.7s-2.8-2.6-3.5-4.4s-1.1-3.7-1.1-5.7c0-3.6,1-6.4,2.9-8.5C258.4,70.5,261.1,69.4,264.5,69.4z"/>
			<path class="st2" d="M295.6,81.1c0,2.3-0.4,4.4-1.3,6.2c-0.9,1.8-2.2,3.2-3.9,4.2c-1.7,1-3.7,1.5-6,1.5s-4.3-0.5-6-1.5
				s-3-2.4-3.9-4.2c-0.9-1.8-1.3-3.8-1.3-6.1c0-3.6,1-6.4,2.9-8.5c2-2.1,4.7-3.2,8.2-3.2c2.4,0,4.4,0.5,6.1,1.5s3,2.3,3.8,4.1
				C295.2,76.7,295.6,78.8,295.6,81.1z M277.1,81.1c0,2.7,0.6,4.8,1.8,6.4c1.2,1.6,3,2.4,5.5,2.4s4.3-0.8,5.6-2.4
				c1.2-1.6,1.8-3.8,1.8-6.4c0-2.7-0.6-4.8-1.8-6.4c-1.2-1.6-3.1-2.4-5.6-2.4s-4.3,0.8-5.5,2.4C277.7,76.3,277.1,78.5,277.1,81.1z"
				/>
			<path class="st2" d="M299.9,75c0-1.6-0.1-3.3-0.3-5h3.6c0.1,0.8,0.2,1.8,0.3,3.2h0.1c0.7-1.1,1.7-2,3-2.7s2.7-1.1,4.4-1.1
				c1.9,0,3.4,0.4,4.6,1.2c1.2,0.8,2.1,1.9,2.6,3.3h0.1c0.8-1.4,1.8-2.5,3.1-3.3c1.3-0.8,2.9-1.2,4.7-1.2c1.8,0,3.4,0.4,4.6,1.2
				c1.2,0.8,2.1,1.9,2.7,3.2c0.6,1.3,0.9,2.7,0.9,4.3v14.3h-3.7V78.6c0-1.7-0.4-3.2-1.2-4.3c-0.8-1.2-2.2-1.8-4-1.8
				c-1.3,0-2.5,0.4-3.5,1.1s-1.7,1.6-2.2,2.8c-0.5,1.2-0.7,2.4-0.7,3.8v12.2h-3.7V78.5c0-1.7-0.4-3.1-1.3-4.3
				c-0.8-1.2-2.2-1.7-4-1.7c-1.9,0-3.5,0.7-4.6,2c-1.1,1.4-1.7,3-1.7,5v12.8H300L299.9,75L299.9,75z"/>
			<path class="st2" d="M339.7,75c0-1.6-0.1-3.3-0.3-5h3.6c0.1,0.8,0.2,1.8,0.3,3.2h0.1c0.7-1.1,1.7-2,3-2.7s2.7-1.1,4.4-1.1
				c1.9,0,3.4,0.4,4.6,1.2c1.2,0.8,2.1,1.9,2.6,3.3h0.1c0.8-1.4,1.8-2.5,3.1-3.3c1.3-0.8,2.9-1.2,4.7-1.2c1.8,0,3.4,0.4,4.6,1.2
				c1.2,0.8,2.1,1.9,2.7,3.2c0.6,1.3,0.9,2.7,0.9,4.3v14.3h-3.7V78.6c0-1.7-0.4-3.2-1.2-4.3c-0.8-1.2-2.2-1.8-4-1.8
				c-1.3,0-2.5,0.4-3.5,1.1s-1.7,1.6-2.2,2.8c-0.5,1.2-0.7,2.4-0.7,3.8v12.2H355V78.5c0-1.7-0.4-3.1-1.3-4.3c-0.8-1.2-2.2-1.7-4-1.7
				c-1.9,0-3.5,0.7-4.6,2c-1.1,1.4-1.7,3-1.7,5v12.8h-3.7L339.7,75L339.7,75z"/>
			<path class="st2" d="M398.6,82.5H382c0.1,2.3,0.8,4.1,2.1,5.4c1.2,1.3,3,2,5.3,2c1.3,0,2.5-0.2,3.6-0.5c1.1-0.4,2.1-0.9,3.2-1.6
				l1.7,2.4c-1.3,0.9-2.6,1.6-4,2.1s-3,0.7-4.7,0.7c-3.4,0-6.1-1.1-8-3.2c-1.9-2.2-2.9-5-2.9-8.6c0-2.3,0.4-4.3,1.2-6.1
				c0.8-1.8,2-3.1,3.6-4.1s3.4-1.5,5.6-1.5c3.2,0,5.7,1.1,7.4,3.2c1.7,2.1,2.6,4.9,2.6,8.4C398.7,81.6,398.7,82.2,398.6,82.5z
				 M395.1,79.6c-0.1-2.2-0.6-4-1.7-5.3s-2.6-2-4.7-2s-3.7,0.7-4.8,2.1c-1.1,1.4-1.8,3.1-1.8,5.3L395.1,79.6L395.1,79.6z"/>
			<path class="st2" d="M402.9,75c0-1.6-0.1-3.3-0.3-5h3.6c0.1,1,0.2,2.2,0.3,3.6h0.1c1.3-2.8,3.6-4.2,7-4.2c0.2,0,0.7,0,1.3,0.1
				l-0.2,3.2c-0.3-0.1-0.7-0.1-1.4-0.1c-2.1,0-3.8,0.7-4.9,2.1s-1.7,3.3-1.7,5.6v12H403L402.9,75L402.9,75z"/>
			<path class="st2" d="M426.8,69.4c1.4,0,2.7,0.2,4,0.6s2.4,1,3.4,1.8l-1.5,2.6c-1.7-1.3-3.7-1.9-5.9-1.9c-2.4,0-4.2,0.8-5.4,2.3
				c-1.2,1.6-1.8,3.7-1.8,6.3c0,2.6,0.6,4.7,1.8,6.2c1.2,1.6,3,2.4,5.4,2.4c2,0,4-0.6,6-1.9l1.4,2.6c-2.2,1.6-4.8,2.4-7.6,2.4
				c-2.5,0-4.6-0.6-6.2-1.7s-2.8-2.6-3.5-4.4s-1.1-3.7-1.1-5.7c0-3.6,1-6.4,2.9-8.5C420.6,70.5,423.3,69.4,426.8,69.4z"/>
			<path class="st2" d="M455.9,82.5h-16.6c0.1,2.3,0.8,4.1,2.1,5.4c1.2,1.3,3,2,5.3,2c1.3,0,2.5-0.2,3.6-0.5
				c1.1-0.4,2.1-0.9,3.2-1.6l1.7,2.4c-1.3,0.9-2.6,1.6-4,2.1s-3,0.7-4.7,0.7c-3.4,0-6.1-1.1-8-3.2c-1.9-2.2-2.9-5-2.9-8.6
				c0-2.3,0.4-4.3,1.2-6.1c0.8-1.8,2-3.1,3.6-4.1s3.4-1.5,5.6-1.5c3.2,0,5.7,1.1,7.4,3.2c1.7,2.1,2.6,4.9,2.6,8.4
				C456,81.6,455.9,82.2,455.9,82.5z M452.3,79.6c-0.1-2.2-0.6-4-1.7-5.3s-2.6-2-4.7-2s-3.7,0.7-4.8,2.1c-1.1,1.4-1.8,3.1-1.8,5.3
				L452.3,79.6L452.3,79.6z"/>
			<path class="st2" d="M479.1,69.4c1.4,0,2.7,0.2,4,0.6s2.4,1,3.4,1.8l-1.5,2.6c-1.7-1.3-3.7-1.9-5.9-1.9c-2.4,0-4.2,0.8-5.4,2.3
				c-1.2,1.6-1.8,3.7-1.8,6.3c0,2.6,0.6,4.7,1.8,6.2c1.2,1.6,3,2.4,5.4,2.4c2,0,4-0.6,6-1.9l1.4,2.6c-2.2,1.6-4.8,2.4-7.6,2.4
				c-2.5,0-4.6-0.6-6.2-1.7s-2.8-2.6-3.5-4.4s-1.1-3.7-1.1-5.7c0-3.6,1-6.4,2.9-8.5C473,70.5,475.7,69.4,479.1,69.4z"/>
			<path class="st2" d="M494.6,61.3v31h-3.7v-31C490.9,61.3,494.6,61.3,494.6,61.3z"/>
			<path class="st2" d="M521.4,81.1c0,2.3-0.4,4.4-1.3,6.2c-0.9,1.8-2.2,3.2-3.9,4.2s-3.7,1.5-6,1.5s-4.3-0.5-6-1.5s-3-2.4-3.9-4.2
				c-0.9-1.8-1.3-3.8-1.3-6.1c0-3.6,1-6.4,2.9-8.5c2-2.1,4.7-3.2,8.2-3.2c2.4,0,4.4,0.5,6.1,1.5c1.7,1,3,2.3,3.8,4.1
				C520.9,76.7,521.4,78.8,521.4,81.1z M502.8,81.1c0,2.7,0.6,4.8,1.8,6.4c1.2,1.6,3,2.4,5.5,2.4s4.3-0.8,5.6-2.4
				c1.2-1.6,1.8-3.8,1.8-6.4c0-2.7-0.6-4.8-1.8-6.4s-3.1-2.4-5.6-2.4c-2.5,0-4.3,0.8-5.5,2.4C503.4,76.3,502.8,78.5,502.8,81.1z"/>
			<path class="st2" d="M524.9,83.7V70h3.8v13.2c0,2,0.4,3.7,1.3,4.9c0.9,1.2,2.3,1.9,4.1,1.9c2,0,3.7-0.8,4.9-2.3s1.8-3.4,1.8-5.7
				V70h3.7v17.4c0,1.6,0.1,3.3,0.3,5h-3.6c-0.1-0.9-0.2-2.1-0.3-3.6h0.1c-1.6,2.8-4.2,4.2-7.7,4.2c-2.8,0-4.9-0.9-6.3-2.6
				C525.6,88.7,524.9,86.5,524.9,83.7z"/>
			<path class="st2" d="M570,92.3h-3.5c-0.2-1.3-0.3-2.4-0.3-3.3h-0.1c-1.7,2.6-4.3,3.9-8,3.9c-3.2,0-5.6-1.1-7.3-3.2
				c-1.7-2.2-2.5-5-2.5-8.5c0-2.2,0.4-4.2,1.2-6s2-3.2,3.6-4.3c1.5-1,3.4-1.6,5.5-1.6c3,0,5.4,1,7.3,2.9v-11h3.7v26.1
				C569.7,89,569.8,90.6,570,92.3z M566,82.7v-7c-0.9-1.1-1.9-1.9-3-2.5c-1.1-0.5-2.4-0.8-3.8-0.8c-2.2,0-3.9,0.8-5.1,2.5
				c-1.2,1.6-1.9,3.8-1.9,6.4c0,2.7,0.6,4.8,1.8,6.4s2.8,2.3,5,2.3c2.1,0,3.8-0.7,5.1-2C565.3,86.6,566,84.8,566,82.7z"/>
		</g>
	</g>
</g>
<rect x="7.2" y="206" class="st3" width="621" height="29.8"/>
<g class="st4">
	<path class="st5" d="M164.5,224h9.2v3.3h-13.1V206h3.9L164.5,224L164.5,224z"/>
	<path class="st5" d="M181.6,224.3h2.5v3h-8.8v-3h2.5v-15.4h-2.5V206h8.8v2.9h-2.5V224.3z"/>
	<path class="st5" d="M187.9,206h4.5l10.5,15.8h0.1l-0.1-15.8h3.6v21.2H202l-10.5-15.9h-0.1l0.1,15.9h-3.7L187.9,206L187.9,206z"/>
	<path class="st5" d="M216.5,218.4l-1.3,1.3v7.6h-3.9V206h3.9v8.7l8.3-8.7h4.7l-9.2,9.6l9.9,11.6H224L216.5,218.4z"/>
	<path class="st5" d="M256.3,208.1l-2.2,2.5c-0.7-0.6-1.5-1-2.3-1.3c-0.9-0.3-1.8-0.5-2.8-0.5c-2.3,0-4,0.7-5.1,2.1
		s-1.6,3.3-1.6,5.7c0,2.3,0.5,4.2,1.6,5.6c1.1,1.4,2.8,2.1,5,2.1c1.1,0,2-0.2,2.9-0.6c0.9-0.4,1.7-0.9,2.4-1.5l2.4,2.6
		c-0.9,0.9-2,1.6-3.4,2.2c-1.4,0.6-2.8,0.8-4.4,0.8c-2.3,0-4.2-0.5-5.8-1.4s-2.8-2.3-3.6-4s-1.2-3.6-1.2-5.8s0.4-4.2,1.2-5.9
		s2-3,3.7-3.9c1.6-0.9,3.5-1.4,5.8-1.4c1.5,0,2.9,0.2,4.2,0.7C254.3,206.6,255.4,207.3,256.3,208.1z"/>
	<path class="st5" d="M272.3,220.8h-10.9c0.2,1.2,0.6,2.2,1.3,2.9c0.7,0.7,1.7,1,3,1c0.9,0,1.7-0.1,2.3-0.3c0.7-0.2,1.4-0.6,2.1-1.1
		l1.6,2.4c-0.9,0.7-1.9,1.2-2.9,1.5s-2.2,0.5-3.4,0.5c-1.6,0-3.1-0.3-4.2-1c-1.2-0.7-2.1-1.6-2.7-2.9c-0.6-1.2-0.9-2.7-0.9-4.3
		c0-2.5,0.7-4.5,2-6s3.2-2.2,5.6-2.2s4.1,0.7,5.4,2.2c1.2,1.5,1.8,3.5,1.8,6C272.4,219.9,272.4,220.4,272.3,220.8z M268.7,218
		c0-1.2-0.4-2.1-0.9-2.8c-0.6-0.7-1.5-1.1-2.6-1.1c-1.2,0-2.1,0.4-2.7,1.1c-0.6,0.8-1,1.7-1.1,2.8H268.7z"/>
	<path class="st5" d="M276.1,215.2c0-0.8-0.1-2-0.3-3.6h3.6c0.1,0.8,0.2,1.6,0.2,2.2h0.1c0.9-1.7,2.5-2.6,4.6-2.6c0.4,0,0.7,0,1,0.1
		l-0.1,3.2c-0.3-0.1-0.7-0.1-1.1-0.1c-1.3,0-2.3,0.4-3.1,1.3c-0.7,0.9-1.1,2-1.1,3.3v8.2h-3.8L276.1,215.2L276.1,215.2z"/>
	<path class="st5" d="M292.3,211.8h3.9v2.9h-3.9v7.8c0,1.5,0.7,2.2,2,2.2c0.5,0,1-0.1,1.4-0.2l0.5,2.8c-0.8,0.3-1.7,0.5-2.7,0.5
		c-1.6,0-2.8-0.4-3.6-1.3c-0.9-0.8-1.3-2.1-1.3-3.6v-8.1H286v-2.4l2.5-0.5v-3.7l3.8-1.3L292.3,211.8L292.3,211.8z"/>
	<path class="st5" d="M299,206.8c0-1.4,0.8-2.2,2.3-2.2c0.8,0,1.4,0.2,1.8,0.6c0.4,0.4,0.5,0.9,0.5,1.6c0,0.6-0.2,1.1-0.6,1.5
		s-1,0.6-1.8,0.6s-1.4-0.2-1.8-0.6S299,207.4,299,206.8z M303.1,227.3h-3.8v-15.6h3.8V227.3z"/>
	<path class="st5" d="M322.3,227.3h-3.8v-12.6h-6.3v12.6h-3.8v-12.6H306v-2.4l2.5-0.5V211c0-1.7,0.6-3,1.7-3.9s2.8-1.4,5-1.4
		c2.3,0,4.5,0.6,6.5,1.8l-1.3,2.6c-1.8-1-3.5-1.5-5.2-1.5c-1.1,0-1.8,0.2-2.3,0.6c-0.5,0.4-0.7,1.1-0.7,2v0.7h10L322.3,227.3
		L322.3,227.3z"/>
	<path class="st5" d="M340.6,220.8h-10.9c0.2,1.2,0.6,2.2,1.3,2.9s1.7,1,3,1c0.9,0,1.7-0.1,2.3-0.3c0.7-0.2,1.4-0.6,2.1-1.1l1.6,2.4
		c-0.9,0.7-1.9,1.2-2.9,1.5s-2.2,0.5-3.4,0.5c-1.6,0-3.1-0.3-4.2-1s-2.1-1.6-2.7-2.9c-0.6-1.2-0.9-2.7-0.9-4.3c0-2.5,0.7-4.5,2-6
		s3.2-2.2,5.6-2.2s4.2,0.7,5.4,2.2s1.8,3.5,1.8,6C340.7,219.9,340.7,220.4,340.6,220.8z M337,218c0-1.2-0.4-2.1-0.9-2.8
		c-0.6-0.7-1.5-1.1-2.6-1.1c-1.2,0-2.1,0.4-2.7,1.1s-1,1.7-1.1,2.8H337z"/>
	<path class="st5" d="M359,227.3h-3.5c-0.1-0.8-0.2-1.4-0.2-2h-0.1c-0.6,0.8-1.3,1.4-2.1,1.8s-1.9,0.6-3.1,0.6
		c-2.2,0-3.8-0.8-4.9-2.2c-1.1-1.5-1.7-3.5-1.7-5.9c0-1.5,0.3-2.9,0.9-4.2s1.4-2.3,2.5-3s2.4-1.1,3.9-1.1c1.8,0,3.2,0.5,4.4,1.6V206
		h3.8v17.7C358.7,224.6,358.8,225.8,359,227.3z M355,220.5v-4.6c-1-1.1-2.3-1.6-3.8-1.6c-1.2,0-2.2,0.5-2.9,1.4c-0.7,1-1,2.2-1,3.9
		s0.3,2.9,1,3.8c0.7,0.9,1.6,1.3,2.7,1.3c1.2,0,2.1-0.4,2.9-1.2C354.6,222.7,355,221.7,355,220.5z"/>
	<path class="st5" d="M387.2,213.1c0,1.6-0.4,2.9-1.1,4s-1.7,1.9-2.9,2.4c-1.2,0.5-2.5,0.8-4,0.8h-3.7v6.9h-3.9V206h7.7
		c2.4,0,4.3,0.6,5.8,1.8C386.5,209,387.2,210.7,387.2,213.1z M375.4,209.2v8h3.4c1.2,0,2.3-0.3,3.1-1s1.3-1.7,1.3-3
		c0-1.4-0.4-2.4-1.2-3.1c-0.8-0.6-1.9-0.9-3.1-0.9H375.4z"/>
	<path class="st5" d="M388.1,222.9c0-2,0.7-3.5,2.2-4.3s3.5-1.2,6.3-1.2c0.7,0,1.2,0,1.5,0v-0.8c0-1.7-1.1-2.5-3.2-2.5
		c-1.5,0-3,0.4-4.5,1.2l-1.3-2.5c0.8-0.5,1.8-0.9,2.9-1.2s2.1-0.4,3.1-0.4c2.4,0,4.1,0.5,5.2,1.6s1.6,2.7,1.6,4.9v5.9
		c0,0.8,0.1,2,0.3,3.6h-3.5c-0.1-0.8-0.2-1.4-0.3-1.8h-0.1c-0.6,0.7-1.2,1.3-2,1.6c-0.8,0.4-1.8,0.5-3.1,0.5c-1.4,0-2.6-0.4-3.6-1.2
		C388.5,225.6,388.1,224.4,388.1,222.9z M398,221.2V220h-1.1c-1.8,0-3,0.2-3.8,0.6c-0.8,0.4-1.1,1.1-1.1,2.1c0,0.7,0.2,1.2,0.6,1.6
		s0.9,0.6,1.6,0.6s1.4-0.2,2-0.5s1-0.8,1.4-1.3S398,221.9,398,221.2z"/>
	<path class="st5" d="M406.3,215.2c0-0.8-0.1-2-0.3-3.6h3.6c0.1,0.8,0.2,1.6,0.2,2.2h0.1c0.9-1.7,2.5-2.6,4.6-2.6c0.4,0,0.7,0,1,0.1
		l-0.1,3.2c-0.3-0.1-0.7-0.1-1.1-0.1c-1.3,0-2.3,0.4-3.1,1.3c-0.7,0.9-1.1,2-1.1,3.3v8.2h-3.8L406.3,215.2L406.3,215.2z"/>
	<path class="st5" d="M422.5,211.8h3.9v2.9h-3.9v7.8c0,1.5,0.7,2.2,2,2.2c0.5,0,1-0.1,1.4-0.2l0.5,2.8c-0.8,0.3-1.7,0.5-2.7,0.5
		c-1.6,0-2.8-0.4-3.6-1.3c-0.9-0.8-1.3-2.1-1.3-3.6v-8.1h-2.6v-2.4l2.5-0.5v-3.7l3.8-1.3L422.5,211.8L422.5,211.8z"/>
	<path class="st5" d="M429.6,215.2c0-0.8-0.1-2-0.3-3.6h3.6c0.1,0.6,0.2,1.2,0.2,1.8h0.1c0.5-0.7,1.2-1.2,2.1-1.6
		c0.9-0.4,1.9-0.6,3.1-0.6c1.3,0,2.4,0.3,3.2,0.8c0.8,0.5,1.5,1.2,1.9,2.1c0.4,0.9,0.6,1.8,0.6,2.8v10.3h-3.8v-9.5
		c0-1-0.2-1.8-0.7-2.4c-0.5-0.6-1.3-0.9-2.4-0.9c-1.2,0-2.1,0.4-2.8,1.2c-0.7,0.8-1,1.8-1,3v8.7h-3.8L429.6,215.2L429.6,215.2z"/>
	<path class="st5" d="M462.2,220.8h-10.9c0.2,1.2,0.6,2.2,1.3,2.9s1.7,1,3,1c0.9,0,1.7-0.1,2.3-0.3c0.7-0.2,1.4-0.6,2.1-1.1l1.6,2.4
		c-0.9,0.7-1.9,1.2-2.9,1.5s-2.2,0.5-3.4,0.5c-1.6,0-3.1-0.3-4.2-1s-2.1-1.6-2.7-2.9c-0.6-1.2-0.9-2.7-0.9-4.3c0-2.5,0.7-4.5,2-6
		s3.2-2.2,5.6-2.2s4.2,0.7,5.4,2.2s1.8,3.5,1.8,6C462.3,219.9,462.3,220.4,462.2,220.8z M458.6,218c0-1.2-0.4-2.1-0.9-2.8
		c-0.6-0.7-1.5-1.1-2.6-1.1c-1.2,0-2.1,0.4-2.7,1.1s-1,1.7-1.1,2.8H458.6z"/>
	<path class="st5" d="M466,215.2c0-0.8-0.1-2-0.3-3.6h3.6c0.1,0.8,0.2,1.6,0.2,2.2h0.1c0.9-1.7,2.5-2.6,4.6-2.6c0.4,0,0.7,0,1,0.1
		l-0.2,3.2c-0.3-0.1-0.7-0.1-1.1-0.1c-1.3,0-2.3,0.4-3.1,1.3c-0.7,0.9-1.1,2-1.1,3.3v8.2H466V215.2z"/>
</g>
</svg>
