<?xml version="1.0" encoding="UTF-8" standalone="no"?><svg width="335" height="392" viewBox="0 0 335 392" fill="none" xmlns="http://www.w3.org/2000/svg">
<path fill-rule="evenodd" clip-rule="evenodd" d="M118.902 81.5435C118.222 80.6035 116.422 81.7235 114.522 80.4235C113.97 80.0698 113.38 79.7812 112.762 79.5635C112.724 79.6076 112.676 79.642 112.622 79.6635C111.579 80.3429 110.619 81.1416 109.762 82.0435C112.178 83.4128 114.831 84.3152 117.582 84.7035C118.063 84.6998 118.523 84.5056 118.862 84.1635C119.104 83.3087 119.118 82.4053 118.902 81.5435Z" fill="#294F6E" stroke="#002F57" stroke-width="0.75"/>
<path fill-rule="evenodd" clip-rule="evenodd" d="M123.122 84.224C123.302 83.864 122.102 81.884 124.422 81.724C126.742 81.564 128.422 81.284 128.802 79.724C129.182 78.164 131.902 78.944 132.682 78.864C133.462 78.784 135.382 76.864 137.382 76.984C137.382 74.984 134.742 75.664 132.902 73.824C131.062 71.984 126.662 72.744 124.342 73.644C122.022 74.544 119.362 72.664 116.862 74.084C116.22 74.9086 115.489 75.6598 114.682 76.324C113.002 77.684 113.462 79.044 112.842 79.424C113.46 79.6417 114.05 79.9303 114.602 80.284C116.602 81.584 118.302 80.464 118.982 81.404C119.211 82.2623 119.211 83.1657 118.982 84.024C119.342 83.744 119.602 83.544 120.182 84.024C120.762 84.504 120.622 85.004 120.562 85.544L122.042 85.204C122.439 84.9202 122.801 84.5914 123.122 84.224Z" fill="#294F6E" stroke="#002F57" stroke-width="0.75"/>
<path fill-rule="evenodd" clip-rule="evenodd" d="M102.901 72.8436C103.321 72.8436 107.801 73.3636 108.241 72.2436C108.681 71.1236 104.881 68.6436 105.301 68.3836C105.721 68.1236 105.901 65.3636 106.601 65.3636C107.301 65.3636 113.561 65.5436 113.921 65.3636C114.281 65.1836 115.461 62.9436 116.501 62.8636C116.961 62.8636 117.701 63.4036 118.381 64.0436C119.51 62.4438 120.13 60.5411 120.161 58.5836C120.421 56.1636 119.621 55.3636 120.881 54.0436C122.141 52.7236 123.461 52.6036 123.101 50.7236C122.741 48.8436 121.101 50.7236 119.621 49.8436C118.141 48.9636 116.941 49.5836 113.301 50.1036C109.661 50.6236 107.941 52.1036 108.121 54.7436C108.301 57.3836 106.881 56.1636 106.961 58.4036C107.041 60.6436 104.101 60.7236 104.281 62.0636C104.461 63.4036 101.961 62.0636 101.261 61.6036C100.561 61.1436 92.8814 63.4836 91.8014 63.6036C90.7214 63.7236 88.7614 61.3836 87.2614 61.4636C85.7614 61.5436 85.1214 59.2236 84.9414 57.4636C84.7614 55.7036 81.9014 53.9036 80.6614 52.2036C79.4214 50.5036 79.2214 46.7636 79.1414 44.3436C78.8112 40.5512 79.2674 36.7315 80.4814 33.1236C80.6711 32.5808 80.7921 32.0164 80.8414 31.4436C80.3485 31.0843 79.7685 30.8633 79.1614 30.8036C77.6414 30.9036 74.2214 28.8036 73.5414 28.8036C72.8614 28.8036 72.9814 27.1836 72.4014 26.3236C71.8214 25.4636 72.2014 23.8636 71.4414 23.2836C69.6916 21.8689 68.3749 19.9908 67.6414 17.8636C66.8814 15.1836 62.2014 13.8636 60.5014 13.8636C58.8014 13.8636 57.8214 17.3836 57.3414 17.5836C55.7094 16.9466 54.1477 16.1423 52.6814 15.1836C51.7388 14.6909 51.1804 13.6841 51.2614 12.6236C51.2614 11.4836 49.2614 9.66359 48.6814 9.48359C47.0764 8.2071 45.5471 6.83811 44.1014 5.38359H37.8214L36.4814 7.0836L25.0614 7.18359C25.0614 7.18359 16.3014 3.94359 14.6814 3.56359C13.0892 2.97233 11.5826 2.17199 10.2014 1.18359L0.941406 2.40359C1.51197 3.6022 2.23094 4.72433 3.08141 5.74359C4.75368 8.09371 5.90594 10.7732 6.46141 13.6036C6.64141 15.0236 9.22141 16.1836 11.4614 17.6036C13.1015 18.8584 13.8787 20.9412 13.4614 22.9636C13.2014 23.7636 10.4214 22.4236 10.2414 23.2236C10.0614 24.0236 13.8214 27.2236 15.2414 26.9836C16.6614 26.7436 17.3814 27.6836 19.6214 29.6436C21.8614 31.6036 21.6214 33.9236 20.7614 34.6436C19.9014 35.3636 22.5614 36.8636 25.4014 38.7436C27.3775 39.9312 28.8878 41.759 29.6814 43.9236C29.9614 44.9036 31.2014 43.9236 31.6814 42.6636C32.1614 41.4036 30.8014 40.9836 30.8014 39.4636C30.8014 37.9436 28.4814 38.2036 27.4014 38.0236C26.3214 37.8436 27.4014 35.5436 26.4214 34.4636C25.1834 32.7584 24.3055 30.819 23.8414 28.7636C23.3014 26.7636 20.5414 24.7636 19.3814 22.7636C18.6052 21.112 17.5189 19.6251 16.1814 18.3836C15.3814 17.8436 17.3414 17.0436 16.6214 16.2436C15.9014 15.4436 14.8414 15.5236 13.5014 14.9036C12.1896 14.4161 11.3039 13.1824 11.2614 11.7836C11.0618 9.73819 10.6186 7.72393 9.94141 5.78359C9.48141 4.62359 10.9214 4.80359 11.3614 5.34359C11.8014 5.88359 12.1614 6.42359 12.7814 6.06359C13.1808 5.88614 13.6354 5.87978 14.0396 6.04599C14.4438 6.2122 14.7624 6.53652 14.9214 6.9436C15.3814 7.9236 16.9214 7.04359 17.6014 7.48359C18.2814 7.92359 16.0014 8.46359 18.3214 12.5636C20.6414 16.6636 19.0214 14.3436 19.0214 17.1236C19.0214 19.9036 20.4614 18.6236 20.9014 18.1836C21.3414 17.7436 22.6014 19.0836 23.7614 20.5036C24.9214 21.9236 27.1414 22.0236 27.1414 22.8236C27.093 24.0767 27.9264 25.1934 29.1414 25.5036C30.6614 25.7636 30.9214 27.5036 31.9014 27.6436C32.8814 27.7836 33.0614 28.8836 32.5414 30.0436C32.0214 31.2036 32.5414 32.1836 35.0214 33.1636C37.5014 34.1436 36.3614 34.3236 38.3214 36.2036C41.3877 39.2438 44.2791 42.4557 46.9814 45.8236C47.8652 47.1743 48.5395 48.6511 48.9814 50.2036C49.4214 51.4436 48.0814 52.0636 48.8014 53.1436C49.5214 54.2236 47.4614 53.7636 47.5614 54.5636C47.6614 55.3636 48.8014 59.3836 50.7614 59.5636C52.7214 59.7436 54.9614 62.1436 56.5614 63.5636C58.1614 64.9836 60.5614 64.6436 62.9814 65.5636C65.4014 66.4836 67.4414 68.6036 70.9814 69.5636C74.1827 70.4764 77.2443 71.8222 80.0814 73.5636C82.3014 74.9836 85.0614 74.3636 88.1814 73.1236C91.3014 71.8836 93.7214 73.4836 95.5014 74.1836C97.0681 75.1382 98.5179 76.2726 99.8214 77.5636C100.731 75.9169 101.76 74.3393 102.901 72.8436Z" fill="#294F6E" stroke="#002F57" stroke-width="0.75"/>
<path fill-rule="evenodd" clip-rule="evenodd" d="M114.601 76.4638C115.408 75.7997 116.139 75.0484 116.781 74.2238C115.381 74.9838 114.941 74.2238 115.161 73.2838L113.161 73.5438L113.361 65.4238C111.741 65.4238 107.201 65.4238 106.621 65.4238C106.041 65.4238 105.761 68.1838 105.321 68.4438C104.881 68.7038 108.681 71.1838 108.261 72.3038C107.841 73.4238 103.341 72.8238 102.921 72.9038C101.719 74.2768 100.616 75.7339 99.6211 77.2638C101.028 78.5934 102.503 79.8485 104.041 81.0238C105.741 82.0838 108.501 80.9238 109.661 82.0038L109.781 82.1038C110.639 81.202 111.598 80.4032 112.641 79.7238C113.481 79.4038 112.741 77.9438 114.601 76.4638Z" fill="#294F6E" stroke="#002F57" stroke-width="0.75"/>
<path fill-rule="evenodd" clip-rule="evenodd" d="M113.922 65.3638H113.342L113.142 73.4838L115.142 73.2238C115.329 72.4361 115.772 71.7327 116.402 71.2238C118.002 69.9838 115.582 64.9837 117.462 64.5437C117.798 64.4427 118.106 64.2647 118.362 64.0238C117.682 63.3838 116.942 62.8038 116.482 62.8438C115.462 62.9438 114.262 65.2038 113.922 65.3638Z" fill="#294F6E" stroke="#002F57" stroke-width="0.75"/>
<path fill-rule="evenodd" clip-rule="evenodd" d="M129.541 93.684C130.441 94.144 132.641 93.684 133.541 94.364C134.162 94.6686 134.869 94.7464 135.541 94.584C135.338 94.3015 135.151 94.0077 134.981 93.704C134.361 92.564 135.421 90.244 135.961 88.544C136.501 86.844 135.521 82.744 136.501 81.684C137.481 80.624 136.941 79.984 137.381 77.484C137.4 77.3513 137.4 77.2166 137.381 77.084C135.381 77.084 133.381 78.904 132.681 78.964C131.981 79.024 129.161 78.364 128.801 79.824C128.441 81.284 126.801 81.544 124.421 81.824C122.041 82.104 123.301 83.964 123.121 84.324C122.772 84.7481 122.368 85.1246 121.921 85.444L120.441 85.784C120.244 86.3742 120.507 87.0199 121.061 87.304C122.481 88.104 124.441 91.304 125.961 92.024C126.611 92.3718 127.1 92.9605 127.321 93.664C128.053 93.5062 128.812 93.5131 129.541 93.684Z" fill="#294F6E" stroke="#002F57" stroke-width="0.75"/>
<path fill-rule="evenodd" clip-rule="evenodd" d="M259.621 279.203C262.121 277.403 261.501 276.343 262.661 274.203C263.821 272.063 262.841 271.163 264.801 269.303C266.761 267.443 264.441 266.183 266.941 265.023C269.441 263.863 269.081 266.083 266.941 268.663C264.801 271.243 264.541 271.963 267.221 270.003C269.901 268.043 270.861 265.283 272.381 262.163C273.901 259.043 275.061 258.163 276.381 257.883C277.701 257.603 277.721 254.403 277.541 252.083C277.361 249.763 276.641 247.623 277.541 246.083C278.441 244.543 277.541 243.143 278.801 243.143C280.061 243.143 281.921 241.283 283.881 239.303C285.212 237.802 287.135 236.962 289.141 237.003C291.141 236.823 290.041 236.103 291.361 235.743C292.578 235.205 293.648 234.382 294.481 233.343C295.381 232.543 299.041 233.343 301.181 233.343C303.321 233.343 304.741 233.523 304.741 232.183C304.714 231.567 304.936 230.965 305.358 230.513C305.779 230.062 306.364 229.799 306.981 229.783C308.221 229.783 308.761 229.423 308.761 227.643C308.628 226.229 309.233 224.846 310.361 223.983C311.441 223.183 311.621 221.403 311.961 220.243C312.301 219.083 313.481 219.783 313.481 218.103C313.481 216.423 314.101 214.523 314.101 213.203C314.101 211.883 315.541 212.043 316.101 211.063C316.661 210.083 315.561 208.823 316.541 206.063C317.521 203.303 316.541 200.703 316.541 198.223C316.541 195.743 316.541 193.123 317.441 192.223C318.341 191.323 317.881 190.983 317.161 190.623C316.441 190.263 317.261 189.283 317.881 189.463C318.501 189.643 319.221 190.983 320.381 190.263C321.541 189.543 322.601 186.523 323.581 184.023C324.561 181.523 326.181 181.623 327.421 181.083C330.074 179.059 332.036 176.265 333.041 173.083C334.741 168.723 333.041 164.443 332.241 161.403C331.441 158.363 330.541 159.003 328.761 159.083C326.981 159.163 323.581 158.723 319.121 153.903C316.324 150.386 311.657 148.941 307.361 150.263C304.421 151.063 301.361 148.823 299.361 148.383C297.361 147.943 295.521 150.383 294.101 150.963C292.681 151.543 294.821 148.823 294.901 147.143C294.981 145.463 289.561 143.023 285.461 141.423C281.361 139.823 279.561 140.623 279.561 143.203C279.561 145.783 277.961 142.403 276.721 145.203C275.481 148.003 273.141 146.183 274.721 145.203C276.356 144.078 277.578 142.448 278.201 140.563C278.741 138.863 272.321 137.543 270.081 138.423C267.841 139.303 269.281 142.523 267.501 141.543C265.721 140.563 267.141 138.163 268.561 138.243C269.981 138.323 271.601 135.403 272.561 133.263C273.521 131.123 270.861 130.763 269.261 128.963C267.661 127.163 268.001 122.063 266.381 121.243C264.402 123.063 262.787 125.241 261.621 127.663C260.781 130.203 259.621 128.743 257.401 129.463C255.961 130.187 254.205 129.661 253.401 128.263C252.801 127.303 250.501 128.263 248.921 128.143C247.341 128.023 248.321 130.143 247.241 130.683C246.161 131.223 243.381 129.463 242.401 130.563C241.421 131.663 240.841 130.563 240.401 131.523C239.961 132.483 238.221 131.883 237.741 132.483C237.261 133.083 235.561 133.463 233.401 131.043C231.241 128.623 231.581 124.643 232.561 123.923C233.059 123.47 233.309 122.806 233.234 122.136C233.159 121.467 232.767 120.875 232.181 120.543C230.861 119.943 232.181 117.403 230.501 117.163C228.821 116.923 229.061 119.163 227.961 119.443C226.861 119.723 224.221 121.623 223.021 121.443C221.821 121.263 220.241 121.683 220.241 123.003C220.241 124.323 218.921 123.983 218.661 122.883C218.401 121.783 215.901 122.403 215.161 121.683C214.421 120.963 211.061 121.323 212.521 122.163C213.653 122.713 214.288 123.942 214.081 125.183C214.081 126.523 215.161 126.143 215.161 127.723C215.161 129.303 216.381 128.203 217.161 128.203C217.941 128.203 218.001 129.663 216.681 129.903C215.527 130.048 214.598 130.921 214.381 132.063C214.021 133.283 212.821 132.423 211.721 133.403C210.621 134.383 209.721 135.403 208.961 134.843C208.201 134.283 207.621 134.723 206.781 135.203C205.941 135.683 205.581 135.203 204.361 134.243C203.461 133.523 202.901 131.783 201.301 130.243C200.044 130.857 198.691 131.249 197.301 131.403C195.881 131.403 191.461 131.083 191.301 131.843C191.111 132.728 191.537 133.63 192.341 134.043C193.081 134.203 194.601 134.663 193.161 135.703C191.721 136.743 190.421 135.343 190.421 137.863C190.421 140.383 193.661 142.043 193.001 144.383C192.547 146.179 192.266 148.014 192.161 149.863C192.161 151.063 191.701 155.103 190.621 155.343C189.541 155.583 188.621 154.383 187.181 155.583C185.741 156.783 183.961 156.043 182.301 157.363C180.641 158.683 178.861 158.183 178.741 159.743C178.621 161.303 177.061 162.123 177.421 163.543C177.781 164.963 176.721 164.603 175.641 165.683C174.561 166.763 175.761 167.463 175.041 168.303C174.321 169.143 175.281 170.443 176.121 171.743C176.961 173.043 177.901 174.003 177.781 175.203C177.661 176.403 178.621 176.863 179.781 176.743C180.941 176.623 180.021 179.003 181.921 179.003C183.821 179.003 185.721 179.483 186.201 178.403C186.681 177.323 187.981 176.403 187.981 178.043C187.981 179.683 187.641 183.763 188.941 183.283C190.666 182.843 192.479 182.884 194.181 183.403C195.393 183.825 196.74 183.496 197.621 182.563C198.461 181.743 199.401 181.743 201.061 180.783C202.46 179.71 204.09 178.977 205.821 178.643C207.361 178.643 209.981 177.683 209.621 178.883C209.014 181.569 209.489 184.385 210.941 186.723C212.841 188.983 213.901 189.823 215.681 189.583C217.461 189.343 217.241 190.303 218.541 190.183C219.841 190.063 219.021 191.603 220.201 191.603C221.381 191.603 223.541 191.843 223.541 193.143C223.541 194.443 227.101 193.383 227.941 194.103C228.781 194.823 229.721 195.403 229.481 196.843C229.241 198.283 231.261 199.323 230.081 199.923C228.901 200.523 230.441 201.703 230.561 203.263C230.681 204.823 232.341 205.403 234.961 205.263C237.581 205.123 238.281 205.383 238.281 207.263C238.281 209.143 240.061 209.403 240.661 211.263C241.261 213.123 239.941 215.063 240.181 216.483C240.306 217.551 239.838 218.602 238.961 219.223C239.881 220.403 239.961 220.923 239.121 221.383C238.281 221.843 240.461 223.663 239.861 226.323C239.261 228.983 239.141 229.463 241.861 229.583C244.581 229.703 244.401 230.543 245.361 229.943C246.321 229.343 247.781 231.943 248.141 233.323C248.501 234.703 249.601 237.783 250.141 237.783C250.681 237.783 252.141 236.343 253.521 237.063C254.901 237.783 253.181 242.283 253.141 244.263C254.025 244.169 254.918 244.23 255.781 244.443C256.501 244.803 256.861 249.683 256.501 250.583C256.141 251.483 253.161 252.283 251.621 253.283C248.999 255.385 246.742 257.906 244.941 260.743C243.889 262.259 242.704 263.677 241.401 264.983C241.795 265.082 242.207 265.082 242.601 264.983C243.421 264.623 244.601 264.623 246.041 266.243C247.481 267.863 247.301 269.143 247.841 269.043C248.381 268.943 249.021 266.883 250.101 268.423C251.181 269.963 253.981 271.123 254.621 271.843C255.261 272.563 257.321 273.123 257.321 275.003C256.97 277.008 257.114 279.068 257.741 281.003C258.284 280.322 258.916 279.716 259.621 279.203Z" fill="#294F6E" stroke="#002F57" stroke-width="0.75"/>
<path fill-rule="evenodd" clip-rule="evenodd" d="M257.321 274.943C257.321 273.063 255.321 272.503 254.621 271.783C253.921 271.063 251.181 269.883 250.101 268.363C249.021 266.843 248.381 268.903 247.841 268.983C247.301 269.063 247.381 267.803 246.041 266.183C244.701 264.563 243.421 264.563 242.601 264.923C242.207 265.021 241.795 265.021 241.401 264.923C240.75 265.519 240.314 266.314 240.161 267.183C240.161 268.903 238.901 270.803 238.801 274.063C238.701 277.323 237.821 276.763 237.721 279.303C237.621 281.843 238.541 281.303 238.901 281.743C239.261 282.183 238.901 282.743 238.601 283.423C238.979 283.914 239.562 284.202 240.181 284.203C241.998 284.171 243.789 284.634 245.361 285.543C247.361 286.423 246.601 285.263 248.481 285.543C250.515 285.999 252.645 285.708 254.481 284.723C255.78 283.687 256.866 282.41 257.681 280.963C257.071 279.016 256.947 276.949 257.321 274.943Z" fill="#294F6E" stroke="#002F57" stroke-width="0.75"/>
<path fill-rule="evenodd" clip-rule="evenodd" d="M206.741 385.404C204.501 385.304 200.141 381.204 198.741 380.144C197.341 379.084 198.381 378.004 196.741 378.264C195.101 378.524 196.201 377.024 197.101 376.564C198.001 376.104 196.781 374.564 195.681 374.384C195.561 376.784 195.061 387.524 195.681 387.644C196.301 387.764 201.061 387.084 202.441 388.004C202.981 388.164 203.721 388.604 204.281 388.004C205.161 387.024 207.841 387.564 209.281 386.664C210.721 385.764 208.881 385.484 206.741 385.404ZM256.141 244.604C255.279 244.39 254.385 244.329 253.501 244.424C253.491 244.563 253.491 244.704 253.501 244.844C253.741 246.524 252.641 250.844 251.501 250.744C250.361 250.644 249.321 252.564 248.361 252.324C247.401 252.084 246.061 253.764 244.861 253.044C243.661 252.324 241.961 253.284 241.001 252.684C240.041 252.084 237.261 252.564 237.261 251.844C237.261 251.124 238.581 251.364 238.581 249.184C238.581 247.004 242.201 244.584 241.721 243.744C241.241 242.904 235.081 241.084 234.241 240.004C233.162 238.622 231.533 237.782 229.781 237.704C227.361 237.464 227.481 236.264 225.301 234.944C223.111 233.389 221.221 231.452 219.721 229.224C218.261 229.064 216.161 228.764 215.721 229.224C215.281 229.684 214.161 233.224 213.341 231.584C212.521 229.944 210.481 229.924 208.701 229.684C206.921 229.444 207.041 227.784 205.141 229.804C204.25 230.726 203.257 231.545 202.181 232.244C202.145 233.842 201.868 235.427 201.361 236.944C200.881 237.784 196.901 239.604 196.781 240.564C196.661 241.524 197.261 242.864 196.541 243.464C195.821 244.064 198.221 247.084 196.901 247.804C195.581 248.524 197.861 249.804 197.021 250.464C196.181 251.124 194.601 251.544 194.601 252.464C194.601 253.384 194.481 255.364 193.401 255.844C192.229 256.671 191.546 258.029 191.581 259.464C191.581 260.784 189.901 259.944 190.501 261.624C191.101 263.304 191.821 265.384 190.501 265.744C189.181 266.104 189.541 268.884 188.801 268.884C188.061 268.884 187.721 271.764 188.801 273.224C189.718 274.351 190.194 275.772 190.141 277.224C190.141 278.544 191.581 279.224 191.101 280.724C190.621 282.224 190.861 283.504 190.021 284.104C189.181 284.704 189.901 286.524 188.801 287.004C187.701 287.484 189.661 291.344 188.801 292.064C187.941 292.784 185.801 293.404 185.801 296.064C185.97 297.825 186.01 299.596 185.921 301.364C185.681 302.324 187.121 302.084 186.881 303.664C186.641 305.244 184.701 304.264 184.581 305.224C184.461 306.184 185.061 308.124 184.341 308.244C183.621 308.364 183.261 309.084 183.261 310.784C183.261 312.484 182.301 312.784 182.181 313.564C182.061 314.344 183.021 315.364 183.021 316.344C183.021 317.324 183.621 320.564 182.781 320.684C181.941 320.804 181.441 324.424 182.181 324.904C182.83 325.438 182.983 326.369 182.541 327.084C182.181 327.804 184.221 328.524 183.141 329.624C182.061 330.724 182.921 332.104 184.341 331.624C185.761 331.144 186.341 333.444 184.941 333.444C183.541 333.444 182.301 333.444 183.381 334.284C184.461 335.124 185.561 336.284 183.981 336.944C182.401 337.604 183.741 338.624 183.381 340.084C183.021 341.544 184.461 342.864 183.261 343.224C182.061 343.584 183.741 345.744 182.061 345.984C180.381 346.224 181.441 347.804 180.361 348.644C179.281 349.484 181.801 350.944 180.481 351.784C179.161 352.624 180.121 354.564 178.801 354.564C177.481 354.564 176.801 356.364 176.621 357.224C176.441 358.084 175.661 359.764 176.741 360.964C177.821 362.164 176.501 363.124 177.461 363.624C178.421 364.124 181.681 363.364 181.201 364.824C180.721 366.284 180.841 369.404 181.441 369.404C182.041 369.404 182.421 371.224 183.441 371.104C185.799 370.754 188.193 370.714 190.561 370.984C191.37 371.218 192.111 371.643 192.721 372.224C193.761 371.764 196.021 373.244 196.541 372.744C197.061 372.244 194.321 369.784 194.401 368.984C194.481 368.184 193.961 366.844 193.961 365.964C193.961 365.084 193.501 363.104 194.761 362.204C196.021 361.304 196.101 360.424 196.901 360.604C197.701 360.784 199.301 359.904 199.401 357.764C199.501 355.624 200.461 354.804 202.241 353.304C204.021 351.804 207.421 350.084 206.981 349.304C206.541 348.524 207.681 346.284 207.681 345.304C207.681 344.324 204.661 344.604 203.681 344.244C202.701 343.884 199.121 341.384 200.921 338.084C202.349 335.813 204.82 334.408 207.501 334.344C208.581 334.244 207.601 332.744 208.481 332.204C209.361 331.664 209.561 330.784 209.561 329.444C209.561 328.104 209.561 325.444 211.161 325.344C212.761 325.244 213.161 324.264 212.241 324.004C211.321 323.744 210.801 322.564 212.421 322.384C214.041 322.204 213.481 323.724 214.641 323.724C215.801 323.724 217.761 321.724 216.241 320.604C214.721 319.484 214.241 321.144 213.481 321.324C212.721 321.504 212.061 320.244 211.261 320.244C210.461 320.244 210.981 318.024 210.641 317.224C210.301 316.424 209.741 314.464 210.461 313.484C211.181 312.504 214.201 314.984 216.881 315.164C219.561 315.344 221.501 313.824 221.501 312.844C221.501 311.864 220.261 310.084 221.861 309.024C223.461 307.964 222.141 307.584 221.681 306.164C221.221 304.744 222.401 303.844 223.121 304.564C223.841 305.284 229.121 304.824 233.461 303.944C237.801 303.064 240.861 301.444 241.121 300.184C242.187 298.328 243.412 296.568 244.781 294.924C245.401 293.864 244.882 292.524 243.081 292.244C241.281 291.964 241.401 289.924 242.381 288.784C243.361 287.644 241.841 286.544 240.141 286.364C238.441 286.184 235.781 285.024 237.301 283.604C238.021 282.904 238.381 283.044 238.741 283.364C239.001 282.684 239.241 281.884 239.041 281.684C238.841 281.484 237.781 281.684 237.861 279.244C237.941 276.804 238.861 277.244 238.941 274.004C239.021 270.764 240.301 268.844 240.301 267.124C240.301 265.404 243.382 263.424 245.081 260.624C246.979 257.814 249.331 255.34 252.041 253.304C253.581 252.304 256.561 251.504 256.921 250.604C257.281 249.704 256.741 244.964 256.061 244.604H256.141Z" fill="#294F6E" stroke="#002F57" stroke-width="0.75"/>
<path fill-rule="evenodd" clip-rule="evenodd" d="M183.302 371.104C182.342 371.224 181.982 369.404 181.302 369.404C180.622 369.404 180.582 366.264 181.062 364.824C181.542 363.384 178.282 364.104 177.322 363.624C176.362 363.144 177.682 362.164 176.602 360.964C175.522 359.764 176.362 358.064 176.482 357.224C176.602 356.384 177.322 354.564 178.662 354.564C180.002 354.564 179.022 352.564 180.342 351.784C181.662 351.004 179.142 349.484 180.222 348.644C181.302 347.804 180.222 346.224 181.922 345.984C183.622 345.744 181.922 343.584 183.122 343.224C184.322 342.864 182.882 341.524 183.242 340.084C183.602 338.644 182.282 337.544 183.842 336.944C185.402 336.344 184.322 335.124 183.242 334.284C182.162 333.444 183.482 333.444 184.802 333.444C186.122 333.444 185.422 331.264 184.202 331.624C182.982 331.984 181.922 330.664 183.002 329.624C184.082 328.584 182.042 327.804 182.402 327.084C182.844 326.369 182.69 325.438 182.042 324.904C181.302 324.424 181.782 320.804 182.642 320.684C183.502 320.564 182.882 317.304 182.882 316.344C182.882 315.384 181.922 314.344 182.042 313.564C182.162 312.784 183.122 312.464 183.122 310.784C183.122 309.104 183.482 308.364 184.202 308.244C184.922 308.124 184.322 306.244 184.442 305.224C184.562 304.204 186.442 305.224 186.742 303.664C187.042 302.104 185.542 302.324 185.782 301.364C185.871 299.597 185.83 297.825 185.662 296.064C185.662 293.404 187.822 292.804 188.662 292.064C189.502 291.324 187.582 287.484 188.662 287.004C189.742 286.524 189.042 284.704 189.882 284.104C190.722 283.504 190.482 282.104 190.962 280.724C191.442 279.344 190.002 278.544 190.002 277.224C190.054 275.772 189.578 274.351 188.662 273.224C187.582 271.764 187.942 268.884 188.662 268.884C189.382 268.884 189.042 266.104 190.362 265.744C191.682 265.384 190.962 263.324 190.362 261.624C189.762 259.924 191.442 260.784 191.442 259.464C191.406 258.029 192.089 256.671 193.262 255.844C194.342 255.364 194.462 253.304 194.462 252.464C194.462 251.624 196.042 251.244 196.882 250.464C197.722 249.684 195.422 248.464 196.762 247.804C198.102 247.144 195.682 244.064 196.402 243.464C197.122 242.864 196.522 241.464 196.642 240.564C196.762 239.664 200.742 237.784 201.222 236.944C201.728 235.427 202.005 233.843 202.042 232.244C200.802 233.044 199.722 233.484 199.522 233.024C199.162 232.184 199.642 229.684 198.582 228.624C197.522 227.564 198.222 225.404 197.142 224.944C196.062 224.484 194.762 222.324 195.722 221.604C196.682 220.884 195.722 219.464 196.542 218.744C197.362 218.024 196.082 217.924 194.882 216.504C193.682 215.084 195.362 213.284 193.942 212.204C192.522 211.124 192.502 209.844 192.142 210.424C191.782 211.004 191.682 213.044 190.482 213.644C190.171 213.823 189.882 214.038 189.622 214.284C189.422 215.476 189.422 216.692 189.622 217.884C190.256 221.302 190.344 224.799 189.882 228.244C189.46 230.272 188.926 232.275 188.282 234.244C187.742 235.764 189.522 235.844 188.802 236.564C188.082 237.284 188.362 239.064 188.362 241.904C188.362 244.744 186.662 249.584 186.582 251.104C186.502 252.624 185.342 253.584 185.522 255.284C185.603 256.686 184.913 258.02 183.722 258.764C182.742 259.564 185.342 262.144 185.242 263.584C185.142 265.024 183.242 265.584 183.722 267.944C184.009 270.884 184.009 273.844 183.722 276.784C183.722 277.764 182.562 277.664 182.842 279.544C183.122 281.424 181.682 281.864 181.402 284.524C180.704 287.497 179.656 290.377 178.282 293.104C177.482 295.104 177.482 296.304 176.422 296.304C175.362 296.304 175.082 297.464 175.882 299.244C176.682 301.024 175.342 302.544 176.422 304.324C177.502 306.104 177.122 306.744 176.602 308.424C176.082 310.104 175.342 310.224 175.342 311.824C175.342 313.424 174.102 314.764 174.822 316.544C175.542 318.324 175.342 318.964 174.462 318.964C173.582 318.964 173.122 320.384 172.762 323.324C172.402 326.264 172.502 326.184 174.642 326.004C176.782 325.824 175.082 318.784 176.422 318.784C177.762 318.784 176.602 317.624 177.942 317.264C179.282 316.904 178.102 318.504 179.002 318.784C179.902 319.064 180.522 319.764 179.262 320.564C178.002 321.364 179.542 322.964 178.922 323.944C178.302 324.924 177.402 325.944 177.942 327.164C178.482 328.384 177.302 328.224 177.222 329.744C177.142 331.264 178.022 331.344 177.402 331.744C176.782 332.144 178.202 333.264 177.402 333.444C176.602 333.624 177.062 334.784 177.582 335.844C178.102 336.904 176.422 336.284 175.582 337.004C174.742 337.724 176.462 338.704 175.942 339.684C175.422 340.664 173.942 339.144 173.342 338.604C172.742 338.064 174.322 337.004 175.122 335.944C175.922 334.884 174.322 332.464 172.982 332.984C171.642 333.504 174.322 334.984 174.322 336.204C174.322 337.424 172.102 335.944 172.182 337.184C172.262 338.424 170.682 337.984 169.862 338.884C169.042 339.784 170.942 340.584 170.042 340.884C169.142 341.184 167.642 342.404 167.542 343.284C167.442 344.164 168.522 344.364 168.522 343.464C168.522 342.564 169.962 342.304 170.402 343.464C170.842 344.624 171.482 343.464 172.722 343.744C173.962 344.024 173.802 345.884 173.082 345.744C172.362 345.604 171.662 346.904 171.822 348.244C171.982 349.584 174.502 348.244 175.582 348.604C176.662 348.964 176.282 350.824 175.582 350.204C174.882 349.584 173.582 348.504 172.902 349.584C172.222 350.664 171.302 350.124 170.502 349.764C169.702 349.404 166.842 351.284 167.822 351.984C168.802 352.684 168.722 353.864 169.342 353.764C170.16 353.67 170.893 353.215 171.342 352.524C171.702 351.804 172.942 351.104 173.042 352.704C173.142 354.304 171.342 353.504 171.042 354.404C170.572 355.392 169.829 356.224 168.902 356.804C168.432 357.052 168.253 357.635 168.502 358.104C168.75 358.573 169.332 358.753 169.802 358.504C170.702 358.044 169.542 359.564 170.782 359.744C172.022 359.924 172.302 359.024 172.022 358.144C171.742 357.264 172.662 355.284 173.722 356.264C174.782 357.244 173.182 358.264 173.182 359.124C173.182 359.984 172.562 361.124 172.562 362.144C172.562 363.164 171.402 362.604 171.502 363.664C171.602 364.724 169.002 364.024 170.162 364.744C171.322 365.464 169.442 366.444 170.062 367.144C170.682 367.844 171.222 366.164 172.202 366.524C173.182 366.884 173.002 367.144 174.202 366.524C175.402 365.904 176.202 367.504 175.002 367.864C173.802 368.224 172.602 369.564 173.122 369.744C173.642 369.924 175.122 368.844 175.542 370.004C175.962 371.164 176.782 370.804 176.882 369.564C176.982 368.324 179.102 369.384 179.462 370.464C179.822 371.544 177.222 372.144 175.902 371.884C174.582 371.624 173.902 373.124 174.742 374.284C175.582 375.444 176.742 374.284 177.682 373.304C178.622 372.324 183.482 372.604 183.822 373.664C184.162 374.724 181.602 373.844 181.342 374.464C181.082 375.084 179.102 375.624 178.842 374.924C178.582 374.224 176.702 375.184 176.602 376.344C176.502 377.504 175.082 377.504 176.602 377.944C178.122 378.384 177.762 376.244 180.242 376.424C182.722 376.604 184.082 374.104 184.802 375.544C185.522 376.984 182.802 378.124 181.762 377.224C180.722 376.324 179.622 377.864 179.762 379.224C179.902 380.584 176.902 378.864 175.482 378.684C174.062 378.504 174.682 380.024 175.922 381.364C177.162 382.704 177.922 381.184 179.402 382.164C180.882 383.144 180.922 384.164 181.982 383.224C183.042 382.284 181.982 382.344 181.282 381.884C180.582 381.424 181.182 379.884 182.882 380.724C183.717 381.1 184.696 380.944 185.373 380.327C186.05 379.711 186.297 378.751 186.002 377.884C185.462 375.744 187.522 374.764 189.562 374.044C191.602 373.324 190.542 375.384 189.022 376.044C187.502 376.704 187.242 377.124 188.402 378.364C189.562 379.604 191.082 377.564 192.062 378.544C193.042 379.524 190.282 379.344 189.842 380.324C189.402 381.304 191.522 382.464 190.002 383.184C188.482 383.904 189.202 380.244 188.322 379.884C187.442 379.524 186.622 380.324 187.522 382.384C188.422 384.444 186.442 382.644 185.522 381.664C184.602 380.684 183.382 382.104 184.442 383.184C185.502 384.264 182.442 383.084 182.442 384.784C182.442 386.484 183.762 385.044 185.382 385.404C187.002 385.764 186.262 388.084 187.382 388.984C188.502 389.884 187.562 386.124 188.802 385.864C190.042 385.604 188.802 388.704 191.662 389.604C194.522 390.504 191.842 389.064 193.102 388.164C194.362 387.264 195.942 390.844 197.282 391.204C198.622 391.564 197.722 389.604 196.742 388.524C195.762 387.444 197.722 388.084 199.062 388.524C200.402 388.964 201.482 389.144 201.742 388.164C201.742 387.804 202.082 387.804 202.402 387.924C201.022 387.004 196.282 387.664 195.642 387.564C195.002 387.464 195.482 376.764 195.642 374.304H195.362C194.202 374.304 191.622 374.564 192.062 372.784C192.108 372.521 192.28 372.297 192.522 372.184C191.911 371.604 191.171 371.178 190.362 370.944C188.011 370.693 185.638 370.746 183.302 371.104Z" fill="#294F6E" stroke="#002F57" stroke-width="0.75"/>
<path fill-rule="evenodd" clip-rule="evenodd" d="M253.801 237.224C252.341 236.504 250.901 237.944 250.421 237.944C249.941 237.944 248.841 234.804 248.421 233.484C248.001 232.164 246.621 229.484 245.641 230.104C244.661 230.724 244.921 229.864 242.141 229.744C239.361 229.624 239.501 229.144 240.141 226.484C240.781 223.824 238.321 222.144 239.401 221.544C240.481 220.944 240.161 220.564 239.241 219.384C239.045 219.533 238.807 219.617 238.561 219.624C237.601 219.624 236.421 217.964 234.761 217.964C233.198 217.798 231.617 217.962 230.121 218.444C228.921 219.024 226.661 218.324 225.241 219.264C223.821 220.204 222.041 222.244 222.161 223.064C222.281 223.884 221.681 229.064 220.961 229.264C220.503 229.321 220.039 229.321 219.581 229.264C221.08 231.492 222.971 233.43 225.161 234.984C227.341 236.304 227.161 237.504 229.641 237.744C231.392 237.822 233.022 238.663 234.101 240.044C234.941 241.124 241.101 242.944 241.581 243.784C242.061 244.624 238.441 247.044 238.441 249.224C238.441 251.404 237.121 251.224 237.121 251.884C237.121 252.544 239.901 252.124 240.861 252.724C241.821 253.324 243.521 252.364 244.721 253.084C245.921 253.804 247.261 252.124 248.221 252.364C249.181 252.604 250.221 250.664 251.361 250.784C252.501 250.904 253.661 246.564 253.361 244.884C253.061 243.204 255.241 237.944 253.801 237.224Z" fill="#294F6E" stroke="#002F57" stroke-width="0.75"/>
<path fill-rule="evenodd" clip-rule="evenodd" d="M138.882 102.084C138.732 101.188 138.956 100.27 139.502 99.544C138.07 97.972 136.735 96.3157 135.502 94.584C134.83 94.7464 134.122 94.6686 133.502 94.364C132.622 93.684 130.422 94.144 129.502 93.684C128.78 93.4799 128.021 93.4389 127.282 93.564C127.544 94.0988 127.422 94.7425 126.982 95.144C126.504 95.7073 126.348 96.4752 126.567 97.1803C126.786 97.8853 127.349 98.4298 128.062 98.624C130.062 99.424 129.402 98.164 130.382 98.164C131.362 98.164 131.262 99.684 132.162 99.684C133.062 99.684 135.102 100.764 135.002 102.184C134.902 103.604 135.722 104.184 137.322 104.184H138.302C138.622 103.364 139.022 102.584 138.882 102.084Z" fill="#294F6E" stroke="#002F57" stroke-width="0.75"/>
<path fill-rule="evenodd" clip-rule="evenodd" d="M159.301 102.104C157.881 99.9639 155.301 100.104 153.681 99.4239C152.061 98.7439 150.041 99.6839 147.981 101.564C145.921 103.444 143.341 102.364 141.561 101.384C140.82 100.857 140.149 100.238 139.561 99.5439C139.016 100.27 138.792 101.188 138.941 102.084C139.081 102.584 138.681 103.364 138.401 104.304C140.343 104.476 142.169 105.301 143.581 106.644C144.921 108.244 145.721 107.184 146.521 108.644C147.321 110.104 149.201 108.644 149.641 107.844C150.081 107.044 148.661 106.604 148.481 105.624C148.301 104.644 150.261 104.984 150.621 103.624C150.981 102.264 153.841 101.624 155.081 102.204C156.321 102.784 157.401 103.624 156.241 104.964C155.381 105.964 157.141 107.764 158.621 109.164C159.466 108.229 160.368 107.347 161.321 106.524C161.643 106.178 161.84 105.735 161.881 105.264C160.83 104.382 159.955 103.31 159.301 102.104Z" fill="#294F6E" stroke="#002F57" stroke-width="0.75"/>
<path fill-rule="evenodd" clip-rule="evenodd" d="M161.782 137.043C162.727 137.619 163.916 137.619 164.862 137.043C165.222 136.583 166.242 137.603 167.742 139.283L167.922 139.483C169.038 139.104 170.242 139.062 171.382 139.363C172.502 140.063 172.222 142.583 173.762 142.723C175.302 142.863 176.422 144.403 176.282 145.243C176.142 146.083 177.962 146.503 177.822 147.763C177.682 149.023 181.822 148.743 182.442 148.323C183.128 147.812 184.035 147.705 184.822 148.043C185.522 148.463 186.822 147.623 187.482 147.903C188.142 148.183 190.982 149.303 190.422 150.283C189.862 151.263 187.902 152.803 188.322 153.643C188.742 154.483 190.102 154.723 190.702 155.643H190.902C191.982 155.403 192.442 151.363 192.442 150.163C192.547 148.314 192.828 146.479 193.282 144.683C193.942 142.343 190.702 140.683 190.702 138.163C190.702 135.643 191.982 137.043 193.442 136.003C194.902 134.963 193.442 134.503 192.622 134.343C191.817 133.929 191.391 133.027 191.582 132.143C191.822 131.383 196.242 131.703 197.582 131.703C199.168 131.513 200.699 131.003 202.082 130.203C202.29 129.451 202.001 128.65 201.362 128.203C200.262 127.343 200.682 126.203 201.522 125.183C202.362 124.163 201.002 123.183 199.942 122.083C198.882 120.983 199.702 116.703 200.922 114.723C202.142 112.743 198.462 113.203 196.202 113.483C194.019 113.755 191.862 112.811 190.582 111.023C189.142 109.183 187.162 110.343 183.702 110.423C180.242 110.503 180.922 106.603 181.082 105.123C181.242 103.643 179.322 103.423 179.322 102.463C179.322 101.503 178.322 101.503 177.322 101.583C176.322 101.663 177.322 100.483 177.942 99.7232C178.562 98.9632 178.502 98.3632 178.542 96.7432C178.582 95.1232 180.902 93.7832 182.082 92.2032C182.397 91.8218 182.823 91.5489 183.302 91.4232C183.456 90.9998 183.834 90.6986 184.282 90.6432C186.062 90.2832 186.942 89.1232 185.262 88.1432C183.582 87.1632 182.582 90.0232 180.702 90.2832C178.822 90.5432 178.482 91.7032 177.222 92.2832C175.962 92.8632 173.662 92.2832 173.582 93.4432C173.502 94.6032 172.762 93.4432 171.702 93.1632C170.642 92.8832 167.862 95.3032 167.962 96.6432C168.062 97.9832 168.482 99.2432 166.522 100.483C164.926 101.782 163.571 103.353 162.522 105.123C162.321 105.403 161.943 105.489 161.642 105.323C161.601 105.794 161.403 106.237 161.082 106.583C160.128 107.407 159.226 108.288 158.382 109.223C158.882 109.703 159.342 110.123 159.662 110.463C160.902 111.803 160.102 112.883 160.462 113.583C160.822 114.283 161.182 115.363 160.462 115.823C159.742 116.283 160.462 121.163 161.182 122.063C161.902 122.963 161.182 123.763 160.282 125.543C159.382 127.323 158.582 128.123 156.982 128.203C155.382 128.283 155.462 130.803 154.982 130.803C154.502 130.803 154.242 131.703 154.182 132.483C155.63 133.735 157.318 134.681 159.142 135.263C160.122 135.183 160.742 136.383 161.782 137.043Z" fill="#294F6E" stroke="#002F57" stroke-width="0.75"/>
<path fill-rule="evenodd" clip-rule="evenodd" d="M240.962 211.424C240.362 209.644 238.582 209.424 238.582 207.424C238.582 205.424 237.862 205.284 235.262 205.424C232.662 205.564 230.962 204.944 230.862 203.424C230.762 201.904 229.182 200.684 230.382 200.084C231.582 199.484 229.542 198.424 229.782 197.004C230.022 195.584 229.062 195.004 228.242 194.264C227.422 193.524 223.842 194.624 223.842 193.304C223.842 191.984 221.702 191.764 220.502 191.764C219.302 191.764 220.162 190.224 218.842 190.344C217.522 190.464 217.782 189.504 215.982 189.744C214.182 189.984 213.142 189.144 211.242 186.884C209.789 184.545 209.315 181.729 209.922 179.044C210.282 177.844 207.662 178.804 206.122 178.804C204.39 179.138 202.761 179.87 201.362 180.944C199.702 181.904 198.762 181.904 197.922 182.724C197.04 183.657 195.694 183.985 194.482 183.564C194.042 183.412 193.585 183.311 193.122 183.264C193.822 185.004 195.522 187.884 195.902 188.904C196.282 189.924 195.302 190.584 194.822 191.044C194.342 191.504 195.062 195.804 195.182 196.764C195.302 197.724 193.522 199.484 194.222 200.084C194.922 200.684 193.282 202.464 193.282 203.544C193.282 204.624 194.822 204.604 194.822 205.444C194.537 206.754 193.8 207.922 192.742 208.744C192.302 209.004 192.302 209.664 192.402 210.404C192.662 210.404 192.822 211.404 194.062 212.304C195.302 213.204 193.822 215.164 195.002 216.604C196.182 218.044 197.502 218.144 196.662 218.844C195.822 219.544 196.782 220.984 195.842 221.704C194.902 222.424 196.202 224.564 197.262 225.044C198.322 225.524 197.622 227.644 198.702 228.724C199.782 229.804 199.282 232.284 199.642 233.124C200.002 233.964 203.202 231.924 205.122 229.904C207.042 227.884 206.902 229.564 208.682 229.784C210.462 230.004 212.482 230.024 213.322 231.684C214.162 233.344 215.102 230.024 215.702 229.324C216.302 228.624 220.322 229.564 221.042 229.324C221.762 229.084 222.362 223.964 222.242 223.124C222.122 222.284 223.902 220.284 225.322 219.324C226.742 218.364 229.002 219.084 230.202 218.504C231.698 218.022 233.279 217.858 234.842 218.024C236.502 218.024 237.682 219.684 238.642 219.684C239.602 219.684 240.782 218.144 240.642 216.704C240.502 215.264 241.562 213.204 240.962 211.424Z" fill="#294F6E" stroke="#002F57" stroke-width="0.75"/>
<path fill-rule="evenodd" clip-rule="evenodd" d="M192.201 210.464C192.201 210.464 192.301 210.344 192.341 210.344C192.241 209.604 192.241 208.944 192.681 208.684C193.743 207.897 194.499 206.766 194.821 205.484C194.821 204.644 193.281 204.644 193.281 203.584C193.281 202.524 194.941 200.724 194.221 200.124C193.501 199.524 195.301 197.744 195.181 196.804C195.061 195.864 194.341 191.564 194.821 191.084C195.301 190.604 196.381 190.264 195.901 188.944C195.421 187.624 193.901 184.944 193.121 183.304C191.83 183.084 190.507 183.145 189.241 183.484C187.941 183.964 188.281 179.784 188.281 178.244C188.281 176.704 186.981 177.544 186.501 178.604C186.021 179.664 184.121 179.204 182.221 179.204C180.321 179.204 181.281 176.824 180.081 176.944C178.881 177.064 177.941 176.584 178.081 175.404C178.221 174.224 177.241 173.264 176.421 171.944C175.601 170.624 174.641 169.324 175.341 168.504C176.041 167.684 174.881 166.944 175.941 165.884C177.001 164.824 178.081 165.164 177.721 163.744C177.361 162.324 178.921 161.484 179.041 159.944C179.161 158.404 181.041 158.864 182.601 157.564C184.161 156.264 186.041 156.964 187.481 155.784C188.921 154.604 189.741 155.624 190.721 155.544C190.121 154.724 188.721 154.304 188.341 153.544C187.961 152.784 189.881 151.164 190.441 150.184C191.001 149.204 188.201 148.084 187.501 147.804C186.801 147.524 185.501 148.364 184.841 147.944C184.055 147.606 183.148 147.713 182.461 148.224C181.901 148.644 177.701 148.924 177.841 147.664C177.981 146.404 176.161 145.984 176.301 145.144C176.441 144.304 175.321 142.764 173.781 142.624C172.241 142.484 172.521 139.964 171.401 139.264C170.261 138.963 169.058 139.005 167.941 139.384C169.281 140.884 169.761 141.524 168.881 142.244C167.701 143.184 168.881 143.364 166.641 146.244C164.401 149.124 160.641 149.964 158.741 150.524C156.841 151.084 156.141 154.524 155.121 156.944C154.101 159.364 153.261 158.524 152.241 157.124C151.221 155.724 150.381 157.404 149.161 156.284C147.941 155.164 148.521 155.184 149.161 154.284C149.521 153.784 149.161 152.984 148.381 152.284C147.061 152.544 145.721 154.384 145.061 155.784C144.401 157.184 146.301 160.244 146.581 161.324C146.861 162.404 145.501 161.324 145.321 162.384C145.141 163.444 148.261 164.784 149.701 165.864C151.141 166.944 152.361 169.964 153.701 171.384C155.041 172.804 155.141 174.064 156.561 177.544C158.222 181.704 160.313 185.679 162.801 189.404C164.801 191.904 165.661 193.864 165.221 194.584C164.781 195.304 165.221 197.264 166.721 198.244C168.654 199.972 170.781 201.469 173.061 202.704C176.801 204.564 183.661 208.124 184.661 209.824C185.981 211.373 187.618 212.621 189.461 213.484C189.641 213.484 189.681 213.864 189.701 214.244C189.962 213.998 190.251 213.783 190.561 213.604C191.741 213.084 191.861 211.064 192.201 210.464Z" fill="#294F6E" stroke="#002F57" stroke-width="0.75"/>
<path fill-rule="evenodd" clip-rule="evenodd" d="M182.261 92.0638C181.081 93.6438 178.761 95.0038 178.721 96.6038C178.681 98.2038 178.721 98.8238 178.121 99.5838C177.521 100.344 176.621 101.584 177.501 101.444C178.381 101.304 179.501 101.444 179.501 102.324C179.501 103.204 181.501 103.484 181.261 104.984C181.021 106.484 180.421 110.364 183.881 110.284C187.341 110.204 189.321 109.044 190.761 110.884C192.042 112.672 194.199 113.616 196.381 113.344C198.641 113.064 202.381 112.624 201.101 114.584C199.821 116.544 199.101 120.784 200.121 121.944C201.141 123.104 202.541 124.084 201.701 125.044C200.861 126.004 200.441 127.204 201.541 128.064C202.181 128.51 202.47 129.312 202.261 130.064C202.101 130.216 201.91 130.332 201.701 130.404C203.301 132.004 203.861 133.744 204.761 134.404C205.981 135.364 206.341 135.844 207.181 135.364C208.021 134.884 208.621 134.524 209.361 135.004C210.101 135.484 211.041 134.524 212.121 133.564C213.201 132.604 214.421 133.444 214.781 132.224C214.998 131.081 215.927 130.208 217.081 130.064C218.401 129.824 218.401 128.364 217.561 128.364C216.721 128.364 215.561 129.444 215.561 127.884C215.561 126.324 214.481 126.684 214.481 125.344C214.688 124.103 214.053 122.874 212.921 122.324C211.461 121.484 214.921 121.124 215.561 121.844C216.201 122.564 218.821 121.964 219.061 123.044C219.301 124.124 220.641 124.504 220.641 123.164C220.641 121.824 222.201 121.364 223.421 121.604C224.641 121.844 227.281 120.044 228.361 119.604C228.941 119.424 229.141 118.744 229.441 118.164C228.65 117.02 227.775 115.937 226.821 114.924C225.941 114.204 227.401 113.784 227.241 112.764C227.081 111.744 227.241 111.024 229.121 110.884C231.001 110.744 230.721 109.284 229.701 108.724C228.681 108.164 230.141 106.544 231.141 105.964C231.803 105.44 232.313 104.749 232.621 103.964C230.733 103.415 228.762 103.212 226.801 103.364C225.281 103.364 227.781 101.684 227.861 100.064C227.941 98.4438 223.581 98.2038 221.861 97.8438C220.141 97.4838 220.621 95.7038 222.401 95.6238C224.181 95.5438 221.421 94.2838 219.021 94.6238C216.309 95.153 213.693 96.0903 211.261 97.4038C209.261 98.4638 205.901 94.2838 203.681 95.1638C201.461 96.0438 198.321 96.0638 198.421 94.2838C198.571 93.4191 198.29 92.5358 197.67 91.9153C197.049 91.2948 196.166 91.0145 195.301 91.1638C193.061 91.3238 193.601 88.9238 191.901 88.9238C190.201 88.9238 191.901 90.9238 190.741 91.5038C189.581 92.0838 185.581 93.0238 185.301 94.6238C185.021 96.2238 187.441 98.9238 186.641 100.524C185.841 102.124 183.161 100.784 182.361 99.0838C181.561 97.3838 184.681 94.8038 184.141 93.8238C183.635 92.9914 183.45 92.0029 183.621 91.0438C183.057 91.2031 182.572 91.5667 182.261 92.0638Z" fill="#294F6E" stroke="#002F57" stroke-width="0.75"/>
<path fill-rule="evenodd" clip-rule="evenodd" d="M243.261 116.743C243.841 117.903 242.541 118.483 241.381 118.623C240.221 118.763 240.521 121.363 239.801 122.083C239.081 122.803 242.541 124.683 243.121 126.283C243.822 127.831 244.616 129.334 245.501 130.783C246.133 131.055 246.838 131.104 247.501 130.923C248.581 130.323 247.621 128.263 249.181 128.383C250.741 128.503 253.061 127.543 253.661 128.503C253.77 128.689 253.897 128.864 254.041 129.023C254.561 128.263 255.101 127.423 255.241 127.143C255.561 125.355 255.409 123.515 254.801 121.803C254.163 120.197 254.438 118.371 255.521 117.023C255.906 116.41 256.177 115.733 256.321 115.023C255.078 114.412 253.707 114.104 252.321 114.123C250.181 114.383 247.941 115.363 247.141 114.123C246.341 112.883 245.141 113.143 244.101 114.123C243.997 114.215 243.857 114.252 243.721 114.223C243.341 115.283 242.981 116.243 243.261 116.743Z" fill="#294F6E" stroke="#002F57" stroke-width="0.75"/>
<path fill-rule="evenodd" clip-rule="evenodd" d="M230.981 106.124C229.981 106.704 228.541 108.304 229.541 108.884C230.541 109.464 230.841 110.884 228.961 111.044C227.081 111.204 226.961 111.904 227.081 112.924C227.201 113.944 225.781 114.364 226.661 115.084C227.615 116.097 228.49 117.18 229.281 118.324C229.503 117.729 230.116 117.376 230.741 117.484C232.421 117.724 231.101 120.264 232.421 120.864C233.007 121.195 233.399 121.788 233.474 122.457C233.549 123.126 233.299 123.79 232.801 124.244C231.821 124.964 231.461 128.944 233.641 131.364C235.821 133.784 237.501 133.364 237.981 132.804C238.461 132.244 240.161 132.804 240.641 131.844C241.121 130.884 241.721 131.964 242.641 130.884C243.201 130.244 244.361 130.584 245.461 130.884C244.576 129.434 243.782 127.931 243.081 126.384C242.501 124.784 239.081 122.904 239.761 122.184C240.441 121.464 240.201 118.864 241.341 118.724C242.481 118.584 243.801 118.004 243.221 116.844C242.941 116.264 243.221 115.304 243.681 114.264C242.561 114.164 240.921 110.944 239.961 110.944C239.354 110.956 238.773 110.691 238.384 110.224C237.995 109.758 237.84 109.139 237.961 108.544C238.221 107.024 235.461 106.844 233.961 105.144C233.549 104.722 233.042 104.407 232.481 104.224C232.153 104.975 231.636 105.629 230.981 106.124Z" fill="#294F6E" stroke="#002F57" stroke-width="0.75"/>
<path fill-rule="evenodd" clip-rule="evenodd" d="M254.741 121.883C255.349 123.595 255.501 125.435 255.181 127.223C255.041 127.503 254.501 128.343 253.981 129.103C254.905 130.091 256.362 130.366 257.581 129.783C259.881 129.063 260.961 130.523 261.801 127.983C262.967 125.561 264.582 123.383 266.561 121.563C264.861 120.843 262.281 116.743 259.701 116.203C258.544 115.92 257.414 115.539 256.321 115.063C256.178 115.773 255.907 116.451 255.521 117.063C254.403 118.408 254.104 120.255 254.741 121.883Z" fill="#294F6E" stroke="#002F57" stroke-width="0.75"/>
<path fill-rule="evenodd" clip-rule="evenodd" d="M167.742 139.283C166.242 137.603 165.222 136.583 164.862 137.043C163.916 137.62 162.728 137.62 161.782 137.043C160.682 136.383 160.122 135.183 159.282 135.183C157.458 134.601 155.77 133.655 154.322 132.403C154.302 132.583 154.302 132.764 154.322 132.943C154.322 133.743 153.062 134.283 151.542 134.383C150.022 134.483 150.202 136.163 150.202 137.323C150.202 138.483 148.962 138.483 148.422 139.723C147.882 140.963 148.602 141.243 147.362 141.863C146.811 142.035 146.378 142.463 146.199 143.011C146.02 143.559 146.118 144.16 146.462 144.623C147.182 145.703 146.462 146.623 146.202 147.303C145.942 147.983 147.262 148.203 148.522 149.303C149.782 150.403 149.942 148.843 150.522 149.743C150.723 150.319 150.632 150.957 150.278 151.454C149.925 151.951 149.352 152.245 148.742 152.243C148.629 152.224 148.514 152.224 148.402 152.243C149.142 153.003 149.542 153.803 149.182 154.243C148.542 155.183 147.982 155.183 149.182 156.243C150.382 157.303 151.182 155.683 152.262 157.083C153.342 158.483 154.122 159.323 155.142 156.903C156.162 154.483 156.902 151.043 158.762 150.483C160.622 149.923 164.442 149.183 166.662 146.203C168.882 143.223 167.722 143.063 168.902 142.203C170.082 141.343 169.222 140.943 167.742 139.283Z" fill="#294F6E" stroke="#002F57" stroke-width="0.75"/>
<path fill-rule="evenodd" clip-rule="evenodd" d="M224.381 97.6231C223.841 97.1431 225.181 96.1631 224.381 95.7431C223.581 95.3231 226.381 94.1231 227.321 94.9231C228.261 95.7231 228.361 96.9231 227.541 97.2631C226.721 97.6031 224.861 98.0831 224.381 97.6231Z" fill="#294F6E" stroke="#002F57" stroke-width="0.75"/>
</svg>
