<?xml version="1.0" encoding="UTF-8" standalone="no"?><svg width="366" height="473" viewBox="0 0 366 473" fill="none" xmlns="http://www.w3.org/2000/svg">
<path fill-rule="evenodd" clip-rule="evenodd" d="M149.902 162.543C149.222 161.603 147.422 162.723 145.522 161.423C144.97 161.07 144.38 160.781 143.762 160.563C143.724 160.608 143.676 160.642 143.622 160.663C142.579 161.343 141.619 162.142 140.762 163.043C143.178 164.413 145.831 165.315 148.582 165.703C149.063 165.7 149.523 165.506 149.862 165.163C150.104 164.309 150.118 163.405 149.902 162.543Z" fill="#00A7E0" stroke="#002F57" stroke-width="0.75"/>
<path fill-rule="evenodd" clip-rule="evenodd" d="M154.122 165.224C154.302 164.864 153.102 162.884 155.422 162.724C157.742 162.564 159.422 162.284 159.802 160.724C160.182 159.164 162.902 159.944 163.682 159.864C164.462 159.784 166.382 157.864 168.382 157.984C168.382 155.984 165.742 156.664 163.902 154.824C162.062 152.984 157.662 153.744 155.342 154.644C153.022 155.544 150.362 153.664 147.862 155.084C147.22 155.909 146.489 156.66 145.682 157.324C144.002 158.684 144.462 160.044 143.842 160.424C144.46 160.642 145.05 160.93 145.602 161.284C147.602 162.584 149.302 161.464 149.982 162.404C150.211 163.262 150.211 164.166 149.982 165.024C150.342 164.744 150.602 164.544 151.182 165.024C151.762 165.504 151.622 166.004 151.562 166.544L153.042 166.204C153.439 165.92 153.801 165.591 154.122 165.224Z" fill="#00A7E0" stroke="#002F57" stroke-width="0.75"/>
<path fill-rule="evenodd" clip-rule="evenodd" d="M133.901 153.844C134.321 153.844 138.801 154.364 139.241 153.244C139.681 152.124 135.881 149.644 136.301 149.384C136.721 149.124 136.901 146.364 137.601 146.364C138.301 146.364 144.561 146.544 144.921 146.364C145.281 146.184 146.461 143.944 147.501 143.864C147.961 143.864 148.701 144.404 149.381 145.044C150.51 143.444 151.13 141.541 151.161 139.584C151.421 137.164 150.621 136.364 151.881 135.044C153.141 133.724 154.461 133.604 154.101 131.724C153.741 129.844 152.101 131.724 150.621 130.844C149.141 129.964 147.941 130.584 144.301 131.104C140.661 131.624 138.941 133.104 139.121 135.744C139.301 138.384 137.881 137.164 137.961 139.404C138.041 141.644 135.101 141.724 135.281 143.064C135.461 144.404 132.961 143.064 132.261 142.604C131.561 142.144 123.881 144.484 122.801 144.604C121.721 144.724 119.761 142.384 118.261 142.464C116.761 142.544 116.121 140.224 115.941 138.464C115.761 136.704 112.901 134.904 111.661 133.204C110.421 131.504 110.221 127.764 110.141 125.344C109.811 121.551 110.267 117.732 111.481 114.124C111.671 113.581 111.792 113.016 111.841 112.444C111.349 112.084 110.768 111.863 110.161 111.804C108.641 111.904 105.221 109.804 104.541 109.804C103.861 109.804 103.981 108.184 103.401 107.324C102.821 106.464 103.201 104.864 102.441 104.284C100.692 102.869 99.3749 100.991 98.6414 98.8636C97.8814 96.1836 93.2014 94.8636 91.5014 94.8636C89.8014 94.8636 88.8214 98.3836 88.3414 98.5836C86.7094 97.9466 85.1477 97.1423 83.6814 96.1836C82.7388 95.6909 82.1804 94.6841 82.2614 93.6236C82.2614 92.4836 80.2614 90.6636 79.6814 90.4836C78.0764 89.2071 76.5471 87.8381 75.1014 86.3836H68.8214L67.4814 88.0836L56.0614 88.1836C56.0614 88.1836 47.3014 84.9436 45.6814 84.5636C44.0892 83.9723 42.5826 83.172 41.2014 82.1836L31.9414 83.4036C32.512 84.6022 33.2309 85.7243 34.0814 86.7436C35.7537 89.0937 36.9059 91.7732 37.4614 94.6036C37.6414 96.0236 40.2214 97.1836 42.4614 98.6036C44.1015 99.8584 44.8787 101.941 44.4614 103.964C44.2014 104.764 41.4214 103.424 41.2414 104.224C41.0614 105.024 44.8214 108.224 46.2414 107.984C47.6614 107.744 48.3814 108.684 50.6214 110.644C52.8614 112.604 52.6214 114.924 51.7614 115.644C50.9014 116.364 53.5614 117.864 56.4014 119.744C58.3775 120.931 59.8878 122.759 60.6814 124.924C60.9614 125.904 62.2014 124.924 62.6814 123.664C63.1614 122.404 61.8014 121.984 61.8014 120.464C61.8014 118.944 59.4814 119.204 58.4014 119.024C57.3214 118.844 58.4014 116.544 57.4214 115.464C56.1834 113.758 55.3055 111.819 54.8414 109.764C54.3014 107.764 51.5414 105.764 50.3814 103.764C49.6052 102.112 48.5189 100.625 47.1814 99.3836C46.3814 98.8436 48.3414 98.0436 47.6214 97.2436C46.9014 96.4436 45.8414 96.5236 44.5014 95.9036C43.1896 95.4161 42.3039 94.1824 42.2614 92.7836C42.0618 90.7382 41.6186 88.7239 40.9414 86.7836C40.4814 85.6236 41.9214 85.8036 42.3614 86.3436C42.8014 86.8836 43.1614 87.4236 43.7814 87.0636C44.1808 86.8861 44.6354 86.8798 45.0396 87.046C45.4438 87.2122 45.7624 87.5365 45.9214 87.9436C46.3814 88.9236 47.9214 88.0436 48.6014 88.4836C49.2814 88.9236 47.0014 89.4636 49.3214 93.5636C51.6414 97.6636 50.0214 95.3436 50.0214 98.1236C50.0214 100.904 51.4614 99.6236 51.9014 99.1836C52.3414 98.7436 53.6014 100.084 54.7614 101.504C55.9214 102.924 58.1414 103.024 58.1414 103.824C58.093 105.077 58.9264 106.193 60.1414 106.504C61.6614 106.764 61.9214 108.504 62.9014 108.644C63.8814 108.784 64.0614 109.884 63.5414 111.044C63.0214 112.204 63.5414 113.184 66.0214 114.164C68.5014 115.144 67.3614 115.324 69.3214 117.204C72.3877 120.244 75.2791 123.456 77.9814 126.824C78.8652 128.174 79.5395 129.651 79.9814 131.204C80.4214 132.444 79.0814 133.064 79.8014 134.144C80.5214 135.224 78.4614 134.764 78.5614 135.564C78.6614 136.364 79.8014 140.384 81.7614 140.564C83.7214 140.744 85.9614 143.144 87.5614 144.564C89.1614 145.984 91.5614 145.644 93.9814 146.564C96.4014 147.484 98.4414 149.604 101.981 150.564C105.183 151.476 108.244 152.822 111.081 154.564C113.301 155.984 116.061 155.364 119.181 154.124C122.301 152.884 124.721 154.484 126.501 155.184C128.068 156.138 129.518 157.273 130.821 158.564C131.731 156.917 132.76 155.339 133.901 153.844Z" fill="#00A7E0" stroke="#002F57" stroke-width="0.75"/>
<path fill-rule="evenodd" clip-rule="evenodd" d="M145.601 157.464C146.408 156.8 147.139 156.048 147.781 155.224C146.381 155.984 145.941 155.224 146.161 154.284L144.161 154.544L144.361 146.424C142.741 146.424 138.201 146.424 137.621 146.424C137.041 146.424 136.761 149.184 136.321 149.444C135.881 149.704 139.681 152.184 139.261 153.304C138.841 154.424 134.341 153.824 133.921 153.904C132.719 155.277 131.616 156.734 130.621 158.264C132.028 159.593 133.503 160.848 135.041 162.024C136.741 163.084 139.501 161.924 140.661 163.004L140.781 163.104C141.639 162.202 142.598 161.403 143.641 160.724C144.481 160.404 143.741 158.944 145.601 157.464Z" fill="#00A7E0" stroke="#002F57" stroke-width="0.75"/>
<path fill-rule="evenodd" clip-rule="evenodd" d="M144.922 146.364H144.342L144.142 154.484L146.142 154.224C146.329 153.436 146.772 152.733 147.402 152.224C149.002 150.984 146.582 145.984 148.462 145.544C148.798 145.443 149.106 145.265 149.362 145.024C148.682 144.384 147.942 143.804 147.482 143.844C146.462 143.944 145.262 146.204 144.922 146.364Z" fill="#00A7E0" stroke="#002F57" stroke-width="0.75"/>
<path fill-rule="evenodd" clip-rule="evenodd" d="M208.761 137.084C206.981 138.324 211.441 141.084 211.441 142.604C211.441 144.124 204.281 142.304 203.601 144.044C203.241 144.924 206.081 146.184 208.761 145.284C210.639 144.688 212.684 144.959 214.341 146.024C214.541 143.324 214.861 140.284 215.141 138.204C212.881 137.624 210.061 136.164 208.761 137.084Z" fill="#294F6E" stroke="#002F57" stroke-width="0.75"/>
<path fill-rule="evenodd" clip-rule="evenodd" d="M219.741 144.404C222.961 143.324 228.121 145.284 228.121 142.784C228.121 140.284 219.561 137.624 217.421 138.324C216.698 138.487 215.943 138.445 215.241 138.204C214.961 140.204 214.641 143.324 214.441 146.024L214.741 146.184C216.081 146.884 216.441 145.464 219.741 144.404Z" fill="#294F6E" stroke="#002F57" stroke-width="0.75"/>
<path fill-rule="evenodd" clip-rule="evenodd" d="M160.541 174.684C161.441 175.144 163.641 174.684 164.541 175.364C165.162 175.669 165.869 175.746 166.541 175.584C166.338 175.302 166.151 175.008 165.981 174.704C165.361 173.564 166.421 171.244 166.961 169.544C167.501 167.844 166.521 163.744 167.501 162.684C168.481 161.624 167.941 160.984 168.381 158.484C168.4 158.351 168.4 158.217 168.381 158.084C166.381 158.084 164.381 159.904 163.681 159.964C162.981 160.024 160.161 159.364 159.801 160.824C159.441 162.284 157.801 162.544 155.421 162.824C153.041 163.104 154.301 164.964 154.121 165.324C153.772 165.748 153.368 166.125 152.921 166.444L151.441 166.784C151.244 167.374 151.507 168.02 152.061 168.304C153.481 169.104 155.441 172.304 156.961 173.024C157.611 173.372 158.1 173.961 158.321 174.664C159.053 174.506 159.812 174.513 160.541 174.684Z" fill="#00A7E0" stroke="#002F57" stroke-width="0.75"/>
<path fill-rule="evenodd" clip-rule="evenodd" d="M290.621 360.204C293.121 358.404 292.501 357.344 293.661 355.204C294.821 353.064 293.841 352.164 295.801 350.304C297.761 348.444 295.441 347.184 297.941 346.024C300.441 344.864 300.081 347.084 297.941 349.664C295.801 352.244 295.541 352.964 298.221 351.004C300.901 349.044 301.861 346.284 303.381 343.164C304.901 340.044 306.061 339.164 307.381 338.884C308.701 338.604 308.721 335.404 308.541 333.084C308.361 330.764 307.641 328.624 308.541 327.084C309.441 325.544 308.541 324.144 309.801 324.144C311.061 324.144 312.921 322.284 314.881 320.304C316.212 318.803 318.135 317.963 320.141 318.004C322.141 317.824 321.041 317.104 322.361 316.744C323.578 316.206 324.648 315.382 325.481 314.344C326.381 313.544 330.041 314.344 332.181 314.344C334.321 314.344 335.741 314.524 335.741 313.184C335.714 312.568 335.936 311.966 336.358 311.514C336.779 311.063 337.364 310.8 337.981 310.784C339.221 310.784 339.761 310.424 339.761 308.644C339.628 307.23 340.233 305.847 341.361 304.984C342.441 304.184 342.621 302.404 342.961 301.244C343.301 300.084 344.481 300.784 344.481 299.104C344.481 297.424 345.101 295.524 345.101 294.204C345.101 292.884 346.541 293.044 347.101 292.064C347.661 291.084 346.561 289.824 347.541 287.064C348.521 284.304 347.541 281.704 347.541 279.224C347.541 276.744 347.541 274.124 348.441 273.224C349.341 272.324 348.881 271.984 348.161 271.624C347.441 271.264 348.261 270.284 348.881 270.464C349.501 270.644 350.221 271.984 351.381 271.264C352.541 270.544 353.601 267.524 354.581 265.024C355.561 262.524 357.181 262.624 358.421 262.084C361.074 260.06 363.036 257.266 364.041 254.084C365.741 249.724 364.041 245.444 363.241 242.404C362.441 239.364 361.541 240.004 359.761 240.084C357.981 240.164 354.581 239.724 350.121 234.904C347.324 231.387 342.657 229.942 338.361 231.264C335.421 232.064 332.361 229.824 330.361 229.384C328.361 228.944 326.521 231.384 325.101 231.964C323.681 232.544 325.821 229.824 325.901 228.144C325.981 226.464 320.561 224.024 316.461 222.424C312.361 220.824 310.561 221.624 310.561 224.204C310.561 226.784 308.961 223.404 307.721 226.204C306.481 229.004 304.141 227.184 305.721 226.204C307.356 225.079 308.578 223.449 309.201 221.564C309.741 219.864 303.321 218.544 301.081 219.424C298.841 220.304 300.281 223.524 298.501 222.544C296.721 221.564 298.141 219.164 299.561 219.244C300.981 219.324 302.601 216.404 303.561 214.264C304.521 212.124 301.861 211.764 300.261 209.964C298.661 208.164 299.001 203.064 297.381 202.244C295.402 204.064 293.787 206.242 292.621 208.664C291.781 211.204 290.621 209.744 288.401 210.464C286.961 211.188 285.205 210.662 284.401 209.264C283.801 208.304 281.501 209.264 279.921 209.144C278.341 209.024 279.321 211.144 278.241 211.684C277.161 212.224 274.381 210.464 273.401 211.564C272.421 212.664 271.841 211.564 271.401 212.524C270.961 213.484 269.221 212.884 268.741 213.484C268.261 214.084 266.561 214.464 264.401 212.044C262.241 209.624 262.581 205.644 263.561 204.924C264.059 204.471 264.309 203.806 264.234 203.137C264.159 202.468 263.767 201.876 263.181 201.544C261.861 200.944 263.181 198.404 261.501 198.164C259.821 197.924 260.061 200.164 258.961 200.444C257.861 200.724 255.221 202.624 254.021 202.444C252.821 202.264 251.241 202.684 251.241 204.004C251.241 205.324 249.921 204.984 249.661 203.884C249.401 202.784 246.901 203.404 246.161 202.684C245.421 201.964 242.061 202.324 243.521 203.164C244.653 203.714 245.288 204.943 245.081 206.184C245.081 207.524 246.161 207.144 246.161 208.724C246.161 210.304 247.381 209.204 248.161 209.204C248.941 209.204 249.001 210.664 247.681 210.904C246.527 211.049 245.598 211.922 245.381 213.064C245.021 214.284 243.821 213.424 242.721 214.404C241.621 215.384 240.721 216.404 239.961 215.844C239.201 215.284 238.621 215.724 237.781 216.204C236.941 216.684 236.581 216.204 235.361 215.244C234.461 214.524 233.901 212.784 232.301 211.244C231.044 211.858 229.691 212.25 228.301 212.404C226.881 212.404 222.461 212.084 222.301 212.844C222.111 213.729 222.537 214.631 223.341 215.044C224.081 215.204 225.601 215.664 224.161 216.704C222.721 217.744 221.421 216.344 221.421 218.864C221.421 221.384 224.661 223.044 224.001 225.384C223.547 227.18 223.266 229.015 223.161 230.864C223.161 232.064 222.701 236.104 221.621 236.344C220.541 236.584 219.621 235.384 218.181 236.584C216.741 237.784 214.961 237.044 213.301 238.364C211.641 239.684 209.861 239.184 209.741 240.744C209.621 242.304 208.061 243.124 208.421 244.544C208.781 245.964 207.721 245.604 206.641 246.684C205.561 247.764 206.761 248.464 206.041 249.304C205.321 250.144 206.281 251.444 207.121 252.744C207.961 254.044 208.901 255.004 208.781 256.204C208.661 257.404 209.621 257.864 210.781 257.744C211.941 257.624 211.021 260.004 212.921 260.004C214.821 260.004 216.721 260.484 217.201 259.404C217.681 258.324 218.981 257.404 218.981 259.044C218.981 260.684 218.641 264.764 219.941 264.284C221.666 263.844 223.479 263.885 225.181 264.404C226.393 264.826 227.74 264.497 228.621 263.564C229.461 262.744 230.401 262.744 232.061 261.784C233.46 260.711 235.09 259.978 236.821 259.644C238.361 259.644 240.981 258.684 240.621 259.884C240.014 262.57 240.489 265.386 241.941 267.724C243.841 269.984 244.901 270.824 246.681 270.584C248.461 270.344 248.241 271.304 249.541 271.184C250.841 271.064 250.021 272.604 251.201 272.604C252.381 272.604 254.541 272.844 254.541 274.144C254.541 275.444 258.101 274.384 258.941 275.104C259.781 275.824 260.721 276.404 260.481 277.844C260.241 279.284 262.261 280.324 261.081 280.924C259.901 281.524 261.441 282.704 261.561 284.264C261.681 285.824 263.341 286.404 265.961 286.264C268.581 286.124 269.281 286.384 269.281 288.264C269.281 290.144 271.061 290.404 271.661 292.264C272.261 294.124 270.941 296.064 271.181 297.484C271.306 298.552 270.838 299.603 269.961 300.224C270.881 301.404 270.961 301.924 270.121 302.384C269.281 302.844 271.461 304.664 270.861 307.324C270.261 309.984 270.141 310.464 272.861 310.584C275.581 310.704 275.401 311.544 276.361 310.944C277.321 310.344 278.781 312.944 279.141 314.324C279.501 315.704 280.601 318.784 281.141 318.784C281.681 318.784 283.141 317.344 284.521 318.064C285.901 318.784 284.181 323.284 284.141 325.264C285.025 325.17 285.918 325.231 286.781 325.444C287.501 325.804 287.861 330.684 287.501 331.584C287.141 332.484 284.161 333.284 282.621 334.284C279.999 336.386 277.742 338.907 275.941 341.744C274.889 343.26 273.704 344.678 272.401 345.984C272.795 346.083 273.207 346.083 273.601 345.984C274.421 345.624 275.601 345.624 277.041 347.244C278.481 348.864 278.301 350.144 278.841 350.044C279.381 349.944 280.021 347.884 281.101 349.424C282.181 350.964 284.981 352.124 285.621 352.844C286.261 353.564 288.321 354.124 288.321 356.004C287.97 358.009 288.114 360.069 288.741 362.004C289.284 361.323 289.916 360.717 290.621 360.204Z" fill="#00A7E0" stroke="#002F57" stroke-width="0.75"/>
<path fill-rule="evenodd" clip-rule="evenodd" d="M288.321 355.944C288.321 354.064 286.321 353.504 285.621 352.784C284.921 352.064 282.181 350.884 281.101 349.364C280.021 347.844 279.381 349.904 278.841 349.984C278.301 350.064 278.381 348.804 277.041 347.184C275.701 345.564 274.421 345.564 273.601 345.924C273.207 346.022 272.795 346.022 272.401 345.924C271.75 346.52 271.314 347.315 271.161 348.184C271.161 349.904 269.901 351.804 269.801 355.064C269.701 358.324 268.821 357.764 268.721 360.304C268.621 362.844 269.541 362.304 269.901 362.744C270.261 363.184 269.901 363.744 269.601 364.424C269.979 364.915 270.562 365.203 271.181 365.204C272.998 365.172 274.789 365.635 276.361 366.544C278.361 367.424 277.601 366.264 279.481 366.544C281.515 367 283.645 366.709 285.481 365.724C286.78 364.688 287.866 363.411 288.681 361.964C288.071 360.017 287.947 357.95 288.321 355.944Z" fill="#00A7E0" stroke="#002F57" stroke-width="0.75"/>
<path fill-rule="evenodd" clip-rule="evenodd" d="M237.741 466.404C235.501 466.304 231.141 462.204 229.741 461.144C228.341 460.084 229.381 459.004 227.741 459.264C226.101 459.524 227.201 458.024 228.101 457.564C229.001 457.104 227.781 455.564 226.681 455.384C226.561 457.784 226.061 468.524 226.681 468.644C227.301 468.764 232.061 468.084 233.441 469.004C233.981 469.164 234.721 469.604 235.281 469.004C236.16 468.024 238.841 468.564 240.281 467.664C241.721 466.764 239.881 466.484 237.741 466.404ZM287.141 325.604C286.278 325.39 285.384 325.329 284.501 325.424C284.49 325.563 284.49 325.704 284.501 325.844C284.741 327.524 283.641 331.844 282.501 331.744C281.361 331.644 280.321 333.564 279.361 333.324C278.401 333.084 277.061 334.764 275.861 334.044C274.661 333.324 272.961 334.284 272.001 333.684C271.041 333.084 268.261 333.564 268.261 332.844C268.261 332.124 269.581 332.364 269.581 330.184C269.581 328.004 273.201 325.584 272.721 324.744C272.241 323.904 266.08 322.084 265.24 321.004C264.161 319.622 262.532 318.782 260.781 318.704C258.361 318.464 258.48 317.264 256.3 315.944C254.11 314.389 252.22 312.452 250.721 310.224C249.261 310.064 247.161 309.764 246.721 310.224C246.281 310.684 245.16 314.224 244.34 312.584C243.521 310.944 241.48 310.924 239.701 310.684C237.92 310.444 238.041 308.784 236.141 310.804C235.249 311.726 234.256 312.545 233.181 313.244C233.144 314.842 232.867 316.427 232.361 317.944C231.881 318.784 227.901 320.604 227.781 321.564C227.66 322.524 228.261 323.864 227.541 324.464C226.821 325.064 229.221 328.084 227.901 328.804C226.581 329.524 228.861 330.804 228.021 331.464C227.181 332.124 225.601 332.544 225.601 333.464C225.601 334.384 225.481 336.364 224.401 336.844C223.228 337.671 222.545 339.029 222.581 340.464C222.581 341.784 220.901 340.944 221.501 342.624C222.101 344.304 222.821 346.384 221.501 346.744C220.181 347.104 220.541 349.884 219.801 349.884C219.061 349.884 218.721 352.764 219.801 354.224C220.717 355.351 221.193 356.772 221.141 358.224C221.141 359.544 222.581 360.224 222.101 361.724C221.621 363.224 221.861 364.504 221.021 365.104C220.181 365.704 220.901 367.524 219.801 368.004C218.701 368.484 220.661 372.344 219.801 373.064C218.941 373.784 216.801 374.404 216.801 377.064C216.969 378.825 217.009 380.596 216.92 382.364C216.681 383.324 218.121 383.084 217.881 384.664C217.641 386.244 215.701 385.264 215.581 386.224C215.461 387.184 216.06 389.124 215.34 389.244C214.62 389.364 214.261 390.084 214.261 391.784C214.261 393.484 213.301 393.784 213.181 394.564C213.061 395.344 214.021 396.364 214.021 397.344C214.021 398.324 214.621 401.564 213.781 401.684C212.941 401.804 212.441 405.424 213.181 405.904C213.829 406.438 213.982 407.369 213.541 408.084C213.181 408.804 215.221 409.524 214.141 410.624C213.061 411.724 213.92 413.104 215.34 412.624C216.76 412.144 217.341 414.444 215.941 414.444C214.541 414.444 213.301 414.444 214.381 415.284C215.461 416.124 216.56 417.284 214.98 417.944C213.4 418.604 214.741 419.624 214.381 421.084C214.021 422.544 215.461 423.864 214.261 424.224C213.061 424.584 214.74 426.744 213.06 426.984C211.38 427.224 212.441 428.804 211.361 429.644C210.281 430.484 212.8 431.944 211.48 432.784C210.16 433.624 211.121 435.564 209.801 435.564C208.481 435.564 207.8 437.364 207.62 438.224C207.44 439.084 206.661 440.764 207.741 441.964C208.821 443.164 207.501 444.124 208.461 444.624C209.421 445.124 212.68 444.364 212.2 445.824C211.72 447.284 211.841 450.404 212.441 450.404C213.041 450.404 213.421 452.224 214.441 452.104C216.799 451.754 219.192 451.714 221.56 451.984C222.369 452.218 223.11 452.643 223.721 453.224C224.761 452.764 227.021 454.244 227.541 453.744C228.061 453.244 225.321 450.784 225.401 449.984C225.481 449.184 224.961 447.844 224.961 446.964C224.961 446.084 224.501 444.104 225.761 443.204C227.021 442.304 227.101 441.424 227.901 441.604C228.701 441.784 230.301 440.904 230.401 438.764C230.501 436.624 231.461 435.804 233.241 434.304C235.021 432.804 238.42 431.084 237.98 430.304C237.54 429.524 238.681 427.284 238.681 426.304C238.681 425.324 235.661 425.604 234.681 425.244C233.701 424.884 230.121 422.384 231.92 419.084C233.348 416.813 235.819 415.408 238.501 415.344C239.581 415.244 238.601 413.744 239.48 413.204C240.361 412.664 240.561 411.784 240.561 410.444C240.561 409.104 240.561 406.444 242.161 406.344C243.761 406.244 244.161 405.264 243.241 405.004C242.321 404.744 241.801 403.564 243.421 403.384C245.041 403.204 244.481 404.724 245.641 404.724C246.801 404.724 248.761 402.724 247.241 401.604C245.721 400.484 245.24 402.144 244.48 402.324C243.721 402.504 243.061 401.244 242.261 401.244C241.461 401.244 241.981 399.024 241.641 398.224C241.301 397.424 240.741 395.464 241.461 394.484C242.181 393.504 245.201 395.984 247.881 396.164C250.561 396.344 252.501 394.824 252.501 393.844C252.501 392.864 251.261 391.084 252.861 390.024C254.461 388.964 253.141 388.584 252.681 387.164C252.221 385.744 253.4 384.844 254.12 385.564C254.84 386.284 260.12 385.824 264.46 384.944C268.8 384.064 271.86 382.444 272.12 381.184C273.186 379.328 274.411 377.568 275.781 375.924C276.401 374.864 275.881 373.524 274.081 373.244C272.281 372.964 272.401 370.924 273.381 369.784C274.361 368.644 272.841 367.544 271.141 367.364C269.441 367.184 266.78 366.024 268.3 364.604C269.02 363.904 269.38 364.044 269.74 364.364C270 363.684 270.241 362.884 270.041 362.684C269.841 362.484 268.781 362.684 268.861 360.244C268.941 357.804 269.861 358.244 269.941 355.004C270.021 351.764 271.3 349.844 271.3 348.124C271.3 346.404 274.381 344.424 276.081 341.624C277.978 338.814 280.33 336.34 283.041 334.304C284.581 333.304 287.561 332.504 287.921 331.604C288.281 330.704 287.741 325.964 287.061 325.604H287.141Z" fill="#00A7E0" stroke="#002F57" stroke-width="0.75"/>
<path fill-rule="evenodd" clip-rule="evenodd" d="M214.301 452.104C213.341 452.224 212.981 450.404 212.301 450.404C211.621 450.404 211.581 447.264 212.061 445.824C212.541 444.384 209.281 445.104 208.321 444.624C207.361 444.144 208.681 443.164 207.601 441.964C206.521 440.764 207.361 439.064 207.481 438.224C207.601 437.384 208.321 435.564 209.661 435.564C211.001 435.564 210.021 433.564 211.341 432.784C212.661 432.004 210.141 430.484 211.221 429.644C212.301 428.804 211.221 427.224 212.921 426.984C214.621 426.744 212.921 424.584 214.121 424.224C215.321 423.864 213.881 422.524 214.241 421.084C214.601 419.644 213.281 418.544 214.841 417.944C216.401 417.344 215.321 416.124 214.241 415.284C213.161 414.444 214.481 414.444 215.801 414.444C217.121 414.444 216.421 412.264 215.201 412.624C213.981 412.984 212.921 411.664 214.001 410.624C215.081 409.584 213.041 408.804 213.401 408.084C213.843 407.369 213.689 406.438 213.041 405.904C212.301 405.424 212.781 401.804 213.641 401.684C214.501 401.564 213.881 398.304 213.881 397.344C213.881 396.384 212.921 395.344 213.041 394.564C213.161 393.784 214.121 393.464 214.121 391.784C214.121 390.104 214.481 389.364 215.201 389.244C215.921 389.124 215.321 387.244 215.441 386.224C215.561 385.204 217.441 386.224 217.741 384.664C218.041 383.104 216.541 383.324 216.781 382.364C216.87 380.597 216.829 378.825 216.661 377.064C216.661 374.404 218.821 373.804 219.661 373.064C220.501 372.324 218.581 368.484 219.661 368.004C220.741 367.524 220.041 365.704 220.881 365.104C221.721 364.504 221.481 363.104 221.961 361.724C222.441 360.344 221.001 359.544 221.001 358.224C221.053 356.772 220.577 355.351 219.661 354.224C218.581 352.764 218.941 349.884 219.661 349.884C220.381 349.884 220.041 347.104 221.361 346.744C222.681 346.384 221.961 344.324 221.361 342.624C220.761 340.924 222.441 341.784 222.441 340.464C222.405 339.029 223.088 337.671 224.261 336.844C225.341 336.364 225.461 334.304 225.461 333.464C225.461 332.624 227.041 332.244 227.881 331.464C228.721 330.684 226.421 329.464 227.761 328.804C229.101 328.144 226.681 325.064 227.401 324.464C228.121 323.864 227.521 322.464 227.641 321.564C227.761 320.664 231.741 318.784 232.221 317.944C232.727 316.427 233.004 314.843 233.041 313.244C231.801 314.044 230.721 314.484 230.521 314.024C230.161 313.184 230.641 310.684 229.581 309.624C228.521 308.564 229.221 306.404 228.141 305.944C227.061 305.484 225.761 303.324 226.721 302.604C227.681 301.884 226.721 300.464 227.541 299.744C228.361 299.024 227.081 298.924 225.881 297.504C224.681 296.084 226.361 294.284 224.941 293.204C223.521 292.124 223.501 290.844 223.141 291.424C222.781 292.004 222.681 294.044 221.481 294.644C221.17 294.823 220.881 295.038 220.621 295.284C220.421 296.476 220.421 297.692 220.621 298.884C221.255 302.302 221.343 305.799 220.881 309.244C220.459 311.272 219.925 313.275 219.281 315.244C218.741 316.764 220.521 316.844 219.801 317.564C219.081 318.284 219.361 320.064 219.361 322.904C219.361 325.744 217.661 330.584 217.581 332.104C217.501 333.624 216.341 334.584 216.521 336.284C216.602 337.686 215.912 339.02 214.721 339.764C213.741 340.564 216.341 343.144 216.241 344.584C216.141 346.024 214.241 346.584 214.721 348.944C215.008 351.884 215.008 354.844 214.721 357.784C214.721 358.764 213.561 358.664 213.841 360.544C214.121 362.424 212.681 362.864 212.401 365.524C211.703 368.497 210.655 371.377 209.281 374.104C208.481 376.104 208.481 377.304 207.421 377.304C206.361 377.304 206.081 378.464 206.881 380.244C207.681 382.024 206.341 383.544 207.421 385.324C208.501 387.104 208.121 387.744 207.601 389.424C207.081 391.104 206.341 391.224 206.341 392.824C206.341 394.424 205.101 395.764 205.821 397.544C206.541 399.324 206.341 399.964 205.461 399.964C204.581 399.964 204.121 401.384 203.761 404.324C203.401 407.264 203.501 407.184 205.641 407.004C207.781 406.824 206.081 399.784 207.421 399.784C208.761 399.784 207.601 398.624 208.941 398.264C210.281 397.904 209.101 399.504 210.001 399.784C210.901 400.064 211.521 400.764 210.261 401.564C209.001 402.364 210.541 403.964 209.921 404.944C209.301 405.924 208.401 406.944 208.941 408.164C209.481 409.384 208.301 409.224 208.221 410.744C208.141 412.264 209.021 412.344 208.401 412.744C207.781 413.144 209.201 414.264 208.401 414.444C207.601 414.624 208.061 415.784 208.581 416.844C209.101 417.904 207.421 417.284 206.581 418.004C205.741 418.724 207.461 419.704 206.941 420.684C206.421 421.664 204.941 420.144 204.341 419.604C203.741 419.064 205.321 418.004 206.121 416.944C206.921 415.884 205.321 413.464 203.981 413.984C202.641 414.504 205.321 415.984 205.321 417.204C205.321 418.424 203.101 416.944 203.181 418.184C203.261 419.424 201.681 418.984 200.861 419.884C200.041 420.784 201.941 421.584 201.041 421.884C200.141 422.184 198.641 423.404 198.541 424.284C198.441 425.164 199.521 425.364 199.521 424.464C199.521 423.564 200.961 423.304 201.401 424.464C201.841 425.624 202.481 424.464 203.721 424.744C204.961 425.024 204.801 426.884 204.081 426.744C203.361 426.604 202.661 427.904 202.821 429.244C202.981 430.584 205.501 429.244 206.581 429.604C207.661 429.964 207.281 431.824 206.581 431.204C205.881 430.584 204.581 429.504 203.901 430.584C203.221 431.664 202.301 431.124 201.501 430.764C200.701 430.404 197.841 432.284 198.821 432.984C199.801 433.684 199.721 434.864 200.341 434.764C201.159 434.67 201.892 434.215 202.341 433.524C202.701 432.804 203.941 432.104 204.041 433.704C204.141 435.304 202.341 434.504 202.041 435.404C201.571 436.392 200.828 437.224 199.901 437.804C199.431 438.052 199.252 438.635 199.501 439.104C199.749 439.573 200.331 439.753 200.801 439.504C201.701 439.044 200.541 440.564 201.781 440.744C203.021 440.924 203.301 440.024 203.021 439.144C202.741 438.264 203.661 436.284 204.721 437.264C205.781 438.244 204.181 439.264 204.181 440.124C204.181 440.984 203.561 442.124 203.561 443.144C203.561 444.164 202.401 443.604 202.501 444.664C202.601 445.724 200.001 445.024 201.161 445.744C202.321 446.464 200.441 447.444 201.061 448.144C201.681 448.844 202.221 447.164 203.201 447.524C204.181 447.884 204.001 448.144 205.201 447.524C206.401 446.904 207.201 448.504 206.001 448.864C204.801 449.224 203.601 450.564 204.121 450.744C204.641 450.924 206.121 449.844 206.541 451.004C206.961 452.164 207.781 451.804 207.881 450.564C207.981 449.324 210.101 450.384 210.461 451.464C210.821 452.544 208.221 453.144 206.901 452.884C205.581 452.624 204.901 454.124 205.741 455.284C206.581 456.444 207.741 455.284 208.681 454.304C209.621 453.324 214.481 453.604 214.821 454.664C215.161 455.724 212.601 454.844 212.341 455.464C212.081 456.084 210.101 456.624 209.841 455.924C209.581 455.224 207.701 456.184 207.601 457.344C207.501 458.504 206.081 458.504 207.601 458.944C209.121 459.384 208.761 457.244 211.241 457.424C213.721 457.604 215.081 455.104 215.801 456.544C216.521 457.984 213.801 459.124 212.761 458.224C211.721 457.324 210.621 458.864 210.761 460.224C210.901 461.584 207.901 459.864 206.481 459.684C205.061 459.504 205.681 461.024 206.921 462.364C208.161 463.704 208.921 462.184 210.401 463.164C211.881 464.144 211.921 465.164 212.981 464.224C214.041 463.284 212.981 463.344 212.281 462.884C211.581 462.424 212.181 460.884 213.881 461.724C214.716 462.1 215.695 461.944 216.372 461.327C217.049 460.711 217.296 459.751 217.001 458.884C216.461 456.744 218.521 455.764 220.561 455.044C222.601 454.324 221.541 456.384 220.021 457.044C218.501 457.704 218.241 458.124 219.401 459.364C220.561 460.604 222.081 458.564 223.061 459.544C224.041 460.524 221.281 460.344 220.841 461.324C220.401 462.304 222.521 463.464 221.001 464.184C219.481 464.904 220.201 461.244 219.321 460.884C218.441 460.524 217.621 461.324 218.521 463.384C219.421 465.444 217.441 463.644 216.521 462.664C215.601 461.684 214.381 463.104 215.441 464.184C216.501 465.264 213.441 464.084 213.441 465.784C213.441 467.484 214.761 466.044 216.381 466.404C218.001 466.764 217.261 469.084 218.381 469.984C219.501 470.884 218.561 467.124 219.801 466.864C221.041 466.604 219.801 469.704 222.661 470.604C225.521 471.504 222.841 470.064 224.101 469.164C225.361 468.264 226.941 471.844 228.281 472.204C229.621 472.564 228.721 470.604 227.741 469.524C226.761 468.444 228.721 469.084 230.061 469.524C231.401 469.964 232.481 470.144 232.741 469.164C232.741 468.804 233.081 468.804 233.401 468.924C232.021 468.004 227.281 468.664 226.641 468.564C226.001 468.464 226.481 457.764 226.641 455.304H226.361C225.201 455.304 222.621 455.564 223.061 453.784C223.107 453.521 223.279 453.297 223.521 453.184C222.91 452.604 222.17 452.178 221.361 451.944C219.01 451.693 216.637 451.746 214.301 452.104Z" fill="#00A7E0" stroke="#002F57" stroke-width="0.75"/>
<path fill-rule="evenodd" clip-rule="evenodd" d="M284.801 318.224C283.341 317.504 281.901 318.944 281.421 318.944C280.941 318.944 279.841 315.804 279.421 314.484C279.001 313.164 277.621 310.484 276.641 311.104C275.661 311.724 275.921 310.864 273.141 310.744C270.361 310.624 270.501 310.144 271.141 307.484C271.781 304.824 269.321 303.144 270.401 302.544C271.481 301.944 271.161 301.564 270.241 300.384C270.045 300.533 269.807 300.617 269.561 300.624C268.601 300.624 267.421 298.964 265.761 298.964C264.198 298.798 262.617 298.962 261.121 299.444C259.921 300.024 257.661 299.324 256.241 300.264C254.821 301.204 253.041 303.244 253.161 304.064C253.281 304.884 252.681 310.064 251.961 310.264C251.503 310.321 251.039 310.321 250.581 310.264C252.08 312.492 253.971 314.43 256.161 315.984C258.341 317.304 258.161 318.504 260.641 318.744C262.392 318.822 264.022 319.663 265.101 321.044C265.941 322.124 272.101 323.944 272.581 324.784C273.061 325.624 269.441 328.044 269.441 330.224C269.441 332.404 268.121 332.224 268.121 332.884C268.121 333.544 270.901 333.124 271.861 333.724C272.821 334.324 274.521 333.364 275.721 334.084C276.921 334.804 278.261 333.124 279.221 333.364C280.181 333.604 281.221 331.664 282.361 331.784C283.501 331.904 284.661 327.564 284.361 325.884C284.061 324.204 286.241 318.944 284.801 318.224Z" fill="#00A7E0" stroke="#002F57" stroke-width="0.75"/>
<path fill-rule="evenodd" clip-rule="evenodd" d="M169.881 183.084C169.731 182.188 169.955 181.27 170.501 180.544C169.069 178.972 167.734 177.316 166.501 175.584C165.829 175.746 165.121 175.669 164.501 175.364C163.621 174.684 161.421 175.144 160.501 174.684C159.779 174.48 159.02 174.439 158.281 174.564C158.543 175.099 158.421 175.743 157.981 176.144C157.503 176.707 157.347 177.475 157.566 178.18C157.785 178.885 158.348 179.43 159.061 179.624C161.061 180.424 160.401 179.164 161.381 179.164C162.361 179.164 162.261 180.684 163.161 180.684C164.061 180.684 166.101 181.764 166.001 183.184C165.901 184.604 166.721 185.184 168.321 185.184H169.301C169.621 184.364 170.021 183.584 169.881 183.084Z" fill="#00A7E0" stroke="#002F57" stroke-width="0.75"/>
<path fill-rule="evenodd" clip-rule="evenodd" d="M190.301 183.104C188.881 180.964 186.301 181.104 184.681 180.424C183.061 179.744 181.041 180.684 178.981 182.564C176.921 184.444 174.341 183.364 172.561 182.384C171.82 181.857 171.149 181.238 170.561 180.544C170.016 181.27 169.792 182.188 169.941 183.084C170.081 183.584 169.681 184.364 169.401 185.304C171.343 185.476 173.169 186.301 174.581 187.644C175.921 189.244 176.721 188.184 177.521 189.644C178.321 191.104 180.201 189.644 180.641 188.844C181.081 188.044 179.661 187.604 179.481 186.624C179.301 185.644 181.261 185.984 181.621 184.624C181.981 183.264 184.841 182.624 186.081 183.204C187.321 183.784 188.401 184.624 187.241 185.964C186.381 186.964 188.141 188.764 189.621 190.164C190.466 189.229 191.368 188.347 192.321 187.524C192.643 187.178 192.84 186.735 192.881 186.264C191.83 185.382 190.955 184.31 190.301 183.104Z" fill="#00A7E0" stroke="#002F57" stroke-width="0.75"/>
<path fill-rule="evenodd" clip-rule="evenodd" d="M192.781 218.044C193.726 218.62 194.915 218.62 195.861 218.044C196.221 217.584 197.241 218.604 198.741 220.284L198.921 220.484C200.037 220.105 201.241 220.063 202.381 220.364C203.501 221.064 203.221 223.584 204.761 223.724C206.301 223.864 207.421 225.404 207.281 226.244C207.141 227.084 208.961 227.504 208.821 228.764C208.681 230.024 212.821 229.744 213.441 229.324C214.127 228.813 215.034 228.706 215.821 229.044C216.521 229.464 217.821 228.624 218.481 228.904C219.141 229.184 221.981 230.304 221.421 231.284C220.861 232.264 218.901 233.804 219.321 234.644C219.741 235.484 221.101 235.724 221.701 236.644H221.901C222.981 236.404 223.441 232.364 223.441 231.164C223.546 229.315 223.827 227.48 224.281 225.684C224.941 223.344 221.701 221.684 221.701 219.164C221.701 216.644 222.981 218.044 224.441 217.004C225.901 215.964 224.441 215.504 223.621 215.344C222.816 214.93 222.39 214.028 222.581 213.144C222.821 212.384 227.241 212.704 228.581 212.704C230.167 212.514 231.698 212.004 233.081 211.204C233.289 210.452 233 209.651 232.361 209.204C231.261 208.344 231.681 207.204 232.521 206.184C233.361 205.164 232.001 204.184 230.941 203.084C229.881 201.984 230.701 197.704 231.921 195.724C233.141 193.744 229.461 194.204 227.201 194.484C225.018 194.756 222.861 193.812 221.581 192.024C220.141 190.184 218.161 191.344 214.701 191.424C211.241 191.504 211.921 187.604 212.081 186.124C212.241 184.644 210.321 184.424 210.321 183.464C210.321 182.504 209.321 182.504 208.321 182.584C207.321 182.664 208.321 181.484 208.941 180.724C209.561 179.964 209.501 179.364 209.541 177.744C209.581 176.124 211.901 174.784 213.081 173.204C213.396 172.823 213.822 172.55 214.301 172.424C214.455 172.001 214.833 171.7 215.281 171.644C217.061 171.284 217.941 170.124 216.261 169.144C214.581 168.164 213.581 171.024 211.701 171.284C209.821 171.544 209.481 172.704 208.221 173.284C206.961 173.864 204.661 173.284 204.581 174.444C204.501 175.604 203.761 174.444 202.701 174.164C201.641 173.884 198.861 176.304 198.961 177.644C199.061 178.984 199.481 180.244 197.521 181.484C195.925 182.783 194.57 184.354 193.521 186.124C193.32 186.404 192.942 186.49 192.641 186.324C192.6 186.795 192.403 187.238 192.081 187.584C191.127 188.408 190.225 189.289 189.381 190.224C189.881 190.704 190.341 191.124 190.661 191.464C191.901 192.804 191.101 193.884 191.461 194.584C191.821 195.284 192.181 196.364 191.461 196.824C190.741 197.284 191.461 202.164 192.181 203.064C192.901 203.964 192.181 204.764 191.281 206.544C190.381 208.324 189.581 209.124 187.981 209.204C186.381 209.284 186.461 211.804 185.981 211.804C185.501 211.804 185.241 212.704 185.181 213.484C186.629 214.736 188.317 215.682 190.141 216.264C191.121 216.184 191.741 217.384 192.781 218.044Z" fill="#00A7E0" stroke="#002F57" stroke-width="0.75"/>
<path fill-rule="evenodd" clip-rule="evenodd" d="M271.961 292.424C271.361 290.644 269.581 290.424 269.581 288.424C269.581 286.424 268.861 286.284 266.261 286.424C263.661 286.564 261.961 285.944 261.861 284.424C261.761 282.904 260.181 281.684 261.381 281.084C262.581 280.484 260.541 279.424 260.781 278.004C261.021 276.584 260.061 276.004 259.241 275.264C258.421 274.524 254.841 275.624 254.841 274.304C254.841 272.984 252.701 272.764 251.501 272.764C250.301 272.764 251.161 271.224 249.841 271.344C248.521 271.464 248.781 270.504 246.981 270.744C245.181 270.984 244.141 270.144 242.241 267.884C240.788 265.545 240.314 262.729 240.921 260.044C241.281 258.844 238.661 259.804 237.121 259.804C235.389 260.138 233.76 260.87 232.361 261.944C230.701 262.904 229.761 262.904 228.921 263.724C228.039 264.657 226.693 264.985 225.481 264.564C225.041 264.412 224.584 264.311 224.121 264.264C224.821 266.004 226.521 268.884 226.901 269.904C227.281 270.924 226.301 271.584 225.821 272.044C225.341 272.504 226.061 276.804 226.181 277.764C226.301 278.724 224.521 280.484 225.221 281.084C225.921 281.684 224.281 283.464 224.281 284.544C224.281 285.624 225.821 285.604 225.821 286.444C225.536 287.754 224.799 288.922 223.741 289.744C223.301 290.004 223.301 290.664 223.401 291.404C223.661 291.404 223.821 292.404 225.061 293.304C226.301 294.204 224.821 296.164 226.001 297.604C227.181 299.044 228.501 299.144 227.661 299.844C226.821 300.544 227.781 301.984 226.841 302.704C225.901 303.424 227.201 305.564 228.261 306.044C229.321 306.524 228.621 308.644 229.701 309.724C230.781 310.804 230.281 313.284 230.641 314.124C231.001 314.964 234.201 312.924 236.121 310.904C238.041 308.884 237.901 310.564 239.681 310.784C241.461 311.004 243.481 311.024 244.321 312.684C245.161 314.344 246.101 311.024 246.701 310.324C247.301 309.624 251.321 310.564 252.041 310.324C252.761 310.084 253.361 304.964 253.241 304.124C253.121 303.284 254.901 301.284 256.321 300.324C257.741 299.364 260.001 300.084 261.201 299.504C262.697 299.022 264.278 298.858 265.841 299.024C267.501 299.024 268.681 300.684 269.641 300.684C270.601 300.684 271.781 299.144 271.641 297.704C271.501 296.264 272.561 294.204 271.961 292.424Z" fill="#00A7E0" stroke="#002F57" stroke-width="0.75"/>
<path fill-rule="evenodd" clip-rule="evenodd" d="M223.201 291.464C223.201 291.464 223.301 291.344 223.341 291.344C223.241 290.604 223.241 289.944 223.681 289.684C224.743 288.897 225.499 287.766 225.821 286.484C225.821 285.644 224.281 285.644 224.281 284.584C224.281 283.524 225.941 281.724 225.221 281.124C224.501 280.524 226.301 278.744 226.181 277.804C226.061 276.864 225.341 272.564 225.821 272.084C226.301 271.604 227.381 271.264 226.901 269.944C226.421 268.624 224.901 265.944 224.121 264.304C222.83 264.084 221.507 264.145 220.241 264.484C218.941 264.964 219.281 260.784 219.281 259.244C219.281 257.704 217.981 258.544 217.501 259.604C217.021 260.664 215.121 260.204 213.221 260.204C211.321 260.204 212.281 257.824 211.081 257.944C209.881 258.064 208.941 257.584 209.081 256.404C209.221 255.224 208.241 254.264 207.421 252.944C206.601 251.624 205.641 250.324 206.341 249.504C207.041 248.684 205.881 247.944 206.941 246.884C208.001 245.824 209.081 246.164 208.721 244.744C208.361 243.324 209.921 242.484 210.041 240.944C210.161 239.404 212.041 239.864 213.601 238.564C215.161 237.264 217.041 237.964 218.481 236.784C219.921 235.604 220.741 236.624 221.721 236.544C221.121 235.724 219.721 235.304 219.341 234.544C218.961 233.784 220.881 232.164 221.441 231.184C222.001 230.204 219.201 229.084 218.501 228.804C217.801 228.524 216.501 229.364 215.841 228.944C215.055 228.606 214.148 228.713 213.461 229.224C212.901 229.644 208.701 229.924 208.841 228.664C208.981 227.404 207.161 226.984 207.301 226.144C207.441 225.304 206.321 223.764 204.781 223.624C203.241 223.484 203.521 220.964 202.401 220.264C201.261 219.963 200.058 220.005 198.941 220.384C200.281 221.884 200.761 222.524 199.881 223.244C198.701 224.184 199.881 224.364 197.641 227.244C195.401 230.124 191.641 230.964 189.741 231.524C187.841 232.084 187.141 235.524 186.121 237.944C185.101 240.364 184.261 239.524 183.241 238.124C182.221 236.724 181.381 238.404 180.161 237.284C178.941 236.164 179.521 236.184 180.161 235.284C180.521 234.784 180.161 233.984 179.381 233.284C178.061 233.544 176.721 235.384 176.061 236.784C175.401 238.184 177.301 241.244 177.581 242.324C177.861 243.404 176.501 242.324 176.321 243.384C176.141 244.444 179.261 245.784 180.701 246.864C182.141 247.944 183.361 250.964 184.701 252.384C186.041 253.804 186.141 255.064 187.561 258.544C189.222 262.704 191.313 266.679 193.801 270.404C195.801 272.904 196.661 274.864 196.221 275.584C195.781 276.304 196.221 278.264 197.721 279.244C199.654 280.972 201.781 282.469 204.061 283.704C207.801 285.564 214.661 289.124 215.661 290.824C216.981 292.373 218.618 293.621 220.461 294.484C220.641 294.484 220.681 294.864 220.701 295.244C220.962 294.998 221.251 294.783 221.561 294.604C222.741 294.084 222.861 292.064 223.201 291.464Z" fill="#00A7E0" stroke="#002F57" stroke-width="0.75"/>
<path fill-rule="evenodd" clip-rule="evenodd" d="M213.261 173.064C212.081 174.644 209.761 176.004 209.721 177.604C209.681 179.204 209.721 179.824 209.121 180.584C208.521 181.344 207.621 182.584 208.501 182.444C209.381 182.304 210.501 182.444 210.501 183.324C210.501 184.204 212.501 184.484 212.261 185.984C212.021 187.484 211.421 191.364 214.881 191.284C218.341 191.204 220.321 190.044 221.761 191.884C223.042 193.672 225.199 194.616 227.381 194.344C229.641 194.064 233.381 193.624 232.101 195.584C230.821 197.544 230.101 201.784 231.121 202.944C232.141 204.104 233.541 205.084 232.701 206.044C231.861 207.004 231.441 208.204 232.541 209.064C233.181 209.51 233.47 210.312 233.261 211.064C233.101 211.216 232.91 211.332 232.701 211.404C234.301 213.004 234.861 214.744 235.761 215.404C236.981 216.364 237.341 216.844 238.181 216.364C239.021 215.884 239.621 215.524 240.361 216.004C241.101 216.484 242.041 215.524 243.121 214.564C244.201 213.604 245.421 214.444 245.781 213.224C245.998 212.081 246.927 211.208 248.081 211.064C249.401 210.824 249.401 209.364 248.561 209.364C247.721 209.364 246.561 210.444 246.561 208.884C246.561 207.324 245.481 207.684 245.481 206.344C245.688 205.103 245.053 203.874 243.921 203.324C242.461 202.484 245.921 202.124 246.561 202.844C247.201 203.564 249.821 202.964 250.061 204.044C250.301 205.124 251.641 205.504 251.641 204.164C251.641 202.824 253.201 202.364 254.421 202.604C255.641 202.844 258.281 201.044 259.361 200.604C259.941 200.424 260.141 199.744 260.441 199.164C259.65 198.02 258.775 196.937 257.821 195.924C256.941 195.204 258.401 194.784 258.241 193.764C258.081 192.744 258.241 192.024 260.121 191.884C262.001 191.744 261.721 190.284 260.701 189.724C259.681 189.164 261.141 187.544 262.141 186.964C262.803 186.44 263.313 185.749 263.621 184.964C261.733 184.415 259.762 184.212 257.801 184.364C256.281 184.364 258.781 182.684 258.861 181.064C258.941 179.444 254.581 179.204 252.861 178.844C251.141 178.484 251.621 176.704 253.401 176.624C255.181 176.544 252.421 175.284 250.021 175.624C247.309 176.153 244.693 177.09 242.261 178.404C240.261 179.464 236.901 175.284 234.681 176.164C232.461 177.044 229.321 177.064 229.421 175.284C229.571 174.419 229.29 173.536 228.67 172.915C228.049 172.295 227.166 172.015 226.301 172.164C224.061 172.324 224.601 169.924 222.901 169.924C221.201 169.924 222.901 171.924 221.741 172.504C220.581 173.084 216.581 174.024 216.301 175.624C216.021 177.224 218.441 179.924 217.641 181.524C216.841 183.124 214.161 181.784 213.361 180.084C212.561 178.384 215.681 175.804 215.141 174.824C214.635 173.991 214.45 173.003 214.621 172.044C214.057 172.203 213.572 172.567 213.261 173.064Z" fill="#00A7E0" stroke="#002F57" stroke-width="0.75"/>
<path fill-rule="evenodd" clip-rule="evenodd" d="M274.261 197.744C274.841 198.904 273.541 199.484 272.381 199.624C271.221 199.764 271.521 202.364 270.801 203.084C270.081 203.804 273.541 205.684 274.121 207.284C274.822 208.832 275.616 210.335 276.501 211.784C277.133 212.056 277.838 212.105 278.501 211.924C279.581 211.324 278.621 209.264 280.181 209.384C281.741 209.504 284.061 208.544 284.661 209.504C284.77 209.69 284.897 209.865 285.041 210.024C285.561 209.264 286.101 208.424 286.241 208.144C286.561 206.356 286.409 204.516 285.801 202.804C285.163 201.198 285.438 199.372 286.521 198.024C286.906 197.411 287.177 196.734 287.321 196.024C286.078 195.413 284.707 195.105 283.321 195.124C281.181 195.384 278.941 196.364 278.141 195.124C277.341 193.884 276.141 194.144 275.101 195.124C274.997 195.216 274.857 195.253 274.721 195.224C274.341 196.284 273.981 197.244 274.261 197.744Z" fill="#00A7E0" stroke="#002F57" stroke-width="0.75"/>
<path fill-rule="evenodd" clip-rule="evenodd" d="M261.981 187.124C260.981 187.704 259.541 189.304 260.541 189.884C261.541 190.464 261.841 191.884 259.961 192.044C258.081 192.204 257.961 192.904 258.081 193.924C258.201 194.944 256.781 195.364 257.661 196.084C258.615 197.097 259.49 198.18 260.281 199.324C260.503 198.729 261.116 198.376 261.741 198.484C263.421 198.724 262.101 201.264 263.421 201.864C264.007 202.195 264.399 202.788 264.474 203.457C264.549 204.126 264.299 204.79 263.801 205.244C262.821 205.964 262.461 209.944 264.641 212.364C266.821 214.784 268.501 214.364 268.981 213.804C269.461 213.244 271.161 213.804 271.641 212.844C272.121 211.884 272.721 212.964 273.641 211.884C274.201 211.244 275.361 211.584 276.461 211.884C275.576 210.434 274.782 208.931 274.081 207.384C273.501 205.784 270.081 203.904 270.761 203.184C271.441 202.464 271.201 199.864 272.341 199.724C273.481 199.584 274.801 199.004 274.221 197.844C273.941 197.264 274.221 196.304 274.681 195.264C273.561 195.164 271.921 191.944 270.961 191.944C270.354 191.956 269.773 191.691 269.384 191.224C268.995 190.758 268.84 190.139 268.961 189.544C269.221 188.024 266.461 187.844 264.961 186.144C264.549 185.722 264.042 185.407 263.481 185.224C263.153 185.975 262.636 186.629 261.981 187.124Z" fill="#00A7E0" stroke="#002F57" stroke-width="0.75"/>
<path fill-rule="evenodd" clip-rule="evenodd" d="M285.741 202.884C286.349 204.596 286.501 206.436 286.181 208.224C286.041 208.504 285.501 209.344 284.981 210.104C285.905 211.092 287.362 211.367 288.581 210.784C290.881 210.064 291.961 211.524 292.801 208.984C293.967 206.562 295.582 204.384 297.561 202.564C295.861 201.844 293.281 197.744 290.701 197.204C289.544 196.921 288.414 196.54 287.321 196.064C287.178 196.774 286.907 197.452 286.521 198.064C285.403 199.409 285.104 201.256 285.741 202.884Z" fill="#00A7E0" stroke="#002F57" stroke-width="0.75"/>
<path fill-rule="evenodd" clip-rule="evenodd" d="M196.822 132.084C194.142 132.084 185.402 126.084 177.382 124.244C169.362 122.404 162.362 128.244 163.102 129.244C164.182 130.664 168.102 127.444 170.062 126.024C172.022 124.604 173.802 126.744 174.062 127.624C174.322 128.504 176.742 129.064 180.842 129.244C184.942 129.424 185.482 132.804 189.402 133.704C193.322 134.604 189.402 136.184 191.402 136.904C193.402 137.624 203.722 137.444 204.422 136.544C205.122 135.644 199.482 132.084 196.822 132.084Z" fill="#294F6E" stroke="#002F57" stroke-width="0.75"/>
<path fill-rule="evenodd" clip-rule="evenodd" d="M187.741 144.404C188.461 145.644 195.221 147.424 195.941 145.824C196.661 144.224 186.841 142.844 187.741 144.404Z" fill="#294F6E" stroke="#002F57" stroke-width="0.75"/>
<path fill-rule="evenodd" clip-rule="evenodd" d="M233.561 144.744C235.161 147.244 239.761 145.764 240.161 144.744C240.861 142.964 231.941 142.264 233.561 144.744Z" fill="#294F6E" stroke="#002F57" stroke-width="0.75"/>
<path fill-rule="evenodd" clip-rule="evenodd" d="M198.742 220.283C197.242 218.603 196.222 217.583 195.862 218.043C194.916 218.62 193.728 218.62 192.782 218.043C191.682 217.383 191.122 216.183 190.282 216.183C188.458 215.601 186.77 214.655 185.322 213.403C185.302 213.583 185.302 213.764 185.322 213.943C185.322 214.743 184.062 215.283 182.542 215.383C181.022 215.483 181.202 217.163 181.202 218.323C181.202 219.483 179.962 219.483 179.422 220.723C178.882 221.963 179.602 222.243 178.362 222.863C177.811 223.035 177.378 223.463 177.199 224.011C177.02 224.559 177.118 225.16 177.462 225.623C178.182 226.703 177.462 227.623 177.202 228.303C176.942 228.983 178.262 229.203 179.522 230.303C180.782 231.403 180.942 229.843 181.522 230.743C181.723 231.319 181.632 231.957 181.278 232.454C180.925 232.951 180.352 233.245 179.742 233.243C179.629 233.224 179.514 233.224 179.402 233.243C180.142 234.003 180.542 234.803 180.182 235.243C179.542 236.183 178.982 236.183 180.182 237.243C181.382 238.303 182.182 236.683 183.262 238.083C184.342 239.483 185.122 240.323 186.142 237.903C187.162 235.483 187.902 232.043 189.762 231.483C191.622 230.923 195.442 230.183 197.662 227.203C199.882 224.223 198.722 224.063 199.902 223.203C201.082 222.343 200.222 221.943 198.742 220.283Z" fill="#00A7E0" stroke="#002F57" stroke-width="0.75"/>
<path fill-rule="evenodd" clip-rule="evenodd" d="M231.001 12.5237C230.881 11.3237 227.321 12.2837 225.641 10.9637C223.961 9.6437 221.121 15.6037 220.541 18.1037C219.961 20.6037 215.541 23.3437 215.541 23.3437L201.741 23.4637C199.762 24.5269 197.95 25.8745 196.361 27.4637C196.426 27.5283 196.48 27.6025 196.521 27.6837C197.801 30.0037 193.121 31.4237 188.681 31.6837C187.609 31.7147 186.54 31.8149 185.481 31.9837C185.637 32.5024 185.712 33.0422 185.701 33.5837C185.701 33.8637 185.181 34.2237 184.501 34.5837C183.821 35.9637 178.361 38.5837 175.301 40.2437C171.901 42.0237 167.301 41.1237 167.301 38.4637C167.301 35.8037 169.801 36.3237 170.341 37.5637C170.541 38.0437 171.141 37.7037 171.961 37.1037C171.246 36.2255 171 35.0555 171.301 33.9637C170.281 33.5037 171.881 29.5237 169.801 28.8237C167.721 28.1237 165.161 31.8637 165.521 29.5437C165.881 27.2237 169.101 25.2637 167.141 22.2237C165.181 19.1837 161.601 19.2037 160.881 21.5237C160.161 23.8437 157.681 22.7637 156.781 24.5437C155.579 27.2265 155.21 30.2086 155.721 33.1037C156.421 35.9637 155.541 37.3837 152.861 38.9837C150.181 40.5837 148.861 36.5437 149.841 31.3237C150.541 27.7637 152.501 24.3637 150.721 24.3637C148.941 24.3637 153.041 20.0837 156.721 19.2037C160.401 18.3237 165.101 18.6637 165.101 17.5837C165.101 17.3837 165.281 17.2237 165.561 17.1237C164.831 16.5553 164.07 16.0278 163.281 15.5437C163.191 15.7962 163.023 16.0133 162.801 16.1637C161.321 17.1837 161.721 14.5637 159.041 14.5637C156.361 14.5637 153.701 17.0637 151.561 15.9837C149.421 14.9037 150.481 13.4837 148.521 13.4837C146.561 13.4837 149.961 9.7437 147.101 11.3437C144.241 12.9437 139.961 16.8837 138.001 15.1037C136.041 13.3237 134.261 15.6237 132.821 14.2037C131.381 12.7837 137.821 8.8437 140.821 9.0237C141.56 9.01019 142.269 8.7336 142.821 8.2437C141.221 7.6437 137.941 6.3637 137.061 7.4237C136.181 8.4837 134.461 7.9037 133.621 6.8237C132.781 5.7437 131.721 7.1837 130.301 5.5237C128.881 3.8637 127.441 5.0437 126.601 5.4037C125.761 5.7637 124.601 4.8037 123.161 4.2237C121.721 3.6437 122.801 2.0837 121.501 1.1237C120.201 0.163697 120.121 2.9237 120.121 2.9237L9.28141 3.5237C9.39667 3.70508 9.52361 3.87878 9.66141 4.0437C11.0014 5.4637 9.94141 6.5437 10.3814 8.2237C10.8214 9.9037 10.4814 12.3237 9.14141 12.3237C8.64337 12.3484 8.19542 12.0227 8.06543 11.5413C7.93545 11.0599 8.15859 10.553 8.60141 10.3237C9.58141 9.7837 9.04141 7.8237 8.06141 7.8237C7.50141 7.8237 7.26141 7.1437 7.28141 6.3637C5.18713 6.7651 3.03568 6.7651 0.941406 6.3637C0.961911 6.46938 0.961911 6.57802 0.941406 6.6837C1.12524 8.60898 1.81526 10.4513 2.94141 12.0237C4.36141 13.9037 3.38141 15.0637 4.72141 15.7837C6.06141 16.5037 5.96141 17.3037 4.72141 17.1237C3.48141 16.9437 4.36141 18.1037 3.92141 20.7637C3.48141 23.4237 3.56141 28.9837 3.28141 30.7637C3.00141 32.5437 1.06141 35.2237 2.22141 37.0237C3.54804 38.9117 4.03317 41.265 3.56141 43.5237C2.88755 45.2508 3.04997 47.1925 4.00141 48.7837C4.98141 50.4837 4.18141 53.4237 5.24141 54.0437C6.51253 54.9505 7.55365 56.1423 8.28141 57.5237C9.26141 59.1237 10.1614 58.1437 10.2814 59.7437C10.4014 61.3437 10.4614 61.6237 11.8814 62.2437C13.3014 62.8637 12.4214 64.4837 12.4214 65.3637C12.4214 66.2437 14.5414 67.7437 16.8614 69.7437C19.1814 71.7437 17.2214 73.4837 18.8614 73.4837C20.6726 73.6842 22.3946 74.3757 23.8414 75.4837C25.5414 76.5637 26.0814 75.9437 27.2414 76.2037C29.0039 77.168 30.339 78.7602 30.9814 80.6637C31.2076 81.5347 31.5087 82.3846 31.8814 83.2037L41.1414 81.9837C42.5227 82.9721 44.0292 83.7724 45.6214 84.3637C47.2414 84.7437 56.0014 87.9837 56.0014 87.9837L67.4214 87.8837L68.7614 86.1837H75.0414C76.5241 87.6624 78.0936 89.0515 79.7414 90.3437C80.3214 90.5237 82.3214 92.3437 82.3214 93.4837C82.2404 94.5442 82.7989 95.551 83.7414 96.0437C85.2077 97.0024 86.7694 97.8067 88.4014 98.4437C88.8814 98.2437 89.8414 94.6237 91.5614 94.7237C93.2814 94.8237 97.9414 96.1437 98.7014 98.7237C99.4349 100.851 100.752 102.729 102.501 104.144C103.261 104.724 102.881 106.344 103.461 107.184C104.041 108.024 103.941 109.664 104.601 109.664C105.261 109.664 108.601 111.764 110.221 111.664C110.828 111.723 111.409 111.944 111.901 112.304C112.081 109.104 108.801 108.584 110.741 107.104C112.681 105.624 110.641 103.984 111.721 103.284C112.801 102.584 114.661 101.844 114.661 100.784C114.661 99.7237 115.641 99.7037 117.061 99.8837C118.481 100.064 121.161 97.5637 121.061 96.5837C120.961 95.6037 121.341 95.4237 123.061 95.7837C124.781 96.1437 124.481 93.7837 125.541 94.1837C126.601 94.5837 127.541 95.1637 127.541 94.3637C127.541 93.5637 128.701 93.7437 129.541 94.8037C130.381 95.8637 132.661 96.1437 132.841 94.8037C133.021 93.4637 134.361 94.8037 135.521 96.0437C136.681 97.2837 137.201 96.9237 138.901 97.0237C140.601 97.1237 140.601 96.6637 140.681 95.6037C140.761 94.5437 142.561 97.9237 144.261 98.0837C145.961 98.2437 144.621 97.0237 143.361 96.0837C142.101 95.1437 143.621 94.6637 142.561 93.8637C141.501 93.0637 143.901 91.9837 146.041 92.0637C148.181 92.1437 148.041 92.7037 148.901 91.4437C149.761 90.1837 150.501 91.4437 150.501 92.5237C150.501 93.6037 153.981 91.8837 155.841 91.8837C157.523 91.9303 159.009 92.9895 159.601 94.5637C159.761 95.6437 161.021 96.1637 162.361 95.0037C163.701 93.8437 164.861 92.5237 166.101 93.7637C167.341 95.0037 168.601 96.7037 170.101 98.2237C171.601 99.7437 169.381 101.604 170.101 102.764C170.821 103.924 170.101 105.544 171.801 106.764C173.501 107.984 171.981 110.604 173.401 110.964C174.821 111.324 175.981 113.544 176.161 114.424C176.341 115.304 179.021 116.424 179.201 114.964C179.381 113.504 180.801 111.664 180.981 110.244C180.852 107.406 180.094 104.632 178.761 102.124C177.601 100.524 179.021 100.124 177.601 98.2837C176.061 95.9654 175.278 93.2259 175.361 90.4437C175.461 87.7637 178.581 83.4037 180.101 82.0637C181.621 80.7237 183.301 81.4437 183.661 80.0637C184.021 78.6837 185.881 76.8637 186.961 76.8637C188.041 76.8637 189.181 77.1237 189.361 75.9637C189.541 74.8037 191.361 73.3837 193.641 73.0237C195.921 72.6637 194.621 71.4237 194.001 70.3437C193.381 69.2637 194.541 68.2037 194.981 68.9237C195.73 69.6582 196.904 69.7347 197.741 69.1037C198.641 68.4837 200.681 66.7837 198.721 66.7037C196.761 66.6237 196.321 65.8037 197.481 65.3637C198.641 64.9237 197.661 62.7637 196.061 62.5837C194.461 62.4037 194.981 61.6037 196.061 60.5837C197.141 59.5637 194.641 58.0037 193.481 57.2037C192.321 56.4037 194.181 55.9637 195.081 55.7837C195.981 55.6037 195.261 51.5037 195.701 50.5237C196.141 49.5437 197.701 49.5437 197.041 50.5237C196.381 51.5037 195.521 53.1037 196.681 54.5237C197.858 55.8317 198.267 57.6587 197.761 59.3437C197.321 61.3437 198.201 60.8437 199.541 58.1837C200.881 55.5237 201.061 53.1837 200.161 52.9037C199.261 52.6237 199.361 49.9637 200.341 51.2237C201.321 52.4837 201.681 52.6437 203.201 51.0437C204.721 49.4437 206.321 46.6637 205.341 46.0437C204.361 45.4237 205.781 44.8037 207.561 44.8837C209.632 44.8588 211.662 44.3083 213.461 43.2837C214.321 41.5437 207.301 44.0837 207.301 43.1037C207.301 42.1237 211.761 41.1037 213.801 41.1037C215.841 41.1037 214.881 38.2637 215.801 39.4237C216.213 39.9104 216.802 40.212 217.437 40.2609C218.072 40.3097 218.701 40.1018 219.181 39.6837C220.341 38.9637 219.441 36.9237 218.101 36.5637C216.761 36.2037 219.101 35.3237 218.641 34.5637C218.527 32.714 219.548 30.9802 221.221 30.1837C222.921 29.8237 222.121 28.7637 223.541 28.7637C224.961 28.7637 225.241 27.0637 226.501 25.8237C227.761 24.5837 229.521 27.8237 231.481 25.9837C232.421 25.1597 233.424 24.4107 234.481 23.7437C231.756 20.6871 230.468 16.6112 230.941 12.5437L231.001 12.5237Z" fill="#294F6E" stroke="#002F57" stroke-width="0.75"/>
<path fill-rule="evenodd" clip-rule="evenodd" d="M191.141 121.084C190.881 121.604 189.561 120.384 189.521 119.464C189.481 118.544 188.161 118.364 188.161 116.764C188.161 115.164 188.801 114.184 189.621 115.584C190.441 116.984 189.901 117.924 190.041 118.604C190.181 119.284 191.581 120.144 191.141 121.084Z" fill="#294F6E" stroke="#002F57" stroke-width="0.75"/>
<path fill-rule="evenodd" clip-rule="evenodd" d="M255.381 178.624C254.841 178.144 256.181 177.164 255.381 176.744C254.581 176.324 257.381 175.124 258.321 175.924C259.261 176.724 259.361 177.924 258.541 178.264C257.721 178.604 255.861 179.084 255.381 178.624Z" fill="#00A7E0" stroke="#002F57" stroke-width="0.75"/>
</svg>
