<?xml version="1.0" encoding="UTF-8"?>
<svg width="117px" height="117px" viewBox="0 0 117 117" version="1.1" xmlns="http://www.w3.org/2000/svg" xmlns:xlink="http://www.w3.org/1999/xlink">
    <title>state-jurisdiction</title>
    <defs>
        <linearGradient x1="50%" y1="-125.480886%" x2="50%" y2="100%" id="linearGradient-1">
            <stop stop-color="#002F57" offset="0%"></stop>
            <stop stop-color="#0075D7" offset="99.9918051%"></stop>
        </linearGradient>
        <linearGradient x1="50%" y1="-125.480886%" x2="50%" y2="100%" id="linearGradient-2">
            <stop stop-color="#002F57" offset="0%"></stop>
            <stop stop-color="#0075D7" offset="99.9918051%"></stop>
        </linearGradient>
        <linearGradient x1="50%" y1="-125.480886%" x2="50%" y2="100%" id="linearGradient-3">
            <stop stop-color="#002F57" offset="0%"></stop>
            <stop stop-color="#0075D7" offset="99.9918051%"></stop>
        </linearGradient>
        <linearGradient x1="50%" y1="-125.480886%" x2="50%" y2="100%" id="linearGradient-4">
            <stop stop-color="#002F57" offset="0%"></stop>
            <stop stop-color="#0075D7" offset="99.9918051%"></stop>
        </linearGradient>
        <linearGradient x1="50%" y1="-125.480886%" x2="50%" y2="100%" id="linearGradient-5">
            <stop stop-color="#002F57" offset="0%"></stop>
            <stop stop-color="#0075D7" offset="99.9918051%"></stop>
        </linearGradient>
        <linearGradient x1="50%" y1="-125.480886%" x2="50%" y2="100%" id="linearGradient-6">
            <stop stop-color="#002F57" offset="0%"></stop>
            <stop stop-color="#0075D7" offset="99.9918051%"></stop>
        </linearGradient>
    </defs>
    <g id="Symbols" stroke="none" stroke-width="1" fill="none" fill-rule="evenodd">
        <g id="icons-/-x-large-/-light-/-state-jurisdiction" transform="translate(0.000000, -1.000000)">
            <g id="state-jurisdiction" transform="translate(0.000000, 1.000000)">
                <path d="M27.7708184,34.1836523 L56.8290938,34.1836523 C59.0450098,34.1836523 59.0450098,30.755918 56.8290938,30.755918 L27.7708184,30.755918 C25.5546738,30.755918 25.5546738,34.1836523 27.7708184,34.1836523 Z" id="Path" fill="url(#linearGradient-1)"></path>
                <path d="M27.7708184,47.4844043 L51.5746055,47.4665801 C53.7391055,47.4649805 53.688832,44.0388457 51.5718633,44.0388457 L27.7694473,44.0566699 C25.5542168,44.0582695 25.5558164,47.4844043 27.7708184,47.4844043 Z" id="Path" fill="url(#linearGradient-2)"></path>
                <path d="M27.7708184,60.7851563 L47.6900684,60.767332 C49.8545684,60.7652754 49.8038379,57.3395977 47.6868691,57.3395977 L27.7692187,57.3574219 C25.5539883,57.3594785 25.5558164,60.7851563 27.7708184,60.7851563 Z" id="Path" fill="url(#linearGradient-3)"></path>
                <path d="M27.7708184,74.0856797 L48.0668906,74.068084 C50.2313906,74.0660273 50.1808887,70.6403496 48.0639199,70.6403496 L27.7692187,70.6579453 C25.5542168,70.660002 25.5558164,74.0856797 27.7708184,74.0856797 Z" id="Path" fill="url(#linearGradient-4)"></path>
                <path d="M56.3638359,83.9411016 L27.7699043,83.9586973 C25.6054043,83.9602969 25.6552207,87.3864316 27.7719609,87.3864316 L56.3649785,87.3688359 C58.580209,87.3672363 58.5790664,83.9411016 56.3638359,83.9411016 Z" id="Path" fill="url(#linearGradient-5)"></path>
                <path d="M27.7696758,97.2594492 C25.6051758,97.2610488 25.6549922,100.687184 27.7719609,100.687184 L55.9883848,100.669588 C58.2036152,100.667988 58.2024727,97.2418535 55.9872422,97.2418535 L27.7696758,97.2594492 Z" id="Path" fill="url(#linearGradient-6)"></path>
                <path d="M116.897625,60.3061875 L108.289898,36.6390527 C108.001055,35.9299688 107.430223,35.5074434 106.577631,35.371248 L98.301709,35.371248 C97.5316113,30.0678574 93.299959,25.8739102 87.9794297,25.1584277 L87.9794297,16.562584 C87.9794297,14.3676914 86.1940371,12.5816133 83.9991445,12.5816133 L81.5270625,12.5816133 L81.5270625,10.4420215 C81.5270625,8.24712891 79.7416699,6.46105078 77.5470059,6.46105078 L75.0682969,6.46105078 L75.0682969,3.9809707 C75.0682969,1.78584961 73.2826758,0 71.0880117,0 L3.9809707,0 C1.78630664,0 0.000914062501,1.78584961 0.000914062501,3.9809707 L0.000914062501,100.437645 C0.000914062501,102.632537 1.78630664,104.418615 3.9809707,104.418615 L6.45967969,104.418615 L6.45967969,106.898467 C6.45967969,109.093359 8.24507227,110.879438 10.4449922,110.879438 L12.9118184,110.872125 L12.9118184,113.019258 C12.9118184,115.21415 14.6972109,117.000229 16.891875,117.000229 L70.4285156,117.000229 C70.8889746,117.000229 71.3238398,116.807133 71.6522168,116.486297 L87.4741816,100.739285 C87.7975313,100.417764 87.9789727,99.9806133 87.9789727,99.5247246 L87.9789727,87.6119766 L91.2314355,87.6119766 C93.4473516,87.6119766 93.4473516,84.1842422 91.2314355,84.1842422 L70.0260996,84.1842422 C70.7639766,81.7347832 73.0406777,79.9452773 75.7273359,79.9452773 L96.9998555,79.9452773 C99.6865137,79.9452773 101.963215,81.7347832 102.701092,84.1842422 L100.284082,84.1842422 C98.068166,84.1842422 98.068166,87.6119766 100.284082,87.6119766 L104.666326,87.6119766 C105.612838,87.6119766 106.380193,86.8448496 106.380193,85.8981094 C106.380193,80.7256582 102.172078,76.517543 96.9998555,76.517543 L91.3475215,76.517543 L91.3475215,38.8261758 L104.282877,38.7992109 L96.4607871,60.306416 C96.3830918,60.5207637 96.3474434,60.7570488 96.3600117,60.9848789 C96.4102852,66.6335566 101.018988,71.2136953 106.67932,71.2136953 C112.339652,71.2136953 116.948355,66.6333281 116.999184,60.9848789 C116.999184,60.9768809 116.999184,60.9691113 116.999184,60.9613418 C117.000457,60.7383105 116.974178,60.5168789 116.897625,60.3061875 Z M112.839873,59.1780059 L100.518539,59.1780059 L106.67932,42.2390566 L112.839873,59.1780059 Z M77.9037188,35.3710195 C78.711293,31.4400938 82.1977559,28.4746465 86.3640527,28.4746465 C90.5303496,28.4746465 94.016584,31.4400938 94.8243867,35.3710195 L77.9037188,35.3710195 Z M10.4399648,107.451475 C10.1353535,107.451475 9.88741406,107.203307 9.88741406,106.898238 L9.88741406,36.7962715 C9.88741406,34.5803555 6.45967969,34.5803555 6.45967969,36.7962715 L6.45967969,100.990652 L3.9809707,100.990652 C3.67635938,100.990652 3.42864844,100.742484 3.42864844,100.437416 L3.42864844,3.9809707 C3.42864844,3.67590234 3.67635938,3.42773438 3.9809707,3.42773438 L71.0880117,3.42773438 C71.392623,3.42773438 71.640334,3.67590234 71.640334,3.9809707 L71.640334,6.46105078 L10.4399648,6.46105078 C8.24530078,6.46105078 6.45967969,8.24690039 6.45967969,10.4420215 L6.45967969,28.2276211 C6.45967969,30.4435371 9.88741406,30.4435371 9.88741406,28.2276211 L9.88741406,10.441793 C9.88741406,10.1367246 10.135125,9.88855664 10.4399648,9.88855664 L77.5467773,9.88855664 C77.8513887,9.88855664 78.0990996,10.1367246 78.0990996,10.441793 L78.0990996,12.5813848 L16.8921035,12.5813848 C14.6974395,12.5813848 12.9120469,14.3672344 12.9120469,16.5623555 L12.9120469,107.443934 L10.4399648,107.451475 Z M72.1426113,111.135146 L72.1426113,101.644436 C72.1426113,101.339367 72.3903223,101.091199 72.6951621,101.091199 L82.141084,101.091199 L72.1426113,111.135146 Z M84.8078613,76.5004043 L84.8078613,38.851541 L87.9200156,38.851541 L87.9200156,76.5004043 L84.8078613,76.5004043 Z M75.727793,76.5173145 C70.5555703,76.5173145 66.3474551,80.7254297 66.3474551,85.8978809 C66.3474551,86.8446211 67.1148105,87.611748 68.0613223,87.611748 L84.5516953,87.611748 L84.5516953,97.6634648 L72.6951621,97.6634648 C70.500498,97.6634648 68.714877,99.4493145 68.714877,101.644436 L68.714877,113.572266 L16.8921035,113.572266 C16.5874922,113.572266 16.3397813,113.324098 16.3397813,113.019029 L16.3397813,16.562584 C16.3397813,16.2575156 16.5874922,16.0093477 16.8921035,16.0093477 L83.9991445,16.0093477 C84.3037559,16.0093477 84.5516953,16.2575156 84.5516953,16.562584 L84.5516953,25.1835645 C79.3234863,25.974457 75.186668,30.1332129 74.426168,35.371248 L66.1500176,35.371248 C65.2974258,35.5074434 64.7265938,35.9299688 64.43775,36.6390527 L55.8300234,60.3061875 C55.7523281,60.5205352 55.7166797,60.7568203 55.729248,60.9846504 C55.7795215,66.6333281 60.3882246,71.2134668 66.0485566,71.2134668 C71.7088887,71.2134668 76.3175918,66.6330996 76.3678652,60.9846504 C76.3802051,60.7570488 76.3447852,60.5205352 76.2670898,60.3061875 L68.445,38.7989824 L81.3803555,38.8259473 L81.3803555,76.5173145 L75.727793,76.5173145 Z M59.8877754,59.1780059 L66.0485566,42.2390566 L72.2093379,59.1780059 L59.8877754,59.1780059 Z M72.7269258,62.6057402 C71.962998,65.5807852 69.2585156,67.7857324 66.0485566,67.7857324 C62.8385977,67.7857324 60.1341152,65.5807852 59.3701875,62.6057402 L72.7269258,62.6057402 Z M106.67932,67.7857324 C103.469361,67.7857324 100.764879,65.5807852 100.000951,62.6057402 L113.357461,62.6057402 C112.593762,65.5805566 109.889279,67.7857324 106.67932,67.7857324 Z" id="Shape" fill="#FFFFFF" fill-rule="nonzero"></path>
            </g>
        </g>
    </g>
</svg>