<?xml version="1.0" encoding="UTF-8"?>
<svg width="381px" height="381px" viewBox="0 0 381 381" version="1.1" xmlns="http://www.w3.org/2000/svg" xmlns:xlink="http://www.w3.org/1999/xlink">
    <title>373D3471-42ED-4183-BD28-356323FCAC07</title>
    <defs>
        <linearGradient x1="50%" y1="0%" x2="50%" y2="100%" id="linearGradient-1">
            <stop stop-color="#005E91" offset="0%"></stop>
            <stop stop-color="#003058" offset="100%"></stop>
        </linearGradient>
        <linearGradient x1="50%" y1="0%" x2="50%" y2="100%" id="linearGradient-2">
            <stop stop-color="#005E91" offset="0%"></stop>
            <stop stop-color="#003058" offset="100%"></stop>
        </linearGradient>
        <linearGradient x1="50%" y1="0%" x2="50%" y2="100%" id="linearGradient-3">
            <stop stop-color="#005E91" offset="0%"></stop>
            <stop stop-color="#003058" offset="100%"></stop>
        </linearGradient>
    </defs>
    <g id="CB,-Sub,-MOR" stroke="none" stroke-width="1" fill="none" fill-rule="evenodd">
        <g id="Subscriptions" transform="translate(-906.000000, -2247.000000)" fill-rule="nonzero">
            <g id="Stacked-Group" transform="translate(-4.000000, -6.359504)">
                <g id="Section-Copy" transform="translate(2.000000, 2148.000000)">
                    <g id="subscription-(2)" transform="translate(908.000000, 105.359165)">
                        <path d="M259.928571,0 L120.071429,0 C109.539307,0 101,8.53926713 101,19.0713399 L101,247.927419 C101,258.459491 109.539307,266.998759 120.071429,266.998759 L158.214286,266.998759 L158.214286,254.284532 L120.071429,254.284532 C116.560721,254.284532 113.714286,251.43811 113.714286,247.927419 L113.714286,19.0713399 C113.714286,15.5606487 116.560721,12.7142266 120.071429,12.7142266 L259.928571,12.7142266 C263.439279,12.7142266 266.285714,15.5606487 266.285714,19.0713399 L266.285714,247.927419 C266.285714,251.43811 263.439279,254.284532 259.928571,254.284532 L221.785714,254.284532 L221.785714,266.998759 L259.928571,266.998759 C270.460693,266.998759 279,258.459491 279,247.927419 L279,19.0713399 C279,8.53926713 270.460693,0 259.928571,0 Z" id="Path" fill="url(#linearGradient-1)"></path>
                        <path d="M19.0714286,240.998879 L89,240.998879 L89,228.293056 L19.0714286,228.293056 C15.5607211,228.293056 12.7142857,225.448515 12.7142857,221.940145 L12.7142857,44.0586187 C12.7142857,40.5502478 15.5607211,37.705707 19.0714286,37.705707 L89,37.705707 L89,24.9998838 L19.0714286,24.9998838 C8.53930684,24.9998838 0,33.533507 0,44.0586187 L0,221.940145 C0,232.465256 8.53930684,240.998879 19.0714286,240.998879 Z" id="Path" fill="url(#linearGradient-2)"></path>
                        <polygon id="Path" fill="#B03478" points="152 31.9998512 165 31.9998512 165 44.9997908 152 44.9997908"></polygon>
                        <polygon id="Path" fill="#B03478" points="178 31.9998512 229 31.9998512 229 44.9997908 178 44.9997908"></polygon>
                        <polygon id="Path" fill="#B03478" points="133 63.9997024 146 63.9997024 146 88.9995862 133 88.9995862"></polygon>
                        <polygon id="Path" fill="#B03478" points="159 63.9997024 172 63.9997024 172 88.9995862 159 88.9995862"></polygon>
                        <polygon id="Path" fill="#B03478" points="184 63.9997024 197 63.9997024 197 88.9995862 184 88.9995862"></polygon>
                        <polygon id="Path" fill="#B03478" points="209 63.9997024 222 63.9997024 222 88.9995862 209 88.9995862"></polygon>
                        <polygon id="Path" fill="#B03478" points="235 63.9997024 248 63.9997024 248 88.9995862 235 88.9995862"></polygon>
                        <polygon id="Path" fill="#B03478" points="184 107.999498 228 107.999498 228 120.999437 184 120.999437"></polygon>
                        <path d="M171,221.998968 L209,221.998968 C219.492676,221.998968 228,213.491683 228,202.999056 C228,192.506429 219.492676,183.999144 209,183.999144 L171,183.999144 C160.507324,183.999144 152,192.506429 152,202.999056 C152,213.491683 160.507324,221.998968 171,221.998968 Z M171,196.665752 L209,196.665752 C212.497559,196.665752 215.333333,199.501514 215.333333,202.999056 C215.333333,206.496599 212.497559,209.33236 209,209.33236 L171,209.33236 C167.502441,209.33236 164.666667,206.496599 164.666667,202.999056 C164.666667,199.501514 167.502441,196.665752 171,196.665752 Z" id="Shape" fill="#B03478"></path>
                        <polygon id="Path" fill="#B03478" points="70 50.9997629 89 50.9997629 89 63.9997024 70 63.9997024"></polygon>
                        <polygon id="Path" fill="#B03478" points="25 82.9996141 38 82.9996141 38 101.999526 25 101.999526"></polygon>
                        <polygon id="Path" fill="#B03478" points="51 82.9996141 64 82.9996141 64 101.999526 51 101.999526"></polygon>
                        <polygon id="Path" fill="#B03478" points="76 82.9996141 89 82.9996141 89 101.999526 76 101.999526"></polygon>
                        <polygon id="Path" fill="#B03478" points="44 50.9997629 57 50.9997629 57 63.9997024 44 63.9997024"></polygon>
                        <path d="M51,208.999028 L89,208.999028 L89,196.33242 L51,196.33242 C47.5024412,196.33242 44.6666667,193.496659 44.6666667,189.999117 C44.6666667,186.501574 47.5024412,183.665813 51,183.665813 L89,183.665813 L89,170.999205 L51,170.999205 C40.5073244,170.999205 32,179.50649 32,189.999117 C32,200.491743 40.5073244,208.999028 51,208.999028 Z" id="Path" fill="#B03478"></path>
                        <path d="M361.928571,24.9998838 L292,24.9998838 L292,37.705707 L361.928571,37.705707 C365.439279,37.705707 368.285714,40.5502478 368.285714,44.0586187 L368.285714,221.940145 C368.285714,225.448515 365.439279,228.293056 361.928571,228.293056 L292,228.293056 L292,240.998879 L361.928571,240.998879 C372.460693,240.998879 381,232.465256 381,221.940145 L381,44.0586187 C381,33.533507 372.460693,24.9998838 361.928571,24.9998838 Z" id="Path" fill="url(#linearGradient-2)"></path>
                        <polygon id="Path" fill="#B03478" points="292 50.9997629 336 50.9997629 336 63.9997024 292 63.9997024"></polygon>
                        <polygon id="Path" fill="#B03478" points="343 82.9996141 356 82.9996141 356 101.999526 343 101.999526"></polygon>
                        <polygon id="Path" fill="#B03478" points="317 82.9996141 330 82.9996141 330 101.999526 317 101.999526"></polygon>
                        <polygon id="Path" fill="#B03478" points="292 82.9996141 305 82.9996141 305 101.999526 292 101.999526"></polygon>
                        <path d="M292,170.999205 L292,183.665813 L330,183.665813 C333.497559,183.665813 336.333333,186.501574 336.333333,189.999117 C336.333333,193.496659 333.497559,196.33242 330,196.33242 L292,196.33242 L292,208.999028 L330,208.999028 C340.492676,208.999028 349,200.491743 349,189.999117 C349,179.50649 340.492676,170.999205 330,170.999205 L292,170.999205 Z" id="Path" fill="#B03478"></path>
                        <path d="M285.998504,374.650943 L285.998504,305.511037 C286.114973,296.036802 279.41975,287.839435 270.097368,286.045002 C264.548035,285.13074 258.877592,286.695833 254.585942,290.32189 C254.458621,290.424163 254.3313,290.532634 254.210189,290.647305 C246.974629,284.163792 236.00639,284.163792 228.770829,290.647305 C223.510298,286.144176 216.274737,284.712349 209.691309,286.869388 L209.691309,254.733851 C209.812419,245.259616 203.114092,237.06225 193.791709,235.267816 C188.251692,234.328761 182.575038,235.875259 178.283388,239.498216 C173.988633,243.118074 171.516742,248.445588 171.519847,254.055127 L171.519847,331.70542 L154.642049,321.602049 C149.490205,318.496657 143.099312,318.25492 137.730092,320.966714 L136.717734,321.468783 C131.20256,324.223966 127.535094,329.659952 127.053758,335.796355 C126.572423,341.932758 129.348642,347.873912 134.366953,351.45348 L174.184272,379.829695 C175.264949,380.595196 176.556791,381.004289 177.879687,380.998161 L279.637128,380.998161 C283.149325,380.998161 285.998504,378.156131 285.998504,374.650943 L285.998504,374.650943 Z M273.277288,368.303795 L179.913718,368.303795 L141.754678,341.105273 C140.366568,340.11663 139.596431,338.470959 139.726857,336.7726 C139.857284,335.074243 140.866536,333.564936 142.391283,332.796336 L143.40364,332.303564 C144.888017,331.556658 146.654984,331.621741 148.077253,332.480218 L174.591078,348.348088 C176.556791,349.53198 179.006944,349.569171 181.003711,348.444163 C183.003581,347.319156 184.239527,345.205506 184.239527,342.915202 L184.239527,254.055127 C184.239527,252.177016 185.071772,250.39498 186.512673,249.189394 C187.95668,247.980708 189.860284,247.47554 191.711098,247.804054 C194.887912,248.578852 197.080318,251.473499 196.959207,254.733851 L196.959207,304.832313 C196.959207,308.337501 199.80685,311.179461 203.319047,311.179461 C206.831244,311.179461 209.678887,308.337501 209.678887,304.832313 C209.678887,301.327125 212.52653,298.485165 216.038728,298.485165 C219.550925,298.485165 222.398568,301.327125 222.398568,304.832313 C222.398568,308.337501 225.246211,311.179461 228.758408,311.179461 C232.270605,311.179461 235.118248,308.337501 235.118248,304.832313 C235.118248,301.327125 237.965891,298.485165 241.478088,298.485165 C244.990285,298.485165 247.837928,301.327125 247.837928,304.832313 C247.837928,308.337501 250.685571,311.179461 254.197768,311.179461 C257.709965,311.179461 260.557608,308.337501 260.557608,304.832313 C260.557608,302.954201 261.389853,301.172166 262.830754,299.96658 C264.27476,298.757894 266.178365,298.252725 268.029178,298.58124 C271.205992,299.356038 273.398398,302.250685 273.277288,305.511037 L273.277288,368.303795 Z" id="Shape" fill="url(#linearGradient-3)"></path>
                        <polygon id="Path" fill="#B03478" points="152 107.999498 171 107.999498 171 120.999437 152 120.999437"></polygon>
                        <polygon id="Path" fill="#B03478" points="152 132.999382 228 132.999382 228 145.999321 152 145.999321"></polygon>
                        <polygon id="Path" fill="#B03478" points="165 158.999261 216 158.999261 216 171.9992 165 171.9992"></polygon>
                        <polygon id="Path" fill="#B03478" points="51 119.999442 89 119.999442 89 132.999382 51 132.999382"></polygon>
                        <polygon id="Path" fill="#B03478" points="64 145.999321 89 145.999321 89 158.999261 64 158.999261"></polygon>
                        <polygon id="Path" fill="#B03478" points="292 119.999442 324 119.999442 324 132.999382 292 132.999382"></polygon>
                        <polygon id="Path" fill="#B03478" points="292 145.999321 311 145.999321 311 158.999261 292 158.999261"></polygon>
                    </g>
                </g>
            </g>
        </g>
    </g>
</svg>