<?xml version="1.0" encoding="UTF-8"?>
<svg width="1920px" height="1080px" viewBox="0 0 1920 1080" version="1.1" xmlns="http://www.w3.org/2000/svg" xmlns:xlink="http://www.w3.org/1999/xlink">
    <!-- Generator: Sketch 61 (89581) - https://sketch.com -->
    <title>Synnex</title>
    <desc>Created with Sketch.</desc>
    <g id="Synnex" stroke="none" stroke-width="1" fill="none" fill-rule="evenodd">
        <g id="SYNNEX_Japan_RGB" transform="translate(1.000000, 163.000000)" fill="#025758" fill-rule="nonzero">
            <g id="Group">
                <path d="M290.433304,4.11548877 C192.523029,50.4386847 126.007897,152.136736 127.60426,260.224193 C127.072139,369.909002 195.183634,474.269305 294.158151,518.462699 L337.792078,534.968665 C337.792078,534.968665 323.956931,536.566017 320.764204,536.033566 C228.707261,535.501116 143.567891,487.580568 95.144875,406.115638 C47.7861007,333.169915 46.7218586,218.160601 91.9521487,143.617527 C133.457591,66.9446511 212.743629,23.2837078 290.433304,4.11548877" id="Path"></path>
                <path d="M566.604134,42.9843773 C462.840527,12.1022467 345.773894,42.9843773 274.469672,124.449308 C200.504845,205.914239 181.348487,328.910311 225.514535,427.413659 L246.799377,468.9448 C246.799377,468.9448 235.624835,460.958042 233.496351,458.295789 C165.384855,395.999078 133.989712,303.885136 153.146071,210.706294 C166.981218,124.981759 243.07453,38.7247731 326.617536,13.6995983 C408.032058,-15.0527302 496.364154,5.18038982 566.604134,42.9843773" id="Path"></path>
                <path d="M561.282924,708.015087 C456.987196,770.311799 295.754515,769.246898 193.05515,704.820384 C48.3182217,620.6932 -24.0502424,462.555394 7.34490012,298.02818 C16.3909581,254.367237 32.3545899,213.900997 55.7679166,176.097009 C19.5836845,277.26261 44.0612533,392.271924 118.558202,468.412349 C189.862424,545.085225 302.139967,572.240202 402.178727,543.487874 C419.738722,537.098467 437.830838,531.773962 454.326591,522.189853 L561.282924,708.015087 Z" id="Path"></path>
                <path d="M753.910747,288.444071 C709.744699,189.408273 609.70594,121.254605 501.685365,120.189704 C392.068427,117.527451 286.176336,183.551317 240.413924,280.989763 L222.853929,324.118256 C222.853929,324.118256 221.789687,310.274542 222.321808,307.079839 C224.450293,214.965898 273.937551,130.838714 356.948437,84.5155185 C430.913264,38.7247731 545.851413,40.3221247 619.284119,87.1777712 C694.313189,129.773813 736.882873,210.173843 753.910747,288.444071" id="Path"></path>
            </g>
            <g id="Group" transform="translate(542.000000, 311.000000)">
                <g id="Path">
                    <path d="M138.866958,7.11416303 L138.334254,53.9508906 L130.343701,53.9508906 L128.212886,29.4680557 C113.297186,15.6299317 93.5871545,10.3075763 72.2790117,14.5654606 C58.4287189,17.7588738 46.7092404,31.0647623 42.4476119,44.3706508 C36.5878726,61.9344237 38.7186869,83.2238453 48.3073511,97.5942048 C78.138751,131.125044 128.212886,124.738217 152.184547,166.25259 C166.567543,191.26766 162.838618,229.056383 145.792104,251.410276 C109.568262,292.392413 52.5689797,292.924648 0.896733556,282.812173 C1.96214069,262.587222 1.42943712,246.620156 1.42943712,226.927441 L10.4853978,226.927441 C14.2143228,238.104387 9.41999065,253.006983 19.5413585,260.990516 C38.7186869,278.554288 67.4846796,281.747702 90.9236366,272.167462 C107.970151,264.716164 121.28774,247.152392 123.418554,228.524148 C126.082072,208.299197 121.820444,189.138718 106.904744,174.768358 C73.3444189,147.09211 15.2797299,148.156581 3.5602514,97.5942048 C-2.29948785,69.3857212 4.62565853,41.1772376 25.9338013,20.9522871 C55.7652011,-4.59501886 102.110412,-1.40160562 138.866958,7.11416303"></path>
                    <path d="M429.723106,7.11416303 L565.029812,192.864367 L593.263102,227.459677 C595.926619,159.865763 595.926619,86.949494 589.001473,18.2911094 C581.543623,17.2266383 572.487662,17.2266383 563.964405,16.1621672 C561.833591,14.033225 562.898998,10.3075763 562.898998,7.11416303 L641.206423,6.58192749 L642.27183,15.6299317 L616.702059,17.7588738 C604.98258,103.448796 603.917173,193.928838 606.047987,282.812173 L583.674437,282.812173 L522.946231,194.993309 L413.209295,45.9673575 C412.143888,117.819155 412.143888,196.590015 416.93822,269.506284 C424.928774,271.102991 433.984735,272.167462 443.040695,272.699698 L443.573399,281.747702 L365.265974,281.215466 L365.265974,273.231933 L390.303042,271.635226 C400.957113,191.26766 402.022521,103.448796 399.891706,19.887816 L397.228188,17.2266383 C386.041414,17.2266383 376.452749,14.5654606 365.798678,17.2266383 C331.70565,63.5311303 306.668582,113.029036 283.762328,164.123647 L286.95855,270.570755 L314.126432,272.699698 C315.724542,274.82864 314.659135,278.554288 315.191839,281.747702 L216.108975,281.747702 L216.108975,273.231933 C225.164936,272.167462 234.7536,271.635226 244.874968,271.635226 C248.071189,238.636623 250.202004,204.041313 249.136596,169.446003 C226.763047,118.351391 202.258682,67.2567791 174.025393,18.2911094 C166.567543,17.2266383 158.57699,17.2266383 151.11914,16.1621672 C148.988326,14.033225 150.053733,10.3075763 150.053733,7.64639857 L243.276857,7.11416303 C244.342264,9.77534073 243.809561,12.968754 244.342264,15.0976961 C236.884414,17.7588738 227.29575,16.6944027 219.8379,17.7588738 C235.286304,61.4021881 257.659854,104.513267 280.033403,146.559875 C302.406953,105.577738 323.715096,62.4666592 339.163499,18.2911094 C332.771057,16.1621672 324.2478,16.6944027 317.322653,15.6299317 L317.322653,6.58192749 C353.013792,9.24310519 392.433856,7.11416303 429.723106,7.11416303"></path>
                    <path d="M806.877233,146.027639 C827.652672,173.171652 846.83,200.8479 869.736254,227.459677 L870.801661,226.395206 C872.932475,159.333528 871.867068,85.885023 865.474625,19.3555804 C858.016775,18.2911094 847.895407,18.2911094 840.437557,17.2266383 L839.37215,8.71086965 L918.744982,8.17863411 L918.744982,16.6944027 L893.175211,18.8233449 C881.455732,105.045502 880.390325,192.864367 882.521139,283.876644 L860.147589,283.876644 L780.774758,171.042709 L689.682447,47.0318285 C687.551633,114.093507 688.61704,197.654486 693.411372,271.102991 C701.93463,273.231933 712.055997,272.699698 720.046551,274.296404 L720.046551,283.876644 C695.542187,282.279937 667.841601,282.279937 642.804533,283.876644 L641.739126,274.296404 L666.776194,272.699698 C677.430265,192.332131 678.495673,106.109973 676.364858,20.9522871 L673.70134,18.2911094 L648.664273,17.2266383 L648.664273,7.64639857 L707.261665,8.17863411 L806.877233,146.027639 Z"></path>
                    <path d="M1098.79879,8.17863411 L1097.73338,54.4831261 L1090.80823,55.0153616 C1088.67742,47.0318285 1090.80823,34.7904111 1081.21957,30.0002913 C1054.05169,19.887816 1023.15488,17.2266383 992.258074,19.3555804 C988.529149,58.2087749 990.12726,100.787618 989.061853,138.576341 C1011.4354,139.640813 1035.40706,140.173048 1055.1171,131.657279 C1058.84602,124.738217 1058.31332,116.222449 1059.37872,107.174445 L1067.90198,107.174445 L1066.83657,184.348598 L1058.84602,184.348598 C1058.31332,175.300594 1058.31332,166.25259 1055.1171,158.801292 C1035.93977,148.688817 1013.03351,149.753288 990.12726,148.156581 C987.996446,187.009776 989.061853,229.588619 991.192667,270.570755 C1025.2857,271.102991 1060.97683,271.102991 1090.80823,258.861574 C1097.73338,251.410276 1095.60257,240.23333 1096.66797,230.120854 L1105.19123,229.588619 L1104.65853,282.812173 L917.679575,281.747702 L917.679575,273.231933 L948.043678,271.635226 L951.2399,221.07285 L951.772603,57.1443038 L949.641789,19.3555804 L923.539314,15.6299317 C921.4085,12.968754 923.539314,9.77534073 923.539314,6.58192749 C986.398335,10.8398118 1037.00517,8.17863411 1098.79879,8.17863411"></path>
                    <path d="M1227.18035,8.17863411 L1227.71305,16.6944027 L1201.61058,19.3555804 L1202.14328,23.0812292 C1219.7225,55.0153616 1237.83442,86.949494 1257.01175,118.351391 C1280.4507,87.4817296 1300.69344,53.9508906 1320.40347,20.4200515 C1313.47833,18.2911094 1306.02048,17.7588738 1298.56263,17.2266383 C1297.49722,14.5654606 1298.02992,11.3720473 1298.02992,8.17863411 C1322.53429,9.24310519 1345.97324,9.24310519 1369.9449,7.64639857 C1371.01031,10.3075763 1369.9449,13.5009895 1370.47761,16.1621672 L1351.30028,18.8233449 C1317.73995,53.418655 1287.37585,90.1429073 1262.87149,128.463866 C1290.57207,177.429536 1316.14184,226.927441 1351.83298,273.231933 L1375.27194,274.296404 L1375.27194,283.344408 L1277.25448,283.876644 L1277.25448,274.296404 C1284.71233,273.231933 1291.63748,273.764169 1298.56263,273.764169 C1288.97396,247.152392 1273.52556,221.07285 1260.20797,195.525544 C1253.28282,184.348598 1246.35768,172.639416 1239.96523,161.46247 C1218.65709,186.47754 1200.54517,214.686024 1182.43325,241.830036 L1164.32133,271.635226 C1171.77918,274.296404 1182.96595,273.231933 1192.55462,274.296404 L1192.55462,283.876644 L1108.38745,283.876644 L1108.38745,274.296404 L1130.761,273.231933 C1170.71377,234.910974 1202.67598,192.332131 1233.04009,149.221052 C1208.53572,105.577738 1183.49866,61.9344237 1153.66726,20.4200515 C1145.144,15.0976961 1123.30315,25.2101714 1128.09748,7.64639857 C1160.0597,10.3075763 1195.21813,10.3075763 1227.18035,8.17863411"></path>
                </g>
                <g transform="translate(320.856222, 342.863784)">
                    <g transform="translate(111.867749, 0.000000)">
                        <path d="M29.4940527,49.58891 L23.1016098,61.2980919 C22.5689063,62.362563 22.5689063,62.8947986 22.5689063,63.9592696 C22.5689063,66.0882118 24.6997206,67.1526829 26.8305348,67.1526829 L34.2883848,67.6849184 L34.2883848,71.4105672 C26.8305348,71.4105672 21.5034991,70.8783317 17.2418706,70.8783317 C12.980242,70.8783317 7.65320636,70.8783317 0.195356407,71.4105672 L0.195356407,67.6849184 L4.98968852,67.1526829 C8.7186135,66.6204473 11.9148349,63.9592696 13.5129456,60.7658564 L40.6808276,15.5258355 L49.2040847,0.0910048168 L59.8581561,0.0910048168 L99.2782201,62.362563 C100.876331,65.0237407 103.007145,66.6204473 107.801477,67.1526829 L111.530402,67.6849184 L111.530402,71.4105672 C101.409034,71.4105672 93.9511844,70.8783317 88.0914452,70.8783317 C82.2317059,70.8783317 74.773856,70.8783317 64.6524882,71.4105672 L64.6524882,67.6849184 L72.6430417,67.1526829 C74.2411524,67.1526829 75.8392631,66.0882118 75.8392631,63.9592696 C75.8392631,63.4270341 75.3065596,62.362563 74.773856,61.2980919 L67.8487096,49.58891 L29.4940527,49.58891 Z M33.2229776,43.7343191 L64.1197846,43.7343191 L48.1386776,17.6547776 L33.2229776,43.7343191 Z" id="Shape"></path>
                        <path d="M180.249163,14.9935999 C180.249163,10.7357156 180.249163,8.07453792 179.183755,6.4778313 C178.651052,5.41336022 177.052941,4.88112468 172.791313,4.88112468 L166.931573,4.34888914 L166.931573,0.623240357 C177.052941,0.623240357 184.510791,1.1554759 190.37053,1.1554759 C200.491898,1.1554759 210.613266,1.1554759 221.267337,0.623240357 L222.865448,0.623240357 C237.781148,0.623240357 251.098737,3.8166536 251.098737,16.058071 C251.098737,29.8961951 235.650334,37.8797282 215.940302,37.8797282 C213.276784,37.8797282 210.613266,37.3474926 207.949748,37.3474926 L205.28623,33.6218438 L206.884341,32.5573728 C209.015155,32.5573728 211.145969,33.0896083 213.276784,33.0896083 C223.930855,33.0896083 229.257891,26.7027818 229.257891,20.3159553 C229.257891,11.8001867 224.463559,5.94559576 211.145969,5.94559576 C207.949748,5.94559576 203.68812,5.94559576 201.557305,7.01006684 L201.557305,57.0402076 C201.557305,61.2980919 201.557305,63.9592696 202.622712,65.5559763 C203.155416,66.6204473 204.753527,66.6204473 209.015155,67.1526829 L215.940302,67.6849184 L215.940302,71.9428027 C208.482452,71.9428027 199.959195,71.4105672 190.903234,71.4105672 C181.847273,71.4105672 173.324016,71.4105672 167.464277,71.9428027 L167.464277,67.6849184 L173.324016,67.1526829 C177.052941,67.1526829 179.183755,66.6204473 179.716459,65.5559763 C180.781866,64.4915052 180.781866,61.2980919 180.781866,57.0402076 L180.781866,14.9935999 L180.249163,14.9935999 Z" id="Path"></path>
                        <path d="M323.013719,49.58891 L316.621276,61.2980919 C316.088572,62.362563 316.088572,62.8947986 316.088572,63.9592696 C316.088572,66.0882118 318.219387,67.1526829 320.350201,67.1526829 L327.808051,67.6849184 L327.808051,71.4105672 C320.350201,71.4105672 315.023165,70.8783317 310.761537,70.8783317 C306.499908,70.8783317 301.172873,70.8783317 293.715023,71.4105672 L293.715023,67.6849184 L298.509355,67.1526829 C302.23828,66.6204473 304.901798,63.9592696 307.032612,60.7658564 L334.200494,15.5258355 L342.723751,0.0910048168 L353.377822,0.0910048168 L392.797886,62.362563 C394.395997,65.0237407 396.526811,66.6204473 401.321143,67.1526829 L405.050068,67.6849184 L405.050068,71.4105672 C394.928701,71.4105672 387.470851,70.8783317 381.611111,70.8783317 C375.751372,70.8783317 368.293522,70.8783317 358.172154,71.4105672 L358.172154,67.6849184 L366.162708,67.1526829 C367.760819,67.1526829 369.358929,66.0882118 369.358929,63.9592696 C369.358929,63.4270341 368.826226,62.362563 368.293522,61.2980919 L361.368376,49.58891 L323.013719,49.58891 Z M326.742644,43.7343191 L357.639451,43.7343191 L341.658344,17.6547776 L326.742644,43.7343191 Z" id="Shape"></path>
                        <path d="M473.236125,14.9935999 C473.236125,10.7357156 473.236125,8.07453792 472.170718,6.4778313 C471.638014,5.41336022 470.039904,4.88112468 465.778275,4.88112468 L460.45124,4.34888914 L460.45124,0.623240357 C466.310979,0.623240357 472.703422,1.1554759 478.563161,1.1554759 C482.824789,1.1554759 487.086418,1.1554759 491.348046,0.623240357 C496.675082,5.41336022 501.469414,10.2034801 506.79645,14.4613644 L554.207068,51.7178522 L554.207068,14.4613644 C554.207068,10.2034801 554.207068,7.54230238 553.14166,5.94559576 C552.608957,4.88112468 551.010846,4.34888914 546.749218,4.34888914 L540.889478,3.8166536 L540.889478,0.623240357 C546.749218,0.623240357 552.608957,1.1554759 558.468696,1.1554759 C564.328435,1.1554759 570.188175,1.1554759 575.51521,0.623240357 L575.51521,4.34888914 L569.655471,4.88112468 C565.926546,4.88112468 564.328435,5.41336022 563.263028,6.4778313 C562.197621,7.54230238 562.197621,10.7357156 562.197621,14.9935999 L562.197621,61.8303275 C562.197621,65.5559763 562.730325,69.281625 562.730325,72.4750383 L561.664917,73.0072738 L549.412735,71.4105672 C543.020293,66.6204473 536.62785,61.8303275 530.768111,57.0402076 L481.759382,17.1225421 L482.292086,17.1225421 L482.292086,57.5724431 C482.292086,61.8303275 482.292086,64.4915052 483.357493,66.0882118 C483.890197,67.1526829 485.488307,67.6849184 489.749936,67.6849184 L495.609675,68.217154 L495.609675,71.9428027 C489.749936,71.9428027 483.890197,71.4105672 478.563161,71.4105672 C472.703422,71.4105672 466.843682,71.4105672 460.983943,71.9428027 L460.983943,68.217154 L466.310979,67.6849184 C470.039904,67.6849184 471.638014,67.1526829 472.703422,66.0882118 C473.768829,65.0237407 473.768829,61.8303275 473.768829,57.5724431 L473.768829,14.9935999 L473.236125,14.9935999 Z" id="Path"></path>
                    </g>
                    <path d="M42.2789383,37.8797282 C42.2789383,46.9277323 42.2789383,53.8467944 33.7556812,61.8303275 C27.895942,67.6849184 16.1764635,73.0072738 5.52239209,73.0072738 C3.92428139,73.0072738 2.32617068,73.0072738 0.728059975,72.4750383 L0.728059975,63.4270341 L2.32617068,62.8947986 C5.52239209,64.4915052 8.7186135,66.6204473 12.980242,66.6204473 C20.9707956,66.6204473 21.5034991,60.2336209 21.5034991,53.3145588 L21.5034991,15.5258355 C21.5034991,11.2679512 21.5034991,8.60677346 20.438092,7.01006684 C19.9053884,5.94559576 18.3072777,5.94559576 14.0456492,5.41336022 L8.18590993,4.88112468 L8.18590993,0.623240357 C14.5783528,0.623240357 22.5689063,1.1554759 31.6248669,1.1554759 C40.6808276,1.1554759 48.6713811,1.1554759 55.063824,0.623240357 L55.063824,4.88112468 L49.2040847,5.41336022 C45.4751597,5.41336022 43.877049,5.94559576 42.8116419,7.01006684 C41.7462347,8.07453792 41.7462347,11.2679512 41.7462347,15.5258355 L41.7462347,37.8797282 L42.2789383,37.8797282 Z" id="Path"></path>
                </g>
            </g>
        </g>
    </g>
</svg>