<?xml version="1.0" encoding="UTF-8"?> <!-- Generator: Adobe Illustrator 23.0.3, SVG Export Plug-In . SVG Version: 6.00 Build 0) --> <svg xmlns="http://www.w3.org/2000/svg" xmlns:xlink="http://www.w3.org/1999/xlink" id="Layer_1" x="0px" y="0px" viewBox="0 0 378 162" style="enable-background:new 0 0 378 162;" xml:space="preserve"> <style type="text/css"> .st0{fill:#025758;} </style> <g> <g> <g> <path class="st0" d="M62,10.7c-18.4,8.7-30.9,27.8-30.6,48.1C31.3,79.4,44.1,99,62.7,107.3l8.2,3.1c0,0-2.6,0.3-3.2,0.2 c-17.3-0.1-33.3-9.1-42.4-24.4c-8.9-13.7-9.1-35.3-0.6-49.3C32.5,22.5,47.4,14.3,62,10.7"></path> <path class="st0" d="M113.9,18C94.4,12.2,72.4,18,59,33.3c-13.9,15.3-17.5,38.4-9.2,56.9l4,7.8c0,0-2.1-1.5-2.5-2 C38.5,84.3,32.6,67,36.2,49.5c2.6-16.1,16.9-32.3,32.6-37C84.1,7.1,100.7,10.9,113.9,18"></path> <path class="st0" d="M112.9,142.9c-19.6,11.7-49.9,11.5-69.2-0.6C16.5,126.5,2.9,96.8,8.8,65.9c1.7-8.2,4.7-15.8,9.1-22.9 c-6.8,19-2.2,40.6,11.8,54.9C43.1,112.3,64.2,117.4,83,112c3.3-1.2,6.7-2.2,9.8-4L112.9,142.9z"></path> <path class="st0" d="M149.1,64.1c-8.3-18.6-27.1-31.4-47.4-31.6C81.1,32,61.2,44.4,52.6,62.7l-3.3,8.1c0,0-0.2-2.6-0.1-3.2 c0.4-17.3,9.7-33.1,25.3-41.8c13.9-8.6,35.5-8.3,49.3,0.5C137.9,34.3,145.9,49.4,149.1,64.1"></path> </g> </g> <g> <g> <path class="st0" d="M135.3,69.8l-0.1,8.8h-1.5l-0.4-4.6c-2.8-2.6-6.5-3.6-10.5-2.8c-2.6,0.6-4.8,3.1-5.6,5.6 c-1.1,3.3-0.7,7.3,1.1,10c5.6,6.3,15,5.1,19.5,12.9c2.7,4.7,2,11.8-1.2,16c-6.8,7.7-17.5,7.8-27.2,5.9c0.2-3.8,0.1-6.8,0.1-10.5 h1.7c0.7,2.1-0.2,4.9,1.7,6.4c3.6,3.3,9,3.9,13.4,2.1c3.2-1.4,5.7-4.7,6.1-8.2c0.5-3.8-0.3-7.4-3.1-10.1 c-6.3-5.2-17.2-5-19.4-14.5c-1.1-5.3,0.2-10.6,4.2-14.4C119.7,67.6,128.4,68.2,135.3,69.8"></path> <path class="st0" d="M189.9,69.8l25.4,34.9l5.3,6.5c0.5-12.7,0.5-26.4-0.8-39.3c-1.4-0.2-3.1-0.2-4.7-0.4 c-0.4-0.4-0.2-1.1-0.2-1.7l14.7-0.1l0.2,1.7l-4.8,0.4c-2.2,16.1-2.4,33.1-2,49.8h-4.2l-11.4-16.5l-20.6-28 c-0.2,13.5-0.2,28.3,0.7,42c1.5,0.3,3.2,0.5,4.9,0.6l0.1,1.7l-14.7-0.1v-1.5l4.7-0.3c2-15.1,2.2-31.6,1.8-47.3l-0.5-0.5 c-2.1,0-3.9-0.5-5.9,0c-6.4,8.7-11.1,18-15.4,27.6l0.6,20l5.1,0.4c0.3,0.4,0.1,1.1,0.2,1.7h-18.6v-1.6c1.7-0.2,3.5-0.3,5.4-0.3 c0.6-6.2,1-12.7,0.8-19.2c-4.2-9.6-8.8-19.2-14.1-28.4c-1.4-0.2-2.9-0.2-4.3-0.4c-0.4-0.4-0.2-1.1-0.2-1.6l17.5-0.1 c0.2,0.5,0.1,1.1,0.2,1.5c-1.4,0.5-3.2,0.3-4.6,0.5c2.9,8.2,7.1,16.3,11.3,24.2c4.2-7.7,8.2-15.8,11.1-24.1 c-1.2-0.4-2.8-0.3-4.1-0.5v-1.7C175.5,70.2,182.9,69.8,189.9,69.8"></path> <path class="st0" d="M260.7,95.9c3.9,5.1,7.5,10.3,11.8,15.3l0.2-0.2c0.4-12.6,0.2-26.4-1-38.9c-1.4-0.2-3.3-0.2-4.7-0.4 l-0.2-1.6l14.9-0.1v1.6l-4.8,0.4c-2.2,16.2-2.4,32.7-2,49.8h-4.2l-14.9-21.2l-17.1-23.3c-0.4,12.6-0.2,28.3,0.7,42.1 c1.6,0.4,3.5,0.3,5,0.6v1.8c-4.6-0.3-9.8-0.3-14.5,0l-0.2-1.8l4.7-0.3c2-15.1,2.2-31.3,1.8-47.3l-0.5-0.5l-4.7-0.2v-1.8l11,0.1 L260.7,95.9z"></path> <path class="st0" d="M315.5,70l-0.2,8.7l-1.3,0.1c-0.4-1.5,0-3.8-1.8-4.7c-5.1-1.9-10.9-2.4-16.7-2c-0.7,7.3-0.4,15.3-0.6,22.4 c4.2,0.2,8.7,0.3,12.4-1.3c0.7-1.3,0.6-2.9,0.8-4.6h1.6l-0.2,14.5h-1.5c-0.1-1.7-0.1-3.4-0.7-4.8c-3.6-1.9-7.9-1.7-12.2-2 c-0.4,7.3-0.2,15.3,0.2,23c6.4,0.1,13.1,0.1,18.7-2.2c1.3-1.4,0.9-3.5,1.1-5.4l1.6-0.1l-0.1,10l-35.1-0.2v-1.6l5.7-0.3l0.6-9.5 l0.1-30.8l-0.4-7.1l-4.9-0.7c-0.4-0.5,0-1.1,0-1.7C294.4,70.5,303.9,70,315.5,70"></path> <path class="st0" d="M339.6,70l0.1,1.6l-4.9,0.5l0.1,0.7c3.3,6,6.7,12,10.3,17.9c4.4-5.8,8.2-12.1,11.9-18.4 c-1.3-0.4-2.7-0.5-4.1-0.6c-0.2-0.5-0.1-1.1-0.1-1.7c4.6,0.2,9,0.2,13.5-0.1c0.2,0.5,0,1.1,0.1,1.6l-3.6,0.5 c-6.3,6.5-12,13.4-16.6,20.6c5.2,9.2,10,18.5,16.7,27.2l4.4,0.2v1.7l-18.4,0.1V120c1.4-0.2,2.7-0.1,4-0.1 c-1.8-5-4.7-9.9-7.2-14.7c-1.3-2.1-2.6-4.3-3.8-6.4c-4,4.7-7.4,10-10.8,15.1l-3.4,5.6c1.4,0.5,3.5,0.3,5.3,0.5v1.8h-15.8V120 l4.2-0.2c7.5-7.2,13.5-15.2,19.2-23.3c-4.6-8.2-9.3-16.4-14.9-24.2c-1.6-1-5.7,0.9-4.8-2.4C327,70.4,333.6,70.4,339.6,70"></path> </g> <g> <g> <path class="st0" d="M196,142.2l-1.2,2.2c-0.1,0.2-0.1,0.3-0.1,0.5c0,0.4,0.4,0.6,0.8,0.6l1.4,0.1v0.7c-1.4,0-2.4-0.1-3.2-0.1 s-1.8,0-3.2,0.1v-0.7l0.9-0.1c0.7-0.1,1.3-0.6,1.6-1.2l5.1-8.5l1.6-2.9h2l7.4,11.7c0.3,0.5,0.7,0.8,1.6,0.9l0.7,0.1v0.7 c-1.9,0-3.3-0.1-4.4-0.1c-1.1,0-2.5,0-4.4,0.1v-0.7l1.5-0.1c0.3,0,0.6-0.2,0.6-0.6c0-0.1-0.1-0.3-0.2-0.5l-1.3-2.2H196z M196.7,141.1h5.8l-3-4.9L196.7,141.1z"></path> <path class="st0" d="M224.3,135.7c0-0.8,0-1.3-0.2-1.6c-0.1-0.2-0.4-0.3-1.2-0.3l-1.1-0.1V133c1.9,0,3.3,0.1,4.4,0.1 c1.9,0,3.8,0,5.8-0.1h0.3c2.8,0,5.3,0.6,5.3,2.9c0,2.6-2.9,4.1-6.6,4.1c-0.5,0-1-0.1-1.5-0.1l-0.5-0.7l0.3-0.2 c0.4,0,0.8,0.1,1.2,0.1c2,0,3-1.2,3-2.4c0-1.6-0.9-2.7-3.4-2.7c-0.6,0-1.4,0-1.8,0.2v9.4c0,0.8,0,1.3,0.2,1.6 c0.1,0.2,0.4,0.2,1.2,0.3l1.3,0.1v0.8c-1.4,0-3-0.1-4.7-0.1c-1.7,0-3.3,0-4.4,0.1v-0.8l1.1-0.1c0.7,0,1.1-0.1,1.2-0.3 c0.2-0.2,0.2-0.8,0.2-1.6V135.7z"></path> <path class="st0" d="M251.1,142.2l-1.2,2.2c-0.1,0.2-0.1,0.3-0.1,0.5c0,0.4,0.4,0.6,0.8,0.6l1.4,0.1v0.7c-1.4,0-2.4-0.1-3.2-0.1 c-0.8,0-1.8,0-3.2,0.1v-0.7l0.9-0.1c0.7-0.1,1.2-0.6,1.6-1.2l5.1-8.5l1.6-2.9h2l7.4,11.7c0.3,0.5,0.7,0.8,1.6,0.9l0.7,0.1v0.7 c-1.9,0-3.3-0.1-4.4-0.1c-1.1,0-2.5,0-4.4,0.1v-0.7l1.5-0.1c0.3,0,0.6-0.2,0.6-0.6c0-0.1-0.1-0.3-0.2-0.5l-1.3-2.2H251.1z M251.8,141.1h5.8l-3-4.9L251.8,141.1z"></path> <path class="st0" d="M279.3,135.7c0-0.8,0-1.3-0.2-1.6c-0.1-0.2-0.4-0.3-1.2-0.3l-1-0.1V133c1.1,0,2.3,0.1,3.4,0.1 c0.8,0,1.6,0,2.4-0.1c1,0.9,1.9,1.8,2.9,2.6l8.9,7v-7c0-0.8,0-1.3-0.2-1.6c-0.1-0.2-0.4-0.3-1.2-0.3l-1.1-0.1V133 c1.1,0,2.2,0.1,3.3,0.1s2.2,0,3.2-0.1v0.7l-1.1,0.1c-0.7,0-1,0.1-1.2,0.3c-0.2,0.2-0.2,0.8-0.2,1.6v8.8c0,0.7,0.1,1.4,0.1,2 l-0.2,0.1l-2.3-0.3c-1.2-0.9-2.4-1.8-3.5-2.7l-9.2-7.5H281v7.6c0,0.8,0,1.3,0.2,1.6c0.1,0.2,0.4,0.3,1.2,0.3l1.1,0.1v0.7 c-1.1,0-2.2-0.1-3.2-0.1c-1.1,0-2.2,0-3.3,0.1v-0.7l1-0.1c0.7,0,1-0.1,1.2-0.3c0.2-0.2,0.2-0.8,0.2-1.6V135.7z"></path> </g> <path class="st0" d="M177.4,140c0,1.7,0,3-1.6,4.5c-1.1,1.1-3.3,2.1-5.3,2.1c-0.3,0-0.6,0-0.9-0.1v-1.7l0.3-0.1 c0.6,0.3,1.2,0.7,2,0.7c1.5,0,1.6-1.2,1.6-2.5v-7.1c0-0.8,0-1.3-0.2-1.6c-0.1-0.2-0.4-0.2-1.2-0.3l-1.1-0.1V133 c1.2,0,2.7,0.1,4.4,0.1c1.7,0,3.2,0,4.4-0.1v0.8l-1.1,0.1c-0.7,0-1,0.1-1.2,0.3c-0.2,0.2-0.2,0.8-0.2,1.6V140z"></path> </g> </g> </g> </svg> 