<?xml version="1.0" encoding="UTF-8"?>
<svg width="44px" height="44px" viewBox="0 0 44 44" version="1.1" xmlns="http://www.w3.org/2000/svg" xmlns:xlink="http://www.w3.org/1999/xlink">
    <title>tax</title>
    <defs>
        <linearGradient x1="50%" y1="0%" x2="50%" y2="100%" id="linearGradient-1">
            <stop stop-color="#005E91" offset="0%"></stop>
            <stop stop-color="#003058" offset="100%"></stop>
        </linearGradient>
        <linearGradient x1="50%" y1="0%" x2="50%" y2="100%" id="linearGradient-2">
            <stop stop-color="#005E91" offset="0%"></stop>
            <stop stop-color="#003058" offset="100%"></stop>
        </linearGradient>
        <linearGradient x1="50%" y1="0%" x2="50%" y2="100%" id="linearGradient-3">
            <stop stop-color="#005E91" offset="0%"></stop>
            <stop stop-color="#003058" offset="100%"></stop>
        </linearGradient>
        <linearGradient x1="50%" y1="0%" x2="50%" y2="100%" id="linearGradient-4">
            <stop stop-color="#005E91" offset="0%"></stop>
            <stop stop-color="#003058" offset="100%"></stop>
        </linearGradient>
        <linearGradient x1="50%" y1="0%" x2="50%" y2="100%" id="linearGradient-5">
            <stop stop-color="#005E91" offset="0%"></stop>
            <stop stop-color="#003058" offset="100%"></stop>
        </linearGradient>
        <linearGradient x1="50%" y1="0%" x2="50%" y2="100%" id="linearGradient-6">
            <stop stop-color="#005E91" offset="0%"></stop>
            <stop stop-color="#003058" offset="100%"></stop>
        </linearGradient>
    </defs>
    <g id="⏹️-Product-Wireframe" stroke="none" stroke-width="1" fill="none" fill-rule="evenodd">
        <g id="sections-/-Tax-Icons-" transform="translate(-951.000000, -63.000000)" fill-rule="nonzero">
            <g id="tax" transform="translate(951.000000, 63.000000)">
                <path d="M22.9453125,37.640625 L5.58507813,37.640625 C5.11053125,37.640625 4.72570313,38.0253672 4.72570313,38.5 C4.72570313,38.9746328 5.11053125,39.359375 5.58507813,39.359375 L22.9453125,39.359375 C23.4198594,39.359375 23.8046875,38.9746328 23.8046875,38.5 C23.8046875,38.0253672 23.4198594,37.640625 22.9453125,37.640625 Z" id="Path" fill="url(#linearGradient-1)"></path>
                <path d="M6.19257031,33.0799219 C6.0328125,32.9200781 5.81109375,32.828125 5.58507812,32.828125 C5.35897656,32.828125 5.13725781,32.9200781 4.9775,33.0799219 C4.81765625,33.2397656 4.72570312,33.4614844 4.72570312,33.6875 C4.72570312,33.9135156 4.81757031,34.1352344 4.9775,34.2950781 C5.13725781,34.4549219 5.35897656,34.546875 5.58507812,34.546875 C5.81109375,34.546875 6.0328125,34.4549219 6.19257031,34.2950781 C6.35241406,34.1352344 6.44445312,33.9135156 6.44445312,33.6875 C6.44445312,33.4614844 6.3525,33.2397656 6.19257031,33.0799219 Z" id="Path" fill="url(#linearGradient-2)"></path>
                <path d="M22.9453125,32.828125 L9.3671875,32.828125 C8.89264063,32.828125 8.5078125,33.2128672 8.5078125,33.6875 C8.5078125,34.1621328 8.89264063,34.546875 9.3671875,34.546875 L22.9453125,34.546875 C23.4198594,34.546875 23.8046875,34.1621328 23.8046875,33.6875 C23.8046875,33.2128672 23.4198594,32.828125 22.9453125,32.828125 Z" id="Path" fill="url(#linearGradient-3)"></path>
                <path d="M22.9453125,28.015625 L5.5,28.015625 C5.02545313,28.015625 4.640625,28.4003672 4.640625,28.875 C4.640625,29.3496328 5.02545313,29.734375 5.5,29.734375 L22.9453125,29.734375 C23.4198594,29.734375 23.8046875,29.3496328 23.8046875,28.875 C23.8046875,28.4003672 23.4198594,28.015625 22.9453125,28.015625 Z" id="Path" fill="url(#linearGradient-4)"></path>
                <path d="M6.19257031,23.4549219 C6.0328125,23.2950781 5.81109375,23.203125 5.58507812,23.203125 C5.35897656,23.203125 5.13725781,23.2950781 4.9775,23.4549219 C4.81765625,23.6147656 4.72570312,23.8364844 4.72570312,24.0625 C4.72570312,24.2885156 4.81757031,24.5102344 4.9775,24.6700781 C5.13725781,24.8299219 5.35897656,24.921875 5.58507812,24.921875 C5.81109375,24.921875 6.0328125,24.8299219 6.19257031,24.6700781 C6.35241406,24.5102344 6.44445312,24.289375 6.44445312,24.0625 C6.44445312,23.8364844 6.3525,23.6147656 6.19257031,23.4549219 Z" id="Path" fill="url(#linearGradient-2)"></path>
                <path d="M22.9453125,23.203125 L9.3671875,23.203125 C8.89264063,23.203125 8.5078125,23.5878672 8.5078125,24.0625 C8.5078125,24.5371328 8.89264063,24.921875 9.3671875,24.921875 L22.9453125,24.921875 C23.4198594,24.921875 23.8046875,24.5371328 23.8046875,24.0625 C23.8046875,23.5878672 23.4198594,23.203125 22.9453125,23.203125 Z" id="Path" fill="url(#linearGradient-3)"></path>
                <path d="M10.0936172,10.2963438 L5.5,10.2963438 C5.02545313,10.2963438 4.640625,10.6810859 4.640625,11.1557188 C4.640625,11.6303516 5.02545313,12.0150938 5.5,12.0150938 L6.93747656,12.0150938 L6.93747656,18.4427891 C6.93747656,18.9174219 7.32230469,19.3021641 7.79685156,19.3021641 C8.27139844,19.3021641 8.65622656,18.9174219 8.65622656,18.4427891 L8.65622656,12.0150938 L10.0937031,12.0150938 C10.56825,12.0150938 10.9530781,11.6303516 10.9530781,11.1557188 C10.9530781,10.6810859 10.56825,10.2963438 10.0936172,10.2963438 Z" id="Path" fill="#B03478"></path>
                <path d="M18.7157266,18.107375 L15.6440625,10.8750469 C15.5093125,10.5576797 15.197875,10.3516016 14.8530937,10.3516016 C14.5083125,10.3516016 14.196875,10.5576797 14.062125,10.8750469 L10.990375,18.107375 C10.8048359,18.5442812 11.0085937,19.0488203 11.4454141,19.2342734 C11.5549844,19.2808516 11.6689375,19.3029251 11.7809141,19.3029251 C12.1153828,19.3029251 12.4333516,19.1063984 12.5723125,18.7792344 L13.1217109,17.485875 L16.5844766,17.485875 L17.1337891,18.7792344 C17.3193281,19.2161406 17.8237812,19.4198984 18.2606875,19.2342734 C18.6975078,19.0487344 18.9012656,18.5441953 18.7157266,18.107375 Z M13.8516641,15.7672109 L14.8530937,13.4093437 L15.8545234,15.7672109 L13.8516641,15.7672109 Z" id="Shape" fill="#B03478"></path>
                <path d="M23.7355078,14.8008438 L25.7559844,11.6149688 C26.0101016,11.2142422 25.89125,10.6832344 25.4904375,10.4290313 C25.0895391,10.1747422 24.5585313,10.2937656 24.3044141,10.6944922 L22.7178359,13.1962188 L21.1312578,10.6944922 C20.8770547,10.2937656 20.3462188,10.1748281 19.9452344,10.4290313 C19.5444219,10.6832344 19.4255703,11.2142422 19.6796875,11.6150547 L21.7001641,14.8009297 L19.6796875,17.9867188 C19.4255703,18.3875313 19.5444219,18.9185391 19.9452344,19.1727422 C20.0879766,19.2633203 20.2473047,19.3065469 20.4046563,19.3065469 C20.6891953,19.3065469 20.9676328,19.1653516 21.1312578,18.9072813 L22.7178359,16.4055547 L24.3044141,18.9072813 C24.468125,19.1653516 24.7464766,19.3065469 25.0310156,19.3065469 C25.1883672,19.3065469 25.3476953,19.2633203 25.4904375,19.1727422 C25.89125,18.9185391 26.0101016,18.3875313 25.7559844,17.9867188 L23.7355078,14.8008438 Z" id="Path" fill="#B03478"></path>
                <path d="M41.6796875,19.5884219 L28.1015625,19.5884219 C26.822125,19.5884219 25.78125,20.6292969 25.78125,21.9087344 L25.78125,41.6796875 C25.78125,41.8877422 25.8091797,42.0892656 25.8608281,42.28125 L2.578125,42.28125 C2.10426563,42.28125 1.71875,41.8957344 1.71875,41.421875 L1.71875,2.578125 C1.71875,2.10426563 2.10426563,1.71875 2.578125,1.71875 L26.8984375,1.71875 L26.8984375,6.94950781 C26.8984375,8.383375 28.0649531,9.54997656 29.4989062,9.54997656 L34.71875,9.54997656 L34.71875,16.6265 C34.71875,17.1011328 35.1035781,17.485875 35.578125,17.485875 C36.0526719,17.485875 36.4375,17.1011328 36.4375,16.6265 L36.4375,8.69060156 C36.4368125,8.6906875 36.436125,8.6906875 36.4354375,8.69077344 C36.4354375,8.46716406 36.3501016,8.24733594 36.1857891,8.0829375 L28.3654766,0.262625 C28.2003047,0.097453125 27.9791016,0.0122890625 27.7542891,0.0131484375 C27.7556641,0.0085078125 27.7564375,0.004640625 27.7578125,0 L2.578125,0 C1.15654688,0 0,1.15654688 0,2.578125 L0,41.421875 C0,42.8434531 1.15654688,44 2.578125,44 L41.6796875,44 C42.959125,44 44,42.959125 44,41.6796875 L44,21.9087344 C44,20.6292969 42.959125,19.5884219 41.6796875,19.5884219 Z M28.6171875,2.94499219 L33.5033359,7.83122656 L29.4989062,7.83122656 C29.0127578,7.83122656 28.6171875,7.43565625 28.6171875,6.94950781 L28.6171875,2.94499219 Z M42.28125,41.6796875 C42.28125,42.0114062 42.0113203,42.28125 41.6796875,42.28125 L28.1015625,42.28125 C27.7699297,42.28125 27.5,42.0114062 27.5,41.6796875 L27.5,21.9087344 C27.5,21.5770156 27.7699297,21.3071719 28.1015625,21.3071719 L41.6796875,21.3071719 C42.0113203,21.3071719 42.28125,21.5770156 42.28125,21.9087344 L42.28125,41.6796875 Z" id="Shape" fill="url(#linearGradient-2)"></path>
                <path d="M39.703125,23.0259219 L30.078125,23.0259219 C29.6035781,23.0259219 29.21875,23.4106641 29.21875,23.8852969 L29.21875,27.3227969 C29.21875,27.7974297 29.6035781,28.1821719 30.078125,28.1821719 L39.703125,28.1821719 C40.1776719,28.1821719 40.5625,27.7974297 40.5625,27.3227969 L40.5625,23.8852969 C40.5625,23.4106641 40.1776719,23.0259219 39.703125,23.0259219 Z M38.84375,26.4634219 L30.9375,26.4634219 L30.9375,24.7446719 L38.84375,24.7446719 L38.84375,26.4634219 Z" id="Shape" fill="url(#linearGradient-5)"></path>
                <path d="M31.109375,30.5884219 L30.078125,30.5884219 C29.6035781,30.5884219 29.21875,30.9731641 29.21875,31.4477969 C29.21875,31.9224297 29.6035781,32.3071719 30.078125,32.3071719 L31.109375,32.3071719 C31.5839219,32.3071719 31.96875,31.9224297 31.96875,31.4477969 C31.96875,30.9731641 31.5839219,30.5884219 31.109375,30.5884219 Z" id="Path" fill="url(#linearGradient-6)"></path>
                <path d="M35.40625,30.5884219 L34.375,30.5884219 C33.9004531,30.5884219 33.515625,30.9731641 33.515625,31.4477969 C33.515625,31.9224297 33.9004531,32.3071719 34.375,32.3071719 L35.40625,32.3071719 C35.8807969,32.3071719 36.265625,31.9224297 36.265625,31.4477969 C36.265625,30.9731641 35.8807969,30.5884219 35.40625,30.5884219 Z" id="Path" fill="url(#linearGradient-6)"></path>
                <path d="M39.703125,30.5884219 L38.671875,30.5884219 C38.1973281,30.5884219 37.8125,30.9731641 37.8125,31.4477969 C37.8125,31.9224297 38.1973281,32.3071719 38.671875,32.3071719 L39.703125,32.3071719 C40.1776719,32.3071719 40.5625,31.9224297 40.5625,31.4477969 C40.5625,30.9731641 40.1776719,30.5884219 39.703125,30.5884219 Z" id="Path" fill="url(#linearGradient-6)"></path>
                <path d="M31.109375,34.7134219 L30.078125,34.7134219 C29.6035781,34.7134219 29.21875,35.0981641 29.21875,35.5727969 C29.21875,36.0474297 29.6035781,36.4321719 30.078125,36.4321719 L31.109375,36.4321719 C31.5839219,36.4321719 31.96875,36.0474297 31.96875,35.5727969 C31.96875,35.0981641 31.5839219,34.7134219 31.109375,34.7134219 Z" id="Path" fill="url(#linearGradient-6)"></path>
                <path d="M35.40625,34.7134219 L34.375,34.7134219 C33.9004531,34.7134219 33.515625,35.0981641 33.515625,35.5727969 C33.515625,36.0474297 33.9004531,36.4321719 34.375,36.4321719 L35.40625,36.4321719 C35.8807969,36.4321719 36.265625,36.0474297 36.265625,35.5727969 C36.265625,35.0981641 35.8807969,34.7134219 35.40625,34.7134219 Z" id="Path" fill="url(#linearGradient-6)"></path>
                <path d="M39.703125,34.7134219 L38.671875,34.7134219 C38.1973281,34.7134219 37.8125,35.0981641 37.8125,35.5727969 C37.8125,36.0474297 38.1973281,36.4321719 38.671875,36.4321719 L39.703125,36.4321719 C40.1776719,36.4321719 40.5625,36.0474297 40.5625,35.5727969 C40.5625,35.0981641 40.1776719,34.7134219 39.703125,34.7134219 Z" id="Path" fill="url(#linearGradient-6)"></path>
                <path d="M31.109375,38.8384219 L30.078125,38.8384219 C29.6035781,38.8384219 29.21875,39.2231641 29.21875,39.6977969 C29.21875,40.1724297 29.6035781,40.5571719 30.078125,40.5571719 L31.109375,40.5571719 C31.5839219,40.5571719 31.96875,40.1724297 31.96875,39.6977969 C31.96875,39.2231641 31.5839219,38.8384219 31.109375,38.8384219 Z" id="Path" fill="url(#linearGradient-6)"></path>
                <path d="M35.40625,38.8384219 L34.375,38.8384219 C33.9004531,38.8384219 33.515625,39.2231641 33.515625,39.6977969 C33.515625,40.1724297 33.9004531,40.5571719 34.375,40.5571719 L35.40625,40.5571719 C35.8807969,40.5571719 36.265625,40.1724297 36.265625,39.6977969 C36.265625,39.2231641 35.8807969,38.8384219 35.40625,38.8384219 Z" id="Path" fill="url(#linearGradient-6)"></path>
                <path d="M39.703125,38.8384219 L38.671875,38.8384219 C38.1973281,38.8384219 37.8125,39.2231641 37.8125,39.6977969 C37.8125,40.1724297 38.1973281,40.5571719 38.671875,40.5571719 L39.703125,40.5571719 C40.1776719,40.5571719 40.5625,40.1724297 40.5625,39.6977969 C40.5625,39.2231641 40.1776719,38.8384219 39.703125,38.8384219 Z" id="Path" fill="url(#linearGradient-6)"></path>
            </g>
        </g>
    </g>
</svg>