<?xml version="1.0" encoding="UTF-8"?>
<svg width="46px" height="47px" viewBox="0 0 46 47" version="1.1" xmlns="http://www.w3.org/2000/svg" xmlns:xlink="http://www.w3.org/1999/xlink">
    <title>tick-card</title>
    <defs>
        <linearGradient x1="50%" y1="0%" x2="50%" y2="100%" id="linearGradient-1">
            <stop stop-color="#005E91" offset="0%"></stop>
            <stop stop-color="#003058" offset="100%"></stop>
        </linearGradient>
        <linearGradient x1="50%" y1="0%" x2="50%" y2="100%" id="linearGradient-2">
            <stop stop-color="#005E91" offset="0%"></stop>
            <stop stop-color="#003058" offset="100%"></stop>
        </linearGradient>
    </defs>
    <g id="⏹️-Product-Wireframe" stroke="none" stroke-width="1" fill="none" fill-rule="evenodd">
        <g id="DR---Payments-2" transform="translate(-152.000000, -4763.000000)">
            <g id="Benefits" transform="translate(0.000000, 4304.000000)">
                <g id="elements-/-card-/-icon+h3+p-copy-3" transform="translate(150.000000, 419.000000)">
                    <g id="Group" transform="translate(0.000000, 38.000000)">
                        <path d="M6.45,3 L31.55,3 C33.4553824,3 35,4.54461761 35,6.45 L35,20.55 C35,22.4553824 33.4553824,24 31.55,24 L6.45,24 C4.54461761,24 3,22.4553824 3,20.55 L3,6.45 C3,4.54461761 4.54461761,3 6.45,3 Z M3.34042553,9.65 L33.9787234,9.65" id="Combined-Shape" stroke="url(#linearGradient-1)" stroke-width="2"></path>
                        <line x1="7.35294118" y1="13.5" x2="18.6470588" y2="13.5" id="Line-2" stroke="#B03478" stroke-width="1.38" stroke-linecap="square"></line>
                        <line x1="26.3571429" y1="13.5" x2="30.6428571" y2="13.5" id="Line-2-Copy" stroke="#B03478" stroke-width="1.38" stroke-linecap="square"></line>
                        <line x1="7.35714286" y1="15.5" x2="11.6428571" y2="15.5" id="Line-2-Copy-2" stroke="#B03478" stroke-width="1.38" stroke-linecap="square"></line>
                        <circle id="Oval-Copy" fill="#FFFFFF" cx="33" cy="34" r="15"></circle>
                        <circle id="Oval" stroke="url(#linearGradient-2)" stroke-width="2" cx="34" cy="34" r="11"></circle>
                        <path d="M27.5,33.5 L31.5,37.5 M31.5,37.5 L39.5,29.5" id="Combined-Shape" stroke="#B03478" stroke-width="2" stroke-linecap="square"></path>
                    </g>
                </g>
            </g>
        </g>
    </g>
</svg>