<?xml version="1.0" encoding="UTF-8"?>
<svg width="48px" height="48px" viewBox="0 0 48 48" version="1.1" xmlns="http://www.w3.org/2000/svg" xmlns:xlink="http://www.w3.org/1999/xlink">
    <title>icons / wallet</title>
    <defs>
        <linearGradient x1="50%" y1="0%" x2="50%" y2="100%" id="linearGradient-1">
            <stop stop-color="#005E91" offset="0%"></stop>
            <stop stop-color="#003058" offset="100%"></stop>
        </linearGradient>
    </defs>
    <g id="icons-/-wallet" stroke="none" stroke-width="1" fill="none" fill-rule="evenodd">
        <path d="M38.3941063,6 C41.6385145,5.97680017 44.2716573,8.60994303 44.2716573,11.8543512 L44.2708479,17.7498479 L45.4236573,17.7507104 C46.0584328,17.7272002 46.5991675,18.2679349 46.5991675,18.9027104 L46.5991675,28.306792 C46.5991675,28.9415675 46.0584328,29.4823022 45.4236573,29.4823022 C45.4001471,29.4823022 45.4001471,29.4799512 45.4001471,29.4799512 L45.5176981,29.5810451 L44.1768479,29.5808479 L44.1776165,35.2940247 C44.1776165,38.5384328 41.5444736,41.1715757 38.3000655,41.1715757 L38.2765553,41.1715757 L38.2765553,41.1715757 L38.4646369,41.3361471 L7.9013716,41.3361471 L7.8778614,41.3337961 C4.60994303,41.3102859 2,38.7006532 2,35.4327349 L2,11.9225308 C1.97680017,8.63345323 4.60994303,6 7.85435119,6 L38.3941063,6 Z M38.3941063,8.32782058 L7.80733078,8.32782058 C5.85598385,8.32782058 4.28080017,9.90300425 4.28080017,11.8543512 L4.28080017,35.3645553 C4.28080017,37.292392 5.85598385,38.8675757 7.80733078,38.8675757 L38.3470859,38.8675757 C40.2749226,38.8440655 41.8501063,37.2688818 41.8501063,35.3410451 L41.8498479,29.5808479 L36.1136165,29.5810451 L36.0901063,29.578694 C32.8221879,29.5551838 30.2125553,26.9455512 30.2125553,23.6776328 L30.1890451,23.6517716 C30.1655349,22.0765879 30.8003104,20.5719349 31.9288002,19.4904655 L31.9288002,19.4669553 C33.0102696,18.3384655 34.4914124,17.7272002 36.0430859,17.7507104 L41.9198479,17.7498479 L41.9206369,11.8543512 C41.9206369,9.90300425 40.321943,8.32782058 38.3941063,8.32782058 Z M44.3186777,20.129943 L36.1136165,20.1769634 L36.1136165,20.1534532 C34.2273145,20.1761798 32.7144851,21.62689 32.594489,23.4862232 L32.5868479,23.6768479 L32.5870859,23.6799838 L32.5870859,23.6564736 C32.5635757,25.5843104 34.1622696,27.1830043 36.0901063,27.1830043 L42.5510043,27.1837389 C42.6905961,27.1227594 42.8434124,27.0889634 43.0021063,27.0889634 C43.1719704,27.0826722 43.3351004,27.1167855 43.4829366,27.1822932 L44.3186777,27.1830043 L44.3186777,20.129943 Z" id="Combined-Shape" fill="url(#linearGradient-1)"></path>
        <path d="M37.2891267,23.703494 L37.2656165,23.6799838 C37.2891267,23.8210451 37.2891267,23.9621063 37.2656165,24.1266777 L37.2421063,24.1266777 C37.1715757,24.2677389 37.1010451,24.38529 36.9599838,24.4793308 L36.9599838,24.4558206 C36.51329,24.9025145 35.8079838,24.9260247 35.36129,24.502841 C35.3377798,24.4793308 35.3142696,24.4558206 35.2907594,24.4323104 C35.0086369,24.2207185 34.8440655,23.9150859 34.8440655,23.6094532 L34.8205553,23.585943 C34.7970451,23.2568002 34.9381063,22.9746777 35.1732083,22.7630859 L35.1732083,22.7395757 C35.6199022,22.2693716 36.3487185,22.2693716 36.8189226,22.7395757 C37.0305145,22.9511675 37.1715757,23.23329 37.1480655,23.5624328 L37.2891267,23.703494 Z" id="Path" fill="#B03478" fill-rule="nonzero"></path>
    </g>
</svg>